<svg width="559" height="380" viewBox="0 0 559 380" fill="none" xmlns="http://www.w3.org/2000/svg">
<g clip-path="url(#clip0_35_550)">
<rect width="559" height="380" rx="16" fill="#EBDEDC"/>
<path fill-rule="evenodd" clip-rule="evenodd" d="M-3 -7.51355H841V386.441H-3V-7.51355ZM-1.09481 -5.53884V90.8922H90.3544V-5.53884H-1.09481ZM92.2596 -5.53884V90.8922H184.661V-5.53884H92.2596ZM186.567 -5.53884V90.8922H277.063V-5.53884H186.567ZM278.968 -5.53884V90.8922H371.37V-5.53884H278.968ZM373.275 -5.53884V90.8922H464.725V-5.53884H373.275ZM466.63 -5.53884V90.8922H559.032V-5.53884H466.63ZM560.937 -5.53884V90.8922H651.433V-5.53884H560.937ZM653.339 -5.53884V90.8922H745.74V-5.53884H653.339ZM747.646 -5.53884V90.8922H839.095V-5.53884H747.646ZM839.095 92.8669H747.646V188.313H839.095V92.8669ZM839.095 190.287H747.646V286.718H839.095V190.287ZM839.095 288.693H747.646V384.139H839.095V288.693ZM745.74 384.139V288.693H653.339V384.139H745.74ZM651.433 384.139V288.693H560.937V384.139H651.433ZM559.032 384.139V288.693H466.63V384.139H559.032ZM464.725 384.139V288.693H373.275V384.139H464.725ZM371.37 384.139V288.693H278.968V384.139H371.37ZM277.063 384.139V288.693H186.567V384.139H277.063ZM184.661 384.139V288.693H92.2596V384.139H184.661ZM90.3544 384.139V288.693H-1.09481V384.139H90.3544ZM-1.09481 286.718H90.3544V190.287H-1.09481V286.718ZM-1.09481 188.313H90.3544V92.8669H-1.09481V188.313ZM92.2596 92.8669V188.313H184.661V92.8669H92.2596ZM186.567 92.8669V188.313H277.063V92.8669H186.567ZM278.968 92.8669V188.313H371.37V92.8669H278.968ZM373.275 92.8669V188.313H464.725V92.8669H373.275ZM466.63 92.8669V188.313H559.032V92.8669H466.63ZM560.937 92.8669V188.313H651.433V92.8669H560.937ZM653.339 92.8669V188.313H745.74V92.8669H653.339ZM745.74 190.287H653.339V286.718H745.74V190.287ZM651.433 286.718V190.287H560.937V286.718H651.433ZM559.032 286.718V190.287H466.63V286.718H559.032ZM464.725 286.718V190.287H373.275V286.718H464.725ZM371.37 286.718V190.287H278.968V286.718H371.37ZM277.063 286.718V190.287H186.567V286.718H277.063ZM184.661 286.718V190.287H92.2596V286.718H184.661Z" fill="black" fill-opacity="0.1"/>
</g>
<defs>
<clipPath id="clip0_35_550">
<rect width="559" height="380" fill="white"/>
</clipPath>
</defs>
</svg>
