<svg width="56" height="56" viewBox="0 0 56 56" fill="none" xmlns="http://www.w3.org/2000/svg">
<g id="Group">
<path id="Vector" d="M55.1611 34.7749C51.4195 49.7776 36.2246 58.9024 21.2199 55.1612C6.23041 51.4201 -2.90323 36.2273 0.838447 21.2322C4.58012 6.22952 19.775 -2.90289 34.7721 0.838281C49.7768 4.57945 58.9028 19.7722 55.1611 34.7749Z" fill="#F7931A"/>
<path id="Vector_2" d="M40.3467 24.0158C40.9019 20.2898 38.0652 18.29 34.1866 16.9517L35.4414 11.9026L32.369 11.1346L31.1446 16.0468C30.3385 15.8491 29.5095 15.659 28.6806 15.4689L29.9126 10.5263L26.8402 9.7583L25.5777 14.7998C24.9085 14.6477 24.2545 14.4956 23.6156 14.3359V14.3207L19.3796 13.2637L18.5659 16.5487C18.5659 16.5487 20.8474 17.0733 20.7942 17.1038C22.0414 17.4155 22.2619 18.2368 22.2239 18.8907L20.7866 24.6621L18.7788 32.7148C18.6267 33.095 18.2389 33.6577 17.3719 33.4448C17.4023 33.4904 15.136 32.8897 15.136 32.8897L13.6074 36.4103L17.6077 37.4064C18.353 37.5965 19.083 37.7866 19.7979 37.9691L18.5279 43.0714L21.6003 43.8394L22.8627 38.7904C23.6993 39.0185 24.513 39.2314 25.3116 39.4291L24.0567 44.4553L27.1292 45.2234L28.3992 40.1287C33.6391 41.1172 37.5785 40.7218 39.2364 35.9845C40.5748 32.1673 39.1679 29.9697 36.4149 28.5326C38.4226 28.0687 39.936 26.7456 40.3391 24.0234L40.3467 24.0158ZM33.3273 33.8554C32.3766 37.6726 25.9504 35.6119 23.8666 35.0872L25.5549 28.3273C27.6387 28.8443 34.3159 29.8785 33.3273 33.8554ZM34.2779 23.955C33.4109 27.4224 28.0646 25.6583 26.3306 25.2324L27.8592 19.096C29.5932 19.5294 35.1829 20.3355 34.2779 23.955Z" fill="white"/>
</g>
</svg>
