<svg width="56" height="56" viewBox="0 0 56 56" fill="none" xmlns="http://www.w3.org/2000/svg">
<g id="Group">
<path id="Vector" d="M28 56C43.5209 56 56 43.5209 56 28C56 12.4791 43.5133 0 28 0C12.4867 0 0 12.4791 0 28C0 43.5209 12.4791 56 28 56Z" fill="#2775CA"/>
<path id="Vector_2" d="M35.6956 32.4329C35.6956 28.3492 33.2469 26.95 28.3419 26.3644C24.8438 25.9005 24.1442 24.9652 24.1442 23.3302C24.1442 21.6952 25.3153 20.6458 27.6423 20.6458C29.7412 20.6458 30.9123 21.3454 31.4902 23.0945C31.6043 23.4443 31.9541 23.68 32.3115 23.68H34.1822C34.6461 23.68 35.0035 23.3302 35.0035 22.8587V22.7447C34.5397 20.1743 32.4332 18.1971 29.7564 17.9614V15.1629C29.7564 14.699 29.4066 14.3416 28.821 14.2275H27.072C26.6081 14.2275 26.2507 14.5774 26.1366 15.1629V17.8473C22.6385 18.3112 20.418 20.6458 20.418 23.5659C20.418 27.4139 22.7526 28.9348 27.6499 29.5127C30.9199 30.0983 31.9693 30.7979 31.9693 32.661C31.9693 34.5241 30.3343 35.8093 28.1214 35.8093C25.0872 35.8093 24.0377 34.5241 23.6879 32.7751C23.5739 32.3112 23.224 32.0755 22.8666 32.0755H20.8819C20.418 32.0755 20.0605 32.4253 20.0605 32.8967V33.0108C20.5244 35.931 22.3952 38.0298 26.2431 38.6078V41.4063C26.2431 41.8701 26.5929 42.2275 27.1784 42.3416H28.9275C29.3913 42.3416 29.7488 41.9918 29.8628 41.4063V38.6078C33.3609 38.0222 35.6956 35.5736 35.6956 32.4253V32.4329Z" fill="white"/>
<path id="Vector_3" d="M22.0446 44.6849C12.942 41.4149 8.28039 31.2704 11.6644 22.2818C13.4135 17.3845 17.2614 13.6507 22.0446 11.9016C22.5085 11.6659 22.7443 11.3161 22.7443 10.7305V9.09552C22.7443 8.63164 22.5085 8.27422 22.0446 8.16016C21.9306 8.16016 21.6948 8.16016 21.5808 8.27423C10.5009 11.7723 4.43248 23.5594 7.93058 34.6393C10.0294 41.1716 15.0484 46.1906 21.5808 48.2894C22.0446 48.5252 22.5161 48.2894 22.6302 47.8256C22.7443 47.7115 22.7443 47.5898 22.7443 47.3617V45.7267C22.7443 45.3769 22.3945 44.9054 22.0446 44.6773V44.6849ZM34.4097 8.28183C33.9458 8.04609 33.4743 8.28183 33.3602 8.74571C33.2462 8.85978 33.2462 8.98145 33.2462 9.20959V10.8446C33.2462 11.3084 33.596 11.7799 33.9458 12.0157C43.0484 15.2856 47.71 25.4301 44.326 34.4187C42.577 39.3161 38.7291 43.0499 33.9458 44.799C33.4819 45.0347 33.2462 45.3845 33.2462 45.9701V47.605C33.2462 48.0689 33.4819 48.4263 33.9458 48.5404C34.0599 48.5404 34.2956 48.5404 34.4097 48.4263C45.4895 44.9282 51.558 33.1412 48.0599 22.0613C45.961 15.4149 40.8279 10.3959 34.4097 8.29704V8.28183Z" fill="white"/>
</g>
</svg>
