<svg width="56" height="56" viewBox="0 0 56 56" fill="none" xmlns="http://www.w3.org/2000/svg">
<g id="Group">
<path id="Vector" d="M28 0C43.4601 0 56 12.5399 56 28C56 43.4601 43.4601 56 28 56C12.5399 56 0 43.4677 0 28C0 12.5323 12.5323 0 28 0Z" fill="#53AE94"/>
<path id="Vector_2" d="M31.4516 24.2661V20.0988H40.9801V13.749H15.041V20.0988H24.5695V24.2585C16.828 24.6159 11.0029 26.1445 11.0029 27.9848C11.0029 29.8251 16.828 31.3536 24.5695 31.711V45.057H31.4592V31.711C39.1855 31.3536 44.9953 29.8251 44.9953 27.9848C44.9953 26.1445 39.1855 24.6159 31.4592 24.2585M31.4592 30.5779C31.2615 30.5855 30.2653 30.6464 28.0448 30.6464C26.2653 30.6464 25.0181 30.5931 24.5771 30.5703C17.7406 30.2737 12.6303 29.0798 12.6303 27.6578C12.6303 26.2357 17.733 25.0418 24.5771 24.7376V29.3916C25.0257 29.422 26.3033 29.4981 28.0752 29.4981C30.1968 29.4981 31.2691 29.4068 31.4668 29.3916V24.7376C38.2957 25.0418 43.3908 26.2357 43.3908 27.6578C43.3908 29.0798 38.2957 30.2737 31.4668 30.5779" fill="white"/>
</g>
</svg>
