<svg width="56" height="56" viewBox="0 0 56 56" fill="none" xmlns="http://www.w3.org/2000/svg">
<g id="Group">
<path id="Vector" d="M28 56C43.464 56 56 43.464 56 28C56 12.536 43.464 0 28 0C12.536 0 0 12.536 0 28C0 43.464 12.536 56 28 56Z" fill="#172852"/>
<g id="Group_2">
<path id="Vector_2" d="M22.5525 12.5075C25.8301 11.2832 29.5183 11.2756 32.8643 12.287C37.2141 13.633 40.8871 16.9181 42.8034 21.0398C43.3358 22.2109 43.8377 23.4352 43.8909 24.7432C41.4498 23.3288 38.7654 22.4086 36.081 21.5721C31.7844 20.0208 27.2901 18.9486 23.2217 16.8193C22.2787 16.2565 21.0696 15.671 20.811 14.4923C20.7046 13.4733 21.7844 12.9029 22.5525 12.5075Z" fill="#FFD83D"/>
<path id="Vector_3" d="M12.6526 22.4232C13.6031 19.8452 15.1621 17.4574 17.2762 15.6855C17.8161 20.1038 19.6944 24.3776 22.8047 27.5943C26.5309 31.465 31.8389 33.8452 37.2381 33.754C39.3826 33.8224 41.4815 33.3281 43.5728 32.9251C41.5119 40.3624 33.3674 45.2977 25.8085 44.1114C21.2533 43.5258 17.0404 40.8262 14.5005 37.0163C11.6336 32.8034 10.9111 27.2141 12.6526 22.4232Z" fill="#FFD83D"/>
</g>
<path id="Vector_4" d="M36.0732 21.564C38.7577 22.4005 41.4345 23.3206 43.8831 24.7351L44.0505 24.8187C44.2786 26.5221 44.4459 28.2636 44.1417 29.9746C42.9098 29.4575 41.9135 28.5373 40.8717 27.7313C38.8641 26.0659 36.8185 24.1495 36.0732 21.564Z" fill="#FF6F03"/>
</g>
</svg>
