<svg width="56" height="56" viewBox="0 0 56 56" fill="none" xmlns="http://www.w3.org/2000/svg">
<g id="Group">
<path id="Vector" d="M28 56C43.464 56 56 43.464 56 28C56 12.536 43.464 0 28 0C12.536 0 0 12.536 0 28C0 43.464 12.536 56 28 56Z" fill="#F30504"/>
<g id="Group 938">
<path id="Path 8575" d="M38.9638 30.1514C38.941 30.2578 38.6368 30.5696 38.325 30.8054C37.42 31.467 35.7927 32.0905 34.1425 32.3795C33.1995 32.5468 32.2641 32.5772 31.9828 32.4404C31.8003 32.3491 31.7698 32.2731 31.8383 32.0373C31.9752 31.543 32.4238 31.0031 33.1235 30.5012C33.4809 30.2426 34.9181 29.3681 35.5873 29.0031C36.69 28.3947 37.5873 28.0373 38.1881 27.9537C38.3782 27.9308 38.6063 27.9232 38.6824 27.9537C38.8041 27.9993 38.9334 28.3491 38.9866 28.7674C39.0094 28.9879 39.0018 29.9765 38.9638 30.1514Z" fill="black"/>
<path id="Path 8576" d="M23.4814 32.3336C23.4433 32.4097 23.2456 32.5009 23.0175 32.5313C22.7969 32.5618 22.1125 32.5466 21.7247 32.5009C20.3331 32.3184 18.8502 31.8926 17.7703 31.3602C17.162 31.0637 16.7285 30.7671 16.4091 30.4477L16.2266 30.2576L16.2038 30.0066C16.1734 29.5732 16.181 28.8888 16.2266 28.6454C16.257 28.4401 16.3331 28.2424 16.4319 28.0675C16.4674 28.0218 16.5637 27.999 16.7209 27.999C17.0099 27.999 17.2532 28.0446 17.6487 28.1663C18.4547 28.4173 19.6639 29.018 21.124 29.9002C22.3331 30.6226 22.7893 30.98 23.1392 31.4667C23.3749 31.7709 23.5346 32.1967 23.4738 32.326L23.4814 32.3336Z" fill="black"/>
<path id="Path 8577" d="M32.7893 41.4829C32.7893 41.4829 32.7133 41.8175 32.6144 42.1902C32.5156 42.5628 32.4395 42.867 32.4395 42.8822C32.3635 42.8822 32.3026 42.8974 32.2266 42.8822H32.0137L31.7247 43.5666C31.565 43.9392 31.4205 44.289 31.4053 44.3423L31.3673 44.4335L31.2304 44.213L31.0935 43.9924V42.175L31.0403 42.1902C30.9262 42.213 30.1353 42.3194 29.7855 42.3575C28.3483 42.5019 26.8958 42.4715 25.4662 42.2662C25.238 42.2358 25.0403 42.2054 25.0327 42.213C25.0327 42.213 25.0327 42.6388 25.0479 43.1559L25.0707 44.0913L24.9566 44.2586C24.8958 44.3499 24.835 44.4259 24.835 44.4335C24.8121 44.4563 24.7513 44.3499 24.5992 44.0457C24.4319 43.7339 24.3178 43.3917 24.2342 43.0495L24.1886 42.8594L23.9833 42.8746L23.7779 42.8974L23.7247 42.654C23.7019 42.5248 23.6639 42.3194 23.6486 42.2054L23.6258 41.9924L23.4585 41.8404C23.3597 41.7567 23.2608 41.6731 23.238 41.6578C23.2076 41.635 23.1924 41.5818 23.1924 41.5438V41.4677H24.0137L24.835 41.4829L24.8578 41.5666L24.8806 41.6502L25.162 41.6654C25.3216 41.6654 25.816 41.6883 26.2646 41.6959L27.0859 41.7187L27.2989 41.3917L27.5194 41.0647H27.7931V40.3803L27.7779 39.6959L27.4129 39.5362C26.2494 39.0267 25.565 38.4411 25.3064 37.7263C25.2532 37.5818 25.2532 37.5286 25.238 36.8746C25.238 36.2206 25.238 36.1673 25.276 36.0229C25.3673 35.6959 25.6258 35.4373 25.9528 35.3537C26.0669 35.3232 26.3635 35.3232 27.9148 35.3232H29.7399L29.9452 35.4297C30.1886 35.5514 30.3026 35.635 30.4395 35.8175C30.5992 36.0305 30.6449 36.1902 30.6449 36.5932C30.6449 37.1635 30.6068 37.6578 30.546 37.8556C30.4623 38.1217 30.3255 38.3803 30.1658 38.6084C29.8388 39.0267 29.238 39.4525 28.6905 39.6426L28.5308 39.7035V40.3955L28.546 41.0875L28.6905 41.1027L28.835 41.1179L29.0327 41.4145L29.2228 41.7111H30.1049C30.5916 41.7111 31.0175 41.7111 31.0555 41.7263C31.1239 41.7415 31.1315 41.7263 31.2 41.6198L31.276 41.4982H32.0289C32.5916 41.4753 32.7665 41.4829 32.7665 41.4982L32.7893 41.4829Z" fill="black"/>
<path id="Path 8578" d="M29.3142 43.3684C29.1925 43.4445 29.1013 43.4749 29.086 43.4597C29.0632 43.4597 28.972 43.376 28.8731 43.3L28.6982 43.1555L28.5157 43.3532C28.1127 43.7867 28.1051 43.8095 27.9834 43.8171C27.8009 43.8399 27.7629 43.8019 27.5347 43.4673C27.4131 43.3 27.3218 43.1555 27.3218 43.1555C27.3218 43.1555 27.2381 43.1403 27.1393 43.1327L26.9568 43.1099L26.8731 43.2848L26.7895 43.4597L26.6374 43.414C26.5157 43.376 26.4016 43.3304 26.2876 43.2772L26.0898 43.1783V42.8057H27.8389L29.5879 42.8209V42.9958C29.6032 43.2087 29.6108 43.2011 29.3218 43.3608L29.3142 43.3684Z" fill="black"/>
<path id="Path 8579" d="M45.755 35.3456C45.755 35.3456 45.755 35.2695 45.7398 35.2011C44.1657 35.0338 39.6561 34.9273 35.4812 38.3798C35.4812 38.3798 34.1352 32.1973 27.8234 32.1973C21.5116 32.1973 19.1694 38.3798 19.1694 38.3798C15.6333 34.5699 10.8957 34.8513 9.19227 35.1022C9.19227 35.1402 9.19227 35.1859 9.19227 35.2239C9.13903 36.1745 9.16945 36.6307 9.32154 37.2315C9.81584 39.1022 11.3368 41.1707 13.7094 43.1935C17.6105 46.5091 22.8957 48.8969 26.8957 49.1783C31.0706 49.4596 37.2303 47.0186 41.3291 43.4596C41.9755 42.8893 42.5763 42.2809 43.1466 41.6421C43.5573 41.1706 44.158 40.357 44.1124 40.357C44.0972 40.357 44.1124 40.3418 44.1352 40.3341C44.158 40.3189 44.1733 40.3037 44.158 40.2885C44.158 40.2885 44.158 40.2657 44.1809 40.2581C44.2037 40.2581 44.2113 40.2353 44.2037 40.2277C44.2037 40.2125 44.2037 40.2049 44.2265 40.1973C44.2493 40.1973 44.2493 40.1745 44.2493 40.1592C44.2493 40.144 44.2493 40.1364 44.2645 40.1364C44.2797 40.1364 44.2873 40.1136 44.2873 40.106C44.2873 40.0984 44.3025 40.0756 44.3101 40.0756C44.3177 40.0756 44.333 40.0604 44.333 40.0528C44.3558 39.9995 44.3862 39.9463 44.4166 39.9007C44.5155 39.7486 44.9109 39.049 44.9641 38.9273C45.3367 38.0756 45.5725 37.3227 45.6866 36.5699C45.7246 36.2049 45.7626 35.5433 45.7322 35.3836L45.755 35.3456ZM29.3215 43.3684C29.1999 43.4444 29.1086 43.4748 29.0934 43.4596C29.0706 43.4596 28.9793 43.376 28.8805 43.2999L28.7056 43.1554L28.5231 43.3532C28.12 43.7866 28.1124 43.8094 27.9907 43.817C27.8082 43.8399 27.7702 43.8018 27.5421 43.4672C27.4204 43.2999 27.3291 43.1554 27.3291 43.1554C27.3291 43.1554 27.2455 43.1402 27.1466 43.1326L26.9641 43.1098L26.8805 43.2847L26.7968 43.4596L26.6447 43.414C26.5231 43.376 26.409 43.3304 26.2949 43.2771L26.0972 43.1783V42.8056H27.8462L29.5953 42.8208V42.9957C29.6105 43.2087 29.6181 43.2011 29.3291 43.3608L29.3215 43.3684ZM32.6067 42.1821C32.5079 42.5547 32.4318 42.8589 32.4318 42.8741C32.3634 42.8741 32.2949 42.8893 32.2189 42.8741H32.0059L31.7246 43.5661C31.5649 43.9387 31.4204 44.2885 31.4052 44.3418L31.3672 44.433L31.2303 44.2125L31.0934 43.992V42.1745L31.0402 42.1897C30.9261 42.2125 30.1352 42.3189 29.7854 42.357C28.3482 42.5014 26.8957 42.471 25.466 42.2657C25.2379 42.2353 25.0402 42.2049 25.0326 42.2125C25.0326 42.2125 25.0326 42.6383 25.0478 43.1554L25.0706 44.0908L24.9565 44.2581C24.8957 44.3494 24.8348 44.4254 24.8348 44.433C24.812 44.4558 24.7512 44.3494 24.5991 44.0452C24.4318 43.7334 24.3177 43.3912 24.2341 43.049L24.1885 42.8589L23.9831 42.8741L23.7778 42.8969L23.7246 42.6535C23.7018 42.5243 23.6637 42.3189 23.6485 42.2049L23.6257 41.9919L23.4584 41.8399C23.3596 41.7562 23.2607 41.6726 23.2379 41.6573C23.2075 41.6345 23.1923 41.5813 23.1923 41.5433V41.4672H24.0136L24.8348 41.4824L24.8577 41.5661L24.8805 41.6497L25.1618 41.6649C25.3215 41.6649 25.8158 41.6878 26.2645 41.6954L27.0858 41.7182L27.2987 41.3912L27.5193 41.0642H27.793V40.3798L27.7778 39.6954L27.4128 39.5357C26.2493 39.0262 25.5649 38.4406 25.3063 37.7258C25.2531 37.5813 25.2531 37.5281 25.2379 36.8741C25.2379 36.2201 25.2379 36.1668 25.2759 36.0224C25.3672 35.6954 25.6257 35.4368 25.9527 35.3532C26.0668 35.3227 26.3634 35.3227 27.9147 35.3227H29.7398L29.9451 35.4292C30.1885 35.5509 30.3025 35.6345 30.4394 35.817C30.5991 36.03 30.6447 36.1897 30.6447 36.5927C30.6447 37.163 30.6067 37.6573 30.5459 37.8551C30.4622 38.1212 30.3253 38.3798 30.1657 38.6079C29.8387 39.0262 29.2379 39.452 28.6904 39.6421L28.5307 39.703V40.395L28.5459 41.087L28.6904 41.1022L28.8349 41.1174L29.0326 41.414L29.2227 41.7106H30.1048C30.5915 41.7106 31.0173 41.7106 31.0554 41.7258C31.1238 41.741 31.1314 41.7258 31.1999 41.6193L31.2759 41.4977H32.0288C32.6143 41.4977 32.7816 41.4977 32.7816 41.5205C32.7588 41.5205 32.6751 41.8322 32.5763 42.2049L32.6067 42.1821Z" fill="white"/>
<path id="Path 8582" d="M45.7017 34.6763C45.6865 34.3798 45.6637 33.9691 45.6408 33.7638C45.3595 30.7828 44.599 28.3417 43.1465 25.7562C43.0857 25.6573 43.0325 25.5585 43.0021 25.4824C42.9869 25.4596 42.9792 25.4444 42.9792 25.4292C43.1846 24.8208 44.0211 22.2581 44.6827 19.3379C45.58 15.3684 46.158 10.7296 44.4089 9.33033C44.4089 9.33033 41.3823 9.1098 37.3367 13.0794C36.2416 14.1744 35.2302 15.3684 34.3405 16.6383L34.0591 16.5471C32.4317 16.0147 30.7359 15.6877 29.0401 15.5737C28.5306 15.5357 26.6142 15.5357 25.9907 15.5737C24.1047 15.6954 22.6599 15.9843 21.0173 16.5547C20.9488 16.5775 20.8956 16.6003 20.8348 16.6231C19.907 15.3608 18.8728 14.1744 17.7397 13.0946C13.5268 9.1022 10.3861 9.33794 10.3861 9.33794C8.53057 10.7752 9.16175 15.6269 10.1199 19.7334C10.7511 22.4482 11.5268 24.836 11.8157 25.6953C11.7929 25.741 11.7701 25.7942 11.7397 25.8398C10.2112 28.9425 9.38229 31.9311 9.18457 35.1174C10.9032 34.8664 15.6256 34.5851 19.1694 38.395C19.1694 38.395 21.5115 32.2125 27.8233 32.2125C34.1351 32.2125 35.4811 38.395 35.4811 38.395C39.6636 34.9425 44.1656 35.0566 45.7397 35.2163C45.7397 35.087 45.7169 34.8893 45.7093 34.6915L45.7017 34.6763ZM13.0477 23.2011C13.0477 23.2011 10.5914 17.0566 11.2226 13.5433C11.3291 12.9501 11.5268 12.433 11.831 12.0376C11.831 12.0376 14.6218 12.3113 19.1161 17.3075C19.1161 17.3075 18.2644 17.7182 17.1161 18.6003C17.1161 18.6003 17.1161 18.6003 17.1009 18.6003C15.8614 19.5509 14.2644 21.0642 13.0477 23.1858V23.2011ZM23.4811 32.3341C23.4431 32.4102 23.2454 32.5014 23.0173 32.5319C22.7967 32.5623 22.1123 32.5471 21.7245 32.5014C20.3329 32.3189 18.85 31.8931 17.7701 31.3608C17.1618 31.0642 16.7283 30.7676 16.4089 30.4482L16.2264 30.2581L16.2036 30.0071C16.1732 29.5737 16.1808 28.8893 16.2264 28.6459C16.2568 28.4406 16.3329 28.2429 16.4317 28.068C16.4672 28.0224 16.5635 27.9995 16.7207 27.9995C17.0097 27.9995 17.253 28.0452 17.6484 28.1668C18.4545 28.4178 19.6637 29.0186 21.1237 29.9007C22.3329 30.6231 22.7891 30.9805 23.1389 31.4672C23.3747 31.7714 23.5344 32.1972 23.4735 32.3265L23.4811 32.3341ZM38.9716 30.1592C38.9488 30.2657 38.6446 30.5775 38.3328 30.8132C37.4279 31.4748 35.8005 32.0984 34.1503 32.3874C33.2074 32.5547 32.272 32.5851 31.9906 32.4482C31.8081 32.3569 31.7777 32.2809 31.8462 32.0452C31.983 31.5509 32.4317 31.0109 33.1313 30.509C33.4887 30.2505 34.926 29.376 35.5952 29.0109C36.6979 28.4026 37.5952 28.0452 38.196 27.9615C38.3861 27.9387 38.6142 27.9311 38.6903 27.9615C38.8119 28.0071 38.9412 28.3569 38.9944 28.7752C39.0173 28.9957 39.0097 29.9843 38.9716 30.1592ZM37.8842 18.6079H37.869C36.7663 17.7182 35.9374 17.3075 35.9374 17.3075C40.2796 12.3113 42.9716 12.0376 42.9716 12.0376C43.2682 12.4406 43.4583 12.9501 43.5648 13.5433C44.1732 17.0566 41.8005 23.2087 41.8005 23.2087C40.8043 21.4368 39.4735 19.8779 37.8842 18.6155V18.6079Z" fill="#FFA409"/>
<g id="Group 934">
<g id="Group 933">
<g id="Group 932">
<path id="Path 8585" d="M43.5647 13.5357C43.0552 13.4673 40.6293 13.4597 37.8765 18.6079H37.8613C36.7586 17.7182 35.9297 17.3076 35.9297 17.3076C40.2719 12.3114 42.9639 12.0376 42.9639 12.0376C43.2681 12.4406 43.4582 12.9501 43.5647 13.5433V13.5357Z" fill="#FF9300"/>
</g>
<path id="Path 8586" d="M41.8009 23.2011C40.8047 21.4292 39.4739 19.8703 37.877 18.6079C40.6222 13.4596 43.0405 13.4749 43.5652 13.5357C44.1735 17.0566 41.8009 23.2011 41.8009 23.2011Z" fill="#FF8300"/>
<path id="Path 8587" d="M43.6643 13.5589C43.6643 13.5589 43.5958 13.5437 43.5654 13.5361L43.6643 13.5589Z" fill="#FF8300"/>
</g>
</g>
<g id="Group 937">
<g id="Group 936">
<g id="Group 935">
<path id="Path 8590" d="M19.1168 17.2993C19.1168 17.2993 18.265 17.71 17.1168 18.5921C17.1168 18.5921 17.1168 18.5921 17.1015 18.5921C14.2574 13.4362 11.7479 13.459 11.208 13.5199C11.3145 12.9267 11.5122 12.4096 11.8164 12.0142C11.8164 12.0142 14.6072 12.2879 19.1091 17.2841L19.1168 17.2993Z" fill="#FF9300"/>
</g>
<path id="Path 8591" d="M17.1078 18.6069C15.8607 19.5651 14.2713 21.0708 13.047 23.2C13.047 23.2 10.5907 17.0556 11.2219 13.5346C11.7542 13.4662 14.2637 13.4586 17.1154 18.6069H17.1078Z" fill="#FF8300"/>
<path id="Path 8592" d="M11.2149 13.5347C11.2149 13.5347 11.1388 13.5499 11.1084 13.5575L11.2149 13.5347Z" fill="#FF8300"/>
</g>
</g>
<path id="Path 8593" d="M35.1458 26.6076C35.1458 26.6076 33.0393 26.7369 33.3055 25.0943C33.5716 23.4517 35.2142 23.254 35.6705 23.3224C36.1344 23.3909 37.9747 24.0449 37.6401 25.4289C37.3131 26.8129 36.8492 26.5468 36.5906 26.6152C36.3245 26.6836 35.1458 26.6152 35.1458 26.6152V26.6076Z" fill="white"/>
<path id="Path 8594" d="M19.6341 26.6076C19.6341 26.6076 17.5276 26.7369 17.7938 25.0943C18.0599 23.4517 19.7025 23.254 20.1588 23.3224C20.6227 23.3909 22.463 24.0449 22.1284 25.4289C21.8014 26.8129 21.3375 26.5468 21.0789 26.6152C20.8128 26.6836 19.6341 26.6152 19.6341 26.6152V26.6076Z" fill="white"/>
</g>
</g>
</svg>
