<svg width="56" height="56" viewBox="0 0 56 56" fill="none" xmlns="http://www.w3.org/2000/svg">
<g id="Group">
<path id="Vector" d="M28 56C43.464 56 56 43.464 56 28C56 12.536 43.464 0 28 0C12.536 0 0 12.536 0 28C0 43.464 12.536 56 28 56Z" fill="#3CC8C8"/>
<path id="Vector_2" d="M27.4679 7.96156C28.4184 7.46727 29.5819 8.61555 29.0724 9.56613C28.7759 10.3418 27.6656 10.5471 27.0952 9.95395C26.4945 9.39122 26.6922 8.26574 27.4603 7.96156M17.2321 9.06422C17.8101 8.82848 18.5401 9.35319 18.4793 9.98437C18.5401 10.6688 17.7036 11.1707 17.1181 10.8437C16.3348 10.5395 16.426 9.27715 17.2321 9.06422ZM38.1751 10.8665C37.2702 10.76 37.1333 9.33799 38.0002 9.04901C38.677 8.72202 39.293 9.33799 39.3918 9.97677C39.2473 10.5243 38.7911 11.0186 38.1751 10.8665ZM19.5591 13.414C20.5249 12.8057 21.9013 13.7106 21.7568 14.8361C21.7036 15.9692 20.2055 16.6232 19.3538 15.8627C18.5325 15.2619 18.6542 13.8855 19.5591 13.4216M34.2968 14.068C34.7302 12.9578 36.4717 12.9273 36.966 14.0072C37.4527 14.8513 36.8519 15.8931 35.9926 16.1745C34.8519 16.3874 33.7644 15.1479 34.3044 14.068M26.2283 16.1137C26.2207 15.1631 27.0876 14.4483 27.9926 14.3798C28.5933 14.5015 29.2473 14.76 29.5059 15.3608C29.985 16.1973 29.5591 17.3532 28.6922 17.7334C28.2968 17.954 27.8253 17.8703 27.3918 17.8475C26.7302 17.5205 26.1751 16.8893 26.2283 16.106M11.0192 17.4977C11.9013 16.9578 13.0876 17.9464 12.7606 18.9045C12.5781 19.7334 11.4603 20.068 10.8291 19.5433C10.1523 19.049 10.2587 17.8551 11.0268 17.4977M43.6808 17.4977C44.426 16.9197 45.6656 17.5813 45.5743 18.5243C45.6276 19.3836 44.5553 20.0376 43.8177 19.5889C42.9964 19.2239 42.9127 17.9616 43.6808 17.4901M30.5097 19.2087C31.7416 18.7676 33.2093 19.2924 33.9165 20.395C34.8443 21.741 34.35 23.7943 32.9127 24.5623C31.4222 25.4749 29.2397 24.6992 28.6846 23.0338C28.061 21.5433 28.9736 19.6726 30.5097 19.2087ZM23.2625 19.3532C24.6314 18.7068 26.4717 19.2467 27.1333 20.646C27.9089 22.0072 27.3082 23.9083 25.9165 24.608C24.5249 25.3988 22.5553 24.7981 21.8861 23.338C21.1333 21.9235 21.8025 19.9996 23.2625 19.3532ZM16.0078 21.8323C16.1142 20.9502 16.9431 20.3798 17.7796 20.319C18.6846 20.4254 19.407 21.1327 19.5059 22.0452C19.4451 22.9502 18.7454 23.8399 17.7872 23.8323C16.7302 23.9235 15.8025 22.8741 16.0078 21.8323ZM37.4375 20.5091C38.5249 19.8779 40.0306 20.7981 39.9774 22.0452C40.0534 23.3684 38.388 24.2962 37.3082 23.5205C36.1827 22.8741 36.274 21.0566 37.4375 20.5091ZM20.312 25.1631C21.5819 24.8133 23.0268 25.414 23.6504 26.5775C24.3348 27.7486 24.0534 29.3836 22.9964 30.2429C21.6428 31.5053 19.1333 30.9958 18.4108 29.2772C17.5819 27.6954 18.5857 25.5813 20.312 25.1631ZM34.0534 25.1631C35.2853 24.8133 36.7378 25.2848 37.3994 26.4102C38.2739 27.6954 37.8557 29.6118 36.5553 30.4407C35.1865 31.3988 33.0724 30.8969 32.3196 29.3912C31.407 27.8323 32.3196 25.6346 34.061 25.1631M12.1599 26.6308C13.2549 26.2201 14.4717 27.4292 14.023 28.5091C13.7492 29.4977 12.3576 29.8627 11.6352 29.1327C10.7911 28.4483 11.1028 26.9197 12.1523 26.6232M41.8481 28.1973C41.8177 27.2924 42.4793 26.4863 43.4146 26.433C44.1675 26.5547 44.8975 27.1555 44.8367 27.9768C44.9051 29.0566 43.6047 29.7867 42.6846 29.2848C42.2511 29.0642 42.0306 28.6232 41.8481 28.1973ZM6.76064 27.1555C7.42223 26.8665 8.23592 27.4369 8.08383 28.1745C8.04581 29.0034 6.82147 29.3228 6.3728 28.6308C5.97736 28.1517 6.21311 27.4064 6.76064 27.1631V27.1555ZM48.3196 27.1403C48.7835 26.8133 49.5287 27.049 49.7112 27.5889C50.023 28.1821 49.4527 28.9958 48.7835 28.8893C47.8481 28.973 47.5439 27.5509 48.3196 27.1403ZM23.8861 31.1175C25.62 30.6688 27.4831 32.1137 27.4983 33.9007C27.6123 35.703 25.772 37.3076 24.0002 36.8893C22.6314 36.6688 21.5515 35.3456 21.5971 33.9616C21.5971 32.6384 22.5933 31.3988 23.8937 31.1251M30.7606 31.1251C32.5173 30.6308 34.4412 32.106 34.4108 33.9311C34.5021 35.703 32.7226 37.2467 30.9888 36.8969C29.3538 36.684 28.1447 34.8893 28.6009 33.3C28.8291 32.2429 29.7188 31.3836 30.7606 31.1251ZM17.5135 32.2277C18.7302 32.0224 19.8709 33.376 19.3766 34.5319C19.0192 35.7638 17.2245 36.0984 16.426 35.0946C15.4983 34.1289 16.1903 32.357 17.5059 32.2277M37.6504 32.281C38.7378 31.8247 40.0686 32.7676 39.985 33.9464C40.0306 35.2467 38.3804 36.1365 37.3234 35.3836C36.1219 34.7068 36.3424 32.6992 37.6504 32.2886M43.2777 37.9388C42.8519 37.1479 43.6276 36.0985 44.5021 36.2429C44.9431 36.2429 45.2473 36.5775 45.5287 36.8741C45.5895 37.3456 45.6808 37.9083 45.293 38.2658C44.7606 38.935 43.5667 38.7448 43.2777 37.9464M11.004 36.4711C11.8253 35.9235 13.0116 36.7372 12.8291 37.703C12.7302 38.5547 11.658 39.0414 10.9507 38.5547C10.1903 38.1137 10.2207 36.8665 11.004 36.4711ZM27.2549 38.2505C28.3348 37.7715 29.7036 38.7144 29.6047 39.9007C29.6808 41.2087 27.985 42.1213 26.9355 41.3304C25.7644 40.6536 25.9622 38.6688 27.2625 38.2505M19.734 40.0072C20.6542 39.5281 21.8861 40.357 21.8025 41.3836C21.8329 42.2277 21.004 42.9426 20.1751 42.8209C19.4831 42.8057 19.0344 42.1897 18.8139 41.6042C18.8215 40.9654 19.0876 40.2505 19.734 40.0072ZM34.9812 40.0224C35.9241 39.4369 37.2625 40.2734 37.1789 41.376C37.2017 42.5243 35.6884 43.2619 34.8063 42.5015C33.9546 41.9083 34.061 40.4939 34.9812 40.0224ZM37.6352 46.5775C37.2169 45.9464 37.7112 45.1783 38.388 45.0338C38.9356 45.1479 39.5135 45.5585 39.3994 46.1897C39.3158 47.049 38.061 47.3152 37.6352 46.5775ZM16.5857 46.0224C16.753 45.5205 17.1561 45.0186 17.7492 45.1479C18.6162 45.2087 18.8671 46.5091 18.1143 46.9121C17.4374 47.3684 16.6466 46.7448 16.5857 46.0224ZM26.7378 46.6003C26.9051 45.8551 27.8633 45.4977 28.5021 45.8931C28.9203 46.0756 29.042 46.5395 29.1485 46.9426C29.0876 47.1479 29.042 47.3608 28.9888 47.5661C28.7302 47.8779 28.3956 48.1821 27.9622 48.1745C27.1561 48.2658 26.4336 47.3608 26.7378 46.6079" fill="white"/>
</g>
</svg>
