<svg width="56" height="56" viewBox="0 0 56 56" fill="none" xmlns="http://www.w3.org/2000/svg">
<g id="Group">
<path id="Vector" d="M56 28C56 12.536 43.464 1.71736e-05 28 1.78496e-05C12.536 1.85255e-05 -1.89987e-06 12.536 -1.22392e-06 28C-5.47966e-07 43.464 12.536 56 28 56C43.464 56 56 43.464 56 28Z" fill="#C2A633"/>
<path id="Vector_2" d="M27.6644 12.8642H18.9648V26.3471H15.3906V29.6475H18.9648V43.1304H29.1093C29.1093 43.1304 43.3678 44.3243 43.3678 28.2482C43.3678 12.1722 29.7328 12.8642 27.672 12.8642H27.6644ZM28.8735 37.5334H24.6758V29.6475H30.9724V26.3471H24.6758V18.4612H28.6758C30.1739 18.4612 37.7024 19.0619 37.71 28.3623C37.7176 37.6627 29.9458 37.541 28.8659 37.541L28.8735 37.5334Z" fill="white"/>
</g>
</svg>
