<svg width="56" height="56" viewBox="0 0 56 56" fill="none" xmlns="http://www.w3.org/2000/svg">
<g id="Group">
<path id="Vector" d="M56 28C56 12.536 43.464 -1.71587e-05 28 -1.64827e-05C12.536 -1.58068e-05 -1.89987e-06 12.536 -1.22392e-06 28C-5.47967e-07 43.464 12.536 56 28 56C43.464 56 56 43.464 56 28Z" fill="#E6007A"/>
<path id="Vector_2" d="M27.9769 15.0129C32.4287 15.0129 36.0377 12.9122 36.0377 10.3209C36.0377 7.72959 32.4287 5.62891 27.9769 5.62891C23.525 5.62891 19.916 7.72959 19.916 10.3209C19.916 12.9122 23.525 15.0129 27.9769 15.0129Z" fill="white"/>
<path id="Vector_3" d="M27.9769 50.3435C32.4287 50.3435 36.0377 48.2428 36.0377 45.6515C36.0377 43.0602 32.4287 40.9595 27.9769 40.9595C23.525 40.9595 19.916 43.0602 19.916 45.6515C19.916 48.2428 23.525 50.3435 27.9769 50.3435Z" fill="white"/>
<path id="Vector_4" d="M8.61672 16.8076C10.8449 12.9521 14.4646 10.876 16.708 12.1688C18.9513 13.4616 18.9665 17.6365 16.7384 21.492C14.5102 25.3475 10.8905 27.4236 8.64714 26.1308C6.40379 24.838 6.38858 20.6631 8.61672 16.8076Z" fill="white"/>
<path id="Vector_5" d="M39.2085 34.4726C41.4367 30.6171 45.0564 28.5411 47.2998 29.8338C49.5431 31.1266 49.5583 35.3015 47.3302 39.157C45.1021 43.0126 41.4823 45.0886 39.2389 43.7958C36.9956 42.503 36.9804 38.3281 39.2085 34.4726Z" fill="white"/>
<path id="Vector_6" d="M8.65494 29.8338C10.8983 28.5411 14.5257 30.6171 16.7462 34.4726C18.9743 38.3281 18.9591 42.503 16.7158 43.7958C14.4724 45.0886 10.8451 43.0126 8.62454 39.157C6.3964 35.3015 6.4116 31.1266 8.65494 29.8338Z" fill="white"/>
<path id="Vector_7" d="M39.2477 12.1761C41.4911 10.8834 45.1109 12.9594 47.339 16.8149C49.5671 20.6704 49.5519 24.8453 47.3086 26.1381C45.0652 27.4309 41.4454 25.3548 39.2173 21.4993C36.9892 17.6438 37.0044 13.4689 39.2477 12.1761Z" fill="white"/>
</g>
</svg>
