<svg width="56" height="56" viewBox="0 0 56 56" fill="none" xmlns="http://www.w3.org/2000/svg">
<g id="Group">
<path id="Vector" d="M28 56C43.464 56 56 43.464 56 28C56 12.536 43.464 0 28 0C12.536 0 0 12.536 0 28C0 43.464 12.536 56 28 56Z" fill="#E84142"/>
<path id="Vector_2" fill-rule="evenodd" clip-rule="evenodd" d="M20.086 39.1487H14.6488C13.5081 39.1487 12.9454 39.1487 12.5956 38.9281C12.2229 38.6848 11.9948 38.2893 11.972 37.8483C11.9492 37.4452 12.2306 36.9509 12.8009 35.9547L26.2153 12.3046C26.7857 11.3008 27.0747 10.7989 27.4397 10.6087C27.8351 10.411 28.299 10.411 28.6944 10.6087C29.0594 10.7912 29.3484 11.2931 29.9188 12.3046L32.6792 17.1182L32.6944 17.1411C33.3104 18.2209 33.6222 18.7684 33.7591 19.3388C33.9112 19.9623 33.9112 20.6239 33.7591 21.2475C33.6222 21.8255 33.3104 22.373 32.6868 23.4681L25.6374 35.9243L25.6222 35.9547C24.9986 37.0422 24.6868 37.5897 24.2534 38.008C23.7819 38.4642 23.2115 38.7912 22.5804 38.9814C22.01 39.1411 21.3712 39.1411 20.0937 39.1411L20.086 39.1487Z" fill="white"/>
<path id="Vector_3" fill-rule="evenodd" clip-rule="evenodd" d="M33.8116 39.1483H41.5986C42.7469 39.1483 43.3248 39.1483 43.6671 38.9201C44.0397 38.6768 44.2754 38.2738 44.2906 37.8327C44.3134 37.4373 44.0321 36.9658 43.4922 36.0304C43.477 36 43.4541 35.9696 43.4389 35.9315L39.5378 29.2623L39.4922 29.1863C38.9446 28.2585 38.6709 27.7947 38.3135 27.6122C37.918 27.4144 37.4617 27.4144 37.0663 27.6122C36.7089 27.7947 36.4199 28.289 35.8496 29.27L31.9636 35.9392L31.9484 35.962C31.3781 36.943 31.0967 37.4372 31.1119 37.8403C31.1423 38.2814 31.3629 38.6844 31.7355 38.9277C32.0701 39.1483 32.6481 39.1483 33.7963 39.1483H33.8116Z" fill="white"/>
</g>
</svg>
