<svg width="56" height="56" viewBox="0 0 56 56" fill="none" xmlns="http://www.w3.org/2000/svg">
<g id="Group">
<path id="Vector" d="M28 56C43.464 56 56 43.464 56 28C56 12.536 43.464 0 28 0C12.536 0 0 12.536 0 28C0 43.464 12.536 56 28 56Z" fill="url(#paint0_linear_81_555)"/>
<g id="Group_2">
<path id="Vector_2" d="M14.7373 36.107C14.973 35.8713 15.3 35.7344 15.6498 35.7344H47.0034C47.5738 35.7344 47.8628 36.4264 47.4597 36.8294L41.2696 43.0195C41.0339 43.2553 40.7069 43.3922 40.3571 43.3922H9.00345C8.43311 43.3922 8.14413 42.7002 8.54717 42.2971L14.7373 36.107Z" fill="white"/>
<path id="Vector_3" d="M14.7373 12.981C14.9806 12.7453 15.3076 12.6084 15.6498 12.6084H47.0034C47.5738 12.6084 47.8628 13.3004 47.4597 13.7035L41.2696 19.8936C41.0339 20.1293 40.7069 20.2662 40.3571 20.2662H9.00345C8.43311 20.2662 8.14413 19.5742 8.54717 19.1711L14.7373 12.981Z" fill="white"/>
<path id="Vector_4" d="M41.2618 24.4717C41.026 24.236 40.699 24.0991 40.3492 24.0991H8.99564C8.42529 24.0991 8.13632 24.7911 8.53936 25.1942L14.7295 31.3843C14.9652 31.62 15.2922 31.7569 15.642 31.7569H46.9956C47.566 31.7569 47.855 31.0649 47.4519 30.6619L41.2618 24.4717Z" fill="white"/>
</g>
</g>
<defs>
<linearGradient id="paint0_linear_81_555" x1="52.5399" y1="2.97338" x2="7.01901" y2="49.3916" gradientUnits="userSpaceOnUse">
<stop stop-color="#00FFA3"/>
<stop offset="1" stop-color="#DC1FFF"/>
</linearGradient>
</defs>
</svg>
