<svg width="56" height="56" viewBox="0 0 56 56" fill="none" xmlns="http://www.w3.org/2000/svg">
<g id="Group">
<path id="Vector" d="M28 0C43.4677 0 56 12.5399 56 28C56 43.4601 43.4601 56 28 56C12.5399 56 0 43.4601 0 28C0 12.5399 12.5399 0 28 0Z" fill="#F0B90B"/>
<path id="Vector_2" d="M20.7514 24.9889L24.9948 20.7683L25.8845 19.871L28.0062 17.7569L35.2229 24.9889L39.4206 20.7683L28.0062 9.33105L16.5537 20.7683L20.7514 24.9889Z" fill="white"/>
<path id="Vector_3" d="M28.0117 23.7735L23.7959 27.9893L28.0117 32.205L32.2274 27.9893L28.0117 23.7735Z" fill="white"/>
<path id="Vector_4" d="M35.2229 31.0195L28.0062 38.2363L25.4663 35.6963L25.0024 35.2325L20.7514 31.0195L16.5537 35.2173L28.0062 46.6469L39.4206 35.2173L35.2229 31.0195Z" fill="white"/>
<path id="Vector_5" d="M13.5458 23.7862L9.33008 28.002L13.5458 32.2177L17.7616 28.002L13.5458 23.7862Z" fill="white"/>
<path id="Vector_6" d="M42.4521 23.7862L38.2363 28.002L42.4521 32.2177L46.6678 28.002L42.4521 23.7862Z" fill="white"/>
</g>
</svg>
