<svg width="56" height="56" viewBox="0 0 56 56" fill="none" xmlns="http://www.w3.org/2000/svg">
<g id="Group">
<path id="Vector" d="M28 56C43.464 56 56 43.464 56 28C56 12.536 43.464 0 28 0C12.536 0 0 12.536 0 28C0 43.464 12.536 56 28 56Z" fill="#23292F"/>
<g id="Layer 2">
<g id="Layer 1-2">
<path id="Vector_2" d="M41.8842 11.7754H47.5496L35.7625 23.4484C31.4888 27.6765 24.5687 27.6765 20.3025 23.4484L8.50781 11.7754H14.1808L23.139 20.6423C25.8538 23.3191 30.2112 23.3191 32.926 20.6423L41.8918 11.7754H41.8842Z" fill="white"/>
<path id="Vector_3" d="M14.0958 44.2319H8.42285L20.2859 32.4904C24.5597 28.2623 31.4799 28.2623 35.746 32.4904L47.6091 44.2319H41.9437L32.9095 35.2889C30.1947 32.6121 25.8373 32.6121 23.1224 35.2889L14.0882 44.2319H14.0958Z" fill="white"/>
</g>
</g>
</g>
</svg>
