<svg width="56" height="56" viewBox="0 0 56 56" fill="none" xmlns="http://www.w3.org/2000/svg">
<g id="Group">
<path id="Vector" d="M28 56C43.464 56 56 43.464 56 28C56 12.536 43.464 0 28 0C12.536 0 0 12.536 0 28C0 43.464 12.536 56 28 56Z" fill="#627EEA"/>
<g id="Group_2">
<path id="Vector_2" d="M28.877 7.00781V22.5287L41.9948 28.3918L28.877 7.00781Z" fill="black"/>
<path id="Vector_3" d="M28.8774 7.00781L15.752 28.3918L28.8774 22.5287V7.00781Z" fill="white"/>
<path id="Vector_4" d="M28.877 38.4528V49.0003L42.0024 30.833L28.877 38.4528Z" fill="black"/>
<path id="Vector_5" d="M28.8774 48.9995V38.452L15.752 30.8398L28.8774 49.0071V48.9995Z" fill="white"/>
<path id="Vector_6" d="M28.877 36.0041L41.9948 28.3843L28.877 22.5288V36.0041Z" fill="black"/>
<path id="Vector_7" d="M15.7598 28.3916L28.8852 36.0114V22.5361L15.7598 28.3916Z" fill="black"/>
</g>
</g>
</svg>
