<svg width="64" height="64" viewBox="0 0 64 64" fill="none" xmlns="http://www.w3.org/2000/svg">
<rect x="0.5" y="0.5" width="63" height="63" rx="15.5" fill="#25282B"/>
<rect x="0.5" y="0.5" width="63" height="63" rx="15.5" stroke="url(#paint0_linear_81_102)"/>
<g clip-path="url(#clip0_81_102)">
<path fill-rule="evenodd" clip-rule="evenodd" d="M30.666 21.3333C30.1407 21.3333 29.6206 21.4368 29.1353 21.6378C28.65 21.8388 28.209 22.1334 27.8376 22.5049C27.4662 22.8763 27.1715 23.3173 26.9705 23.8026C26.7695 24.2879 26.666 24.808 26.666 25.3333C26.666 25.8586 26.7695 26.3787 26.9705 26.864C27.1715 27.3493 27.4662 27.7903 27.8376 28.1617C28.209 28.5332 28.65 28.8278 29.1353 29.0288C29.6206 29.2298 30.1407 29.3333 30.666 29.3333C31.7269 29.3333 32.7443 28.9119 33.4944 28.1617C34.2446 27.4116 34.666 26.3942 34.666 25.3333C34.666 24.2724 34.2446 23.255 33.4944 22.5049C32.7443 21.7547 31.7269 21.3333 30.666 21.3333ZM23.9993 25.3333C23.9993 23.5652 24.7017 21.8695 25.952 20.6192C27.2022 19.369 28.8979 18.6666 30.666 18.6666C32.4341 18.6666 34.1298 19.369 35.3801 20.6192C36.6303 21.8695 37.3327 23.5652 37.3327 25.3333C37.3327 27.1014 36.6303 28.7971 35.3801 30.0473C34.1298 31.2976 32.4341 32 30.666 32C28.8979 32 27.2022 31.2976 25.952 30.0473C24.7017 28.7971 23.9993 27.1014 23.9993 25.3333ZM21.8833 39.468C21.4527 40.0146 21.3327 40.428 21.3327 40.6666C21.3327 40.8293 21.382 41.0013 21.6727 41.2346C22.0047 41.5013 22.582 41.7773 23.4647 42.0106C25.222 42.4773 27.7473 42.6666 30.666 42.6666C30.962 42.6666 31.254 42.664 31.5433 42.66C31.897 42.6552 32.238 42.7911 32.4914 43.0378C32.7449 43.2844 32.8899 43.6217 32.8947 43.9753C32.8995 44.3289 32.7636 44.6699 32.5169 44.9234C32.2702 45.1768 31.933 45.3218 31.5793 45.3266C31.278 45.3306 30.9727 45.3333 30.666 45.3333C27.694 45.3333 24.886 45.1466 22.782 44.5893C21.7353 44.312 20.75 43.9146 20.0033 43.3146C19.2127 42.68 18.666 41.7933 18.666 40.6666C18.666 39.6173 19.1433 38.636 19.7913 37.8146C20.45 36.9813 21.3607 36.2146 22.4287 35.5613C24.566 34.26 27.4727 33.3333 30.666 33.3333C31.262 33.3333 31.8487 33.3653 32.4207 33.4266C32.7724 33.4639 33.0948 33.6394 33.3171 33.9145C33.5394 34.1895 33.6433 34.5416 33.606 34.8933C33.5687 35.245 33.3932 35.5674 33.1182 35.7897C32.8431 36.012 32.491 36.1159 32.1393 36.0786C31.6593 36.0266 31.166 36 30.666 36C27.9687 36 25.542 36.7866 23.818 37.8386C22.9553 38.364 22.3033 38.9346 21.8833 39.468ZM41.1513 34.6626C41.034 34.4612 40.8658 34.2941 40.6637 34.1779C40.4615 34.0617 40.2325 34.0006 39.9993 34.0006C39.7662 34.0006 39.5371 34.0617 39.335 34.1779C39.1329 34.2941 38.9647 34.4612 38.8473 34.6626L37.634 36.7453L35.2793 37.2546C35.0514 37.3039 34.8403 37.4122 34.6672 37.5686C34.4942 37.725 34.3652 37.9241 34.2931 38.1459C34.2211 38.3678 34.2085 38.6046 34.2566 38.8329C34.3047 39.0611 34.4119 39.2727 34.5673 39.4466L36.1727 41.244L35.93 43.6413C35.9065 43.8733 35.9442 44.1074 36.0395 44.3202C36.1347 44.5331 36.2841 44.7172 36.4727 44.8543C36.6613 44.9914 36.8826 45.0766 37.1145 45.1015C37.3463 45.1263 37.5806 45.0899 37.794 44.996L39.9993 44.0226L42.2047 44.996C42.4181 45.0899 42.6524 45.1263 42.8842 45.1015C43.1161 45.0766 43.3374 44.9914 43.526 44.8543C43.7146 44.7172 43.864 44.5331 43.9592 44.3202C44.0545 44.1074 44.0922 43.8733 44.0687 43.6413L43.826 41.2426L45.4313 39.4466C45.5868 39.2727 45.694 39.0611 45.7421 38.8329C45.7902 38.6046 45.7776 38.3678 45.7056 38.1459C45.6335 37.9241 45.5045 37.725 45.3315 37.5686C45.1584 37.4122 44.9473 37.3039 44.7193 37.2546L42.3647 36.7453L41.1513 34.6626ZM39.6433 38.5946L39.9993 37.9813L40.3553 38.5946C40.4486 38.7547 40.5742 38.8935 40.7241 39.0023C40.874 39.1112 41.0449 39.1875 41.226 39.2266L41.9193 39.376L41.446 39.9053C41.3225 40.0433 41.229 40.2054 41.1716 40.3815C41.1143 40.5576 41.0942 40.7437 41.1127 40.928L41.1847 41.632L40.5367 41.3466C40.3674 41.2721 40.1844 41.2336 39.9993 41.2336C39.8143 41.2336 39.6313 41.2721 39.462 41.3466L38.814 41.632L38.8847 40.928C38.9032 40.7437 38.8831 40.5576 38.8257 40.3815C38.7683 40.2054 38.6749 40.0433 38.5513 39.9053L38.0807 39.376L38.774 39.2266C38.9548 39.1874 39.1255 39.1109 39.2752 39.0021C39.4249 38.8933 39.5502 38.7545 39.6433 38.5946Z" fill="url(#paint1_linear_81_102)"/>
</g>
<defs>
<linearGradient id="paint0_linear_81_102" x1="32" y1="0" x2="32" y2="64" gradientUnits="userSpaceOnUse">
<stop stop-color="#414141"/>
<stop offset="1" stop-color="#303030"/>
</linearGradient>
<linearGradient id="paint1_linear_81_102" x1="18.666" y1="32" x2="45.7708" y2="32" gradientUnits="userSpaceOnUse">
<stop stop-color="#FFC000"/>
<stop offset="1" stop-color="#FF5300"/>
</linearGradient>
<clipPath id="clip0_81_102">
<rect width="32" height="32" fill="white" transform="translate(16 16)"/>
</clipPath>
</defs>
</svg>
