<svg width="48" height="48" viewBox="0 0 48 48" fill="none" xmlns="http://www.w3.org/2000/svg">
<g id="mage:lock-fill">
<path id="Vector" d="M34.76 18.1999V15.0199C34.8395 13.2027 34.4568 11.3951 33.6478 9.76595C32.8388 8.13685 31.6299 6.73952 30.1341 5.70462C28.6382 4.66972 26.9044 4.03106 25.0947 3.84835C23.285 3.66564 21.4585 3.94486 19.786 4.65989C17.7741 5.51864 16.0717 6.97022 14.9057 8.82114C13.7398 10.6721 13.1657 12.8344 13.26 15.0199V18.1999C11.7302 18.3169 10.2971 18.9935 9.2346 20.1003C8.17206 21.2071 7.55454 22.6666 7.5 24.1999V38.0799C7.55226 39.7528 8.26597 41.3366 9.48453 42.4839C10.7031 43.6313 12.327 44.2484 14 44.1999H34C35.673 44.2484 37.2969 43.6313 38.5155 42.4839C39.734 41.3366 40.4477 39.7528 40.5 38.0799V24.1999C40.446 22.6698 39.8312 21.2129 38.7728 20.1066C37.7144 19.0002 36.2862 18.3216 34.76 18.1999ZM16.26 15.0199C16.2549 14.0023 16.452 12.9938 16.84 12.0531C17.228 11.1123 17.799 10.258 18.52 9.53989C19.9761 8.08926 21.9447 7.2702 24 7.25989C26.0565 7.26517 28.0272 8.08443 29.4813 9.53857C30.9355 10.9927 31.7547 12.9634 31.76 15.0199V18.1399H16.26V15.0199ZM30.94 37.8199H17.14C16.6096 37.8199 16.1009 37.6092 15.7258 37.2341C15.3507 36.859 15.14 36.3503 15.14 35.8199C15.14 35.2895 15.3507 34.7807 15.7258 34.4057C16.1009 34.0306 16.6096 33.8199 17.14 33.8199H31.02C31.5504 33.8199 32.0591 34.0306 32.4342 34.4057C32.8093 34.7807 33.02 35.2895 33.02 35.8199C33.02 36.3503 32.8093 36.859 32.4342 37.2341C32.0591 37.6092 31.5504 37.8199 31.02 37.8199H30.94Z" fill="#0E0F12"/>
</g>
</svg>
