<svg width="11" height="34" viewBox="0 0 11 34" fill="none" xmlns="http://www.w3.org/2000/svg">
<path id="Vector" d="M10.0342 29.4124C10.0342 30.1695 9.8327 30.8294 9.42941 31.3924C9.0171 31.9456 8.43903 32.3726 7.69559 32.6734C6.94276 32.9645 6.06441 33.1102 5.06089 33.1102C4.04834 33.1102 3.16583 32.9645 2.41299 32.6734C1.66016 32.3726 1.08212 31.9456 0.678831 31.3924C0.266897 30.8294 0.0605469 30.1695 0.0605469 29.4124C0.0605469 28.6556 0.266897 28.0002 0.678831 27.447C1.08212 26.8844 1.66016 26.4574 2.41299 26.166C3.16583 25.8651 4.04834 25.7149 5.06089 25.7149C6.06441 25.7149 6.94276 25.8651 7.69559 26.166C8.43903 26.4574 9.0171 26.8844 9.42941 27.447C9.8327 28.0002 10.0342 28.6556 10.0342 29.4124ZM8.78406 29.4124C8.78406 28.9662 8.63635 28.5779 8.34056 28.2477C8.03612 27.918 7.60577 27.6656 7.05026 27.491C6.48573 27.3066 5.82274 27.2142 5.06089 27.2142C4.29039 27.2142 3.627 27.3066 3.07149 27.491C2.50696 27.6656 2.07248 27.918 1.76766 28.2477C1.46322 28.5779 1.31063 28.9662 1.31063 29.4124C1.31063 29.8589 1.46322 30.2473 1.76766 30.577C2.07248 30.9071 2.50696 31.1644 3.07149 31.3488C3.627 31.5234 4.29039 31.6109 5.06089 31.6109C5.82274 31.6109 6.48573 31.5234 7.05026 31.3488C7.60577 31.1644 8.03612 30.9071 8.34056 30.577C8.63635 30.2473 8.78406 29.8589 8.78406 29.4124ZM8.56909 17.2043H9.81917V24.4978H8.56909V17.2043ZM1.83495 22.8382C1.83495 22.2556 1.71392 21.8286 1.47187 21.5571C1.22118 21.2852 0.822398 21.1492 0.275909 21.1492V19.9992H9.81917V21.426H2.93732V24.0028H1.83495V22.8382ZM3.16582 16.0014C2.56521 15.9241 2.03226 15.725 1.5662 15.4046C1.10015 15.0843 0.732946 14.6572 0.463835 14.1236C0.195101 13.5801 0.0605469 12.9687 0.0605469 12.2893C0.0605469 11.6486 0.181573 11.0714 0.423621 10.5568C0.65665 10.0427 0.98815 9.64457 1.41812 9.36329C1.83945 9.07182 2.31002 8.9265 2.82945 8.9265C3.46577 8.9265 4.03481 9.15935 4.53657 9.62504C5.03833 10.0814 5.52694 10.7363 6.00164 11.5904C6.30646 12.1827 6.70975 12.7941 7.21151 13.4246C7.70425 14.0458 8.15678 14.376 8.56909 14.4146V8.85363H9.81917V16.1907C9.00357 16.1907 8.30936 16.0356 7.73581 15.725C7.16226 15.4144 6.69171 15.0309 6.3245 14.575C5.95692 14.1089 5.55361 13.4975 5.11461 12.7408L4.85943 12.2893L4.76508 12.1436C4.43357 11.5904 4.11111 11.1682 3.79727 10.8772C3.48381 10.5764 3.15681 10.4257 2.81628 10.4257C2.52951 10.4257 2.27393 10.5035 2.04992 10.659C1.81689 10.8141 1.63799 11.0372 1.51245 11.3286C1.3779 11.6099 1.31063 11.9303 1.31063 12.2893C1.31063 12.8714 1.48089 13.3615 1.82141 13.7597C2.16193 14.148 2.64151 14.4 3.25979 14.5168L3.16582 16.0014ZM6.67404 1.333V0.197266H7.93727V1.333H9.81917V2.75937H7.93727V8.04397H6.64697L0.275909 2.91976V1.333H6.67404ZM6.67404 2.75937H2.26492L6.67404 6.32613V2.75937Z" fill="#7A7B7E"/>
</svg>
