<svg width="142" height="141" viewBox="0 0 142 141" fill="none" xmlns="http://www.w3.org/2000/svg">
<g id="fluent:payment-wireless-16-regular" filter="url(#filter0_d_81_162)">
<g id="Vector">
<path d="M71.3389 92.2931C68.1306 92.2931 64.9537 91.6612 61.9895 90.4334C59.0254 89.2056 56.3321 87.4061 54.0635 85.1374C51.7949 82.8688 49.9953 80.1755 48.7675 77.2114C47.5397 74.2473 46.9078 71.0703 46.9078 67.862C46.9078 64.6537 47.5397 61.4767 48.7675 58.5126C49.9953 55.5485 51.7949 52.8552 54.0635 50.5866C56.3321 48.3179 59.0254 46.5184 61.9895 45.2906C64.9537 44.0628 68.1306 43.4309 71.3389 43.4309C77.8185 43.4309 84.0326 46.0048 88.6144 50.5866C93.1961 55.1683 95.7701 61.3825 95.7701 67.862C95.7701 74.3415 93.1961 80.5557 88.6144 85.1374C84.0326 89.7191 77.8185 92.2931 71.3389 92.2931ZM42.8359 67.862C42.8359 75.4215 45.8389 82.6713 51.1843 88.0167C56.5296 93.362 63.7795 96.365 71.3389 96.365C78.8984 96.365 86.1482 93.362 91.4936 88.0167C96.8389 82.6713 99.8419 75.4215 99.8419 67.862C99.8419 60.3025 96.8389 53.0527 91.4936 47.7073C86.1482 42.362 78.8984 39.359 71.3389 39.359C63.7795 39.359 56.5296 42.362 51.1843 47.7073C45.8389 53.0527 42.8359 60.3025 42.8359 67.862ZM55.6379 60.2721C55.2607 60.6636 55.0499 61.1861 55.0499 61.7298C55.0499 62.2735 55.2607 62.796 55.6379 63.1875C55.8221 63.3784 56.0428 63.5302 56.287 63.6339C56.5311 63.7376 56.7937 63.791 57.0589 63.791C57.3242 63.791 57.5867 63.7376 57.8309 63.6339C58.075 63.5302 58.2958 63.3784 58.48 63.1875C60.146 61.459 62.1434 60.084 64.3528 59.1449C66.5622 58.2058 68.9382 57.7218 71.3389 57.7218C73.7396 57.7218 76.1157 58.2058 78.3251 59.1449C80.5345 60.084 82.5319 61.459 84.1979 63.1875C84.3821 63.3784 84.6028 63.5302 84.847 63.6339C85.0911 63.7376 85.3537 63.791 85.6189 63.791C85.8842 63.791 86.1467 63.7376 86.3909 63.6339C86.6351 63.5302 86.8558 63.3784 87.04 63.1875C87.4172 62.796 87.628 62.2735 87.628 61.7298C87.628 61.1861 87.4172 60.6636 87.04 60.2721C85.0059 58.1612 82.5671 56.4822 79.8694 55.3354C77.1716 54.1886 74.2703 53.5975 71.3389 53.5975C68.4075 53.5975 65.5063 54.1886 62.8085 55.3354C60.1107 56.4822 57.6719 58.1612 55.6379 60.2721ZM59.726 68.4972C59.5344 68.6818 59.3819 68.9032 59.2778 69.148C59.1737 69.3929 59.1201 69.6563 59.1201 69.9224C59.1201 70.1884 59.1737 70.4518 59.2778 70.6967C59.3819 70.9415 59.5344 71.1629 59.726 71.3475C60.117 71.7257 60.6397 71.937 61.1837 71.937C61.7277 71.937 62.2504 71.7257 62.6414 71.3475C64.9739 69.093 68.0909 67.8328 71.3349 67.8328C74.5788 67.8328 77.6958 69.093 80.0283 71.3475C80.4193 71.7257 80.942 71.937 81.486 71.937C82.03 71.937 82.5527 71.7257 82.9437 71.3475C83.1353 71.1629 83.2878 70.9415 83.3919 70.6967C83.496 70.4518 83.5497 70.1884 83.5497 69.9224C83.5497 69.6563 83.496 69.3929 83.3919 69.148C83.2878 68.9032 83.1353 68.6818 82.9437 68.4972C76.5306 62.2428 66.1392 62.2428 59.726 68.4972ZM63.8182 79.5156C63.6224 79.3459 63.4654 79.1361 63.3578 78.9004C63.2502 78.6647 63.1945 78.4086 63.1945 78.1495C63.1945 77.8904 63.2502 77.6344 63.3578 77.3987C63.4654 77.163 63.6224 76.9531 63.8182 76.7834C67.9715 73.017 74.7064 73.017 78.8597 76.7834C79.0548 76.9531 79.2112 77.1627 79.3184 77.398C79.4256 77.6334 79.481 77.8889 79.481 78.1475C79.481 78.4061 79.4256 78.6617 79.3184 78.897C79.2112 79.1323 79.0548 79.3419 78.8597 79.5116C78.4419 79.8767 77.9059 80.0779 77.351 80.0779C76.7962 80.0779 76.2602 79.8767 75.8424 79.5116C74.5956 78.4211 72.9954 77.82 71.3389 77.82C69.6825 77.82 68.0823 78.4211 66.8355 79.5116C66.4177 79.8767 65.8817 80.0779 65.3268 80.0779C64.772 80.0779 64.236 79.8808 63.8182 79.5156Z" fill="white"/>
<path d="M71.3389 92.2931C68.1306 92.2931 64.9537 91.6612 61.9895 90.4334C59.0254 89.2056 56.3321 87.4061 54.0635 85.1374C51.7949 82.8688 49.9953 80.1755 48.7675 77.2114C47.5397 74.2473 46.9078 71.0703 46.9078 67.862C46.9078 64.6537 47.5397 61.4767 48.7675 58.5126C49.9953 55.5485 51.7949 52.8552 54.0635 50.5866C56.3321 48.3179 59.0254 46.5184 61.9895 45.2906C64.9537 44.0628 68.1306 43.4309 71.3389 43.4309C77.8185 43.4309 84.0326 46.0048 88.6144 50.5866C93.1961 55.1683 95.7701 61.3825 95.7701 67.862C95.7701 74.3415 93.1961 80.5557 88.6144 85.1374C84.0326 89.7191 77.8185 92.2931 71.3389 92.2931ZM42.8359 67.862C42.8359 75.4215 45.8389 82.6713 51.1843 88.0167C56.5296 93.362 63.7795 96.365 71.3389 96.365C78.8984 96.365 86.1482 93.362 91.4936 88.0167C96.8389 82.6713 99.8419 75.4215 99.8419 67.862C99.8419 60.3025 96.8389 53.0527 91.4936 47.7073C86.1482 42.362 78.8984 39.359 71.3389 39.359C63.7795 39.359 56.5296 42.362 51.1843 47.7073C45.8389 53.0527 42.8359 60.3025 42.8359 67.862ZM55.6379 60.2721C55.2607 60.6636 55.0499 61.1861 55.0499 61.7298C55.0499 62.2735 55.2607 62.796 55.6379 63.1875C55.8221 63.3784 56.0428 63.5302 56.287 63.6339C56.5311 63.7376 56.7937 63.791 57.0589 63.791C57.3242 63.791 57.5867 63.7376 57.8309 63.6339C58.075 63.5302 58.2958 63.3784 58.48 63.1875C60.146 61.459 62.1434 60.084 64.3528 59.1449C66.5622 58.2058 68.9382 57.7218 71.3389 57.7218C73.7396 57.7218 76.1157 58.2058 78.3251 59.1449C80.5345 60.084 82.5319 61.459 84.1979 63.1875C84.3821 63.3784 84.6028 63.5302 84.847 63.6339C85.0911 63.7376 85.3537 63.791 85.6189 63.791C85.8842 63.791 86.1467 63.7376 86.3909 63.6339C86.6351 63.5302 86.8558 63.3784 87.04 63.1875C87.4172 62.796 87.628 62.2735 87.628 61.7298C87.628 61.1861 87.4172 60.6636 87.04 60.2721C85.0059 58.1612 82.5671 56.4822 79.8694 55.3354C77.1716 54.1886 74.2703 53.5975 71.3389 53.5975C68.4075 53.5975 65.5063 54.1886 62.8085 55.3354C60.1107 56.4822 57.6719 58.1612 55.6379 60.2721ZM59.726 68.4972C59.5344 68.6818 59.3819 68.9032 59.2778 69.148C59.1737 69.3929 59.1201 69.6563 59.1201 69.9224C59.1201 70.1884 59.1737 70.4518 59.2778 70.6967C59.3819 70.9415 59.5344 71.1629 59.726 71.3475C60.117 71.7257 60.6397 71.937 61.1837 71.937C61.7277 71.937 62.2504 71.7257 62.6414 71.3475C64.9739 69.093 68.0909 67.8328 71.3349 67.8328C74.5788 67.8328 77.6958 69.093 80.0283 71.3475C80.4193 71.7257 80.942 71.937 81.486 71.937C82.03 71.937 82.5527 71.7257 82.9437 71.3475C83.1353 71.1629 83.2878 70.9415 83.3919 70.6967C83.496 70.4518 83.5497 70.1884 83.5497 69.9224C83.5497 69.6563 83.496 69.3929 83.3919 69.148C83.2878 68.9032 83.1353 68.6818 82.9437 68.4972C76.5306 62.2428 66.1392 62.2428 59.726 68.4972ZM63.8182 79.5156C63.6224 79.3459 63.4654 79.1361 63.3578 78.9004C63.2502 78.6647 63.1945 78.4086 63.1945 78.1495C63.1945 77.8904 63.2502 77.6344 63.3578 77.3987C63.4654 77.163 63.6224 76.9531 63.8182 76.7834C67.9715 73.017 74.7064 73.017 78.8597 76.7834C79.0548 76.9531 79.2112 77.1627 79.3184 77.398C79.4256 77.6334 79.481 77.8889 79.481 78.1475C79.481 78.4061 79.4256 78.6617 79.3184 78.897C79.2112 79.1323 79.0548 79.3419 78.8597 79.5116C78.4419 79.8767 77.9059 80.0779 77.351 80.0779C76.7962 80.0779 76.2602 79.8767 75.8424 79.5116C74.5956 78.4211 72.9954 77.82 71.3389 77.82C69.6825 77.82 68.0823 78.4211 66.8355 79.5116C66.4177 79.8767 65.8817 80.0779 65.3268 80.0779C64.772 80.0779 64.236 79.8808 63.8182 79.5156Z" fill="url(#paint0_linear_81_162)"/>
</g>
</g>
<defs>
<filter id="filter0_d_81_162" x="-3.10859" y="-3.87033" width="148.894" height="148.894" filterUnits="userSpaceOnUse" color-interpolation-filters="sRGB">
<feFlood flood-opacity="0" result="BackgroundImageFix"/>
<feColorMatrix in="SourceAlpha" type="matrix" values="0 0 0 0 0 0 0 0 0 0 0 0 0 0 0 0 0 0 127 0" result="hardAlpha"/>
<feOffset dy="2.71457"/>
<feGaussianBlur stdDeviation="20.9361"/>
<feComposite in2="hardAlpha" operator="out"/>
<feColorMatrix type="matrix" values="0 0 0 0 0.152083 0 0 0 0 0.063875 0 0 0 0 0 0 0 0 1 0"/>
<feBlend mode="normal" in2="BackgroundImageFix" result="effect1_dropShadow_81_162"/>
<feBlend mode="normal" in="SourceGraphic" in2="effect1_dropShadow_81_162" result="shape"/>
</filter>
<linearGradient id="paint0_linear_81_162" x1="71.3389" y1="96.365" x2="71.3389" y2="39.359" gradientUnits="userSpaceOnUse">
<stop stop-color="#FBFBFB"/>
<stop offset="1" stop-color="#E0E0E0"/>
</linearGradient>
</defs>
</svg>
