<svg width="48" height="49" viewBox="0 0 48 49" fill="none" xmlns="http://www.w3.org/2000/svg">
<g id="fluent:payment-wireless-16-regular">
<path id="Vector" d="M24 42.5C21.6362 42.5 19.2956 42.0344 17.1117 41.1298C14.9278 40.2252 12.9435 38.8994 11.2721 37.2279C9.60062 35.5565 8.27475 33.5722 7.37017 31.3883C6.46558 29.2044 6 26.8638 6 24.5C6 22.1362 6.46558 19.7956 7.37017 17.6117C8.27475 15.4278 9.60062 13.4435 11.2721 11.7721C12.9435 10.1006 14.9278 8.77475 17.1117 7.87017C19.2956 6.96558 21.6362 6.5 24 6.5C28.7739 6.5 33.3523 8.39642 36.7279 11.7721C40.1036 15.1477 42 19.7261 42 24.5C42 29.2739 40.1036 33.8523 36.7279 37.2279C33.3523 40.6036 28.7739 42.5 24 42.5ZM3 24.5C3 30.0695 5.21249 35.411 9.15076 39.3492C13.089 43.2875 18.4305 45.5 24 45.5C29.5695 45.5 34.911 43.2875 38.8492 39.3492C42.7875 35.411 45 30.0695 45 24.5C45 18.9305 42.7875 13.589 38.8492 9.65076C34.911 5.7125 29.5695 3.5 24 3.5C18.4305 3.5 13.089 5.7125 9.15076 9.65076C5.21249 13.589 3 18.9305 3 24.5ZM12.432 18.908C12.1541 19.1965 11.9988 19.5814 11.9988 19.982C11.9988 20.3826 12.1541 20.7675 12.432 21.056C12.5677 21.1966 12.7304 21.3085 12.9102 21.3849C13.0901 21.4613 13.2836 21.5006 13.479 21.5006C13.6744 21.5006 13.8679 21.4613 14.0478 21.3849C14.2276 21.3085 14.3903 21.1966 14.526 21.056C15.7534 19.7825 17.225 18.7695 18.8528 18.0776C20.4806 17.3857 22.2312 17.0291 24 17.0291C25.7687 17.0291 27.5193 17.3857 29.1472 18.0776C30.775 18.7695 32.2466 19.7825 33.474 21.056C33.6097 21.1966 33.7724 21.3085 33.9522 21.3849C34.1321 21.4613 34.3256 21.5006 34.521 21.5006C34.7164 21.5006 34.9099 21.4613 35.0898 21.3849C35.2696 21.3085 35.4323 21.1966 35.568 21.056C35.8459 20.7675 36.0012 20.3826 36.0012 19.982C36.0012 19.5814 35.8459 19.1965 35.568 18.908C34.0694 17.3528 32.2725 16.1158 30.2849 15.2709C28.2973 14.4259 26.1597 13.9904 24 13.9904C21.8403 13.9904 19.7027 14.4259 17.7151 15.2709C15.7275 16.1158 13.9306 17.3528 12.432 18.908ZM15.444 24.968C15.3028 25.104 15.1905 25.2671 15.1138 25.4475C15.0371 25.6279 14.9976 25.822 14.9976 26.018C14.9976 26.214 15.0371 26.4081 15.1138 26.5885C15.1905 26.7689 15.3028 26.932 15.444 27.068C15.7321 27.3466 16.1172 27.5023 16.518 27.5023C16.9188 27.5023 17.3039 27.3466 17.592 27.068C19.3105 25.407 21.607 24.4785 23.997 24.4785C26.387 24.4785 28.6835 25.407 30.402 27.068C30.6901 27.3466 31.0752 27.5023 31.476 27.5023C31.8768 27.5023 32.2619 27.3466 32.55 27.068C32.6912 26.932 32.8035 26.7689 32.8802 26.5885C32.9569 26.4081 32.9964 26.214 32.9964 26.018C32.9964 25.822 32.9569 25.6279 32.8802 25.4475C32.8035 25.2671 32.6912 25.104 32.55 24.968C27.825 20.36 20.169 20.36 15.444 24.968ZM18.459 33.086C18.3147 32.961 18.1991 32.8064 18.1198 32.6327C18.0405 32.4591 17.9995 32.2704 17.9995 32.0795C17.9995 31.8886 18.0405 31.6999 18.1198 31.5263C18.1991 31.3526 18.3147 31.198 18.459 31.073C21.519 28.298 26.481 28.298 29.541 31.073C29.6847 31.198 29.8 31.3524 29.879 31.5258C29.9579 31.6992 29.9988 31.8875 29.9988 32.078C29.9988 32.2685 29.9579 32.4568 29.879 32.6302C29.8 32.8036 29.6847 32.958 29.541 33.083C29.2332 33.352 28.8383 33.5003 28.4295 33.5003C28.0207 33.5003 27.6258 33.352 27.318 33.083C26.3994 32.2796 25.2204 31.8367 24 31.8367C22.7796 31.8367 21.6006 32.2796 20.682 33.083C20.3742 33.352 19.9793 33.5003 19.5705 33.5003C19.1617 33.5003 18.7668 33.355 18.459 33.086Z" fill="white"/>
</g>
</svg>
