<svg width="88" height="89" viewBox="0 0 88 89" fill="none" xmlns="http://www.w3.org/2000/svg">
<rect y="0.5" width="88" height="88" rx="24" fill="#FDD91C"/>
<rect y="0.5" width="88" height="88" rx="24" fill="url(#paint0_linear_81_198)"/>
<path d="M44 62.5C41.6362 62.5 39.2956 62.0344 37.1117 61.1298C34.9278 60.2252 32.9435 58.8994 31.2721 57.2279C29.6006 55.5565 28.2748 53.5722 27.3702 51.3883C26.4656 49.2044 26 46.8638 26 44.5C26 42.1362 26.4656 39.7956 27.3702 37.6117C28.2748 35.4278 29.6006 33.4435 31.2721 31.7721C32.9435 30.1006 34.9278 28.7748 37.1117 27.8702C39.2956 26.9656 41.6362 26.5 44 26.5C48.7739 26.5 53.3523 28.3964 56.7279 31.7721C60.1036 35.1477 62 39.7261 62 44.5C62 49.2739 60.1036 53.8523 56.7279 57.2279C53.3523 60.6036 48.7739 62.5 44 62.5ZM23 44.5C23 50.0695 25.2125 55.411 29.1508 59.3492C33.089 63.2875 38.4305 65.5 44 65.5C49.5695 65.5 54.911 63.2875 58.8492 59.3492C62.7875 55.411 65 50.0695 65 44.5C65 38.9305 62.7875 33.589 58.8492 29.6508C54.911 25.7125 49.5695 23.5 44 23.5C38.4305 23.5 33.089 25.7125 29.1508 29.6508C25.2125 33.589 23 38.9305 23 44.5ZM32.432 38.908C32.1541 39.1965 31.9988 39.5814 31.9988 39.982C31.9988 40.3826 32.1541 40.7675 32.432 41.056C32.5677 41.1966 32.7304 41.3085 32.9102 41.3849C33.0901 41.4613 33.2836 41.5006 33.479 41.5006C33.6744 41.5006 33.8679 41.4613 34.0478 41.3849C34.2276 41.3085 34.3903 41.1966 34.526 41.056C35.7534 39.7825 37.225 38.7695 38.8528 38.0776C40.4806 37.3857 42.2312 37.0291 44 37.0291C45.7687 37.0291 47.5193 37.3857 49.1472 38.0776C50.775 38.7695 52.2466 39.7825 53.474 41.056C53.6097 41.1966 53.7724 41.3085 53.9522 41.3849C54.1321 41.4613 54.3256 41.5006 54.521 41.5006C54.7164 41.5006 54.9099 41.4613 55.0898 41.3849C55.2696 41.3085 55.4323 41.1966 55.568 41.056C55.8459 40.7675 56.0012 40.3826 56.0012 39.982C56.0012 39.5814 55.8459 39.1965 55.568 38.908C54.0694 37.3528 52.2725 36.1158 50.2849 35.2709C48.2973 34.4259 46.1597 33.9904 44 33.9904C41.8403 33.9904 39.7027 34.4259 37.7151 35.2709C35.7275 36.1158 33.9306 37.3528 32.432 38.908ZM35.444 44.968C35.3028 45.104 35.1905 45.2671 35.1138 45.4475C35.0371 45.6279 34.9976 45.822 34.9976 46.018C34.9976 46.214 35.0371 46.4081 35.1138 46.5885C35.1905 46.7689 35.3028 46.932 35.444 47.068C35.7321 47.3466 36.1172 47.5023 36.518 47.5023C36.9188 47.5023 37.3039 47.3466 37.592 47.068C39.3105 45.407 41.607 44.4785 43.997 44.4785C46.387 44.4785 48.6835 45.407 50.402 47.068C50.6901 47.3466 51.0752 47.5023 51.476 47.5023C51.8768 47.5023 52.2619 47.3466 52.55 47.068C52.6912 46.932 52.8035 46.7689 52.8802 46.5885C52.9569 46.4081 52.9964 46.214 52.9964 46.018C52.9964 45.822 52.9569 45.6279 52.8802 45.4475C52.8035 45.2671 52.6912 45.104 52.55 44.968C47.825 40.36 40.169 40.36 35.444 44.968ZM38.459 53.086C38.3147 52.961 38.1991 52.8064 38.1198 52.6327C38.0405 52.4591 37.9995 52.2704 37.9995 52.0795C37.9995 51.8886 38.0405 51.6999 38.1198 51.5263C38.1991 51.3526 38.3147 51.198 38.459 51.073C41.519 48.298 46.481 48.298 49.541 51.073C49.6847 51.198 49.8 51.3524 49.879 51.5258C49.9579 51.6992 49.9988 51.8875 49.9988 52.078C49.9988 52.2685 49.9579 52.4568 49.879 52.6302C49.8 52.8036 49.6847 52.958 49.541 53.083C49.2332 53.352 48.8383 53.5003 48.4295 53.5003C48.0207 53.5003 47.6258 53.352 47.318 53.083C46.3994 52.2796 45.2204 51.8367 44 51.8367C42.7796 51.8367 41.6006 52.2796 40.682 53.083C40.3742 53.352 39.9793 53.5003 39.5705 53.5003C39.1617 53.5003 38.7668 53.355 38.459 53.086Z" fill="white"/>
<defs>
<linearGradient id="paint0_linear_81_198" x1="0" y1="44.5" x2="88" y2="44.5" gradientUnits="userSpaceOnUse">
<stop stop-color="#FFC000"/>
<stop offset="1" stop-color="#FF5300"/>
</linearGradient>
</defs>
</svg>
