<svg width="321" height="320" viewBox="0 0 321 320" fill="none" xmlns="http://www.w3.org/2000/svg">
<path d="M150.734 184.857L150.853 184.916L150.986 184.908L209.936 181.327L204.662 190.851L145.211 194.463L109.88 176.91L115.243 167.224L150.734 184.857ZM161.682 144.374L159.772 135.305L164.9 125.736L171.827 148.964L161.682 144.374ZM153.262 163.888L130.522 165.459L113.125 156.942L118.525 147.197L153.262 163.888Z" fill="#2C3034" stroke="#F3EBEA"/>
<path d="M210.813 180.739L150.902 184.374L114.632 166.497L153.907 164.123L118.203 146.528L135.736 131.694L172.106 149.562L164.975 124.431L199.729 141.456L210.813 180.739Z" fill="#FDBF1C"/>
<path fill-rule="evenodd" clip-rule="evenodd" d="M10.1626 0.000244141C4.54994 0.000244141 5.55694e-09 4.55017 5.55694e-09 10.1628V67.34C5.55694e-09 72.9527 4.54993 77.5026 10.1626 77.5026H66.9641C72.5767 77.5026 77.1267 72.9527 77.1267 67.34V10.1628C77.1267 4.55018 72.5767 0.000244141 66.9641 0.000244141H10.1626ZM14.8801 7.26595C10.6706 7.26595 7.25818 10.6784 7.25818 14.8879V62.6147C7.25818 66.8242 10.6706 70.2366 14.8801 70.2366H62.2449C66.4544 70.2366 69.8669 66.8242 69.8669 62.6147V14.8879C69.8669 10.6784 66.4544 7.26595 62.2449 7.26595H14.8801ZM22.0796 27.1835C22.0796 24.3772 24.3546 22.1023 27.1609 22.1023H50.2686C53.075 22.1023 55.3499 24.3772 55.3499 27.1835V50.3228C55.3499 53.1291 53.075 55.4041 50.2687 55.4041H27.1609C24.3546 55.4041 22.0796 53.1291 22.0796 50.3228V27.1835ZM88.4776 11.2249C88.4776 1.41881 88.5484 0.827329 89.783 0.329684C90.1479 0.182569 104.454 0.0545254 121.703 0.0439308L152.962 0.0248593L153.847 0.909663C155.442 2.50612 155.06 10.3825 153.356 11.0369C153.087 11.1402 146.281 11.2249 138.233 11.2249C137.024 11.2249 135.902 11.223 134.86 11.2212C125.788 11.2054 122.818 11.2003 121.867 12.5833C121.404 13.2564 121.419 14.2581 121.442 15.7473C121.447 16.0988 121.453 16.4774 121.453 16.8852C121.453 21.9515 121.631 22.1223 126.909 22.1223C132.416 22.1223 132.646 22.3529 132.646 27.8631C132.646 33.2469 132.728 33.3223 138.519 33.3223L138.897 33.3221C141.099 33.3205 142.24 33.3196 142.844 33.8887C143.493 34.5007 143.522 35.7719 143.581 38.4102L143.591 38.8315L143.599 39.2135C143.656 41.7386 143.685 42.9908 144.325 43.6114C144.955 44.222 146.178 44.2213 148.603 44.2198L148.976 44.2197C154.404 44.2197 154.428 44.1982 154.428 39.3446C154.428 33.4041 154.445 33.3868 160.43 33.2539C165.516 33.141 165.622 33.0284 165.622 27.7462L165.622 27.5382C165.622 25.0491 165.623 23.7893 164.993 23.137C164.348 22.4685 163.042 22.4383 160.396 22.377L160.18 22.372C154.655 22.2433 154.644 22.234 154.477 17.7352C154.465 17.3881 154.451 17.0595 154.438 16.7483V16.7481C154.342 14.4665 154.286 13.1244 154.919 12.3361C155.824 11.2101 158.135 11.2139 163.747 11.2231C164.282 11.224 164.848 11.2249 165.446 11.2249C166.203 11.2249 166.911 11.2233 167.571 11.2218C173.216 11.2089 175.432 11.2039 176.292 12.281C176.847 12.9766 176.837 14.1237 176.821 16.0117V16.0118C176.818 16.3538 176.815 16.7202 176.815 17.1125C176.815 17.5356 176.81 17.9233 176.804 18.2784C176.782 19.7382 176.768 20.6482 177.203 21.2141C177.922 22.1509 179.87 22.1445 185.042 22.1275C185.802 22.125 186.632 22.1223 187.538 22.1223H197.051L197.9 22.8527L198.749 23.5834V27.7223V31.8612L197.9 32.5919L197.051 33.3223H187.73C178.759 33.3223 178.38 33.3459 177.613 33.9498L176.815 34.577V49.4026C176.815 50.8578 176.818 52.1888 176.821 53.406V53.4063C176.842 62.2459 176.849 65.0862 175.538 65.9691C174.917 66.387 174.001 66.3663 172.651 66.3357C172.258 66.3268 171.829 66.3171 171.359 66.3171C165.822 66.3171 165.622 66.5238 165.622 72.234C165.622 77.4963 165.448 77.6437 159.452 77.4681C159.085 77.4574 158.745 77.4519 158.431 77.4468C157.032 77.4241 156.141 77.4097 155.567 76.9754C154.56 76.2129 154.534 74.1561 154.461 68.4883V68.4882C154.451 67.7637 154.441 66.9803 154.428 66.133C154.286 56.8219 154.245 56.2546 153.69 55.849C153.213 55.5002 151.334 55.4197 143.672 55.4197C142.777 55.4197 141.956 55.4224 141.2 55.4249C135.948 55.4421 133.924 55.4487 133.134 54.4646C132.638 53.8476 132.628 52.8412 132.612 51.2038V51.2037C132.608 50.8282 132.604 50.4195 132.594 49.9747L132.586 49.628V49.6277C132.525 46.9675 132.495 45.6529 131.822 45.0035C131.165 44.3692 129.895 44.3698 127.385 44.3709L127.05 44.371L126.715 44.3709C124.204 44.3698 122.934 44.3692 122.277 45.0035C121.605 45.6529 121.575 46.9675 121.514 49.628L121.506 49.9747L121.5 50.2408C121.44 52.8431 121.41 54.1382 120.747 54.7825C120.091 55.4208 118.813 55.4205 116.27 55.4198L116.008 55.4197C112.569 55.4197 112.071 55.3525 111.359 54.7922L110.562 54.165V33.7395C110.562 31.4858 110.567 29.4557 110.572 27.6271V27.6264C110.602 15.8534 110.61 12.434 109.09 11.4975C108.467 11.1142 107.589 11.1469 106.35 11.1929C105.88 11.2104 105.359 11.2298 104.779 11.2292C99.7555 11.2231 99.6711 11.3027 99.6711 16.0449C99.6711 21.9261 99.2382 22.425 94.1345 22.425C93.863 22.425 93.6044 22.4261 93.3582 22.4273C91.4582 22.4359 90.296 22.4412 89.5858 21.8772C88.4669 20.9889 88.4696 18.688 88.4764 12.7626V12.7577C88.477 12.2716 88.4776 11.761 88.4776 11.2249ZM198.597 1.79447L199.494 0.897557L200.39 0.000339905L209.958 0.0881244L219.526 0.176211L220.104 0.890896C221.005 2.00485 220.996 20.5972 220.094 21.4999C219.204 22.3905 218.223 22.4655 208.781 22.3659L200.057 22.2736L199.327 21.4242L198.597 20.5748V11.1847V1.79447ZM144.28 32.5792C142.811 31.1099 143.257 23.0664 144.843 22.4271C146.701 21.6779 152.918 22.0784 153.847 23.0071C155.484 24.6453 155.088 32.1814 153.322 32.9863C151.731 33.7113 145.114 33.4137 144.28 32.5792ZM220.682 27.6487C220.682 23.6179 220.805 23.1493 222.043 22.4719C223.535 21.6555 230.028 22.0439 230.991 23.0071L231.875 23.8919V38.771V53.6501L230.991 54.5349L230.107 55.4197H226.184L225.8 55.4196C223.332 55.4181 222.096 55.4173 221.463 56.0346C220.829 56.6537 220.8 57.8943 220.744 60.3793L220.735 60.7652L220.725 61.1994V61.1996C220.666 63.79 220.637 65.0701 219.982 65.7023C219.342 66.32 218.105 66.3191 215.659 66.3173L215.24 66.3171L215.011 66.3171C212.292 66.3176 210.989 66.3178 210.364 65.6669C209.79 65.068 209.79 63.9177 209.791 61.7088L209.791 61.5071C209.791 55.6026 209.628 55.4197 204.379 55.4197C198.841 55.4197 198.597 55.1827 198.597 49.7903C198.597 44.3141 198.693 44.2197 204.239 44.2197C209.648 44.2197 209.791 44.0626 209.791 38.1205V38.0254C209.791 35.6733 209.791 34.4975 210.378 33.9097C210.966 33.3222 212.141 33.3222 214.491 33.3223H214.586C220.544 33.3223 220.682 33.1943 220.682 27.6487ZM88.4776 34.7235L89.1353 34.0228C89.8541 33.2572 97.1804 32.9394 98.4492 33.6187C99.5219 34.1932 99.6711 35.5584 99.6711 44.803C99.6711 45.7102 99.6679 46.5376 99.6649 47.2922L99.6649 47.2954C99.6461 52.0869 99.6389 53.9452 100.542 54.6729C101.115 55.1339 102.052 55.1411 103.584 55.1529H103.585C103.966 55.1559 104.384 55.1591 104.842 55.1697C110.561 55.302 110.562 55.3029 110.562 60.8445V60.977C110.562 63.6798 110.562 65.0147 109.895 65.674C109.244 66.3174 107.957 66.3173 105.414 66.3171H105.287L104.952 66.317C102.332 66.3159 101.03 66.3154 100.368 66.9661C99.7131 67.6094 99.6839 68.8889 99.6257 71.4331L99.6181 71.7621L99.6156 71.8724C99.5492 74.7281 99.5176 76.0886 98.8214 76.7567C98.188 77.3647 97.0042 77.3993 94.7433 77.4653H94.7431L94.6473 77.4681C94.0076 77.4868 93.4335 77.5255 92.9184 77.5602L92.9179 77.5603C91.5562 77.652 90.6066 77.716 89.9457 77.31C88.423 76.3746 88.433 72.9442 88.4661 61.6099C88.4715 59.7488 88.4776 57.6746 88.4776 55.3634V34.7235ZM110.562 67.5718L111.359 66.9446C112.074 66.3819 112.568 66.3171 116.147 66.3171L116.509 66.3169C118.894 66.3155 120.111 66.3148 120.746 66.9224C121.407 67.5551 121.437 68.8475 121.497 71.4856L121.506 71.869L121.516 72.2866C121.571 74.7414 121.599 75.9743 122.23 76.593C122.866 77.2173 124.116 77.2164 126.626 77.2146L127.05 77.2144L127.473 77.2146C129.984 77.2164 131.233 77.2173 131.869 76.593C132.5 75.9743 132.528 74.7414 132.584 72.2865L132.594 71.869L132.602 71.4856C132.663 68.8475 132.692 67.5551 133.353 66.9224C133.988 66.3148 135.205 66.3155 137.591 66.3169L137.952 66.3171C141.532 66.3171 142.025 66.3819 142.74 66.9446L143.537 67.5718V77.3658V87.1598L142.74 87.787C141.491 88.7705 112.608 88.7705 111.359 87.787L110.562 87.1598V77.3658V67.5718ZM177.397 76.6323C175.864 75.0982 176.174 67.1713 177.792 66.5196C179.26 65.9287 186.244 66.3401 186.964 67.0602C187.822 67.919 188.105 75.3077 187.318 76.3327C186.1 77.9212 178.903 78.1386 177.397 76.6323ZM198.65 71.5869C198.743 67.6874 198.786 67.4428 199.463 66.8949C200.086 66.3903 200.692 66.3171 204.241 66.3171H204.317C207.069 66.317 208.438 66.317 209.118 67.0012C209.791 67.6777 209.791 69.0234 209.791 71.6999V71.7751V75.7475L208.906 76.6323C208.022 77.5171 208.022 77.5171 204.194 77.5171H200.366L199.458 76.6087L198.55 75.7006L198.65 71.5869ZM220.682 71.7113C220.682 67.9653 220.713 67.7722 221.424 67.0602C222.622 65.8615 230.019 65.9154 231.145 67.1308L231.899 67.9444L231.811 77.6013L231.724 87.2579L231.01 87.836C230.34 88.3782 229.695 88.4145 220.743 88.4145C219.831 88.4145 218.994 88.4174 218.227 88.42C213.012 88.4378 210.995 88.4447 210.227 87.4688C209.743 86.8529 209.757 85.8457 209.78 84.2029C209.785 83.8197 209.791 83.4019 209.791 82.9464C209.791 82.7735 209.791 82.606 209.79 82.4437C209.788 79.8942 209.787 78.6302 210.418 77.9896C211.039 77.3598 212.271 77.3325 214.714 77.2784C214.873 77.2749 215.036 77.2713 215.205 77.2674L215.507 77.2605C218.103 77.2013 219.397 77.1717 220.042 76.5097C220.683 75.8517 220.683 74.5687 220.682 72.0104L220.682 71.7113ZM165.622 88.4154C165.622 78.3886 165.63 78.3202 166.983 77.551C167.37 77.3313 168.977 77.2359 171.438 77.2865L171.686 77.2915C174.1 77.3406 175.337 77.3657 175.984 77.9958C176.663 78.657 176.694 79.9841 176.756 82.7034L176.762 82.9694L176.768 83.202C176.829 85.8352 176.859 87.1385 177.526 87.7834C178.179 88.4153 179.444 88.4151 181.948 88.4145L182.174 88.4145C185.93 88.4145 185.939 88.4127 186.822 87.5297L187.706 86.6449V82.72L187.706 82.3113C187.704 79.8455 187.704 78.6082 188.322 77.9878C188.944 77.3631 190.195 77.3639 192.704 77.3656L193.117 77.3658L193.532 77.3656C196.125 77.3639 197.422 77.3631 198.085 78.011C198.749 78.6594 198.779 79.9573 198.837 82.554L198.847 82.9694L198.853 83.2564V83.2566C198.913 85.8396 198.942 87.1295 199.602 87.7734C200.261 88.4158 201.546 88.4154 204.114 88.4146L204.4 88.4145C209.786 88.4145 209.791 88.4193 209.791 93.8326C209.791 97.5525 209.751 97.8104 209.061 98.6138L208.331 99.4632L188.565 99.5519C177.693 99.6003 168.355 99.5601 167.814 99.4623L167.782 99.4565C167.248 99.3598 166.845 99.287 166.543 99.0732C165.622 98.423 165.622 96.4685 165.622 88.5687V88.5685V88.4154ZM33.3648 93.9664C33.4529 90.2056 33.5279 89.707 34.0982 89.0956C34.6969 88.4535 34.9703 88.4145 38.8633 88.4145L39.284 88.4143C41.7315 88.4125 42.9691 88.4115 43.609 89.0296C44.2637 89.6618 44.2928 90.9417 44.3517 93.5308L44.3617 93.9664L44.3706 94.3523C44.4274 96.8372 44.4557 98.0779 45.0904 98.697C45.7232 99.3143 46.9589 99.3135 49.4268 99.312L49.8111 99.3118H53.7336L54.6179 100.197L55.5022 101.081V105.006C55.5022 108.419 55.5778 109.025 56.08 109.646L56.6579 110.361L66.5069 110.512C67.5395 110.528 68.4753 110.538 69.3235 110.548C74.3962 110.604 76.3306 110.626 77.0513 111.572C77.4955 112.155 77.4785 113.089 77.451 114.6V114.6C77.4436 115.01 77.4354 115.462 77.4354 115.961C77.4354 116.204 77.4359 116.436 77.4364 116.657C77.4413 118.933 77.4438 120.076 76.8738 120.669C76.2984 121.268 75.1396 121.307 72.8108 121.385C72.6652 121.39 72.515 121.395 72.3601 121.4C72.2764 121.403 72.1914 121.406 72.1049 121.409C66.4143 121.612 66.3932 121.633 66.3932 127.009C66.3932 132.4 66.4186 132.425 72.0876 132.556C72.3043 132.561 72.5122 132.566 72.7117 132.57C75.0649 132.62 76.2479 132.646 76.8416 133.25C77.4419 133.861 77.4399 135.064 77.4361 137.482V137.482C77.4357 137.685 77.4354 137.896 77.4354 138.116L77.4355 138.452C77.4366 141.017 77.4371 142.281 76.8054 142.903C76.1917 143.508 74.9811 143.508 72.5942 143.507L72.2731 143.507C66.6074 143.507 66.3932 143.715 66.3932 149.231V149.314C66.3931 151.812 66.3931 153.084 67.029 153.732C67.6889 154.404 69.0335 154.404 71.7734 154.404H71.8607L72.3025 154.404C74.8604 154.406 76.106 154.407 76.712 153.785C77.2872 153.194 77.2862 152.043 77.2844 149.798L77.2841 149.389C77.2841 143.66 77.4097 143.53 82.9229 143.516L83.3442 143.516C85.8223 143.511 87.0621 143.509 87.6963 142.888C88.3313 142.267 88.3591 141.025 88.4148 138.54L88.4244 138.119C88.4286 137.936 88.4325 137.759 88.4362 137.588C88.4921 135.055 88.5196 133.81 89.1562 133.197C89.7727 132.605 90.9602 132.606 93.2973 132.609C93.4604 132.609 93.6291 132.609 93.8036 132.609C98.3176 132.609 98.8476 132.758 99.3368 134.162C99.7845 135.447 99.803 162.796 99.3568 163.97C99.3409 164.012 99.3257 164.053 99.3109 164.092C99.2233 164.327 99.1494 164.525 99.0316 164.691C98.3997 165.586 96.504 165.587 84.4409 165.594L83.2732 165.594C81.9881 165.595 80.8002 165.594 79.7023 165.592H79.702C70.7058 165.581 67.7498 165.577 66.8018 166.955C66.3379 167.629 66.3548 168.634 66.3801 170.131C66.3864 170.504 66.3932 170.908 66.3932 171.345C66.3932 171.669 66.3954 171.975 66.3974 172.262C66.41 174.007 66.4178 175.085 65.8977 175.749C65.0591 176.82 62.8483 176.816 57.0724 176.806C56.4833 176.805 55.8571 176.804 55.1915 176.804H46.0773L45.193 175.919L44.3087 175.035V171.062V171.058C44.3087 168.32 44.3087 166.956 44.9904 166.277C45.6665 165.604 47.0131 165.604 49.6954 165.604H49.6998C53.193 165.604 53.6898 165.538 54.4025 164.977L55.1997 164.349V154.555V144.761L54.4025 144.134C53.6347 143.53 53.2575 143.507 44.1738 143.507C43.2442 143.507 42.3943 143.51 41.6174 143.513H41.6168H41.6166C36.5671 143.532 34.6001 143.539 33.8476 142.587C33.3675 141.979 33.382 140.98 33.4058 139.345C33.4115 138.95 33.4178 138.518 33.4178 138.046L33.4177 137.672C33.4164 135.038 33.4157 133.773 34.0471 133.167C34.6298 132.607 35.751 132.608 37.9072 132.609L38.2385 132.609C38.5797 132.609 38.9016 132.611 39.2054 132.613H39.206C41.2453 132.625 42.4691 132.632 43.2032 132.036C44.3049 131.141 44.3033 128.888 44.2992 123.252C44.2988 122.693 44.2984 122.1 44.299 121.471L44.3087 111.998L43.566 111.255L42.8236 110.512H33.4562C28.3042 110.512 23.8685 110.427 23.5993 110.324C21.8948 109.669 21.5131 101.793 23.1086 100.197L23.9929 99.3118H27.9154L28.2997 99.312C30.7676 99.3135 32.0033 99.3143 32.6361 98.697C33.2708 98.0779 33.2991 96.8372 33.3559 94.3523L33.3648 93.9664ZM67.174 98.7294C66.0779 97.6993 65.9627 90.5573 67.0203 89.2121C67.8683 88.1333 75.449 87.9622 76.7211 88.9933C77.8066 89.8726 77.8269 97.6927 76.7462 98.7736C75.6586 99.8619 68.3426 99.8279 67.174 98.7294ZM100.076 98.5875C98.9613 97.291 99.0827 89.9241 100.234 88.9924C101.452 88.0067 108.796 88.1333 109.819 89.1576C110.952 90.2909 110.961 97.2998 109.832 98.6138L109.102 99.4632H104.965H100.829L100.076 98.5875ZM143.537 94.0027C143.537 90.4214 143.602 89.9274 144.165 89.2121C145.012 88.1339 152.592 87.9622 153.865 88.9924C155.017 89.9241 155.138 97.291 154.023 98.5875L153.271 99.4632H149.185H149.132C146.304 99.4632 144.905 99.4632 144.214 98.764C143.537 98.0803 143.537 96.7279 143.537 94.0533V94.0027ZM253.657 94.2452C253.657 90.4777 253.994 88.9966 254.936 88.617C255.148 88.5319 262.1 88.4514 270.385 88.4384L285.45 88.4145L286.192 89.1576L286.935 89.9005V104.857C286.935 106.554 286.94 108.079 286.945 109.449C286.973 117.582 286.983 120.256 285.746 121.096C285.141 121.508 284.237 121.48 282.891 121.439C282.428 121.425 281.912 121.409 281.338 121.409C280.881 121.409 280.461 121.415 280.074 121.42C278.378 121.442 277.34 121.456 276.707 120.956C275.712 120.17 275.719 118.115 275.736 112.824V112.824L275.736 112.809C275.739 112.048 275.742 111.22 275.742 110.32C275.742 109.361 275.745 108.487 275.748 107.691C275.768 102.711 275.776 100.773 274.838 100.033C274.24 99.5609 273.258 99.5762 271.65 99.6013C271.246 99.6076 270.804 99.6145 270.318 99.6145L270.092 99.6145C267.477 99.614 266.166 99.6137 265.509 100.269C264.85 100.927 264.85 102.247 264.851 104.891V105.118C264.851 108.864 264.82 109.057 264.108 109.769L263.365 110.512H253.856C252.926 110.512 252.075 110.509 251.296 110.506C246.1 110.488 244.109 110.481 243.338 111.447C242.859 112.047 242.851 113.022 242.837 114.603C242.833 114.985 242.83 115.402 242.819 115.857L242.809 116.311C242.75 118.883 242.722 120.158 242.069 120.791C241.427 121.412 240.182 121.411 237.711 121.409L237.268 121.409C236.938 121.409 236.627 121.411 236.334 121.413H236.333C234.482 121.426 233.338 121.434 232.638 120.88C231.506 119.985 231.534 117.621 231.609 111.434C231.617 110.827 231.624 110.184 231.632 109.501L231.724 100.772L232.573 100.042L233.422 99.3118H242.923C243.801 99.3118 244.608 99.3144 245.35 99.3167H245.35C250.557 99.333 252.526 99.3391 253.257 98.391C253.701 97.8145 253.688 96.8852 253.667 95.391C253.662 95.0409 253.657 94.6599 253.657 94.2452ZM297.826 89.9005L298.569 89.1576L299.311 88.4145H308.911C318.35 88.4145 318.522 88.4254 319.21 89.0726L319.91 89.7309V99.4941V109.257L319.113 109.884C318.4 110.446 317.904 110.512 314.41 110.512C309.028 110.512 309.019 110.52 309.019 115.906L309.02 116.184C309.02 118.783 309.021 120.089 308.367 120.746C307.707 121.41 306.378 121.41 303.706 121.409L303.423 121.409C302.849 121.409 302.333 121.425 301.87 121.439C300.524 121.48 299.62 121.508 299.015 121.096C297.778 120.256 297.788 117.582 297.816 109.449V109.449C297.821 108.079 297.826 106.554 297.826 104.857V89.9005ZM0.11535 123.203L1.01204 122.306L1.90843 121.409H16.9207H31.9327L32.6751 122.152C33.3902 122.868 33.4175 123.044 33.4081 126.92C33.3948 132.49 33.272 132.609 27.5385 132.609L27.3516 132.609H27.3513C24.9036 132.609 23.6975 132.609 23.1034 133.212C22.5262 133.797 22.5264 134.952 22.5268 137.228L22.5268 137.407C22.5268 141.208 22.207 142.727 21.3049 143.21C20.1329 143.838 1.81404 143.583 1.00538 142.928L0.291118 142.35L0.203083 132.777L0.11535 123.203ZM77.236 123.227L78.1445 122.318L79.0527 121.409H83.0227H83.118H83.1181C85.7744 121.409 87.1143 121.409 87.79 122.079C88.4777 122.761 88.4777 124.136 88.4776 126.912V127.009V127.089C88.4777 129.88 88.4777 131.26 87.7878 131.942C87.1132 132.609 85.779 132.609 83.1402 132.609H83.0627C77.5119 132.609 77.4711 132.571 77.3359 127.188L77.236 123.227ZM220.87 131.234C220.267 129.663 220.68 122.896 221.424 122.152C222.283 121.293 229.667 121.011 230.691 121.797C232.279 123.017 232.496 130.218 230.991 131.725C229.395 133.321 221.524 132.939 220.87 131.234ZM242.766 122.895L243.509 122.152L244.251 121.409H253.808H263.365L264.108 122.152C264.824 122.868 264.851 123.045 264.851 127.009V127.14C264.851 129.886 264.851 131.254 264.167 131.934C263.489 132.61 262.139 132.609 259.449 132.609H259.32L258.936 132.609C256.526 132.608 255.301 132.607 254.664 133.219C254.005 133.851 253.976 135.139 253.916 137.757L253.907 138.161L253.896 138.631C253.842 141.036 253.814 142.256 253.191 142.874C252.549 143.51 251.275 143.509 248.691 143.507L248.2 143.507C247.767 143.507 247.369 143.512 247.002 143.516C245.365 143.537 244.356 143.55 243.735 143.066C242.739 142.287 242.745 140.225 242.761 134.85C242.764 134.101 242.766 133.287 242.766 132.403V122.895ZM264.851 138.062C264.851 134.327 264.909 133.871 265.467 133.272C266.043 132.653 266.356 132.609 270.177 132.609C275.844 132.609 276.044 132.795 276.044 138.058C276.044 143.308 275.833 143.507 270.26 143.507L269.962 143.507C267.411 143.508 266.132 143.508 265.492 142.869C264.849 142.228 264.85 140.941 264.85 138.363L264.851 138.062ZM309.939 143.21C308.269 142.316 308.197 134.241 309.847 132.988C310.77 132.287 318.565 132.474 319.305 133.215C320.261 134.171 320.219 141.777 319.253 142.806C318.534 143.572 311.208 143.89 309.939 143.21ZM221.018 153.297C220.293 151.705 220.59 145.084 221.424 144.25C222.168 143.505 228.931 143.092 230.5 143.695C232.205 144.349 232.586 152.225 230.991 153.822C229.354 155.46 221.822 155.064 221.018 153.297ZM254.541 153.822C253.036 152.315 253.253 145.114 254.841 143.895C255.865 143.108 263.25 143.391 264.108 144.25C264.852 144.994 265.265 151.76 264.663 153.331C264.009 155.036 256.137 155.418 254.541 153.822ZM276.626 153.822C275.093 152.288 275.402 144.361 277.021 143.709C278.489 143.118 285.473 143.53 286.192 144.25C287.026 145.084 287.324 151.705 286.599 153.297C285.795 155.064 278.263 155.46 276.626 153.822ZM0.144393 160.095C0.149233 156.389 0.424531 155.423 1.65854 154.784C2.23213 154.487 4.5991 154.414 11.7036 154.475C12.5841 154.483 13.392 154.487 14.1336 154.491C19.1499 154.516 21.1257 154.526 21.9139 155.499C22.4261 156.13 22.4369 157.169 22.4547 158.882C22.4587 159.272 22.4631 159.696 22.4739 160.159L22.4805 160.446C22.5399 163.029 22.5695 164.319 23.2295 164.963C23.8878 165.605 25.1733 165.605 27.7411 165.604L28.0267 165.604C31.7705 165.604 31.9635 165.635 32.6751 166.347L33.4178 167.09V176.653V186.215L32.6751 186.958C31.9608 187.673 31.7787 187.701 27.8918 187.701L27.6745 187.701C25.0162 187.701 23.7304 187.701 23.1086 188.343C22.5261 188.945 22.5263 190.111 22.5268 192.369L22.5268 192.566C22.5268 198.402 22.0733 198.902 16.7788 198.902C11.5859 198.902 11.3333 198.649 11.3333 193.458C11.3333 187.763 11.2768 187.706 5.63616 187.692C0.304732 187.678 0.139855 187.506 0.139855 181.947C0.139855 178.288 0.143787 178.267 1.02414 177.386L1.90843 176.501H5.96894L6.28576 176.501C8.76191 176.503 9.97723 176.503 10.5905 175.896C11.1816 175.31 11.2132 174.16 11.2754 171.901L11.2837 171.601C11.4435 165.89 11.1721 165.604 5.59592 165.604C0.269337 165.604 0.137434 165.471 0.144393 160.095ZM231.577 165.982C231.582 156.033 231.65 155.529 233.091 154.786C233.663 154.492 236.062 154.418 243.136 154.478C244.391 154.488 245.5 154.482 246.48 154.476C250.167 154.456 252.031 154.445 252.961 155.372C253.913 156.32 253.887 158.247 253.837 162.146C253.823 163.16 253.808 164.307 253.808 165.604C253.808 166.541 253.811 167.398 253.814 168.183C253.833 173.383 253.841 175.405 252.856 176.201C252.23 176.707 251.202 176.717 249.519 176.732C249.12 176.736 248.684 176.74 248.208 176.751C247.762 176.762 247.352 176.766 246.975 176.769H246.975C245.345 176.785 244.341 176.795 243.724 177.289C242.737 178.08 242.744 180.112 242.761 185.398C242.763 186.16 242.766 186.99 242.766 187.894C242.766 189.037 242.778 190.063 242.788 190.984V190.985C242.832 194.933 242.855 196.955 241.856 197.969C240.808 199.032 238.636 198.988 234.186 198.898C233.196 198.878 232.094 198.855 230.865 198.842L222.141 198.75L221.411 197.901L220.682 197.051V187.85C220.682 187.279 220.681 186.736 220.68 186.221V186.22C220.673 180.307 220.669 177.981 221.803 177.072C222.537 176.483 223.749 176.489 225.746 176.499C226.015 176.5 226.297 176.501 226.595 176.501C227.008 176.501 227.386 176.507 227.734 176.512H227.734C229.198 176.533 230.109 176.546 230.673 176.111C231.6 175.396 231.595 173.472 231.581 168.388C231.579 167.654 231.577 166.854 231.577 165.982ZM286.935 159.924C287.094 155.499 287.286 154.866 288.545 154.609C288.907 154.534 293.334 154.492 298.382 154.515L307.56 154.555L308.29 155.405C308.98 156.208 309.019 156.467 309.019 160.186V160.215C309.019 162.898 309.019 164.245 309.693 164.922C310.372 165.604 311.737 165.604 314.477 165.604H314.507L314.757 165.604C317.347 165.603 318.635 165.603 319.276 166.247C319.911 166.885 319.911 168.155 319.91 170.683L319.91 170.93C319.91 176.79 319.896 176.804 314.026 176.804C313.601 176.804 313.212 176.798 312.856 176.793C311.404 176.77 310.497 176.757 309.931 177.189C308.991 177.909 308.997 179.867 309.014 185.081V185.082C309.017 185.85 309.019 186.69 309.019 187.606C309.019 188.509 309.017 189.338 309.014 190.099V190.099C308.997 195.384 308.991 197.408 309.968 198.171C310.576 198.645 311.563 198.631 313.164 198.609C313.536 198.604 313.94 198.599 314.38 198.599H314.509C317.199 198.599 318.549 198.599 319.227 199.274C319.911 199.954 319.911 201.322 319.91 204.068V204.199V204.311C319.911 207.074 319.911 208.446 319.225 209.127C318.548 209.799 317.203 209.799 314.532 209.799H314.423L314.179 209.799C311.583 209.798 310.293 209.798 309.652 210.443C309.018 211.08 309.019 212.348 309.019 214.868L309.019 215.108L309.02 215.422C309.02 218.059 309.021 219.378 308.362 220.038C307.702 220.698 306.381 220.697 303.738 220.696L303.423 220.696C302.965 220.696 302.545 220.702 302.159 220.707C300.462 220.729 299.424 220.743 298.792 220.243C297.796 219.457 297.803 217.402 297.821 212.111V212.111C297.823 211.346 297.826 210.513 297.826 209.607C297.826 208.736 297.828 207.936 297.83 207.2C297.846 201.931 297.852 199.982 296.917 199.274C296.368 198.859 295.495 198.871 294.109 198.891H294.108C293.779 198.896 293.42 198.902 293.031 198.902C287.145 198.902 286.935 198.721 286.935 193.644C286.935 187.92 286.754 187.724 281.439 187.711C281.073 187.71 280.731 187.712 280.411 187.714L280.406 187.714C278.59 187.724 277.478 187.731 276.798 187.192C275.722 186.339 275.727 184.124 275.739 178.407C275.739 178.091 275.74 177.764 275.741 177.426C275.741 177.079 275.742 176.721 275.742 176.351V167.09L276.484 166.347C277.196 165.634 277.388 165.604 281.156 165.604H281.164C283.929 165.604 285.321 165.604 286.047 164.909C286.782 164.204 286.832 162.786 286.935 159.931L286.935 159.924ZM66.3932 182.173C66.3932 177.99 66.5102 177.532 67.7545 176.851C68.097 176.664 69.9781 176.516 72.0888 176.51C77.3446 176.498 77.5866 176.737 77.5866 181.947C77.5866 187.538 77.4478 187.678 71.9007 187.692L71.8137 187.692H71.8134C69.1072 187.699 67.7521 187.702 67.0736 187.026C66.3931 186.348 66.3931 184.987 66.3932 182.261V182.173ZM253.72 187.962C253.625 177.795 253.673 177.448 255.263 176.807C256.416 176.342 262.653 176.445 263.619 176.944C264.78 177.545 264.851 177.834 264.851 181.961C264.851 187.479 265.075 187.701 270.633 187.701C275.797 187.701 276.044 187.953 276.044 193.205L276.044 193.519C276.046 195.604 276.047 196.89 275.421 197.676C274.415 198.939 271.791 198.913 264.951 198.845L264.311 198.839C263.094 198.827 262.016 198.831 261.062 198.835H261.062C257.413 198.849 255.572 198.856 254.647 197.939C253.705 197.005 253.712 195.115 253.725 191.3C253.728 190.32 253.732 189.213 253.72 187.962ZM33.4178 192.723C33.4178 189.217 33.4668 188.89 34.08 188.319C34.679 187.76 35.134 187.701 38.8675 187.701C39.3214 187.701 39.7374 187.696 40.1187 187.69C41.7281 187.667 42.7188 187.653 43.3314 188.128C44.3125 188.887 44.3241 190.899 44.3542 196.133V196.133C44.3587 196.907 44.3635 197.752 44.372 198.673C44.3804 199.597 44.3852 200.443 44.3895 201.219C44.4183 206.39 44.4296 208.403 45.4188 209.196C46.0493 209.701 47.0772 209.711 48.7602 209.727H48.7619C49.1575 209.731 49.5892 209.735 50.0604 209.746L50.3472 209.753C52.9277 209.812 54.2169 209.842 54.8608 210.501C55.5035 211.16 55.5031 212.446 55.5023 215.016L55.5022 215.302C55.5022 219.048 55.5331 219.241 56.2449 219.953L56.9873 220.696H66.3387C67.2243 220.696 68.0381 220.699 68.7861 220.701L68.793 220.701C73.9884 220.719 76.0019 220.725 76.792 219.746C77.2921 219.126 77.3022 218.11 77.3188 216.453C77.3226 216.075 77.3267 215.664 77.3371 215.216C77.3478 214.75 77.3514 214.324 77.3547 213.934V213.932C77.368 212.326 77.3763 211.339 77.8613 210.734C78.6358 209.767 80.6259 209.774 85.7934 209.793C86.5797 209.796 87.4396 209.799 88.3799 209.799C88.6528 209.799 88.9191 209.799 89.1791 209.799C89.4048 209.798 89.6258 209.798 89.842 209.798C95.9387 209.792 98.2622 209.79 99.143 210.916C99.6853 211.609 99.6806 212.731 99.673 214.542C99.6721 214.767 99.6711 215.002 99.6711 215.248C99.6711 220.439 99.4151 220.696 94.2598 220.696C88.67 220.696 88.4776 220.893 88.4776 226.627C88.4776 230.24 88.4443 230.444 87.7349 231.153L86.9925 231.896H66.6896C64.6126 231.896 62.7269 231.9 61.015 231.904C48.9489 231.929 45.5198 231.936 44.5941 230.417C44.2265 229.814 44.2536 228.971 44.2913 227.793V227.792C44.3048 227.371 44.3197 226.908 44.3184 226.397C44.3042 220.733 44.2658 220.696 38.4246 220.696L38.2398 220.696H38.2397C35.7941 220.697 34.5887 220.697 33.9946 220.094C33.4172 219.509 33.4174 218.353 33.4178 216.075L33.4178 215.898C33.4178 209.941 33.2895 209.803 27.7654 209.789C22.414 209.776 22.2243 209.586 22.2243 204.233C22.2243 198.843 22.473 198.599 27.9617 198.599C33.3424 198.599 33.4178 198.518 33.4178 192.723ZM56.8947 198.48C54.8058 197.607 54.3692 189.57 56.3299 188.08C57.2974 187.345 64.8536 187.571 65.6931 188.36C66.4582 189.079 66.7759 196.409 66.097 197.679C65.4463 198.895 59.1909 199.44 56.8947 198.48ZM88.7738 197.679C88.1261 196.468 88.4104 189.174 89.1353 188.402C89.8541 187.636 97.1804 187.319 98.4492 187.998C100.376 189.029 100.128 197.428 98.1406 198.457C96.1787 199.472 89.4333 198.912 88.7738 197.679ZM0.139855 200.368L1.04774 199.46L1.95532 198.552L6.06665 198.651L6.46769 198.661H6.46788C8.87185 198.717 10.0889 198.745 10.7046 199.368C11.336 200.007 11.3352 201.27 11.3335 203.83L11.3333 204.246L11.3333 204.322C11.3334 207.077 11.3334 208.446 10.6489 209.127C9.97241 209.799 8.62751 209.799 5.95368 209.799H5.87848H1.90843L1.02414 208.914C0.139854 208.029 0.139855 208.029 0.139855 204.199V200.368ZM66.3932 204.199C66.3932 200.234 66.4201 200.058 67.1359 199.342C67.8486 198.628 68.0365 198.599 71.848 198.599H75.8181L76.7024 199.484C77.5866 200.368 77.5866 200.369 77.5866 204.199C77.5866 208.029 77.5866 208.029 76.7024 208.914L75.8181 209.799H71.848H71.7528C69.0964 209.799 67.7565 209.799 67.0807 209.129C66.393 208.447 66.3931 207.072 66.3932 204.296V204.199ZM242.766 204.199C242.766 200.234 242.793 200.058 243.509 199.342C244.222 198.628 244.409 198.599 248.221 198.599H252.191L253.075 199.484C253.96 200.368 253.96 200.369 253.96 204.199V204.199V204.199C253.96 208.029 253.96 208.029 253.075 208.914L252.191 209.799H248.221H248.126C245.469 209.799 244.129 209.799 243.454 209.129C242.766 208.447 242.766 207.072 242.766 204.297V204.199ZM220.682 237.352C220.682 211.549 220.685 211.389 221.309 210.596C221.934 209.801 221.947 209.799 226.278 209.799L226.605 209.799H226.605C229.238 209.798 230.556 209.797 231.215 210.456C231.877 211.117 231.876 212.44 231.875 215.09L231.875 215.418C231.875 215.819 231.871 216.19 231.867 216.534C231.848 218.135 231.836 219.125 232.311 219.735C233.08 220.721 235.121 220.715 240.464 220.7C241.172 220.698 241.938 220.696 242.766 220.696C243.646 220.696 244.455 220.699 245.199 220.701C250.367 220.719 252.374 220.725 253.163 219.748C253.664 219.128 253.675 218.111 253.692 216.449C253.696 216.072 253.7 215.662 253.71 215.216L253.721 214.739C253.775 212.28 253.803 211.044 254.434 210.423C255.073 209.795 256.331 209.796 258.859 209.799L259.343 209.799L259.653 209.799C262.276 209.798 263.575 209.797 264.219 210.447C264.852 211.085 264.852 212.351 264.851 214.861L264.851 215.163V215.212C264.851 217.974 264.851 219.345 265.536 220.026C266.212 220.696 267.553 220.696 270.217 220.696H270.265C273.983 220.696 274.241 220.736 275.044 221.427L275.893 222.157V248.359V274.561L275.205 275.25C274.565 275.891 274.216 275.947 270.292 276.038L270.006 276.045C267.425 276.104 266.136 276.134 265.492 276.793C264.849 277.452 264.85 278.738 264.85 281.308V281.308L264.851 281.594V281.599C264.851 284.284 264.851 285.631 264.177 286.307C263.498 286.988 262.136 286.988 259.4 286.988H259.396H255.426L254.541 286.104L253.657 285.219V281.26L253.657 281.033L253.657 280.788C253.66 278.475 253.661 277.299 253.074 276.703C252.468 276.087 251.235 276.088 248.729 276.091L248.505 276.091C248.416 276.091 248.326 276.091 248.234 276.091H248.008C245.392 276.091 244.082 276.09 243.425 276.746C242.765 277.404 242.766 278.723 242.766 281.368L242.766 281.594C242.766 285.34 242.735 285.533 242.023 286.245L241.281 286.988H231.724H222.167L221.424 286.245C220.711 285.532 220.681 285.341 220.672 281.478C220.671 280.979 220.678 280.528 220.685 280.119C220.709 278.628 220.724 277.706 220.284 277.132C219.574 276.202 217.674 276.181 212.702 276.126H212.702C211.86 276.117 210.93 276.107 209.903 276.091L200.057 275.94L199.327 275.09C198.637 274.287 198.597 274.028 198.597 270.309C198.597 264.896 198.592 264.891 193.206 264.891H192.993C190.339 264.892 189.017 264.892 188.359 264.231C187.706 263.575 187.706 262.268 187.706 259.665L187.706 259.454C187.706 259.28 187.706 259.112 187.706 258.948C187.704 256.375 187.702 255.105 188.337 254.463C188.957 253.836 190.182 253.809 192.604 253.755H192.604C192.762 253.752 192.925 253.748 193.092 253.744C193.268 253.74 193.438 253.736 193.603 253.733C196.057 253.679 197.289 253.651 197.92 253.022C198.555 252.389 198.583 251.147 198.638 248.654C198.642 248.488 198.646 248.316 198.65 248.139L198.66 247.706V247.706C198.715 245.266 198.743 244.037 199.372 243.418C200.01 242.791 201.266 242.792 203.798 242.793L204.241 242.794C208.153 242.794 208.333 242.821 209.048 243.537L209.791 244.28V253.795C209.791 254.74 209.788 255.604 209.785 256.394C209.766 261.56 209.758 263.557 210.723 264.314C211.331 264.79 212.325 264.776 213.943 264.752C214.336 264.746 214.766 264.74 215.236 264.74C215.891 264.74 216.469 264.781 216.977 264.817H216.978C217.957 264.886 218.682 264.938 219.218 264.644C220.747 263.806 220.736 260.16 220.697 246.11C220.69 243.551 220.682 240.647 220.682 237.352ZM275.742 215.248C275.742 211.807 275.809 211.308 276.369 210.596C276.994 209.801 277.007 209.799 281.338 209.799L281.599 209.799C284.292 209.798 285.626 209.798 286.287 210.465C286.936 211.12 286.936 212.419 286.935 214.993L286.935 215.248L286.935 215.502C286.936 218.076 286.936 219.375 286.287 220.03C285.626 220.697 284.292 220.697 281.599 220.696L281.338 220.696L281.077 220.696C278.385 220.697 277.051 220.697 276.39 220.03C275.74 219.375 275.741 218.076 275.741 215.502L275.742 215.248ZM1.02414 231.011C-0.557167 229.429 -0.226203 221.867 1.46008 221.05C1.81555 220.878 3.84822 220.728 5.9771 220.717L6.02485 220.717C8.63851 220.703 9.96533 220.696 10.6389 221.355C11.3334 222.036 11.3334 223.425 11.3333 226.247V226.297C11.3333 231.891 11.3282 231.896 5.82039 231.896H1.90843L1.02414 231.011ZM23.1086 231.011C21.5754 229.477 21.8852 221.55 23.5037 220.899C24.9715 220.308 31.9557 220.719 32.6751 221.439C33.5336 222.298 33.8162 229.687 33.0299 230.712C31.8111 232.3 24.6143 232.518 23.1086 231.011ZM99.3686 226.579C99.3686 222.771 99.5691 221.84 100.552 221.084C100.905 220.813 103.523 220.713 110.446 220.706C111.34 220.705 112.163 220.701 112.919 220.698H112.919H112.919C118.166 220.675 120.212 220.666 120.997 221.657C121.499 222.29 121.485 223.331 121.463 225.037C121.458 225.422 121.453 225.841 121.453 226.296L121.453 226.623C121.454 229.258 121.455 230.577 120.795 231.237C120.135 231.898 118.812 231.897 116.165 231.896L115.837 231.896C115.435 231.896 115.063 231.892 114.719 231.888L114.717 231.888C113.123 231.868 112.136 231.857 111.527 232.33C110.537 233.099 110.543 235.149 110.558 240.529C110.56 241.245 110.562 242.019 110.562 242.858V252.224L109.678 253.109C108.793 253.994 108.793 253.994 104.965 253.994H104.965H104.965C101.138 253.994 101.137 253.994 100.253 253.109L99.3686 252.224V248.252V248.203C99.3686 245.503 99.3686 244.151 98.6924 243.474C98.0137 242.794 96.6538 242.794 93.9289 242.794H93.8807L93.613 242.794C91.0393 242.794 89.7551 242.795 89.1144 242.153C88.4765 241.514 88.4768 240.237 88.4776 237.69L88.4776 237.424C88.4776 231.701 88.5904 231.594 94.5732 231.594L94.7527 231.594H94.7529C97.0266 231.594 98.1804 231.594 98.7659 231.017C99.3691 230.423 99.3689 229.216 99.3686 226.766L99.3686 226.579ZM132.646 226.296C132.646 221.962 132.649 221.949 133.444 221.324C134.377 220.589 151.791 220.334 153.322 221.032C155.088 221.837 155.484 229.373 153.847 231.011L152.962 231.896H143.602C142.714 231.896 141.898 231.899 141.148 231.901C135.927 231.919 133.888 231.926 133.104 230.937C132.601 230.303 132.615 229.261 132.636 227.551V227.551V227.55C132.641 227.167 132.646 226.75 132.646 226.296ZM176.513 226.555C176.513 222.636 176.77 221.566 177.833 221.05C178.25 220.848 183.782 220.73 193.392 220.717L208.306 220.696L209.048 221.439C209.763 222.155 209.79 222.331 209.781 226.207C209.78 226.527 209.782 226.829 209.783 227.114C209.79 228.966 209.794 230.104 209.243 230.801C208.365 231.911 206.08 231.907 200.159 231.898C199.586 231.897 198.979 231.896 198.336 231.896H188.96L188.333 232.694C187.773 233.406 187.706 233.905 187.706 237.345V237.467C187.706 240.159 187.707 241.491 187.041 242.149C186.389 242.794 185.1 242.794 182.549 242.794H182.431L182.096 242.794H182.096C179.476 242.792 178.174 242.792 177.512 243.443C176.857 244.086 176.828 245.365 176.77 247.91L176.762 248.239L176.76 248.349C176.693 251.205 176.662 252.565 175.966 253.233C175.332 253.841 174.148 253.876 171.887 253.942L171.792 253.945C165.809 254.12 165.623 253.964 165.618 248.772C165.611 242.841 165.565 242.794 159.738 242.794C154.483 242.794 154.274 242.537 154.476 236.322C154.486 236 154.492 235.701 154.498 235.422V235.422C154.524 234.124 154.541 233.284 154.95 232.735C155.698 231.73 157.76 231.703 163.599 231.625L163.602 231.625C164.284 231.615 165.017 231.606 165.806 231.594C166.806 231.578 167.714 231.568 168.538 231.558C173.598 231.5 175.481 231.479 176.165 230.562C176.57 230.02 176.553 229.163 176.528 227.798L176.528 227.797C176.521 227.422 176.513 227.01 176.513 226.555ZM121.453 237.426C121.453 233.283 121.692 232.465 123.074 231.881C123.43 231.731 125.402 231.638 127.455 231.676C132.572 231.77 132.646 231.852 132.646 237.376V237.453C132.647 240.095 132.647 241.43 131.979 242.104C131.297 242.794 129.918 242.794 127.13 242.794H127.05H126.993C124.184 242.794 122.8 242.794 122.117 242.101C121.453 241.428 121.453 240.1 121.453 237.481V237.426ZM309.939 242.497C307.804 241.354 308.358 232.236 310.589 231.81C313.876 231.182 319.048 231.759 319.614 232.816C320.262 234.027 319.978 241.321 319.253 242.093C318.534 242.859 311.208 243.177 309.939 242.497ZM264.699 233.053L263.985 232.475C263.303 231.923 262.587 231.896 248.231 231.896H233.191L232.533 232.597C231.562 233.631 231.488 262.832 232.453 264.025L233.031 264.74L247.799 264.824C263.594 264.914 263.923 264.886 264.53 263.42C264.766 262.85 264.842 258.178 264.783 247.829L264.699 233.053ZM143.925 252.809C143.139 251.784 143.422 244.396 144.28 243.537C145.024 242.792 151.786 242.379 153.356 242.982C155.06 243.636 155.442 251.512 153.847 253.109C152.341 254.615 145.144 254.398 143.925 252.809ZM243.364 253.078C242.354 252.068 242.468 244.577 243.509 243.537C244.549 242.496 252.035 242.382 253.044 243.391C254.314 244.662 254.37 251.903 253.12 253.154C251.87 254.404 244.633 254.348 243.364 253.078ZM111.359 264.264C109.824 263.055 110.238 254.67 111.867 253.984C113.392 253.342 120.246 253.778 120.875 254.557C121.801 255.702 121.738 263.186 120.795 264.191C119.838 265.21 112.633 265.266 111.359 264.264ZM132.596 259.243C132.698 254.97 132.833 254.462 133.997 253.967C135.214 253.45 142.245 253.78 142.847 254.382C143.336 254.872 143.4 255.847 143.537 264.777L143.689 274.632L144.403 275.21C145.024 275.713 145.629 275.788 149.04 275.788H152.962L153.847 276.673L154.731 277.558V281.483L154.731 281.867C154.729 284.338 154.729 285.574 155.346 286.207C155.965 286.841 157.205 286.87 159.687 286.927L160.073 286.935C160.558 286.947 161.001 286.951 161.406 286.954C163.062 286.968 164.074 286.977 164.69 287.475C165.655 288.256 165.648 290.241 165.628 295.339C165.625 296.132 165.622 297.001 165.622 297.952V307.6L164.879 308.343C164.165 309.058 163.983 309.086 160.092 309.086L159.707 309.086H159.707C157.297 309.084 156.072 309.083 155.435 309.695C154.777 310.328 154.747 311.615 154.687 314.234L154.678 314.638L154.667 315.107C154.613 317.513 154.586 318.732 153.962 319.351C153.32 319.987 152.046 319.986 149.462 319.984C149.303 319.983 149.14 319.983 148.971 319.983C148.542 319.983 148.147 319.988 147.783 319.993H147.781C146.137 320.013 145.125 320.026 144.504 319.54C143.511 318.763 143.515 316.712 143.526 311.383C143.527 310.643 143.529 309.841 143.528 308.969C143.527 308.568 143.527 308.182 143.528 307.809L143.528 307.209C143.532 301.601 143.533 299.355 142.435 298.461C141.7 297.864 140.474 297.871 138.428 297.882C138.126 297.884 137.806 297.886 137.467 297.886H137.351C134.999 297.886 133.823 297.886 133.235 297.298C132.646 296.71 132.646 295.533 132.646 293.178V293.062C132.646 287.157 132.51 287.011 126.96 286.998C123.099 286.989 122.908 286.959 122.196 286.245L121.453 285.502V275.94V266.377L122.196 265.634C122.908 264.921 123.099 264.891 126.868 264.891C132.456 264.891 132.46 264.887 132.596 259.243ZM287.257 254.865C287.434 254.533 287.877 254.14 288.24 253.992C288.606 253.842 295.584 253.748 303.828 253.781L318.754 253.842L319.332 254.557C319.891 255.248 319.91 256.128 319.91 281.436V307.6L319.168 308.343C318.035 309.476 311.03 309.485 309.717 308.355L308.868 307.625L308.784 292.403C308.71 278.841 308.647 277.121 308.208 276.636C307.755 276.134 306.99 276.091 298.58 276.091C289.165 276.091 287.807 275.945 287.231 274.868C286.814 274.088 286.838 255.649 287.257 254.865ZM99.4215 270.236C99.515 266.257 99.5555 266.018 100.234 265.469C101.452 264.483 108.796 264.61 109.819 265.634L110.562 266.377V275.94V285.502L109.819 286.245L109.077 286.988H99.5743C98.6838 286.988 97.8643 286.991 97.1103 286.993H97.1099C91.7631 287.01 89.7032 287.017 88.9224 286.021C88.4331 285.396 88.4462 284.378 88.4676 282.722C88.4724 282.349 88.4776 281.944 88.4776 281.504L88.4776 281.321C88.4773 278.524 88.4771 277.141 89.1686 276.457C89.8451 275.788 91.1835 275.788 93.8313 275.788H94.0078L94.392 275.789H94.3925C96.8025 275.79 98.0277 275.791 98.6645 275.179C99.3229 274.547 99.3524 273.259 99.4122 270.641L99.4215 270.236ZM155.268 275.251C154.028 274.01 154.091 266.742 155.353 265.479C156.292 264.54 163.907 264.595 164.922 265.549C165.927 266.494 166.003 274.054 165.018 275.112C163.796 276.425 156.544 276.528 155.268 275.251ZM177.353 275.25C176.273 274.169 176.293 266.349 177.378 265.47C178.596 264.483 185.94 264.609 186.964 265.634C188.137 266.808 188.108 274.094 186.925 275.206C185.757 276.305 178.441 276.338 177.353 275.25ZM277.117 286.8C275.412 286.146 275.03 278.27 276.626 276.673C278.131 275.167 285.328 275.384 286.547 276.973C287.333 277.998 287.051 285.387 286.192 286.245C285.449 286.99 278.686 287.403 277.117 286.8ZM110.562 292.449C110.562 288.491 110.604 288.184 111.224 287.606C111.824 287.046 112.278 286.988 116.065 286.988C116.262 286.988 116.451 286.988 116.634 286.988C119.038 286.985 120.245 286.983 120.849 287.585C121.458 288.192 121.457 289.412 121.453 291.861C121.453 292.046 121.453 292.238 121.453 292.437C121.453 296.271 121.396 296.732 120.848 297.28C120.3 297.828 119.84 297.886 116.008 297.886C115.804 297.886 115.607 297.886 115.418 297.886C112.985 297.89 111.769 297.891 111.162 297.284C110.556 296.678 110.558 295.464 110.561 293.038C110.562 292.849 110.562 292.653 110.562 292.449ZM198.597 292.437C198.597 288.997 198.664 288.498 199.224 287.786C199.85 286.991 199.863 286.988 204.194 286.988L204.455 286.988H204.456C207.148 286.988 208.482 286.987 209.143 287.654C209.792 288.309 209.791 289.608 209.791 292.183L209.791 292.437L209.791 292.691C209.791 295.266 209.792 296.565 209.143 297.22C208.482 297.887 207.148 297.886 204.456 297.886H204.455L204.194 297.886L203.933 297.886H203.932C201.24 297.886 199.906 297.887 199.245 297.22C198.596 296.565 198.597 295.266 198.597 292.691L198.597 292.437ZM264.851 297.789C264.851 288.555 264.862 288.377 265.508 287.689C266.227 286.923 273.553 286.606 274.822 287.285C275.955 287.891 276.044 289.071 276.044 303.486C276.044 317.9 275.955 319.08 274.822 319.687C274.495 319.862 270.381 319.983 264.753 319.983C263.813 319.983 262.953 319.986 262.167 319.989C256.985 320.008 254.988 320.015 254.232 319.05C253.758 318.445 253.773 317.457 253.796 315.849C253.802 315.46 253.808 315.035 253.808 314.57L253.808 314.154C253.807 311.558 253.806 310.261 254.454 309.597C255.102 308.934 256.399 308.904 258.993 308.846L259.409 308.836C259.852 308.826 260.259 308.822 260.634 308.818C262.273 308.801 263.28 308.791 263.897 308.295C264.879 307.506 264.873 305.486 264.856 300.248V300.248L264.856 300.226C264.853 299.48 264.851 298.67 264.851 297.789ZM286.935 292.437C286.935 288.603 286.992 288.142 287.54 287.594C288.088 287.046 288.548 286.988 292.38 286.988C296.213 286.988 296.673 287.046 297.221 287.594C297.768 288.142 297.826 288.603 297.826 292.437C297.826 296.271 297.768 296.732 297.221 297.28C296.673 297.828 296.213 297.886 292.38 297.886C288.548 297.886 288.088 297.828 287.54 297.28C286.992 296.732 286.935 296.271 286.935 292.437ZM99.4309 309.643C99.3344 299.697 99.3574 299.413 100.337 298.5C100.93 297.947 101.395 297.886 105.036 297.886H105.133C107.847 297.886 109.204 297.886 109.883 298.564C110.562 299.243 110.562 300.601 110.562 303.318V303.415L110.562 303.608C110.562 306.291 110.561 307.583 111.207 308.206C111.807 308.784 112.964 308.784 115.196 308.783H115.369C121.345 308.783 121.453 308.887 121.453 314.654C121.453 315.111 121.459 315.528 121.465 315.911C121.488 317.486 121.503 318.457 121.037 319.054C120.289 320.014 118.3 320.007 113.112 319.989H113.112C112.329 319.986 111.474 319.983 110.538 319.983C101.549 319.983 100.904 319.947 100.234 319.405L99.5198 318.827L99.4309 309.643ZM121.841 307.901C121.055 306.876 121.337 299.488 122.196 298.629C123.054 297.77 130.438 297.487 131.463 298.274C133.334 299.711 133.158 307.874 131.238 308.75C129.242 309.66 122.74 309.073 121.841 307.901ZM220.682 299.372L221.424 298.629C222.139 297.913 222.316 297.886 226.189 297.895C231.756 297.909 231.875 298.032 231.875 303.769L231.875 303.956V303.956C231.875 306.406 231.875 307.613 232.478 308.207C233.063 308.784 234.217 308.784 236.491 308.783H236.671C242.647 308.783 242.766 308.896 242.766 314.571C242.766 318.273 242.715 318.636 242.108 319.283L241.45 319.983H231.693H221.936L221.309 319.186C220.705 318.417 220.682 318.041 220.682 308.88V299.372ZM187.706 314.658C187.706 310.041 187.773 309.768 189.037 309.209C189.777 308.881 191.914 308.809 199.153 308.864L208.331 308.935L209.061 309.784C210.19 311.098 210.181 318.107 209.048 319.24L208.306 319.983H198.706C197.808 319.983 196.983 319.986 196.224 319.988C190.919 320.005 188.892 320.012 188.131 319.033C187.661 318.429 187.674 317.447 187.696 315.859C187.701 315.492 187.706 315.093 187.706 314.658ZM286.935 314.658C286.935 310.041 287.002 309.768 288.266 309.209C289.006 308.881 291.143 308.809 298.382 308.864L307.56 308.935L308.29 309.784C309.419 311.098 309.409 318.107 308.277 319.24L307.534 319.983H297.935C297.037 319.983 296.211 319.986 295.453 319.988C290.148 320.005 288.121 320.012 287.36 319.033C286.89 318.429 286.903 317.447 286.925 315.859C286.93 315.492 286.935 315.093 286.935 314.658ZM242.876 10.1629C242.876 4.55026 247.426 0.000339905 253.038 0.000339905H309.84C315.452 0.000339905 320.002 4.55028 320.002 10.1629V67.3401C320.002 72.9528 315.452 77.5027 309.84 77.5027H253.038C247.426 77.5027 242.876 72.9528 242.876 67.3401V10.1629ZM250.134 14.8881C250.134 10.6786 253.546 7.26614 257.756 7.26614H305.121C309.33 7.26614 312.743 10.6786 312.743 14.8881V62.6149C312.743 66.8244 309.33 70.2368 305.121 70.2368H257.756C253.546 70.2368 250.134 66.8243 250.134 62.6149V14.8881ZM270.037 22.1024C267.23 22.1024 264.955 24.3774 264.955 27.1837V50.323C264.955 53.1293 267.23 55.4042 270.037 55.4042H293.144C295.951 55.4042 298.226 53.1293 298.226 50.323V27.1837C298.226 24.3774 295.951 22.1024 293.144 22.1024H270.037ZM10.1626 242.497C4.54994 242.497 5.55694e-09 247.047 5.55694e-09 252.659V309.837C5.55694e-09 315.449 4.54993 319.999 10.1626 319.999H66.9641C72.5767 319.999 77.1267 315.449 77.1267 309.837V252.659C77.1267 247.047 72.5767 242.497 66.9641 242.497H10.1626ZM14.8801 249.762C10.6706 249.762 7.25818 253.175 7.25818 257.384V305.111C7.25818 309.321 10.6706 312.733 14.8801 312.733H62.2449C66.4544 312.733 69.8669 309.321 69.8669 305.111V257.384C69.8669 253.175 66.4544 249.762 62.2449 249.762H14.8801ZM22.0796 269.68C22.0796 266.874 24.3546 264.599 27.1609 264.599H50.2686C53.075 264.599 55.3499 266.874 55.3499 269.68V292.819C55.3499 295.626 53.075 297.901 50.2687 297.901H27.1609C24.3546 297.901 22.0796 295.626 22.0796 292.819V269.68Z" fill="url(#paint0_linear_1_1412)"/>
<defs>
<linearGradient id="paint0_linear_1_1412" x1="0" y1="0.000244141" x2="320.302" y2="319.7" gradientUnits="userSpaceOnUse">
<stop stop-color="white"/>
<stop offset="0.295131" stop-color="#DEDEDE"/>
<stop offset="0.857654" stop-color="white"/>
</linearGradient>
</defs>
</svg>
