<svg width="24" height="24" viewBox="0 0 24 24" fill="none" xmlns="http://www.w3.org/2000/svg">
<path fill-rule="evenodd" clip-rule="evenodd" d="M12 20.5C16.6944 20.5 20.5 16.6944 20.5 12C20.5 7.30555 16.6944 3.49997 12 3.49997C7.30558 3.49997 3.5 7.30555 3.5 12C3.5 16.6944 7.30558 20.5 12 20.5ZM2 12C2 14.8887 3.22486 17.4913 5.18354 19.3168C7.00905 21.2753 9.61152 22.5 12.5 22.5C18.0229 22.5 22.3654 18.0212 22.5 12.5C22.6414 6.70269 17.7973 1.85856 12 1.99997C6.47879 2.13464 2 6.47712 2 12Z" fill="#2C3034"/>
<path d="M10.4706 8.44911L9.61448 8.33333L9.62014 9.19725L9.63325 11.2001L9.63762 11.8676L8.01598 13.0031L7.40161 13.4333L7.83179 14.0476L7.8318 14.0476L8.98585 15.6958L8.98585 15.6958L9.41603 16.3102L10.0304 15.88L11.652 14.7445L12.2778 14.9769L14.1554 15.6742L14.9653 15.975L15.1493 15.1309L16.2571 10.0491L16.4303 9.25504L15.6249 9.14613L10.4706 8.44911Z" fill="#FDBF1E" stroke="#2C3034" stroke-width="1.5"/>
</svg>
