<svg width="18" height="18" viewBox="0 0 18 18" fill="none" xmlns="http://www.w3.org/2000/svg">
<path d="M8.29288 2.63604C7.90236 2.24552 7.26919 2.24552 6.87867 2.63604C6.48814 3.02657 6.48814 3.65973 6.87867 4.05025C8.17588 5.34747 9.68466 5.65371 11.0809 5.50489L1.22181 15.364C0.831289 15.7545 0.831289 16.3877 1.22181 16.7782C1.61234 17.1687 2.2455 17.1687 2.63603 16.7782L12.4951 6.9191C12.3463 8.31533 12.6525 9.82411 13.9497 11.1213C14.3403 11.5118 14.9734 11.5118 15.3639 11.1213C15.7545 10.7308 15.7545 10.0976 15.3639 9.70711C14.2224 8.56554 14.2813 7.11353 14.8759 5.62588C15.4725 4.13332 16.5143 2.89995 16.7782 2.63604C17.1687 2.24552 17.1687 1.61235 16.7782 1.22183C16.3876 0.831304 15.7545 0.831304 15.364 1.22183C15.1 1.48573 13.8667 2.52748 12.3741 3.12407C10.8865 3.7187 9.43445 3.77761 8.29288 2.63604Z" fill="white" fill-opacity="0.8"/>
</svg>
