<svg width="261" height="58" viewBox="0 0 261 58" fill="none" xmlns="http://www.w3.org/2000/svg">
    <g clip-path="url(#clip0_8239_55909)">
        <path d="M115.214 48.0949V33.1555H129.311V48.0949H139.884V8.8425H129.311V23.7819H115.214V8.8425H104.641V48.0949H115.214Z" fill="#F3EBEA" />
        <path d="M174.547 48.095V38.7212H154.987V33.1556H171.61V23.782H154.987V18.2164H174.547V8.84259H144.414V48.095H174.547Z" fill="#F3EBEA" />
        <path d="M189.417 48.0949V34.0344H190.239C193.47 34.0344 194.938 35.0304 196.523 37.6081L203.043 48.0949H215.085L209.446 39.2485C207.45 36.1434 205.687 33.6242 201.635 32.6284C208.33 32.0424 213.44 28.7032 213.44 21.1456C213.44 12.4749 206.862 8.8425 197.7 8.8425H178.844V48.0949H189.417ZM197.816 18.2163C200.811 18.2163 202.279 19.4465 202.279 21.9071C202.279 24.309 200.811 25.5981 197.816 25.5981H189.417V18.2163H197.816Z" fill="#F3EBEA" />
        <path d="M247.473 48.0949V38.7212H227.912V33.1555H244.534V23.7819H227.912V18.2163H247.473V8.8425H217.34V48.0949H247.473Z" fill="#F3EBEA" />
        <path d="M260.982 48.0951V38.0769H250.41V48.0951H260.982Z" fill="#F3EBEA" />
        <path d="M260.982 48.0951V38.0769H250.41V48.0951H260.982Z" fill="#FD84E3" />
        <path d="M33.8588 48.7001L33.8966 48.7188L33.9387 48.7163L82.2758 45.7896L77.7078 54.0113L29.2111 56.9475L0.219253 42.5924L4.81568 34.3195L33.8588 48.7001ZM42.4256 16.319L40.8299 8.76692L45.3223 0.412669L51.2757 20.3095L42.4256 16.319ZM36.7526 32.1263L17.2805 33.4667L2.85442 26.4278L7.48043 18.1082L36.7526 32.1263Z" fill="#2C3034" stroke="#F3EBEA" stroke-width="0.316981" />
        <path d="M82.5525 45.6146L33.9407 48.5592L4.51172 34.0772L36.3792 32.154L7.40953 17.9006L21.6354 5.88377L51.1457 20.3586L45.3596 0L73.5584 13.7918L82.5525 45.6146Z" fill="#F3EBEA" />
    </g>
    <defs>
        <clipPath id="clip0_8239_55909">
            <rect width="261" height="57.1533" fill="white" />
        </clipPath>
    </defs>
</svg>
