<svg width="190" height="79" viewBox="0 0 190 79" fill="none" xmlns="http://www.w3.org/2000/svg">
    <g clip-path="url(#clip0_8240_55934)">
        <path fill-rule="evenodd" clip-rule="evenodd" d="M39.7641 0.664397V47.138C39.7641 47.5045 39.4685 47.8019 39.1044 47.8019H34.2607C32.0229 47.8019 29.9369 46.66 28.7217 44.7692L6.92115 10.8581L7.66795 27.7937V47.138C7.66795 47.5045 7.3724 47.8019 7.00823 47.8019H0.659722C0.295556 47.8019 0 47.5045 0 47.138V0.664397C0 0.297919 0.295556 0.000488281 0.659722 0.000488281H5.43941C7.67521 0.000488281 9.75927 1.14042 10.9751 3.02858L32.7743 36.876L32.0961 20.0087V0.664397C32.0961 0.297919 32.3917 0.000488281 32.7559 0.000488281H39.1044C39.4685 0.000488281 39.7641 0.297919 39.7641 0.664397Z" fill="#F3EBEA" />
        <path fill-rule="evenodd" clip-rule="evenodd" d="M103.369 47.8018H96.6445C96.1807 47.8018 95.862 47.333 96.0296 46.8982L113.826 0.63636C113.974 0.253285 114.34 0.000335693 114.749 0.000335693H123.164C123.573 0.000335693 123.94 0.253285 124.087 0.63636L141.884 46.8982C142.052 47.333 141.733 47.8018 141.269 47.8018H134.544C134.27 47.8018 134.025 47.6311 133.928 47.3729L119.574 9.2851C119.359 8.71414 118.556 8.71414 118.34 9.2851L103.986 47.3729C103.889 47.6311 103.643 47.8018 103.369 47.8018Z" fill="#F3EBEA" />
        <path fill-rule="evenodd" clip-rule="evenodd" d="M189.858 46.7286L176.509 29.5685C184.042 28.1345 188.453 23.0131 188.453 15.1597C188.453 6.14647 182.616 0 172.302 0H153.681C153.135 0 152.691 0.446147 152.691 0.995863C152.691 4.51923 155.53 7.37536 159.03 7.37536H171.488C177.732 7.37536 180.717 10.5847 180.717 15.2281C180.717 19.8721 177.798 23.1498 171.488 23.1498H153.681C153.135 23.1498 152.691 23.5953 152.691 24.1457V47.1375C152.691 47.504 152.987 47.8014 153.351 47.8014H159.7C160.064 47.8014 160.36 47.504 160.36 47.1375V29.9788H167.688L179.279 45.2002C180.527 46.8401 182.463 47.8014 184.515 47.8014H189.338C189.888 47.8014 190.197 47.1641 189.858 46.7286Z" fill="#F3EBEA" />
        <path fill-rule="evenodd" clip-rule="evenodd" d="M84.5973 40.4267H62.5744C62.2096 40.4267 61.9147 40.1293 61.9147 39.7628V27.7746C61.9147 27.4081 62.2096 27.1107 62.5744 27.1107H82.9011C83.2653 27.1107 83.5609 26.8133 83.5609 26.4468V20.3986C83.5609 20.0321 83.2653 19.7347 82.9011 19.7347H55.2357C54.6894 19.7347 54.2461 20.1808 54.2461 20.7306V46.8056C54.2461 47.3559 54.6894 47.8014 55.2357 47.8014H84.5973C84.9621 47.8014 85.257 47.5047 85.257 47.1375V41.0906C85.257 40.7242 84.9621 40.4267 84.5973 40.4267ZM84.5973 0H55.1275C54.6406 0 54.2461 0.397681 54.2461 0.886982C54.2461 4.4701 57.1324 7.37536 60.6936 7.37536H84.5973C84.9621 7.37536 85.257 7.07793 85.257 6.71145V0.663909C85.257 0.297431 84.9621 0 84.5973 0Z" fill="#F3EBEA" />
        <path fill-rule="evenodd" clip-rule="evenodd" d="M2.87045 62.8447V67.0844C2.87045 67.2265 2.98458 67.3413 3.12576 67.3413H10.7178C10.8584 67.3413 10.9732 67.4569 10.9732 67.5989V69.8449C10.9732 69.987 10.8584 70.1025 10.7178 70.1025H3.12576C2.98458 70.1025 2.87045 70.2174 2.87045 70.3595V77.462C2.87045 77.6034 2.75632 77.7189 2.61514 77.7189H0.255972C0.114792 77.7189 0 77.6034 0 77.462V60.0841C0 59.9421 0.114792 59.8272 0.255972 59.8272H11.3518C11.493 59.8272 11.6078 59.9421 11.6078 60.0841V62.3308C11.6078 62.4722 11.493 62.5877 11.3518 62.5877H3.12576C2.98458 62.5877 2.87045 62.7026 2.87045 62.8447Z" fill="#F3EBEA" />
        <path fill-rule="evenodd" clip-rule="evenodd" d="M19.6885 68.7732C19.6885 72.505 22.4059 75.2649 26.0126 75.2649C29.5936 75.2649 32.311 72.505 32.311 68.7732C32.311 65.0414 29.5936 62.2808 26.0126 62.2808C22.4059 62.2808 19.6885 65.0414 19.6885 68.7732ZM35.2322 68.7732C35.2071 74.038 31.2191 78.0254 26.0126 78.0254C20.8054 78.0254 16.793 74.038 16.793 68.7732C16.793 63.5077 20.8054 59.5203 26.0126 59.5203C31.2191 59.5203 35.2071 63.5077 35.2322 68.7732Z" fill="#F3EBEA" />
        <path fill-rule="evenodd" clip-rule="evenodd" d="M55.4482 59.8273C55.5893 59.8273 55.7035 59.9422 55.7035 60.0842V70.5879C55.7035 75.5719 52.6048 78.0257 48.5151 78.0257C44.4262 78.0257 41.3281 75.5719 41.3281 70.5879V60.0842C41.3281 59.9422 41.4423 59.8273 41.5834 59.8273H43.9927C44.1339 59.8273 44.2481 59.9422 44.2481 60.0842V70.4087C44.2481 73.8849 46.0517 75.2652 48.5151 75.2652C50.9792 75.2652 52.7822 73.8849 52.7822 70.4087V60.0842C52.7822 59.9422 52.897 59.8273 53.0375 59.8273H55.4482Z" fill="#F3EBEA" />
        <path fill-rule="evenodd" clip-rule="evenodd" d="M77.2154 60.0839V77.4617C77.2154 77.6038 77.1012 77.7186 76.9601 77.7186H75.2019C74.3357 77.7186 73.5282 77.2765 73.0578 76.5449L64.9228 63.8914L65.2025 70.2298V77.4617C65.2025 77.6038 65.0877 77.7186 64.9465 77.7186H62.5873C62.4462 77.7186 62.332 77.6038 62.332 77.4617V60.0839C62.332 59.9425 62.4462 59.827 62.5873 59.827H64.3218C65.1873 59.827 65.9941 60.2685 66.4652 60.9994L74.5996 73.629L74.3456 67.3165V60.0839C74.3456 59.9425 74.4604 59.827 74.6009 59.827H76.9601C77.1012 59.827 77.2154 59.9425 77.2154 60.0839Z" fill="#F3EBEA" />
        <path fill-rule="evenodd" clip-rule="evenodd" d="M96.9294 68.7731C96.9294 65.1436 94.3129 62.5875 90.7319 62.5875H87.6101C87.469 62.5875 87.3542 62.7024 87.3542 62.8444V74.7012C87.3542 74.8433 87.469 74.9581 87.6101 74.9581H90.7319C94.3129 74.9581 96.9294 72.428 96.9294 68.7731ZM99.7992 68.7731C99.7992 73.9357 95.8626 77.7186 90.7062 77.7186H84.7397C84.5985 77.7186 84.4844 77.6038 84.4844 77.4617V60.0839C84.4844 59.9425 84.5985 59.827 84.7397 59.827H90.7062C95.8877 59.827 99.7992 63.5847 99.7992 68.7731Z" fill="#F3EBEA" />
        <path fill-rule="evenodd" clip-rule="evenodd" d="M114.474 69.8307L112.025 63.3244C111.942 63.1034 111.63 63.1034 111.547 63.3244L109.097 69.8307C109.034 69.9987 109.158 70.1786 109.336 70.1786H114.235C114.414 70.1786 114.538 69.9987 114.474 69.8307ZM115.47 72.9139H108.102C107.996 72.9139 107.901 72.9797 107.863 73.0799L106.185 77.5527C106.147 77.6529 106.052 77.7187 105.945 77.7187H103.447C103.268 77.7187 103.144 77.5374 103.209 77.3688L109.894 59.9916C109.932 59.8927 110.027 59.8276 110.133 59.8276H113.439C113.545 59.8276 113.639 59.8927 113.677 59.9916L120.363 77.3688C120.428 77.5374 120.304 77.7187 120.125 77.7187H117.626C117.52 77.7187 117.425 77.6529 117.388 77.5527L115.709 73.0799C115.671 72.9797 115.576 72.9139 115.47 72.9139Z" fill="#F3EBEA" />
        <path fill-rule="evenodd" clip-rule="evenodd" d="M135.811 62.5875H130.886C130.745 62.5875 130.63 62.7024 130.63 62.8444V77.4617C130.63 77.6038 130.516 77.7186 130.375 77.7186H128.016C127.875 77.7186 127.761 77.6038 127.761 77.4617V62.8444C127.761 62.7024 127.647 62.5875 127.506 62.5875H124.179C122.805 62.5875 121.691 61.4668 121.691 60.0839C121.691 59.9425 121.806 59.827 121.947 59.827H135.811C135.952 59.827 136.066 59.9425 136.066 60.0839V62.3306C136.066 62.4726 135.952 62.5875 135.811 62.5875Z" fill="#F3EBEA" />
        <path fill-rule="evenodd" clip-rule="evenodd" d="M142.568 59.8273H144.927C145.068 59.8273 145.182 59.9421 145.182 60.0842V77.462C145.182 77.6034 145.068 77.7189 144.927 77.7189H142.568C142.427 77.7189 142.312 77.6034 142.312 77.462V60.0842C142.312 59.9421 142.427 59.8273 142.568 59.8273Z" fill="#F3EBEA" />
        <path fill-rule="evenodd" clip-rule="evenodd" d="M154.2 68.7732C154.2 72.505 156.918 75.2649 160.524 75.2649C164.105 75.2649 166.823 72.505 166.823 68.7732C166.823 65.0414 164.105 62.2808 160.524 62.2808C156.918 62.2808 154.2 65.0414 154.2 68.7732ZM169.744 68.7732C169.718 74.038 165.731 78.0254 160.524 78.0254C155.317 78.0254 151.305 74.038 151.305 68.7732C151.305 63.5077 155.317 59.5203 160.524 59.5203C165.731 59.5203 169.718 63.5077 169.744 68.7732Z" fill="#F3EBEA" />
        <path fill-rule="evenodd" clip-rule="evenodd" d="M190.001 60.0839V77.4617C190.001 77.6038 189.886 77.7186 189.745 77.7186H187.986C187.12 77.7186 186.313 77.2765 185.842 76.5449L177.708 63.8914L177.987 70.2298V77.4617C177.987 77.6038 177.872 77.7186 177.732 77.7186H175.372C175.231 77.7186 175.117 77.6038 175.117 77.4617V60.0839C175.117 59.9425 175.231 59.827 175.372 59.827H177.107C177.972 59.827 178.779 60.2685 179.25 60.9994L187.385 73.629L187.13 67.3165V60.0839C187.13 59.9425 187.245 59.827 187.386 59.827H189.745C189.886 59.827 190.001 59.9425 190.001 60.0839Z" fill="#F3EBEA" />
    </g>
    <defs>
        <clipPath id="clip0_8240_55934">
            <rect width="190" height="78.3412" fill="white" />
        </clipPath>
    </defs>
</svg>
