<svg width="227" height="53" viewBox="0 0 227 53" fill="none" xmlns="http://www.w3.org/2000/svg">
    <g clip-path="url(#clip0_8239_55919)">
        <path d="M79.8855 52.5433L78.9758 49.2844C78.6966 49.5181 78.3932 49.74 78.0669 49.9503C75.0837 51.9827 70.9344 52.9988 65.6199 52.9988C60.5853 52.9988 56.5761 52.0878 53.5926 50.2656C50.609 48.4435 49.1172 45.0912 49.1172 40.2088C49.1172 35.6301 50.6323 32.3829 53.6625 30.4673C56.7159 28.5517 61.4479 27.5939 67.8577 27.5939H78.1722V26.3324C78.1722 23.5992 77.4496 21.6486 76.0044 20.4805C74.5592 19.2891 72.6242 18.6934 70.2001 18.6934C68.0094 18.6934 66.1444 19.219 64.6064 20.2702C63.0676 21.3215 62.1123 22.9918 61.7388 25.2812L49.9913 21.9873C50.6905 18.1795 52.7651 15.3294 56.2148 13.4372C59.6882 11.545 64.163 10.5988 69.641 10.5988C77.566 10.5988 82.9851 12.2458 85.899 15.5397C88.8123 18.8336 90.2692 23.5174 90.2692 29.5913V52.5433H79.8855ZM78.1722 40.1737V34.7073H70.3754C66.9252 34.7073 64.5592 35.1394 63.2776 36.0038C62.0187 36.8682 61.3897 38.2114 61.3897 40.0335C61.3897 41.8324 61.9605 43.1873 63.103 44.0984C64.2447 44.9861 66.0744 45.4299 68.5921 45.4299C71.3661 45.4299 73.6503 44.9043 75.4446 43.8531C77.2632 42.8018 78.1722 41.5754 78.1722 40.1737Z" fill="#F3EBEA" />
        <path d="M122.091 31.7634C122.091 26.493 121.499 23.0541 120.314 21.447C119.153 19.8162 117.527 19.0009 115.436 19.0009C113.021 19.0009 111.093 19.8635 109.653 21.5888C108.445 23.0541 107.749 24.6849 107.563 26.4812V52.9988H95.5781V10.9534H107.04L107.284 14.9949C107.4 14.8766 107.517 14.7703 107.633 14.6758C110.768 11.9579 114.879 10.5988 119.966 10.5988C125.47 10.5988 129.198 12.3241 131.149 15.7747C133.1 19.2018 134.075 24.5313 134.075 31.7634H122.091Z" fill="#F3EBEA" />
        <path d="M170.155 52.5433L169.246 49.2844C168.966 49.5181 168.663 49.74 168.336 49.9503C165.353 51.9827 161.204 52.9988 155.889 52.9988C150.855 52.9988 146.845 52.0878 143.862 50.2656C140.878 48.4435 139.387 45.0912 139.387 40.2088C139.387 35.6301 140.902 32.3829 143.932 30.4673C146.985 28.5517 151.717 27.5939 158.127 27.5939H168.442V26.3324C168.442 23.5992 167.719 21.6486 166.274 20.4805C164.829 19.2891 162.894 18.6934 160.47 18.6934C158.279 18.6934 156.414 19.219 154.876 20.2702C153.337 21.3215 152.382 22.9918 152.008 25.2812L140.261 21.9873C140.96 18.1795 143.034 15.3294 146.485 13.4372C149.958 11.545 154.433 10.5988 159.91 10.5988C167.835 10.5988 173.255 12.2458 176.169 15.5397C179.083 18.8336 180.539 23.5174 180.539 29.5913V52.5433H170.155ZM168.442 40.1737V34.7073H160.645C157.195 34.7073 154.829 35.1394 153.547 36.0038C152.288 36.8682 151.659 38.2114 151.659 40.0335C151.659 41.8324 152.23 43.1873 153.372 44.0984C154.514 44.9861 156.344 45.4299 158.862 45.4299C161.636 45.4299 163.92 44.9043 165.714 43.8531C167.533 42.8018 168.442 41.5754 168.442 40.1737Z" fill="#F3EBEA" />
        <path d="M206.881 52.9988C201.207 52.9988 196.552 52.1544 192.917 50.4654C189.283 48.753 186.927 45.9263 185.848 41.9854L196.47 38.1149C196.939 40.6014 198.112 42.3725 199.987 43.4281C201.886 44.4602 204.114 44.9763 206.67 44.9763C209.343 44.9763 211.406 44.6127 212.86 43.8855C214.314 43.1583 215.041 42.1144 215.041 40.7539C215.041 39.0415 214.161 37.9272 212.403 37.4111C210.668 36.8716 207.819 36.3086 203.856 35.7222C197.455 34.8777 192.906 33.5992 190.209 31.8868C187.513 30.1744 186.165 27.2069 186.165 22.9845C186.165 18.6683 188.017 15.525 191.721 13.5545C195.45 11.584 200.374 10.5988 206.494 10.5988C212.427 10.5988 216.976 11.4433 220.141 13.1323C223.33 14.7978 225.405 17.5072 226.366 21.2604L216.131 25.0606C215.639 22.8086 214.548 21.1666 212.86 20.1344C211.195 19.0788 209.003 18.551 206.283 18.551C203.704 18.551 201.687 18.9498 200.233 19.7474C198.803 20.5449 198.088 21.5771 198.088 22.8438C198.088 24.4859 199.014 25.5298 200.867 25.9754C202.742 26.4211 205.568 26.9138 209.343 27.4533C215.486 28.2508 219.965 29.5293 222.779 31.2886C225.593 33.0245 227 35.9567 227 40.0853C227 44.7534 225.182 48.0727 221.548 50.0432C217.937 52.0136 213.048 52.9988 206.881 52.9988Z" fill="#F3EBEA" />
        <path fill-rule="evenodd" clip-rule="evenodd" d="M6.95353 53L0 0L29.3785 5.3C30.6274 5.634 31.7837 5.9025 32.8485 6.14979C36.8522 7.07952 39.5609 7.70852 41.0257 10.388C42.8799 13.7565 43.807 17.9022 43.807 22.8254C43.807 27.772 42.8799 31.9295 41.0257 35.298C39.1714 38.6665 35.289 40.3506 29.3785 40.3506H17.2589L19.39 53H6.95353ZM12.5936 10.9534L26.633 13.7843C27.307 13.9627 27.931 14.1062 28.5056 14.2382C30.6664 14.7349 32.1282 15.0708 32.9188 16.5021C33.9195 18.3014 34.4198 20.5158 34.4198 23.1455C34.4198 25.7878 33.9195 28.0085 32.9188 29.8078C31.918 31.6071 29.8228 32.5066 26.633 32.5066H19.3903L16.0344 32.1534L12.5936 10.9534Z" fill="#F3EBEA" />
        <path fill-rule="evenodd" clip-rule="evenodd" d="M6.95353 53L0 0L29.3785 5.3C30.6274 5.634 31.7837 5.9025 32.8485 6.14979C36.8522 7.07952 39.5609 7.70852 41.0257 10.388C42.8799 13.7565 43.807 17.9022 43.807 22.8254C43.807 27.772 42.8799 31.9295 41.0257 35.298C39.1714 38.6665 35.289 40.3506 29.3785 40.3506H17.2589L19.39 53H6.95353ZM12.5936 10.9534L26.633 13.7843C27.307 13.9627 27.931 14.1062 28.5056 14.2382C30.6664 14.7349 32.1282 15.0708 32.9188 16.5021C33.9195 18.3014 34.4198 20.5158 34.4198 23.1455C34.4198 25.7878 33.9195 28.0085 32.9188 29.8078C31.918 31.6071 29.8228 32.5066 26.633 32.5066H19.3903L16.0344 32.1534L12.5936 10.9534Z" fill="#F3EBEA" />
    </g>
    <defs>
        <clipPath id="clip0_8239_55919">
            <rect width="227" height="53" fill="white" />
        </clipPath>
    </defs>
</svg>
