<svg width="566" height="694" viewBox="0 0 566 694" fill="none" xmlns="http://www.w3.org/2000/svg">
    <g filter="url(#filter0_f_8247_56075)">
        <path d="M301.361 403.452C353.716 403.452 393.152 376.193 393.152 321.677C393.152 277.181 369.014 252.729 319.379 239.501L292.522 232.285C270.084 226.273 256.825 221.061 256.825 206.23C256.825 196.609 265.324 191.799 277.223 191.799C298.633 191.799 323.683 203.759 341.683 221.777C345.486 225.585 351.987 225.276 354.946 220.782L383.402 177.557C385.349 174.598 385.118 170.689 382.682 168.117C359.895 144.06 326.361 127.661 284.362 127.661C233.707 127.661 193.931 156.523 193.931 211.04C193.931 261.949 226.568 282.393 265.664 291.211L288.442 296.423C318.699 303.237 330.258 310.052 330.258 323.681C330.258 334.905 320.399 339.314 304.76 339.314C281.4 339.314 254.345 328.426 235.219 307.197C231.462 303.028 224.58 303.136 221.505 307.831L193.014 351.323C191.129 354.201 191.294 357.987 193.588 360.551C219.585 389.614 259.237 403.452 301.361 403.452Z" fill="#371010" fill-opacity="0.2" />
    </g>
    <g filter="url(#filter1_f_8247_56075)">
        <path d="M301.361 403.452C353.716 403.452 393.152 376.193 393.152 321.677C393.152 277.181 369.014 252.729 319.379 239.501L292.522 232.285C270.084 226.273 256.825 221.061 256.825 206.23C256.825 196.609 265.324 191.799 277.223 191.799C298.633 191.799 323.683 203.759 341.683 221.777C345.486 225.585 351.987 225.276 354.946 220.782L383.402 177.557C385.349 174.598 385.118 170.689 382.682 168.117C359.895 144.06 326.361 127.661 284.362 127.661C233.707 127.661 193.931 156.523 193.931 211.04C193.931 261.949 226.568 282.393 265.664 291.211L288.442 296.423C318.699 303.237 330.258 310.052 330.258 323.681C330.258 334.905 320.399 339.314 304.76 339.314C281.4 339.314 254.345 328.426 235.219 307.197C231.462 303.028 224.58 303.136 221.505 307.831L193.014 351.323C191.129 354.201 191.294 357.987 193.588 360.551C219.585 389.614 259.237 403.452 301.361 403.452Z" fill="#371010" fill-opacity="0.1" />
    </g>
    <path d="M311.364 393.79C373.096 393.79 419.596 366.532 419.596 312.015C419.596 267.52 391.135 243.068 332.61 229.839L300.942 222.624C274.485 216.611 258.852 211.4 258.852 196.568C258.852 186.948 268.873 182.137 282.903 182.137C308.923 182.137 339.504 194.843 360.841 213.794C364.476 217.022 370.173 216.755 373.153 212.915L407.658 168.463C410.123 165.288 409.838 160.752 406.833 158.083C379.974 134.23 340.587 118 291.321 118C231.593 118 184.693 146.862 184.693 201.378C184.693 252.287 223.175 272.731 269.274 281.55L296.132 286.761C331.808 293.576 345.437 300.39 345.437 314.019C345.437 325.243 333.812 329.653 315.373 329.653C287.047 329.653 254.115 318.138 231.479 295.704C227.863 292.12 221.814 292.203 218.701 296.233L184.039 341.108C181.647 344.204 181.852 348.603 184.704 351.281C215.363 380.077 261.92 393.79 311.364 393.79Z" fill="url(#paint0_radial_8247_56075)" />
    <g opacity="0.2" filter="url(#filter2_f_8247_56075)">
        <path d="M430.64 566.312H177.118C172.738 566.312 169.188 562.762 169.188 558.382V357.645C169.188 353.265 172.738 349.715 177.118 349.715H430.64C435.02 349.715 438.571 353.265 438.571 357.645V558.382C438.571 562.762 435.02 566.312 430.64 566.312Z" fill="#371010" />
    </g>
    <g opacity="0.1" filter="url(#filter3_f_8247_56075)">
        <path d="M430.64 566.312H177.118C172.738 566.312 169.188 562.762 169.188 558.382V357.645C169.188 353.265 172.738 349.715 177.118 349.715H430.64C435.02 349.715 438.571 353.265 438.571 357.645V558.382C438.571 562.762 435.02 566.312 430.64 566.312Z" fill="#371010" />
    </g>
    <path d="M433.767 551.179H173.985C169.605 551.179 166.055 547.628 166.055 543.248L166.055 343.891C166.055 339.511 169.605 335.961 173.985 335.961H433.766C438.146 335.961 441.697 339.511 441.697 343.891L441.697 543.248C441.697 547.628 438.147 551.179 433.767 551.179Z" fill="url(#paint1_linear_8247_56075)" />
    <g filter="url(#filter4_i_8247_56075)">
        <path d="M327.664 551.195H280.082V335.961H327.664V551.195Z" fill="url(#paint2_linear_8247_56075)" />
    </g>
    <path d="M71.9084 321.934C63.7328 344.271 102.679 388.232 102.679 388.232L118.857 394.153L148.463 313.263C132.285 307.342 82.2498 293.679 71.9084 321.934Z" fill="url(#paint3_linear_8247_56075)" />
    <path d="M22.1385 457.911C30.3141 435.573 88.4365 427.14 88.4365 427.14L104.615 433.062L75.0082 513.952C58.8301 508.031 11.7971 486.165 22.1385 457.911Z" fill="url(#paint4_linear_8247_56075)" />
    <path d="M120.625 389.426L102.861 437.96L78.5938 429.078L96.3576 380.544L120.625 389.426Z" fill="#C12131" />
    <g filter="url(#filter5_d_8247_56075)">
        <rect x="64.7188" y="542.086" width="273.621" height="26.1106" rx="3.17214" transform="rotate(-69.897 64.7188 542.086)" fill="url(#paint5_linear_8247_56075)" />
    </g>
    <defs>
        <filter id="filter0_f_8247_56075" x="128.28" y="64.2187" width="328.315" height="402.676" filterUnits="userSpaceOnUse" color-interpolation-filters="sRGB">
            <feFlood flood-opacity="0" result="BackgroundImageFix" />
            <feBlend mode="normal" in="SourceGraphic" in2="BackgroundImageFix" result="shape" />
            <feGaussianBlur stdDeviation="31.7214" result="effect1_foregroundBlur_8247_56075" />
        </filter>
        <filter id="filter1_f_8247_56075" x="64.8371" y="0.775932" width="455.201" height="529.561" filterUnits="userSpaceOnUse" color-interpolation-filters="sRGB">
            <feFlood flood-opacity="0" result="BackgroundImageFix" />
            <feBlend mode="normal" in="SourceGraphic" in2="BackgroundImageFix" result="shape" />
            <feGaussianBlur stdDeviation="63.4428" result="effect1_foregroundBlur_8247_56075" />
        </filter>
        <filter id="filter2_f_8247_56075" x="105.745" y="286.272" width="396.268" height="343.483" filterUnits="userSpaceOnUse" color-interpolation-filters="sRGB">
            <feFlood flood-opacity="0" result="BackgroundImageFix" />
            <feBlend mode="normal" in="SourceGraphic" in2="BackgroundImageFix" result="shape" />
            <feGaussianBlur stdDeviation="31.7214" result="effect1_foregroundBlur_8247_56075" />
        </filter>
        <filter id="filter3_f_8247_56075" x="42.3019" y="222.829" width="523.154" height="470.369" filterUnits="userSpaceOnUse" color-interpolation-filters="sRGB">
            <feFlood flood-opacity="0" result="BackgroundImageFix" />
            <feBlend mode="normal" in="SourceGraphic" in2="BackgroundImageFix" result="shape" />
            <feGaussianBlur stdDeviation="63.4428" result="effect1_foregroundBlur_8247_56075" />
        </filter>
        <filter id="filter4_i_8247_56075" x="276.91" y="335.961" width="50.7542" height="215.235" filterUnits="userSpaceOnUse" color-interpolation-filters="sRGB">
            <feFlood flood-opacity="0" result="BackgroundImageFix" />
            <feBlend mode="normal" in="SourceGraphic" in2="BackgroundImageFix" result="shape" />
            <feColorMatrix in="SourceAlpha" type="matrix" values="0 0 0 0 0 0 0 0 0 0 0 0 0 0 0 0 0 0 127 0" result="hardAlpha" />
            <feOffset dx="-3.17214" />
            <feGaussianBlur stdDeviation="1.58607" />
            <feComposite in2="hardAlpha" operator="arithmetic" k2="-1" k3="1" />
            <feColorMatrix type="matrix" values="0 0 0 0 0 0 0 0 0 0 0 0 0 0 0 0 0 0 0.21 0" />
            <feBlend mode="normal" in2="shape" result="effect1_innerShadow_8247_56075" />
        </filter>
        <filter id="filter5_d_8247_56075" x="49.7526" y="278.101" width="148.495" height="295.854" filterUnits="userSpaceOnUse" color-interpolation-filters="sRGB">
            <feFlood flood-opacity="0" result="BackgroundImageFix" />
            <feColorMatrix in="SourceAlpha" type="matrix" values="0 0 0 0 0 0 0 0 0 0 0 0 0 0 0 0 0 0 127 0" result="hardAlpha" />
            <feOffset dy="7.93035" />
            <feGaussianBlur stdDeviation="7.93035" />
            <feComposite in2="hardAlpha" operator="out" />
            <feColorMatrix type="matrix" values="0 0 0 0 0.215686 0 0 0 0 0.0627451 0 0 0 0 0.0627451 0 0 0 0.2 0" />
            <feBlend mode="normal" in2="BackgroundImageFix" result="effect1_dropShadow_8247_56075" />
            <feBlend mode="normal" in="SourceGraphic" in2="effect1_dropShadow_8247_56075" result="shape" />
        </filter>
        <radialGradient id="paint0_radial_8247_56075" cx="0" cy="0" r="1" gradientUnits="userSpaceOnUse" gradientTransform="translate(299.739 159.499) rotate(90) scale(234.291 323.172)">
            <stop stop-color="white" />
            <stop offset="1" stop-color="#E16262" />
        </radialGradient>
        <linearGradient id="paint1_linear_8247_56075" x1="303.876" y1="309.985" x2="303.876" y2="551.171" gradientUnits="userSpaceOnUse">
            <stop offset="0.602241" stop-color="#EBDEDC" />
            <stop offset="1" stop-color="#D5BDB9" />
        </linearGradient>
        <linearGradient id="paint2_linear_8247_56075" x1="303.873" y1="335.961" x2="303.873" y2="551.195" gradientUnits="userSpaceOnUse">
            <stop offset="0.62067" stop-color="#FF4D54" />
            <stop offset="1" stop-color="#C12131" />
        </linearGradient>
        <linearGradient id="paint3_linear_8247_56075" x1="68.9477" y1="330.023" x2="133.66" y2="353.708" gradientUnits="userSpaceOnUse">
            <stop offset="0.62067" stop-color="#FF4D54" />
            <stop offset="1" stop-color="#C12131" />
        </linearGradient>
        <linearGradient id="paint4_linear_8247_56075" x1="25.0991" y1="449.822" x2="89.8114" y2="473.507" gradientUnits="userSpaceOnUse">
            <stop offset="0.62067" stop-color="#FF4D54" />
            <stop offset="1" stop-color="#C12131" />
        </linearGradient>
        <linearGradient id="paint5_linear_8247_56075" x1="201.529" y1="538.935" x2="201.529" y2="568.196" gradientUnits="userSpaceOnUse">
            <stop offset="0.602241" stop-color="#EBDEDC" />
            <stop offset="1" stop-color="#D5BDB9" />
        </linearGradient>
    </defs>
</svg>
