<svg width="218" height="69" viewBox="0 0 218 69" fill="none" xmlns="http://www.w3.org/2000/svg">
    <g clip-path="url(#clip0_8239_55926)">
        <path fill-rule="evenodd" clip-rule="evenodd" d="M28.993 1.78393C27.7063 3.07479 26.4201 4.36545 25.1334 5.65637C22.7628 8.03558 22.7628 11.9286 25.1334 14.3077C26.4201 15.5987 27.7063 16.8892 28.993 18.1803C31.364 20.5589 35.2439 20.5589 37.615 18.1803C39.4224 17.1658 40.6476 15.8432 41.4743 14.3077C43.845 11.9286 43.845 8.03558 41.4743 5.65637C40.1876 4.36545 38.9016 3.07479 37.615 1.78393C35.2439 -0.594644 31.3639 -0.594644 28.993 1.78393Z" fill="url(#paint0_linear_8239_55926)" />
        <path fill-rule="evenodd" clip-rule="evenodd" d="M37.6148 66.7877C38.9015 65.4969 40.1877 64.2064 41.4744 62.9152C43.8449 60.5364 43.8449 56.6431 41.4744 54.2642C40.1877 52.973 38.9015 51.6826 37.6148 50.3917C35.2438 48.0129 31.3639 48.0129 28.9929 50.3917C27.1855 51.406 25.9604 52.7288 25.1335 54.2642C22.7628 56.6431 22.7628 60.5364 25.1335 62.9152C26.4201 64.2064 27.7064 65.4969 28.9929 66.7877C31.3639 69.1665 35.2438 69.1665 37.6148 66.7877Z" fill="url(#paint1_linear_8239_55926)" />
        <path fill-rule="evenodd" clip-rule="evenodd" d="M42.6353 6.94327L64.0319 28.0892C64.0598 28.1158 64.0883 28.1436 64.1146 28.1717C66.973 31.0484 67.3753 35.4514 65.3252 38.7592C64.333 40.36 62.9904 41.6813 61.4674 42.7922C53.5583 48.564 43.9431 51.0138 34.5868 50.1359C33.9411 50.0756 33.5004 50.0097 32.8196 50.0316C30.6529 50.1009 28.5058 50.9399 26.8611 52.5655C23.6447 55.744 23.4497 60.8225 26.2756 64.2319L23.512 61.4903C15.8909 53.7142 15.5734 42.4466 20.9733 34.4945L28.811 42.2403C31.1622 44.5639 35.0119 44.5648 37.3641 42.2403L39.4035 40.2245L41.2429 38.4066L42.0547 37.6045C43.1987 36.4744 44.2161 35.2514 45.0591 33.9616C45.0768 33.9343 45.0949 33.9065 45.113 33.8792C45.1497 33.7864 45.2039 33.7004 45.2611 33.6019C50.084 25.2801 48.7735 13.9724 42.7252 7.042C42.6958 7.00834 42.6665 6.97587 42.6353 6.94327Z" fill="url(#paint2_linear_8239_55926)" />
        <path fill-rule="evenodd" clip-rule="evenodd" d="M23.6427 61.6287L2.54675 40.5068C2.51927 40.4801 2.4911 40.4527 2.46511 40.4245C-0.358151 37.5458 -0.755736 33.1397 1.26931 29.8299C2.24928 28.2279 3.57535 26.9058 5.07963 25.7944C12.892 20.0185 22.389 17.5671 31.6303 18.4456C32.2681 18.506 32.7036 18.5717 33.3757 18.55C35.5158 18.4806 37.6366 17.6409 39.2611 16.0143C42.4381 12.8337 42.6306 7.75164 39.8395 4.34006L42.5313 7.04529L42.6046 7.12374C49.1782 14.2582 50.2023 24.6737 45.6761 32.8294C45.5857 32.9924 45.4929 33.1559 45.3973 33.3174L45.3613 33.3781C45.2399 33.5802 45.1192 33.7789 44.9917 33.9786L44.9785 33.9992L37.3353 26.3465C35.012 24.0208 31.2104 24.0208 28.8873 26.3465L26.8729 28.3631L25.0559 30.1826L24.2356 31.0036C15.8467 39.4033 15.6991 52.789 23.5566 61.5326L23.6427 61.6287Z" fill="url(#paint3_linear_8239_55926)" />
    </g>
    <path d="M92.5865 51.5904V26.3494H82.1836V17.3488H113.681V26.3494H102.989V51.5904H92.5865Z" fill="white" />
    <path d="M126.264 52.0796C123.471 52.0796 120.982 51.4926 118.799 50.3186C116.616 49.1446 114.898 47.5466 113.646 45.5247C112.393 43.4702 111.767 41.1222 111.767 38.4808C111.767 35.8393 112.393 33.5076 113.646 31.4857C114.898 29.4312 116.616 27.8169 118.799 26.6429C120.982 25.4689 123.471 24.8819 126.264 24.8819C129.057 24.8819 131.53 25.4689 133.681 26.6429C135.864 27.8169 137.566 29.4312 138.786 31.4857C140.038 33.5076 140.664 35.8393 140.664 38.4808C140.664 41.1222 140.038 43.4702 138.786 45.5247C137.566 47.5466 135.864 49.1446 133.681 50.3186C131.53 51.4926 129.057 52.0796 126.264 52.0796ZM126.264 43.7637C127.131 43.7637 127.902 43.5355 128.576 43.0789C129.282 42.6224 129.828 42.0027 130.213 41.2201C130.599 40.4048 130.791 39.4917 130.791 38.4808C130.791 37.4372 130.599 36.5241 130.213 35.7414C129.828 34.9261 129.282 34.2902 128.576 33.8337C127.902 33.3771 127.131 33.1488 126.264 33.1488C125.365 33.1488 124.562 33.3771 123.856 33.8337C123.182 34.2902 122.636 34.9261 122.218 35.7414C121.833 36.5241 121.641 37.4372 121.641 38.4808C121.641 39.4917 121.833 40.4048 122.218 41.2201C122.636 42.0027 123.182 42.6224 123.856 43.0789C124.562 43.5355 125.365 43.7637 126.264 43.7637Z" fill="white" />
    <path d="M145.488 51.5904V25.42H154.543L155.024 30.703L152.953 31.29C153.306 30.0508 153.933 28.9583 154.832 28.0126C155.763 27.0343 156.87 26.2679 158.155 25.7135C159.439 25.1591 160.804 24.8819 162.248 24.8819C164.175 24.8819 165.812 25.2896 167.161 26.1048C168.509 26.9201 169.521 28.1267 170.195 29.7247C170.902 31.29 171.255 33.1978 171.255 35.4479V51.5904H161.478V36.2795C161.478 35.5621 161.365 34.9588 161.141 34.4696C160.916 33.9804 160.579 33.6054 160.129 33.3445C159.68 33.0836 159.15 32.9532 158.54 32.9532C158.058 32.9532 157.609 33.0347 157.191 33.1978C156.806 33.3282 156.469 33.5402 156.18 33.8337C155.891 34.1272 155.666 34.4533 155.506 34.812C155.345 35.1707 155.265 35.5784 155.265 36.0349V51.5904H150.401C149.181 51.5904 148.153 51.5904 147.318 51.5904C146.516 51.5904 145.906 51.5904 145.488 51.5904Z" fill="white" />
    <path d="M177.662 51.5904V25.42H187.439V51.5904H177.662ZM182.575 20.6751C180.841 20.6751 179.476 20.2675 178.481 19.4522C177.518 18.6369 177.036 17.4792 177.036 15.9791C177.036 14.6094 177.534 13.4844 178.529 12.6039C179.524 11.7234 180.873 11.2831 182.575 11.2831C184.308 11.2831 185.657 11.6908 186.62 12.506C187.616 13.3213 188.113 14.479 188.113 15.9791C188.113 17.3488 187.616 18.4739 186.62 19.3544C185.625 20.2349 184.276 20.6751 182.575 20.6751Z" fill="white" />
    <path d="M205.962 52.0796C203.362 52.0796 201.034 51.4926 198.979 50.3186C196.956 49.1446 195.351 47.5466 194.163 45.5247C193.007 43.4702 192.429 41.1222 192.429 38.4808C192.429 35.8393 193.007 33.5076 194.163 31.4857C195.351 29.4312 196.956 27.8169 198.979 26.6429C201.034 25.4689 203.362 24.8819 205.962 24.8819C208.274 24.8819 210.409 25.2407 212.368 25.9581C214.327 26.6755 215.916 27.7191 217.136 29.0888L211.838 35.4479C211.485 35.0566 211.068 34.6979 210.586 34.3718C210.104 34.0456 209.559 33.8011 208.948 33.638C208.338 33.4423 207.632 33.3445 206.829 33.3445C205.866 33.3445 205.015 33.5565 204.277 33.9804C203.57 34.4044 203.025 35.0077 202.639 35.7903C202.254 36.5404 202.061 37.4209 202.061 38.4318C202.061 39.4102 202.238 40.2907 202.591 41.0733C202.976 41.8234 203.522 42.4267 204.229 42.8832C204.967 43.3398 205.834 43.5681 206.829 43.5681C207.632 43.5681 208.338 43.4866 208.948 43.3235C209.559 43.1604 210.104 42.9322 210.586 42.6387C211.068 42.3126 211.485 41.9375 211.838 41.5136L217.088 47.9217C215.9 49.2587 214.327 50.286 212.368 51.0034C210.409 51.7209 208.274 52.0796 205.962 52.0796Z" fill="white" />
    <path d="M92.5865 51.5904V26.3494H82.1836V17.3488H113.681V26.3494H102.989V51.5904H92.5865Z" fill="white" />
    <path d="M126.264 52.0796C123.471 52.0796 120.982 51.4926 118.799 50.3186C116.616 49.1446 114.898 47.5466 113.646 45.5247C112.393 43.4702 111.767 41.1222 111.767 38.4808C111.767 35.8393 112.393 33.5076 113.646 31.4857C114.898 29.4312 116.616 27.8169 118.799 26.6429C120.982 25.4689 123.471 24.8819 126.264 24.8819C129.057 24.8819 131.53 25.4689 133.681 26.6429C135.864 27.8169 137.566 29.4312 138.786 31.4857C140.038 33.5076 140.664 35.8393 140.664 38.4808C140.664 41.1222 140.038 43.4702 138.786 45.5247C137.566 47.5466 135.864 49.1446 133.681 50.3186C131.53 51.4926 129.057 52.0796 126.264 52.0796ZM126.264 43.7637C127.131 43.7637 127.902 43.5355 128.576 43.0789C129.282 42.6224 129.828 42.0027 130.213 41.2201C130.599 40.4048 130.791 39.4917 130.791 38.4808C130.791 37.4372 130.599 36.5241 130.213 35.7414C129.828 34.9261 129.282 34.2902 128.576 33.8337C127.902 33.3771 127.131 33.1488 126.264 33.1488C125.365 33.1488 124.562 33.3771 123.856 33.8337C123.182 34.2902 122.636 34.9261 122.218 35.7414C121.833 36.5241 121.641 37.4372 121.641 38.4808C121.641 39.4917 121.833 40.4048 122.218 41.2201C122.636 42.0027 123.182 42.6224 123.856 43.0789C124.562 43.5355 125.365 43.7637 126.264 43.7637Z" fill="white" />
    <path d="M145.488 51.5904V25.42H154.543L155.024 30.703L152.953 31.29C153.306 30.0508 153.933 28.9583 154.832 28.0126C155.763 27.0343 156.87 26.2679 158.155 25.7135C159.439 25.1591 160.804 24.8819 162.248 24.8819C164.175 24.8819 165.812 25.2896 167.161 26.1048C168.509 26.9201 169.521 28.1267 170.195 29.7247C170.902 31.29 171.255 33.1978 171.255 35.4479V51.5904H161.478V36.2795C161.478 35.5621 161.365 34.9588 161.141 34.4696C160.916 33.9804 160.579 33.6054 160.129 33.3445C159.68 33.0836 159.15 32.9532 158.54 32.9532C158.058 32.9532 157.609 33.0347 157.191 33.1978C156.806 33.3282 156.469 33.5402 156.18 33.8337C155.891 34.1272 155.666 34.4533 155.506 34.812C155.345 35.1707 155.265 35.5784 155.265 36.0349V51.5904H150.401C149.181 51.5904 148.153 51.5904 147.318 51.5904C146.516 51.5904 145.906 51.5904 145.488 51.5904Z" fill="white" />
    <path d="M177.662 51.5904V25.42H187.439V51.5904H177.662ZM182.575 20.6751C180.841 20.6751 179.476 20.2675 178.481 19.4522C177.518 18.6369 177.036 17.4792 177.036 15.9791C177.036 14.6094 177.534 13.4844 178.529 12.6039C179.524 11.7234 180.873 11.2831 182.575 11.2831C184.308 11.2831 185.657 11.6908 186.62 12.506C187.616 13.3213 188.113 14.479 188.113 15.9791C188.113 17.3488 187.616 18.4739 186.62 19.3544C185.625 20.2349 184.276 20.6751 182.575 20.6751Z" fill="white" />
    <path d="M205.962 52.0796C203.362 52.0796 201.034 51.4926 198.979 50.3186C196.956 49.1446 195.351 47.5466 194.163 45.5247C193.007 43.4702 192.429 41.1222 192.429 38.4808C192.429 35.8393 193.007 33.5076 194.163 31.4857C195.351 29.4312 196.956 27.8169 198.979 26.6429C201.034 25.4689 203.362 24.8819 205.962 24.8819C208.274 24.8819 210.409 25.2407 212.368 25.9581C214.327 26.6755 215.916 27.7191 217.136 29.0888L211.838 35.4479C211.485 35.0566 211.068 34.6979 210.586 34.3718C210.104 34.0456 209.559 33.8011 208.948 33.638C208.338 33.4423 207.632 33.3445 206.829 33.3445C205.866 33.3445 205.015 33.5565 204.277 33.9804C203.57 34.4044 203.025 35.0077 202.639 35.7903C202.254 36.5404 202.061 37.4209 202.061 38.4318C202.061 39.4102 202.238 40.2907 202.591 41.0733C202.976 41.8234 203.522 42.4267 204.229 42.8832C204.967 43.3398 205.834 43.5681 206.829 43.5681C207.632 43.5681 208.338 43.4866 208.948 43.3235C209.559 43.1604 210.104 42.9322 210.586 42.6387C211.068 42.3126 211.485 41.9375 211.838 41.5136L217.088 47.9217C215.9 49.2587 214.327 50.286 212.368 51.0034C210.409 51.7209 208.274 52.0796 205.962 52.0796Z" fill="white" />
    <defs>
        <linearGradient id="paint0_linear_8239_55926" x1="36.8451" y1="19.7977" x2="30.0113" y2="0.983054" gradientUnits="userSpaceOnUse">
            <stop stop-color="#52585E" />
            <stop offset="1" stop-color="white" />
        </linearGradient>
        <linearGradient id="paint1_linear_8239_55926" x1="36.6132" y1="67.7624" x2="29.955" y2="49.4314" gradientUnits="userSpaceOnUse">
            <stop stop-color="white" />
            <stop offset="1" stop-color="#52585E" />
        </linearGradient>
        <linearGradient id="paint2_linear_8239_55926" x1="1.00387" y1="41.7146" x2="65.3858" y2="29.6402" gradientUnits="userSpaceOnUse">
            <stop stop-color="#52585E" />
            <stop offset="1" stop-color="white" />
        </linearGradient>
        <linearGradient id="paint3_linear_8239_55926" x1="1.05524" y1="38.6784" x2="64.6512" y2="26.9056" gradientUnits="userSpaceOnUse">
            <stop stop-color="white" />
            <stop offset="1" stop-color="#52585E" />
        </linearGradient>
        <clipPath id="clip0_8239_55926">
            <rect width="66.6111" height="68.5728" fill="white" />
        </clipPath>
    </defs>
</svg>
