<svg width="40" height="40" fill="none" xmlns="http://www.w3.org/2000/svg"><path d="M40 20c0 11.046-8.954 20-20 20S0 31.046 0 20 8.954 0 20 0s20 8.954 20 20Z" fill="#F3EBEA"/><path fill-rule="evenodd" clip-rule="evenodd" d="M11.018 9.017a2.33 2.33 0 0 0-1.477.825c-.288.345-.475.781-.53 1.239-.008.063-.011 2.956-.011 8.924 0 7.537.002 8.848.016 8.947a2.352 2.352 0 0 0 2.03 2.032c.136.018.429.02.561.005.52-.063.988-.285 1.362-.645.16-.153.243-.26.522-.676.136-.203 1.193-1.774 2.35-3.49a404.816 404.816 0 0 0 2.135-3.189.595.595 0 0 0 .045-.137c.035-.2-.085-.416-.287-.516-.08-.04-.085-.04-.205-.04-.122 0-.123 0-.207.044-.071.037-.435.348-2.364 2.019a288.53 288.53 0 0 1-2.313 1.992.174.174 0 0 1-.215-.055l-.026-.036V13.846l.023-.03c.057-.078.167-.103.237-.056.02.014 1.791 2.126 3.935 4.693 5.69 6.814 6.954 8.33 8.46 10.136.746.893 1.401 1.67 1.456 1.727.303.309.665.515 1.09.619.23.056.34.065.794.065.439 0 .552-.008.752-.05a2.347 2.347 0 0 0 1.837-2.033c.016-.151.016-17.683 0-17.834a2.36 2.36 0 0 0-1.583-1.963A2.223 2.223 0 0 0 28.65 9c-.53 0-1.018.16-1.432.472a2.8 2.8 0 0 0-.415.402c-.112.14-4.793 7.1-4.823 7.174-.098.232.025.506.28.625a.357.357 0 0 0 .16.035.419.419 0 0 0 .27-.067c.031-.02 1.077-.925 2.325-2.013a201.332 201.332 0 0 1 2.315-2.002c.088-.047.184-.013.227.08.02.044.02.233.02 6.228v6.183l-.024.05c-.043.084-.157.123-.236.079a.822.822 0 0 1-.127-.13l-1.825-2.185c-.953-1.142-4-4.794-6.774-8.115a1476.554 1476.554 0 0 0-5.141-6.143 2.24 2.24 0 0 0-1.33-.657 9.167 9.167 0 0 0-1.103 0Z" fill="#000"/></svg>