<svg width="49" height="48" viewBox="0 0 49 48" fill="none" xmlns="http://www.w3.org/2000/svg">
<path d="M24.5 44C21.7333 44 19.1333 43.4747 16.7 42.424C14.2667 41.3733 12.15 39.9487 10.35 38.15C8.55 36.35 7.12533 34.2333 6.076 31.8C5.02667 29.3667 4.50133 26.7667 4.5 24C4.5 21.2333 5.02533 18.6333 6.076 16.2C7.12667 13.7667 8.55133 11.65 10.35 9.85C12.15 8.05 14.2667 6.62533 16.7 5.576C19.1333 4.52667 21.7333 4.00133 24.5 4C27.2667 4 29.8667 4.52533 32.3 5.576C34.7333 6.62667 36.85 8.05133 38.65 9.85C40.45 11.65 41.8753 13.7667 42.926 16.2C43.9767 18.6333 44.5013 21.2333 44.5 24C44.5 26.7667 43.9747 29.3667 42.924 31.8C41.8733 34.2333 40.4487 36.35 38.65 38.15C36.85 39.95 34.7333 41.3753 32.3 42.426C29.8667 43.4767 27.2667 44.0013 24.5 44ZM24.5 40C28.9667 40 32.75 38.45 35.85 35.35C38.95 32.25 40.5 28.4667 40.5 24C40.5 19.5333 38.95 15.75 35.85 12.65C32.75 9.55 28.9667 8 24.5 8C20.0333 8 16.25 9.55 13.15 12.65C10.05 15.75 8.5 19.5333 8.5 24C8.5 28.4667 10.05 32.25 13.15 35.35C16.25 38.45 20.0333 40 24.5 40Z" fill="#FDBF1C"/>
<path fill-rule="evenodd" clip-rule="evenodd" d="M23.3968 15.4656C22.2922 15.4656 21.3968 16.3611 21.3968 17.4656V20.8966H17.9658C16.8613 20.8966 15.9658 21.792 15.9658 22.8966L15.9658 25.1034C15.9658 26.208 16.8613 27.1034 17.9658 27.1034H21.3968V30.5344C21.3968 31.6389 22.2922 32.5344 23.3968 32.5344H25.6036C26.7082 32.5344 27.6036 31.6389 27.6036 30.5344V27.1034H31.0345C32.1391 27.1034 33.0345 26.208 33.0345 25.1034V22.8966C33.0345 21.792 32.1391 20.8966 31.0345 20.8966H27.6036V17.4656C27.6036 16.3611 26.7082 15.4656 25.6036 15.4656H23.3968Z" fill="#FDBF1C"/>
</svg>
