<svg width="41" height="40" viewBox="0 0 41 40" fill="none" xmlns="http://www.w3.org/2000/svg">
<path d="M20.5 28L28.5 20L20.5 12L17.7 14.8L20.9 18H12.5V22H20.9L17.7 25.2L20.5 28ZM20.5 40C17.7333 40 15.1333 39.4747 12.7 38.424C10.2667 37.3733 8.15 35.9487 6.35 34.15C4.55 32.35 3.12533 30.2333 2.076 27.8C1.02667 25.3667 0.501333 22.7667 0.5 20C0.5 17.2333 1.02533 14.6333 2.076 12.2C3.12667 9.76667 4.55133 7.65 6.35 5.85C8.15 4.05 10.2667 2.62533 12.7 1.576C15.1333 0.526667 17.7333 0.00133333 20.5 0C23.2667 0 25.8667 0.525334 28.3 1.576C30.7333 2.62667 32.85 4.05133 34.65 5.85C36.45 7.65 37.8753 9.76667 38.926 12.2C39.9767 14.6333 40.5013 17.2333 40.5 20C40.5 22.7667 39.9747 25.3667 38.924 27.8C37.8733 30.2333 36.4487 32.35 34.65 34.15C32.85 35.95 30.7333 37.3753 28.3 38.426C25.8667 39.4767 23.2667 40.0013 20.5 40ZM20.5 36C24.9667 36 28.75 34.45 31.85 31.35C34.95 28.25 36.5 24.4667 36.5 20C36.5 15.5333 34.95 11.75 31.85 8.65C28.75 5.55 24.9667 4 20.5 4C16.0333 4 12.25 5.55 9.15 8.65C6.05 11.75 4.5 15.5333 4.5 20C4.5 24.4667 6.05 28.25 9.15 31.35C12.25 34.45 16.0333 36 20.5 36Z" fill="#FDBF1C"/>
</svg>
