<svg width="24" height="24" viewBox="0 0 24 24" fill="none" xmlns="http://www.w3.org/2000/svg">
<path fill-rule="evenodd" clip-rule="evenodd" d="M12 20.5C16.6944 20.5 20.5 16.6944 20.5 12C20.5 7.30558 16.6944 3.5 12 3.5C7.30558 3.5 3.5 7.30558 3.5 12C3.5 16.6944 7.30558 20.5 12 20.5ZM2 12C2 14.8887 3.22486 17.4914 5.18354 19.3169C7.00905 21.2753 9.61152 22.5 12.5 22.5C18.0229 22.5 22.3654 18.0212 22.5 12.5C22.6414 6.70272 17.7973 1.85859 12 2C6.47879 2.13467 2 6.47715 2 12ZM15.7086 15.7086C15.32 16.0971 14.6898 16.0971 14.3009 15.7086L13.1504 14.5581L12 13.4077L9.69911 15.7086C9.31057 16.0971 8.68034 16.0971 8.29141 15.7086C7.90286 15.32 7.90286 14.6898 8.29141 14.3009L10.5923 12L8.29141 9.69911C7.90286 9.31057 7.90286 8.68034 8.29141 8.29141C8.67996 7.90286 9.31018 7.90286 9.69911 8.29141L12 10.5923L14.3009 8.29141C14.6894 7.90286 15.3197 7.90286 15.7086 8.29141C16.0971 8.67995 16.0971 9.31018 15.7086 9.69911L13.4077 12L15.7086 14.3009C16.0971 14.6894 16.0971 15.3197 15.7086 15.7086Z" fill="#2C3034"/>
</svg>
