<svg width="240" height="240" viewBox="0 0 240 240" fill="none" xmlns="http://www.w3.org/2000/svg">
<g filter="url(#filter0_d_35_1095)">
<rect width="232" height="232" rx="16" fill="#EBDEDC" shape-rendering="crispEdges"/>
<path fill-rule="evenodd" clip-rule="evenodd" d="M16.0152 40.1451V64.2903H40.1604H64.3055V40.1451V16H40.1604H16.0152V40.1451ZM71.1903 22.8892L71.2604 29.7785L74.6066 29.852L77.9528 29.9254V33.3294V36.7333H74.541H71.1291V40.1451V43.557H74.6722H78.2152V40.1451V36.7333H81.627H85.0388V40.1451V43.557H88.4506H91.8625V46.9688V50.3806H95.2743H98.6861V46.9688V43.557H109.053H119.419V46.9688V50.3806H129.786H140.153V57.3354V64.2903H136.741H133.329V60.8785V57.4667H129.786H126.243V60.8785V64.2903H122.831H119.419V60.8785V57.4667H116.008H112.596V53.9236V50.3806H109.192H105.787L105.714 53.858L105.641 57.3354L102.164 57.4087L98.6861 57.4819V64.2979V71.1139H95.2743H91.8625V78.0688V85.0236H88.4506H85.0388V91.8396V98.6556L81.5614 98.7289L78.084 98.8021V102.214V105.626L81.5614 105.699L85.0388 105.772V109.176V112.581H81.4958H77.9528V115.992V119.404H81.4958H85.0388V126.364V133.323L78.1496 133.253L71.2604 133.183L71.1871 129.702L71.1139 126.222L60.8205 126.29L50.527 126.359L50.4538 129.836L50.3806 133.314H46.9764H43.5722V129.771V126.228H40.1604H36.7486V122.816V119.404H50.527H64.3055V115.992V112.581H60.8937H57.4819V109.169V105.757H64.3055H71.1291V102.214V98.6709H64.3055H57.4819V95.2591V91.8472H64.3055H71.1291V81.4806V71.1139H74.5333H77.9375L78.0108 74.5913L78.084 78.0688H81.4958H84.9076L84.9808 74.5913L85.0541 71.1139H81.6346H78.2152V64.2903V57.4667H74.6722H71.1291V64.2871V71.1079L60.8281 71.1764L50.527 71.2451V74.657V78.0688L57.4163 78.1388L64.3055 78.2086V81.6163V85.0236H53.9388H43.5722V78.0688V71.1139H36.7486H29.9249V74.5257V77.9375H26.3819H22.8388V74.5257V71.1139H19.4194H16L16.0732 74.5913L16.1464 78.0688L19.4926 78.1423L22.8388 78.2157V81.6197V85.0236H33.2055H43.5722V91.8472V98.6709H40.1604H36.7486V95.2591V91.8472H29.7937H22.8388V95.2591V98.6709H29.7937H36.7486V102.214V105.757H33.3367H29.9249V115.985V126.213L26.4475 126.286L22.9701 126.359L22.8968 129.836L22.8236 133.314H19.4194H16.0152V136.726V140.138H19.427H22.8388V143.549V146.961H19.427H16.0152V153.916V160.871H19.427H22.8388V157.467V154.062L26.3163 153.989L29.7937 153.916L29.8638 147.027L29.9336 140.138H33.3412H36.7486V143.549V146.961H43.5722H50.3958V140.138V133.314H60.7625H71.1291V136.726V140.138H64.3055H57.4819V143.549V146.961H60.8937H64.3055V150.373V153.785H60.8937H57.4819V157.328V160.871H60.8937H64.3055V157.459V154.047H71.1291H77.9528V157.459V160.871H74.5378H71.1231L71.1916 171.172L71.2604 181.473L78.1496 181.543L85.0388 181.613V174.654V167.694H88.4506H91.8625V164.283V160.871H95.2743H98.6861V167.694V174.518H102.237H105.787L105.714 177.996L105.641 181.473L102.164 181.546L98.6861 181.619V185.024V188.428H102.229H105.772V185.016V181.604H116H126.228L126.301 178.127L126.374 174.649L133.264 174.579L140.153 174.509V178.057V181.604H136.741H133.329V185.016V188.428H122.962H112.596V191.84V195.251H109.184H105.772V198.663V202.075H102.229H98.6861V198.663V195.251H95.2743H91.8625V191.84V188.428H88.4506H85.0388V191.84V195.251H88.4506H91.8625V198.663V202.075H88.4506H85.0388V209.03V215.985H88.4506H91.8625V209.03V202.075H95.2743H98.6861V209.03V215.985H102.229H105.772V209.03V202.075H109.184H112.596V205.618V209.161H116.008H119.419V212.573V215.985H122.831H126.243V212.573V209.161H122.831H119.419V205.618V202.075H116.008H112.596V198.663V195.251H119.419H126.243V198.663V202.075H140.022H153.8V205.618V209.161H146.976H140.153V212.573V215.985H157.343H174.533V212.573V209.161H167.71H160.886V202.206V195.251H164.298H167.71V191.84V188.428H171.122H174.533V195.244V202.06L178.011 202.133L181.488 202.206L181.561 205.684L181.635 209.161H185.039H188.443V212.573V215.985H191.855H195.267V209.03V202.075H198.678H202.09V209.03V215.985H205.633H209.176V209.03V202.075H212.588H216V191.84V181.604H205.633H195.267V174.649V167.694H198.678H202.09V171.106V174.518H205.633H209.176V171.106V167.694H212.588H216V164.287V160.88L209.111 160.81L202.222 160.74L202.153 150.439L202.084 140.138H205.63H209.176V129.771V119.404H212.588H216V112.585V105.766L209.111 105.696L202.222 105.626L202.148 102.148L202.075 98.6709H195.259H188.443V102.214V105.757H191.855H195.267V112.581V119.404H198.678H202.09V126.359V133.314H198.678H195.267V129.771V126.228H191.855H188.443V119.404V112.581H181.488H174.533V109.176V105.772L178.011 105.699L181.488 105.626L181.557 95.3247L181.625 85.0236H185.034H188.443V81.6118V78.2H191.855H195.267V74.657V71.1139H191.855H188.443V74.5257V77.9375H181.488H174.533V74.5257V71.1139H171.122H167.71V74.5257V77.9375H164.298H160.886V67.7021V57.4667H157.474H154.062V50.5118V43.557H157.474H160.886V40.1451V36.7333H157.474H154.062V33.3215V29.9097H157.474H160.886V22.9549V16H140.153H119.419V19.4118V22.8236H122.831H126.243V26.3667V29.9097H116.008H105.772V26.3667V22.8236H109.184H112.596V19.4118V16H109.184H105.772V19.4042V22.8084L102.295 22.8816L98.8173 22.9549L98.7441 26.4323L98.6709 29.9097H95.2667H91.8625V26.3667V22.8236H88.4506H85.0388V19.4118V16H78.0795H71.1205L71.1903 22.8892ZM167.71 40.1451V64.2903H191.855H216V40.1451V16H191.855H167.71V40.1451ZM57.4181 40.2126L57.4856 57.4703L40.2278 57.4029L22.9701 57.3354L22.9021 40.4076C22.8646 31.0973 22.8908 23.3312 22.9601 23.1498C23.0601 22.8885 26.6522 22.8339 40.2184 22.8874L57.3507 22.9549L57.4181 40.2126ZM84.9076 26.3667V29.7785L81.5614 29.852L78.2152 29.9254V26.3667V22.8079L81.5614 22.8814L84.9076 22.9549V26.3667ZM153.8 26.3745V29.9254L150.454 29.852L147.108 29.7785L147.033 26.6443C146.992 24.9206 147.018 23.3559 147.091 23.1669C147.189 22.9094 148.044 22.8236 150.511 22.8236H153.8V26.3745ZM209.045 40.1451V57.3354L191.789 57.4029L174.533 57.4703V40.322C174.533 30.8905 174.613 23.0939 174.71 22.9966C174.807 22.8995 182.573 22.8501 191.966 22.8874L209.045 22.9549V40.1451ZM29.9249 40.1451V50.3806H40.1604H50.3958V40.1451V29.9097H40.1604H29.9249V40.1451ZM105.772 33.3215V36.7333H102.229H98.6861V40.1451V43.557H95.2743H91.8625V40.1451V36.7333H95.2743H98.6861V33.3215V29.9097H102.229H105.772V33.3215ZM146.976 33.3215V36.7333H150.388H153.8V40.1451V43.557H150.388H146.976V46.9688V50.3806H143.565H140.153V43.557V36.7333H136.741H133.329V33.3215V29.9097H140.153H146.976V33.3215ZM181.619 40.1451V50.3806H191.855H202.09V40.1451V29.9097H191.855H181.619V40.1451ZM85.0388 60.8785V64.2903H88.4506H91.8625V60.8785V57.4667H88.4506H85.0388V60.8785ZM112.596 60.8785V64.2903H116.008H119.419V67.7021V71.1139H112.596H105.772V64.2903V57.4667H109.184H112.596V60.8785ZM153.8 64.2903V71.1139H150.388H146.976V74.5257V77.9375H143.565H140.153V74.5257V71.1139H143.565H146.976V64.2903V57.4667H150.388H153.8V64.2903ZM202.204 71.4572C202.132 71.6462 202.106 73.2109 202.147 74.9346L202.222 78.0688L205.707 78.142L209.192 78.2152L209.119 81.5538L209.045 84.8924L202.156 84.9625L195.267 85.0323V88.4399V91.8472H202.222H209.176V95.2591V98.6709H212.588H216V95.2591V91.8472H212.588H209.176V88.4354V85.0236H212.588H216V78.0688V71.1139H209.168C203.783 71.1139 202.308 71.1866 202.204 71.4572ZM126.243 85.0236V91.8472H129.786H133.329V88.4354V85.0236H136.741H140.153V88.4354V91.8472H143.565H146.976V88.4354V85.0236H153.931H160.886V88.4354V91.8472H164.298H167.71V88.4354V85.0236H171.122H174.533V95.3903V105.757H171.122H167.71V109.169V112.581H171.122H174.533V115.992V119.404H178.081H181.628L181.558 126.293L181.488 133.183L178.011 133.256L174.533 133.329V136.733V140.138H167.71H160.886V146.961V153.785H153.931H146.976V150.373V146.961H143.565H140.153V140.138V133.314H136.741H133.329V136.726V140.138H129.782H126.234L126.304 133.248L126.374 126.359L129.852 126.286L133.329 126.213V122.808V119.404H136.741H140.153V109.038V98.6709H136.741H133.329V105.626V112.581H129.786H126.243V119.404V126.228H122.831H119.419V129.771V133.314H116.008H112.596V136.726V140.138H116.008H119.419V143.545V146.952L126.309 147.022L133.198 147.092L133.271 150.439L133.345 153.785H126.382H119.419V150.373V146.961H116.008H112.596V150.504V154.047H116.008H119.419V157.459V160.871H122.831H126.243V167.694V174.518H122.831H119.419V167.694V160.871H112.596H105.772V153.916V146.961H102.229H98.6861V140.138V133.314H95.2743H91.8625V136.726V140.138H88.4506H85.0388V143.549V146.961H88.4506H91.8625V150.373V153.785H88.4506H85.0388V150.373V146.961H81.627H78.2152V143.549V140.138H81.627H85.0388V136.726V133.314H88.4506H91.8625V126.359V119.404H88.4506H85.0388V115.992V112.581H88.4506H91.8625V115.992V119.404H102.229H112.596V115.992V112.581H105.641H98.6861V109.169V105.757H91.8625H85.0388V102.214V98.6709H91.8625H98.6861V95.2591V91.8472H102.229H105.772V95.2591V98.6709H109.184H112.596V95.2591V91.8472H116.008H119.419V88.4354V85.0236H112.596H105.772V81.6118V78.2H116.008H126.243V85.0236ZM119.419 95.2591V98.6709H116.008H112.596V105.626V112.581H119.419H126.243V109.169V105.757H122.831H119.419V102.214V98.6709H122.831H126.243V95.2591V91.8472H122.831H119.419V95.2591ZM146.976 95.2591V98.6709H150.519H154.062V95.2591V91.8472H150.519H146.976V95.2591ZM50.3958 102.214V105.757H46.984H43.5722V109.169V112.581H40.1604H36.7486V109.169V105.757H40.1604H43.5722V102.214V98.6709H46.984H50.3958V102.214ZM16.0152 109.169V112.581H19.427H22.8388V109.169V105.757H19.427H16.0152V109.169ZM146.976 115.992V126.228H143.565H140.153V129.771V133.314H153.931H167.71V122.947V112.581H164.298H160.886V115.992V119.404H157.474H154.062V112.581V105.757H150.519H146.976V115.992ZM112.596 122.816V126.228H116.008H119.419V122.816V119.404H116.008H112.596V122.816ZM29.9249 136.726V140.138H26.3819H22.8388V136.726V133.314H26.3819H29.9249V136.726ZM43.5722 136.726V140.138H40.1604H36.7486V136.726V133.314H40.1604H43.5722V136.726ZM188.443 136.726V140.138H191.855H195.267V146.961V153.785H181.488H167.71V150.373V146.961H178.076H188.443V143.549V140.138H185.031H181.619V136.726V133.314H185.031H188.443V136.726ZM105.772 143.549V146.961H109.184H112.596V143.549V140.138H109.184H105.772V143.549ZM36.7486 157.328V160.871H40.1604H43.5722V157.328V153.785H40.1604H36.7486V157.328ZM85.0388 164.283V167.694H81.627H78.2152V164.283V160.871H81.627H85.0388V164.283ZM181.557 171.172L181.488 181.473L171.187 181.542L160.886 181.61V171.241V160.871H171.256H181.625L181.557 171.172ZM16.0152 191.84V215.985H40.1604H64.3055V191.84V167.694H40.1604H16.0152V191.84ZM112.596 171.106V174.518H109.184H105.772V171.106V167.694H109.184H112.596V171.106ZM167.71 171.106V174.518H171.122H174.533V171.106V167.694H171.122H167.71V171.106ZM57.4181 191.774L57.3507 209.03H40.1604H22.9701L22.9021 192.102C22.8646 182.792 22.8906 175.027 22.9593 174.846C23.058 174.588 26.7666 174.518 40.2853 174.518H57.4856L57.4181 191.774ZM153.8 184.885V195.251H143.565H133.329V191.84V188.428H140.153H146.976V181.473V174.518H150.388H153.8V184.885ZM29.9249 191.84V202.075H40.1604H50.3958V191.84V181.604H40.1604H29.9249V191.84ZM195.267 185.016V188.428H202.222H209.176V195.251V202.075H205.633H202.09V198.663V195.251H198.678H195.267V198.663V202.075H188.443H181.619V198.663V195.251H188.443H195.267V191.84V188.428H191.855H188.443V185.016V181.604H191.855H195.267V185.016ZM71.1291 195.251V202.075H74.6722H78.2152V195.251V188.428H74.6722H71.1291V195.251ZM71.1291 212.581V216L74.6066 215.927L78.084 215.854L78.1575 212.507L78.231 209.161H74.68H71.1291V212.581Z" fill="#2C3034"/>
<rect x="0.5" y="0.5" width="231" height="231" rx="15.5" stroke="#2C3034" shape-rendering="crispEdges"/>
</g>
<defs>
<filter id="filter0_d_35_1095" x="0" y="0" width="240" height="240" filterUnits="userSpaceOnUse" color-interpolation-filters="sRGB">
<feFlood flood-opacity="0" result="BackgroundImageFix"/>
<feColorMatrix in="SourceAlpha" type="matrix" values="0 0 0 0 0 0 0 0 0 0 0 0 0 0 0 0 0 0 127 0" result="hardAlpha"/>
<feOffset dx="8" dy="8"/>
<feComposite in2="hardAlpha" operator="out"/>
<feColorMatrix type="matrix" values="0 0 0 0 0.172549 0 0 0 0 0.188235 0 0 0 0 0.203922 0 0 0 1 0"/>
<feBlend mode="normal" in2="BackgroundImageFix" result="effect1_dropShadow_35_1095"/>
<feBlend mode="normal" in="SourceGraphic" in2="effect1_dropShadow_35_1095" result="shape"/>
</filter>
</defs>
</svg>
