<svg width="796" height="1194" viewBox="0 0 796 1194" fill="none" xmlns="http://www.w3.org/2000/svg">
<rect x="2.14771" y="-12.7705" width="113.756" height="109.615" stroke="white" stroke-width="2"/>
<rect x="454.978" y="-12.7703" width="113.756" height="109.615" stroke="white" stroke-width="2"/>
<rect x="228.923" y="-12.7699" width="113.022" height="109.615" stroke="white" stroke-width="2"/>
<rect x="681.748" y="-12.7696" width="113.022" height="109.615" stroke="white" stroke-width="2"/>
<rect x="115.901" y="-12.7696" width="113.022" height="109.615" stroke="white" stroke-width="2"/>
<rect x="568.726" y="-12.7694" width="113.022" height="109.615" stroke="white" stroke-width="2"/>
<rect x="341.945" y="-12.7701" width="113.022" height="109.615" stroke="white" stroke-width="2"/>
<rect x="2.14771" y="96.8448" width="113.756" height="109.615" stroke="white" stroke-width="2"/>
<rect x="454.978" y="96.845" width="113.756" height="109.615" stroke="white" stroke-width="2"/>
<rect x="228.923" y="96.8454" width="113.022" height="109.615" stroke="white" stroke-width="2"/>
<rect x="681.748" y="96.8456" width="113.022" height="109.615" stroke="white" stroke-width="2"/>
<rect x="115.901" y="96.8456" width="113.022" height="109.615" stroke="white" stroke-width="2"/>
<rect x="568.726" y="96.8458" width="113.022" height="109.615" stroke="white" stroke-width="2"/>
<rect x="341.945" y="96.8452" width="113.022" height="109.615" stroke="white" stroke-width="2"/>
<rect x="2.14771" y="206.459" width="113.756" height="109.615" stroke="white" stroke-width="2"/>
<rect x="454.978" y="206.459" width="113.756" height="109.615" stroke="white" stroke-width="2"/>
<rect x="228.923" y="206.46" width="113.022" height="109.615" stroke="white" stroke-width="2"/>
<rect x="681.748" y="206.46" width="113.022" height="109.615" stroke="white" stroke-width="2"/>
<rect x="115.901" y="206.46" width="113.022" height="109.615" stroke="white" stroke-width="2"/>
<rect x="568.726" y="206.46" width="113.022" height="109.615" stroke="white" stroke-width="2"/>
<rect x="341.945" y="206.46" width="113.022" height="109.615" stroke="white" stroke-width="2"/>
<rect x="2.15942" y="316.075" width="113.756" height="109.615" stroke="white" stroke-width="2"/>
<rect x="454.99" y="316.076" width="113.756" height="109.615" stroke="white" stroke-width="2"/>
<rect x="228.935" y="316.076" width="113.022" height="109.615" stroke="white" stroke-width="2"/>
<rect x="681.76" y="316.076" width="113.022" height="109.615" stroke="white" stroke-width="2"/>
<rect x="115.913" y="316.076" width="113.022" height="109.615" stroke="white" stroke-width="2"/>
<rect x="568.738" y="316.077" width="113.022" height="109.615" stroke="white" stroke-width="2"/>
<rect x="341.957" y="316.076" width="113.022" height="109.615" stroke="white" stroke-width="2"/>
<rect x="2.14771" y="425.69" width="113.756" height="109.615" stroke="white" stroke-width="2"/>
<rect x="454.978" y="425.69" width="113.756" height="109.615" stroke="white" stroke-width="2"/>
<rect x="228.923" y="425.69" width="113.022" height="109.615" stroke="white" stroke-width="2"/>
<rect x="681.748" y="425.691" width="113.022" height="109.615" stroke="white" stroke-width="2"/>
<rect x="115.901" y="425.691" width="113.022" height="109.615" stroke="white" stroke-width="2"/>
<rect x="568.726" y="425.691" width="113.022" height="109.615" stroke="white" stroke-width="2"/>
<rect x="341.945" y="425.69" width="113.022" height="109.615" stroke="white" stroke-width="2"/>
<rect x="2.14771" y="535.305" width="113.756" height="109.615" stroke="white" stroke-width="2"/>
<rect x="454.978" y="535.305" width="113.756" height="109.615" stroke="white" stroke-width="2"/>
<rect x="228.923" y="535.306" width="113.022" height="109.615" stroke="white" stroke-width="2"/>
<rect x="681.748" y="535.306" width="113.022" height="109.615" stroke="white" stroke-width="2"/>
<rect x="115.901" y="535.306" width="113.022" height="109.615" stroke="white" stroke-width="2"/>
<rect x="568.726" y="535.306" width="113.022" height="109.615" stroke="white" stroke-width="2"/>
<rect x="341.945" y="535.305" width="113.022" height="109.615" stroke="white" stroke-width="2"/>
<rect x="2.15942" y="644.921" width="113.756" height="109.615" stroke="white" stroke-width="2"/>
<rect x="454.99" y="644.922" width="113.756" height="109.615" stroke="white" stroke-width="2"/>
<rect x="228.935" y="644.922" width="113.022" height="109.615" stroke="white" stroke-width="2"/>
<rect x="681.76" y="644.922" width="113.022" height="109.615" stroke="white" stroke-width="2"/>
<rect x="115.913" y="644.922" width="113.022" height="109.615" stroke="white" stroke-width="2"/>
<rect x="568.738" y="644.922" width="113.022" height="109.615" stroke="white" stroke-width="2"/>
<rect x="341.957" y="644.922" width="113.022" height="109.615" stroke="white" stroke-width="2"/>
<rect x="2.14771" y="754.536" width="113.756" height="109.615" stroke="white" stroke-width="2"/>
<rect x="454.978" y="754.536" width="113.756" height="109.615" stroke="white" stroke-width="2"/>
<rect x="228.923" y="754.536" width="113.022" height="109.615" stroke="white" stroke-width="2"/>
<rect x="681.748" y="754.536" width="113.022" height="109.615" stroke="white" stroke-width="2"/>
<rect x="115.901" y="754.536" width="113.022" height="109.615" stroke="white" stroke-width="2"/>
<rect x="568.726" y="754.537" width="113.022" height="109.615" stroke="white" stroke-width="2"/>
<rect x="341.945" y="754.536" width="113.022" height="109.615" stroke="white" stroke-width="2"/>
<rect x="1.46436" y="864.41" width="113.915" height="109.477" stroke="white" stroke-width="2"/>
<rect x="454.978" y="864.151" width="113.756" height="109.615" stroke="white" stroke-width="2"/>
<rect x="228.923" y="864.152" width="113.022" height="109.615" stroke="white" stroke-width="2"/>
<rect x="681.748" y="864.152" width="113.022" height="109.615" stroke="white" stroke-width="2"/>
<rect x="568.726" y="864.152" width="113.022" height="109.615" stroke="white" stroke-width="2"/>
<rect x="341.945" y="864.151" width="113.022" height="109.615" stroke="white" stroke-width="2"/>
<rect x="1.46436" y="973.887" width="113.915" height="109.477" stroke="white" stroke-width="2"/>
<rect x="454.978" y="973.766" width="113.756" height="109.615" stroke="white" stroke-width="2"/>
<rect x="228.923" y="973.766" width="113.022" height="109.615" stroke="white" stroke-width="2"/>
<rect x="681.748" y="973.766" width="113.022" height="109.615" stroke="white" stroke-width="2"/>
<rect x="115.901" y="973.766" width="113.022" height="109.615" stroke="white" stroke-width="2"/>
<rect x="568.726" y="973.766" width="113.022" height="109.615" stroke="white" stroke-width="2"/>
<rect x="341.945" y="973.766" width="113.022" height="109.615" stroke="white" stroke-width="2"/>
<rect x="1.4646" y="1083.36" width="113.915" height="109.477" stroke="white" stroke-width="2"/>
<rect x="454.99" y="1083.38" width="113.756" height="109.615" stroke="white" stroke-width="2"/>
<rect x="228.935" y="1083.38" width="113.022" height="109.615" stroke="white" stroke-width="2"/>
<rect x="681.76" y="1083.38" width="113.022" height="109.615" stroke="white" stroke-width="2"/>
<rect x="115.913" y="1083.38" width="113.022" height="109.615" stroke="white" stroke-width="2"/>
<rect x="568.738" y="1083.38" width="113.022" height="109.615" stroke="white" stroke-width="2"/>
<rect x="341.957" y="1083.38" width="113.022" height="109.615" stroke="white" stroke-width="2"/>
</svg>
