<svg width="140" height="140" viewBox="0 0 140 140" fill="none" xmlns="http://www.w3.org/2000/svg">
<path d="M65.9159 80.934L65.9843 80.968L66.0605 80.9634L91.7289 79.404L89.4987 83.4317L63.5435 85.0084L48.165 77.3681L50.4462 73.2483L65.9159 80.934ZM70.7944 63.1156L69.9709 59.2053L72.126 55.1841L75.0677 65.0491L70.7944 63.1156ZM66.7941 71.6508L57.1167 72.3192L49.5848 68.6317L51.8825 64.4856L66.7941 71.6508Z" fill="#2C3034" stroke="#FDBF1C" stroke-width="0.571834"/>
<path d="M92.2312 79.0724L66.0199 80.6627L50.1519 72.8414L67.3348 71.8028L51.7144 64.105L59.3849 57.6151L75.2968 65.4325L72.177 54.4375L87.3817 61.886L92.2312 79.0724Z" fill="#FDBF1C"/>
<path fill-rule="evenodd" clip-rule="evenodd" d="M9.14934 0C4.0963 0 0 4.0963 0 9.14934V24.7579C0 29.811 4.0963 33.9073 9.14934 33.9073H24.5936C29.6466 33.9073 33.7429 29.811 33.7429 24.7579V9.14934C33.7429 4.0963 29.6466 0 24.5936 0H9.14934ZM10.0371 3.17843C6.24728 3.17843 3.17505 6.25065 3.17505 10.0404V23.8661C3.17505 27.6559 6.24728 30.7281 10.0371 30.7281H23.7043C27.4941 30.7281 30.5664 27.6559 30.5664 23.8661V10.0404C30.5664 6.25065 27.4941 3.17843 23.7043 3.17843H10.0371ZM9.65846 14.2433C9.65846 11.7168 11.7066 9.66861 14.2331 9.66861H19.6396C22.1661 9.66861 24.2142 11.7168 24.2142 14.2433V19.6635C24.2142 22.19 22.1661 24.2382 19.6396 24.2382H14.2331C11.7066 24.2382 9.65846 22.19 9.65846 19.6635V14.2433ZM38.7091 4.91075C38.7091 0.620582 38.74 0.361808 39.2802 0.144088C39.4398 0.0797254 45.6987 0.0237062 53.2452 0.019071L66.9211 0.0107273L67.308 0.397829C68.0061 1.09628 67.839 4.54219 67.0933 4.82851C66.9755 4.87367 63.9981 4.91075 60.4769 4.91075C59.9481 4.91075 59.4572 4.9099 59.0015 4.90911C55.0322 4.90223 53.7328 4.89998 53.3168 5.50507C53.1143 5.79951 53.121 6.23778 53.1309 6.88931V6.88968C53.1333 7.04333 53.1358 7.20884 53.1358 7.38712C53.1358 9.60365 53.2136 9.67834 55.5228 9.67834C57.9321 9.67834 58.0329 9.77926 58.0329 12.1899C58.0329 14.5454 58.0684 14.5784 60.6021 14.5784L60.7674 14.5783C61.7307 14.5776 62.2299 14.5772 62.4942 14.8261C62.7784 15.0939 62.7909 15.65 62.8168 16.8042V16.8043L62.821 16.9887L62.8248 17.1557C62.8498 18.2605 62.8622 18.8083 63.1424 19.0799C63.418 19.347 63.9529 19.3467 65.0139 19.346L65.1769 19.346C67.5521 19.346 67.5625 19.3366 67.5625 17.2131C67.5625 14.6141 67.5699 14.6066 70.1883 14.5484C72.4132 14.499 72.4597 14.4498 72.4597 12.1388L72.4597 12.0478C72.4599 10.9589 72.46 10.4077 72.1846 10.1223C71.9024 9.82982 71.3308 9.81659 70.1733 9.78979L70.0789 9.7876C67.6618 9.73132 67.6568 9.72721 67.584 7.75899C67.5783 7.60722 67.5723 7.46351 67.5666 7.32744V7.32723C67.5248 6.32897 67.5002 5.7418 67.7773 5.39691C68.173 4.90427 69.184 4.90593 71.6393 4.90996C71.8737 4.91035 72.1212 4.91075 72.3826 4.91075C72.7141 4.91075 73.0236 4.91005 73.3125 4.90939C75.7822 4.90376 76.7514 4.90155 77.1277 5.37278C77.3707 5.67713 77.3665 6.17898 77.3595 7.00494V7.00502C77.3582 7.15465 77.3568 7.31492 77.3568 7.48658C77.3568 7.67169 77.3543 7.84127 77.3519 7.99663V7.99669C77.3423 8.63533 77.3363 9.03347 77.5264 9.28104C77.8411 9.69089 78.6932 9.68808 80.956 9.68063C81.2886 9.67954 81.6517 9.67834 82.048 9.67834H86.2098L86.5812 9.9979L86.9526 10.3176V12.1284V13.9391L86.5812 14.2588L86.2098 14.5784H82.1321C78.2071 14.5784 78.0412 14.5887 77.7056 14.8529L77.3568 15.1273V21.6135C77.3568 22.248 77.3582 22.8285 77.3594 23.3595L77.3594 23.365C77.3686 27.2324 77.3715 28.4751 76.7978 28.8613C76.5262 29.0442 76.1254 29.0351 75.5348 29.0217H75.5347C75.363 29.0178 75.1751 29.0136 74.9698 29.0136C72.5474 29.0136 72.4597 29.104 72.4597 31.6022C72.4597 33.9045 72.3837 33.969 69.7604 33.8922C69.5999 33.8875 69.4514 33.8851 69.3141 33.8828H69.3138C68.7017 33.8729 68.3116 33.8666 68.0608 33.6766C67.6203 33.343 67.6087 32.4431 67.5767 29.9633L67.5767 29.9583C67.5726 29.6428 67.5682 29.3017 67.5625 28.9331C67.5 24.8594 67.4822 24.6112 67.2394 24.4338C67.0307 24.2812 66.2088 24.246 62.8565 24.246C62.4652 24.246 62.1056 24.2472 61.7753 24.2482C59.4772 24.2558 58.5916 24.2587 58.246 23.8281C58.0294 23.5582 58.0249 23.1179 58.0177 22.4015V22.4013C58.0161 22.2371 58.0143 22.0583 58.0098 21.8638L58.0063 21.712C57.9797 20.5481 57.9666 19.973 57.6724 19.6889C57.385 19.4114 56.8293 19.4116 55.7309 19.4121L55.5844 19.4122L55.4378 19.4121C54.3394 19.4116 53.7837 19.4114 53.4963 19.6889C53.2021 19.973 53.189 20.5481 53.1624 21.712L53.1589 21.8638L53.1562 21.9802C53.13 23.1187 53.1169 23.6853 52.827 23.9672C52.5398 24.2465 51.9809 24.2463 50.8683 24.246L50.7534 24.246C49.2492 24.246 49.0311 24.2166 48.7197 23.9715L48.371 23.6971V14.7609C48.371 13.7755 48.3732 12.8877 48.3753 12.0881V12.0864V12.0863C48.3883 6.9357 48.3921 5.43974 47.7269 5.03003C47.4546 4.86232 47.0702 4.87662 46.5284 4.89677C46.3228 4.90441 46.0945 4.91291 45.841 4.91261C43.6431 4.90996 43.6062 4.94479 43.6062 7.01949C43.6062 9.59253 43.4168 9.81078 41.184 9.81078C41.0652 9.81078 40.9521 9.81129 40.8444 9.81178H40.8443C40.0131 9.81556 39.5046 9.81787 39.1939 9.57114C38.7044 9.18249 38.7055 8.17586 38.7085 5.58355V5.58349C38.7088 5.37016 38.7091 5.14609 38.7091 4.91075ZM86.8864 0.784931L87.2787 0.392532L87.6709 0L91.8567 0.0384057L96.0426 0.0769438L96.2954 0.389618C96.6897 0.876972 96.6857 9.01115 96.291 9.40606C95.9017 9.79568 95.4728 9.82852 91.3418 9.78495L87.5249 9.74456L87.2056 9.37295L86.8864 9.00135V4.89314V0.784931ZM63.1227 14.2532C62.4801 13.6104 62.6752 10.0914 63.3688 9.81171C64.1819 9.48393 66.9019 9.65914 67.308 10.0654C68.0242 10.7822 67.8509 14.0792 67.0785 14.4314C66.3826 14.7485 63.4874 14.6184 63.1227 14.2532ZM96.5483 12.0962C96.5483 10.3327 96.6022 10.1277 97.1439 9.8313C97.7965 9.47413 100.637 9.64404 101.059 10.0654L101.445 10.4525V16.9622V23.4718L101.059 23.8589L100.672 24.246H98.9556L98.7875 24.2459C97.7078 24.2453 97.1672 24.2449 96.8903 24.515C96.6127 24.7858 96.6002 25.3286 96.5754 26.4157L96.5715 26.5846L96.5671 26.7745C96.5414 27.9079 96.5286 28.468 96.2421 28.7446C95.9622 29.0149 95.421 29.0145 94.351 29.0137L94.1678 29.0136L94.0676 29.0136C92.8779 29.0138 92.3077 29.0139 92.0346 28.7291C91.7832 28.4671 91.7833 27.9639 91.7835 26.9976V26.9974L91.7836 26.9092C91.7836 24.326 91.7125 24.246 89.4161 24.246C86.9929 24.246 86.8864 24.1423 86.8864 21.7831C86.8864 19.3873 86.9282 19.346 89.3546 19.346C91.7209 19.346 91.7836 19.2772 91.7836 16.6776V16.636C91.7835 15.6069 91.7835 15.0925 92.0407 14.8354C92.2978 14.5783 92.8119 14.5783 93.84 14.5784L93.8815 14.5784C96.4883 14.5784 96.5483 14.5224 96.5483 12.0962ZM38.7091 15.1914L38.9968 14.8848C39.3113 14.5499 42.5165 14.4108 43.0716 14.708C43.5409 14.9594 43.6062 15.5567 43.6062 19.6012C43.6062 19.9983 43.6048 20.3606 43.6035 20.6909V20.6916V20.6916C43.5953 22.7879 43.5921 23.6009 43.9874 23.9192C44.2377 24.1209 44.648 24.1241 45.3183 24.1293C45.4851 24.1306 45.668 24.132 45.8685 24.1366C48.3706 24.1945 48.371 24.1949 48.371 26.6193V26.6773C48.3711 27.8598 48.3711 28.4438 48.0791 28.7322C47.7942 29.0137 47.2312 29.0137 46.1187 29.0136L46.063 29.0136L45.9166 29.0135C44.7704 29.0131 44.2007 29.0128 43.911 29.2975C43.6246 29.579 43.6118 30.1388 43.5864 31.2519L43.583 31.3958L43.5819 31.4441C43.5529 32.6934 43.539 33.2886 43.2345 33.5809C42.9573 33.8469 42.4394 33.862 41.4503 33.8909H41.4502L41.4083 33.8922C41.1284 33.9003 40.8773 33.9173 40.652 33.9325L40.6517 33.9325H40.6517C40.0559 33.9726 39.6405 34.0006 39.3513 33.823C38.6851 33.4138 38.6895 31.9129 38.704 26.9542V26.9542C38.7064 26.14 38.7091 25.2325 38.7091 24.2214V15.1914ZM48.371 29.5625L48.7197 29.2881C49.0325 29.0419 49.2485 29.0136 50.8144 29.0136L50.9726 29.0135C52.0164 29.0129 52.5488 29.0126 52.8265 29.2784C53.1157 29.5552 53.1287 30.1206 53.1551 31.2748V31.2748L53.1589 31.4425L53.1631 31.6253C53.1876 32.6992 53.1998 33.2386 53.4757 33.5093C53.7541 33.7824 54.3008 33.782 55.399 33.7813L55.5844 33.7812L55.7697 33.7813C56.868 33.782 57.4146 33.7824 57.693 33.5093C57.9689 33.2386 57.9812 32.6992 58.0056 31.6253L58.0098 31.4425L58.0136 31.2748V31.2748C58.0401 30.1206 58.053 29.5552 58.3422 29.2784C58.6199 29.0126 59.1523 29.0129 60.1961 29.0135L60.3543 29.0136C61.9202 29.0136 62.1362 29.0419 62.449 29.2881L62.7977 29.5625V33.8474V38.1323L62.449 38.4067C61.9025 38.8369 49.2662 38.8369 48.7197 38.4067L48.371 38.1323V33.8474V29.5625ZM77.6113 33.5265C76.9406 32.8553 77.0761 29.3873 77.7842 29.1022C78.4264 28.8437 81.4819 29.0236 81.7967 29.3387C82.1723 29.7144 82.2959 32.947 81.9519 33.3954C81.4187 34.0904 78.2701 34.1855 77.6113 33.5265ZM86.9093 31.3191C86.9503 29.6131 86.9689 29.5061 87.2651 29.2664C87.5379 29.0456 87.803 29.0136 89.3556 29.0136H89.3888C90.5929 29.0136 91.1916 29.0135 91.4892 29.3129C91.7836 29.6089 91.7836 30.1976 91.7836 31.3686V31.4015V33.1394L91.3967 33.5265C91.0098 33.9136 91.0095 33.9136 89.335 33.9136H87.6602L87.2631 33.5162L86.8659 33.1189L86.9093 31.3191ZM96.5483 31.3735C96.5483 29.7347 96.5618 29.6502 96.8733 29.3387C97.3973 28.8143 100.634 28.8378 101.126 29.3696L101.456 29.7255L101.418 33.9504L101.379 38.1752L101.067 38.4281C100.774 38.6653 100.492 38.6812 96.5753 38.6812C96.1762 38.6812 95.8102 38.6824 95.4744 38.6836C93.1929 38.6914 92.3102 38.6944 91.9746 38.2674C91.7628 37.998 91.7689 37.5573 91.7787 36.8386L91.7788 36.8374C91.7811 36.6701 91.7836 36.4877 91.7836 36.2889L91.7834 36.069V36.0689C91.7824 34.9535 91.7819 34.4006 92.058 34.1203C92.3296 33.8448 92.8686 33.8328 93.9377 33.8092L94.1522 33.8043L94.2843 33.8013C95.4202 33.7754 95.9864 33.7625 96.2685 33.4729C96.549 33.185 96.5488 32.6237 96.5484 31.5044L96.5483 31.3735ZM72.4597 38.6816C72.4597 34.2949 72.4634 34.2649 73.0553 33.9284C73.2244 33.8323 73.9276 33.7906 75.0042 33.8127L75.1125 33.8149C76.1691 33.8363 76.71 33.8473 76.9931 34.123C77.2902 34.4123 77.3036 34.9929 77.331 36.1826L77.3337 36.299L77.336 36.4007C77.3626 37.5527 77.3758 38.1229 77.6676 38.4051C77.9535 38.6816 78.5069 38.6814 79.6025 38.6812L79.7011 38.6812C81.3447 38.6812 81.3485 38.6804 81.7347 38.2941L82.1216 37.907V36.1899L82.1215 36.011C82.1208 34.9322 82.1204 34.391 82.3909 34.1195C82.6632 33.8462 83.2103 33.8466 84.3082 33.8473L84.4886 33.8474L84.6703 33.8473C85.8048 33.8466 86.3723 33.8462 86.6625 34.1297C86.9529 34.4133 86.9658 34.9812 86.9914 36.1172L86.9956 36.299L86.9985 36.4246C87.0245 37.5547 87.0374 38.119 87.3262 38.4007C87.6142 38.6818 88.1766 38.6816 89.3 38.6812L89.425 38.6812C91.7814 38.6812 91.7836 38.6833 91.7836 41.0516C91.7836 42.6791 91.7663 42.7919 91.4642 43.1434L91.1448 43.515L82.4971 43.5538C77.7409 43.575 73.6556 43.5574 73.4187 43.5146L73.4048 43.5121C73.171 43.4698 72.995 43.4379 72.8625 43.3444C72.4597 43.0599 72.4597 42.2048 72.4597 38.7486V38.7485V38.6816ZM14.5972 41.1102C14.6357 39.4648 14.6686 39.2467 14.918 38.9792C15.18 38.6983 15.2996 38.6812 17.0028 38.6812L17.1868 38.6811H17.1869C18.2576 38.6803 18.7991 38.6799 19.0791 38.9503C19.3655 39.2269 19.3782 39.7868 19.404 40.9196L19.4083 41.1102L19.4122 41.279C19.4371 42.3661 19.4495 42.9089 19.7271 43.1798C20.004 43.4498 20.5446 43.4495 21.6243 43.4489H21.6243L21.7924 43.4488H23.5086L23.8954 43.8359L24.2823 44.223V45.9401C24.2823 47.433 24.3154 47.6982 24.5351 47.9699L24.7879 48.2826L29.0969 48.3488C29.5486 48.3558 29.958 48.3603 30.3291 48.3644H30.3291H30.3292C32.5484 48.3892 33.3948 48.3986 33.71 48.8125C33.9044 49.0676 33.897 49.4765 33.8849 50.1374L33.8849 50.1377C33.8817 50.3168 33.8781 50.5145 33.8781 50.7326C33.8781 50.8391 33.8783 50.9406 33.8785 51.0374C33.8807 52.0329 33.8817 52.533 33.6324 52.7926C33.3807 53.0547 32.8737 53.0717 31.8549 53.1058H31.8548C31.7567 53.1091 31.6538 53.1126 31.546 53.1164C29.0564 53.205 29.0471 53.2141 29.0471 55.5664C29.0471 57.9249 29.0582 57.9356 31.5384 57.9931C31.6332 57.9953 31.7242 57.9973 31.8115 57.9991C32.841 58.0213 33.3585 58.0324 33.6183 58.2968C33.8809 58.564 33.8801 59.0902 33.8784 60.1482V60.1511C33.8782 60.2389 33.8781 60.3304 33.8781 60.4258L33.8781 60.5725C33.8786 61.6947 33.8788 62.2477 33.6025 62.5201C33.334 62.7848 32.8043 62.7846 31.7601 62.7841L31.6196 62.784C29.1408 62.784 29.0471 62.8753 29.0471 65.2886V65.3247C29.0471 66.4176 29.0471 66.9742 29.3253 67.2576C29.614 67.5517 30.2023 67.5516 31.4009 67.5516H31.4392L31.6325 67.5517C32.7515 67.5525 33.2965 67.5529 33.5616 67.2807C33.8133 67.0224 33.8128 66.5185 33.812 65.5364L33.8119 65.3577C33.8119 62.8513 33.8668 62.7941 36.2789 62.7883L36.4632 62.7879C37.5474 62.7861 38.0898 62.7852 38.3672 62.5136C38.645 62.2416 38.6572 61.6984 38.6816 60.6111V60.6111L38.6858 60.4267L38.691 60.1946C38.7154 59.0866 38.7274 58.5416 39.006 58.2738C39.2756 58.0145 39.7952 58.0151 40.8177 58.0163L41.0392 58.0164C43.014 58.0164 43.2459 58.0815 43.4599 58.6955C43.6558 59.258 43.6639 71.2232 43.4687 71.7369L43.4486 71.7902C43.4103 71.8929 43.378 71.9794 43.3264 72.0524C43.05 72.4436 42.2206 72.444 36.943 72.4471L36.4321 72.4474C35.8713 72.4478 35.3528 72.4471 34.8735 72.4465H34.8699C30.9339 72.4414 29.6407 72.4398 29.2259 73.0426C29.0229 73.3375 29.0303 73.7773 29.0414 74.4322C29.0441 74.5955 29.0471 74.7721 29.0471 74.9632C29.0471 75.1052 29.0481 75.2388 29.049 75.3644C29.0545 76.1281 29.0579 76.5995 28.8303 76.89C28.4635 77.3586 27.4962 77.3569 24.9693 77.3526C24.7115 77.3521 24.4376 77.3517 24.1464 77.3517H20.1589L19.772 76.9646L19.3852 76.5775V74.8395V74.8376C19.3852 73.6397 19.3852 73.0432 19.6834 72.7462C19.9792 72.4516 20.5683 72.4516 21.7418 72.4516H21.7437C23.2721 72.4516 23.4894 72.4226 23.8012 72.1771L24.15 71.9027V67.6178V63.333L23.8012 63.0586C23.4653 62.7941 23.3002 62.784 19.3261 62.784C18.9193 62.784 18.5474 62.7854 18.2074 62.7867C15.9982 62.795 15.1376 62.7982 14.8084 62.3815C14.5984 62.1156 14.6047 61.6788 14.6151 60.9631L14.6151 60.9629C14.6176 60.7904 14.6204 60.6016 14.6204 60.3951L14.6203 60.2313C14.6198 59.0789 14.6195 58.5257 14.8957 58.2604C15.1507 58.0155 15.6412 58.0158 16.5845 58.0164L16.7295 58.0164C16.8788 58.0164 17.0197 58.0173 17.1527 58.018C18.0449 58.0232 18.5803 58.0263 18.9015 57.7656C19.3835 57.3742 19.3828 56.3883 19.381 53.9228V53.9213C19.3808 53.6769 19.3807 53.4179 19.3809 53.1436L19.3852 48.9989L19.0602 48.6739L18.7354 48.3488H14.6372C12.3832 48.3488 10.4426 48.3117 10.3248 48.2666C9.57909 47.9803 9.41206 44.5343 10.1101 43.8359L10.497 43.4488H12.2131L12.3812 43.4489H12.3813C13.4609 43.4495 14.0015 43.4498 14.2784 43.1798C14.5561 42.9089 14.5685 42.3661 14.5933 41.279L14.5972 41.1102ZM29.3887 43.194C28.9092 42.7433 28.8588 39.6187 29.3215 39.0302C29.6925 38.5582 33.009 38.4833 33.5656 38.9344C34.0405 39.3191 34.0493 42.7404 33.5766 43.2133C33.1008 43.6894 29.9 43.6746 29.3887 43.194ZM43.7834 43.1319C43.2957 42.5647 43.3488 39.3416 43.8525 38.934C44.3854 38.5028 47.5983 38.5582 48.0461 39.0063C48.5417 39.5021 48.5457 42.5685 48.0516 43.1434L47.7321 43.515H45.9224H44.1127L43.7834 43.1319ZM62.7977 41.126C62.7977 39.5592 62.826 39.3431 63.0721 39.0302C63.4428 38.5584 66.7593 38.4833 67.3162 38.934C67.8199 39.3416 67.873 42.5647 67.3853 43.1319L67.056 43.515H65.2684H65.2455C64.0079 43.515 63.396 43.515 63.0935 43.2091C62.7977 42.91 62.7977 42.3183 62.7977 41.1482V41.126ZM110.975 41.2321C110.975 39.5839 111.122 38.9359 111.535 38.7698C111.627 38.7326 114.669 38.6974 118.294 38.6917L124.884 38.6812L125.209 39.0063L125.534 39.3313V45.875C125.534 46.6173 125.536 47.2843 125.539 47.8836V47.8837C125.551 51.4422 125.555 52.6117 125.014 52.9795C124.749 53.1595 124.354 53.1474 123.765 53.1295C123.562 53.1233 123.337 53.1164 123.086 53.1164C122.885 53.1164 122.702 53.1188 122.533 53.121C121.79 53.1307 121.336 53.1367 121.06 52.9182C120.624 52.5744 120.627 51.675 120.635 49.3603V49.3598C120.636 49.0252 120.637 48.661 120.637 48.2647C120.637 47.8452 120.639 47.4629 120.64 47.1147V47.1146C120.649 44.936 120.652 44.0879 120.242 43.7641C119.98 43.5578 119.55 43.5645 118.847 43.5754C118.67 43.5782 118.477 43.5812 118.264 43.5812L118.166 43.5812C117.021 43.581 116.448 43.5809 116.16 43.8675C115.872 44.1555 115.872 44.7327 115.872 45.8896V45.8897L115.872 45.9889C115.872 47.6277 115.859 47.7122 115.547 48.0237L115.222 48.3488H111.062C110.655 48.3488 110.283 48.3475 109.942 48.3463H109.942C107.669 48.3383 106.798 48.3353 106.461 48.758C106.251 49.0205 106.247 49.4472 106.241 50.1388C106.24 50.3058 106.238 50.4882 106.233 50.6875L106.229 50.8859C106.203 52.0111 106.191 52.5692 105.905 52.8457C105.625 53.1178 105.08 53.1174 103.999 53.1165L103.805 53.1164C103.718 53.1164 103.633 53.1167 103.552 53.1172C103.499 53.1175 103.447 53.1178 103.396 53.1182C102.586 53.1236 102.086 53.127 101.779 52.8848C101.284 52.4931 101.296 51.4589 101.329 48.7521C101.332 48.4867 101.336 48.2053 101.339 47.9067L101.379 44.0876L101.751 43.7682L102.122 43.4488H106.279C106.663 43.4488 107.016 43.4499 107.341 43.4509C109.619 43.458 110.48 43.4607 110.8 43.0459C110.994 42.7937 110.989 42.3871 110.98 41.7334C110.977 41.5802 110.975 41.4136 110.975 41.2321ZM130.299 39.3313L130.624 39.0063L130.949 38.6812H135.148C139.278 38.6812 139.353 38.686 139.655 38.9691L139.961 39.2571V43.5285V47.7999L139.612 48.0743C139.3 48.3198 139.083 48.3488 137.555 48.3488C135.2 48.3488 135.196 48.3525 135.196 50.7088L135.196 50.8304V50.8306C135.196 51.9674 135.197 52.539 134.911 52.8264C134.622 53.1169 134.041 53.1168 132.871 53.1164L132.748 53.1164C132.497 53.1164 132.271 53.1233 132.068 53.1295C131.479 53.1474 131.084 53.1595 130.819 52.9795C130.278 52.6117 130.282 51.4422 130.295 47.8841V47.8838C130.297 47.2845 130.299 46.6174 130.299 45.875V39.3313ZM0.0505657 53.9013L0.442868 53.5089L0.835036 53.1164H7.40291H13.9706L14.2954 53.4415C14.6083 53.7545 14.6202 53.8317 14.6161 55.5274C14.6103 57.9644 14.5566 58.0164 12.0482 58.0164L11.9664 58.0164C10.8955 58.0163 10.3678 58.0162 10.1078 58.28C9.85532 58.5362 9.85541 59.0413 9.85557 60.037L9.85558 60.1156C9.85558 61.7785 9.71568 62.443 9.321 62.6544C8.80826 62.9289 0.793741 62.8175 0.439955 62.5309L0.127464 62.278L0.0889489 58.0897L0.0505657 53.9013ZM33.7909 53.9117L34.1883 53.514L34.5857 53.1164H36.3226H36.3643C37.5264 53.1164 38.1126 53.1163 38.4082 53.4094C38.7091 53.7077 38.7091 54.3095 38.7091 55.5237V55.5664V55.6014C38.7091 56.8225 38.7091 57.4262 38.4073 57.7246C38.1121 58.0165 37.5284 58.0165 36.3739 58.0164H36.34C33.9116 58.0164 33.8937 57.9995 33.8345 55.6447L33.7909 53.9117ZM96.6305 57.4145C96.367 56.7275 96.5478 53.7671 96.8733 53.4415C97.2488 53.0657 100.479 52.942 100.928 53.2862C101.622 53.8198 101.717 56.9702 101.059 57.6293C100.361 58.3278 96.9167 58.1607 96.6305 57.4145ZM106.21 53.7665L106.535 53.4415L106.86 53.1164H111.041H115.222L115.547 53.4415C115.86 53.7547 115.872 53.8319 115.872 55.5664V55.6238C115.872 56.8251 115.872 57.4233 115.573 57.7212C115.277 58.0165 114.686 58.0165 113.509 58.0164H113.453L113.285 58.0164C112.23 58.0157 111.694 58.0153 111.415 58.283C111.127 58.5597 111.115 59.1229 111.088 60.2685V60.2686L111.084 60.4454L111.08 60.6508C111.056 61.7031 111.044 62.2368 110.771 62.5073C110.49 62.7856 109.933 62.7851 108.802 62.7841L108.588 62.784C108.398 62.784 108.224 62.7863 108.064 62.7883C107.347 62.7975 106.906 62.8031 106.634 62.5911C106.198 62.2505 106.201 61.3483 106.208 58.9968C106.209 58.669 106.21 58.313 106.21 57.9264V53.7665ZM115.872 60.4021C115.872 58.7677 115.898 58.5686 116.142 58.3063C116.394 58.0356 116.531 58.0164 118.202 58.0164C120.682 58.0164 120.769 58.0979 120.769 60.4002C120.769 62.6973 120.677 62.784 118.239 62.784L118.108 62.7841C116.992 62.7844 116.433 62.7846 116.153 62.5051C115.872 62.2244 115.872 61.6616 115.872 60.5334L115.872 60.4021ZM135.598 62.6544C134.868 62.2633 134.836 58.7305 135.558 58.182C135.962 57.8754 139.372 57.9572 139.696 58.2813C140.114 58.6995 140.096 62.0273 139.673 62.4776C139.359 62.8125 136.153 62.9515 135.598 62.6544ZM96.6953 67.0673C96.3783 66.371 96.5084 63.4741 96.8733 63.1091C97.1986 62.7835 100.157 62.6026 100.844 62.8663C101.59 63.1526 101.757 66.5985 101.059 67.297C100.342 68.0135 97.0472 67.8402 96.6953 67.0673ZM111.362 67.297C110.703 66.6378 110.798 63.4874 111.493 62.9538C111.941 62.6096 115.172 62.7333 115.547 63.1091C115.873 63.4347 116.054 66.3951 115.79 67.0821C115.504 67.8283 112.06 67.9954 111.362 67.297ZM121.024 67.297C120.353 66.6258 120.489 63.1577 121.197 62.8726C121.839 62.6141 124.895 62.7941 125.209 63.1091C125.574 63.4741 125.704 66.371 125.387 67.0673C125.035 67.8402 121.74 68.0135 121.024 67.297ZM0.0632719 70.0414C0.0653896 68.4202 0.185833 67.9975 0.72571 67.7179C0.976656 67.5879 2.0122 67.5561 5.12044 67.5829C5.50564 67.5862 5.85914 67.588 6.18358 67.5896C8.3782 67.6007 9.24259 67.605 9.58744 68.0305C9.81152 68.307 9.81623 68.7612 9.82401 69.5107C9.82578 69.6812 9.82771 69.867 9.83242 70.0694L9.83532 70.195C9.86129 71.3251 9.87426 71.8894 10.163 72.1712C10.451 72.4522 11.0134 72.452 12.1368 72.4517L12.2618 72.4516C13.8997 72.4516 13.9841 72.4651 14.2954 72.7768L14.6204 73.1018V77.2854V81.4691L14.2954 81.7941C13.983 82.1068 13.9033 82.1193 12.2028 82.1193L12.1077 82.1192H12.1076C10.9447 82.119 10.3822 82.119 10.1101 82.4C9.85526 82.6633 9.85537 83.1734 9.85557 84.1614L9.85558 84.2476C9.85558 86.8006 9.65718 87.0193 7.34083 87.0193C5.06895 87.0193 4.95844 86.9088 4.95844 84.6376C4.95844 82.1463 4.93368 82.1212 2.46592 82.115C0.13342 82.1092 0.0612867 82.0337 0.0612867 79.6016C0.0612867 78.0007 0.0630068 77.9917 0.448161 77.6063L0.835036 77.2192H2.61151L2.75011 77.2193C3.83343 77.2197 4.36514 77.2199 4.63343 76.9542C4.89203 76.6981 4.90589 76.1948 4.9331 75.2065L4.93673 75.0754C5.00661 72.5768 4.88789 72.4516 2.44832 72.4516C0.117935 72.4516 0.0602278 72.3932 0.0632719 70.0414ZM101.315 72.6172C101.317 68.2641 101.347 68.0436 101.978 67.7188C102.227 67.59 103.277 67.5578 106.372 67.5838C106.921 67.5884 107.406 67.5857 107.835 67.5833C109.448 67.5742 110.264 67.5697 110.671 67.9752C111.087 68.3898 111.076 69.2331 111.054 70.9387V70.9388C111.048 71.3822 111.041 71.884 111.041 72.4516C111.041 72.8615 111.043 73.2367 111.044 73.5802C111.052 75.8549 111.055 76.7396 110.625 77.0877C110.351 77.3092 109.901 77.3134 109.165 77.3202C108.99 77.3219 108.799 77.3236 108.591 77.3285C108.396 77.333 108.217 77.3348 108.052 77.3364C107.338 77.3435 106.899 77.3478 106.629 77.5638C106.197 77.9098 106.2 78.7987 106.208 81.1115V81.1116C106.209 81.445 106.21 81.8081 106.21 82.2034C106.21 82.7034 106.215 83.1525 106.22 83.5556C106.239 85.2832 106.249 86.1675 105.812 86.6112C105.353 87.0765 104.403 87.0572 102.457 87.0177C102.024 87.0089 101.541 86.9991 101.004 86.9935L97.1868 86.9531L96.8676 86.5815L96.5483 86.2099V82.1843C96.5483 81.9343 96.548 81.6969 96.5477 81.4714V81.4712C96.5443 78.8841 96.543 77.8667 97.0388 77.469C97.3601 77.2113 97.8902 77.2138 98.7639 77.2181H98.7639H98.7641C98.8816 77.2186 99.0053 77.2192 99.1355 77.2192C99.316 77.2192 99.4816 77.2216 99.6336 77.2238C100.274 77.233 100.673 77.2387 100.92 77.0482C101.325 76.7355 101.323 75.8937 101.317 73.6696C101.316 73.3485 101.315 72.9985 101.315 72.6172ZM125.534 69.9668C125.604 68.0308 125.688 67.7536 126.239 67.6411C126.397 67.6087 128.334 67.5903 130.542 67.6001L134.558 67.6178L134.877 67.9894C135.179 68.3409 135.196 68.454 135.196 70.0812V70.0941C135.196 71.2679 135.196 71.8573 135.491 72.1532C135.788 72.4516 136.385 72.4516 137.584 72.4516H137.597L137.706 72.4516C138.839 72.4513 139.403 72.4512 139.684 72.733C139.961 73.0121 139.961 73.5678 139.961 74.6738L139.961 74.7815C139.961 77.3454 139.955 77.3517 137.387 77.3517C137.201 77.3517 137.031 77.3491 136.875 77.3467H136.875C136.239 77.3369 135.842 77.3308 135.595 77.5202C135.183 77.8353 135.186 78.6916 135.194 80.9731C135.195 81.3094 135.196 81.6766 135.196 82.0777C135.196 82.4725 135.195 82.8352 135.194 83.1683V83.1684C135.186 85.4802 135.183 86.3661 135.611 86.6997C135.877 86.907 136.309 86.901 137.01 86.8915H137.01C137.172 86.8893 137.349 86.8868 137.541 86.8868H137.598C138.775 86.8868 139.365 86.8867 139.662 87.1821C139.961 87.4799 139.961 88.0781 139.961 89.2795V89.3369V89.386C139.961 90.5946 139.961 91.1948 139.661 91.4929C139.365 91.787 138.777 91.7869 137.608 91.7869H137.56L137.453 91.7869C136.318 91.7866 135.753 91.7865 135.473 92.0686C135.196 92.3474 135.196 92.902 135.196 94.0046V94.0047L135.196 94.1096L135.196 94.2471C135.197 95.4007 135.197 95.9777 134.908 96.2663C134.62 96.5551 134.042 96.5549 132.885 96.5545L132.748 96.5545C132.547 96.5545 132.364 96.5569 132.195 96.5591C131.452 96.5688 130.998 96.5747 130.721 96.3562C130.286 96.0125 130.289 95.1131 130.297 92.7985V92.7983C130.298 92.4636 130.299 92.0993 130.299 91.7028C130.299 91.322 130.3 90.9719 130.301 90.6501V90.65C130.308 88.3449 130.31 87.4919 129.901 87.1823C129.661 87.0005 129.279 87.0061 128.673 87.0149C128.528 87.017 128.372 87.0193 128.201 87.0193C125.626 87.0193 125.534 86.9401 125.534 84.719C125.534 82.2149 125.455 82.1293 123.13 82.1235C122.969 82.1231 122.819 82.1239 122.678 82.1247C121.883 82.1292 121.397 82.132 121.099 81.8962C120.629 81.5233 120.631 80.5542 120.636 78.0528C120.636 77.7727 120.637 77.4734 120.637 77.1535V73.1018L120.962 72.7768C121.274 72.4649 121.357 72.4516 123.006 72.4516H123.009C124.219 72.4516 124.828 72.4516 125.146 72.1474C125.467 71.8392 125.489 71.2188 125.534 69.9699L125.534 69.9668ZM29.0471 79.7006C29.0471 77.8703 29.0983 77.67 29.6427 77.3722C29.7925 77.2902 30.6155 77.2256 31.539 77.2232C33.8384 77.2177 33.9443 77.3223 33.9443 79.6016C33.9443 82.0477 33.8835 82.1092 31.4566 82.115L31.4185 82.1151C30.2345 82.118 29.6417 82.1194 29.3448 81.8237C29.0471 81.5271 29.0471 80.9316 29.0471 79.7389V79.7006ZM111.003 82.2333C110.961 77.785 110.982 77.6334 111.678 77.353C112.182 77.1496 114.911 77.1943 115.333 77.413C115.841 77.6757 115.872 77.8021 115.872 79.6077C115.872 82.0218 115.97 82.1193 118.402 82.1193C120.661 82.1193 120.769 82.2292 120.769 84.527L120.769 84.6645C120.77 85.5768 120.77 86.1392 120.497 86.4831C120.057 87.0356 118.909 87.0242 115.916 86.9946L115.636 86.9919C115.104 86.9867 114.632 86.9885 114.215 86.9901C112.618 86.9961 111.813 86.9992 111.408 86.5981C110.996 86.1898 110.999 85.3626 111.005 83.6935C111.006 83.2647 111.008 82.7804 111.003 82.2333ZM14.6204 84.3162C14.6204 82.7822 14.6418 82.6393 14.9101 82.3893C15.1722 82.145 15.3712 82.1193 17.0046 82.1193C17.2032 82.1193 17.3852 82.1167 17.552 82.1143C18.2561 82.1044 18.6896 82.0982 18.9576 82.3057C19.3868 82.638 19.3919 83.5182 19.4051 85.808C19.407 86.1466 19.4091 86.5161 19.4128 86.9192C19.4165 87.3235 19.4186 87.6938 19.4205 88.0331C19.4331 90.2954 19.438 91.1761 19.8708 91.523C20.1467 91.7442 20.5964 91.7485 21.3327 91.7554C21.5059 91.7571 21.695 91.7589 21.9015 91.7637L22.027 91.7666C23.156 91.7926 23.72 91.8056 24.0017 92.0941C24.2829 92.3822 24.2827 92.945 24.2823 94.0695L24.2823 94.1945C24.2823 95.8334 24.2958 95.9179 24.6073 96.2293L24.9321 96.5545H29.0233C29.4119 96.5545 29.769 96.5557 30.0971 96.5567C32.37 96.5643 33.2509 96.5672 33.5966 96.1386C33.8154 95.8673 33.8198 95.4232 33.8271 94.6981C33.8287 94.5327 33.8305 94.3528 33.8351 94.1569C33.8398 93.9527 33.8413 93.766 33.8428 93.5953C33.8486 92.8927 33.8522 92.4607 34.0644 92.1958C34.4033 91.7729 35.2739 91.776 37.5347 91.7843H37.5347C37.8787 91.7855 38.2549 91.7869 38.6663 91.7869C38.7731 91.7869 38.8776 91.7868 38.9799 91.7868C39.0912 91.7867 39.1999 91.7866 39.306 91.7865C41.9733 91.7839 42.9898 91.7829 43.3752 92.2755C43.6124 92.5789 43.6104 93.0695 43.607 93.8622C43.6066 93.9603 43.6062 94.0631 43.6062 94.1707C43.6062 96.4418 43.4942 96.5545 41.2388 96.5545C38.7932 96.5545 38.7091 96.6407 38.7091 99.1492C38.7091 100.73 38.6945 100.819 38.3841 101.129L38.0593 101.454H29.1768C28.2688 101.454 27.4443 101.456 26.6958 101.458H26.6941C21.4152 101.469 19.915 101.472 19.51 100.808C19.3492 100.544 19.361 100.175 19.3776 99.6591C19.3835 99.4749 19.39 99.272 19.3894 99.0484C19.3832 96.5706 19.3664 96.5545 16.8109 96.5545L16.73 96.5545C15.66 96.5546 15.1327 96.5547 14.8727 96.2911C14.6201 96.0349 14.6202 95.5295 14.6204 94.5328L14.6204 94.4553C14.6204 91.8493 14.5643 91.7887 12.1474 91.7826C9.80621 91.7768 9.72323 91.6936 9.72323 89.3518C9.72323 86.9937 9.83202 86.8868 12.2333 86.8868C14.5874 86.8868 14.6204 86.8514 14.6204 84.3162ZM24.8916 86.8349C23.9776 86.4527 23.7866 82.9366 24.6444 82.2848C25.0677 81.9632 28.3736 82.062 28.7408 82.4072C29.0756 82.7218 29.2145 85.929 28.9175 86.4844C28.6328 87.0166 25.8961 87.2549 24.8916 86.8349ZM38.8386 86.4844C38.5553 85.9545 38.6797 82.7635 38.9968 82.4257C39.3113 82.0908 42.5165 81.9517 43.0716 82.2489C43.9145 82.7002 43.8062 86.3747 42.9366 86.8246C42.0783 87.2688 39.1272 87.0237 38.8386 86.4844ZM0.0612867 87.6611L0.458485 87.2638L0.855551 86.8663L2.65426 86.9098L2.82985 86.9139C3.88155 86.9385 4.414 86.9509 4.68338 87.2234C4.95961 87.5028 4.95924 88.0557 4.95851 89.1754L4.95844 89.3575V89.3908C4.95846 90.596 4.95847 91.195 4.65897 91.4927C4.36303 91.7869 3.77464 91.7869 2.60485 91.7869H2.57193H0.835036L0.448161 91.3998C0.0612862 91.0127 0.0612867 91.0124 0.0612867 89.3369V87.6611ZM29.0471 89.3369C29.0471 87.6024 29.0589 87.5252 29.372 87.212C29.6839 86.8998 29.7661 86.8868 31.4336 86.8868H33.1705L33.5574 87.2739C33.9443 87.661 33.9443 87.6613 33.9443 89.3369C33.9443 91.0124 33.9443 91.0127 33.5574 91.3998L33.1705 91.7869H31.4336H31.3919C30.2297 91.7869 29.6436 91.7869 29.3479 91.4939C29.0471 91.1956 29.0471 90.5938 29.0471 89.3796V89.3369ZM106.21 89.3369C106.21 87.6024 106.222 87.5252 106.535 87.212C106.847 86.8998 106.929 86.8868 108.597 86.8868H110.334L110.721 87.2739C111.107 87.661 111.107 87.6613 111.107 89.3369C111.107 91.0124 111.107 91.0127 110.721 91.3998L110.334 91.7869H108.597H108.555C107.393 91.7869 106.807 91.7869 106.511 91.4939C106.21 91.1956 106.21 90.5938 106.21 89.3796V89.3369ZM96.5483 103.841C96.5483 92.5527 96.5499 92.4827 96.8227 92.1358C97.0963 91.7878 97.102 91.7869 98.9969 91.7869L99.1396 91.7868C100.292 91.7864 100.868 91.7862 101.157 92.0744C101.446 92.3634 101.446 92.9423 101.446 94.1018L101.445 94.2451C101.445 94.4208 101.444 94.5832 101.442 94.7333C101.434 95.434 101.428 95.8669 101.636 96.1337C101.973 96.5652 102.866 96.5627 105.203 96.5563C105.513 96.5554 105.848 96.5545 106.21 96.5545C106.595 96.5545 106.949 96.5556 107.275 96.5567C109.536 96.5642 110.414 96.5671 110.759 96.1397C110.978 95.8683 110.983 95.4234 110.99 94.6961V94.6956C110.992 94.5309 110.994 94.3518 110.998 94.1569L111.003 93.9482C111.027 92.8725 111.039 92.3316 111.315 92.06C111.595 91.7853 112.145 91.7858 113.251 91.7868L113.463 91.7869L113.598 91.7868C114.746 91.7864 115.314 91.7862 115.596 92.0704C115.873 92.3497 115.873 92.9036 115.872 94.0017L115.872 94.1336V94.1554C115.872 95.3636 115.872 95.9633 116.172 96.261C116.468 96.5545 117.055 96.5545 118.22 96.5545H118.241C119.868 96.5545 119.981 96.5717 120.332 96.874L120.703 97.1937V108.657V120.12L120.402 120.422C120.122 120.702 119.97 120.727 118.253 120.767L118.128 120.769C116.999 120.795 116.435 120.808 116.153 121.097C115.872 121.385 115.872 121.948 115.872 123.072L115.872 123.197V123.199C115.872 124.374 115.872 124.963 115.577 125.259C115.281 125.557 114.684 125.557 113.488 125.557H113.486H111.749L111.362 125.17L110.975 124.783V123.051L110.975 122.845C110.976 121.833 110.977 121.318 110.72 121.057C110.455 120.788 109.916 120.789 108.819 120.79H108.819L108.602 120.79L108.504 120.79C107.359 120.789 106.786 120.789 106.499 121.076C106.21 121.364 106.21 121.941 106.21 123.098V123.098L106.21 123.197C106.21 124.836 106.197 124.921 105.885 125.232L105.561 125.557H101.379H97.1981L96.8733 125.232C96.5613 124.92 96.5482 124.837 96.5441 123.146C96.5436 122.928 96.5468 122.731 96.5497 122.552C96.5602 121.9 96.5667 121.496 96.3745 121.245C96.0636 120.838 95.2326 120.829 93.0572 120.805C92.6889 120.801 92.282 120.797 91.8325 120.79L87.5249 120.724L87.2056 120.352C86.9036 120 86.8864 119.887 86.8864 118.26C86.8864 115.892 86.8843 115.89 84.5278 115.89L84.4346 115.89C83.2735 115.89 82.6951 115.89 82.4071 115.601C82.1213 115.314 82.1214 114.742 82.1216 113.603L82.1216 113.511L82.1215 113.29C82.1204 112.164 82.1199 111.608 82.3976 111.327C82.6687 111.053 83.2049 111.041 84.2644 111.018H84.2644L84.4781 111.013L84.7014 111.008C85.7752 110.984 86.3138 110.972 86.59 110.697C86.8679 110.42 86.8801 109.877 86.9044 108.786L86.9096 108.561L86.9139 108.371V108.371C86.9381 107.304 86.9503 106.766 87.2253 106.495C87.5044 106.221 88.0541 106.221 89.1617 106.222L89.3556 106.222C91.0671 106.222 91.146 106.234 91.4586 106.547L91.7836 106.872V111.035C91.7836 111.449 91.7822 111.827 91.7809 112.172C91.7726 114.432 91.7694 115.306 92.1916 115.637C92.4575 115.846 92.8921 115.839 93.6003 115.829C93.7723 115.826 93.9603 115.823 94.1659 115.823C94.4526 115.823 94.7052 115.841 94.9278 115.857C95.3562 115.888 95.6734 115.91 95.9079 115.782C96.5768 115.415 96.5723 113.82 96.5551 107.673C96.5519 106.553 96.5483 105.283 96.5483 103.841ZM120.637 94.1707C120.637 92.6656 120.666 92.4473 120.911 92.1358C121.185 91.7878 121.191 91.7869 123.086 91.7869L123.2 91.7869C124.378 91.7866 124.961 91.7864 125.251 92.0782C125.535 92.3648 125.534 92.933 125.534 94.0594L125.534 94.1707L125.534 94.282C125.534 95.4084 125.535 95.9766 125.251 96.2632C124.961 96.5549 124.378 96.5548 123.2 96.5545L123.086 96.5545L122.971 96.5545C121.793 96.5548 121.21 96.5549 120.921 96.2632C120.637 95.9766 120.637 95.4084 120.637 94.282L120.637 94.1707ZM0.448161 101.067C-0.243661 100.375 -0.0988635 97.0668 0.638885 96.7094C0.794403 96.6341 1.6837 96.5684 2.61508 96.5635L2.63593 96.5634H2.63601C3.77946 96.5573 4.35994 96.5542 4.65461 96.8429C4.95845 97.1405 4.95845 97.7483 4.95844 98.9828V99.0047C4.95844 101.452 4.95618 101.454 2.54652 101.454H0.835036L0.448161 101.067ZM10.1101 101.067C9.43933 100.396 9.57486 96.9282 10.283 96.6431C10.9251 96.3846 13.9807 96.5645 14.2954 96.8796C14.6711 97.2553 14.7947 100.488 14.4507 100.936C13.9174 101.631 10.7688 101.726 10.1101 101.067ZM43.4738 99.1282C43.4738 97.4622 43.5616 97.0547 43.9917 96.7242C44.1462 96.6056 45.2915 96.5618 48.32 96.5587C48.7106 96.5583 49.0698 96.5567 49.3999 96.5553H49.4021C51.6978 96.5453 52.5929 96.5414 52.9363 96.9747C53.1557 97.2516 53.1499 97.7071 53.1403 98.4536V98.4537C53.1381 98.6221 53.1358 98.8052 53.1358 99.0045L53.1358 99.1473C53.1363 100.3 53.1365 100.877 52.8481 101.166C52.5592 101.455 51.9806 101.455 50.8223 101.455L50.679 101.454C50.5025 101.454 50.3394 101.453 50.1887 101.451C49.4913 101.442 49.0597 101.437 48.7931 101.644C48.3601 101.981 48.3626 102.878 48.3692 105.231V105.232C48.37 105.545 48.371 105.884 48.371 106.25V110.348L47.9841 110.735C47.5973 111.122 47.597 111.122 45.9225 111.122H45.9224H45.9223C44.2479 111.122 44.2476 111.122 43.8607 110.735L43.4738 110.348V108.61V108.589C43.4739 107.408 43.4739 106.816 43.178 106.52C42.8811 106.222 42.2861 106.222 41.094 106.222H41.0729L40.9558 106.222C39.8298 106.222 39.2679 106.223 38.9877 105.942C38.7086 105.662 38.7087 105.104 38.709 103.989L38.7091 103.873C38.7091 101.369 38.7584 101.322 41.3759 101.322L41.4544 101.322C42.4492 101.322 42.954 101.322 43.2102 101.07C43.4741 100.81 43.474 100.282 43.4739 99.21L43.4738 99.1282ZM58.0329 99.0045C58.0329 97.1084 58.0339 97.1027 58.3817 96.829C58.7899 96.5077 66.4085 96.3961 67.0785 96.7015C67.8509 97.0536 68.0242 100.351 67.308 101.067L66.9211 101.454H62.8258C62.4375 101.454 62.0804 101.456 61.7522 101.457C59.4681 101.464 58.5759 101.467 58.233 101.035C58.0132 100.758 58.019 100.302 58.0285 99.5532V99.5531C58.0306 99.3853 58.0329 99.2029 58.0329 99.0045ZM77.2245 99.1178C77.2245 97.4032 77.3368 96.9348 77.8021 96.7094C77.9843 96.6211 80.4047 96.5692 84.6092 96.5635L91.1338 96.5545L91.4586 96.8796C91.7715 97.1925 91.7834 97.2697 91.7793 98.9654C91.779 99.1054 91.7795 99.2375 91.78 99.3623C91.7832 100.173 91.7852 100.67 91.5438 100.975C91.1599 101.461 90.1601 101.459 87.5698 101.455C87.3928 101.455 87.2083 101.455 87.016 101.455C86.9361 101.455 86.8549 101.454 86.7723 101.454H82.6702L82.396 101.803C82.151 102.115 82.1216 102.333 82.1216 103.838V103.892C82.1217 105.069 82.1217 105.652 81.8305 105.94C81.5454 106.222 80.9813 106.222 79.8652 106.222H79.8136L79.6672 106.222H79.6672C78.521 106.222 77.9513 106.221 77.6616 106.506C77.3752 106.787 77.3624 107.347 77.337 108.46L77.3337 108.604L77.3325 108.652C77.3035 109.902 77.2897 110.497 76.9851 110.789C76.7079 111.055 76.19 111.071 75.2008 111.099L75.1589 111.101C72.5417 111.177 72.4603 111.109 72.4578 108.838C72.455 106.243 72.4348 106.222 69.8854 106.222C67.5863 106.222 67.4949 106.11 67.5832 103.391C67.5877 103.25 67.5904 103.12 67.5929 102.998L67.5929 102.997C67.6045 102.429 67.612 102.062 67.7907 101.822C68.118 101.382 69.02 101.37 71.5746 101.336C71.8733 101.332 72.1946 101.327 72.5401 101.322C72.9771 101.315 73.3736 101.311 73.7335 101.307L73.7354 101.307C75.9494 101.281 76.7732 101.272 77.0722 100.871C77.2493 100.633 77.2422 100.259 77.231 99.6615C77.2279 99.4976 77.2245 99.317 77.2245 99.1178ZM53.1358 103.874C53.1358 102.061 53.2403 101.703 53.8448 101.448C54.0009 101.382 54.8634 101.342 55.7616 101.358C58.0004 101.399 58.0329 101.435 58.0329 103.852V103.886C58.033 105.041 58.033 105.625 57.741 105.92C57.4426 106.222 56.8392 106.222 55.6193 106.222H55.5844H55.5596C54.3308 106.222 53.7249 106.222 53.4262 105.919C53.1358 105.625 53.1358 105.044 53.1358 103.898V103.874ZM135.598 106.092C134.664 105.592 134.907 101.603 135.883 101.417C137.321 101.142 139.584 101.394 139.831 101.857C140.115 102.387 139.99 105.578 139.673 105.916C139.359 106.251 136.153 106.39 135.598 106.092ZM115.806 101.961L115.494 101.708C115.195 101.466 114.882 101.454 108.601 101.454H102.021L101.733 101.761C101.309 102.213 101.276 114.989 101.698 115.511L101.951 115.823L108.412 115.86C115.323 115.9 115.467 115.888 115.732 115.246C115.835 114.997 115.869 112.953 115.843 108.425L115.806 101.961ZM62.9674 110.604C62.6234 110.155 62.747 106.923 63.1227 106.547C63.448 106.222 66.4067 106.041 67.0933 106.304C67.839 106.591 68.0061 110.037 67.308 110.735C66.6493 111.394 63.5007 111.299 62.9674 110.604ZM106.472 110.721C106.03 110.28 106.08 107.003 106.535 106.547C106.99 106.092 110.266 106.042 110.707 106.484C111.262 107.039 111.287 110.207 110.74 110.755C110.193 111.302 107.027 111.277 106.472 110.721ZM48.7197 115.615C48.0479 115.086 48.2294 111.418 48.9421 111.118C49.6089 110.837 52.6076 111.028 52.8831 111.369C53.2879 111.869 53.2606 115.144 52.848 115.583C52.4291 116.029 49.277 116.054 48.7197 115.615ZM58.0107 113.419C58.0556 111.549 58.1146 111.327 58.6239 111.11C59.1561 110.884 62.2323 111.029 62.4956 111.292C62.7094 111.506 62.7378 111.933 62.7977 115.84L62.8639 120.151L63.1764 120.404C63.448 120.624 63.713 120.657 65.205 120.657H66.9211L67.308 121.044L67.6949 121.431V123.149L67.6948 123.317C67.6942 124.398 67.6938 124.939 67.964 125.215C68.2348 125.493 68.7773 125.505 69.8634 125.53L70.0321 125.534C70.2443 125.539 70.4381 125.541 70.6151 125.542C71.3398 125.549 71.7824 125.552 72.0518 125.77C72.4744 126.112 72.471 126.98 72.4625 129.211C72.4611 129.558 72.4597 129.938 72.4597 130.354V134.575L72.1347 134.9C71.8222 135.213 71.7427 135.225 70.0402 135.225L69.8719 135.225C68.8175 135.224 68.2815 135.224 68.0029 135.491C67.7148 135.768 67.702 136.331 67.6758 137.477L67.6717 137.654L67.667 137.859C67.6434 138.912 67.6314 139.445 67.3585 139.716C67.0776 139.994 66.5204 139.994 65.3896 139.993L65.1751 139.993C64.9872 139.993 64.814 139.995 64.6545 139.997C63.9349 140.006 63.4922 140.011 63.2204 139.799C62.786 139.459 62.7878 138.561 62.7925 136.23V136.229C62.7932 135.905 62.7939 135.555 62.7935 135.174C62.7932 134.903 62.7934 134.648 62.7936 134.406V134.404C62.7953 131.95 62.796 130.968 62.3152 130.577C61.9939 130.315 61.4574 130.318 60.5624 130.323C60.4303 130.324 60.2903 130.325 60.142 130.325H60.0912C59.0622 130.325 58.5476 130.325 58.2903 130.068C58.0328 129.81 58.0329 129.295 58.0329 128.265V128.215C58.0329 125.631 57.9732 125.567 55.5453 125.562C53.8561 125.557 53.7725 125.544 53.4607 125.232L53.1358 124.907V120.724V116.54L53.4607 116.215C53.7723 115.903 53.8559 115.89 55.5048 115.89C57.9498 115.89 57.9515 115.888 58.0107 113.419ZM125.675 111.503C125.753 111.358 125.946 111.186 126.105 111.121C126.265 111.056 129.318 111.015 132.925 111.029L139.455 111.056L139.708 111.369C139.953 111.671 139.961 112.056 139.961 123.128V134.575L139.636 134.9C139.14 135.396 136.076 135.4 135.501 134.905L135.13 134.586L135.093 127.926C135.061 121.993 135.033 121.24 134.841 121.028C134.643 120.809 134.308 120.79 130.629 120.79C126.51 120.79 125.916 120.726 125.664 120.255C125.481 119.913 125.492 111.846 125.675 111.503ZM43.497 118.228C43.5379 116.487 43.5556 116.383 43.8525 116.143C44.3854 115.711 47.5983 115.767 48.0461 116.215L48.371 116.54V120.724V124.907L48.0461 125.232L47.7213 125.557H43.5638C43.1748 125.557 42.8167 125.558 42.4871 125.559H42.4858H42.4857C40.1465 125.567 39.2452 125.57 38.9037 125.134C38.6896 124.861 38.6953 124.415 38.7047 123.691V123.691C38.7068 123.528 38.7091 123.35 38.7091 123.158L38.709 123.078C38.7089 121.854 38.7088 121.249 39.0114 120.95C39.3073 120.657 39.8929 120.657 41.0513 120.657H41.1285L41.2967 120.657H41.2968C42.3512 120.658 42.8872 120.658 43.1658 120.391C43.4539 120.114 43.4668 119.551 43.4929 118.405L43.497 118.228ZM67.9298 120.422C67.3873 119.879 67.4149 116.7 67.967 116.147C68.378 115.736 71.7092 115.76 72.1534 116.178C72.5932 116.591 72.6266 119.898 72.1955 120.361C71.6608 120.936 68.4882 120.981 67.9298 120.422ZM77.5921 120.422C77.1194 119.949 77.1282 116.528 77.6031 116.143C78.1357 115.711 81.3487 115.766 81.7967 116.215C82.3102 116.729 82.2975 119.916 81.78 120.402C81.2687 120.883 78.068 120.898 77.5921 120.422ZM121.239 125.475C120.493 125.189 120.326 121.743 121.024 121.044C121.683 120.385 124.831 120.48 125.364 121.175C125.708 121.624 125.585 124.856 125.209 125.232C124.884 125.558 121.925 125.739 121.239 125.475ZM48.371 127.946C48.371 126.215 48.3894 126.08 48.6607 125.827C48.9232 125.583 49.1216 125.557 50.7784 125.557L51.0276 125.557H51.0277C52.0793 125.556 52.6071 125.555 52.8716 125.819C53.1381 126.084 53.1374 126.618 53.136 127.689L53.1358 127.941C53.1358 129.619 53.1106 129.82 52.8711 130.06C52.6315 130.3 52.4299 130.325 50.7534 130.325L50.4955 130.325C49.4311 130.327 48.8991 130.327 48.6337 130.062C48.3685 129.796 48.3693 129.265 48.3708 128.204L48.371 127.946ZM86.8864 127.941C86.8864 126.436 86.9158 126.218 87.1608 125.906C87.4344 125.558 87.44 125.557 89.335 125.557L89.4493 125.557C90.6272 125.557 91.2108 125.557 91.5 125.849C91.784 126.135 91.7839 126.703 91.7836 127.83L91.7836 127.941L91.7836 128.052C91.7839 129.179 91.784 129.747 91.5 130.034C91.2108 130.325 90.6272 130.325 89.4493 130.325L89.335 130.325L89.2207 130.325C88.0428 130.325 87.4591 130.325 87.17 130.034C86.886 129.747 86.8861 129.179 86.8864 128.052L86.8864 127.941ZM115.872 130.283C115.872 126.243 115.877 126.165 116.16 125.864C116.474 125.529 119.68 125.39 120.235 125.687C120.73 125.952 120.769 126.469 120.769 132.775C120.769 139.081 120.73 139.597 120.235 139.863C120.092 139.94 118.292 139.993 115.829 139.993C115.418 139.993 115.042 139.994 114.698 139.995C112.431 140.003 111.557 140.006 111.227 139.584C111.019 139.319 111.026 138.887 111.036 138.184C111.039 138.014 111.041 137.828 111.041 137.624L111.041 137.442C111.04 136.307 111.04 135.739 111.324 135.449C111.607 135.158 112.175 135.146 113.31 135.12L113.491 135.116C113.685 135.111 113.864 135.109 114.027 135.108C114.745 135.1 115.185 135.096 115.455 134.879C115.885 134.534 115.882 133.65 115.874 131.358C115.873 131.03 115.872 130.672 115.872 130.283ZM125.534 127.941C125.534 126.264 125.559 126.062 125.799 125.822C126.038 125.582 126.24 125.557 127.917 125.557C129.593 125.557 129.795 125.582 130.034 125.822C130.274 126.062 130.299 126.264 130.299 127.941C130.299 129.619 130.274 129.82 130.034 130.06C129.795 130.3 129.593 130.325 127.917 130.325C126.24 130.325 126.038 130.3 125.799 130.06C125.559 129.82 125.534 129.619 125.534 127.941ZM43.5011 135.469C43.4589 131.117 43.4689 130.993 43.8975 130.593C44.1571 130.352 44.3605 130.325 45.9534 130.325H45.9957C47.1832 130.325 47.777 130.325 48.074 130.622C48.3711 130.919 48.371 131.513 48.371 132.702V132.744L48.371 132.828C48.3708 134.002 48.3708 134.568 48.6532 134.84C48.9156 135.093 49.4218 135.093 50.3984 135.092H50.4741C53.0885 135.092 53.1358 135.138 53.1358 137.661C53.1358 137.861 53.1385 138.043 53.141 138.21V138.211C53.1512 138.9 53.1575 139.325 52.9539 139.586C52.6264 140.006 51.7561 140.003 49.4866 139.995C49.1441 139.994 48.7698 139.993 48.3607 139.993C44.4277 139.993 44.1454 139.977 43.8525 139.74L43.54 139.487L43.5011 135.469ZM53.3055 134.707C52.9615 134.258 53.0851 131.026 53.4607 130.65C53.8362 130.274 57.0669 130.15 57.515 130.495C58.3336 131.124 58.2569 134.695 57.4166 135.078C56.5433 135.476 53.6987 135.219 53.3055 134.707ZM96.5483 130.975L96.8733 130.65C97.186 130.337 97.2632 130.325 98.9579 130.329C101.393 130.335 101.445 130.389 101.445 132.899L101.445 132.98C101.445 134.052 101.445 134.58 101.709 134.84C101.965 135.093 102.47 135.093 103.465 135.092H103.543C106.158 135.092 106.21 135.142 106.21 137.625C106.21 139.244 106.188 139.403 105.923 139.686L105.635 139.993H101.366H97.097L96.8227 139.644C96.5584 139.307 96.5483 139.143 96.5483 135.135V130.975ZM82.1216 137.663C82.1216 135.643 82.1507 135.524 82.704 135.279C83.0276 135.135 83.9624 135.104 87.1297 135.128L91.1451 135.159L91.4643 135.53C91.9583 136.105 91.9542 139.172 91.4586 139.667L91.1338 139.993H86.9341C86.5411 139.993 86.18 139.994 85.8482 139.995C83.5273 140.002 82.6405 140.005 82.3076 139.577C82.1018 139.312 82.1076 138.883 82.117 138.188C82.1192 138.028 82.1216 137.853 82.1216 137.663ZM125.534 137.663C125.534 135.643 125.563 135.524 126.117 135.279C126.44 135.135 127.375 135.104 130.542 135.128L134.558 135.159L134.877 135.53C135.371 136.105 135.367 139.172 134.871 139.667L134.546 139.993H130.347C129.954 139.993 129.593 139.994 129.261 139.995C126.94 140.002 126.053 140.005 125.72 139.577C125.514 139.312 125.52 138.883 125.53 138.188C125.532 138.028 125.534 137.853 125.534 137.663ZM106.256 9.14934C106.256 4.0963 110.353 0 115.406 0H130.85C135.903 0 139.999 4.0963 139.999 9.14934V24.7579C139.999 29.811 135.903 33.9073 130.85 33.9073H115.406C110.353 33.9073 106.256 29.811 106.256 24.7579V9.14934ZM109.434 10.0404C109.434 6.25065 112.506 3.17843 116.296 3.17843H129.963C133.753 3.17843 136.825 6.25065 136.825 10.0404V23.8661C136.825 27.6559 133.753 30.7281 129.963 30.7281H116.296C112.506 30.7281 109.434 27.6559 109.434 23.8661V10.0404ZM120.492 9.66861C117.965 9.66861 115.917 11.7168 115.917 14.2433V19.6635C115.917 22.19 117.965 24.2382 120.492 24.2382H125.898C128.425 24.2382 130.473 22.19 130.473 19.6635V14.2433C130.473 11.7168 128.425 9.66861 125.898 9.66861H120.492ZM9.14935 106.091C4.09631 106.091 1.57363e-05 110.187 1.57363e-05 115.24V130.849C1.57363e-05 135.902 4.09631 139.998 9.14935 139.998H24.5936C29.6466 139.998 33.7429 135.902 33.7429 130.849V115.24C33.7429 110.187 29.6466 106.091 24.5936 106.091H9.14935ZM10.0393 109.269C6.24954 109.269 3.17731 112.341 3.17731 116.131V129.957C3.17731 133.746 6.24954 136.819 10.0393 136.819H23.7066C27.4964 136.819 30.5686 133.746 30.5686 129.957V116.131C30.5686 112.341 27.4964 109.269 23.7066 109.269H10.0393ZM9.65846 120.334C9.65846 117.807 11.7066 115.759 14.2331 115.759H19.6396C22.1661 115.759 24.2142 117.807 24.2142 120.334V125.754C24.2142 128.281 22.1661 130.329 19.6396 130.329H14.2331C11.7066 130.329 9.65846 128.281 9.65846 125.754V120.334Z" fill="#2C3034"/>
</svg>
