<svg width="403" height="91" viewBox="0 0 403 91" fill="none" xmlns="http://www.w3.org/2000/svg">
<mask id="mask0_12089_6954" style="mask-type:alpha" maskUnits="userSpaceOnUse" x="0" y="0" width="403" height="91">
<path fill-rule="evenodd" clip-rule="evenodd" d="M64.1304 13.8439L71.4904 0.121094L81.1381 32.4494L66.6733 25.9099L64.1304 13.8439ZM12.0808 28.218L4.5982 41.7102L27.4768 52.9026L58.9653 50.7293L12.0808 28.218ZM7.91059 53.6602L0.473724 67.0806L46.1521 89.7572L122.274 85.1364L129.711 71.7159L53.589 76.337L7.91059 53.6602Z" fill="#2C3034"/>
<path d="M129.716 71.7169L53.6158 76.3387L7.54546 53.608L57.4333 50.5895L12.0819 28.2176L34.3522 9.35615L80.5499 32.0757L71.4919 0.121094L115.636 21.7685L129.716 71.7169Z" fill="#FDBF1C"/>
<path d="M173.315 82.7184V59.2697H195.384V82.7184H211.936V21.1084H195.384V44.5571H173.315V21.1084H156.764V82.7184H173.315Z" fill="#2C3034"/>
<path d="M266.199 82.7184V68.0054H235.579V59.2697H261.602V44.5571H235.579V35.8213H266.199V21.1084H219.028V82.7184H266.199Z" fill="#2C3034"/>
<path d="M289.487 82.7184V60.6491H290.774C295.832 60.6491 298.131 62.2124 300.612 66.2584L310.818 82.7184H329.67L320.842 68.8331C317.717 63.9595 314.958 60.0053 308.615 58.4423C319.095 57.5226 327.094 52.2814 327.094 40.4191C327.094 26.8097 316.797 21.1084 302.454 21.1084H272.935V82.7184H289.487ZM302.636 35.8213C307.325 35.8213 309.623 37.7522 309.623 41.6144C309.623 45.3844 307.325 47.4077 302.636 47.4077H289.487V35.8213H302.636Z" fill="#2C3034"/>
<path d="M380.363 82.7184V68.0054H349.741V59.2697H375.763V44.5571H349.741V35.8213H380.363V21.1084H333.191V82.7184H380.363Z" fill="#2C3034"/>
<path d="M401.511 82.7186V66.9941H384.96V82.7186H401.511Z" fill="#2C3034"/>
<path d="M401.511 82.7186V66.9941H384.96V82.7186H401.511Z" fill="#FD84E3"/>
</mask>
<g mask="url(#mask0_12089_6954)">
<rect x="-282" y="-192" width="965" height="474" fill="white"/>
</g>
</svg>
