<svg width="103" height="43" viewBox="0 0 103 43" fill="none" xmlns="http://www.w3.org/2000/svg">
<g clip-path="url(#clip0_98_117)">
<path fill-rule="evenodd" clip-rule="evenodd" d="M22 0.361111V25.6389C22 25.8382 21.8365 26 21.635 26H18.9552C17.7171 26 16.563 25.3789 15.8906 24.3504L3.82921 5.90561L4.24239 15.1172V25.6389C4.24239 25.8382 4.07887 26 3.87739 26H0.365C0.16352 26 0 25.8382 0 25.6389V0.361111C0 0.161778 0.16352 0 0.365 0H3.00942C4.24641 0 5.39944 0.620028 6.07214 1.64703L18.1328 20.0572L17.7576 10.8828V0.361111C17.7576 0.161778 17.9211 0 18.1226 0H21.635C21.8365 0 22 0.161778 22 0.361111Z" fill="white"/>
<path fill-rule="evenodd" clip-rule="evenodd" d="M56.0182 26H52.3592C52.1068 26 51.9334 25.7451 52.0246 25.5085L61.7083 0.345944C61.7887 0.137583 61.9879 0 62.2105 0H66.7892C67.0118 0 67.2113 0.137583 67.2914 0.345944L76.9754 25.5085C77.0666 25.7451 76.8929 26 76.6405 26H72.9815C72.8325 26 72.699 25.9072 72.6462 25.7667L64.8357 5.05014C64.7186 4.73958 64.2818 4.73958 64.1644 5.05014L56.3538 25.7667C56.3011 25.9072 56.1672 26 56.0182 26Z" fill="white"/>
<path fill-rule="evenodd" clip-rule="evenodd" d="M102.924 25.4164L95.7684 16.0828C99.8066 15.3028 102.171 12.5172 102.171 8.24561C102.171 3.34317 99.0423 0 93.5131 0H83.5305C83.2377 0 83 0.242667 83 0.541667C83 2.45808 84.5215 4.01158 86.398 4.01158H93.0767C96.4238 4.01158 98.0241 5.75719 98.0241 8.28281C98.0241 10.8088 96.4595 12.5916 93.0767 12.5916H83.5305C83.2377 12.5916 83 12.8339 83 13.1333V25.6389C83 25.8382 83.1584 26 83.3537 26H86.7574C86.9526 26 87.111 25.8382 87.111 25.6389V16.306H91.0395L97.2531 24.5852C97.9222 25.4771 98.9599 26 100.06 26H102.645C102.94 26 103.106 25.6533 102.924 25.4164Z" fill="white"/>
<path fill-rule="evenodd" clip-rule="evenodd" d="M45.6383 21.9888H33.5655C33.3655 21.9888 33.2039 21.827 33.2039 21.6277V15.1071C33.2039 14.9077 33.3655 14.746 33.5655 14.746H44.7085C44.9082 14.746 45.0702 14.5842 45.0702 14.3849V11.0951C45.0702 10.8958 44.9082 10.734 44.7085 10.734H29.5425C29.243 10.734 29 10.9767 29 11.2757V25.4583C29 25.7577 29.243 26 29.5425 26H45.6383C45.8383 26 46 25.8386 46 25.6389V22.3499C46 22.1506 45.8383 21.9888 45.6383 21.9888ZM45.6383 0H29.4832C29.2163 0 29 0.216306 29 0.482444C29 2.43136 30.5822 4.01158 32.5345 4.01158H45.6383C45.8383 4.01158 46 3.84981 46 3.65047V0.361111C46 0.161778 45.8383 0 45.6383 0Z" fill="white"/>
<path fill-rule="evenodd" clip-rule="evenodd" d="M1.48372 34.6865V37.0562C1.48372 37.1356 1.54271 37.1998 1.61569 37.1998H5.53998C5.61262 37.1998 5.67195 37.2644 5.67195 37.3438V38.5991C5.67195 38.6785 5.61262 38.7431 5.53998 38.7431H1.61569C1.54271 38.7431 1.48372 38.8073 1.48372 38.8867V42.8564C1.48372 42.9354 1.42472 43 1.35175 43H0.13231C0.059335 43 0 42.9354 0 42.8564V33.1436C0 33.0642 0.059335 33 0.13231 33H5.86769C5.94067 33 6 33.0642 6 33.1436V34.3993C6 34.4783 5.94067 34.5429 5.86769 34.5429H1.61569C1.54271 34.5429 1.48372 34.6071 1.48372 34.6865Z" fill="white"/>
<path fill-rule="evenodd" clip-rule="evenodd" d="M10.5703 38.0002C10.5703 40.0168 12.044 41.5082 14 41.5082C15.942 41.5082 17.4157 40.0168 17.4157 38.0002C17.4157 35.9835 15.942 34.4918 14 34.4918C12.044 34.4918 10.5703 35.9835 10.5703 38.0002ZM19 38.0002C18.9864 40.8452 16.8236 43 14 43C11.176 43 9 40.8452 9 38.0002C9 35.1548 11.176 33 14 33C16.8236 33 18.9864 35.1548 19 38.0002Z" fill="white"/>
<path fill-rule="evenodd" clip-rule="evenodd" d="M29.8579 33C29.9365 33 30 33.0631 30 33.1412V38.913C30 41.6516 28.2755 43 25.9996 43C23.7241 43 22 41.6516 22 38.913V33.1412C22 33.0631 22.0635 33 22.1421 33H23.4829C23.5615 33 23.625 33.0631 23.625 33.1412V38.8145C23.625 40.7246 24.6287 41.4831 25.9996 41.4831C27.3709 41.4831 28.3743 40.7246 28.3743 38.8145V33.1412C28.3743 33.0631 28.4382 33 28.5164 33H29.8579Z" fill="white"/>
<path fill-rule="evenodd" clip-rule="evenodd" d="M42 33.1436V42.8564C42 42.9358 41.9387 43 41.8628 43H40.9177C40.4521 43 40.0181 42.7529 39.7652 42.3439L35.3926 35.2717L35.5429 38.8143V42.8564C35.5429 42.9358 35.4812 43 35.4053 43H34.1372C34.0613 43 34 42.9358 34 42.8564V33.1436C34 33.0646 34.0613 33 34.1372 33H35.0695C35.5348 33 35.9684 33.2468 36.2216 33.6553L40.594 40.7142L40.4574 37.1861V33.1436C40.4574 33.0646 40.5191 33 40.5947 33H41.8628C41.9387 33 42 33.0646 42 33.1436Z" fill="white"/>
<path fill-rule="evenodd" clip-rule="evenodd" d="M52.5009 38.0002C52.5009 35.9715 51.1341 34.5429 49.2635 34.5429H47.6328C47.5591 34.5429 47.4991 34.6071 47.4991 34.6865V41.3135C47.4991 41.3929 47.5591 41.4571 47.6328 41.4571H49.2635C51.1341 41.4571 52.5009 40.0429 52.5009 38.0002ZM54 38.0002C54 40.8856 51.9437 43 49.2501 43H46.1334C46.0596 43 46 42.9358 46 42.8564V33.1436C46 33.0646 46.0596 33 46.1334 33H49.2501C51.9568 33 54 35.1003 54 38.0002Z" fill="white"/>
<path fill-rule="evenodd" clip-rule="evenodd" d="M61.9076 38.5911L60.625 34.9545C60.5815 34.8309 60.4185 34.8309 60.375 34.9545L59.0924 38.5911C59.0592 38.685 59.1238 38.7856 59.2174 38.7856H61.7826C61.8762 38.7856 61.9408 38.685 61.9076 38.5911ZM62.4289 40.3145H58.5711C58.5155 40.3145 58.4658 40.3512 58.4461 40.4072L57.5673 42.9072C57.5473 42.9633 57.4976 43 57.4419 43H56.1338C56.0399 43 55.9753 42.8987 56.0091 42.8044L59.5097 33.0917C59.5294 33.0364 59.5791 33 59.6344 33H61.3656C61.4209 33 61.4703 33.0364 61.4903 33.0917L64.9909 42.8044C65.0247 42.8987 64.9601 43 64.8662 43H63.5581C63.5024 43 63.4527 42.9633 63.433 42.9072L62.5539 40.4072C62.5342 40.3512 62.4845 40.3145 62.4289 40.3145Z" fill="white"/>
<path fill-rule="evenodd" clip-rule="evenodd" d="M73.8579 34.5429H71.1171C71.0385 34.5429 70.9746 34.6071 70.9746 34.6865V42.8564C70.9746 42.9358 70.9111 43 70.8329 43H69.5199C69.4414 43 69.3779 42.9358 69.3779 42.8564V34.6865C69.3779 34.6071 69.3143 34.5429 69.2358 34.5429H67.3842C66.6198 34.5429 66 33.9165 66 33.1436C66 33.0646 66.0635 33 66.1421 33H73.8579C73.9365 33 74 33.0646 74 33.1436V34.3993C74 34.4787 73.9365 34.5429 73.8579 34.5429Z" fill="white"/>
<path fill-rule="evenodd" clip-rule="evenodd" d="M77.1779 33H78.8221C78.9205 33 79 33.0642 79 33.1436V42.8564C79 42.9354 78.9205 43 78.8221 43H77.1779C77.0795 43 77 42.9354 77 42.8564V33.1436C77 33.0642 77.0795 33 77.1779 33Z" fill="white"/>
<path fill-rule="evenodd" clip-rule="evenodd" d="M83.5703 38.0002C83.5703 40.0168 85.044 41.5082 87 41.5082C88.942 41.5082 90.4157 40.0168 90.4157 38.0002C90.4157 35.9835 88.942 34.4918 87 34.4918C85.044 34.4918 83.5703 35.9835 83.5703 38.0002ZM92 38.0002C91.986 40.8452 89.8236 43 87 43C84.176 43 82 40.8452 82 38.0002C82 35.1548 84.176 33 87 33C89.8236 33 91.986 35.1548 92 38.0002Z" fill="white"/>
<path fill-rule="evenodd" clip-rule="evenodd" d="M103 33.1436V42.8564C103 42.9358 102.939 43 102.863 43H101.917C101.452 43 101.018 42.7529 100.765 42.3439L96.3926 35.2717L96.5426 38.8143V42.8564C96.5426 42.9358 96.4809 43 96.4053 43H95.1372C95.0613 43 95 42.9358 95 42.8564V33.1436C95 33.0646 95.0613 33 95.1372 33H96.0695C96.5347 33 96.9684 33.2468 97.2216 33.6553L101.594 40.7142L101.457 37.1861V33.1436C101.457 33.0646 101.519 33 101.595 33H102.863C102.939 33 103 33.0646 103 33.1436Z" fill="white"/>
</g>
<defs>
<clipPath id="clip0_98_117">
<rect width="103" height="43" fill="white"/>
</clipPath>
</defs>
</svg>
