<svg width="220" height="221" viewBox="0 0 220 221" fill="none" xmlns="http://www.w3.org/2000/svg">
    <g clip-path="url(#clip0_7031_43755)">
        <path d="M131.854 64.5159C130.204 63.7229 128.513 63.0193 126.788 62.4083" stroke="#F3EBEA" stroke-width="6.75358" stroke-miterlimit="10" stroke-linecap="round" />
        <path d="M146.942 75.5871C145.69 74.2517 144.368 72.9847 142.979 71.7917" stroke="#F3EBEA" stroke-width="6.75358" stroke-miterlimit="10" stroke-linecap="round" />
        <path d="M157.012 91.3613C156.327 89.6639 155.551 88.0046 154.688 86.3907" stroke="#F3EBEA" stroke-width="6.75358" stroke-miterlimit="10" stroke-linecap="round" />
        <path d="M160.711 109.709C160.686 107.879 160.562 106.051 160.339 104.234" stroke="#DAD3D2" stroke-opacity="0.3" stroke-width="6.75358" stroke-miterlimit="10" stroke-linecap="round" />
        <path d="M157.527 128.15C158.165 126.435 158.709 124.686 159.159 122.911" stroke="#DAD3D2" stroke-opacity="0.3" stroke-width="6.75358" stroke-miterlimit="10" stroke-linecap="round" />
        <path d="M147.895 144.197C149.109 142.828 150.248 141.394 151.308 139.901" stroke="#F3EBEA" stroke-width="6.75358" stroke-miterlimit="10" stroke-linecap="round" />
        <path d="M133.121 155.682C134.748 154.843 136.329 153.918 137.856 152.909" stroke="#DAD3D2" stroke-opacity="0.3" stroke-width="6.75358" stroke-miterlimit="10" stroke-linecap="round" />
        <path d="M79.6658 151.476C85.484 155.745 92.1428 158.728 99.201 160.228C106.259 161.728 113.556 161.712 120.607 160.179" stroke="#F3EBEA" stroke-width="6.75358" stroke-miterlimit="10" stroke-linecap="round" />
        <path d="M66.8662 137.82C67.8513 139.362 68.9187 140.851 70.064 142.279" stroke="#F3EBEA" stroke-width="6.75358" stroke-miterlimit="10" stroke-linecap="round" />
        <path d="M59.8611 120.465C60.2223 122.259 60.68 124.033 61.2322 125.778" stroke="#DAD3D2" stroke-opacity="0.3" stroke-width="6.75358" stroke-miterlimit="10" stroke-linecap="round" />
        <path d="M66.1285 84.2082C61.9383 91.1899 59.4834 99.0746 58.9696 107.201" stroke="#F3EBEA" stroke-width="6.75358" stroke-miterlimit="10" stroke-linecap="round" />
        <path d="M95.1712 61.6318C87.3711 63.9685 80.245 68.1415 74.3906 73.8008" stroke="#DAD3D2" stroke-opacity="0.3" stroke-width="6.75358" stroke-miterlimit="10" stroke-linecap="round" />
        <path d="M113.786 59.645C111.961 59.5014 110.13 59.4562 108.301 59.5098" stroke="#F3EBEA" stroke-width="6.75358" stroke-miterlimit="10" stroke-linecap="round" />
        <path d="M126.508 48.223C124.896 47.7897 123.269 47.4192 121.629 47.1123" stroke="#F3EBEA" stroke-width="6.75358" stroke-miterlimit="10" stroke-linecap="round" />
        <path d="M156.386 65.9691C151.174 60.504 145.041 55.9982 138.268 52.6577" stroke="#DAD3D2" stroke-opacity="0.3" stroke-width="6.75358" stroke-miterlimit="10" stroke-linecap="round" />
        <path d="M174.078 114.139C174.859 100.654 171.38 87.2651 164.134 75.8661" stroke="#F3EBEA" stroke-width="6.75358" stroke-miterlimit="10" stroke-linecap="round" />
        <path d="M170.695 131.348C171.237 129.77 171.718 128.172 172.136 126.556" stroke="#DAD3D2" stroke-opacity="0.3" stroke-width="6.75358" stroke-miterlimit="10" stroke-linecap="round" />
        <path d="M136.058 169.219C148.39 163.708 158.677 154.46 165.465 142.781" stroke="#DAD3D2" stroke-opacity="0.3" stroke-width="6.75358" stroke-miterlimit="10" stroke-linecap="round" />
        <path d="M119.222 174.125C120.873 173.881 122.513 173.572 124.139 173.2" stroke="#F3EBEA" stroke-width="6.75358" stroke-miterlimit="10" stroke-linecap="round" />
        <path d="M84.7471 169.755C91.7052 172.691 99.1255 174.381 106.669 174.746" stroke="#DAD3D2" stroke-opacity="0.3" stroke-width="6.75358" stroke-miterlimit="10" stroke-linecap="round" />
        <path d="M69.6636 160.799C70.9687 161.838 72.3137 162.826 73.6956 163.761" stroke="#F3EBEA" stroke-width="6.75358" stroke-miterlimit="10" stroke-linecap="round" />
        <path d="M57.5604 148.107C58.5367 149.46 59.5653 150.775 60.6437 152.048" stroke="#F3EBEA" stroke-width="6.75358" stroke-miterlimit="10" stroke-linecap="round" />
        <path d="M49.3281 132.62C49.9032 134.186 50.539 135.729 51.234 137.246" stroke="#DAD3D2" stroke-opacity="0.3" stroke-width="6.75358" stroke-miterlimit="10" stroke-linecap="round" />
        <path d="M45.5827 115.483C45.714 117.147 45.9098 118.804 46.1698 120.452" stroke="#F3EBEA" stroke-width="6.75358" stroke-miterlimit="10" stroke-linecap="round" />
        <path d="M52.2912 81.388C48.8872 88.1295 46.6953 95.4172 45.8159 102.918" stroke="#DAD3D2" stroke-opacity="0.3" stroke-width="6.75358" stroke-miterlimit="10" stroke-linecap="round" />
        <path d="M62.2574 66.9549C61.1315 68.1861 60.0538 69.4605 59.0269 70.7754" stroke="#DAD3D2" stroke-opacity="0.3" stroke-width="6.75358" stroke-miterlimit="10" stroke-linecap="round" />
        <path d="M75.7465 55.7436C74.3301 56.6253 72.9486 57.5618 71.605 58.5508" stroke="#F3EBEA" stroke-width="6.75358" stroke-miterlimit="10" stroke-linecap="round" />
        <path d="M91.7604 48.5881C90.1587 49.055 88.5758 49.584 87.0151 50.1738" stroke="#DAD3D2" stroke-opacity="0.3" stroke-width="6.75358" stroke-miterlimit="10" stroke-linecap="round" />
        <path d="M109.106 46.017C107.438 46.0345 105.771 46.1168 104.109 46.2637" stroke="#F3EBEA" stroke-width="6.75358" stroke-miterlimit="10" stroke-linecap="round" />
        <path d="M147.36 42.1966C145.834 41.3558 144.279 40.5664 142.7 39.8298" stroke="#F3EBEA" stroke-width="6.75358" stroke-miterlimit="10" stroke-linecap="round" />
        <path d="M174.759 67.4749C170.33 60.7739 164.891 54.7983 158.635 49.7602" stroke="#DAD3D2" stroke-opacity="0.3" stroke-width="6.75358" stroke-miterlimit="10" stroke-linecap="round" />
        <path d="M182.035 139.495C185.887 129.925 187.799 119.686 187.66 109.371C187.522 99.0566 185.335 88.8723 181.228 79.4095" stroke="#F3EBEA" stroke-width="6.75358" stroke-miterlimit="10" stroke-linecap="round" />
        <path d="M160.246 169.74C166.364 164.536 171.641 158.417 175.888 151.599" stroke="#DAD3D2" stroke-opacity="0.3" stroke-width="6.75358" stroke-miterlimit="10" stroke-linecap="round" />
        <path d="M144.586 180.094C146.145 179.315 147.678 178.484 149.181 177.603" stroke="#DAD3D2" stroke-opacity="0.3" stroke-width="6.75358" stroke-miterlimit="10" stroke-linecap="round" />
        <path d="M108.215 188.285C116.246 188.447 124.253 187.365 131.953 185.079" stroke="#F3EBEA" stroke-width="6.75358" stroke-miterlimit="10" stroke-linecap="round" />
        <path d="M56.9761 167.659C67.5461 177.41 80.6097 184.044 94.7189 186.826" stroke="#DAD3D2" stroke-opacity="0.3" stroke-width="6.75358" stroke-miterlimit="10" stroke-linecap="round" />
        <path d="M44.8124 153.36C45.7734 154.814 46.7829 156.235 47.8392 157.622" stroke="#F3EBEA" stroke-width="6.75358" stroke-miterlimit="10" stroke-linecap="round" />
        <path d="M36.4202 136.562C37.0053 138.203 37.6453 139.825 38.3392 141.424" stroke="#F3EBEA" stroke-width="6.75358" stroke-miterlimit="10" stroke-linecap="round" />
        <path d="M32.6759 99.4751C31.5473 107.428 31.6558 115.507 32.9974 123.427" stroke="#DAD3D2" stroke-opacity="0.3" stroke-width="6.75358" stroke-miterlimit="10" stroke-linecap="round" />
        <path d="M37.536 81.3395C36.8853 82.9563 36.289 84.5945 35.7483 86.2513" stroke="#F3EBEA" stroke-width="6.75358" stroke-miterlimit="10" stroke-linecap="round" />
        <path d="M59.3218 51.0932C53.2034 56.2974 47.927 62.4169 43.6797 69.2344" stroke="#DAD3D2" stroke-opacity="0.3" stroke-width="6.75358" stroke-miterlimit="10" stroke-linecap="round" />
        <path d="M129.945 35.1871C119.981 32.5172 109.585 31.8534 99.3626 33.2342C89.1399 34.615 79.2933 38.0128 70.3945 43.2305" stroke="#DAD3D2" stroke-opacity="0.3" stroke-width="6.75358" stroke-miterlimit="10" stroke-linecap="round" />
        <path d="M200.404 121.991C203.214 100.003 197.934 77.7422 185.547 59.3585" stroke="#F3EBEA" stroke-width="6.75358" stroke-miterlimit="10" stroke-linecap="round" />
        <path d="M174.918 174.475C185.724 163.487 193.576 149.945 197.741 135.108" stroke="#F3EBEA" stroke-width="6.75358" stroke-miterlimit="10" stroke-linecap="round" />
        <path d="M159.625 186.977C161.413 185.813 163.16 184.586 164.862 183.3" stroke="#DAD3D2" stroke-opacity="0.3" stroke-width="6.75358" stroke-miterlimit="10" stroke-linecap="round" />
        <path d="M122.867 200.83C131.523 199.577 139.955 197.088 147.904 193.439" stroke="#F3EBEA" stroke-width="6.75358" stroke-miterlimit="10" stroke-linecap="round" />
        <path d="M83.6914 197.965C92.0736 200.463 100.771 201.744 109.517 201.769" stroke="#F3EBEA" stroke-width="6.75358" stroke-miterlimit="10" stroke-linecap="round" />
        <path d="M36.025 164.324C45.1194 176.765 57.2132 186.704 71.181 193.216" stroke="#DAD3D2" stroke-opacity="0.3" stroke-width="6.75358" stroke-miterlimit="10" stroke-linecap="round" />
        <path d="M38.1042 53.7664C27.1395 67.6415 20.4375 84.4008 18.8114 102.01C17.1852 119.62 20.705 137.323 28.9434 152.972" stroke="#DAD3D2" stroke-opacity="0.3" stroke-width="6.75358" stroke-miterlimit="10" stroke-linecap="round" />
        <path d="M51.9535 39.6811C50.3017 41.0316 48.6977 42.4396 47.1445 43.9023" stroke="#DAD3D2" stroke-opacity="0.3" stroke-width="6.75358" stroke-miterlimit="10" stroke-linecap="round" />
        <path d="M87.0007 21.9351C78.5306 24.1164 70.4176 27.5026 62.9102 31.9902" stroke="#DAD3D2" stroke-opacity="0.3" stroke-width="6.75358" stroke-miterlimit="10" stroke-linecap="round" />
        <path d="M106.551 19.1064C104.419 19.1819 102.29 19.3321 100.168 19.5566" stroke="#F3EBEA" stroke-width="6.75358" stroke-miterlimit="10" stroke-linecap="round" />
        <path d="M177.277 48.8391C162.337 32.4621 141.952 22.0756 119.922 19.6152" stroke="#F3EBEA" stroke-width="6.75358" stroke-miterlimit="10" stroke-linecap="round" />
        <path d="M158.053 17.3411C155.936 16.2434 153.782 15.2183 151.596 14.2675" stroke="#DAD3D2" stroke-opacity="0.3" stroke-width="6.75358" stroke-miterlimit="10" stroke-linecap="round" />
        <path d="M174.792 28.1593C172.921 26.6809 171 25.2667 169.033 23.9192" stroke="#DAD3D2" stroke-opacity="0.3" stroke-width="6.75358" stroke-miterlimit="10" stroke-linecap="round" />
        <path d="M200.706 58.2093C196.2 50.3605 190.696 43.1284 184.332 36.6932" stroke="#DAD3D2" stroke-opacity="0.3" stroke-width="6.75358" stroke-miterlimit="10" stroke-linecap="round" />
        <path d="M208.944 76.3595C208.169 74.1044 207.318 71.8762 206.391 69.6791" stroke="#F3EBEA" stroke-width="6.75358" stroke-miterlimit="10" stroke-linecap="round" />
        <path d="M214.492 115.65C214.944 106.611 214.224 97.5511 212.35 88.6968" stroke="#DAD3D2" stroke-opacity="0.3" stroke-width="6.75358" stroke-miterlimit="10" stroke-linecap="round" />
        <path d="M205.049 154.192C208.828 145.968 211.527 137.29 213.077 128.373" stroke="#F3EBEA" stroke-width="6.75358" stroke-miterlimit="10" stroke-linecap="round" />
        <path d="M166.254 198.744C179.531 190.256 190.723 178.885 198.999 165.475" stroke="#DAD3D2" stroke-opacity="0.3" stroke-width="6.75358" stroke-miterlimit="10" stroke-linecap="round" />
        <path d="M148.52 207.834C150.735 206.953 152.92 205.997 155.071 204.967" stroke="#DAD3D2" stroke-opacity="0.3" stroke-width="6.75358" stroke-miterlimit="10" stroke-linecap="round" />
        <path d="M109.539 215.252C118.59 215.273 127.605 214.123 136.36 211.829" stroke="#DAD3D2" stroke-opacity="0.3" stroke-width="6.75358" stroke-miterlimit="10" stroke-linecap="round" />
        <path d="M89.7031 213.311C92.0434 213.767 94.3987 214.144 96.7647 214.44" stroke="#F3EBEA" stroke-width="6.75358" stroke-miterlimit="10" stroke-linecap="round" />
        <path d="M70.5912 207.65C72.8027 208.541 75.0441 209.357 77.3113 210.096" stroke="#F3EBEA" stroke-width="6.75358" stroke-miterlimit="10" stroke-linecap="round" />
        <path d="M37.2616 186.115C43.797 192.376 51.1156 197.765 59.0349 202.147" stroke="#DAD3D2" stroke-opacity="0.3" stroke-width="6.75358" stroke-miterlimit="10" stroke-linecap="round" />
        <path d="M24.2481 171.023C25.6267 172.969 27.0711 174.867 28.5791 176.714" stroke="#DAD3D2" stroke-opacity="0.3" stroke-width="6.75358" stroke-miterlimit="10" stroke-linecap="round" />
        <path d="M14.3207 153.736C15.3061 155.907 16.3653 158.044 17.4964 160.143" stroke="#F3EBEA" stroke-width="6.75358" stroke-miterlimit="10" stroke-linecap="round" />
        <path d="M6.05029 95.247C3.77058 110.839 5.03507 126.745 9.74973 141.781" stroke="#DAD3D2" stroke-opacity="0.3" stroke-width="6.75358" stroke-miterlimit="10" stroke-linecap="round" />
        <path d="M10.7986 75.8871C10.0134 78.1386 9.30515 80.4162 8.67522 82.716" stroke="#DAD3D2" stroke-opacity="0.3" stroke-width="6.75358" stroke-miterlimit="10" stroke-linecap="round" />
        <path d="M30.7193 41.5706C24.7762 48.3965 19.7419 55.9632 15.7422 64.082" stroke="#F3EBEA" stroke-width="6.75358" stroke-miterlimit="10" stroke-linecap="round" />
        <path d="M45.1775 27.8504C43.2997 29.32 41.4725 30.8531 39.6992 32.4473" stroke="#DAD3D2" stroke-opacity="0.3" stroke-width="6.75358" stroke-miterlimit="10" stroke-linecap="round" />
        <path d="M61.9719 17.1168C59.8499 18.2043 57.7656 19.364 55.7227 20.5938" stroke="#F3EBEA" stroke-width="6.75358" stroke-miterlimit="10" stroke-linecap="round" />
        <path d="M139.566 9.89155C117.957 3.49048 94.8594 4.22367 73.6992 11.9824" stroke="#F3EBEA" stroke-width="6.75358" stroke-miterlimit="10" stroke-linecap="round" />
        <path d="M109.785 101.803C104.989 101.803 101.141 105.651 101.141 110.476C101.141 115.272 104.989 119.12 109.785 119.12C114.581 119.12 118.429 115.272 118.429 110.476C118.429 105.622 114.581 101.803 109.785 101.803ZM109.785 116.219C106.626 116.219 104.041 113.663 104.041 110.476C104.041 107.259 106.597 104.703 109.785 104.703C112.973 104.703 115.528 107.259 115.528 110.476C115.528 113.663 112.973 116.219 109.785 116.219Z" fill="#F3EBEA" />
        <path d="M121.619 102.434C120.441 102.434 119.465 103.439 119.465 104.559C119.465 105.765 120.441 106.684 121.619 106.684C122.767 106.655 123.744 105.736 123.744 104.559C123.744 103.41 122.767 102.434 121.619 102.434Z" fill="#F3EBEA" />
        <path d="M109.817 79.7461C109.817 79.7461 109.788 79.7461 109.817 79.7461C92.8445 79.7461 79.1172 93.4734 79.1172 110.417C79.1172 127.361 92.8445 141.088 109.788 141.088C126.732 141.088 140.459 127.361 140.459 110.417C140.459 93.5021 126.732 79.7748 109.817 79.7461ZM129.604 118.918C129.604 122.335 127.766 124.145 124.32 124.145H95.2281C91.7532 124.145 89.944 122.335 89.944 118.918V102.089C89.944 98.6714 91.7532 96.8622 95.2281 96.8622H99.421C100.685 96.8622 101.087 96.6324 101.862 95.8283L103.126 94.4785C103.958 93.5883 104.82 93.1575 106.457 93.1575H113.033C114.67 93.1575 115.532 93.5883 116.365 94.4785L117.628 95.8283C118.404 96.6324 118.806 96.8622 120.069 96.8622H124.32C127.795 96.8622 129.604 98.6714 129.604 102.089V118.918H129.604Z" fill="#F3EBEA" />
    </g>
    <defs>
        <clipPath id="clip0_7031_43755">
            <rect width="219.276" height="221" fill="white" />
        </clipPath>
    </defs>
</svg>
