<svg width="213" height="44" viewBox="0 0 213 44" fill="none" xmlns="http://www.w3.org/2000/svg">
<g clip-path="url(#clip0_28_2024)">
<path d="M13.2835 17.997L21.5009 9.68127L29.7213 18.0028L34.5028 13.1639L21.5017 0.00208021L8.50279 13.1573L13.2835 17.997Z" fill="#F0B90B"/>
<path d="M10.4215 21.9808L5.50293 17L0.583556 21.9799L5.50208 26.9607L10.4215 21.9808Z" fill="#F0B90B"/>
<path d="M13.2883 25.0054L21.5014 33.3227L29.7199 25.0028L34.5015 29.8398L34.4992 29.8425L21.5006 43.0021L8.50822 29.8447L8.50154 29.838L13.2883 25.0054Z" fill="#F0B90B"/>
<path d="M38.5826 26.9838L43.502 22.0039L38.5834 17.0231L33.6641 22.0031L38.5826 26.9838Z" fill="#F0B90B"/>
<path d="M26.498 21.9992L26.5001 21.9992L21.5029 17.0014L17.8093 20.6942L17.809 20.6942L17.3849 21.1186L16.5094 21.9939L16.5025 22.0008L16.5094 22.008L21.5021 27.0014L26.5001 22.0044L26.5025 22.0017L26.498 21.9992Z" fill="#F0B90B"/>
<path d="M50.5029 11.0039L60.8802 11.0048C63.4557 11.005 65.4033 11.6842 66.7231 13.0422C67.7445 14.094 68.255 15.3975 68.2548 16.9525L68.2548 17.0183C68.2548 17.6753 68.1757 18.256 68.0166 18.7595C67.8578 19.2638 67.6456 19.7177 67.3805 20.1229C67.116 20.5285 66.8085 20.8844 66.459 21.1906C66.1091 21.4976 65.7332 21.7606 65.3307 21.9791C66.6253 22.4835 67.6444 23.1677 68.3873 24.0331C69.1299 24.8989 69.5016 26.0983 69.5015 27.6313L69.5015 27.6967C69.5014 28.7484 69.3046 29.6682 68.9107 30.4571C68.5167 31.2453 67.9524 31.9027 67.2177 32.4285C66.483 32.9542 65.5995 33.3481 64.567 33.6111C63.5345 33.8738 62.3903 34.0049 61.1347 34.0048L50.501 34.0039L50.5029 11.0039ZM59.8419 20.3032C60.9297 20.3032 61.7935 20.1122 62.4328 19.7285C63.0725 19.3453 63.3924 18.7262 63.3925 17.8722L63.3925 17.8064C63.3925 17.0401 63.1151 16.4543 62.5609 16.0486C62.0063 15.6433 61.2066 15.4404 60.1621 15.4404L55.3002 15.4399L55.2997 20.3028L59.8419 20.3032ZM61.1527 29.5695C62.2402 29.5696 63.0927 29.3676 63.7117 28.962C64.33 28.5568 64.6395 27.9268 64.6396 27.0725L64.6396 27.007C64.6397 26.2403 64.3516 25.6326 63.776 25.1831C63.2001 24.7346 62.2727 24.5098 60.9931 24.5097L55.2994 24.5092L55.299 29.5694L61.1527 29.5695Z" fill="#F0B90B"/>
<path d="M75.5029 11.0068L80.5029 11.0073L80.501 34.0073L75.501 34.0068L75.5029 11.0068Z" fill="#F0B90B"/>
<path d="M88.5029 11.0078L93.0683 11.0082L103.614 25.1706L103.615 11.0091L108.503 11.0095L108.501 34.0095L104.289 34.0092L93.3894 19.387L93.3882 34.0082L88.501 34.0078L88.5029 11.0078Z" fill="#F0B90B"/>
<path d="M123.207 10.0104L127.799 10.0108L137.501 33.0116L132.293 33.0112L130.224 27.8892L120.65 27.8884L118.58 33.01L113.501 33.0096L123.207 10.0104ZM128.445 23.4517L125.438 16.046L122.43 23.4512L128.445 23.4517Z" fill="#F0B90B"/>
<path d="M142.503 11.0117L147.069 11.0121L157.614 25.1745L157.615 11.013L162.503 11.0134L162.501 34.0134L158.289 34.0131L147.39 19.3909L147.388 34.0121L142.501 34.0117L142.503 11.0117Z" fill="#F0B90B"/>
<path d="M180.616 34.0156C179.026 34.0155 177.551 33.7057 176.188 33.0872C174.826 32.4688 173.65 31.623 172.659 30.5508C171.668 29.479 170.894 28.2137 170.338 26.7551C169.78 25.2963 169.502 23.7382 169.502 22.0807L169.502 22.0146C169.502 20.3571 169.781 18.805 170.338 17.3572C170.895 15.9099 171.669 14.6391 172.66 13.5453C173.651 12.4516 174.838 11.5894 176.221 10.9598C177.603 10.3302 179.132 10.0155 180.803 10.0156C181.814 10.0157 182.738 10.1046 183.574 10.2809C184.41 10.4583 185.168 10.701 185.85 11.0104C186.531 11.3201 187.16 11.6958 187.738 12.1376C188.315 12.58 188.852 13.066 189.348 13.5965L186.314 17.342C185.467 16.5246 184.605 15.883 183.728 15.4192C182.851 14.9553 181.866 14.7229 180.772 14.7228C179.863 14.7228 179.022 14.9107 178.249 15.2863C177.475 15.6619 176.809 16.181 176.251 16.8438C175.694 17.5067 175.261 18.2749 174.951 19.1476C174.642 20.0209 174.487 20.9544 174.487 21.9487L174.487 22.0147C174.487 23.0091 174.641 23.9488 174.95 24.8322C175.26 25.7166 175.687 26.4898 176.235 27.1527C176.782 27.8157 177.442 28.3411 178.216 28.7279C178.991 29.115 179.842 29.3079 180.77 29.308C182.009 29.3081 183.056 29.0653 183.913 28.579C184.769 28.0935 185.621 27.4304 186.467 26.5903L189.501 29.8725C188.944 30.5135 188.365 31.0882 187.767 31.5959C187.169 32.1046 186.513 32.5407 185.801 32.9056C185.089 33.2698 184.309 33.5466 183.464 33.7338C182.617 33.9214 181.668 34.0157 180.616 34.0156Z" fill="#F0B90B"/>
<path d="M195.503 11.0166L212.342 11.018L212.342 15.5196L200.36 15.5186L200.359 20.1843L210.904 20.1852L210.904 24.6865L200.359 24.6856L200.359 29.5157L212.501 29.5167L212.501 34.018L195.501 34.0166L195.503 11.0166Z" fill="#F0B90B"/>
</g>
<defs>
<clipPath id="clip0_28_2024">
<rect width="212" height="43" fill="white" transform="translate(0.503906)"/>
</clipPath>
</defs>
</svg>
