<svg width="1440" height="984" viewBox="0 0 1440 984" fill="none" xmlns="http://www.w3.org/2000/svg">
<g opacity="0.4">
<path fill-rule="evenodd" clip-rule="evenodd" d="M177.303 632.668H1263.7L1700.98 983.164H-259.98L177.303 632.668ZM178.167 635.127L137.785 667.495H264.029L295.437 635.127H178.167ZM298.863 635.127L267.456 667.495H394.179L416.613 635.127H298.863ZM419.605 635.127L397.171 667.495H524.274L537.735 635.127H419.605ZM540.398 635.127L526.938 667.495H654.297L658.784 635.127H540.398ZM661.266 635.127L656.78 667.495H784.219L779.732 635.127H661.266ZM782.215 635.127L786.701 667.495H914.061L900.601 635.127H782.215ZM903.264 635.127L916.724 667.495H1043.83L1021.4 635.127H903.264ZM1024.39 635.127L1046.82 667.495H1173.54L1142.14 635.127H1024.39ZM1145.56 635.127L1176.97 667.495H1303.21L1262.83 635.127H1145.56ZM1306.28 669.954H1179.36L1216.61 708.347H1354.18L1306.28 669.954ZM1357.25 710.807H1219L1263.81 756.987H1414.87L1357.25 710.807ZM1417.94 759.446H1266.2L1320.94 815.865H1488.32L1417.94 759.446ZM1491.39 818.324H1323.33L1391.5 888.584H1579.05L1491.39 818.324ZM1582.12 891.043H1393.89L1480.89 980.705H1693.98L1582.12 891.043ZM1477.47 980.705L1390.46 891.043H1201.76L1263.91 980.705H1477.47ZM1260.92 980.705L1198.77 891.043H1009.69L1046.98 980.705H1260.92ZM1044.31 980.705L1007.03 891.043H817.69L830.119 980.705H1044.31ZM827.636 980.705L815.207 891.043H625.791L613.362 980.705H827.636ZM610.88 980.705L623.308 891.043H433.972L396.686 980.705H610.88ZM394.022 980.705L431.309 891.043H242.229L180.084 980.705H394.022ZM177.092 980.705L239.236 891.043H50.5367L-36.4659 980.705H177.092ZM-39.8925 980.705L47.11 891.043H-141.117L-252.98 980.705H-39.8925ZM-138.049 888.584H49.4963L117.673 818.324H-50.3917L-138.049 888.584ZM-47.3236 815.865H120.059L174.804 759.446H23.0647L-47.3236 815.865ZM26.1329 756.987H177.19L222.001 710.807H83.7485L26.1329 756.987ZM86.8166 708.347H224.388L261.643 669.954H134.717L86.8166 708.347ZM265.069 669.954L227.814 708.347H365.863L392.474 669.954H265.069ZM395.466 669.954L368.856 708.347H507.285L523.251 669.954H395.466ZM525.915 669.954L509.948 708.347H648.634L653.956 669.954H525.915ZM656.439 669.954L651.117 708.347H789.882L784.56 669.954H656.439ZM787.042 669.954L792.364 708.347H931.05L915.084 669.954H787.042ZM917.747 669.954L933.714 708.347H1072.15L1045.53 669.954H917.747ZM1048.53 669.954L1075.14 708.347H1213.19L1175.93 669.954H1048.53ZM1215.57 710.807H1076.84L1108.85 756.987H1260.38L1215.57 710.807ZM1262.77 759.446H1110.55L1149.66 815.865H1317.51L1262.77 759.446ZM1319.9 818.324H1151.36L1200.06 888.584H1388.08L1319.9 818.324ZM1197.07 888.584L1148.37 818.324H979.449L1008.67 888.584H1197.07ZM1006 888.584L976.785 818.324H807.609L817.349 888.584H1006ZM814.866 888.584L805.127 818.324H635.872L626.132 888.584H814.866ZM623.649 888.584L633.389 818.324H464.213L434.995 888.584H623.649ZM432.332 888.584L461.55 818.324H292.63L243.933 888.584H432.332ZM240.941 888.584L289.638 818.324H121.099L52.9229 888.584H240.941ZM123.486 815.865H291.343L330.446 759.446H178.231L123.486 815.865ZM180.617 756.987H332.151L364.159 710.807H225.428L180.617 756.987ZM367.151 710.807L335.143 756.987H487.058L506.262 710.807H367.151ZM508.926 710.807L489.721 756.987H641.891L648.293 710.807H508.926ZM650.776 710.807L644.374 756.987H796.624L790.223 710.807H650.776ZM792.705 710.807L799.107 756.987H951.278L932.073 710.807H792.705ZM934.736 710.807L953.941 756.987H1105.86L1073.85 710.807H934.736ZM1107.56 759.446H954.964L978.426 815.865H1146.67L1107.56 759.446ZM975.762 815.865L952.3 759.446H799.448L807.269 815.865H975.762ZM804.786 815.865L796.965 759.446H644.033L636.213 815.865H804.786ZM633.73 815.865L641.55 759.446H488.698L465.236 815.865H633.73ZM462.573 815.865L486.035 759.446H333.439L294.335 815.865H462.573Z" fill="url(#paint0_linear_12_153)" fill-opacity="0.1"/>
<path fill-rule="evenodd" clip-rule="evenodd" d="M-260 -201L1701 -201L1263.69 146.977L177.306 146.977L-260 -201ZM-252.96 -198.541L-141.119 -109.546L47.0959 -109.546L-39.8893 -198.541L-252.96 -198.541ZM-36.4505 -198.541L50.5347 -109.546L239.227 -109.546L177.094 -198.541L-36.4505 -198.541ZM180.094 -198.541L242.226 -109.546L431.305 -109.546L394.026 -198.541L180.094 -198.541ZM396.692 -198.541L433.972 -109.546L623.309 -109.546L610.882 -198.541L396.692 -198.541ZM613.366 -198.541L625.792 -109.546L815.21 -109.546L827.637 -198.541L613.366 -198.541ZM830.12 -198.541L817.693 -109.546L1007.03 -109.546L1044.31 -198.541L830.12 -198.541ZM1046.98 -198.541L1009.7 -109.546L1198.77 -109.546L1260.91 -198.541L1046.98 -198.541ZM1263.91 -198.541L1201.77 -109.546L1390.47 -109.546L1477.45 -198.541L1263.91 -198.541ZM1480.89 -198.541L1393.9 -109.546L1582.12 -109.546L1693.96 -198.541L1480.89 -198.541ZM1579.03 -107.087L1391.5 -107.087L1323.34 -37.3519L1491.39 -37.3518L1579.03 -107.087ZM1488.3 -34.8927L1320.94 -34.8927L1266.21 21.0978L1417.94 21.0979L1488.3 -34.8927ZM1414.85 23.5571L1263.81 23.557L1219.01 69.3852L1357.26 69.3853L1414.85 23.5571ZM1354.16 71.8445L1216.61 71.8444L1179.37 109.943L1306.29 109.943L1354.16 71.8445ZM1303.19 112.403L1176.97 112.403L1145.58 144.518H1262.84L1303.19 112.403ZM1142.14 144.518L1173.53 112.403H1046.82L1024.4 144.518L1142.14 144.518ZM1021.4 144.518L1043.82 112.403L916.724 112.403L903.271 144.518H1021.4ZM900.604 144.518L914.057 112.403H786.702L782.218 144.518H900.604ZM779.735 144.518L784.219 112.403L656.783 112.403L661.267 144.518L779.735 144.518ZM658.784 144.518L654.3 112.403H526.944L540.397 144.518H658.784ZM537.731 144.518L524.278 112.403L397.181 112.403L419.602 144.518H537.731ZM416.603 144.518L394.181 112.403H267.471L298.861 144.518L416.603 144.518ZM295.423 144.518L264.033 112.403L137.806 112.403L178.165 144.518H295.423ZM134.715 109.943L261.629 109.943L224.39 71.8444L86.8358 71.8443L134.715 109.943ZM83.7453 69.3851L221.987 69.3852L177.193 23.557L26.1526 23.5569L83.7453 69.3851ZM23.0621 21.0977L174.79 21.0978L120.063 -34.8928L-47.3018 -34.8928L23.0621 21.0977ZM-50.3923 -37.352L117.66 -37.352L49.4996 -107.087L-138.029 -107.087L-50.3923 -37.352ZM52.9384 -107.087L121.099 -37.352L289.629 -37.352L240.944 -107.087L52.9384 -107.087ZM243.943 -107.087L292.629 -37.352L461.547 -37.3519L432.335 -107.087L243.943 -107.087ZM435.002 -107.087L464.213 -37.3519L633.389 -37.3519L623.652 -107.087L435.002 -107.087ZM626.135 -107.087L635.873 -37.3519H805.129L814.867 -107.087L626.135 -107.087ZM817.35 -107.087L807.613 -37.3519L976.789 -37.3519L1006 -107.087L817.35 -107.087ZM1008.67 -107.087L979.455 -37.3519L1148.37 -37.3519L1197.06 -107.087L1008.67 -107.087ZM1200.06 -107.087L1151.37 -37.3519L1319.9 -37.3519L1388.06 -107.087L1200.06 -107.087ZM1317.5 -34.8927L1149.65 -34.8927L1110.56 21.0978H1262.77L1317.5 -34.8927ZM1260.37 23.557H1108.85L1076.85 69.3852H1215.58L1260.37 23.557ZM1213.17 71.8444H1075.13L1048.54 109.943H1175.93L1213.17 71.8444ZM1045.54 109.943L1072.14 71.8444L933.713 71.8444L917.754 109.943L1045.54 109.943ZM915.087 109.943L931.047 71.8444L792.365 71.8444L787.046 109.943H915.087ZM784.562 109.943L789.882 71.8444H651.12L656.44 109.943L784.562 109.943ZM653.956 109.943L648.637 71.8444L509.955 71.8444L525.914 109.943H653.956ZM523.248 109.943L507.288 71.8444L368.865 71.8444L395.464 109.943L523.248 109.943ZM392.464 109.943L365.865 71.8444H227.829L265.068 109.943H392.464ZM225.425 69.3852H364.149L332.153 23.557H180.632L225.425 69.3852ZM178.228 21.0978H330.436L291.346 -34.8928L123.502 -34.8928L178.228 21.0978ZM294.345 -34.8928L333.436 21.0978L486.031 21.0978L462.577 -34.8927L294.345 -34.8928ZM465.243 -34.8927L488.697 21.0978L641.551 21.0978L633.733 -34.8927L465.243 -34.8927ZM636.216 -34.8927L644.034 21.0978H796.968L804.786 -34.8927H636.216ZM807.269 -34.8927L799.451 21.0978L952.304 21.0978L975.758 -34.8927L807.269 -34.8927ZM978.425 -34.8927L954.971 21.0978L1107.56 21.0978L1146.65 -34.8927L978.425 -34.8927ZM1105.85 23.557L953.94 23.557L934.743 69.3852L1073.85 69.3852L1105.85 23.557ZM932.077 69.3852L951.274 23.557L799.108 23.557L792.709 69.3852L932.077 69.3852ZM790.226 69.3852L796.625 23.557H644.377L650.776 69.3852H790.226ZM648.293 69.3852L641.894 23.557L489.727 23.557L508.925 69.3852L648.293 69.3852ZM506.258 69.3852L487.061 23.557L335.153 23.557L367.148 69.3852L506.258 69.3852Z" fill="url(#paint1_linear_12_153)" fill-opacity="0.1"/>
<path fill-rule="evenodd" clip-rule="evenodd" d="M175.174 144.519H1264.6V635.128H175.174V144.519ZM177.633 146.978V267.068H295.674V146.978H177.633ZM298.134 146.978V267.068H417.405V146.978H298.134ZM419.864 146.978V267.068H536.675V146.978H419.864ZM539.135 146.978V267.068H658.406V146.978H539.135ZM660.865 146.978V267.068H778.906V146.978H660.865ZM781.365 146.978V267.068H900.636V146.978H781.365ZM903.096 146.978V267.068H1019.91V146.978H903.096ZM1022.37 146.978V267.068H1141.64V146.978H1022.37ZM1144.1 146.978V267.068H1262.14V146.978H1144.1ZM1262.14 269.527H1144.1V388.39H1262.14V269.527ZM1262.14 390.849H1144.1V510.939H1262.14V390.849ZM1262.14 513.398H1144.1V632.26H1262.14V513.398ZM1141.64 632.26V513.398H1022.37V632.26H1141.64ZM1019.91 632.26V513.398H903.096V632.26H1019.91ZM900.636 632.26V513.398H781.365V632.26H900.636ZM778.906 632.26V513.398H660.865V632.26H778.906ZM658.406 632.26V513.398H539.135V632.26H658.406ZM536.675 632.26V513.398H419.864V632.26H536.675ZM417.405 632.26V513.398H298.134V632.26H417.405ZM295.674 632.26V513.398H177.633V632.26H295.674ZM177.633 510.939H295.674V390.849H177.633V510.939ZM177.633 388.39H295.674V269.527H177.633V388.39ZM298.134 269.527V388.39H417.405V269.527H298.134ZM419.864 269.527V388.39H536.675V269.527H419.864ZM539.135 269.527V388.39H658.406V269.527H539.135ZM660.865 269.527V388.39H778.906V269.527H660.865ZM781.365 269.527V388.39H900.636V269.527H781.365ZM903.096 269.527V388.39H1019.91V269.527H903.096ZM1022.37 269.527V388.39H1141.64V269.527H1022.37ZM1141.64 390.849H1022.37V510.939H1141.64V390.849ZM1019.91 510.939V390.849H903.096V510.939H1019.91ZM900.636 510.939V390.849H781.365V510.939H900.636ZM778.906 510.939V390.849H660.865V510.939H778.906ZM658.406 510.939V390.849H539.135V510.939H658.406ZM536.675 510.939V390.849H419.864V510.939H536.675ZM417.405 510.939V390.849H298.134V510.939H417.405Z" fill="#F4E8DC" fill-opacity="0.1"/>
</g>
<defs>
<linearGradient id="paint0_linear_12_153" x1="720.5" y1="632.668" x2="720.5" y2="983.164" gradientUnits="userSpaceOnUse">
<stop stop-color="#F4E8DC"/>
<stop offset="1" stop-color="#F4E8DC" stop-opacity="0"/>
</linearGradient>
<linearGradient id="paint1_linear_12_153" x1="720.5" y1="-110.009" x2="720.5" y2="146.977" gradientUnits="userSpaceOnUse">
<stop stop-color="#F4E8DC" stop-opacity="0"/>
<stop offset="1" stop-color="#F4E8DC"/>
</linearGradient>
</defs>
</svg>
