<svg width="1440" height="874" viewBox="0 0 1440 874" fill="none" xmlns="http://www.w3.org/2000/svg">
<rect width="1440" height="874" fill="#2C3034"/>
<path d="M132 72H676C684.837 72 692 79.1634 692 88V380H148C139.163 380 132 372.837 132 364V72Z" fill="#FD84E3"/>
<path d="M-428 -66C-428 -74.8366 -420.837 -82 -412 -82H116C124.837 -82 132 -74.8366 132 -66V72H-412C-420.837 72 -428 64.8366 -428 56V-66Z" fill="#FDBF1C"/>
<path d="M692 380H1252V534H708C699.163 534 692 526.837 692 518V380Z" fill="#FDBF1C"/>
<path d="M1252 -0.999996C1252 -9.83655 1259.16 -17 1268 -17H1796C1804.84 -17 1812 -9.83656 1812 -1V364C1812 372.837 1804.84 380 1796 380H1252V-0.999996Z" fill="#FDBF1C"/>
<path d="M-428 428C-428 419.163 -420.837 412 -412 412H116C124.837 412 132 419.163 132 428V566H-412C-420.837 566 -428 558.837 -428 550V428Z" fill="#FDBF1C"/>
<path d="M132 566H676C684.837 566 692 573.163 692 582V720H148C139.163 720 132 712.837 132 704V566Z" fill="#FDBF1C"/>
<rect x="692" y="720" width="560" height="154" rx="16" fill="#FD84E3"/>
<path d="M1252 534H1796C1804.84 534 1812 541.163 1812 550V672C1812 680.837 1804.84 688 1796 688H1268C1259.16 688 1252 680.837 1252 672V534Z" fill="#FDBF1C"/>
</svg>
