<svg width="320" height="73" viewBox="0 0 320 73" fill="none" xmlns="http://www.w3.org/2000/svg">
    <g clip-path="url(#clip0_7031_44092)">
        <path d="M42.3378 61.8981L42.4572 61.9574L42.5903 61.9493L102.217 58.3311L96.8776 67.9625L36.7487 71.6109L1.01134 53.877L6.44013 44.0844L42.3378 61.8981ZM53.4023 21.0139L51.47 11.8492L56.6637 2.16953L63.6759 25.6566L53.4023 21.0139ZM44.9122 40.7258L21.8937 42.3139L4.29297 33.7071L9.75934 23.8545L44.9122 40.7258Z" fill="#2C3034" stroke="#FDBF1E" />
        <path d="M42.6809 60.9445L7.85306 43.768L45.6448 41.4823L47.5265 41.3685L45.8357 40.5347L10.4542 23.0883L27.3326 8.79944L63.7774 26.7151L64.7855 27.2106L64.479 26.1299L57.5816 1.80785L91.4798 18.4237L102.448 57.3162L42.6809 60.9445Z" fill="#FDBF1E" stroke="#FDBF1E" />
        <path d="M137.772 66.5234V47.8837H155.322V66.5234H168.485V17.5488H155.322V36.1885H137.772V17.5488H124.609V66.5234H137.772Z" fill="#F3EBEA" />
        <path d="M211.638 66.5234V54.8279H187.288V47.8837H207.982V36.1885H187.288V29.2443H211.638V17.5488H174.125V66.5234H211.638Z" fill="#F3EBEA" />
        <path d="M230.159 66.5234V48.9803H231.182C235.205 48.9803 237.033 50.2229 239.006 53.4391L247.122 66.5234H262.114L255.094 55.4858C252.609 51.6117 250.415 48.4684 245.37 47.2261C253.704 46.4949 260.066 42.3286 260.066 32.8991C260.066 22.0809 251.877 17.5488 240.47 17.5488H216.996V66.5234H230.159ZM240.616 29.2443C244.344 29.2443 246.172 30.7792 246.172 33.8493C246.172 36.8461 244.344 38.4545 240.616 38.4545H230.159V29.2443H240.616Z" fill="#F3EBEA" />
        <path d="M302.428 66.5234V54.8279H278.075V47.8837H298.769V36.1885H278.075V29.2443H302.428V17.5488H264.914V66.5234H302.428Z" fill="#F3EBEA" />
        <path d="M319.247 66.523V54.0234H306.086V66.523H319.247Z" fill="#F3EBEA" />
        <path d="M319.247 66.523V54.0234H306.086V66.523H319.247Z" fill="#FD84E3" />
    </g>
    <defs>
        <clipPath id="clip0_7031_44092">
            <rect width="320" height="73" fill="white" />
        </clipPath>
    </defs>
</svg>
