<svg width="96" height="21" viewBox="0 0 96 21" fill="none" xmlns="http://www.w3.org/2000/svg">
    <g clip-path="url(#clip0_7747_53282)">
        <path d="M42.3767 17.6726V12.1834H47.5618V17.6726H51.4507V3.25H47.5618V8.73924H42.3767V3.25H38.4878V17.6726H42.3767Z" fill="#F3EBEA" />
        <path d="M64.2005 17.6726V14.2284H57.0061V12.1834H63.1203V8.73924H57.0061V6.69424H64.2005V3.25H53.1172V17.6726H64.2005Z" fill="#F3EBEA" />
        <path d="M69.6715 17.6726V12.5063H69.974C71.1625 12.5063 71.7025 12.8723 72.2855 13.8194L74.6835 17.6726H79.1129L77.0386 14.4222C76.3045 13.2813 75.6562 12.3556 74.1657 11.9897C76.6282 11.7744 78.5076 10.5475 78.5076 7.77055C78.5076 4.58465 76.0881 3.25 72.7182 3.25H65.7827V17.6726H69.6715ZM72.7611 6.69424C73.8627 6.69424 74.4027 7.14625 74.4027 8.05036C74.4027 8.93292 73.8627 9.40657 72.7611 9.40657H69.6715V6.69424H72.7611Z" fill="#F3EBEA" />
        <path d="M91.0233 17.6726V14.2284H83.8285V12.1834H89.9424V8.73924H83.8285V6.69424H91.0233V3.25H79.9399V17.6726H91.0233Z" fill="#F3EBEA" />
        <path d="M95.992 17.6713V13.9902H92.1035V17.6713H95.992Z" fill="#F3EBEA" />
        <path d="M95.992 17.6713V13.9902H92.1035V17.6713H95.992Z" fill="#FD84E3" />
        <path d="M12.4094 17.9839L12.4472 18.0026L12.4893 18L30.0859 16.9357L28.5213 19.7488L10.7648 20.8227L0.219353 15.6066L1.81243 12.7423L12.4094 17.9839ZM15.6923 5.92559L15.1235 3.23645L16.6438 0.412307L18.701 7.28084L15.6923 5.92559ZM13.1314 11.7304L6.37588 12.1949L1.18894 9.66669L2.79315 6.78463L13.1314 11.7304Z" fill="#2C3034" stroke="#FDBF1E" stroke-width="0.316981" />
        <path d="M30.3658 16.7603L12.4856 17.8422L1.66113 12.5211L13.3825 11.8144L2.727 6.57728L7.95951 2.16189L18.8139 7.48044L16.6857 0L27.0576 5.06758L30.3658 16.7603Z" fill="#FDBF1C" />
    </g>
    <defs>
        <clipPath id="clip0_7747_53282">
            <rect width="96" height="21" fill="white" />
        </clipPath>
    </defs>
</svg>
