<svg width="179" height="40" viewBox="0 0 179 40" fill="none" xmlns="http://www.w3.org/2000/svg">
<path fill-rule="evenodd" clip-rule="evenodd" d="M28.5678 6.12377L31.8709 0L36.2006 14.4265L29.7091 11.5082L28.5678 6.12377ZM5.20901 12.5382L1.85098 18.5591L12.1185 23.5537L26.2498 22.5839L5.20901 12.5382ZM3.33752 23.8917L0 29.8806L20.4995 40L54.6617 37.938L57.9992 31.9491L23.8371 34.0113L3.33752 23.8917Z" fill="#2C3034"/>
<path d="M58 31.9383L23.7404 34L3 23.86L25.459 22.5135L5.04226 12.5336L15.0681 4.11968L35.8658 14.2547L31.788 0L51.6614 9.65673L58 31.9383Z" fill="#FDBF1C"/>
<path d="M77.5001 36V25.7238H87.4999V36H95V9H87.4999V19.2762H77.5001V9H70V36H77.5001Z" fill="white"/>
<path d="M119 36V29.5522H105.369V25.7238H116.953V19.2762H105.369V15.4478H119V9H98V36H119Z" fill="white"/>
<path d="M129.293 36V26.3284H129.861C132.089 26.3284 133.102 27.0135 134.196 28.7866L138.693 36H147L143.11 29.9149C141.733 27.7791 140.517 26.0462 137.722 25.3613C142.34 24.9582 145.865 22.6613 145.865 17.4627C145.865 11.4985 141.327 9 135.007 9H122V36H129.293ZM135.088 15.4478C137.154 15.4478 138.166 16.294 138.166 17.9865C138.166 19.6387 137.154 20.5254 135.088 20.5254H129.293V15.4478H135.088Z" fill="white"/>
<path d="M170 36V29.5522H156.368V25.7238H167.952V19.2762H156.368V15.4478H170V9H149V36H170Z" fill="white"/>
<path d="M179 37V30H172V37H179Z" fill="#2C3034"/>
<path d="M179 37V30H172V37H179Z" fill="#FD84E3"/>
</svg>
