<svg width="111" height="47" viewBox="0 0 111 47" fill="none" xmlns="http://www.w3.org/2000/svg">
<path d="M19.3305 15L22.5085 4.92H24.9795L28.1575 15H26.4215L23.5375 5.956H23.9155L21.0665 15H19.3305ZM21.1015 12.816V11.241H26.3935V12.816H21.1015ZM32.2581 15.217C31.6981 15.217 31.2361 15.1237 30.8721 14.937C30.5081 14.7503 30.2187 14.5123 30.0041 14.223C29.7894 13.9337 29.6307 13.6257 29.5281 13.299C29.4254 12.9723 29.3577 12.6643 29.3251 12.375C29.2971 12.081 29.2831 11.843 29.2831 11.661V7.44H30.9911V11.08C30.9911 11.3133 31.0074 11.577 31.0401 11.871C31.0727 12.1603 31.1474 12.4403 31.2641 12.711C31.3854 12.977 31.5627 13.1963 31.7961 13.369C32.0341 13.5417 32.3537 13.628 32.7551 13.628C32.9697 13.628 33.1821 13.593 33.3921 13.523C33.6021 13.453 33.7911 13.334 33.9591 13.166C34.1317 12.9933 34.2694 12.7577 34.3721 12.459C34.4747 12.1603 34.5261 11.7823 34.5261 11.325L35.5271 11.752C35.5271 12.396 35.4011 12.9793 35.1491 13.502C34.9017 14.0247 34.5354 14.4423 34.0501 14.755C33.5647 15.063 32.9674 15.217 32.2581 15.217ZM34.7291 15V12.655H34.5261V7.44H36.2201V15H34.7291ZM41.2177 15.21C40.5224 15.21 39.9157 15.035 39.3977 14.685C38.8797 14.335 38.4784 13.859 38.1937 13.257C37.9091 12.655 37.7667 11.976 37.7667 11.22C37.7667 10.4547 37.9091 9.77333 38.1937 9.176C38.4831 8.574 38.8914 8.10033 39.4187 7.755C39.9461 7.405 40.5667 7.23 41.2807 7.23C41.9994 7.23 42.6014 7.405 43.0867 7.755C43.5767 8.10033 43.9477 8.574 44.1997 9.176C44.4517 9.778 44.5777 10.4593 44.5777 11.22C44.5777 11.9713 44.4517 12.6503 44.1997 13.257C43.9477 13.859 43.5721 14.335 43.0727 14.685C42.5734 15.035 41.9551 15.21 41.2177 15.21ZM41.4767 13.698C41.9294 13.698 42.2934 13.5953 42.5687 13.39C42.8487 13.18 43.0517 12.8883 43.1777 12.515C43.3084 12.1417 43.3737 11.71 43.3737 11.22C43.3737 10.7253 43.3084 10.2937 43.1777 9.925C43.0517 9.55167 42.8534 9.26233 42.5827 9.057C42.3121 8.847 41.9621 8.742 41.5327 8.742C41.0801 8.742 40.7067 8.854 40.4127 9.078C40.1187 9.29733 39.9017 9.596 39.7617 9.974C39.6217 10.3473 39.5517 10.7627 39.5517 11.22C39.5517 11.682 39.6194 12.102 39.7547 12.48C39.8947 12.8533 40.1071 13.1497 40.3917 13.369C40.6764 13.5883 41.0381 13.698 41.4767 13.698ZM43.3737 15V9.694H43.1637V4.92H44.8647V15H43.3737ZM46.9674 6.292V4.745H48.6544V6.292H46.9674ZM46.9674 15V7.44H48.6544V15H46.9674ZM55.1822 15C54.6828 15.0933 54.1928 15.133 53.7122 15.119C53.2362 15.1097 52.8092 15.0233 52.4312 14.86C52.0532 14.692 51.7662 14.4283 51.5702 14.069C51.3975 13.7423 51.3065 13.4087 51.2972 13.068C51.2878 12.7273 51.2832 12.3423 51.2832 11.913V5.34H52.9632V11.815C52.9632 12.1183 52.9655 12.3843 52.9702 12.613C52.9795 12.8417 53.0285 13.0283 53.1172 13.173C53.2852 13.453 53.5535 13.6093 53.9222 13.642C54.2908 13.6747 54.7108 13.656 55.1822 13.586V15ZM49.9112 8.763V7.44H55.1822V8.763H49.9112ZM59.862 15.21C59.0967 15.21 58.4247 15.0443 57.846 14.713C57.2673 14.3817 56.8147 13.922 56.488 13.334C56.166 12.746 56.005 12.0693 56.005 11.304C56.005 10.478 56.1637 9.76167 56.481 9.155C56.7983 8.54367 57.2393 8.07 57.804 7.734C58.3687 7.398 59.022 7.23 59.764 7.23C60.548 7.23 61.213 7.41433 61.759 7.783C62.3097 8.147 62.718 8.66267 62.984 9.33C63.25 9.99733 63.3503 10.7837 63.285 11.689H61.612V11.073C61.6073 10.2517 61.4627 9.652 61.178 9.274C60.8933 8.896 60.4453 8.707 59.834 8.707C59.1433 8.707 58.63 8.92167 58.294 9.351C57.958 9.77567 57.79 10.3987 57.79 11.22C57.79 11.9853 57.958 12.578 58.294 12.998C58.63 13.418 59.12 13.628 59.764 13.628C60.1793 13.628 60.5363 13.537 60.835 13.355C61.1383 13.1683 61.3717 12.9 61.535 12.55L63.201 13.054C62.9117 13.7353 62.4637 14.265 61.857 14.643C61.255 15.021 60.59 15.21 59.862 15.21ZM57.258 11.689V10.415H62.459V11.689H57.258ZM67.8779 15.21C67.1825 15.21 66.5759 15.035 66.0579 14.685C65.5399 14.335 65.1385 13.859 64.8539 13.257C64.5692 12.655 64.4269 11.976 64.4269 11.22C64.4269 10.4547 64.5692 9.77333 64.8539 9.176C65.1432 8.574 65.5515 8.10033 66.0789 7.755C66.6062 7.405 67.2269 7.23 67.9409 7.23C68.6595 7.23 69.2615 7.405 69.7469 7.755C70.2369 8.10033 70.6079 8.574 70.8599 9.176C71.1119 9.778 71.2379 10.4593 71.2379 11.22C71.2379 11.9713 71.1119 12.6503 70.8599 13.257C70.6079 13.859 70.2322 14.335 69.7329 14.685C69.2335 15.035 68.6152 15.21 67.8779 15.21ZM68.1369 13.698C68.5895 13.698 68.9535 13.5953 69.2289 13.39C69.5089 13.18 69.7119 12.8883 69.8379 12.515C69.9685 12.1417 70.0339 11.71 70.0339 11.22C70.0339 10.7253 69.9685 10.2937 69.8379 9.925C69.7119 9.55167 69.5135 9.26233 69.2429 9.057C68.9722 8.847 68.6222 8.742 68.1929 8.742C67.7402 8.742 67.3669 8.854 67.0729 9.078C66.7789 9.29733 66.5619 9.596 66.4219 9.974C66.2819 10.3473 66.2119 10.7627 66.2119 11.22C66.2119 11.682 66.2795 12.102 66.4149 12.48C66.5549 12.8533 66.7672 13.1497 67.0519 13.369C67.3365 13.5883 67.6982 13.698 68.1369 13.698ZM70.0339 15V9.694H69.8239V4.92H71.5249V15H70.0339ZM79.9232 15.21C79.1859 15.21 78.5676 15.035 78.0682 14.685C77.5689 14.335 77.1932 13.859 76.9412 13.257C76.6892 12.6503 76.5632 11.9713 76.5632 11.22C76.5632 10.4593 76.6892 9.778 76.9412 9.176C77.1932 8.574 77.5619 8.10033 78.0472 7.755C78.5372 7.405 79.1416 7.23 79.8602 7.23C80.5742 7.23 81.1926 7.405 81.7152 7.755C82.2426 8.10033 82.6509 8.574 82.9402 9.176C83.2296 9.77333 83.3742 10.4547 83.3742 11.22C83.3742 11.976 83.2319 12.655 82.9472 13.257C82.6626 13.859 82.2612 14.335 81.7432 14.685C81.2252 15.035 80.6186 15.21 79.9232 15.21ZM76.2762 15V4.92H77.9772V9.694H77.7672V15H76.2762ZM79.6642 13.698C80.1029 13.698 80.4646 13.5883 80.7492 13.369C81.0339 13.1497 81.2439 12.8533 81.3792 12.48C81.5192 12.102 81.5892 11.682 81.5892 11.22C81.5892 10.7627 81.5192 10.3473 81.3792 9.974C81.2392 9.596 81.0222 9.29733 80.7282 9.078C80.4342 8.854 80.0609 8.742 79.6082 8.742C79.1789 8.742 78.8289 8.847 78.5582 9.057C78.2876 9.26233 78.0869 9.55167 77.9562 9.925C77.8302 10.2937 77.7672 10.7253 77.7672 11.22C77.7672 11.71 77.8302 12.1417 77.9562 12.515C78.0869 12.8883 78.2899 13.18 78.5652 13.39C78.8452 13.5953 79.2116 13.698 79.6642 13.698ZM85.4053 18.36L86.8613 14.363L86.8893 15.539L83.5923 7.44H85.3493L87.6873 13.432H87.2393L89.5143 7.44H91.2013L86.9873 18.36H85.4053Z" fill="#F3EBEA" fill-opacity="0.6"/>
<g clip-path="url(#clip0_12_198)">
<path d="M21.2695 41.9692C20.1508 43.1314 18.7849 44.0471 17.2654 44.6537C13.7671 46.0231 10.597 45.2326 9.46109 44.8813C8.4721 44.5754 6.67199 43.9958 5.09998 42.3586C3.72453 40.9258 3.23408 39.4251 3.01266 38.7207C2.18276 36.0835 2.69664 33.7909 3.02009 32.7191C3.02009 32.7431 3.00397 32.9274 2.98985 33.2295C2.94224 34.2729 2.86439 36.4793 3.97413 38.6282C4.34044 39.3378 5.14691 40.6431 6.81088 41.8075C8.02953 42.7213 9.45211 43.3491 10.966 43.641C12.4799 43.9329 14.0436 43.881 15.5331 43.4893C16.6334 43.2241 18.5462 42.6005 20.2631 41.0636C20.9627 40.4328 21.5719 39.7149 22.0747 38.929C22.4222 38.3868 22.9147 37.6061 23.2152 36.4709C23.4018 35.7659 23.6407 34.8169 23.3494 33.6894C23.2575 33.333 23.0871 32.7055 22.5444 32.1369C22.2491 31.8284 21.9613 31.6596 21.6721 31.4901C21.0361 31.1175 20.4906 30.9661 19.7935 30.7785C19.1547 30.607 18.5047 30.4773 17.8478 30.3904L17.4238 30.3477C17.8167 30.9798 18.1173 31.6611 18.3174 32.3724C18.5385 33.1537 18.6336 33.9631 18.5992 34.7723C18.575 35.2826 18.5489 35.8428 18.2912 36.513C17.8934 37.5479 17.2023 38.1702 16.7689 38.5512C15.9531 39.258 14.976 39.7695 13.9168 40.0442C13.3888 40.1767 12.8379 40.2803 12.8379 40.2803C13.1294 40.2836 13.4207 40.2683 13.7101 40.2343C14.0121 40.2013 14.2288 40.178 14.5152 40.1218C14.8819 40.0449 15.2427 39.9444 15.5954 39.821C16.0564 39.656 17.2882 39.2032 18.1812 38.2575C18.8696 37.5278 19.1521 36.7963 19.3682 36.2122C19.3682 36.2122 20.133 34.1422 19.301 31.6194C19.6952 32.1604 20.0169 32.7472 20.2584 33.366C20.503 34.0745 20.6165 34.8189 20.5939 35.5653C20.5472 36.6091 20.2486 37.6279 19.7217 38.5408C19.157 39.4934 18.3774 40.3114 17.4405 40.9342C15.364 42.3262 13.2096 42.3094 12.6769 42.2926C11.9717 42.27 9.98972 42.1795 8.19096 40.7641C5.74675 38.8404 5.5958 36.0349 5.57968 35.5834C5.56089 35.0724 5.50653 31.6149 8.44661 29.697C10.8901 28.1031 13.6544 28.8056 14.0704 28.9207L13.2458 30.7002L13.5015 30.9448L14.6079 28.9098C14.4946 29.5877 14.381 30.266 14.267 30.9448L14.6079 30.7818L15.0634 29.0534C15.2969 29.129 16.5347 29.5062 17.5901 28.9098C18.1617 28.5464 18.6268 28.0475 18.9407 27.4608C18.9407 27.4563 19.0079 27.3353 19.095 27.1723C19.138 27.0934 19.1963 26.9821 19.2655 26.8489C18.9789 26.759 18.7508 26.693 18.5904 26.6477C18.5053 26.6238 18.406 26.5966 18.2195 26.5435L17.8343 26.4336C17.778 26.4025 17.6901 26.3527 17.5841 26.2887C16.5998 25.6962 16.5139 25.3682 15.8014 24.9245C15.3262 24.6366 14.81 24.4172 14.269 24.2731C13.8372 24.1421 13.3932 24.0525 12.9432 24.0059C12.9432 24.0059 12.707 23.9775 12.503 23.96C12.1582 23.9296 11.4678 23.9335 10.5795 23.9982C10.4619 23.6666 10.2257 23.3863 9.9133 23.2073C9.60085 23.0282 9.23263 22.9622 8.87428 23.0209C8.51603 23.0796 8.19106 23.2593 7.95758 23.5278C7.7241 23.7963 7.59732 24.1362 7.59986 24.4865C6.28635 25.0171 5.07702 25.761 4.02448 26.6859C0.42488 29.8581 0.0619021 34.0335 0.0236591 34.5788C-0.0280037 35.311 -0.224585 39.1418 2.57724 42.5546C6.42639 47.2412 12.8842 47.4268 15.8846 46.6524C16.8665 46.3868 17.8102 46.0042 18.6938 45.5133C19.9633 44.7536 21.0631 43.7577 21.9291 42.5837C22.293 42.0604 22.6109 41.5085 22.8798 40.9342C23.1104 40.4499 23.312 39.9531 23.4837 39.4464C23.6439 38.9939 23.7734 38.5316 23.8714 38.0628C23.9396 37.7508 23.9893 37.4352 24.0204 37.1178C24.0204 37.1178 23.0703 40.1062 21.2695 41.9692Z" fill="#F3EBEA" fill-opacity="0.6"/>
<path d="M39.071 41.5469C38.1102 41.5469 37.2514 41.3909 36.4948 41.0789C35.7381 40.7669 35.0956 40.3168 34.5672 39.7288C34.0387 39.1408 33.6304 38.4328 33.3421 37.6048C33.0659 36.7768 32.9277 35.8408 32.9277 34.7968C32.9277 33.7528 33.0659 32.8168 33.3421 31.9888C33.6304 31.1609 34.0387 30.4529 34.5672 29.8649C35.1076 29.2769 35.7562 28.8269 36.5128 28.5149C37.2695 28.2029 38.1222 28.0469 39.071 28.0469C40.0318 28.0469 40.8905 28.2029 41.6471 28.5149C42.4038 28.8269 43.0403 29.2769 43.5567 29.8649C44.0852 30.4529 44.4876 31.1609 44.7638 31.9888C45.04 32.8168 45.1781 33.7528 45.1781 34.7968C45.1781 35.8408 45.04 36.7768 44.7638 37.6048C44.4996 38.4328 44.1033 39.1408 43.5748 39.7288C43.0584 40.3168 42.4218 40.7669 41.6652 41.0789C40.9085 41.3909 40.0438 41.5469 39.071 41.5469ZM39.0529 39.2429C40.1819 39.2429 41.0226 38.8589 41.5751 38.0909C42.1275 37.3229 42.4038 36.2248 42.4038 34.7968C42.4038 33.3808 42.1275 32.2888 41.5751 31.5209C41.0226 30.7409 40.1819 30.3509 39.0529 30.3509C37.924 30.3509 37.0833 30.7409 36.5308 31.5209C35.9783 32.2888 35.7021 33.3808 35.7021 34.7968C35.7021 36.2248 35.9783 37.3229 36.5308 38.0909C37.0833 38.8589 37.924 39.2429 39.0529 39.2429ZM47.7772 33.7888H46.3V31.8269H47.7772V29.3249H50.2994V31.8269H52.4612V33.7888H50.2994V38.1269C50.2994 38.6189 50.4015 38.9549 50.6057 39.1349C50.8098 39.3029 51.0741 39.3869 51.3983 39.3869C51.5665 39.3869 51.7346 39.3808 51.9028 39.3688C52.0829 39.3448 52.257 39.3088 52.4252 39.2608L52.7855 41.1149C52.4372 41.2229 52.0949 41.2949 51.7586 41.3309C51.4344 41.3789 51.1221 41.4029 50.8218 41.4029C49.789 41.4029 49.0203 41.1569 48.5159 40.6648C48.0235 40.1728 47.7772 39.3448 47.7772 38.1808V33.7888ZM54.6034 33.7888H53.1261V31.8269H54.6034V29.3249H57.1255V31.8269H59.2873V33.7888H57.1255V38.1269C57.1255 38.6189 57.2275 38.9549 57.4317 39.1349C57.6359 39.3029 57.9001 39.3869 58.2244 39.3869C58.3925 39.3869 58.5607 39.3808 58.7288 39.3688C58.909 39.3448 59.0832 39.3088 59.2513 39.2608L59.6116 41.1149C59.2633 41.2229 58.921 41.2949 58.5847 41.3309C58.2604 41.3789 57.9482 41.4029 57.6479 41.4029C56.615 41.4029 55.8464 41.1569 55.3419 40.6648C54.8495 40.1728 54.6034 39.3448 54.6034 38.1808V33.7888ZM69.2883 38.2888C69.1202 39.3448 68.6938 40.1488 68.0092 40.7008C67.3366 41.2409 66.3518 41.5109 65.0547 41.5109C63.4934 41.5109 62.3164 41.0789 61.5237 40.2149C60.7431 39.3509 60.3528 38.1269 60.3528 36.5429C60.3528 35.7509 60.4668 35.0488 60.695 34.4368C60.9232 33.8128 61.2415 33.2848 61.6499 32.8528C62.0702 32.4208 62.5686 32.0968 63.1451 31.8809C63.7216 31.6529 64.3581 31.5389 65.0547 31.5389C66.4959 31.5389 67.5769 31.9528 68.2975 32.7808C69.0301 33.6088 69.3964 34.7248 69.3964 36.1288V37.1368H62.8749C62.8989 37.8928 63.0911 38.4869 63.4514 38.9189C63.8117 39.3389 64.3522 39.5488 65.0728 39.5488C66.0696 39.5488 66.6581 39.1288 66.8383 38.2888H69.2883ZM66.9643 35.4808C66.9643 34.8328 66.8022 34.3288 66.478 33.9688C66.1657 33.6088 65.6733 33.4288 65.0007 33.4288C64.6644 33.4288 64.3701 33.4829 64.1179 33.5909C63.8657 33.6989 63.6495 33.8488 63.4694 34.0408C63.3012 34.2208 63.1691 34.4368 63.073 34.6888C62.977 34.9288 62.9229 35.1928 62.9109 35.4808H66.9643ZM71.2856 31.8269H73.7357V33.1408C74.0479 32.6488 74.4263 32.2829 74.8707 32.0429C75.3151 31.7909 75.7835 31.6649 76.2759 31.6649C76.5161 31.6649 76.7142 31.6769 76.8703 31.7009C77.0265 31.7129 77.1646 31.7309 77.2847 31.7549L76.9784 34.0408C76.6902 33.9688 76.3359 33.9328 75.9156 33.9328C75.6393 33.9328 75.3751 33.9688 75.1229 34.0408C74.8707 34.1008 74.6425 34.2208 74.4383 34.4008C74.2221 34.5928 74.06 34.8088 73.9519 35.0488C73.8558 35.2888 73.8077 35.5349 73.8077 35.7869V41.2229H71.2856V31.8269ZM80.9408 37.0288C81.0009 37.8208 81.2531 38.3968 81.6975 38.7568C82.1538 39.1168 82.8204 39.2968 83.6972 39.2968C84.1175 39.2968 84.4718 39.2549 84.76 39.1709C85.0483 39.0749 85.2825 38.9549 85.4627 38.8109C85.6428 38.6549 85.7689 38.4749 85.841 38.2709C85.925 38.0669 85.9671 37.8448 85.9671 37.6048C85.9671 37.2688 85.841 36.9568 85.5888 36.6688C85.3365 36.3688 84.8742 36.1528 84.2016 36.0208L82.5261 35.7149C81.8656 35.5949 81.2831 35.4389 80.7787 35.2469C80.2743 35.0549 79.8479 34.8088 79.4996 34.5088C79.1633 34.1968 78.9051 33.8189 78.725 33.3749C78.5448 32.9309 78.4547 32.4029 78.4547 31.7909C78.4547 31.1789 78.5748 30.6389 78.815 30.1709C79.0672 29.7029 79.4096 29.3129 79.8419 29.0009C80.2863 28.6889 80.8147 28.4549 81.4273 28.2989C82.0398 28.1309 82.7124 28.0469 83.445 28.0469C84.3818 28.0469 85.1624 28.1549 85.787 28.3709C86.4115 28.5869 86.9159 28.8749 87.3002 29.2349C87.6846 29.5829 87.9668 29.9909 88.1469 30.4589C88.3391 30.9269 88.4652 31.4129 88.5253 31.9168L85.9851 32.2408C85.853 31.5329 85.5948 31.0229 85.2105 30.7109C84.8382 30.3989 84.2676 30.2429 83.499 30.2429C83.0426 30.2429 82.6643 30.2849 82.3641 30.3689C82.0758 30.4409 81.8416 30.5429 81.6614 30.6749C81.4813 30.7949 81.3552 30.9389 81.2831 31.1069C81.2111 31.2749 81.175 31.4489 81.175 31.6289C81.175 32.1088 81.3072 32.4688 81.5714 32.7088C81.8476 32.9488 82.31 33.1349 82.9585 33.2669L84.724 33.6088C86.1172 33.8848 87.1381 34.3349 87.7866 34.9589C88.4352 35.5709 88.7594 36.4589 88.7594 37.6229C88.7594 38.1869 88.6513 38.7088 88.4352 39.1888C88.231 39.6568 87.9187 40.0709 87.4984 40.4309C87.09 40.7789 86.5736 41.0488 85.9491 41.2409C85.3245 41.4449 84.5919 41.5469 83.7512 41.5469C81.9977 41.5469 80.6526 41.1749 79.7158 40.4309C78.791 39.6749 78.2926 38.5408 78.2205 37.0288H80.9408ZM99.0554 38.2888C98.8872 39.3448 98.4611 40.1488 97.7769 40.7008C97.1044 41.2409 96.1195 41.5109 94.8224 41.5109C93.2611 41.5109 92.0841 41.0789 91.2915 40.2149C90.5103 39.3509 90.1198 38.1269 90.1198 36.5429C90.1198 35.7509 90.2346 35.0488 90.4623 34.4368C90.6909 33.8128 91.0086 33.2848 91.4169 32.8528C91.8377 32.4208 92.3359 32.0968 92.9124 31.8809C93.4889 31.6529 94.1259 31.5389 94.8224 31.5389C96.2637 31.5389 97.3446 31.9528 98.0652 32.7808C98.7974 33.6088 99.1639 34.7248 99.1639 36.1288V37.1368H92.6419C92.666 37.8928 92.8581 38.4869 93.2184 38.9189C93.5787 39.3389 94.1196 39.5488 94.8402 39.5488C95.8366 39.5488 96.4256 39.1288 96.6053 38.2888H99.0554ZM96.7316 35.4808C96.7316 34.8328 96.5697 34.3288 96.245 33.9688C95.9327 33.6088 95.4408 33.4288 94.7682 33.4288C94.4319 33.4288 94.1374 33.4829 93.8857 33.5909C93.633 33.6989 93.4168 33.8488 93.2371 34.0408C93.069 34.2208 92.9364 34.4368 92.8403 34.6888C92.7442 34.9288 92.69 35.1928 92.6784 35.4808H96.7316ZM109.502 37.8208C109.406 38.9488 109.016 39.8488 108.332 40.5208C107.659 41.1809 106.644 41.5109 105.286 41.5109C104.494 41.5109 103.81 41.3909 103.233 41.1509C102.657 40.9109 102.182 40.5749 101.81 40.1429C101.449 39.7109 101.179 39.1888 100.999 38.5769C100.819 37.9648 100.729 37.2869 100.729 36.5429C100.729 35.7989 100.831 35.1208 101.035 34.5088C101.251 33.8848 101.558 33.3568 101.954 32.9248C102.351 32.4808 102.836 32.1389 103.413 31.8989C103.989 31.6589 104.65 31.5389 105.395 31.5389C106.031 31.5389 106.584 31.6229 107.052 31.7909C107.533 31.9469 107.935 32.1688 108.26 32.4568C108.583 32.7448 108.836 33.0928 109.016 33.5008C109.196 33.8968 109.317 34.3349 109.376 34.8149L106.836 35.1568C106.776 34.6768 106.638 34.2928 106.422 34.0048C106.205 33.7048 105.834 33.5549 105.305 33.5549C104.921 33.5549 104.602 33.6389 104.35 33.8069C104.098 33.9629 103.893 34.1789 103.738 34.4549C103.593 34.7309 103.491 35.0488 103.432 35.4088C103.371 35.7568 103.341 36.1229 103.341 36.5069C103.341 36.9029 103.371 37.2808 103.432 37.6408C103.491 38.0008 103.593 38.3189 103.738 38.5949C103.882 38.8709 104.08 39.0928 104.332 39.2608C104.585 39.4168 104.902 39.4949 105.286 39.4949C105.791 39.4949 106.181 39.3509 106.458 39.0629C106.734 38.7749 106.896 38.3608 106.944 37.8208H109.502Z" fill="#F3EBEA" fill-opacity="0.6"/>
</g>
<defs>
<clipPath id="clip0_12_198">
<rect width="110.316" height="24" fill="white" transform="translate(0 23)"/>
</clipPath>
</defs>
</svg>
