<svg width="44" height="18" viewBox="0 0 44 18" fill="none" xmlns="http://www.w3.org/2000/svg">
<g clip-path="url(#clip0_12_205)">
<path fill-rule="evenodd" clip-rule="evenodd" d="M9.17747 0.152542V10.8305C9.17747 10.9147 9.10926 10.9831 9.02521 10.9831H7.90731C7.39085 10.9831 6.9094 10.7207 6.62893 10.2862L1.59749 2.49468L1.76985 6.38588V10.8305C1.76985 10.9147 1.70163 10.9831 1.61759 10.9831H0.152383C0.0683348 10.9831 0.00012207 10.9147 0.00012207 10.8305V0.152542C0.00012207 0.068339 0.0683348 0 0.152383 0H1.25551C1.77152 0 2.25251 0.261915 2.53313 0.695746L7.56427 8.47266L7.40775 4.59717V0.152542C7.40775 0.068339 7.47596 0 7.56001 0H9.02521C9.10926 0 9.17747 0.068339 9.17747 0.152542" fill="#F3EBEA" fill-opacity="0.6"/>
<path fill-rule="evenodd" clip-rule="evenodd" d="M23.8568 10.9831H22.3048C22.1978 10.9831 22.1242 10.8754 22.1629 10.7754L26.2703 0.146136C26.3044 0.0581186 26.3889 0 26.4833 0H28.4254C28.5198 0 28.6044 0.0581186 28.6384 0.146136L32.7459 10.7754C32.7846 10.8754 32.7109 10.9831 32.6039 10.9831H31.0519C30.9887 10.9831 30.932 10.9438 30.9097 10.8845L27.5968 2.13331C27.5471 2.00212 27.3618 2.00212 27.3121 2.13331L23.9992 10.8845C23.9768 10.9438 23.92 10.9831 23.8568 10.9831" fill="#F3EBEA" fill-opacity="0.6"/>
<path fill-rule="evenodd" clip-rule="evenodd" d="M43.8201 10.7365L40.7394 6.79378C42.4779 6.46429 43.4959 5.28758 43.4959 3.48315C43.4959 1.41224 42.1488 0 39.7684 0H35.4707C35.3446 0 35.2423 0.102508 35.2423 0.228814C35.2423 1.03836 35.8973 1.69459 36.7052 1.69459H39.5805C41.0215 1.69459 41.7105 2.43198 41.7105 3.49886C41.7105 4.5659 41.0369 5.319 39.5805 5.319H35.4707C35.3446 5.319 35.2423 5.42136 35.2423 5.54781V10.8305C35.2423 10.9147 35.3105 10.9831 35.3946 10.9831H36.8599C36.944 10.9831 37.0122 10.9147 37.0122 10.8305V6.88805H38.7035L41.3786 10.3854C41.6666 10.7622 42.1134 10.9831 42.5871 10.9831H43.7001C43.8271 10.9831 43.8983 10.8366 43.8201 10.7365" fill="#F3EBEA" fill-opacity="0.6"/>
<path fill-rule="evenodd" clip-rule="evenodd" d="M19.5245 9.28861H14.4418C14.3576 9.28861 14.2895 9.22027 14.2895 9.13607V6.38161C14.2895 6.29741 14.3576 6.22907 14.4418 6.22907H19.1331C19.2171 6.22907 19.2853 6.16073 19.2853 6.07653V4.68686C19.2853 4.60266 19.2171 4.53432 19.1331 4.53432H12.748C12.6219 4.53432 12.5196 4.63683 12.5196 4.76314V10.7542C12.5196 10.8807 12.6219 10.9831 12.748 10.9831H19.5245C19.6087 10.9831 19.6768 10.9149 19.6768 10.8305V9.44115C19.6768 9.35695 19.6087 9.28861 19.5245 9.28861M19.5245 0H12.723C12.6107 0 12.5196 0.0913729 12.5196 0.203797C12.5196 1.02707 13.1858 1.69459 14.0077 1.69459H19.5245C19.6087 1.69459 19.6768 1.62625 19.6768 1.54205V0.152542C19.6768 0.068339 19.6087 0 19.5245 0Z" fill="#F3EBEA" fill-opacity="0.6"/>
<path fill-rule="evenodd" clip-rule="evenodd" d="M0.662607 14.4384V15.4126C0.662607 15.4452 0.688949 15.4716 0.721532 15.4716H2.47375C2.50618 15.4716 2.53267 15.4981 2.53267 15.5308V16.0468C2.53267 16.0795 2.50618 16.106 2.47375 16.106H0.721532C0.688949 16.106 0.662607 16.1324 0.662607 16.165V17.7969C0.662607 17.8294 0.636266 17.856 0.603683 17.856H0.0591991C0.0266154 17.856 0.00012207 17.8294 0.00012207 17.7969V13.8042C0.00012207 13.7715 0.0266154 13.7451 0.0591991 13.7451H2.62007C2.65265 13.7451 2.67915 13.7715 2.67915 13.8042V14.3204C2.67915 14.3528 2.65265 14.3794 2.62007 14.3794H0.721532C0.688949 14.3794 0.662607 14.4058 0.662607 14.4384" fill="#F3EBEA" fill-opacity="0.6"/>
<path fill-rule="evenodd" clip-rule="evenodd" d="M4.54358 15.8008C4.54358 16.6582 5.17074 17.2923 6.00315 17.2923C6.82962 17.2923 7.45678 16.6582 7.45678 15.8008C7.45678 14.9433 6.82962 14.3091 6.00315 14.3091C5.17074 14.3091 4.54358 14.9433 4.54358 15.8008ZM8.13099 15.8008C8.1252 17.0104 7.20479 17.9266 6.00315 17.9266C4.80135 17.9266 3.87531 17.0104 3.87531 15.8008C3.87531 14.591 4.80135 13.6748 6.00315 13.6748C7.20479 13.6748 8.1252 14.591 8.13099 15.8008Z" fill="#F3EBEA" fill-opacity="0.6"/>
<path fill-rule="evenodd" clip-rule="evenodd" d="M12.798 13.7451C12.8306 13.7451 12.8569 13.7715 12.8569 13.8042V16.2175C12.8569 17.3627 12.1418 17.9265 11.1979 17.9265C10.2542 17.9265 9.53918 17.3627 9.53918 16.2175V13.8042C9.53918 13.7715 9.56553 13.7451 9.59811 13.7451H10.1542C10.1867 13.7451 10.2131 13.7715 10.2131 13.8042V16.1763C10.2131 16.975 10.6294 17.2922 11.1979 17.2922C11.7666 17.2922 12.1827 16.975 12.1827 16.1763V13.8042C12.1827 13.7715 12.2092 13.7451 12.2417 13.7451H12.798Z" fill="#F3EBEA" fill-opacity="0.6"/>
<path fill-rule="evenodd" clip-rule="evenodd" d="M17.8218 13.8042V17.7969C17.8218 17.8296 17.7955 17.856 17.7629 17.856H17.3571C17.1572 17.856 16.9709 17.7544 16.8623 17.5863L14.9848 14.679L15.0493 16.1353V17.7969C15.0493 17.8296 15.0228 17.856 14.9902 17.856H14.4458C14.4132 17.856 14.3868 17.8296 14.3868 17.7969V13.8042C14.3868 13.7717 14.4132 13.7451 14.4458 13.7451H14.8461C15.0458 13.7451 15.232 13.8466 15.3408 14.0145L17.2181 16.9163L17.1595 15.4659V13.8042C17.1595 13.7717 17.186 13.7451 17.2184 13.7451H17.7629C17.7955 13.7451 17.8218 13.7717 17.8218 13.8042" fill="#F3EBEA" fill-opacity="0.6"/>
<path fill-rule="evenodd" clip-rule="evenodd" d="M22.3705 15.8006C22.3705 14.9667 21.7666 14.3794 20.9401 14.3794H20.2196C20.1871 14.3794 20.1606 14.4058 20.1606 14.4384V17.1627C20.1606 17.1953 20.1871 17.2217 20.2196 17.2217H20.9401C21.7666 17.2217 22.3705 16.6404 22.3705 15.8006ZM23.0328 15.8006C23.0328 16.9868 22.1243 17.856 20.9342 17.856H19.5572C19.5246 17.856 19.4982 17.8296 19.4982 17.7969V13.8042C19.4982 13.7717 19.5246 13.7451 19.5572 13.7451H20.9342C22.1301 13.7451 23.0328 14.6085 23.0328 15.8006Z" fill="#F3EBEA" fill-opacity="0.6"/>
<path fill-rule="evenodd" clip-rule="evenodd" d="M26.4205 16.0435L25.8552 14.5486C25.836 14.4978 25.7642 14.4978 25.745 14.5486L25.1796 16.0435C25.165 16.0821 25.1935 16.1234 25.2347 16.1234H26.3654C26.4067 16.1234 26.4352 16.0821 26.4205 16.0435ZM26.6503 16.7519H24.9499C24.9253 16.7519 24.9034 16.767 24.8947 16.79L24.5074 17.8177C24.4986 17.8407 24.4766 17.8558 24.4521 17.8558H23.8755C23.8341 17.8558 23.8056 17.8142 23.8205 17.7754L25.3636 13.7828C25.3722 13.7601 25.3942 13.7451 25.4185 13.7451H26.1817C26.206 13.7451 26.2278 13.7601 26.2366 13.7828L27.7796 17.7754C27.7945 17.8142 27.7661 17.8558 27.7247 17.8558H27.148C27.1235 17.8558 27.1016 17.8407 27.0929 17.8177L26.7054 16.79C26.6967 16.767 26.6748 16.7519 26.6503 16.7519Z" fill="#F3EBEA" fill-opacity="0.6"/>
<path fill-rule="evenodd" clip-rule="evenodd" d="M31.3446 14.3794H30.208C30.1754 14.3794 30.1489 14.4058 30.1489 14.4384V17.7969C30.1489 17.8296 30.1226 17.856 30.0901 17.856H29.5457C29.5131 17.856 29.4867 17.8296 29.4867 17.7969V14.4384C29.4867 14.4058 29.4604 14.3794 29.4278 14.3794H28.66C28.343 14.3794 28.0859 14.1219 28.0859 13.8042C28.0859 13.7717 28.1123 13.7451 28.1449 13.7451H31.3446C31.3772 13.7451 31.4035 13.7717 31.4035 13.8042V14.3204C31.4035 14.353 31.3772 14.3794 31.3446 14.3794" fill="#F3EBEA" fill-opacity="0.6"/>
<path fill-rule="evenodd" clip-rule="evenodd" d="M32.9045 13.7451H33.449C33.4816 13.7451 33.5079 13.7715 33.5079 13.8042V17.7969C33.5079 17.8294 33.4816 17.856 33.449 17.856H32.9045C32.872 17.856 32.8456 17.8294 32.8456 17.7969V13.8042C32.8456 13.7715 32.872 13.7451 32.9045 13.7451Z" fill="#F3EBEA" fill-opacity="0.6"/>
<path fill-rule="evenodd" clip-rule="evenodd" d="M35.5903 15.8008C35.5903 16.6582 36.2174 17.2923 37.0498 17.2923C37.8763 17.2923 38.5035 16.6582 38.5035 15.8008C38.5035 14.9433 37.8763 14.3091 37.0498 14.3091C36.2174 14.3091 35.5903 14.9433 35.5903 15.8008ZM39.1777 15.8008C39.1717 17.0104 38.2515 17.9266 37.0498 17.9266C35.848 17.9266 34.922 17.0104 34.922 15.8008C34.922 14.591 35.848 13.6748 37.0498 13.6748C38.2515 13.6748 39.1717 14.591 39.1777 15.8008Z" fill="#F3EBEA" fill-opacity="0.6"/>
<path fill-rule="evenodd" clip-rule="evenodd" d="M43.8512 13.8042V17.7969C43.8512 17.8296 43.8249 17.856 43.7923 17.856H43.3863C43.1864 17.856 43.0001 17.7544 42.8915 17.5863L41.0141 14.679L41.0785 16.1353V17.7969C41.0785 17.8296 41.052 17.856 41.0196 17.856H40.4751C40.4425 17.856 40.4162 17.8296 40.4162 17.7969V13.8042C40.4162 13.7717 40.4425 13.7451 40.4751 13.7451H40.8754C41.0752 13.7451 41.2614 13.8466 41.3701 14.0145L43.2475 16.9163L43.1887 15.4659V13.8042C43.1887 13.7717 43.2152 13.7451 43.2478 13.7451H43.7923C43.8249 13.7451 43.8512 13.7717 43.8512 13.8042Z" fill="#F3EBEA" fill-opacity="0.6"/>
</g>
<defs>
<clipPath id="clip0_12_205">
<rect width="43.851" height="18" fill="white"/>
</clipPath>
</defs>
</svg>
