<svg width="157" height="35" viewBox="0 0 157 35" fill="none" xmlns="http://www.w3.org/2000/svg">
    <g clip-path="url(#clip0_7747_53302)">
        <path fill-rule="evenodd" clip-rule="evenodd" d="M24.9424 5.35407L27.823 0L31.599 12.6132L25.9377 10.0618L24.9424 5.35407ZM4.57112 10.9623L1.64257 16.2264L10.5969 20.5932L22.9209 19.7453L4.57112 10.9623ZM2.93898 20.8888L0.0283203 26.1249L17.906 34.9724L47.699 33.1696L50.6096 27.9334L20.8167 29.7364L2.93898 20.8888Z" fill="#2C3034" />
        <path d="M50.611 27.9338L20.8266 29.7371L2.79541 20.8685L22.3206 19.6907L4.5709 10.9621L13.2871 3.60315L31.3681 12.4674L27.8229 0L45.1004 8.44596L50.611 27.9338Z" fill="#FDBF1C" />
        <path d="M67.6758 32.2272V23.0785H76.3131V32.2272H82.7911V8.18945H76.3131V17.3382H67.6758V8.18945H61.1978V32.2272H67.6758Z" fill="#2C3034" />
        <path d="M104.029 32.2272V26.4868H92.045V23.0785H102.23V17.3382H92.045V13.9298H104.029V8.18945H85.5669V32.2272H104.029Z" fill="#2C3034" />
        <path d="M113.143 32.2272V23.6167H113.647C115.626 23.6167 116.526 24.2266 117.497 25.8052L121.492 32.2272H128.87L125.415 26.8097C124.192 24.9082 123.112 23.3655 120.629 22.7557C124.731 22.3968 127.862 20.3519 127.862 15.7237C127.862 10.4139 123.832 8.18945 118.218 8.18945H106.665V32.2272H113.143ZM118.29 13.9298C120.125 13.9298 121.024 14.6832 121.024 16.1901C121.024 17.661 120.125 18.4504 118.29 18.4504H113.143V13.9298H118.29Z" fill="#2C3034" />
        <path d="M148.71 32.2272V26.4868H136.725V23.0785H146.91V17.3382H136.725V13.9298H148.71V8.18945H130.248V32.2272H148.71Z" fill="#2C3034" />
        <path d="M156.987 32.2268V26.0918H150.51V32.2268H156.987Z" fill="#2C3034" />
        <path d="M156.987 32.2268V26.0918H150.51V32.2268H156.987Z" fill="#FD84E3" />
    </g>
    <defs>
        <clipPath id="clip0_7747_53302">
            <rect width="157" height="35" fill="white" />
        </clipPath>
    </defs>
</svg>
