<svg width="96" height="21" viewBox="0 0 96 21" fill="none" xmlns="http://www.w3.org/2000/svg">
<g clip-path="url(#clip0_3_239)">
<path d="M42.3772 17.6726V12.1834H47.5623V17.6726H51.4512V3.25H47.5623V8.73924H42.3772V3.25H38.4883V17.6726H42.3772Z" fill="#2C3034"/>
<path d="M64.2005 17.6726V14.2284H57.0061V12.1834H63.1203V8.73924H57.0061V6.69424H64.2005V3.25H53.1172V17.6726H64.2005Z" fill="#2C3034"/>
<path d="M69.672 17.6726V12.5063H69.9745C71.1629 12.5063 71.703 12.8723 72.286 13.8194L74.684 17.6726H79.1134L77.0391 14.4222C76.3049 13.2813 75.6567 12.3556 74.1662 11.9897C76.6287 11.7744 78.5081 10.5475 78.5081 7.77055C78.5081 4.58465 76.0886 3.25 72.7187 3.25H65.7832V17.6726H69.672ZM72.7616 6.69424C73.8632 6.69424 74.4032 7.14625 74.4032 8.05036C74.4032 8.93292 73.8632 9.40657 72.7616 9.40657H69.672V6.69424H72.7616Z" fill="#2C3034"/>
<path d="M91.0228 17.6726V14.2284H83.828V12.1834H89.9419V8.73924H83.828V6.69424H91.0228V3.25H79.9395V17.6726H91.0228Z" fill="#2C3034"/>
<path d="M95.992 17.6713V13.9902H92.1035V17.6713H95.992Z" fill="#2C3034"/>
<path d="M95.992 17.6713V13.9902H92.1035V17.6713H95.992Z" fill="#FD84E3"/>
<path d="M12.4094 17.9839L12.4472 18.0026L12.4893 18L30.0859 16.9357L28.5213 19.7488L10.7648 20.8227L0.219353 15.6066L1.81243 12.7423L12.4094 17.9839ZM15.6923 5.92559L15.1235 3.23645L16.6438 0.412307L18.701 7.28084L15.6923 5.92559ZM13.1314 11.7304L6.37589 12.1949L1.18894 9.66669L2.79315 6.78463L13.1314 11.7304Z" fill="#2C3034" stroke="#FDBF1E" stroke-width="0.316981"/>
<path d="M30.3667 16.7603L12.4866 17.8422L1.66211 12.5211L13.3835 11.8144L2.72797 6.57728L7.96049 2.16189L18.8149 7.48044L16.6866 0L27.0586 5.06758L30.3667 16.7603Z" fill="#FDBF1C"/>
</g>
<defs>
<clipPath id="clip0_3_239">
<rect width="96" height="21" fill="white"/>
</clipPath>
</defs>
</svg>
