<svg width="1440" height="874" viewBox="0 0 1440 874" fill="none" xmlns="http://www.w3.org/2000/svg">
    <rect width="1440" height="874" fill="#2C3034" />
    <path d="M132 72H676C684.837 72 692 79.1634 692 88V380H148C139.163 380 132 372.837 132 364V72Z" fill="#FD84E3" />
    <path d="M-428 16C-428 7.16344 -420.837 0 -412 0H116C124.837 0 132 7.16344 132 16V72H-412C-420.837 72 -428 64.8366 -428 56V16Z" fill="#FDBF1C" />
    <path d="M692 380H1308V508H708C699.163 508 692 500.837 692 492V380Z" fill="#FDBF1C" />
    <path d="M1308 -0.999996C1308 -9.83655 1315.16 -17 1324 -17H1852C1860.84 -17 1868 -9.83655 1868 -0.999999V364C1868 372.837 1860.84 380 1852 380H1308V-0.999996Z" fill="#FDBF1C" />
    <path d="M-428 432C-428 423.163 -420.837 416 -412 416H116C124.837 416 132 423.163 132 432V544H-412C-420.837 544 -428 536.837 -428 528V432Z" fill="#FDBF1C" />
    <path d="M132 544H676C684.837 544 692 551.163 692 560V672H148C139.163 672 132 664.837 132 656V544Z" fill="#FDBF1C" />
    <path d="M692 672H1292C1300.84 672 1308 679.163 1308 688V784C1308 792.837 1300.84 800 1292 800H708C699.163 800 692 792.837 692 784V672Z" fill="#FD84E3" />
    <g clip-path="url(#clip0_7178_43597)">
        <path d="M912.854 180.516C911.204 179.723 909.513 179.019 907.788 178.408" stroke="#F3EBEA" stroke-width="6.75358" stroke-miterlimit="10" stroke-linecap="round" />
        <path d="M927.942 191.587C926.69 190.252 925.368 188.985 923.979 187.792" stroke="#F3EBEA" stroke-width="6.75358" stroke-miterlimit="10" stroke-linecap="round" />
        <path d="M938.012 207.361C937.327 205.664 936.551 204.005 935.688 202.391" stroke="#F3EBEA" stroke-width="6.75358" stroke-miterlimit="10" stroke-linecap="round" />
        <path d="M941.711 225.709C941.686 223.879 941.562 222.051 941.339 220.234" stroke="#DAD3D2" stroke-opacity="0.3" stroke-width="6.75358" stroke-miterlimit="10" stroke-linecap="round" />
        <path d="M938.527 244.15C939.165 242.435 939.709 240.686 940.159 238.911" stroke="#DAD3D2" stroke-opacity="0.3" stroke-width="6.75358" stroke-miterlimit="10" stroke-linecap="round" />
        <path d="M928.895 260.197C930.109 258.828 931.248 257.394 932.308 255.901" stroke="#F3EBEA" stroke-width="6.75358" stroke-miterlimit="10" stroke-linecap="round" />
        <path d="M914.121 271.682C915.748 270.843 917.329 269.918 918.856 268.909" stroke="#DAD3D2" stroke-opacity="0.3" stroke-width="6.75358" stroke-miterlimit="10" stroke-linecap="round" />
        <path d="M860.666 267.476C866.484 271.745 873.143 274.728 880.201 276.228C887.259 277.728 894.556 277.712 901.607 276.179" stroke="#F3EBEA" stroke-width="6.75358" stroke-miterlimit="10" stroke-linecap="round" />
        <path d="M847.866 253.82C848.851 255.362 849.919 256.851 851.064 258.279" stroke="#F3EBEA" stroke-width="6.75358" stroke-miterlimit="10" stroke-linecap="round" />
        <path d="M840.861 236.465C841.222 238.259 841.68 240.033 842.232 241.778" stroke="#DAD3D2" stroke-opacity="0.3" stroke-width="6.75358" stroke-miterlimit="10" stroke-linecap="round" />
        <path d="M847.129 200.208C842.938 207.19 840.483 215.075 839.97 223.201" stroke="#F3EBEA" stroke-width="6.75358" stroke-miterlimit="10" stroke-linecap="round" />
        <path d="M876.171 177.632C868.371 179.968 861.245 184.141 855.391 189.801" stroke="#DAD3D2" stroke-opacity="0.3" stroke-width="6.75358" stroke-miterlimit="10" stroke-linecap="round" />
        <path d="M894.786 175.645C892.961 175.501 891.13 175.456 889.301 175.51" stroke="#F3EBEA" stroke-width="6.75358" stroke-miterlimit="10" stroke-linecap="round" />
        <path d="M907.508 164.223C905.896 163.79 904.269 163.419 902.629 163.112" stroke="#F3EBEA" stroke-width="6.75358" stroke-miterlimit="10" stroke-linecap="round" />
        <path d="M937.386 181.969C932.174 176.504 926.041 171.998 919.268 168.658" stroke="#DAD3D2" stroke-opacity="0.3" stroke-width="6.75358" stroke-miterlimit="10" stroke-linecap="round" />
        <path d="M955.078 230.139C955.859 216.654 952.38 203.265 945.134 191.866" stroke="#F3EBEA" stroke-width="6.75358" stroke-miterlimit="10" stroke-linecap="round" />
        <path d="M951.695 247.348C952.237 245.77 952.718 244.172 953.136 242.556" stroke="#DAD3D2" stroke-opacity="0.3" stroke-width="6.75358" stroke-miterlimit="10" stroke-linecap="round" />
        <path d="M917.058 285.219C929.39 279.708 939.677 270.46 946.465 258.781" stroke="#DAD3D2" stroke-opacity="0.3" stroke-width="6.75358" stroke-miterlimit="10" stroke-linecap="round" />
        <path d="M900.222 290.125C901.873 289.881 903.513 289.572 905.139 289.2" stroke="#F3EBEA" stroke-width="6.75358" stroke-miterlimit="10" stroke-linecap="round" />
        <path d="M865.747 285.755C872.705 288.691 880.125 290.381 887.669 290.746" stroke="#DAD3D2" stroke-opacity="0.3" stroke-width="6.75358" stroke-miterlimit="10" stroke-linecap="round" />
        <path d="M850.664 276.799C851.969 277.838 853.314 278.826 854.696 279.761" stroke="#F3EBEA" stroke-width="6.75358" stroke-miterlimit="10" stroke-linecap="round" />
        <path d="M838.56 264.107C839.537 265.46 840.565 266.775 841.644 268.048" stroke="#F3EBEA" stroke-width="6.75358" stroke-miterlimit="10" stroke-linecap="round" />
        <path d="M830.328 248.62C830.903 250.186 831.539 251.729 832.234 253.246" stroke="#DAD3D2" stroke-opacity="0.3" stroke-width="6.75358" stroke-miterlimit="10" stroke-linecap="round" />
        <path d="M826.583 231.483C826.714 233.147 826.91 234.804 827.17 236.452" stroke="#F3EBEA" stroke-width="6.75358" stroke-miterlimit="10" stroke-linecap="round" />
        <path d="M833.291 197.388C829.887 204.13 827.695 211.417 826.816 218.918" stroke="#DAD3D2" stroke-opacity="0.3" stroke-width="6.75358" stroke-miterlimit="10" stroke-linecap="round" />
        <path d="M843.257 182.955C842.131 184.186 841.054 185.461 840.027 186.775" stroke="#DAD3D2" stroke-opacity="0.3" stroke-width="6.75358" stroke-miterlimit="10" stroke-linecap="round" />
        <path d="M856.746 171.744C855.33 172.625 853.949 173.562 852.605 174.551" stroke="#F3EBEA" stroke-width="6.75358" stroke-miterlimit="10" stroke-linecap="round" />
        <path d="M872.76 164.588C871.159 165.055 869.576 165.584 868.015 166.174" stroke="#DAD3D2" stroke-opacity="0.3" stroke-width="6.75358" stroke-miterlimit="10" stroke-linecap="round" />
        <path d="M890.106 162.017C888.438 162.034 886.771 162.117 885.109 162.264" stroke="#F3EBEA" stroke-width="6.75358" stroke-miterlimit="10" stroke-linecap="round" />
        <path d="M928.36 158.197C926.834 157.356 925.279 156.566 923.7 155.83" stroke="#F3EBEA" stroke-width="6.75358" stroke-miterlimit="10" stroke-linecap="round" />
        <path d="M955.759 183.475C951.33 176.774 945.891 170.798 939.635 165.76" stroke="#DAD3D2" stroke-opacity="0.3" stroke-width="6.75358" stroke-miterlimit="10" stroke-linecap="round" />
        <path d="M963.035 255.495C966.887 245.925 968.799 235.686 968.66 225.371C968.522 215.057 966.335 204.872 962.228 195.409" stroke="#F3EBEA" stroke-width="6.75358" stroke-miterlimit="10" stroke-linecap="round" />
        <path d="M941.246 285.74C947.364 280.536 952.641 274.417 956.888 267.599" stroke="#DAD3D2" stroke-opacity="0.3" stroke-width="6.75358" stroke-miterlimit="10" stroke-linecap="round" />
        <path d="M925.586 296.094C927.145 295.315 928.678 294.484 930.181 293.603" stroke="#DAD3D2" stroke-opacity="0.3" stroke-width="6.75358" stroke-miterlimit="10" stroke-linecap="round" />
        <path d="M889.215 304.285C897.246 304.447 905.253 303.365 912.953 301.079" stroke="#F3EBEA" stroke-width="6.75358" stroke-miterlimit="10" stroke-linecap="round" />
        <path d="M837.976 283.659C848.546 293.41 861.61 300.044 875.719 302.826" stroke="#DAD3D2" stroke-opacity="0.3" stroke-width="6.75358" stroke-miterlimit="10" stroke-linecap="round" />
        <path d="M825.812 269.36C826.773 270.814 827.783 272.235 828.839 273.622" stroke="#F3EBEA" stroke-width="6.75358" stroke-miterlimit="10" stroke-linecap="round" />
        <path d="M817.42 252.562C818.005 254.203 818.645 255.825 819.339 257.424" stroke="#F3EBEA" stroke-width="6.75358" stroke-miterlimit="10" stroke-linecap="round" />
        <path d="M813.676 215.475C812.547 223.428 812.656 231.507 813.997 239.427" stroke="#DAD3D2" stroke-opacity="0.3" stroke-width="6.75358" stroke-miterlimit="10" stroke-linecap="round" />
        <path d="M818.536 197.339C817.885 198.956 817.289 200.595 816.748 202.251" stroke="#F3EBEA" stroke-width="6.75358" stroke-miterlimit="10" stroke-linecap="round" />
        <path d="M840.322 167.093C834.203 172.297 828.927 178.417 824.68 185.234" stroke="#DAD3D2" stroke-opacity="0.3" stroke-width="6.75358" stroke-miterlimit="10" stroke-linecap="round" />
        <path d="M910.945 151.187C900.981 148.517 890.585 147.853 880.363 149.234C870.14 150.615 860.293 154.013 851.395 159.23" stroke="#DAD3D2" stroke-opacity="0.3" stroke-width="6.75358" stroke-miterlimit="10" stroke-linecap="round" />
        <path d="M981.404 237.991C984.214 216.003 978.934 193.742 966.547 175.358" stroke="#F3EBEA" stroke-width="6.75358" stroke-miterlimit="10" stroke-linecap="round" />
        <path d="M955.918 290.475C966.724 279.487 974.576 265.945 978.741 251.108" stroke="#F3EBEA" stroke-width="6.75358" stroke-miterlimit="10" stroke-linecap="round" />
        <path d="M940.625 302.977C942.413 301.813 944.16 300.586 945.862 299.3" stroke="#DAD3D2" stroke-opacity="0.3" stroke-width="6.75358" stroke-miterlimit="10" stroke-linecap="round" />
        <path d="M903.867 316.83C912.523 315.577 920.955 313.088 928.904 309.439" stroke="#F3EBEA" stroke-width="6.75358" stroke-miterlimit="10" stroke-linecap="round" />
        <path d="M864.691 313.965C873.074 316.463 881.771 317.744 890.517 317.769" stroke="#F3EBEA" stroke-width="6.75358" stroke-miterlimit="10" stroke-linecap="round" />
        <path d="M817.025 280.324C826.119 292.765 838.213 302.704 852.181 309.216" stroke="#DAD3D2" stroke-opacity="0.3" stroke-width="6.75358" stroke-miterlimit="10" stroke-linecap="round" />
        <path d="M819.104 169.766C808.14 183.642 801.437 200.401 799.811 218.01C798.185 235.62 801.705 253.323 809.943 268.972" stroke="#DAD3D2" stroke-opacity="0.3" stroke-width="6.75358" stroke-miterlimit="10" stroke-linecap="round" />
        <path d="M832.954 155.681C831.302 157.032 829.698 158.44 828.145 159.902" stroke="#DAD3D2" stroke-opacity="0.3" stroke-width="6.75358" stroke-miterlimit="10" stroke-linecap="round" />
        <path d="M868.001 137.935C859.531 140.116 851.418 143.503 843.91 147.99" stroke="#DAD3D2" stroke-opacity="0.3" stroke-width="6.75358" stroke-miterlimit="10" stroke-linecap="round" />
        <path d="M887.551 135.106C885.419 135.182 883.29 135.332 881.168 135.557" stroke="#F3EBEA" stroke-width="6.75358" stroke-miterlimit="10" stroke-linecap="round" />
        <path d="M958.277 164.839C943.337 148.462 922.952 138.076 900.922 135.615" stroke="#F3EBEA" stroke-width="6.75358" stroke-miterlimit="10" stroke-linecap="round" />
        <path d="M939.053 133.341C936.936 132.243 934.782 131.218 932.596 130.267" stroke="#DAD3D2" stroke-opacity="0.3" stroke-width="6.75358" stroke-miterlimit="10" stroke-linecap="round" />
        <path d="M955.792 144.159C953.921 142.681 952 141.267 950.033 139.919" stroke="#DAD3D2" stroke-opacity="0.3" stroke-width="6.75358" stroke-miterlimit="10" stroke-linecap="round" />
        <path d="M981.706 174.209C977.2 166.361 971.696 159.128 965.332 152.693" stroke="#DAD3D2" stroke-opacity="0.3" stroke-width="6.75358" stroke-miterlimit="10" stroke-linecap="round" />
        <path d="M989.944 192.36C989.169 190.104 988.318 187.876 987.391 185.679" stroke="#F3EBEA" stroke-width="6.75358" stroke-miterlimit="10" stroke-linecap="round" />
        <path d="M995.492 231.65C995.944 222.611 995.224 213.551 993.35 204.697" stroke="#DAD3D2" stroke-opacity="0.3" stroke-width="6.75358" stroke-miterlimit="10" stroke-linecap="round" />
        <path d="M986.049 270.192C989.828 261.968 992.527 253.29 994.077 244.373" stroke="#F3EBEA" stroke-width="6.75358" stroke-miterlimit="10" stroke-linecap="round" />
        <path d="M947.254 314.744C960.531 306.256 971.723 294.885 979.999 281.475" stroke="#DAD3D2" stroke-opacity="0.3" stroke-width="6.75358" stroke-miterlimit="10" stroke-linecap="round" />
        <path d="M929.52 323.834C931.735 322.953 933.92 321.997 936.071 320.967" stroke="#DAD3D2" stroke-opacity="0.3" stroke-width="6.75358" stroke-miterlimit="10" stroke-linecap="round" />
        <path d="M890.539 331.252C899.59 331.273 908.605 330.123 917.36 327.829" stroke="#DAD3D2" stroke-opacity="0.3" stroke-width="6.75358" stroke-miterlimit="10" stroke-linecap="round" />
        <path d="M870.703 329.311C873.043 329.767 875.399 330.144 877.765 330.44" stroke="#F3EBEA" stroke-width="6.75358" stroke-miterlimit="10" stroke-linecap="round" />
        <path d="M851.591 323.65C853.803 324.541 856.044 325.357 858.311 326.096" stroke="#F3EBEA" stroke-width="6.75358" stroke-miterlimit="10" stroke-linecap="round" />
        <path d="M818.262 302.115C824.797 308.376 832.116 313.765 840.035 318.147" stroke="#DAD3D2" stroke-opacity="0.3" stroke-width="6.75358" stroke-miterlimit="10" stroke-linecap="round" />
        <path d="M805.248 287.023C806.627 288.969 808.071 290.867 809.579 292.714" stroke="#DAD3D2" stroke-opacity="0.3" stroke-width="6.75358" stroke-miterlimit="10" stroke-linecap="round" />
        <path d="M795.321 269.736C796.306 271.907 797.365 274.044 798.496 276.143" stroke="#F3EBEA" stroke-width="6.75358" stroke-miterlimit="10" stroke-linecap="round" />
        <path d="M787.05 211.247C784.771 226.839 786.035 242.745 790.75 257.781" stroke="#DAD3D2" stroke-opacity="0.3" stroke-width="6.75358" stroke-miterlimit="10" stroke-linecap="round" />
        <path d="M791.799 191.887C791.013 194.139 790.305 196.416 789.675 198.716" stroke="#DAD3D2" stroke-opacity="0.3" stroke-width="6.75358" stroke-miterlimit="10" stroke-linecap="round" />
        <path d="M811.719 157.571C805.776 164.396 800.742 171.963 796.742 180.082" stroke="#F3EBEA" stroke-width="6.75358" stroke-miterlimit="10" stroke-linecap="round" />
        <path d="M826.177 143.85C824.3 145.32 822.473 146.853 820.699 148.447" stroke="#DAD3D2" stroke-opacity="0.3" stroke-width="6.75358" stroke-miterlimit="10" stroke-linecap="round" />
        <path d="M842.972 133.117C840.85 134.204 838.766 135.364 836.723 136.594" stroke="#F3EBEA" stroke-width="6.75358" stroke-miterlimit="10" stroke-linecap="round" />
        <path d="M920.566 125.892C898.957 119.49 875.859 120.224 854.699 127.982" stroke="#F3EBEA" stroke-width="6.75358" stroke-miterlimit="10" stroke-linecap="round" />
        <path d="M890.785 217.803C885.989 217.803 882.141 221.651 882.141 226.476C882.141 231.272 885.989 235.12 890.785 235.12C895.581 235.12 899.429 231.272 899.429 226.476C899.429 221.622 895.581 217.803 890.785 217.803ZM890.785 232.219C887.626 232.219 885.041 229.663 885.041 226.476C885.041 223.259 887.597 220.703 890.785 220.703C893.973 220.703 896.528 223.259 896.528 226.476C896.528 229.663 893.973 232.219 890.785 232.219Z" fill="#F3EBEA" />
        <path d="M902.619 218.434C901.441 218.434 900.465 219.439 900.465 220.559C900.465 221.765 901.441 222.684 902.619 222.684C903.767 222.655 904.744 221.736 904.744 220.559C904.744 219.41 903.767 218.434 902.619 218.434Z" fill="#F3EBEA" />
        <path d="M890.817 195.746C890.817 195.746 890.788 195.746 890.817 195.746C873.845 195.746 860.117 209.473 860.117 226.417C860.117 243.361 873.845 257.088 890.788 257.088C907.732 257.088 921.459 243.361 921.459 226.417C921.459 209.502 907.732 195.775 890.817 195.746ZM910.604 234.918C910.604 238.335 908.766 240.145 905.32 240.145H876.228C872.753 240.145 870.944 238.335 870.944 234.918V218.089C870.944 214.671 872.753 212.862 876.228 212.862H880.421C881.685 212.862 882.087 212.632 882.862 211.828L884.126 210.479C884.958 209.588 885.82 209.158 887.457 209.158H894.033C895.67 209.158 896.532 209.588 897.365 210.479L898.628 211.828C899.404 212.632 899.806 212.862 901.069 212.862H905.32C908.795 212.862 910.604 214.671 910.604 218.089V234.918H910.604Z" fill="#F3EBEA" />
    </g>
    <path d="M1095.38 196.24C1094.54 196.24 1093.78 196.093 1093.1 195.8C1092.43 195.507 1091.88 195.088 1091.44 194.544C1091.01 193.995 1090.73 193.344 1090.62 192.592L1092.62 192.288C1092.79 192.971 1093.14 193.499 1093.66 193.872C1094.2 194.245 1094.81 194.432 1095.5 194.432C1095.91 194.432 1096.3 194.368 1096.66 194.24C1097.03 194.112 1097.32 193.925 1097.54 193.68C1097.77 193.435 1097.89 193.133 1097.89 192.776C1097.89 192.616 1097.86 192.469 1097.81 192.336C1097.75 192.197 1097.67 192.075 1097.57 191.968C1097.47 191.861 1097.33 191.765 1097.17 191.68C1097.01 191.589 1096.82 191.512 1096.61 191.448L1093.63 190.568C1093.38 190.493 1093.1 190.395 1092.8 190.272C1092.51 190.144 1092.23 189.971 1091.96 189.752C1091.7 189.528 1091.48 189.245 1091.31 188.904C1091.15 188.557 1091.06 188.131 1091.06 187.624C1091.06 186.883 1091.25 186.261 1091.62 185.76C1092 185.253 1092.51 184.875 1093.14 184.624C1093.78 184.373 1094.49 184.251 1095.27 184.256C1096.06 184.261 1096.77 184.397 1097.38 184.664C1098 184.925 1098.52 185.307 1098.94 185.808C1099.35 186.309 1099.65 186.915 1099.82 187.624L1097.74 187.984C1097.66 187.579 1097.49 187.235 1097.25 186.952C1097.01 186.664 1096.71 186.445 1096.36 186.296C1096.01 186.147 1095.64 186.067 1095.25 186.056C1094.86 186.051 1094.51 186.109 1094.18 186.232C1093.85 186.349 1093.59 186.52 1093.38 186.744C1093.19 186.968 1093.09 187.229 1093.09 187.528C1093.09 187.811 1093.17 188.043 1093.34 188.224C1093.51 188.4 1093.73 188.541 1093.98 188.648C1094.23 188.749 1094.49 188.835 1094.75 188.904L1096.82 189.48C1097.1 189.555 1097.42 189.656 1097.77 189.784C1098.12 189.912 1098.46 190.091 1098.78 190.32C1099.11 190.549 1099.38 190.851 1099.58 191.224C1099.8 191.597 1099.9 192.072 1099.9 192.648C1099.9 193.245 1099.78 193.771 1099.53 194.224C1099.28 194.672 1098.95 195.045 1098.53 195.344C1098.11 195.643 1097.62 195.867 1097.08 196.016C1096.54 196.165 1095.98 196.24 1095.38 196.24ZM1105.39 196.24C1104.5 196.24 1103.74 196.043 1103.11 195.648C1102.48 195.248 1102 194.704 1101.66 194.016C1101.33 193.328 1101.16 192.549 1101.16 191.68C1101.16 190.795 1101.33 190.011 1101.68 189.328C1102.02 188.64 1102.51 188.101 1103.15 187.712C1103.78 187.317 1104.54 187.12 1105.41 187.12C1106.39 187.12 1107.22 187.368 1107.9 187.864C1108.58 188.355 1109.03 189.027 1109.24 189.88L1107.32 190.4C1107.17 189.936 1106.92 189.576 1106.57 189.32C1106.22 189.059 1105.83 188.928 1105.39 188.928C1104.89 188.928 1104.47 189.048 1104.15 189.288C1103.82 189.523 1103.58 189.848 1103.43 190.264C1103.27 190.68 1103.2 191.152 1103.2 191.68C1103.2 192.501 1103.38 193.165 1103.75 193.672C1104.12 194.179 1104.66 194.432 1105.39 194.432C1105.9 194.432 1106.3 194.315 1106.6 194.08C1106.89 193.845 1107.12 193.507 1107.27 193.064L1109.24 193.504C1108.97 194.384 1108.5 195.061 1107.84 195.536C1107.17 196.005 1106.35 196.24 1105.39 196.24ZM1113.11 196.24C1112.49 196.24 1111.96 196.123 1111.53 195.888C1111.1 195.648 1110.77 195.331 1110.55 194.936C1110.33 194.541 1110.22 194.107 1110.22 193.632C1110.22 193.216 1110.29 192.843 1110.43 192.512C1110.56 192.176 1110.78 191.888 1111.07 191.648C1111.35 191.403 1111.73 191.203 1112.19 191.048C1112.53 190.936 1112.94 190.835 1113.4 190.744C1113.87 190.653 1114.38 190.571 1114.92 190.496C1115.47 190.416 1116.04 190.331 1116.64 190.24L1115.95 190.632C1115.96 190.035 1115.83 189.595 1115.55 189.312C1115.28 189.029 1114.82 188.888 1114.18 188.888C1113.79 188.888 1113.41 188.979 1113.05 189.16C1112.69 189.341 1112.43 189.653 1112.29 190.096L1110.53 189.544C1110.74 188.813 1111.15 188.227 1111.75 187.784C1112.35 187.341 1113.16 187.12 1114.18 187.12C1114.95 187.12 1115.62 187.245 1116.2 187.496C1116.79 187.747 1117.22 188.157 1117.51 188.728C1117.66 189.032 1117.75 189.344 1117.79 189.664C1117.82 189.979 1117.83 190.323 1117.83 190.696V196H1116.15V194.128L1116.43 194.432C1116.04 195.056 1115.58 195.515 1115.06 195.808C1114.54 196.096 1113.89 196.24 1113.11 196.24ZM1113.5 194.704C1113.94 194.704 1114.31 194.627 1114.62 194.472C1114.93 194.317 1115.17 194.128 1115.35 193.904C1115.54 193.68 1115.67 193.469 1115.73 193.272C1115.83 193.027 1115.89 192.747 1115.9 192.432C1115.91 192.112 1115.92 191.853 1115.92 191.656L1116.51 191.832C1115.93 191.923 1115.43 192.003 1115.02 192.072C1114.6 192.141 1114.24 192.208 1113.95 192.272C1113.65 192.331 1113.38 192.397 1113.15 192.472C1112.93 192.552 1112.74 192.645 1112.59 192.752C1112.43 192.859 1112.31 192.981 1112.23 193.12C1112.15 193.259 1112.11 193.421 1112.11 193.608C1112.11 193.821 1112.16 194.011 1112.27 194.176C1112.37 194.336 1112.53 194.464 1112.73 194.56C1112.94 194.656 1113.19 194.704 1113.5 194.704ZM1125.89 196V191.84C1125.89 191.568 1125.87 191.267 1125.84 190.936C1125.8 190.605 1125.71 190.288 1125.57 189.984C1125.44 189.675 1125.24 189.421 1124.96 189.224C1124.7 189.027 1124.34 188.928 1123.88 188.928C1123.63 188.928 1123.39 188.968 1123.15 189.048C1122.91 189.128 1122.69 189.267 1122.49 189.464C1122.3 189.656 1122.15 189.923 1122.03 190.264C1121.91 190.6 1121.85 191.032 1121.85 191.56L1120.71 191.072C1120.71 190.336 1120.85 189.669 1121.13 189.072C1121.42 188.475 1121.84 188 1122.4 187.648C1122.95 187.291 1123.63 187.112 1124.44 187.112C1125.08 187.112 1125.61 187.219 1126.03 187.432C1126.44 187.645 1126.78 187.917 1127.02 188.248C1127.27 188.579 1127.45 188.931 1127.56 189.304C1127.68 189.677 1127.76 190.032 1127.79 190.368C1127.83 190.699 1127.84 190.968 1127.84 191.176V196H1125.89ZM1119.9 196V187.36H1121.62V190.04H1121.85V196H1119.9ZM1138.2 196C1137.63 196.107 1137.07 196.152 1136.52 196.136C1135.98 196.125 1135.49 196.027 1135.06 195.84C1134.62 195.648 1134.3 195.347 1134.07 194.936C1133.87 194.563 1133.77 194.181 1133.76 193.792C1133.75 193.403 1133.74 192.963 1133.74 192.472V184.96H1135.66V192.36C1135.66 192.707 1135.67 193.011 1135.67 193.272C1135.68 193.533 1135.74 193.747 1135.84 193.912C1136.03 194.232 1136.34 194.411 1136.76 194.448C1137.18 194.485 1137.66 194.464 1138.2 194.384V196ZM1132.18 188.872V187.36H1138.2V188.872H1132.18ZM1146.03 196V191.84C1146.03 191.568 1146.01 191.267 1145.98 190.936C1145.94 190.605 1145.85 190.288 1145.71 189.984C1145.58 189.675 1145.38 189.421 1145.11 189.224C1144.84 189.027 1144.48 188.928 1144.02 188.928C1143.77 188.928 1143.53 188.968 1143.29 189.048C1143.05 189.128 1142.83 189.267 1142.63 189.464C1142.44 189.656 1142.29 189.923 1142.17 190.264C1142.05 190.6 1141.99 191.032 1141.99 191.56L1140.85 191.072C1140.85 190.336 1140.99 189.669 1141.27 189.072C1141.56 188.475 1141.98 188 1142.54 187.648C1143.09 187.291 1143.77 187.112 1144.59 187.112C1145.23 187.112 1145.75 187.219 1146.17 187.432C1146.59 187.645 1146.92 187.917 1147.16 188.248C1147.41 188.579 1147.59 188.931 1147.71 189.304C1147.82 189.677 1147.9 190.032 1147.93 190.368C1147.97 190.699 1147.99 190.968 1147.99 191.176V196H1146.03ZM1140.04 196V184.48H1141.76V190.544H1141.99V196H1140.04ZM1154 196.24C1153.13 196.24 1152.36 196.051 1151.7 195.672C1151.04 195.293 1150.52 194.768 1150.15 194.096C1149.78 193.424 1149.59 192.651 1149.59 191.776C1149.59 190.832 1149.77 190.013 1150.14 189.32C1150.5 188.621 1151 188.08 1151.65 187.696C1152.29 187.312 1153.04 187.12 1153.89 187.12C1154.79 187.12 1155.55 187.331 1156.17 187.752C1156.8 188.168 1157.27 188.757 1157.57 189.52C1157.87 190.283 1157.99 191.181 1157.91 192.216H1156V191.512C1156 190.573 1155.83 189.888 1155.51 189.456C1155.18 189.024 1154.67 188.808 1153.97 188.808C1153.18 188.808 1152.59 189.053 1152.21 189.544C1151.83 190.029 1151.63 190.741 1151.63 191.68C1151.63 192.555 1151.83 193.232 1152.21 193.712C1152.59 194.192 1153.15 194.432 1153.89 194.432C1154.36 194.432 1154.77 194.328 1155.11 194.12C1155.46 193.907 1155.73 193.6 1155.91 193.2L1157.82 193.776C1157.49 194.555 1156.97 195.16 1156.28 195.592C1155.59 196.024 1154.83 196.24 1154 196.24ZM1151.03 192.216V190.76H1156.97V192.216H1151.03ZM1166.65 196.24C1165.76 196.24 1165 196.043 1164.37 195.648C1163.74 195.248 1163.26 194.704 1162.93 194.016C1162.59 193.328 1162.43 192.549 1162.42 191.68C1162.43 190.795 1162.6 190.011 1162.94 189.328C1163.29 188.64 1163.78 188.101 1164.41 187.712C1165.05 187.317 1165.8 187.12 1166.68 187.12C1167.66 187.12 1168.49 187.368 1169.17 187.864C1169.85 188.355 1170.29 189.027 1170.5 189.88L1168.58 190.4C1168.43 189.936 1168.18 189.576 1167.84 189.32C1167.49 189.059 1167.1 188.928 1166.65 188.928C1166.15 188.928 1165.74 189.048 1165.41 189.288C1165.09 189.523 1164.85 189.848 1164.69 190.264C1164.54 190.68 1164.46 191.152 1164.46 191.68C1164.46 192.501 1164.65 193.165 1165.01 193.672C1165.38 194.179 1165.93 194.432 1166.65 194.432C1167.17 194.432 1167.57 194.315 1167.86 194.08C1168.16 193.845 1168.38 193.507 1168.53 193.064L1170.5 193.504C1170.23 194.384 1169.77 195.061 1169.1 195.536C1168.43 196.005 1167.62 196.24 1166.65 196.24ZM1175.69 196.24C1174.82 196.24 1174.07 196.045 1173.42 195.656C1172.78 195.267 1172.28 194.731 1171.92 194.048C1171.57 193.36 1171.39 192.571 1171.39 191.68C1171.39 190.773 1171.57 189.979 1171.93 189.296C1172.3 188.613 1172.8 188.08 1173.45 187.696C1174.09 187.312 1174.84 187.12 1175.69 187.12C1176.56 187.12 1177.31 187.315 1177.96 187.704C1178.6 188.093 1179.1 188.632 1179.46 189.32C1179.82 190.003 1180 190.789 1180 191.68C1180 192.576 1179.82 193.368 1179.45 194.056C1179.1 194.739 1178.6 195.275 1177.95 195.664C1177.3 196.048 1176.55 196.24 1175.69 196.24ZM1175.69 194.432C1176.45 194.432 1177.02 194.176 1177.4 193.664C1177.77 193.152 1177.96 192.491 1177.96 191.68C1177.96 190.843 1177.77 190.176 1177.39 189.68C1177.01 189.179 1176.44 188.928 1175.69 188.928C1175.17 188.928 1174.74 189.045 1174.41 189.28C1174.08 189.509 1173.83 189.832 1173.67 190.248C1173.51 190.659 1173.43 191.136 1173.43 191.68C1173.43 192.517 1173.62 193.187 1174 193.688C1174.38 194.184 1174.94 194.432 1175.69 194.432ZM1185.22 196.24C1184.43 196.24 1183.74 196.04 1183.14 195.64C1182.55 195.24 1182.09 194.696 1181.77 194.008C1181.44 193.32 1181.28 192.544 1181.28 191.68C1181.28 190.805 1181.44 190.027 1181.77 189.344C1182.1 188.656 1182.57 188.115 1183.17 187.72C1183.77 187.32 1184.48 187.12 1185.3 187.12C1186.12 187.12 1186.81 187.32 1187.36 187.72C1187.92 188.115 1188.34 188.656 1188.63 189.344C1188.92 190.032 1189.06 190.811 1189.06 191.68C1189.06 192.539 1188.92 193.315 1188.63 194.008C1188.34 194.696 1187.92 195.24 1187.34 195.64C1186.77 196.04 1186.07 196.24 1185.22 196.24ZM1185.52 194.512C1186.04 194.512 1186.45 194.395 1186.77 194.16C1187.09 193.92 1187.32 193.587 1187.46 193.16C1187.61 192.733 1187.69 192.24 1187.69 191.68C1187.69 191.115 1187.61 190.621 1187.46 190.2C1187.32 189.773 1187.09 189.443 1186.78 189.208C1186.48 188.968 1186.08 188.848 1185.58 188.848C1185.07 188.848 1184.64 188.976 1184.3 189.232C1183.97 189.483 1183.72 189.824 1183.56 190.256C1183.4 190.683 1183.32 191.157 1183.32 191.68C1183.32 192.208 1183.4 192.688 1183.55 193.12C1183.71 193.547 1183.96 193.885 1184.28 194.136C1184.61 194.387 1185.02 194.512 1185.52 194.512ZM1187.69 196V189.936H1187.45V184.48H1189.39V196H1187.69ZM1195.56 196.24C1194.69 196.24 1193.92 196.051 1193.26 195.672C1192.6 195.293 1192.08 194.768 1191.71 194.096C1191.34 193.424 1191.16 192.651 1191.16 191.776C1191.16 190.832 1191.34 190.013 1191.7 189.32C1192.06 188.621 1192.57 188.08 1193.21 187.696C1193.86 187.312 1194.6 187.12 1195.45 187.12C1196.35 187.12 1197.11 187.331 1197.73 187.752C1198.36 188.168 1198.83 188.757 1199.13 189.52C1199.44 190.283 1199.55 191.181 1199.48 192.216H1197.56V191.512C1197.56 190.573 1197.39 189.888 1197.07 189.456C1196.74 189.024 1196.23 188.808 1195.53 188.808C1194.74 188.808 1194.16 189.053 1193.77 189.544C1193.39 190.029 1193.2 190.741 1193.2 191.68C1193.2 192.555 1193.39 193.232 1193.77 193.712C1194.16 194.192 1194.72 194.432 1195.45 194.432C1195.93 194.432 1196.33 194.328 1196.68 194.12C1197.02 193.907 1197.29 193.6 1197.48 193.2L1199.38 193.776C1199.05 194.555 1198.54 195.16 1197.84 195.592C1197.16 196.024 1196.4 196.24 1195.56 196.24ZM1192.59 192.216V190.76H1198.53V192.216H1192.59ZM1096.18 218C1095.61 218.107 1095.05 218.152 1094.5 218.136C1093.96 218.125 1093.47 218.027 1093.04 217.84C1092.61 217.648 1092.28 217.347 1092.06 216.936C1091.86 216.563 1091.75 216.181 1091.74 215.792C1091.73 215.403 1091.73 214.963 1091.73 214.472V206.96H1093.65V214.36C1093.65 214.707 1093.65 215.011 1093.66 215.272C1093.67 215.533 1093.72 215.747 1093.82 215.912C1094.02 216.232 1094.32 216.411 1094.74 216.448C1095.17 216.485 1095.65 216.464 1096.18 216.384V218ZM1090.16 210.872V209.36H1096.18V210.872H1090.16ZM1101.42 218.24C1100.56 218.24 1099.8 218.045 1099.16 217.656C1098.51 217.267 1098.01 216.731 1097.65 216.048C1097.3 215.36 1097.12 214.571 1097.12 213.68C1097.12 212.773 1097.31 211.979 1097.67 211.296C1098.03 210.613 1098.54 210.08 1099.18 209.696C1099.83 209.312 1100.57 209.12 1101.42 209.12C1102.29 209.12 1103.05 209.315 1103.69 209.704C1104.34 210.093 1104.84 210.632 1105.2 211.32C1105.55 212.003 1105.73 212.789 1105.73 213.68C1105.73 214.576 1105.55 215.368 1105.19 216.056C1104.83 216.739 1104.33 217.275 1103.68 217.664C1103.04 218.048 1102.28 218.24 1101.42 218.24ZM1101.42 216.432C1102.19 216.432 1102.76 216.176 1103.13 215.664C1103.51 215.152 1103.69 214.491 1103.69 213.68C1103.69 212.843 1103.5 212.176 1103.12 211.68C1102.75 211.179 1102.18 210.928 1101.42 210.928C1100.9 210.928 1100.48 211.045 1100.14 211.28C1099.81 211.509 1099.56 211.832 1099.4 212.248C1099.24 212.659 1099.16 213.136 1099.16 213.68C1099.16 214.517 1099.35 215.187 1099.73 215.688C1100.12 216.184 1100.68 216.432 1101.42 216.432ZM1114.51 218.24C1113.65 218.24 1112.9 218.045 1112.25 217.656C1111.6 217.267 1111.1 216.731 1110.75 216.048C1110.39 215.36 1110.22 214.571 1110.22 213.68C1110.22 212.773 1110.4 211.979 1110.76 211.296C1111.12 210.613 1111.63 210.08 1112.27 209.696C1112.92 209.312 1113.67 209.12 1114.51 209.12C1115.38 209.12 1116.14 209.315 1116.79 209.704C1117.43 210.093 1117.93 210.632 1118.29 211.32C1118.65 212.003 1118.83 212.789 1118.83 213.68C1118.83 214.576 1118.64 215.368 1118.28 216.056C1117.92 216.739 1117.42 217.275 1116.78 217.664C1116.13 218.048 1115.38 218.24 1114.51 218.24ZM1114.51 216.432C1115.28 216.432 1115.85 216.176 1116.23 215.664C1116.6 215.152 1116.79 214.491 1116.79 213.68C1116.79 212.843 1116.6 212.176 1116.22 211.68C1115.84 211.179 1115.27 210.928 1114.51 210.928C1114 210.928 1113.57 211.045 1113.23 211.28C1112.9 211.509 1112.66 211.832 1112.5 212.248C1112.34 212.659 1112.26 213.136 1112.26 213.68C1112.26 214.517 1112.45 215.187 1112.83 215.688C1113.21 216.184 1113.77 216.432 1114.51 216.432ZM1124.74 218.24C1123.9 218.24 1123.19 218.04 1122.62 217.64C1122.05 217.24 1121.62 216.696 1121.33 216.008C1121.04 215.315 1120.9 214.539 1120.9 213.68C1120.9 212.811 1121.04 212.032 1121.33 211.344C1121.62 210.656 1122.04 210.115 1122.6 209.72C1123.16 209.32 1123.85 209.12 1124.67 209.12C1125.48 209.12 1126.19 209.32 1126.79 209.72C1127.39 210.115 1127.86 210.656 1128.19 211.344C1128.52 212.027 1128.68 212.805 1128.68 213.68C1128.68 214.544 1128.52 215.32 1128.2 216.008C1127.87 216.696 1127.41 217.24 1126.82 217.64C1126.23 218.04 1125.54 218.24 1124.74 218.24ZM1120.57 221.84V209.36H1122.28V215.424H1122.52V221.84H1120.57ZM1124.44 216.512C1124.95 216.512 1125.36 216.387 1125.68 216.136C1126.01 215.885 1126.25 215.547 1126.4 215.12C1126.56 214.688 1126.64 214.208 1126.64 213.68C1126.64 213.157 1126.56 212.683 1126.4 212.256C1126.24 211.824 1126 211.483 1125.66 211.232C1125.32 210.976 1124.9 210.848 1124.38 210.848C1123.89 210.848 1123.49 210.968 1123.18 211.208C1122.87 211.443 1122.64 211.773 1122.49 212.2C1122.35 212.621 1122.28 213.115 1122.28 213.68C1122.28 214.24 1122.35 214.733 1122.49 215.16C1122.64 215.587 1122.87 215.92 1123.19 216.16C1123.51 216.395 1123.93 216.512 1124.44 216.512ZM1134.38 218.24C1133.5 218.24 1132.73 218.051 1132.07 217.672C1131.41 217.293 1130.89 216.768 1130.52 216.096C1130.15 215.424 1129.97 214.651 1129.97 213.776C1129.97 212.832 1130.15 212.013 1130.51 211.32C1130.87 210.621 1131.38 210.08 1132.02 209.696C1132.67 209.312 1133.42 209.12 1134.26 209.12C1135.16 209.12 1135.92 209.331 1136.54 209.752C1137.17 210.168 1137.64 210.757 1137.94 211.52C1138.25 212.283 1138.36 213.181 1138.29 214.216H1136.38V213.512C1136.37 212.573 1136.21 211.888 1135.88 211.456C1135.55 211.024 1135.04 210.808 1134.34 210.808C1133.55 210.808 1132.97 211.053 1132.58 211.544C1132.2 212.029 1132.01 212.741 1132.01 213.68C1132.01 214.555 1132.2 215.232 1132.58 215.712C1132.97 216.192 1133.53 216.432 1134.26 216.432C1134.74 216.432 1135.15 216.328 1135.49 216.12C1135.83 215.907 1136.1 215.6 1136.29 215.2L1138.19 215.776C1137.86 216.555 1137.35 217.16 1136.66 217.592C1135.97 218.024 1135.21 218.24 1134.38 218.24ZM1131.4 214.216V212.76H1137.34V214.216H1131.4ZM1145.81 218V213.84C1145.81 213.568 1145.8 213.267 1145.76 212.936C1145.72 212.605 1145.63 212.288 1145.49 211.984C1145.36 211.675 1145.16 211.421 1144.89 211.224C1144.62 211.027 1144.26 210.928 1143.8 210.928C1143.55 210.928 1143.31 210.968 1143.07 211.048C1142.83 211.128 1142.61 211.267 1142.41 211.464C1142.22 211.656 1142.07 211.923 1141.95 212.264C1141.83 212.6 1141.77 213.032 1141.77 213.56L1140.63 213.072C1140.63 212.336 1140.77 211.669 1141.05 211.072C1141.34 210.475 1141.76 210 1142.32 209.648C1142.87 209.291 1143.56 209.112 1144.37 209.112C1145.01 209.112 1145.53 209.219 1145.95 209.432C1146.37 209.645 1146.7 209.917 1146.94 210.248C1147.19 210.579 1147.37 210.931 1147.49 211.304C1147.6 211.677 1147.68 212.032 1147.71 212.368C1147.75 212.699 1147.77 212.968 1147.77 213.176V218H1145.81ZM1139.82 218V209.36H1141.54V212.04H1141.77V218H1139.82ZM1153.22 208.048V206.28H1155.15V208.048H1153.22ZM1153.22 218V209.36H1155.15V218H1153.22ZM1162.41 218.24C1161.26 218.24 1160.28 217.989 1159.45 217.488C1158.63 216.981 1158 216.277 1157.56 215.376C1157.12 214.475 1156.9 213.429 1156.9 212.24C1156.9 211.051 1157.12 210.005 1157.56 209.104C1158 208.203 1158.63 207.501 1159.45 207C1160.28 206.493 1161.26 206.24 1162.41 206.24C1163.57 206.24 1164.55 206.493 1165.37 207C1166.2 207.501 1166.83 208.203 1167.27 209.104C1167.71 210.005 1167.93 211.051 1167.93 212.24C1167.93 213.429 1167.71 214.475 1167.27 215.376C1166.83 216.277 1166.2 216.981 1165.37 217.488C1164.55 217.989 1163.57 218.24 1162.41 218.24ZM1162.41 216.424C1163.19 216.429 1163.83 216.259 1164.34 215.912C1164.86 215.565 1165.25 215.077 1165.5 214.448C1165.76 213.819 1165.89 213.083 1165.89 212.24C1165.89 211.397 1165.76 210.667 1165.5 210.048C1165.25 209.424 1164.86 208.939 1164.34 208.592C1163.83 208.245 1163.19 208.067 1162.41 208.056C1161.64 208.051 1161 208.221 1160.49 208.568C1159.97 208.915 1159.59 209.403 1159.33 210.032C1159.07 210.661 1158.94 211.397 1158.94 212.24C1158.94 213.083 1159.07 213.816 1159.33 214.44C1159.58 215.059 1159.97 215.541 1160.48 215.888C1161 216.235 1161.64 216.413 1162.41 216.424ZM1173.79 218.24C1172.95 218.24 1172.19 218.093 1171.51 217.8C1170.84 217.507 1170.28 217.088 1169.85 216.544C1169.41 215.995 1169.14 215.344 1169.02 214.592L1171.02 214.288C1171.19 214.971 1171.54 215.499 1172.07 215.872C1172.6 216.245 1173.22 216.432 1173.91 216.432C1174.32 216.432 1174.71 216.368 1175.07 216.24C1175.43 216.112 1175.73 215.925 1175.95 215.68C1176.18 215.435 1176.29 215.133 1176.29 214.776C1176.29 214.616 1176.27 214.469 1176.21 214.336C1176.16 214.197 1176.08 214.075 1175.97 213.968C1175.87 213.861 1175.74 213.765 1175.57 213.68C1175.41 213.589 1175.23 213.512 1175.01 213.448L1172.04 212.568C1171.78 212.493 1171.5 212.395 1171.21 212.272C1170.91 212.144 1170.63 211.971 1170.37 211.752C1170.1 211.528 1169.89 211.245 1169.72 210.904C1169.55 210.557 1169.47 210.131 1169.47 209.624C1169.47 208.883 1169.66 208.261 1170.03 207.76C1170.41 207.253 1170.92 206.875 1171.55 206.624C1172.19 206.373 1172.9 206.251 1173.68 206.256C1174.47 206.261 1175.17 206.397 1175.79 206.664C1176.41 206.925 1176.93 207.307 1177.34 207.808C1177.76 208.309 1178.05 208.915 1178.22 209.624L1176.15 209.984C1176.06 209.579 1175.9 209.235 1175.65 208.952C1175.41 208.664 1175.12 208.445 1174.77 208.296C1174.42 208.147 1174.05 208.067 1173.65 208.056C1173.27 208.051 1172.91 208.109 1172.58 208.232C1172.26 208.349 1171.99 208.52 1171.79 208.744C1171.59 208.968 1171.49 209.229 1171.49 209.528C1171.49 209.811 1171.58 210.043 1171.75 210.224C1171.92 210.4 1172.13 210.541 1172.38 210.648C1172.64 210.749 1172.9 210.835 1173.16 210.904L1175.22 211.48C1175.5 211.555 1175.82 211.656 1176.17 211.784C1176.53 211.912 1176.86 212.091 1177.19 212.32C1177.52 212.549 1177.78 212.851 1177.99 213.224C1178.2 213.597 1178.31 214.072 1178.31 214.648C1178.31 215.245 1178.18 215.771 1177.93 216.224C1177.69 216.672 1177.36 217.045 1176.93 217.344C1176.51 217.643 1176.03 217.867 1175.49 218.016C1174.95 218.165 1174.38 218.24 1173.79 218.24ZM1185.66 218.24C1185.04 218.24 1184.51 218.123 1184.08 217.888C1183.65 217.648 1183.32 217.331 1183.09 216.936C1182.87 216.541 1182.77 216.107 1182.77 215.632C1182.77 215.216 1182.83 214.843 1182.97 214.512C1183.11 214.176 1183.33 213.888 1183.61 213.648C1183.9 213.403 1184.27 213.203 1184.73 213.048C1185.08 212.936 1185.49 212.835 1185.95 212.744C1186.42 212.653 1186.93 212.571 1187.47 212.496C1188.02 212.416 1188.59 212.331 1189.19 212.24L1188.5 212.632C1188.51 212.035 1188.37 211.595 1188.1 211.312C1187.83 211.029 1187.37 210.888 1186.73 210.888C1186.34 210.888 1185.96 210.979 1185.6 211.16C1185.23 211.341 1184.98 211.653 1184.84 212.096L1183.08 211.544C1183.29 210.813 1183.7 210.227 1184.29 209.784C1184.9 209.341 1185.71 209.12 1186.73 209.12C1187.49 209.12 1188.17 209.245 1188.75 209.496C1189.34 209.747 1189.77 210.157 1190.05 210.728C1190.21 211.032 1190.3 211.344 1190.33 211.664C1190.37 211.979 1190.38 212.323 1190.38 212.696V218H1188.69V216.128L1188.97 216.432C1188.58 217.056 1188.13 217.515 1187.61 217.808C1187.09 218.096 1186.44 218.24 1185.66 218.24ZM1186.05 216.704C1186.48 216.704 1186.86 216.627 1187.17 216.472C1187.47 216.317 1187.72 216.128 1187.9 215.904C1188.09 215.68 1188.21 215.469 1188.28 215.272C1188.38 215.027 1188.43 214.747 1188.45 214.432C1188.46 214.112 1188.47 213.853 1188.47 213.656L1189.06 213.832C1188.48 213.923 1187.98 214.003 1187.57 214.072C1187.15 214.141 1186.79 214.208 1186.49 214.272C1186.19 214.331 1185.93 214.397 1185.7 214.472C1185.48 214.552 1185.29 214.645 1185.13 214.752C1184.98 214.859 1184.86 214.981 1184.77 215.12C1184.69 215.259 1184.65 215.421 1184.65 215.608C1184.65 215.821 1184.71 216.011 1184.81 216.176C1184.92 216.336 1185.07 216.464 1185.28 216.56C1185.49 216.656 1185.74 216.704 1186.05 216.704ZM1196.62 218.24C1195.77 218.24 1195.07 218.04 1194.5 217.64C1193.93 217.24 1193.5 216.696 1193.21 216.008C1192.92 215.315 1192.78 214.539 1192.78 213.68C1192.78 212.811 1192.92 212.032 1193.21 211.344C1193.5 210.656 1193.92 210.115 1194.47 209.72C1195.03 209.32 1195.72 209.12 1196.54 209.12C1197.36 209.12 1198.07 209.32 1198.66 209.72C1199.27 210.115 1199.73 210.656 1200.06 211.344C1200.39 212.027 1200.56 212.805 1200.56 213.68C1200.56 214.544 1200.4 215.32 1200.07 216.008C1199.75 216.696 1199.29 217.24 1198.7 217.64C1198.1 218.04 1197.41 218.24 1196.62 218.24ZM1192.45 221.84V209.36H1194.15V215.424H1194.39V221.84H1192.45ZM1196.32 216.512C1196.82 216.512 1197.23 216.387 1197.56 216.136C1197.89 215.885 1198.13 215.547 1198.28 215.12C1198.44 214.688 1198.52 214.208 1198.52 213.68C1198.52 213.157 1198.44 212.683 1198.28 212.256C1198.12 211.824 1197.87 211.483 1197.54 211.232C1197.2 210.976 1196.77 210.848 1196.26 210.848C1195.77 210.848 1195.37 210.968 1195.06 211.208C1194.75 211.443 1194.52 211.773 1194.37 212.2C1194.22 212.621 1194.15 213.115 1194.15 213.68C1194.15 214.24 1194.22 214.733 1194.37 215.16C1194.52 215.587 1194.75 215.92 1195.06 216.16C1195.38 216.395 1195.8 216.512 1196.32 216.512ZM1206.48 218.24C1205.63 218.24 1204.93 218.04 1204.36 217.64C1203.78 217.24 1203.36 216.696 1203.07 216.008C1202.78 215.315 1202.64 214.539 1202.64 213.68C1202.64 212.811 1202.78 212.032 1203.07 211.344C1203.36 210.656 1203.78 210.115 1204.33 209.72C1204.89 209.32 1205.58 209.12 1206.4 209.12C1207.22 209.12 1207.93 209.32 1208.52 209.72C1209.13 210.115 1209.59 210.656 1209.92 211.344C1210.25 212.027 1210.42 212.805 1210.42 213.68C1210.42 214.544 1210.26 215.32 1209.93 216.008C1209.61 216.696 1209.15 217.24 1208.56 217.64C1207.96 218.04 1207.27 218.24 1206.48 218.24ZM1202.31 221.84V209.36H1204.01V215.424H1204.25V221.84H1202.31ZM1206.18 216.512C1206.68 216.512 1207.09 216.387 1207.42 216.136C1207.74 215.885 1207.98 215.547 1208.14 215.12C1208.3 214.688 1208.38 214.208 1208.38 213.68C1208.38 213.157 1208.3 212.683 1208.14 212.256C1207.98 211.824 1207.73 211.483 1207.4 211.232C1207.06 210.976 1206.63 210.848 1206.12 210.848C1205.62 210.848 1205.22 210.968 1204.92 211.208C1204.61 211.443 1204.38 211.773 1204.23 212.2C1204.08 212.621 1204.01 213.115 1204.01 213.68C1204.01 214.24 1204.08 214.733 1204.23 215.16C1204.38 215.587 1204.61 215.92 1204.92 216.16C1205.24 216.395 1205.66 216.512 1206.18 216.512ZM1093.54 240.24C1092.91 240.24 1092.38 240.123 1091.95 239.888C1091.52 239.648 1091.19 239.331 1090.97 238.936C1090.75 238.541 1090.64 238.107 1090.64 237.632C1090.64 237.216 1090.71 236.843 1090.85 236.512C1090.99 236.176 1091.2 235.888 1091.49 235.648C1091.78 235.403 1092.15 235.203 1092.61 235.048C1092.95 234.936 1093.36 234.835 1093.82 234.744C1094.29 234.653 1094.8 234.571 1095.34 234.496C1095.89 234.416 1096.47 234.331 1097.06 234.24L1096.38 234.632C1096.38 234.035 1096.25 233.595 1095.98 233.312C1095.7 233.029 1095.25 232.888 1094.6 232.888C1094.21 232.888 1093.83 232.979 1093.47 233.16C1093.11 233.341 1092.86 233.653 1092.71 234.096L1090.95 233.544C1091.17 232.813 1091.57 232.227 1092.17 231.784C1092.77 231.341 1093.58 231.12 1094.6 231.12C1095.37 231.12 1096.04 231.245 1096.62 231.496C1097.21 231.747 1097.65 232.157 1097.93 232.728C1098.08 233.032 1098.18 233.344 1098.21 233.664C1098.24 233.979 1098.26 234.323 1098.26 234.696V240H1096.57V238.128L1096.85 238.432C1096.46 239.056 1096 239.515 1095.48 239.808C1094.96 240.096 1094.31 240.24 1093.54 240.24ZM1093.92 238.704C1094.36 238.704 1094.73 238.627 1095.04 238.472C1095.35 238.317 1095.59 238.128 1095.78 237.904C1095.96 237.68 1096.09 237.469 1096.15 237.272C1096.25 237.027 1096.31 236.747 1096.32 236.432C1096.34 236.112 1096.34 235.853 1096.34 235.656L1096.94 235.832C1096.35 235.923 1095.86 236.003 1095.44 236.072C1095.02 236.141 1094.67 236.208 1094.37 236.272C1094.07 236.331 1093.81 236.397 1093.58 236.472C1093.35 236.552 1093.16 236.645 1093.01 236.752C1092.85 236.859 1092.73 236.981 1092.65 237.12C1092.57 237.259 1092.53 237.421 1092.53 237.608C1092.53 237.821 1092.58 238.011 1092.69 238.176C1092.79 238.336 1092.95 238.464 1093.15 238.56C1093.36 238.656 1093.62 238.704 1093.92 238.704ZM1106.31 240V235.84C1106.31 235.568 1106.3 235.267 1106.26 234.936C1106.22 234.605 1106.13 234.288 1105.99 233.984C1105.86 233.675 1105.66 233.421 1105.39 233.224C1105.12 233.027 1104.76 232.928 1104.3 232.928C1104.05 232.928 1103.81 232.968 1103.57 233.048C1103.33 233.128 1103.11 233.267 1102.91 233.464C1102.72 233.656 1102.57 233.923 1102.45 234.264C1102.33 234.6 1102.27 235.032 1102.27 235.56L1101.13 235.072C1101.13 234.336 1101.27 233.669 1101.55 233.072C1101.84 232.475 1102.26 232 1102.82 231.648C1103.37 231.291 1104.06 231.112 1104.87 231.112C1105.51 231.112 1106.03 231.219 1106.45 231.432C1106.87 231.645 1107.2 231.917 1107.44 232.248C1107.69 232.579 1107.87 232.931 1107.99 233.304C1108.1 233.677 1108.18 234.032 1108.21 234.368C1108.25 234.699 1108.27 234.968 1108.27 235.176V240H1106.31ZM1100.32 240V231.36H1102.04V234.04H1102.27V240H1100.32ZM1113.68 240.24C1112.88 240.24 1112.19 240.04 1111.6 239.64C1111.01 239.24 1110.55 238.696 1110.22 238.008C1109.9 237.32 1109.73 236.544 1109.73 235.68C1109.73 234.805 1109.9 234.027 1110.22 233.344C1110.55 232.656 1111.02 232.115 1111.62 231.72C1112.22 231.32 1112.93 231.12 1113.75 231.12C1114.57 231.12 1115.26 231.32 1115.81 231.72C1116.37 232.115 1116.8 232.656 1117.09 233.344C1117.37 234.032 1117.52 234.811 1117.52 235.68C1117.52 236.539 1117.37 237.315 1117.09 238.008C1116.8 238.696 1116.37 239.24 1115.8 239.64C1115.23 240.04 1114.52 240.24 1113.68 240.24ZM1113.97 238.512C1114.49 238.512 1114.91 238.395 1115.22 238.16C1115.54 237.92 1115.77 237.587 1115.92 237.16C1116.07 236.733 1116.14 236.24 1116.14 235.68C1116.14 235.115 1116.07 234.621 1115.92 234.2C1115.77 233.773 1115.55 233.443 1115.24 233.208C1114.93 232.968 1114.53 232.848 1114.04 232.848C1113.52 232.848 1113.09 232.976 1112.76 233.232C1112.42 233.483 1112.17 233.824 1112.01 234.256C1111.85 234.683 1111.77 235.157 1111.77 235.68C1111.77 236.208 1111.85 236.688 1112.01 237.12C1112.17 237.547 1112.41 237.885 1112.73 238.136C1113.06 238.387 1113.47 238.512 1113.97 238.512ZM1116.14 240V233.936H1115.9V228.48H1117.85V240H1116.14ZM1126.92 244.08C1126.44 244.08 1125.98 244.005 1125.54 243.856C1125.1 243.707 1124.71 243.491 1124.36 243.208C1124 242.931 1123.72 242.595 1123.49 242.2L1125.27 241.32C1125.43 241.635 1125.67 241.867 1125.96 242.016C1126.27 242.171 1126.59 242.248 1126.93 242.248C1127.33 242.248 1127.69 242.176 1128 242.032C1128.32 241.893 1128.56 241.685 1128.73 241.408C1128.91 241.136 1128.99 240.795 1128.98 240.384V237.928H1129.22V231.36H1130.91V240.416C1130.91 240.635 1130.9 240.843 1130.88 241.04C1130.86 241.243 1130.83 241.44 1130.79 241.632C1130.66 242.192 1130.41 242.651 1130.05 243.008C1129.69 243.371 1129.24 243.64 1128.7 243.816C1128.17 243.992 1127.57 244.08 1126.92 244.08ZM1126.76 240.24C1125.96 240.24 1125.27 240.04 1124.68 239.64C1124.08 239.24 1123.63 238.696 1123.3 238.008C1122.97 237.32 1122.81 236.544 1122.81 235.68C1122.81 234.805 1122.97 234.027 1123.3 233.344C1123.63 232.656 1124.1 232.115 1124.7 231.72C1125.3 231.32 1126.01 231.12 1126.83 231.12C1127.65 231.12 1128.34 231.32 1128.89 231.72C1129.45 232.115 1129.88 232.656 1130.16 233.344C1130.45 234.032 1130.6 234.811 1130.6 235.68C1130.6 236.539 1130.45 237.315 1130.16 238.008C1129.88 238.696 1129.45 239.24 1128.88 239.64C1128.31 240.04 1127.6 240.24 1126.76 240.24ZM1127.05 238.512C1127.57 238.512 1127.99 238.395 1128.3 238.16C1128.62 237.92 1128.85 237.587 1129 237.16C1129.15 236.733 1129.22 236.24 1129.22 235.68C1129.22 235.115 1129.15 234.621 1129 234.2C1128.85 233.773 1128.63 233.443 1128.32 233.208C1128.01 232.968 1127.61 232.848 1127.12 232.848C1126.6 232.848 1126.17 232.976 1125.84 233.232C1125.5 233.483 1125.25 233.824 1125.09 234.256C1124.93 234.683 1124.85 235.157 1124.85 235.68C1124.85 236.208 1124.93 236.688 1125.08 237.12C1125.24 237.547 1125.49 237.885 1125.81 238.136C1126.14 238.387 1126.55 238.512 1127.05 238.512ZM1137.08 240.24C1136.2 240.24 1135.44 240.051 1134.78 239.672C1134.11 239.293 1133.6 238.768 1133.22 238.096C1132.86 237.424 1132.67 236.651 1132.67 235.776C1132.67 234.832 1132.85 234.013 1133.22 233.32C1133.58 232.621 1134.08 232.08 1134.73 231.696C1135.37 231.312 1136.12 231.12 1136.97 231.12C1137.86 231.12 1138.62 231.331 1139.25 231.752C1139.88 232.168 1140.34 232.757 1140.65 233.52C1140.95 234.283 1141.07 235.181 1140.99 236.216H1139.08V235.512C1139.07 234.573 1138.91 233.888 1138.58 233.456C1138.26 233.024 1137.75 232.808 1137.05 232.808C1136.26 232.808 1135.67 233.053 1135.29 233.544C1134.9 234.029 1134.71 234.741 1134.71 235.68C1134.71 236.555 1134.9 237.232 1135.29 237.712C1135.67 238.192 1136.23 238.432 1136.97 238.432C1137.44 238.432 1137.85 238.328 1138.19 238.12C1138.54 237.907 1138.8 237.6 1138.99 237.2L1140.9 237.776C1140.56 238.555 1140.05 239.16 1139.36 239.592C1138.67 240.024 1137.91 240.24 1137.08 240.24ZM1134.1 236.216V234.76H1140.05V236.216H1134.1ZM1147.84 240C1147.27 240.107 1146.71 240.152 1146.16 240.136C1145.62 240.125 1145.13 240.027 1144.7 239.84C1144.26 239.648 1143.94 239.347 1143.71 238.936C1143.51 238.563 1143.41 238.181 1143.4 237.792C1143.39 237.403 1143.38 236.963 1143.38 236.472V228.96H1145.3V236.36C1145.3 236.707 1145.31 237.011 1145.31 237.272C1145.32 237.533 1145.38 237.747 1145.48 237.912C1145.67 238.232 1145.98 238.411 1146.4 238.448C1146.82 238.485 1147.3 238.464 1147.84 238.384V240ZM1141.82 232.872V231.36H1147.84V232.872H1141.82ZM1157.05 240.24C1156.23 240.24 1155.51 240.067 1154.89 239.72C1154.26 239.368 1153.77 238.88 1153.42 238.256C1153.07 237.632 1152.9 236.912 1152.9 236.096V232.384C1152.9 231.568 1153.07 230.848 1153.42 230.224C1153.77 229.6 1154.26 229.115 1154.89 228.768C1155.51 228.416 1156.23 228.24 1157.05 228.24C1157.86 228.24 1158.58 228.416 1159.2 228.768C1159.82 229.115 1160.31 229.6 1160.66 230.224C1161.01 230.848 1161.19 231.568 1161.19 232.384V236.096C1161.19 236.912 1161.01 237.632 1160.66 238.256C1160.31 238.88 1159.82 239.368 1159.2 239.72C1158.58 240.067 1157.86 240.24 1157.05 240.24ZM1157.05 238.408C1157.45 238.408 1157.82 238.312 1158.15 238.12C1158.48 237.923 1158.74 237.661 1158.93 237.336C1159.13 237.005 1159.22 236.637 1159.22 236.232V232.24C1159.22 231.829 1159.13 231.461 1158.93 231.136C1158.74 230.805 1158.48 230.544 1158.15 230.352C1157.82 230.155 1157.45 230.056 1157.05 230.056C1156.64 230.056 1156.27 230.155 1155.94 230.352C1155.61 230.544 1155.35 230.805 1155.16 231.136C1154.97 231.461 1154.87 231.829 1154.87 232.24V236.232C1154.87 236.637 1154.97 237.005 1155.16 237.336C1155.35 237.661 1155.61 237.923 1155.94 238.12C1156.27 238.312 1156.64 238.408 1157.05 238.408ZM1163.75 240V238.024H1165.73V240H1163.75ZM1171.71 240.24C1171.12 240.24 1170.57 240.12 1170.07 239.88C1169.56 239.635 1169.12 239.299 1168.76 238.872C1168.39 238.445 1168.13 237.949 1167.97 237.384L1169.83 236.888C1169.9 237.197 1170.04 237.464 1170.24 237.688C1170.44 237.912 1170.67 238.085 1170.94 238.208C1171.21 238.331 1171.49 238.392 1171.78 238.392C1172.15 238.392 1172.49 238.301 1172.8 238.12C1173.11 237.939 1173.36 237.696 1173.54 237.392C1173.72 237.083 1173.81 236.741 1173.81 236.368C1173.81 235.995 1173.72 235.656 1173.53 235.352C1173.35 235.043 1173.11 234.8 1172.8 234.624C1172.49 234.443 1172.15 234.352 1171.78 234.352C1171.34 234.352 1170.97 234.432 1170.68 234.592C1170.39 234.752 1170.17 234.923 1170.01 235.104L1168.36 234.576L1168.72 228.48H1174.97V230.288H1169.75L1170.47 229.608L1170.21 233.848L1169.86 233.416C1170.16 233.144 1170.51 232.941 1170.9 232.808C1171.29 232.675 1171.68 232.608 1172.04 232.608C1172.76 232.608 1173.4 232.773 1173.96 233.104C1174.52 233.429 1174.95 233.875 1175.27 234.44C1175.59 235.005 1175.75 235.648 1175.75 236.368C1175.75 237.088 1175.56 237.741 1175.19 238.328C1174.81 238.909 1174.32 239.373 1173.71 239.72C1173.1 240.067 1172.43 240.24 1171.71 240.24ZM1180.68 241.592V239.696H1182.61V241.592H1180.68ZM1180.68 228.792V226.896H1182.61V228.792H1180.68ZM1181.69 240.24C1180.88 240.24 1180.15 240.091 1179.51 239.792C1178.87 239.493 1178.35 239.072 1177.94 238.528C1177.53 237.984 1177.27 237.339 1177.16 236.592L1179.07 236.288C1179.22 236.944 1179.54 237.467 1180.03 237.856C1180.52 238.24 1181.11 238.432 1181.8 238.432C1182.46 238.432 1183.01 238.277 1183.43 237.968C1183.86 237.653 1184.07 237.256 1184.07 236.776C1184.07 236.44 1183.97 236.168 1183.77 235.96C1183.57 235.747 1183.24 235.571 1182.79 235.432L1180.02 234.568C1178.4 234.067 1177.59 233.085 1177.59 231.624C1177.59 230.941 1177.76 230.347 1178.08 229.84C1178.41 229.328 1178.88 228.936 1179.47 228.664C1180.07 228.387 1180.78 228.251 1181.59 228.256C1182.34 228.261 1183.01 228.397 1183.59 228.664C1184.19 228.931 1184.68 229.315 1185.07 229.816C1185.46 230.317 1185.74 230.92 1185.91 231.624L1183.93 231.984C1183.86 231.605 1183.71 231.272 1183.49 230.984C1183.27 230.696 1183 230.472 1182.67 230.312C1182.34 230.152 1181.97 230.067 1181.56 230.056C1181.17 230.051 1180.82 230.112 1180.51 230.24C1180.21 230.363 1179.96 230.539 1179.78 230.768C1179.6 230.992 1179.51 231.245 1179.51 231.528C1179.51 231.843 1179.63 232.112 1179.88 232.336C1180.14 232.56 1180.54 232.752 1181.09 232.912L1183.16 233.512C1184.16 233.8 1184.88 234.192 1185.31 234.688C1185.76 235.179 1185.98 235.832 1185.98 236.648C1185.98 237.363 1185.8 237.989 1185.44 238.528C1185.09 239.067 1184.58 239.488 1183.94 239.792C1183.29 240.091 1182.54 240.24 1181.69 240.24Z" fill="#F3EBEA" />
    <path d="M1066 211.744L1023 211.744" stroke="#F3EBEA" stroke-width="2" />
    <path d="M1023 211.744C1024.62 211.744 1035 212.464 1035 217.744" stroke="#F3EBEA" stroke-width="2" />
    <path d="M1023 211.744C1024.62 211.744 1035 211.024 1035 205.744" stroke="#F3EBEA" stroke-width="2" />
    <path d="M177.792 161V146.344L194.176 118.12H183.168L177.6 128.936L173.376 138.728L169.152 128.872L163.84 118.12H152.32L168.64 146.344V161H177.792ZM206.655 161.64C216.447 161.64 222.655 154.92 222.655 145.32C222.655 135.784 216.447 129 206.655 129C197.119 129 190.975 135.784 190.975 145.32C190.975 154.92 197.119 161.64 206.655 161.64ZM206.783 154.216C202.943 154.216 200.255 151.72 200.255 145.32C200.255 138.856 202.943 136.424 206.783 136.424C210.687 136.424 213.375 138.856 213.375 145.32C213.375 151.72 210.687 154.216 206.783 154.216ZM237.172 161.64C243.508 161.64 246.516 157.224 247.604 152.232V161H256.756V129.64H247.604V146.984C247.604 152.104 246.26 154.536 241.908 154.536C237.684 154.536 236.66 152.168 236.66 148.328V129.64H227.508V151.528C227.508 157.992 231.22 161.64 237.172 161.64ZM272.352 161V144.424C272.352 139.24 275.296 135.848 278.432 135.848C280.416 135.848 281.248 137.192 281.248 138.984C281.248 140.776 280.16 143.016 279.008 144.168H287.84C288.608 142.952 289.632 140.264 289.632 136.872C289.632 131.944 287.072 129 282.464 129C276.448 129 273.376 134.248 272.352 139.496V129.64H263.2V161H272.352ZM316.966 161V136.616H324.838V129.64H316.966V127.784C316.966 125.736 317.926 124.52 320.102 124.52C322.022 124.52 323.686 125.672 324.838 127.08L327.974 120.552C326.502 119.272 323.494 117.48 319.333 117.48C311.845 117.48 307.814 122.088 307.814 128.872V129.64H303.462V136.616H307.814V161H316.966ZM335.547 161.704C341.947 161.704 344.699 156.968 345.723 152.872V154.984C345.723 159.464 348.795 161 352.187 161H357.562V153.704H355.707C354.555 153.704 354.043 153.256 354.043 151.848V141.096C354.043 133.224 349.435 129 341.499 129C334.779 129 329.595 132.136 326.459 135.528L331.067 142.184C333.243 139.048 336.891 136.808 340.859 136.808C344.315 136.808 345.531 138.28 345.851 140.904L336.251 144.488C330.299 146.536 327.291 149.288 327.291 154.024C327.291 159.08 330.683 161.704 335.547 161.704ZM335.739 152.68C335.739 151.464 336.571 150.568 339.067 149.544L345.723 146.792V148.968C345.723 152.808 343.291 154.984 338.939 154.984C336.763 154.984 335.739 154.152 335.739 152.68ZM371.04 161V143.656C371.04 138.536 372.448 136.104 376.096 136.104C379.808 136.104 381.088 138.216 381.088 142.312V161H390.24V143.656C390.24 138.536 391.648 136.104 395.296 136.104C399.008 136.104 400.288 138.216 400.288 142.312V161H409.44V139.112C409.44 132.648 406.24 129 400.48 129C394.016 129 391.2 133.544 390.24 138.728C390.24 132.648 387.04 129 381.28 129C374.816 129 372 133.544 371.04 138.664V129.64H361.888V161H371.04ZM424.852 125.928V118.12H415.7V125.928H424.852ZM424.852 161V129.64H415.7V161H424.852ZM440.477 161V118.12H431.325V161H440.477ZM456.102 125.928V118.12H446.95V125.928H456.102ZM456.102 161V129.64H446.95V161H456.102ZM469.359 161.704C475.759 161.704 478.511 156.968 479.535 152.872V154.984C479.535 159.464 482.607 161 485.999 161H491.375V153.704H489.519C488.367 153.704 487.855 153.256 487.855 151.848V141.096C487.855 133.224 483.247 129 475.311 129C468.591 129 463.407 132.136 460.271 135.528L464.879 142.184C467.055 139.048 470.703 136.808 474.671 136.808C478.127 136.808 479.343 138.28 479.663 140.904L470.063 144.488C464.111 146.536 461.103 149.288 461.103 154.024C461.103 159.08 464.495 161.704 469.359 161.704ZM469.551 152.68C469.551 151.464 470.383 150.568 472.879 149.544L479.535 146.792V148.968C479.535 152.808 477.103 154.984 472.751 154.984C470.575 154.984 469.551 154.152 469.551 152.68ZM504.852 161V144.424C504.852 139.24 507.796 135.848 510.932 135.848C512.916 135.848 513.748 137.192 513.748 138.984C513.748 140.776 512.66 143.016 511.508 144.168H520.34C521.108 142.952 522.132 140.264 522.132 136.872C522.132 131.944 519.572 129 514.964 129C508.948 129 505.876 134.248 504.852 139.496V129.64H495.7V161H504.852ZM166.528 245V220.616H174.4V213.64H166.528V211.784C166.528 209.736 167.488 208.52 169.664 208.52C171.584 208.52 173.248 209.672 174.4 211.08L177.536 204.552C176.064 203.272 173.056 201.48 168.896 201.48C161.408 201.48 157.376 206.088 157.376 212.872V213.64H153.024V220.616H157.376V245H166.528ZM187.602 209.928V202.12H178.45V209.928H187.602ZM187.602 245V213.64H178.45V245H187.602ZM203.227 245V227.656C203.227 222.536 204.635 220.104 208.987 220.104C213.147 220.104 214.171 222.472 214.171 226.312V245H223.323V223.112C223.323 216.648 219.675 213 213.723 213C207.259 213 204.251 217.608 203.227 222.728V213.64H194.075V245H203.227ZM236.422 245.704C242.822 245.704 245.574 240.968 246.598 236.872V238.984C246.598 243.464 249.67 245 253.062 245H258.438V237.704H256.582C255.43 237.704 254.918 237.256 254.918 235.848V225.096C254.918 217.224 250.31 213 242.374 213C235.654 213 230.47 216.136 227.334 219.528L231.942 226.184C234.118 223.048 237.766 220.808 241.734 220.808C245.19 220.808 246.406 222.28 246.726 224.904L237.126 228.488C231.174 230.536 228.166 233.288 228.166 238.024C228.166 243.08 231.558 245.704 236.422 245.704ZM236.614 236.68C236.614 235.464 237.446 234.568 239.942 233.544L246.598 230.792V232.968C246.598 236.808 244.166 238.984 239.814 238.984C237.638 238.984 236.614 238.152 236.614 236.68ZM271.915 245V227.656C271.915 222.536 273.323 220.104 277.675 220.104C281.835 220.104 282.859 222.472 282.859 226.312V245H292.011V223.112C292.011 216.648 288.363 213 282.411 213C275.947 213 272.939 217.608 271.915 222.728V213.64H262.763V245H271.915ZM312.41 245.64C319.898 245.64 325.082 241.544 327.002 236.168L319.386 231.752C318.618 235.656 316.634 238.024 312.73 238.024C308.698 238.024 306.01 235.08 306.01 229.32C306.01 223.56 308.698 220.616 312.73 220.616C316.57 220.616 318.618 222.984 319.386 226.888L327.002 222.472C325.082 217.096 319.898 213 312.41 213C302.746 213 296.666 219.784 296.666 229.32C296.666 238.92 302.746 245.64 312.41 245.64ZM345.169 245.64C352.209 245.64 356.433 242.568 358.801 239.176L353.233 233.608C352.081 236.296 349.713 238.216 345.297 238.216C341.201 238.216 338.257 236.104 337.681 231.688H359.057C359.249 230.984 359.377 229.192 359.377 227.848C359.377 219.656 354.385 213 344.401 213C335.185 213 329.105 219.656 329.105 229.32C329.105 238.984 335.185 245.64 345.169 245.64ZM344.465 220.04C348.561 220.04 350.801 222.28 351.121 226.44H337.681C338.129 222.216 340.561 220.04 344.465 220.04ZM383.797 245.704C390.197 245.704 392.949 240.968 393.973 236.872V238.984C393.973 243.464 397.045 245 400.437 245H405.812V237.704H403.957C402.805 237.704 402.293 237.256 402.293 235.848V225.096C402.293 217.224 397.685 213 389.749 213C383.029 213 377.845 216.136 374.709 219.528L379.317 226.184C381.493 223.048 385.141 220.808 389.109 220.808C392.565 220.808 393.781 222.28 394.101 224.904L384.501 228.488C378.549 230.536 375.541 233.288 375.541 238.024C375.541 243.08 378.933 245.704 383.797 245.704ZM383.989 236.68C383.989 235.464 384.821 234.568 387.317 233.544L393.973 230.792V232.968C393.973 236.808 391.541 238.984 387.189 238.984C385.013 238.984 383.989 238.152 383.989 236.68ZM419.29 256.904V236.104C420.122 241.16 422.362 245.64 428.89 245.64C436.57 245.64 441.306 239.688 441.306 229.32C441.306 218.888 436.57 212.936 429.274 212.936C422.746 212.936 420.186 217.48 419.29 222.536V213.64H410.138V256.904H419.29ZM419.29 230.984V227.592C419.29 222.472 421.402 220.104 425.242 220.104C429.402 220.104 432.026 223.368 432.026 229.32C432.026 235.272 429.402 238.536 425.242 238.536C421.402 238.536 419.29 236.104 419.29 230.984ZM455.477 256.904V236.104C456.309 241.16 458.549 245.64 465.077 245.64C472.757 245.64 477.493 239.688 477.493 229.32C477.493 218.888 472.757 212.936 465.461 212.936C458.933 212.936 456.373 217.48 455.477 222.536V213.64H446.325V256.904H455.477ZM455.477 230.984V227.592C455.477 222.472 457.589 220.104 461.429 220.104C465.589 220.104 468.213 223.368 468.213 229.32C468.213 235.272 465.589 238.536 461.429 238.536C457.589 238.536 455.477 236.104 455.477 230.984ZM164.352 329V320.168C165.184 325.224 167.424 329.704 173.952 329.704C181.632 329.704 186.432 323.752 186.432 313.32C186.432 302.952 181.632 297 174.336 297C167.808 297 165.248 301.544 164.352 306.6V286.12H155.2V329H164.352ZM164.352 315.048V311.656C164.352 306.536 166.464 304.104 170.304 304.104C174.464 304.104 177.088 307.368 177.088 313.32C177.088 319.336 174.464 322.536 170.304 322.536C166.464 322.536 164.352 320.168 164.352 315.048ZM200.735 329.64C207.071 329.64 210.079 325.224 211.167 320.232V329H220.319V297.64H211.167V314.984C211.167 320.104 209.823 322.536 205.471 322.536C201.247 322.536 200.223 320.168 200.223 316.328V297.64H191.071V319.528C191.071 325.992 194.783 329.64 200.735 329.64ZM235.915 293.928V286.12H226.763V293.928H235.915ZM235.915 329V297.64H226.763V329H235.915ZM251.54 329V286.12H242.388V329H251.54ZM270.429 329.64C275.229 329.64 278.429 327.4 279.773 325.672L277.149 318.184C276.189 319.912 274.461 321.512 272.477 321.512C270.685 321.512 269.405 320.616 269.405 318.056V304.616H278.109V297.64H269.405V289.128L260.253 293.928V297.64H255.581V304.616H260.253V319.72C260.253 325.544 263.517 329.64 270.429 329.64ZM309.968 329.64C319.76 329.64 325.968 322.92 325.968 313.32C325.968 303.784 319.76 297 309.968 297C300.432 297 294.288 303.784 294.288 313.32C294.288 322.92 300.432 329.64 309.968 329.64ZM310.096 322.216C306.256 322.216 303.568 319.72 303.568 313.32C303.568 306.856 306.256 304.424 310.096 304.424C314 304.424 316.688 306.856 316.688 313.32C316.688 319.72 314 322.216 310.096 322.216ZM340.165 329V311.656C340.165 306.536 341.573 304.104 345.925 304.104C350.085 304.104 351.109 306.472 351.109 310.312V329H360.261V307.112C360.261 300.648 356.613 297 350.661 297C344.197 297 341.189 301.608 340.165 306.728V297.64H331.013V329H340.165ZM398.859 329L404.427 306.536L406.731 292.648L409.035 306.536L414.539 329H426.891L437.259 286.12H426.763L422.155 309.544L420.491 322.536L418.315 310.568L412.811 286.12H400.715L395.147 310.568L392.907 322.536L391.307 309.544L386.763 286.12H376.203L386.507 329H398.859ZM471.319 329V320.872H448.983V311.4H467.671V303.272H448.983V294.248H471.319V286.12H439.831V329H471.319ZM496.944 329C506.032 329 511.984 325.8 511.984 317.8C511.984 311.72 508.144 307.368 497.264 306.984C503.92 306.664 510.448 304.296 510.448 297C510.448 290.92 506.672 286.12 497.2 286.12H476.144V329H496.944ZM494.768 294.248C498.416 294.248 500.784 295.464 500.784 298.856C500.784 302.312 498.48 303.464 494.896 303.464H485.296V294.248H494.768ZM495.728 310.824C500.08 310.824 502.576 312.36 502.576 315.816C502.576 319.272 500.464 320.872 495.6 320.872H485.296V310.824H495.728ZM534.671 329.64C544.079 329.64 551.119 325.288 551.119 317.992C551.119 311.976 547.087 307.432 538.639 307.176C544.527 306.856 549.711 303.72 549.711 297.256C549.711 291.112 544.655 285.48 534.735 285.48C525.647 285.48 519.567 290.216 517.647 296.104L524.495 302.056C525.583 296.872 529.423 294.248 534.415 294.248C538.255 294.248 540.431 296.296 540.431 299.304C540.431 302.504 537.999 303.848 534.159 303.848H527.119V311.208H533.711C538.191 311.208 541.199 312.36 541.199 315.88C541.199 319.08 538.767 320.936 534.415 320.936C528.271 320.936 524.815 317.736 523.535 312.168L516.687 318.248C518.479 324.648 524.943 329.64 534.671 329.64Z" fill="#2C3034" />
    <path d="M719.008 765.32C723.648 765.32 727.104 763.112 727.104 759.016C727.104 755.176 724.384 753.544 720.384 752.616L717.952 752.04C715.712 751.528 714.336 750.952 714.336 749.384C714.336 748.136 715.52 747.432 717.152 747.432C719.616 747.432 722.112 748.648 723.52 750.888L726.624 747.4C724.832 744.84 721.6 743.304 717.568 743.304C713.216 743.304 709.6 745.512 709.6 749.704C709.6 753.768 712.736 755.24 716.064 755.912L718.144 756.36C720.992 756.936 722.4 757.48 722.4 759.144C722.4 760.616 721.056 761.192 719.2 761.192C716.64 761.192 713.536 760.008 712.096 757.32L709.088 760.84C711.072 763.976 714.88 765.32 719.008 765.32ZM736.861 765.32C740.605 765.32 743.197 763.272 744.157 760.584L740.349 758.376C739.965 760.328 738.973 761.512 737.021 761.512C735.005 761.512 733.661 760.04 733.661 757.16C733.661 754.28 735.005 752.808 737.021 752.808C738.941 752.808 739.965 753.992 740.349 755.944L744.157 753.736C743.197 751.048 740.605 749 736.861 749C732.029 749 728.989 752.392 728.989 757.16C728.989 761.96 732.029 765.32 736.861 765.32ZM750.551 765V756.712C750.551 754.12 752.023 752.424 753.591 752.424C754.583 752.424 754.999 753.096 754.999 753.992C754.999 754.888 754.455 756.008 753.879 756.584H758.295C758.679 755.976 759.191 754.632 759.191 752.936C759.191 750.472 757.911 749 755.607 749C752.599 749 751.063 751.624 750.551 754.248V749.32H745.975V765H750.551ZM767.89 765.32C772.786 765.32 775.89 761.96 775.89 757.16C775.89 752.392 772.786 749 767.89 749C763.122 749 760.05 752.392 760.05 757.16C760.05 761.96 763.122 765.32 767.89 765.32ZM767.954 761.608C766.034 761.608 764.69 760.36 764.69 757.16C764.69 753.928 766.034 752.712 767.954 752.712C769.906 752.712 771.25 753.928 771.25 757.16C771.25 760.36 769.906 761.608 767.954 761.608ZM783.051 765V743.56H778.475V765H783.051ZM790.864 765V743.56H786.288V765H790.864ZM805.601 765.352C808.865 765.352 809.985 763.112 810.401 760.584V765H814.977V743.56H810.401V753.8C809.953 751.272 808.673 749 805.409 749C801.793 749 799.393 751.976 799.393 757.16C799.393 762.376 801.793 765.352 805.601 765.352ZM804.033 757.16C804.033 754.184 805.345 752.552 807.361 752.552C809.313 752.552 810.401 753.768 810.401 756.328V758.024C810.401 760.584 809.345 761.768 807.425 761.768C805.345 761.768 804.033 760.168 804.033 757.16ZM825.203 765.32C830.099 765.32 833.203 761.96 833.203 757.16C833.203 752.392 830.099 749 825.203 749C820.435 749 817.363 752.392 817.363 757.16C817.363 761.96 820.435 765.32 825.203 765.32ZM825.267 761.608C823.347 761.608 822.003 760.36 822.003 757.16C822.003 753.928 823.347 752.712 825.267 752.712C827.219 752.712 828.563 753.928 828.563 757.16C828.563 760.36 827.219 761.608 825.267 761.608ZM843.106 765L844.834 758.024L845.794 752.36L846.754 758.024L848.45 765H854.146L858.082 749.32H853.058L851.874 757.16L851.266 762.088L850.338 757.192L848.354 749.32H843.17L841.282 757.192L840.322 762.088L839.714 757.16L838.498 749.32H833.474L837.41 765H843.106ZM863.801 765V756.328C863.801 753.768 864.505 752.552 866.681 752.552C868.761 752.552 869.273 753.736 869.273 755.656V765H873.849V754.056C873.849 750.824 872.025 749 869.049 749C865.817 749 864.313 751.304 863.801 753.864V749.32H859.225V765H863.801ZM889.308 765.32C891.708 765.32 893.308 764.2 893.98 763.336L892.668 759.592C892.188 760.456 891.324 761.256 890.332 761.256C889.436 761.256 888.796 760.808 888.796 759.528V752.808H893.148V749.32H888.796V745.064L884.22 747.464V749.32H881.884V752.808H884.22V760.36C884.22 763.272 885.852 765.32 889.308 765.32ZM902.14 765.32C907.036 765.32 910.14 761.96 910.14 757.16C910.14 752.392 907.036 749 902.14 749C897.372 749 894.3 752.392 894.3 757.16C894.3 761.96 897.372 765.32 902.14 765.32ZM902.204 761.608C900.284 761.608 898.94 760.36 898.94 757.16C898.94 753.928 900.284 752.712 902.204 752.712C904.156 752.712 905.5 753.928 905.5 757.16C905.5 760.36 904.156 761.608 902.204 761.608ZM923.426 765V743.56H918.85V765H923.426ZM933.991 765.32C937.511 765.32 939.623 763.784 940.807 762.088L938.023 759.304C937.447 760.648 936.263 761.608 934.055 761.608C932.007 761.608 930.535 760.552 930.247 758.344H940.935C941.031 757.992 941.095 757.096 941.095 756.424C941.095 752.328 938.599 749 933.607 749C928.999 749 925.959 752.328 925.959 757.16C925.959 761.992 928.999 765.32 933.991 765.32ZM933.639 752.52C935.687 752.52 936.807 753.64 936.967 755.72H930.247C930.471 753.608 931.687 752.52 933.639 752.52ZM947.117 765.352C950.317 765.352 951.693 762.984 952.205 760.936V761.992C952.205 764.232 953.741 765 955.437 765H958.125V761.352H957.197C956.621 761.352 956.365 761.128 956.365 760.424V755.048C956.365 751.112 954.061 749 950.093 749C946.733 749 944.141 750.568 942.573 752.264L944.877 755.592C945.965 754.024 947.789 752.904 949.773 752.904C951.501 752.904 952.109 753.64 952.269 754.952L947.469 756.744C944.493 757.768 942.989 759.144 942.989 761.512C942.989 764.04 944.685 765.352 947.117 765.352ZM947.213 760.84C947.213 760.232 947.629 759.784 948.877 759.272L952.205 757.896V758.984C952.205 760.904 950.989 761.992 948.813 761.992C947.725 761.992 947.213 761.576 947.213 760.84ZM964.864 765V756.712C964.864 754.12 966.336 752.424 967.904 752.424C968.896 752.424 969.312 753.096 969.312 753.992C969.312 754.888 968.768 756.008 968.192 756.584H972.608C972.992 755.976 973.504 754.632 973.504 752.936C973.504 750.472 972.224 749 969.92 749C966.911 749 965.376 751.624 964.864 754.248V749.32H960.288V765H964.864ZM979.77 765V756.328C979.77 753.768 980.474 752.552 982.65 752.552C984.73 752.552 985.242 753.736 985.242 755.656V765H989.818V754.056C989.818 750.824 987.994 749 985.018 749C981.786 749 980.282 751.304 979.77 753.864V749.32H975.194V765H979.77ZM1003.64 765V756.328C1003.64 753.768 1004.35 752.552 1006.17 752.552C1008.03 752.552 1008.67 753.608 1008.67 755.656V765H1013.24V756.328C1013.24 753.768 1013.95 752.552 1015.77 752.552C1017.63 752.552 1018.27 753.608 1018.27 755.656V765H1022.84V754.056C1022.84 750.824 1021.24 749 1018.36 749C1015.13 749 1013.72 751.272 1013.24 753.864C1013.24 750.824 1011.64 749 1008.76 749C1005.53 749 1004.12 751.272 1003.64 753.832V749.32H999.069V765H1003.64ZM1032.95 765.32C1037.85 765.32 1040.95 761.96 1040.95 757.16C1040.95 752.392 1037.85 749 1032.95 749C1028.18 749 1025.11 752.392 1025.11 757.16C1025.11 761.96 1028.18 765.32 1032.95 765.32ZM1033.02 761.608C1031.1 761.608 1029.75 760.36 1029.75 757.16C1029.75 753.928 1031.1 752.712 1033.02 752.712C1034.97 752.712 1036.31 753.928 1036.31 757.16C1036.31 760.36 1034.97 761.608 1033.02 761.608ZM1048.05 765V756.712C1048.05 754.12 1049.52 752.424 1051.09 752.424C1052.08 752.424 1052.5 753.096 1052.5 753.992C1052.5 754.888 1051.96 756.008 1051.38 756.584H1055.8C1056.18 755.976 1056.69 754.632 1056.69 752.936C1056.69 750.472 1055.41 749 1053.11 749C1050.1 749 1048.56 751.624 1048.05 754.248V749.32H1043.48V765H1048.05ZM1065.68 765.32C1069.2 765.32 1071.31 763.784 1072.49 762.088L1069.71 759.304C1069.13 760.648 1067.95 761.608 1065.74 761.608C1063.69 761.608 1062.22 760.552 1061.93 758.344H1072.62C1072.72 757.992 1072.78 757.096 1072.78 756.424C1072.78 752.328 1070.29 749 1065.29 749C1060.69 749 1057.65 752.328 1057.65 757.16C1057.65 761.992 1060.69 765.32 1065.68 765.32ZM1065.33 752.52C1067.37 752.52 1068.49 753.64 1068.65 755.72H1061.93C1062.16 753.608 1063.37 752.52 1065.33 752.52Z" fill="#2C3034" />
    <defs>
        <clipPath id="clip0_7178_43597">
            <rect width="219.276" height="221" fill="white" transform="translate(781 116)" />
        </clipPath>
    </defs>
</svg>
