<svg width="124" height="16" viewBox="0 0 124 16" fill="none" xmlns="http://www.w3.org/2000/svg">
<path d="M0.84 13V4.36H4.254C4.338 4.36 4.438 4.364 4.554 4.372C4.67 4.376 4.782 4.388 4.89 4.408C5.358 4.48 5.75 4.64 6.066 4.888C6.386 5.136 6.626 5.45 6.786 5.83C6.946 6.206 7.026 6.624 7.026 7.084C7.026 7.54 6.944 7.958 6.78 8.338C6.62 8.714 6.38 9.028 6.06 9.28C5.744 9.528 5.354 9.688 4.89 9.76C4.782 9.776 4.67 9.788 4.554 9.796C4.438 9.804 4.338 9.808 4.254 9.808H1.908V13H0.84ZM1.908 8.794H4.218C4.294 8.794 4.38 8.79 4.476 8.782C4.576 8.774 4.67 8.76 4.758 8.74C5.034 8.676 5.258 8.56 5.43 8.392C5.606 8.22 5.734 8.02 5.814 7.792C5.894 7.56 5.934 7.324 5.934 7.084C5.934 6.844 5.894 6.61 5.814 6.382C5.734 6.15 5.606 5.948 5.43 5.776C5.258 5.604 5.034 5.488 4.758 5.428C4.67 5.404 4.576 5.39 4.476 5.386C4.38 5.378 4.294 5.374 4.218 5.374H1.908V8.794ZM10.9242 13.18C10.2802 13.18 9.72422 13.034 9.25622 12.742C8.79222 12.45 8.43422 12.046 8.18222 11.53C7.93022 11.014 7.80422 10.422 7.80422 9.754C7.80422 9.074 7.93222 8.478 8.18822 7.966C8.44422 7.454 8.80622 7.056 9.27422 6.772C9.74222 6.484 10.2922 6.34 10.9242 6.34C11.5722 6.34 12.1302 6.486 12.5982 6.778C13.0662 7.066 13.4242 7.468 13.6722 7.984C13.9242 8.496 14.0502 9.086 14.0502 9.754C14.0502 10.43 13.9242 11.026 13.6722 11.542C13.4202 12.054 13.0602 12.456 12.5922 12.748C12.1242 13.036 11.5682 13.18 10.9242 13.18ZM10.9242 12.166C11.5962 12.166 12.0962 11.942 12.4242 11.494C12.7522 11.046 12.9162 10.466 12.9162 9.754C12.9162 9.022 12.7502 8.44 12.4182 8.008C12.0862 7.572 11.5882 7.354 10.9242 7.354C10.4722 7.354 10.1002 7.456 9.80822 7.66C9.51622 7.864 9.29822 8.146 9.15422 8.506C9.01022 8.866 8.93822 9.282 8.93822 9.754C8.93822 10.482 9.10622 11.066 9.44222 11.506C9.77822 11.946 10.2722 12.166 10.9242 12.166ZM16.5169 13L14.5369 6.514L15.5989 6.52L17.0449 11.26L18.5029 6.52H19.4449L20.8969 11.26L22.3489 6.52H23.4049L21.4249 13H20.5369L18.9709 8.074L17.4049 13H16.5169ZM27.0621 13.18C26.4261 13.18 25.8701 13.04 25.3941 12.76C24.9221 12.476 24.5541 12.082 24.2901 11.578C24.0261 11.07 23.8941 10.478 23.8941 9.802C23.8941 9.094 24.0241 8.482 24.2841 7.966C24.5441 7.446 24.9061 7.046 25.3701 6.766C25.8381 6.482 26.3861 6.34 27.0141 6.34C27.6661 6.34 28.2201 6.49 28.6761 6.79C29.1361 7.09 29.4801 7.518 29.7081 8.074C29.9401 8.63 30.0401 9.292 30.0081 10.06H28.9281V9.676C28.9161 8.88 28.7541 8.286 28.4421 7.894C28.1301 7.498 27.6661 7.3 27.0501 7.3C26.3901 7.3 25.8881 7.512 25.5441 7.936C25.2001 8.36 25.0281 8.968 25.0281 9.76C25.0281 10.524 25.2001 11.116 25.5441 11.536C25.8881 11.956 26.3781 12.166 27.0141 12.166C27.4421 12.166 27.8141 12.068 28.1301 11.872C28.4461 11.676 28.6941 11.394 28.8741 11.026L29.9001 11.38C29.6481 11.952 29.2681 12.396 28.7601 12.712C28.2561 13.024 27.6901 13.18 27.0621 13.18ZM24.6681 10.06V9.202H29.4561V10.06H24.6681ZM31.3439 13V6.52H32.2979V8.086L32.1419 7.882C32.2179 7.682 32.3159 7.498 32.4359 7.33C32.5599 7.162 32.6979 7.024 32.8499 6.916C33.0179 6.78 33.2079 6.676 33.4199 6.604C33.6319 6.532 33.8479 6.49 34.0679 6.478C34.2879 6.462 34.4939 6.476 34.6859 6.52V7.522C34.4619 7.462 34.2159 7.446 33.9479 7.474C33.6799 7.502 33.4319 7.6 33.2039 7.768C32.9959 7.916 32.8339 8.096 32.7179 8.308C32.6059 8.52 32.5279 8.75 32.4839 8.998C32.4399 9.242 32.4179 9.492 32.4179 9.748V13H31.3439ZM38.5113 13.18C37.8753 13.18 37.3193 13.04 36.8433 12.76C36.3713 12.476 36.0033 12.082 35.7393 11.578C35.4753 11.07 35.3433 10.478 35.3433 9.802C35.3433 9.094 35.4733 8.482 35.7333 7.966C35.9933 7.446 36.3553 7.046 36.8193 6.766C37.2873 6.482 37.8353 6.34 38.4633 6.34C39.1153 6.34 39.6693 6.49 40.1253 6.79C40.5853 7.09 40.9293 7.518 41.1573 8.074C41.3893 8.63 41.4893 9.292 41.4573 10.06H40.3773V9.676C40.3653 8.88 40.2033 8.286 39.8913 7.894C39.5793 7.498 39.1153 7.3 38.4993 7.3C37.8393 7.3 37.3373 7.512 36.9933 7.936C36.6493 8.36 36.4773 8.968 36.4773 9.76C36.4773 10.524 36.6493 11.116 36.9933 11.536C37.3373 11.956 37.8273 12.166 38.4633 12.166C38.8913 12.166 39.2633 12.068 39.5793 11.872C39.8953 11.676 40.1433 11.394 40.3233 11.026L41.3493 11.38C41.0973 11.952 40.7173 12.396 40.2093 12.712C39.7053 13.024 39.1393 13.18 38.5113 13.18ZM36.1173 10.06V9.202H40.9053V10.06H36.1173ZM45.3371 13.18C44.7331 13.18 44.2151 13.03 43.7831 12.73C43.3511 12.426 43.0171 12.016 42.7811 11.5C42.5491 10.984 42.4331 10.402 42.4331 9.754C42.4331 9.106 42.5491 8.524 42.7811 8.008C43.0171 7.492 43.3511 7.086 43.7831 6.79C44.2151 6.49 44.7311 6.34 45.3311 6.34C45.9431 6.34 46.4571 6.488 46.8731 6.784C47.2891 7.08 47.6031 7.486 47.8151 8.002C48.0311 8.518 48.1391 9.102 48.1391 9.754C48.1391 10.398 48.0311 10.98 47.8151 11.5C47.6031 12.016 47.2891 12.426 46.8731 12.73C46.4571 13.03 45.9451 13.18 45.3371 13.18ZM45.4691 12.202C45.9051 12.202 46.2631 12.098 46.5431 11.89C46.8231 11.678 47.0291 11.388 47.1611 11.02C47.2971 10.648 47.3651 10.226 47.3651 9.754C47.3651 9.274 47.2971 8.852 47.1611 8.488C47.0291 8.12 46.8251 7.834 46.5491 7.63C46.2731 7.422 45.9231 7.318 45.4991 7.318C45.0591 7.318 44.6951 7.426 44.4071 7.642C44.1231 7.858 43.9111 8.15 43.7711 8.518C43.6351 8.886 43.5671 9.298 43.5671 9.754C43.5671 10.214 43.6371 10.63 43.7771 11.002C43.9171 11.37 44.1271 11.662 44.4071 11.878C44.6911 12.094 45.0451 12.202 45.4691 12.202ZM47.3651 13V8.23H47.2451V4.36H48.3191V13H47.3651ZM55.3785 13.18C54.7705 13.18 54.2585 13.03 53.8425 12.73C53.4265 12.426 53.1105 12.016 52.8945 11.5C52.6825 10.98 52.5765 10.398 52.5765 9.754C52.5765 9.102 52.6825 8.518 52.8945 8.002C53.1105 7.486 53.4265 7.08 53.8425 6.784C54.2625 6.488 54.7765 6.34 55.3845 6.34C55.9845 6.34 56.5005 6.49 56.9325 6.79C57.3685 7.086 57.7025 7.492 57.9345 8.008C58.1665 8.524 58.2825 9.106 58.2825 9.754C58.2825 10.402 58.1665 10.984 57.9345 11.5C57.7025 12.016 57.3685 12.426 56.9325 12.73C56.5005 13.03 55.9825 13.18 55.3785 13.18ZM52.3965 13V4.36H53.4705V8.23H53.3505V13H52.3965ZM55.2465 12.202C55.6745 12.202 56.0285 12.094 56.3085 11.878C56.5885 11.662 56.7985 11.37 56.9385 11.002C57.0785 10.63 57.1485 10.214 57.1485 9.754C57.1485 9.298 57.0785 8.886 56.9385 8.518C56.8025 8.15 56.5905 7.858 56.3025 7.642C56.0185 7.426 55.6565 7.318 55.2165 7.318C54.7965 7.318 54.4485 7.422 54.1725 7.63C53.8965 7.834 53.6905 8.12 53.5545 8.488C53.4185 8.852 53.3505 9.274 53.3505 9.754C53.3505 10.226 53.4165 10.648 53.5485 11.02C53.6845 11.388 53.8925 11.678 54.1725 11.89C54.4525 12.098 54.8105 12.202 55.2465 12.202ZM60.1463 15.88L61.4003 12.472L61.4183 13.48L58.5863 6.52H59.7083L61.9283 12.118H61.5443L63.6263 6.52H64.7122L61.1843 15.88H60.1463Z" fill="#F3EBEA" fill-opacity="0.6"/>
<path fill-rule="evenodd" clip-rule="evenodd" d="M74.4678 0.0122102C74.0505 0.0684512 73.6693 0.281323 73.3931 0.612402C73.1839 0.863113 73.0483 1.18039 73.0081 1.51311C73.0025 1.55896 72.9999 3.66323 73 8.00369C73.0001 13.485 73.0018 14.4387 73.0114 14.5105C73.1155 15.2859 73.7132 15.8843 74.4878 15.9884C74.5866 16.0017 74.7998 16.0035 74.896 15.9918C75.2736 15.946 75.6147 15.7847 75.8868 15.5233C76.003 15.4116 76.0634 15.3332 76.2662 15.031C76.3651 14.8835 77.134 13.7411 77.9749 12.4924C78.8157 11.2438 79.5145 10.2005 79.5277 10.1741C79.541 10.1477 79.5559 10.1029 79.5609 10.0745C79.5864 9.92921 79.4989 9.77183 79.3522 9.69911C79.2942 9.6704 79.2901 9.66958 79.2032 9.66958C79.1145 9.66958 79.1134 9.66982 79.0526 9.70162C79.0007 9.72871 78.7361 9.95472 77.333 11.1701C76.4209 11.9602 75.6641 12.6121 75.6512 12.6189C75.5997 12.646 75.5296 12.628 75.4944 12.5787L75.4758 12.5525V8.03851V3.52453L75.4925 3.50192C75.5339 3.44612 75.6138 3.42738 75.6646 3.46155C75.6796 3.4716 76.9674 5.00766 78.5264 6.87501C82.6641 11.8308 83.5839 12.9327 84.6798 14.2462C85.2218 14.8959 85.6982 15.4611 85.7384 15.5022C85.9585 15.7271 86.2221 15.8768 86.5316 15.9526C86.6981 15.9935 86.7777 16 87.1083 16C87.4276 16 87.5096 15.9945 87.6555 15.9632C88.1638 15.8542 88.5965 15.5144 88.8272 15.043C88.9126 14.8686 88.9705 14.6711 88.991 14.4848C89.003 14.3751 89.003 1.62464 88.991 1.51501C88.9193 0.86236 88.4619 0.295033 87.8399 0.0874384C87.6541 0.0253995 87.4952 9.38848e-05 87.2915 9.38848e-05C86.9062 9.38848e-05 86.5515 0.116916 86.2502 0.343122C86.1581 0.412304 86.0219 0.54443 85.9485 0.63581C85.8669 0.737401 82.4628 5.79988 82.4404 5.85283C82.3693 6.02152 82.4587 6.22138 82.6439 6.30769C82.6817 6.32534 82.706 6.33055 82.7609 6.33285C82.8429 6.33628 82.8962 6.32312 82.9571 6.28446C82.9799 6.26998 83.7406 5.61127 84.6476 4.82067C85.5546 4.03007 86.3125 3.37467 86.3319 3.36425C86.3955 3.32996 86.4656 3.35485 86.4964 3.42262C86.5108 3.45429 86.5112 3.59201 86.5114 7.95215L86.5116 12.449L86.4936 12.4847C86.4625 12.5465 86.3796 12.5743 86.3219 12.5425C86.3079 12.5348 86.2665 12.4924 86.2297 12.4484C86.193 12.4044 85.5959 11.689 84.9029 10.8588C84.2098 10.0285 81.9929 7.37265 79.9763 4.95681C77.9598 2.54096 76.277 0.530752 76.2368 0.489678C75.9779 0.225058 75.6436 0.0599465 75.2694 0.0119059C75.1446 -0.00412639 74.5874 -0.00391017 74.4678 0.0122102Z" fill="#F3EBEA" fill-opacity="0.6"/>
<path d="M93.84 13V4.36H94.92L99.426 11.11V4.36H100.506V13H99.426L94.92 6.244V13H93.84ZM102.184 13V4.36H107.644V5.374H103.252V8.08H106.924V9.094H103.252V11.986H107.644V13H102.184ZM108.486 13L111.378 4.36H112.866L115.758 13H114.648L111.942 4.984H112.278L109.596 13H108.486ZM109.878 10.978V9.976H114.366V10.978H109.878ZM116.832 13V4.36H120.246C120.33 4.36 120.43 4.364 120.546 4.372C120.662 4.376 120.774 4.388 120.882 4.408C121.35 4.48 121.742 4.64 122.058 4.888C122.378 5.136 122.618 5.45 122.778 5.83C122.938 6.206 123.018 6.624 123.018 7.084C123.018 7.752 122.844 8.332 122.496 8.824C122.148 9.312 121.638 9.618 120.966 9.742L120.558 9.808H117.9V13H116.832ZM121.974 13L120.27 9.484L121.326 9.16L123.198 13H121.974ZM117.9 8.794H120.21C120.286 8.794 120.372 8.79 120.468 8.782C120.568 8.774 120.662 8.76 120.75 8.74C121.026 8.676 121.25 8.56 121.422 8.392C121.598 8.22 121.726 8.02 121.806 7.792C121.886 7.56 121.926 7.324 121.926 7.084C121.926 6.844 121.886 6.61 121.806 6.382C121.726 6.15 121.598 5.948 121.422 5.776C121.25 5.604 121.026 5.488 120.75 5.428C120.662 5.404 120.568 5.39 120.468 5.386C120.372 5.378 120.286 5.374 120.21 5.374H117.9V8.794Z" fill="#F3EBEA" fill-opacity="0.6"/>
</svg>
