<svg width="544" height="69" viewBox="0 0 544 69" fill="none" xmlns="http://www.w3.org/2000/svg">
<path d="M23.3487 51L26.8767 34.424L28.6687 20.256L30.5167 34.424L33.9887 51H48.2127L56.3327 13.48H44.6847L41.7727 32.408L40.7087 44.672L39.1407 33.808L35.3887 13.48H21.9487L18.1967 33.808L16.5727 44.672L15.5647 32.408L12.6527 13.48H1.00469L9.12469 51H23.3487ZM87.8764 51V42.04H69.2284V36.72H85.0764V27.76H69.2284V22.44H87.8764V13.48H59.1484V51H87.8764ZM112.359 51C120.255 51 125.687 48.816 125.687 41.424C125.687 35.768 121.935 31.96 111.239 31.96C116.783 31.96 124.567 31.008 124.567 23C124.567 17.96 121.655 13.48 112.527 13.48H92.4794V51H112.359ZM110.119 22.44C112.527 22.44 113.927 23.28 113.927 25.296C113.927 27.256 112.527 28.04 110.119 28.04H102.559V22.44H110.119ZM110.959 35.88C114.095 35.88 115.383 36.888 115.383 38.96C115.383 40.976 114.095 42.04 110.959 42.04H102.559V35.88H110.959ZM172.685 51V42.04H161.429L152.693 43.384L158.013 40.528L162.045 37.952C167.757 34.312 171.453 30.56 171.453 24.96C171.453 17.568 166.469 12.92 158.181 12.92C149.669 12.92 143.005 17.176 141.381 24.96L148.717 31.344C150.285 24.736 153.421 22.552 156.949 22.552C159.077 22.552 160.645 23.56 160.645 25.52C160.645 27.144 159.861 28.264 157.733 30.112L142.501 43.496V51H172.685ZM187.213 51V41.424H177.133V51H187.213ZM207.944 51.448C218.92 51.448 225.584 43.552 225.584 32.184C225.584 20.816 218.92 12.92 207.944 12.92C196.968 12.92 190.304 20.816 190.304 32.184C190.304 43.552 196.968 51.448 207.944 51.448ZM207.944 41.648C203.24 41.648 200.944 38.176 200.944 32.184C200.944 26.192 203.24 22.72 207.944 22.72C212.648 22.72 214.944 26.192 214.944 32.184C214.944 38.176 212.648 41.648 207.944 41.648Z" fill="#6B6661"/>
<path d="M244 34.5L302 34.5" stroke="#2C3034" stroke-width="2"/>
<path d="M302 34.5C300.385 34.5 290 35.22 290 40.5" stroke="#2C3034" stroke-width="2"/>
<path d="M302 34.5C300.385 34.5 290 33.78 290 28.5" stroke="#2C3034" stroke-width="2"/>
<path d="M340.923 51L344.451 34.424L346.243 20.256L348.091 34.424L351.563 51H365.787L373.907 13.48H362.259L359.347 32.408L358.283 44.672L356.715 33.808L352.963 13.48H339.523L335.771 33.808L334.147 44.672L333.139 32.408L330.227 13.48H318.579L326.699 51H340.923ZM405.451 51V42.04H386.803V36.72H402.651V27.76H386.803V22.44H405.451V13.48H376.723V51H405.451ZM429.934 51C437.83 51 443.262 48.816 443.262 41.424C443.262 35.768 439.51 31.96 428.814 31.96C434.358 31.96 442.142 31.008 442.142 23C442.142 17.96 439.23 13.48 430.102 13.48H410.054V51H429.934ZM427.694 22.44C430.102 22.44 431.502 23.28 431.502 25.296C431.502 27.256 430.102 28.04 427.694 28.04H420.134V22.44H427.694ZM428.534 35.88C431.67 35.88 432.958 36.888 432.958 38.96C432.958 40.976 431.67 42.04 428.534 42.04H420.134V35.88H428.534ZM474.355 51.56C482.643 51.56 489.475 48.032 489.475 41.424C489.475 35.88 485.163 32.128 477.379 32.128C482.867 32.128 488.523 30.168 488.523 23.336C488.523 17.512 483.315 12.92 474.635 12.92C465.899 12.92 460.299 17.12 458.563 22.328L465.731 28.712C466.851 24.512 470.211 22.552 474.243 22.552C476.651 22.552 478.443 23.56 478.443 25.52C478.443 27.648 476.483 28.208 473.963 28.208H467.803V36.104H473.347C476.371 36.104 478.499 36.44 478.499 38.68C478.499 40.808 476.707 42.04 473.515 42.04C469.371 42.04 465.843 39.856 464.667 35.6L457.499 41.984C459.347 47.472 465.619 51.56 474.355 51.56ZM503.639 51V41.424H493.559V51H503.639ZM524.37 51.448C535.346 51.448 542.01 43.552 542.01 32.184C542.01 20.816 535.346 12.92 524.37 12.92C513.394 12.92 506.73 20.816 506.73 32.184C506.73 43.552 513.394 51.448 524.37 51.448ZM524.37 41.648C519.666 41.648 517.37 38.176 517.37 32.184C517.37 26.192 519.666 22.72 524.37 22.72C529.074 22.72 531.37 26.192 531.37 32.184C531.37 38.176 529.074 41.648 524.37 41.648Z" fill="#2C3034"/>
<path d="M340.923 51L344.451 34.424L346.243 20.256L348.091 34.424L351.563 51H365.787L373.907 13.48H362.259L359.347 32.408L358.283 44.672L356.715 33.808L352.963 13.48H339.523L335.771 33.808L334.147 44.672L333.139 32.408L330.227 13.48H318.579L326.699 51H340.923ZM405.451 51V42.04H386.803V36.72H402.651V27.76H386.803V22.44H405.451V13.48H376.723V51H405.451ZM429.934 51C437.83 51 443.262 48.816 443.262 41.424C443.262 35.768 439.51 31.96 428.814 31.96C434.358 31.96 442.142 31.008 442.142 23C442.142 17.96 439.23 13.48 430.102 13.48H410.054V51H429.934ZM427.694 22.44C430.102 22.44 431.502 23.28 431.502 25.296C431.502 27.256 430.102 28.04 427.694 28.04H420.134V22.44H427.694ZM428.534 35.88C431.67 35.88 432.958 36.888 432.958 38.96C432.958 40.976 431.67 42.04 428.534 42.04H420.134V35.88H428.534ZM474.355 51.56C482.643 51.56 489.475 48.032 489.475 41.424C489.475 35.88 485.163 32.128 477.379 32.128C482.867 32.128 488.523 30.168 488.523 23.336C488.523 17.512 483.315 12.92 474.635 12.92C465.899 12.92 460.299 17.12 458.563 22.328L465.731 28.712C466.851 24.512 470.211 22.552 474.243 22.552C476.651 22.552 478.443 23.56 478.443 25.52C478.443 27.648 476.483 28.208 473.963 28.208H467.803V36.104H473.347C476.371 36.104 478.499 36.44 478.499 38.68C478.499 40.808 476.707 42.04 473.515 42.04C469.371 42.04 465.843 39.856 464.667 35.6L457.499 41.984C459.347 47.472 465.619 51.56 474.355 51.56ZM503.639 51V41.424H493.559V51H503.639ZM524.37 51.448C535.346 51.448 542.01 43.552 542.01 32.184C542.01 20.816 535.346 12.92 524.37 12.92C513.394 12.92 506.73 20.816 506.73 32.184C506.73 43.552 513.394 51.448 524.37 51.448ZM524.37 41.648C519.666 41.648 517.37 38.176 517.37 32.184C517.37 26.192 519.666 22.72 524.37 22.72C529.074 22.72 531.37 26.192 531.37 32.184C531.37 38.176 529.074 41.648 524.37 41.648Z" fill="url(#paint0_linear_7031_43924)"/>
<defs>
<linearGradient id="paint0_linear_7031_43924" x1="270.5" y1="33.6977" x2="544" y2="33.6977" gradientUnits="userSpaceOnUse">
<stop stop-color="#FDD65F"/>
<stop offset="0.373259" stop-color="#FCA857"/>
<stop offset="0.706606" stop-color="#FC668B"/>
<stop offset="1" stop-color="#C74AD5"/>
</linearGradient>
</defs>
</svg>
