<svg width="123" height="24" viewBox="0 0 123 24" fill="none" xmlns="http://www.w3.org/2000/svg">
<g clip-path="url(#clip0_8461_57654)">
<path d="M26.3138 5.37637L31.3837 0L24.6719 4.93846L20.8637 7.7401L18.9084 9.17824C18.2516 9.66195 11.6483 14.5188 9.3348 16.2207L8.79348 16.6188C8.71288 16.6786 8.64919 16.7253 8.6064 16.7562L8.59246 16.7661C8.55764 16.792 8.53874 16.8059 8.53874 16.8059L8.15166 17.0905L5.52664 19.0213L0 23.0869L5.61919 21.0894C6.37843 20.8198 7.22325 20.9562 7.8581 21.4527C9.8791 23.0372 12.4255 23.9797 15.1928 23.9747C21.7394 23.9638 27.1337 18.4809 27.0512 11.9262C27.0291 10.2382 26.6571 8.63384 26.0023 7.18475C25.7277 6.57765 25.856 5.86106 26.3138 5.37637ZM15.2535 19.2442C13.7947 19.2601 12.4355 18.8392 11.2971 18.1037C11.2911 18.0967 10.9269 17.6667 10.914 17.2956C10.9001 16.9204 11.1438 16.6298 11.1438 16.6298L20.6637 9.61914C21.2389 9.33351 21.9334 9.64702 22.0956 10.27C22.2528 10.8732 22.3334 11.5061 22.3265 12.16C22.2858 16.0356 19.1254 19.2015 15.2535 19.2442Z" fill="#5C5C5C" fill-opacity="0.2"/>
<path d="M26.3138 5.37637L31.3837 0L24.6719 4.93846L20.8637 7.7401L18.9084 9.17824C18.2516 9.66195 11.6483 14.5188 9.3348 16.2207L8.79348 16.6188C8.71288 16.6786 8.64919 16.7253 8.6064 16.7562L8.59246 16.7661C8.55764 16.792 8.53874 16.8059 8.53874 16.8059L8.15166 17.0905L5.52664 19.0213L0 23.0869L5.61919 21.0894C6.37843 20.8198 7.22325 20.9562 7.8581 21.4527C9.8791 23.0372 12.4255 23.9797 15.1928 23.9747C21.7394 23.9638 27.1337 18.4809 27.0512 11.9262C27.0291 10.2382 26.6571 8.63384 26.0023 7.18475C25.7277 6.57765 25.856 5.86106 26.3138 5.37637ZM15.2535 19.2442C13.7947 19.2601 12.4355 18.8392 11.2971 18.1037C11.2911 18.0967 10.9269 17.6667 10.914 17.2956C10.9001 16.9204 11.1438 16.6298 11.1438 16.6298L20.6637 9.61914C21.2389 9.33351 21.9334 9.64702 22.0956 10.27C22.2528 10.8732 22.3334 11.5061 22.3265 12.16C22.2858 16.0356 19.1254 19.2015 15.2535 19.2442Z" fill="url(#paint0_linear_8461_57654)"/>
<path d="M26.3138 5.37637L31.3837 0L24.6719 4.93846L20.8637 7.7401L18.9084 9.17824C18.2516 9.66195 11.6483 14.5188 9.3348 16.2207L8.79348 16.6188C8.71288 16.6786 8.64919 16.7253 8.6064 16.7562L8.59246 16.7661C8.55764 16.792 8.53874 16.8059 8.53874 16.8059L8.15166 17.0905L5.52664 19.0213L0 23.0869L5.61919 21.0894C6.37843 20.8198 7.22325 20.9562 7.8581 21.4527C9.8791 23.0372 12.4255 23.9797 15.1928 23.9747C21.7394 23.9638 27.1337 18.4809 27.0512 11.9262C27.0291 10.2382 26.6571 8.63384 26.0023 7.18475C25.7277 6.57765 25.856 5.86106 26.3138 5.37637ZM15.2535 19.2442C13.7947 19.2601 12.4355 18.8392 11.2971 18.1037C11.2911 18.0967 10.9269 17.6667 10.914 17.2956C10.9001 16.9204 11.1438 16.6298 11.1438 16.6298L20.6637 9.61914C21.2389 9.33351 21.9334 9.64702 22.0956 10.27C22.2528 10.8732 22.3334 11.5061 22.3265 12.16C22.2858 16.0356 19.1254 19.2015 15.2535 19.2442Z" fill="url(#paint1_linear_8461_57654)"/>
<path d="M24.2647 4.33234C22.6508 2.44732 20.6557 1.46003 19.7273 1.07387C19.4466 0.960411 19.1601 0.855909 18.8674 0.762354C12.6961 -1.21024 6.02607 2.16467 3.97423 8.3044C2.80701 11.7968 3.35131 15.4364 5.14343 18.3286L6.81417 17.1054L8.97745 15.522L9.04015 15.4762C8.63814 14.8422 8.38638 14.2102 8.25105 13.4977C8.22816 13.4389 8.21025 13.3782 8.19832 13.3135C8.00029 12.1899 8.06796 11.0025 8.45007 9.84008C8.50977 9.65796 8.57944 9.4798 8.65407 9.30463C9.71878 6.70104 12.2751 4.86679 15.2614 4.86679C17.345 4.86679 19.176 5.69186 20.4716 7.10115C20.4726 7.10214 20.4716 7.10611 20.4706 7.10911L22.0159 5.9785L24.2647 4.33234Z" fill="url(#paint2_linear_8461_57654)"/>
<path d="M24.2647 4.33234C22.6508 2.44732 20.6557 1.46003 19.7273 1.07387C19.4466 0.960411 19.1601 0.855909 18.8674 0.762354C12.6961 -1.21024 6.02607 2.16467 3.97423 8.3044C2.80701 11.7968 3.35131 15.4364 5.14343 18.3286L6.81417 17.1054L8.97745 15.522L9.04015 15.4762C8.63814 14.8422 8.38638 14.2102 8.25105 13.4977C8.22816 13.4389 8.21025 13.3782 8.19832 13.3135C8.00029 12.1899 8.06796 11.0025 8.45007 9.84008C8.50977 9.65796 8.57944 9.4798 8.65407 9.30463C9.71878 6.70104 12.2751 4.86679 15.2614 4.86679C17.345 4.86679 19.176 5.69186 20.4716 7.10115C20.4726 7.10214 20.4716 7.10611 20.4706 7.10911L22.0159 5.9785L24.2647 4.33234Z" fill="url(#paint3_linear_8461_57654)"/>
<path d="M24.2647 4.33234C22.6508 2.44732 20.6557 1.46003 19.7273 1.07387C19.4466 0.960411 19.1601 0.855909 18.8674 0.762354C12.6961 -1.21024 6.02607 2.16467 3.97423 8.3044C2.80701 11.7968 3.35131 15.4364 5.14343 18.3286L6.81417 17.1054L8.97745 15.522L9.04015 15.4762C8.63814 14.8422 8.38638 14.2102 8.25105 13.4977C8.22816 13.4389 8.21025 13.3782 8.19832 13.3135C8.00029 12.1899 8.06796 11.0025 8.45007 9.84008C8.50977 9.65796 8.57944 9.4798 8.65407 9.30463C9.71878 6.70104 12.2751 4.86679 15.2614 4.86679C17.345 4.86679 19.176 5.69186 20.4716 7.10115C20.4726 7.10214 20.4716 7.10611 20.4706 7.10911L22.0159 5.9785L24.2647 4.33234Z" fill="url(#paint4_linear_8461_57654)"/>
<path d="M38.1842 15.6858L33.3023 15.6804L32.4783 17.3366L29.8398 17.3336L34.4318 8.58203L37.0703 8.58491L41.6428 17.3465L39.0045 17.3437L38.1842 15.6858ZM34.1519 13.9734L37.3511 13.9769L35.7614 10.7503L34.1519 13.9734Z" fill="white"/>
<path d="M52.9226 11.5912C52.9221 12.0288 52.8578 12.4324 52.7301 12.8019C52.6021 13.1672 52.3957 13.4835 52.1107 13.7508C51.83 14.014 51.4645 14.2196 51.014 14.3678C50.5635 14.516 50.0153 14.5898 49.3694 14.5891L45.4435 14.5848L45.4406 17.3507L43.0762 17.3482L43.0858 8.59152L49.3759 8.59837C50.0217 8.59909 50.5698 8.67403 51.02 8.82323C51.4702 8.96819 51.8353 9.17464 52.1155 9.44262C52.3999 9.70636 52.6056 10.021 52.7327 10.3865C52.8597 10.752 52.9231 11.1536 52.9226 11.5912ZM50.5325 11.6269C50.5328 11.4229 50.5032 11.2487 50.444 11.1042C50.3888 10.9554 50.2955 10.8342 50.1639 10.7406C50.0323 10.647 49.8603 10.5788 49.6478 10.5361C49.4355 10.4891 49.1743 10.4655 48.8641 10.4651L45.448 10.4614L45.4457 12.7175L48.8616 12.7212C49.1718 12.7216 49.4332 12.7048 49.6455 12.6711C49.858 12.6331 50.0302 12.5717 50.1619 12.4868C50.2938 12.3978 50.3874 12.2831 50.4428 12.143C50.5024 12.0028 50.5323 11.8308 50.5325 11.6269Z" fill="white"/>
<path d="M66.2147 13.0014C66.2139 13.7535 66.075 14.4182 65.7983 14.9958C65.5214 15.569 65.1258 16.0487 64.6112 16.4348C64.0968 16.8209 63.4718 17.1134 62.7366 17.3122C62.0056 17.5068 61.1833 17.6036 60.2699 17.6026C59.3564 17.6017 58.5301 17.5032 57.7911 17.3069C57.0562 17.1064 56.4299 16.8125 55.912 16.4253C55.3941 16.0381 54.9952 15.5576 54.7155 14.9837C54.4356 14.4056 54.2962 13.7405 54.2969 12.9885C54.2977 12.2364 54.4387 11.5738 54.7198 11.0005C55.0008 10.423 55.4007 9.94118 55.9194 9.55511C56.4382 9.16905 57.0653 8.8787 57.8005 8.68405C58.5401 8.48517 59.3665 8.38622 60.28 8.38721C61.1934 8.38821 62.0154 8.48896 62.746 8.68945C63.4809 8.88568 64.105 9.17741 64.6188 9.5646C65.1324 9.95179 65.527 10.4345 65.8026 11.0126C66.0782 11.5865 66.2155 12.2494 66.2147 13.0014ZM63.8247 12.9988C63.8252 12.6717 63.7724 12.3466 63.6664 12.0236C63.5648 11.6963 63.3804 11.403 63.1129 11.1435C62.8498 10.884 62.4889 10.6733 62.0303 10.5114C61.5715 10.3494 60.9874 10.2681 60.278 10.2673C59.8021 10.2668 59.3835 10.3045 59.0222 10.3806C58.661 10.4525 58.3487 10.5541 58.085 10.6855C57.8215 10.8169 57.6004 10.9718 57.4218 11.15C57.2431 11.324 57.1006 11.5129 56.9941 11.7168C56.8877 11.9164 56.8111 12.1266 56.7641 12.3475C56.7214 12.5641 56.6998 12.7786 56.6997 12.9911C56.6993 13.2078 56.7204 13.4266 56.7626 13.6476C56.8091 13.8685 56.8854 14.0811 56.9913 14.2851C57.0974 14.4849 57.2394 14.672 57.4177 14.8464C57.5959 15.0208 57.8167 15.174 58.0801 15.306C58.3434 15.4338 58.6556 15.5361 59.0166 15.6129C59.3776 15.6856 59.7962 15.7221 60.272 15.7226C60.9814 15.7234 61.5659 15.6433 62.0248 15.4824C62.4838 15.3214 62.8453 15.1115 63.109 14.8526C63.3769 14.5938 63.562 14.3029 63.6643 13.9801C63.7709 13.6531 63.8243 13.326 63.8247 12.9988Z" fill="white"/>
<path d="M68.3652 17.3758L68.3748 8.61914L70.7392 8.62172L70.7318 15.4601L77.124 15.467L77.1219 17.3854L68.3652 17.3758Z" fill="white"/>
<path d="M79.0215 17.3874L79.0309 8.63077L81.3953 8.63335L81.3879 15.4717L87.7801 15.4787L87.7781 17.397L79.0215 17.3874Z" fill="white"/>
<path d="M101.011 13.0395C101.011 13.7916 100.872 14.4563 100.595 15.0339C100.318 15.6071 99.9227 16.0868 99.4081 16.4729C98.8936 16.859 98.2687 17.1514 97.5334 17.3504C96.8025 17.545 95.9802 17.6419 95.0667 17.6409C94.1533 17.6399 93.327 17.5412 92.588 17.3449C91.8531 17.1445 91.2268 16.8505 90.7089 16.4634C90.191 16.0762 89.7921 15.5957 89.5122 15.0218C89.2325 14.4436 89.0929 13.7786 89.0938 13.0265C89.0946 12.2745 89.2356 11.6119 89.5166 11.0386C89.7977 10.4611 90.1976 9.97927 90.7163 9.5932C91.235 9.20713 91.8622 8.91678 92.5974 8.72214C93.3368 8.52325 94.1634 8.42431 95.0768 8.4253C95.9903 8.42631 96.8123 8.52704 97.5429 8.72753C98.2778 8.92377 98.9019 9.21549 99.4157 9.60268C99.9293 9.98988 100.324 10.4725 100.599 11.0507C100.875 11.6245 101.012 12.2875 101.011 13.0395ZM98.6215 13.0369C98.622 12.7098 98.5692 12.3847 98.4633 12.0617C98.3617 11.7344 98.1773 11.441 97.9098 11.1816C97.6466 10.9221 97.2858 10.7114 96.8272 10.5495C96.3684 10.3875 95.7843 10.3061 95.0747 10.3054C94.5988 10.3049 94.1804 10.3426 93.8191 10.4187C93.4579 10.4905 93.1456 10.5922 92.8819 10.7236C92.6184 10.855 92.3973 11.0099 92.2187 11.1881C92.0399 11.3621 91.8974 11.551 91.791 11.7549C91.6846 11.9544 91.6079 12.1647 91.5609 12.3855C91.5182 12.6022 91.4967 12.8167 91.4964 13.0292C91.4962 13.2458 91.5172 13.4647 91.5594 13.6857C91.606 13.9066 91.6823 14.1192 91.7882 14.3232C91.8943 14.523 92.0363 14.7101 92.2146 14.8845C92.3928 15.0589 92.6136 15.2121 92.877 15.3441C93.1401 15.4719 93.4523 15.5742 93.8135 15.651C94.1744 15.7237 94.5929 15.7602 95.0687 15.7607C95.7783 15.7615 96.3626 15.6814 96.8217 15.5205C97.2807 15.3595 97.642 15.1496 97.9058 14.8907C98.1738 14.6318 98.3589 14.341 98.4611 14.0182C98.5677 13.6912 98.6212 13.3641 98.6215 13.0369Z" fill="white"/>
<path d="M110.039 15.7002L110.037 17.421L107.692 17.4184L107.694 15.6976L102.117 15.6916L102.119 13.8242L107.14 8.66113L110.047 8.66429L110.041 13.8329L112.029 13.835L112.027 15.7024L110.039 15.7002ZM107.699 10.7203L104.681 13.827L107.696 13.8303L107.699 10.7203Z" fill="white"/>
<path d="M112.943 17.4242L112.945 15.8564C114.084 15.3351 115.073 14.8688 115.91 14.4576C116.752 14.0464 117.447 13.6732 117.995 13.3382C118.548 13.0031 118.958 12.6977 119.226 12.4218C119.494 12.1417 119.629 11.872 119.629 11.6129C119.629 11.5406 119.62 11.4599 119.604 11.3706C119.591 11.2772 119.557 11.1837 119.502 11.0901C119.451 10.9923 119.375 10.8967 119.273 10.8031C119.171 10.7095 119.031 10.6286 118.852 10.5604C118.674 10.488 118.453 10.4304 118.19 10.3876C117.926 10.3406 117.608 10.3169 117.234 10.3165C116.89 10.3161 116.531 10.3391 116.157 10.3854C115.783 10.4275 115.413 10.4887 115.048 10.569C114.682 10.6494 114.329 10.7467 113.989 10.861C113.649 10.9754 113.337 11.1046 113.052 11.2488L113.054 9.16479C113.641 8.96148 114.291 8.79224 115.005 8.65707C115.723 8.51763 116.48 8.44835 117.274 8.44923C118.018 8.45004 118.683 8.51661 119.269 8.64896C119.855 8.78132 120.35 8.97304 120.753 9.22416C121.161 9.47102 121.47 9.77303 121.683 10.1302C121.899 10.483 122.007 10.8825 122.006 11.3286C122.006 11.5751 121.978 11.8066 121.923 12.0232C121.871 12.2356 121.778 12.4437 121.642 12.6475C121.505 12.8513 121.32 13.0571 121.086 13.2651C120.857 13.4688 120.563 13.6851 120.206 13.9142C119.853 14.1432 119.43 14.3913 118.937 14.6584C118.444 14.9213 117.87 15.2139 117.215 15.5361L122.186 15.5415L122.184 17.4343L112.943 17.4242Z" fill="white"/>
</g>
<defs>
<linearGradient id="paint0_linear_8461_57654" x1="8.44611e-07" y1="-0.499474" x2="24.7718" y2="27.0065" gradientUnits="userSpaceOnUse">
<stop stop-color="#E890E7"/>
<stop offset="0.489583" stop-color="#A070DE"/>
<stop offset="1" stop-color="#87B5F1"/>
</linearGradient>
<linearGradient id="paint1_linear_8461_57654" x1="0" y1="11.9874" x2="31.3837" y2="11.9874" gradientUnits="userSpaceOnUse">
<stop stop-color="#F368E0"/>
<stop offset="0.494792" stop-color="#5F27CD"/>
<stop offset="1" stop-color="#00D2D3"/>
</linearGradient>
<linearGradient id="paint2_linear_8461_57654" x1="-2.93813" y1="-8.26745" x2="18.8424" y2="15.9156" gradientUnits="userSpaceOnUse">
<stop stop-color="#E890E7"/>
<stop offset="0.4896" stop-color="#A070DE"/>
<stop offset="1" stop-color="#87B5F1"/>
</linearGradient>
<linearGradient id="paint3_linear_8461_57654" x1="3.35741" y1="-0.178477" x2="22.1877" y2="18.2415" gradientUnits="userSpaceOnUse">
<stop stop-color="#E890E7"/>
<stop offset="0.489583" stop-color="#A070DE"/>
<stop offset="1" stop-color="#87B5F1"/>
</linearGradient>
<linearGradient id="paint4_linear_8461_57654" x1="3.35741" y1="9.26391" x2="24.2647" y2="9.26391" gradientUnits="userSpaceOnUse">
<stop stop-color="#F368E0"/>
<stop offset="0.494792" stop-color="#5F27CD"/>
<stop offset="1" stop-color="#00D2D3"/>
</linearGradient>
<clipPath id="clip0_8461_57654">
<rect width="122.317" height="23.9999" fill="white"/>
</clipPath>
</defs>
</svg>
