<svg width="110" height="24" viewBox="0 0 110 24" fill="none" xmlns="http://www.w3.org/2000/svg">
<g clip-path="url(#clip0_8461_57629)">
<path d="M48.2524 20.1964V13.923H54.1566V20.1964H58.5849V3.71338H54.1566V9.9868H48.2524V3.71338H43.8242V20.1964H48.2524Z" fill="#F3EBEA"/>
<path d="M73.1027 20.1964V16.2601H64.9107V13.923H71.8727V9.9868H64.9107V7.64965H73.1027V3.71338H60.4824V20.1964H73.1027Z" fill="#F3EBEA"/>
<path d="M79.3324 20.1964V14.292H79.6769C81.0301 14.292 81.645 14.7103 82.3089 15.7927L85.0395 20.1964H90.0831L87.7211 16.4816C86.8852 15.1777 86.1471 14.1198 84.4499 13.7016C87.2538 13.4556 89.3939 12.0533 89.3939 8.87972C89.3939 5.23869 86.6389 3.71338 82.8016 3.71338H74.9043V20.1964H79.3324ZM82.8505 7.64965C84.1048 7.64965 84.7198 8.16624 84.7198 9.19951C84.7198 10.2081 84.1048 10.7495 82.8505 10.7495H79.3324V7.64965H82.8505Z" fill="#F3EBEA"/>
<path d="M103.646 20.1964V16.2601H95.4532V13.923H102.415V9.9868H95.4532V7.64965H103.646V3.71338H91.0254V20.1964H103.646Z" fill="#F3EBEA"/>
<path d="M109.305 20.1961V15.9893H104.877V20.1961H109.305Z" fill="#F3EBEA"/>
<path d="M109.305 20.1961V15.9893H104.877V20.1961H109.305Z" fill="#FD84E3"/>
<path d="M14.1298 20.5529L14.1731 20.5744L14.2213 20.5715L34.2576 19.3551L32.4761 22.5701L12.258 23.7973L0.25029 17.8363L2.06417 14.563L14.1298 20.5529ZM17.8692 6.77229L17.2215 3.69871L18.9517 0.472666L21.2937 8.32049L17.8692 6.77229ZM14.9522 13.4061L7.26034 13.937L1.35434 11.0478L3.1809 7.75419L14.9522 13.4061Z" fill="#2C3034" stroke="#FDBF1E" stroke-width="0.362264"/>
<path d="M34.578 19.1546L14.2182 20.3911L1.89258 14.3098L15.2395 13.5022L3.10625 7.51689L9.06441 2.47073L21.4241 8.54907L19.0007 0L30.811 5.79152L34.578 19.1546Z" fill="#FDBF1C"/>
</g>
<defs>
<clipPath id="clip0_8461_57629">
<rect width="109.313" height="24" fill="white"/>
</clipPath>
</defs>
</svg>
