<svg width="81" height="18" viewBox="0 0 81 18" fill="none" xmlns="http://www.w3.org/2000/svg">
<g clip-path="url(#clip0_8461_57647)">
<path d="M28.5063 17.8449L28.1817 16.7381C28.0821 16.8175 27.9738 16.8928 27.8574 16.9642C26.7929 17.6545 25.3124 17.9996 23.416 17.9996C21.6195 17.9996 20.1889 17.6902 19.1243 17.0713C18.0597 16.4525 17.5273 15.314 17.5273 13.6558C17.5273 12.1008 18.068 10.998 19.1492 10.3474C20.2388 9.69681 21.9273 9.37152 24.2145 9.37152H27.895V8.94309C27.895 8.01483 27.6371 7.35235 27.1215 6.95564C26.6058 6.55103 25.9153 6.3487 25.0503 6.3487C24.2686 6.3487 23.6031 6.52721 23.0543 6.88424C22.5053 7.24126 22.1644 7.80854 22.0311 8.58607L17.8393 7.46738C18.0888 6.17417 18.829 5.20622 20.06 4.56358C21.2994 3.92093 22.8961 3.59961 24.8508 3.59961C27.6787 3.59961 29.6124 4.15896 30.6521 5.27762C31.6917 6.39631 32.2116 7.98705 32.2116 10.0499V17.8449H28.5063ZM27.895 13.6439V11.7874H25.1129C23.8817 11.7874 23.0375 11.9342 22.5802 12.2277C22.131 12.5213 21.9065 12.9775 21.9065 13.5963C21.9065 14.2072 22.1102 14.6674 22.5179 14.9768C22.9253 15.2783 23.5782 15.429 24.4765 15.429C25.4664 15.429 26.2814 15.2505 26.9217 14.8935C27.5706 14.5365 27.895 14.1199 27.895 13.6439Z" fill="white"/>
<path d="M43.566 10.7876C43.566 8.99761 43.3547 7.82971 42.932 7.28389C42.5177 6.73004 41.9373 6.45312 41.1914 6.45312C40.3295 6.45312 39.6417 6.74609 39.1279 7.33206C38.6968 7.82971 38.4483 8.38356 38.382 8.9936V17.9996H34.1055V3.72002H38.1955L38.2825 5.0926C38.3239 5.05244 38.3655 5.01632 38.4069 4.98423C39.5257 4.06116 40.9926 3.59961 42.8076 3.59961C44.7718 3.59961 46.102 4.18555 46.7981 5.35746C47.4942 6.52136 47.8423 8.33139 47.8423 10.7876H43.566Z" fill="white"/>
<path d="M60.7173 17.8449L60.3929 16.7381C60.293 16.8175 60.185 16.8928 60.0683 16.9642C59.0038 17.6545 57.5233 17.9996 55.6269 17.9996C53.8304 17.9996 52.3998 17.6902 51.3353 17.0713C50.2705 16.4525 49.7383 15.314 49.7383 13.6558C49.7383 12.1008 50.2789 10.998 51.3603 10.3474C52.4497 9.69681 54.1382 9.37152 56.4254 9.37152H60.1059V8.94309C60.1059 8.01483 59.8481 7.35235 59.3324 6.95564C58.8167 6.55103 58.1265 6.3487 57.2612 6.3487C56.4795 6.3487 55.814 6.52721 55.2652 6.88424C54.7162 7.24126 54.3753 7.80854 54.242 8.58607L50.0503 7.46738C50.2997 6.17417 51.0399 5.20622 52.271 4.56358C53.5103 3.92093 55.1073 3.59961 57.0617 3.59961C59.8896 3.59961 61.8233 4.15896 62.8631 5.27762C63.9029 6.39631 64.4225 7.98705 64.4225 10.0499V17.8449H60.7173ZM60.1059 13.6439V11.7874H57.3238C56.0926 11.7874 55.2487 11.9342 54.7911 12.2277C54.3419 12.5213 54.1174 12.9775 54.1174 13.5963C54.1174 14.2072 54.3211 14.6674 54.7288 14.9768C55.1362 15.2783 55.7891 15.429 56.6874 15.429C57.6773 15.429 58.4924 15.2505 59.1326 14.8935C59.7816 14.5365 60.1059 14.1199 60.1059 13.6439Z" fill="white"/>
<path d="M73.8218 17.9996C71.797 17.9996 70.136 17.7128 68.8391 17.1392C67.5422 16.5576 66.7014 15.5976 66.3164 14.2592L70.1066 12.9447C70.274 13.7891 70.6926 14.3907 71.3618 14.7492C72.0394 15.0997 72.8345 15.275 73.7464 15.275C74.7001 15.275 75.4365 15.1515 75.9553 14.9045C76.474 14.6575 76.7334 14.303 76.7334 13.8409C76.7334 13.2594 76.4196 12.8809 75.7921 12.7057C75.1729 12.5224 74.1563 12.3312 72.7422 12.1321C70.4583 11.8453 68.8349 11.411 67.8727 10.8295C66.9105 10.2479 66.4296 9.24009 66.4296 7.80607C66.4296 6.34019 67.0906 5.27263 68.4123 4.60343C69.7428 3.9342 71.4998 3.59961 73.6835 3.59961C75.8006 3.59961 77.4238 3.88641 78.5533 4.46002C79.691 5.02565 80.4316 5.94584 80.7746 7.22052L77.1223 8.51115C76.9468 7.74632 76.5576 7.18865 75.9553 6.8381C75.3611 6.47959 74.5788 6.30034 73.6084 6.30034C72.688 6.30034 71.9683 6.43579 71.4495 6.70666C70.9392 6.97752 70.6841 7.32808 70.6841 7.75828C70.6841 8.31596 71.0146 8.67049 71.6756 8.82184C72.3448 8.9732 73.3533 9.14052 74.7001 9.32375C76.8923 9.59462 78.4904 10.0288 79.4946 10.6263C80.4985 11.2159 81.0006 12.2117 81.0006 13.6139C81.0006 15.1993 80.352 16.3266 79.0551 16.9958C77.7667 17.665 76.0222 17.9996 73.8218 17.9996Z" fill="white"/>
<path fill-rule="evenodd" clip-rule="evenodd" d="M2.48122 18L0 0L10.4831 1.8C10.9287 1.91344 11.3413 2.00462 11.7213 2.08861C13.1499 2.40437 14.1164 2.61799 14.6391 3.528C15.3008 4.67201 15.6316 6.08001 15.6316 7.75201C15.6316 9.432 15.3008 10.844 14.6391 11.988C13.9774 13.132 12.5921 13.704 10.4831 13.704H6.15845L6.91889 18H2.48122ZM4.49376 3.72001L9.50342 4.68147C9.7439 4.74206 9.96658 4.79078 10.1716 4.83563C10.9426 5.0043 11.4643 5.1184 11.7464 5.60447C12.1034 6.21556 12.282 6.96764 12.282 7.86074C12.282 8.75811 12.1034 9.51232 11.7464 10.1234C11.3893 10.7345 10.6416 11.04 9.50342 11.04H6.91902L5.72153 10.92L4.49376 3.72001Z" fill="white"/>
<path fill-rule="evenodd" clip-rule="evenodd" d="M2.48122 18L0 0L10.4831 1.8C10.9287 1.91344 11.3413 2.00462 11.7213 2.08861C13.1499 2.40437 14.1164 2.61799 14.6391 3.528C15.3008 4.67201 15.6316 6.08001 15.6316 7.75201C15.6316 9.432 15.3008 10.844 14.6391 11.988C13.9774 13.132 12.5921 13.704 10.4831 13.704H6.15845L6.91889 18H2.48122ZM4.49376 3.72001L9.50342 4.68147C9.7439 4.74206 9.96658 4.79078 10.1716 4.83563C10.9426 5.0043 11.4643 5.1184 11.7464 5.60447C12.1034 6.21556 12.282 6.96764 12.282 7.86074C12.282 8.75811 12.1034 9.51232 11.7464 10.1234C11.3893 10.7345 10.6416 11.04 9.50342 11.04H6.91902L5.72153 10.92L4.49376 3.72001Z" fill="white"/>
</g>
<defs>
<clipPath id="clip0_8461_57647">
<rect width="81" height="18" fill="white"/>
</clipPath>
</defs>
</svg>
