<svg width="77" height="24" viewBox="0 0 77 24" fill="none" xmlns="http://www.w3.org/2000/svg">
<g clip-path="url(#clip0_8461_57639)">
<path fill-rule="evenodd" clip-rule="evenodd" d="M10.1349 0.624364C9.68506 1.07615 9.23542 1.52788 8.7856 1.97969C7.95688 2.8124 7.95688 4.17494 8.7856 5.00759C9.23542 5.45944 9.68506 5.91112 10.1349 6.36298C10.9637 7.19546 12.3201 7.19546 13.1491 6.36298C13.7809 6.00791 14.2092 5.54502 14.4982 5.00759C15.327 4.17494 15.327 2.8124 14.4982 1.97969C14.0484 1.52788 13.5988 1.07615 13.1491 0.624364C12.3201 -0.208121 10.9637 -0.208121 10.1349 0.624364Z" fill="url(#paint0_linear_8461_57639)"/>
<path fill-rule="evenodd" clip-rule="evenodd" d="M13.149 23.3753C13.5988 22.9235 14.0485 22.4718 14.4983 22.0199C15.327 21.1873 15.327 19.8247 14.4983 18.9921C14.0485 18.5402 13.5988 18.0886 13.149 17.6368C12.3201 16.8042 10.9637 16.8042 10.1348 17.6368C9.503 17.9918 9.07473 18.4547 8.78565 18.9921C7.95687 19.8247 7.95687 21.1873 8.78565 22.0199C9.23542 22.4718 9.6851 22.9235 10.1348 23.3753C10.9637 24.2078 12.3201 24.2078 13.149 23.3753Z" fill="url(#paint1_linear_8461_57639)"/>
<path fill-rule="evenodd" clip-rule="evenodd" d="M14.9055 2.43005L22.3855 9.831C22.3953 9.8403 22.4053 9.85001 22.4145 9.85985C23.4137 10.8667 23.5544 12.4077 22.8377 13.5654C22.4908 14.1257 22.0215 14.5881 21.489 14.9769C18.7241 16.997 15.3627 17.8544 12.0919 17.5472C11.8661 17.5261 11.712 17.503 11.4741 17.5107C10.7166 17.5349 9.96598 17.8286 9.39102 18.3975C8.26661 19.51 8.19843 21.2874 9.18635 22.4807L8.22019 21.5212C5.55594 18.7996 5.44496 14.856 7.33272 12.0728L10.0727 14.7838C10.8947 15.597 12.2405 15.5973 13.0628 14.7838L13.7757 14.0783L14.4187 13.442L14.7025 13.1613C15.1025 12.7657 15.4581 12.3377 15.7529 11.8863C15.7591 11.8767 15.7654 11.867 15.7717 11.8574C15.7845 11.825 15.8035 11.7949 15.8235 11.7604C17.5095 8.84782 17.0514 4.89021 14.9369 2.46461C14.9267 2.45283 14.9164 2.44146 14.9055 2.43005Z" fill="url(#paint2_linear_8461_57639)"/>
<path fill-rule="evenodd" clip-rule="evenodd" d="M8.26525 21.5696L0.89032 14.1771C0.880712 14.1678 0.870865 14.1582 0.861778 14.1483C-0.125206 13.1408 -0.264198 11.5987 0.443738 10.4403C0.786326 9.87958 1.24991 9.41685 1.77579 9.02788C4.50691 7.00635 7.82697 6.14839 11.0576 6.45587C11.2806 6.47701 11.4328 6.49997 11.6678 6.49239C12.416 6.46812 13.1574 6.17421 13.7253 5.60493C14.8359 4.49171 14.9032 2.71304 13.9275 1.51901L14.8685 2.46583L14.8941 2.49328C17.1922 4.99029 17.5502 8.63566 15.9679 11.4901C15.9363 11.5472 15.9039 11.6043 15.8704 11.6609L15.8579 11.6821C15.8154 11.7529 15.7732 11.8224 15.7286 11.8923L15.724 11.8995L13.052 9.2211C12.2399 8.40715 10.9108 8.40715 10.0987 9.2211L9.39451 9.92693L8.75928 10.5637L8.47252 10.8511C5.53985 13.7909 5.48824 18.4758 8.23514 21.536L8.26525 21.5696Z" fill="url(#paint3_linear_8461_57639)"/>
</g>
<path d="M32.3672 18.0563V9.22211H28.7305V6.07194H39.7418V9.22211H36.004V18.0563H32.3672Z" fill="white"/>
<path d="M44.1406 18.2275C43.164 18.2275 42.2941 18.022 41.5308 17.6111C40.7676 17.2003 40.1671 16.641 39.7293 15.9333C39.2915 15.2143 39.0727 14.3925 39.0727 13.468C39.0727 12.5435 39.2915 11.7274 39.7293 11.0198C40.1671 10.3007 40.7676 9.73573 41.5308 9.32484C42.2941 8.91395 43.164 8.7085 44.1406 8.7085C45.1171 8.7085 45.9814 8.91395 46.7334 9.32484C47.4967 9.73573 48.0916 10.3007 48.5181 11.0198C48.9559 11.7274 49.1748 12.5435 49.1748 13.468C49.1748 14.3925 48.9559 15.2143 48.5181 15.9333C48.0916 16.641 47.4967 17.2003 46.7334 17.6111C45.9814 18.022 45.1171 18.2275 44.1406 18.2275ZM44.1406 15.317C44.4436 15.317 44.713 15.2371 44.9487 15.0773C45.1957 14.9175 45.3865 14.7007 45.5212 14.4267C45.6559 14.1414 45.7232 13.8218 45.7232 13.468C45.7232 13.1028 45.6559 12.7832 45.5212 12.5092C45.3865 12.2239 45.1957 12.0013 44.9487 11.8415C44.713 11.6818 44.4436 11.6019 44.1406 11.6019C43.8263 11.6019 43.5457 11.6818 43.2987 11.8415C43.063 12.0013 42.8722 12.2239 42.7263 12.5092C42.5916 12.7832 42.5242 13.1028 42.5242 13.468C42.5242 13.8218 42.5916 14.1414 42.7263 14.4267C42.8722 14.7007 43.063 14.9175 43.2987 15.0773C43.5457 15.2371 43.8263 15.317 44.1406 15.317Z" fill="white"/>
<path d="M50.8611 18.0563V8.89682H54.0264L54.1948 10.7458L53.4708 10.9513C53.5943 10.5176 53.8132 10.1352 54.1275 9.80421C54.453 9.4618 54.8402 9.19358 55.2892 8.99955C55.7382 8.80552 56.2152 8.7085 56.7203 8.7085C57.3938 8.7085 57.9663 8.85117 58.4377 9.13651C58.9091 9.42185 59.2627 9.84416 59.4984 10.4034C59.7454 10.9513 59.8688 11.619 59.8688 12.4065V18.0563H56.4509V12.6976C56.4509 12.4465 56.4117 12.2353 56.3331 12.0641C56.2545 11.8929 56.1367 11.7617 55.9795 11.6703C55.8224 11.579 55.6372 11.5334 55.4239 11.5334C55.2555 11.5334 55.0984 11.5619 54.9525 11.619C54.8178 11.6646 54.6999 11.7388 54.5989 11.8415C54.4979 11.9443 54.4193 12.0584 54.3632 12.184C54.3071 12.3095 54.279 12.4522 54.279 12.612V18.0563H52.5785C52.1519 18.0563 51.7927 18.0563 51.5009 18.0563C51.2203 18.0563 51.007 18.0563 50.8611 18.0563Z" fill="white"/>
<path d="M62.1088 18.0563V8.89682H65.5267V18.0563H62.1088ZM63.8262 7.23614C63.22 7.23614 62.743 7.09347 62.395 6.80813C62.0583 6.52278 61.8899 6.1176 61.8899 5.59257C61.8899 5.1132 62.0639 4.71943 62.4119 4.41126C62.7598 4.10309 63.2313 3.94901 63.8262 3.94901C64.4323 3.94901 64.9037 4.09168 65.2405 4.37702C65.5884 4.66236 65.7624 5.06754 65.7624 5.59257C65.7624 6.07194 65.5884 6.46572 65.2405 6.77388C64.8925 7.08205 64.4211 7.23614 63.8262 7.23614Z" fill="white"/>
<path d="M72.0023 18.2275C71.0931 18.2275 70.2793 18.022 69.561 17.6111C68.8538 17.2003 68.2926 16.641 67.8773 15.9333C67.4732 15.2143 67.2711 14.3925 67.2711 13.468C67.2711 12.5435 67.4732 11.7274 67.8773 11.0198C68.2926 10.3007 68.8538 9.73573 69.561 9.32484C70.2793 8.91395 71.0931 8.7085 72.0023 8.7085C72.8105 8.7085 73.5569 8.83405 74.2416 9.08515C74.9263 9.33625 75.4819 9.70149 75.9085 10.1809L74.0564 12.4065C73.9329 12.2696 73.787 12.144 73.6186 12.0299C73.4503 11.9157 73.2595 11.8301 73.0462 11.7731C72.8329 11.7046 72.586 11.6703 72.3054 11.6703C71.9686 11.6703 71.6712 11.7445 71.413 11.8929C71.1661 12.0413 70.9753 12.2524 70.8406 12.5264C70.7059 12.7889 70.6385 13.097 70.6385 13.4509C70.6385 13.7933 70.7003 14.1015 70.8237 14.3754C70.9584 14.6379 71.1492 14.849 71.3962 15.0088C71.6543 15.1686 71.9574 15.2485 72.3054 15.2485C72.586 15.2485 72.8329 15.22 73.0462 15.1629C73.2595 15.1059 73.4503 15.026 73.6186 14.9232C73.787 14.8091 73.9329 14.6778 74.0564 14.5295L75.8916 16.7722C75.4763 17.2402 74.9263 17.5997 74.2416 17.8508C73.5569 18.1019 72.8105 18.2275 72.0023 18.2275Z" fill="white"/>
<path d="M32.3672 18.0563V9.22211H28.7305V6.07194H39.7418V9.22211H36.004V18.0563H32.3672Z" fill="white"/>
<path d="M44.1406 18.2275C43.164 18.2275 42.2941 18.022 41.5308 17.6111C40.7676 17.2003 40.1671 16.641 39.7293 15.9333C39.2915 15.2143 39.0727 14.3925 39.0727 13.468C39.0727 12.5435 39.2915 11.7274 39.7293 11.0198C40.1671 10.3007 40.7676 9.73573 41.5308 9.32484C42.2941 8.91395 43.164 8.7085 44.1406 8.7085C45.1171 8.7085 45.9814 8.91395 46.7334 9.32484C47.4967 9.73573 48.0916 10.3007 48.5181 11.0198C48.9559 11.7274 49.1748 12.5435 49.1748 13.468C49.1748 14.3925 48.9559 15.2143 48.5181 15.9333C48.0916 16.641 47.4967 17.2003 46.7334 17.6111C45.9814 18.022 45.1171 18.2275 44.1406 18.2275ZM44.1406 15.317C44.4436 15.317 44.713 15.2371 44.9487 15.0773C45.1957 14.9175 45.3865 14.7007 45.5212 14.4267C45.6559 14.1414 45.7232 13.8218 45.7232 13.468C45.7232 13.1028 45.6559 12.7832 45.5212 12.5092C45.3865 12.2239 45.1957 12.0013 44.9487 11.8415C44.713 11.6818 44.4436 11.6019 44.1406 11.6019C43.8263 11.6019 43.5457 11.6818 43.2987 11.8415C43.063 12.0013 42.8722 12.2239 42.7263 12.5092C42.5916 12.7832 42.5242 13.1028 42.5242 13.468C42.5242 13.8218 42.5916 14.1414 42.7263 14.4267C42.8722 14.7007 43.063 14.9175 43.2987 15.0773C43.5457 15.2371 43.8263 15.317 44.1406 15.317Z" fill="white"/>
<path d="M50.8611 18.0563V8.89682H54.0264L54.1948 10.7458L53.4708 10.9513C53.5943 10.5176 53.8132 10.1352 54.1275 9.80421C54.453 9.4618 54.8402 9.19358 55.2892 8.99955C55.7382 8.80552 56.2152 8.7085 56.7203 8.7085C57.3938 8.7085 57.9663 8.85117 58.4377 9.13651C58.9091 9.42185 59.2627 9.84416 59.4984 10.4034C59.7454 10.9513 59.8688 11.619 59.8688 12.4065V18.0563H56.4509V12.6976C56.4509 12.4465 56.4117 12.2353 56.3331 12.0641C56.2545 11.8929 56.1367 11.7617 55.9795 11.6703C55.8224 11.579 55.6372 11.5334 55.4239 11.5334C55.2555 11.5334 55.0984 11.5619 54.9525 11.619C54.8178 11.6646 54.6999 11.7388 54.5989 11.8415C54.4979 11.9443 54.4193 12.0584 54.3632 12.184C54.3071 12.3095 54.279 12.4522 54.279 12.612V18.0563H52.5785C52.1519 18.0563 51.7927 18.0563 51.5009 18.0563C51.2203 18.0563 51.007 18.0563 50.8611 18.0563Z" fill="white"/>
<path d="M62.1088 18.0563V8.89682H65.5267V18.0563H62.1088ZM63.8262 7.23614C63.22 7.23614 62.743 7.09347 62.395 6.80813C62.0583 6.52278 61.8899 6.1176 61.8899 5.59257C61.8899 5.1132 62.0639 4.71943 62.4119 4.41126C62.7598 4.10309 63.2313 3.94901 63.8262 3.94901C64.4323 3.94901 64.9037 4.09168 65.2405 4.37702C65.5884 4.66236 65.7624 5.06754 65.7624 5.59257C65.7624 6.07194 65.5884 6.46572 65.2405 6.77388C64.8925 7.08205 64.4211 7.23614 63.8262 7.23614Z" fill="white"/>
<path d="M72.0023 18.2275C71.0931 18.2275 70.2793 18.022 69.561 17.6111C68.8538 17.2003 68.2926 16.641 67.8773 15.9333C67.4732 15.2143 67.2711 14.3925 67.2711 13.468C67.2711 12.5435 67.4732 11.7274 67.8773 11.0198C68.2926 10.3007 68.8538 9.73573 69.561 9.32484C70.2793 8.91395 71.0931 8.7085 72.0023 8.7085C72.8105 8.7085 73.5569 8.83405 74.2416 9.08515C74.9263 9.33625 75.4819 9.70149 75.9085 10.1809L74.0564 12.4065C73.9329 12.2696 73.787 12.144 73.6186 12.0299C73.4503 11.9157 73.2595 11.8301 73.0462 11.7731C72.8329 11.7046 72.586 11.6703 72.3054 11.6703C71.9686 11.6703 71.6712 11.7445 71.413 11.8929C71.1661 12.0413 70.9753 12.2524 70.8406 12.5264C70.7059 12.7889 70.6385 13.097 70.6385 13.4509C70.6385 13.7933 70.7003 14.1015 70.8237 14.3754C70.9584 14.6379 71.1492 14.849 71.3962 15.0088C71.6543 15.1686 71.9574 15.2485 72.3054 15.2485C72.586 15.2485 72.8329 15.22 73.0462 15.1629C73.2595 15.1059 73.4503 15.026 73.6186 14.9232C73.787 14.8091 73.9329 14.6778 74.0564 14.5295L75.8916 16.7722C75.4763 17.2402 74.9263 17.5997 74.2416 17.8508C73.5569 18.1019 72.8105 18.2275 72.0023 18.2275Z" fill="white"/>
<defs>
<linearGradient id="paint0_linear_8461_57639" x1="12.8799" y1="6.92904" x2="10.486" y2="0.345833" gradientUnits="userSpaceOnUse">
<stop stop-color="#4519BF"/>
<stop offset="1" stop-color="#E93FFC"/>
</linearGradient>
<linearGradient id="paint1_linear_8461_57639" x1="12.7988" y1="23.7164" x2="10.4664" y2="17.3024" gradientUnits="userSpaceOnUse">
<stop stop-color="#E93FFC"/>
<stop offset="1" stop-color="#4519BF"/>
</linearGradient>
<linearGradient id="paint2_linear_8461_57639" x1="0.35159" y1="14.5998" x2="22.8606" y2="10.3832" gradientUnits="userSpaceOnUse">
<stop stop-color="#4519BF"/>
<stop offset="1" stop-color="#E93FFC"/>
</linearGradient>
<linearGradient id="paint3_linear_8461_57639" x1="0.368901" y1="13.5372" x2="22.6031" y2="9.42599" gradientUnits="userSpaceOnUse">
<stop stop-color="#E93FFC"/>
<stop offset="1" stop-color="#4519BF"/>
</linearGradient>
<clipPath id="clip0_8461_57639">
<rect width="23.2866" height="24" fill="white"/>
</clipPath>
</defs>
</svg>
