<svg width="21" height="24" fill="none" xmlns="http://www.w3.org/2000/svg"><g clip-path="url('#clip0_7031_43983')"><path d="M19.538 8.182c-.138.108-2.566 1.492-2.566 4.572 0 3.561 3.09 4.821 3.182 4.852-.014.077-.49 1.726-1.629 3.406-1.015 1.478-2.075 2.954-3.688 2.954-1.612 0-2.027-.948-3.889-.948-1.814 0-2.46.98-3.934.98-1.475 0-2.505-1.368-3.688-3.048-1.37-1.973-2.478-5.038-2.478-7.947 0-4.665 2.997-7.14 5.947-7.14 1.568 0 2.875 1.042 3.859 1.042.937 0 2.398-1.104 4.181-1.104.676 0 3.104.062 4.703 2.38Zm-5.55-4.356c.738-.886 1.26-2.115 1.26-3.344 0-.17-.015-.343-.045-.482-1.2.046-2.628.809-3.489 1.82-.676.777-1.307 2.006-1.307 3.251 0 .187.031.375.045.435.076.014.2.03.323.03 1.077 0 2.43-.729 3.213-1.71Z" fill="#2C3034"/></g><defs><clipPath id="clip0_7031_43983"><path fill="#fff" transform="translate(.848)" d="M0 0h19.304v24H0z"/></clipPath></defs></svg>