<svg width="21" height="24" viewBox="0 0 21 24" fill="none" xmlns="http://www.w3.org/2000/svg">
    <g clip-path="url('#clip0_7031_43983')">
        <path d="M19.5378 8.1816C19.4002 8.2896 16.9718 9.6744 16.9718 12.7536C16.9718 16.3152 20.0619 17.5752 20.1544 17.6064C20.1401 17.6832 19.6635 19.332 18.5251 21.012C17.5101 22.4904 16.45 23.9664 14.8374 23.9664C13.2247 23.9664 12.8097 23.0184 10.9481 23.0184C9.13382 23.0184 8.48876 23.9976 7.01366 23.9976C5.53857 23.9976 4.50932 22.6296 3.32592 20.9496C1.95517 18.9768 0.847656 15.912 0.847656 13.0032C0.847656 8.3376 3.84529 5.8632 6.79548 5.8632C8.36307 5.8632 9.66979 6.9048 10.654 6.9048C11.5907 6.9048 13.0516 5.8008 14.835 5.8008C15.5109 5.8008 17.9394 5.8632 19.5378 8.1816ZM13.9884 3.8256C14.7259 2.94 15.2477 1.7112 15.2477 0.4824C15.2477 0.312 15.2334 0.1392 15.2026 0C14.0026 0.0456 12.5749 0.8088 11.7141 1.8192C11.0382 2.5968 10.4073 3.8256 10.4073 5.0712C10.4073 5.2584 10.4382 5.4456 10.4524 5.5056C10.5283 5.52 10.6516 5.5368 10.7749 5.5368C11.8516 5.5368 13.2058 4.8072 13.9884 3.8256Z" fill="#2C3034"></path>
    </g>
    <defs>
        <clipPath id="clip0_7031_43983">
            <rect width="19.3043" height="24" fill="white" transform="translate(0.847656)"></rect>
        </clipPath>
    </defs>
</svg>
