<svg width="178" height="180" fill="none" xmlns="http://www.w3.org/2000/svg"><g clip-path="url('#clip0_7031_43991')"><path d="M107.033 52.547a41.27 41.27 0 0 0-4.113-1.716M119.284 61.565a41.414 41.414 0 0 0-3.22-3.091M127.455 74.413a41.59 41.59 0 0 0-1.89-4.048" stroke="#2C3034" stroke-width="5.482" stroke-miterlimit="10" stroke-linecap="round"/><path d="M130.459 89.355a41.547 41.547 0 0 0-.304-4.46M127.875 104.375c.518-1.397.96-2.821 1.324-4.267" stroke="#2C3034" stroke-opacity=".3" stroke-width="5.482" stroke-miterlimit="10" stroke-linecap="round"/><path d="M120.059 117.445a41.673 41.673 0 0 0 2.771-3.496" stroke="#2C3034" stroke-width="5.482" stroke-miterlimit="10" stroke-linecap="round"/><path d="M108.059 126.797a41.519 41.519 0 0 0 3.843-2.255" stroke="#2C3034" stroke-opacity=".3" stroke-width="5.482" stroke-miterlimit="10" stroke-linecap="round"/><path d="M64.667 123.376a41.373 41.373 0 0 0 15.862 7.125 41.271 41.271 0 0 0 17.375-.03M54.279 112.252a41.584 41.584 0 0 0 2.599 3.632" stroke="#2C3034" stroke-width="5.482" stroke-miterlimit="10" stroke-linecap="round"/><path d="M48.589 98.117a41.64 41.64 0 0 0 1.117 4.328" stroke="#2C3034" stroke-opacity=".3" stroke-width="5.482" stroke-miterlimit="10" stroke-linecap="round"/><path d="M53.68 68.587a41.484 41.484 0 0 0-5.81 18.724" stroke="#2C3034" stroke-width="5.482" stroke-miterlimit="10" stroke-linecap="round"/><path d="M77.252 50.205a41.267 41.267 0 0 0-16.87 9.897" stroke="#2C3034" stroke-opacity=".3" stroke-width="5.482" stroke-miterlimit="10" stroke-linecap="round"/><path d="M92.367 48.581a41.25 41.25 0 0 0-4.453-.112M102.7 39.278a52.188 52.188 0 0 0-3.96-.904" stroke="#2C3034" stroke-width="5.482" stroke-miterlimit="10" stroke-linecap="round"/><path d="M126.955 53.73a52.336 52.336 0 0 0-14.713-10.841" stroke="#2C3034" stroke-opacity=".3" stroke-width="5.482" stroke-miterlimit="10" stroke-linecap="round"/><path d="M141.321 92.965a52.582 52.582 0 0 0-8.086-31.173" stroke="#2C3034" stroke-width="5.482" stroke-miterlimit="10" stroke-linecap="round"/><path d="M138.574 106.982c.44-1.284.831-2.586 1.17-3.901M110.453 137.82a52.297 52.297 0 0 0 23.871-21.521" stroke="#2C3034" stroke-opacity=".3" stroke-width="5.482" stroke-miterlimit="10" stroke-linecap="round"/><path d="M96.79 141.822a52.042 52.042 0 0 0 3.991-.751" stroke="#2C3034" stroke-width="5.482" stroke-miterlimit="10" stroke-linecap="round"/><path d="M68.801 138.263a52.209 52.209 0 0 0 17.797 4.065" stroke="#2C3034" stroke-opacity=".3" stroke-width="5.482" stroke-miterlimit="10" stroke-linecap="round"/><path d="M56.55 130.97a52.359 52.359 0 0 0 3.275 2.412M46.73 120.63a52.798 52.798 0 0 0 2.505 3.209" stroke="#2C3034" stroke-width="5.482" stroke-miterlimit="10" stroke-linecap="round"/><path d="M40.048 108.017a52.372 52.372 0 0 0 1.549 3.768" stroke="#2C3034" stroke-opacity=".3" stroke-width="5.482" stroke-miterlimit="10" stroke-linecap="round"/><path d="M37.01 94.06c.107 1.355.266 2.705.478 4.048" stroke="#2C3034" stroke-width="5.482" stroke-miterlimit="10" stroke-linecap="round"/><path d="M42.456 66.293a52.52 52.52 0 0 0-5.257 17.533M50.544 54.536a52.35 52.35 0 0 0-2.622 3.11" stroke="#2C3034" stroke-opacity=".3" stroke-width="5.482" stroke-miterlimit="10" stroke-linecap="round"/><path d="M61.495 45.403a52.249 52.249 0 0 0-3.362 2.285" stroke="#2C3034" stroke-width="5.482" stroke-miterlimit="10" stroke-linecap="round"/><path d="M74.497 39.577c-1.3.38-2.586.81-3.853 1.29" stroke="#2C3034" stroke-opacity=".3" stroke-width="5.482" stroke-miterlimit="10" stroke-linecap="round"/><path d="M88.572 37.48c-1.354.014-2.707.08-4.056.2M119.63 34.366a63.003 63.003 0 0 0-3.784-1.927" stroke="#2C3034" stroke-width="5.482" stroke-miterlimit="10" stroke-linecap="round"/><path d="M141.873 54.958a63.464 63.464 0 0 0-13.102-14.428" stroke="#2C3034" stroke-opacity=".3" stroke-width="5.482" stroke-miterlimit="10" stroke-linecap="round"/><path d="M147.798 113.617a63.497 63.497 0 0 0 4.55-24.53 63.606 63.606 0 0 0-5.246-24.408" stroke="#2C3034" stroke-width="5.482" stroke-miterlimit="10" stroke-linecap="round"/><path d="M130.086 138.244a63.23 63.23 0 0 0 12.698-14.765M117.379 146.682a62.73 62.73 0 0 0 3.73-2.026" stroke="#2C3034" stroke-opacity=".3" stroke-width="5.482" stroke-miterlimit="10" stroke-linecap="round"/><path d="M87.852 153.346a63.03 63.03 0 0 0 19.269-2.594" stroke="#2C3034" stroke-width="5.482" stroke-miterlimit="10" stroke-linecap="round"/><path d="M46.256 136.554A63.291 63.291 0 0 0 76.9 152.167" stroke="#2C3034" stroke-opacity=".3" stroke-width="5.482" stroke-miterlimit="10" stroke-linecap="round"/><path d="M36.385 124.909a63.564 63.564 0 0 0 2.46 3.471M29.569 111.224a63.547 63.547 0 0 0 1.561 3.96" stroke="#2C3034" stroke-width="5.482" stroke-miterlimit="10" stroke-linecap="round"/><path d="M26.527 81.022a63.586 63.586 0 0 0 .277 19.508" stroke="#2C3034" stroke-opacity=".3" stroke-width="5.482" stroke-miterlimit="10" stroke-linecap="round"/><path d="M30.477 66.25a63.456 63.456 0 0 0-1.451 4" stroke="#2C3034" stroke-width="5.482" stroke-miterlimit="10" stroke-linecap="round"/><path d="M48.163 41.62a63.238 63.238 0 0 0-12.698 14.765M105.489 28.68a63.097 63.097 0 0 0-24.83-1.61 63.03 63.03 0 0 0-23.51 8.115" stroke="#2C3034" stroke-opacity=".3" stroke-width="5.482" stroke-miterlimit="10" stroke-linecap="round"/><path d="M162.702 99.358a74.634 74.634 0 0 0-12.105-51.013M141.992 142.102a74.33 74.33 0 0 0 18.525-32.059" stroke="#2C3034" stroke-width="5.482" stroke-miterlimit="10" stroke-linecap="round"/><path d="M129.582 152.287a74.15 74.15 0 0 0 4.251-2.991" stroke="#2C3034" stroke-opacity=".3" stroke-width="5.482" stroke-miterlimit="10" stroke-linecap="round"/><path d="M99.742 163.564a73.893 73.893 0 0 0 20.323-6.002M67.94 161.232a73.986 73.986 0 0 0 20.966 3.113" stroke="#2C3034" stroke-width="5.482" stroke-miterlimit="10" stroke-linecap="round"/><path d="M29.24 133.837a74.371 74.371 0 0 0 28.551 23.532M30.903 43.791a74.41 74.41 0 0 0-15.64 39.284 74.656 74.656 0 0 0 8.263 41.516M42.177 32.319a74.097 74.097 0 0 0-3.904 3.435M70.626 17.874a73.95 73.95 0 0 0-19.556 8.173" stroke="#2C3034" stroke-opacity=".3" stroke-width="5.482" stroke-miterlimit="10" stroke-linecap="round"/><path d="M86.497 15.563c-1.73.06-3.459.181-5.181.363M143.91 39.778a74.214 74.214 0 0 0-46.563-23.81" stroke="#2C3034" stroke-width="5.482" stroke-miterlimit="10" stroke-linecap="round"/><path d="M128.306 14.12a85.07 85.07 0 0 0-5.243-2.502M141.896 22.935a85.4 85.4 0 0 0-4.678-3.453M162.938 47.41a85.527 85.527 0 0 0-13.31-17.525" stroke="#2C3034" stroke-opacity=".3" stroke-width="5.482" stroke-miterlimit="10" stroke-linecap="round"/><path d="M169.618 62.192a85.846 85.846 0 0 0-2.077-5.441" stroke="#2C3034" stroke-width="5.482" stroke-miterlimit="10" stroke-linecap="round"/><path d="M174.132 94.194a85.588 85.588 0 0 0-1.758-21.953" stroke="#2C3034" stroke-opacity=".3" stroke-width="5.482" stroke-miterlimit="10" stroke-linecap="round"/><path d="M166.452 125.584a85.367 85.367 0 0 0 6.512-21.029" stroke="#2C3034" stroke-width="5.482" stroke-miterlimit="10" stroke-linecap="round"/><path d="M134.965 161.859a85.063 85.063 0 0 0 26.581-27.073M120.57 169.273a83.95 83.95 0 0 0 5.319-2.33M88.926 175.307a84.888 84.888 0 0 0 21.772-2.768" stroke="#2C3034" stroke-opacity=".3" stroke-width="5.482" stroke-miterlimit="10" stroke-linecap="round"/><path d="M72.82 173.734c1.9.374 3.812.682 5.733.924M57.31 169.125a85.258 85.258 0 0 0 5.455 1.993" stroke="#2C3034" stroke-width="5.482" stroke-miterlimit="10" stroke-linecap="round"/><path d="M30.247 151.586a85.284 85.284 0 0 0 17.684 13.057M19.684 139.294a85.907 85.907 0 0 0 3.52 4.635" stroke="#2C3034" stroke-opacity=".3" stroke-width="5.482" stroke-miterlimit="10" stroke-linecap="round"/><path d="M11.625 125.214a85.76 85.76 0 0 0 2.584 5.219" stroke="#2C3034" stroke-width="5.482" stroke-miterlimit="10" stroke-linecap="round"/><path d="M4.897 77.577a85.614 85.614 0 0 0 3.037 37.901M8.768 61.808a85.405 85.405 0 0 0-1.723 5.562" stroke="#2C3034" stroke-opacity=".3" stroke-width="5.482" stroke-miterlimit="10" stroke-linecap="round"/><path d="M24.94 33.86A85.221 85.221 0 0 0 12.78 52.189" stroke="#2C3034" stroke-width="5.482" stroke-miterlimit="10" stroke-linecap="round"/><path d="M36.678 22.686a84.982 84.982 0 0 0-4.447 3.74" stroke="#2C3034" stroke-opacity=".3" stroke-width="5.482" stroke-miterlimit="10" stroke-linecap="round"/><path d="M50.307 13.943a84.866 84.866 0 0 0-5.073 2.827M113.3 8.08a84.9 84.9 0 0 0-53.468 1.656" stroke="#2C3034" stroke-width="5.482" stroke-miterlimit="10" stroke-linecap="round"/><path d="M89.119 82.912c-3.894 0-7.017 3.134-7.017 7.064a7.006 7.006 0 0 0 7.017 7.04 7.006 7.006 0 0 0 7.017-7.04c0-3.953-3.124-7.064-7.017-7.064Zm0 11.742a4.669 4.669 0 0 1-4.663-4.678c0-2.62 2.075-4.701 4.663-4.701 2.587 0 4.662 2.081 4.662 4.701a4.654 4.654 0 0 1-4.662 4.678ZM98.721 83.428c-.956 0-1.748.818-1.748 1.73 0 .983.792 1.731 1.748 1.731.933-.023 1.725-.771 1.725-1.73 0-.936-.792-1.731-1.725-1.731Z" fill="#2C3034"/><path d="M89.144 64.95s-.024 0 0 0c-13.778 0-24.921 11.18-24.921 24.98 0 13.801 11.143 24.981 24.897 24.981 13.755 0 24.898-11.18 24.898-24.98 0-13.778-11.143-24.958-24.874-24.982Zm16.062 31.904c0 2.783-1.492 4.257-4.29 4.257H77.301c-2.82 0-4.29-1.474-4.29-4.257V83.147c0-2.784 1.47-4.257 4.29-4.257h3.403c1.026 0 1.353-.187 1.982-.842l1.026-1.1c.676-.725 1.375-1.075 2.704-1.075h5.339c1.328 0 2.028.35 2.704 1.075l1.026 1.1c.63.655.955.842 1.981.842h3.45c2.821 0 4.29 1.474 4.29 4.257v13.707Z" fill="#2C3034"/></g><defs><clipPath id="clip0_7031_43991"><path fill="#fff" d="M0 0h178v180H0z"/></clipPath></defs></svg>