<svg width="37" height="37" viewBox="0 0 37 37" fill="none" xmlns="http://www.w3.org/2000/svg">
    <path fill-rule="evenodd" clip-rule="evenodd" d="M18.5 37C28.7173 37 37 28.7173 37 18.5C37 8.28273 28.7173 0 18.5 0C8.28273 0 0 8.28273 0 18.5C0 28.7173 8.28273 37 18.5 37ZM10.4054 24.2812C9.76684 24.9198 9.76684 25.9552 10.4054 26.5937C11.044 27.2323 12.0793 27.2323 12.7179 26.5937L18.4992 20.8125L24.2804 26.5937C24.919 27.2323 25.9543 27.2323 26.5929 26.5937C27.2315 25.9552 27.2315 24.9198 26.5929 24.2812L20.8117 18.5L26.5929 12.7188C27.2315 12.0802 27.2315 11.0448 26.5929 10.4063C25.9543 9.76767 24.919 9.76767 24.2804 10.4063L18.4992 16.1875L12.7179 10.4063C12.0793 9.76768 11.044 9.76768 10.4054 10.4063C9.76685 11.0448 9.76684 12.0802 10.4054 12.7188L16.1867 18.5L10.4054 24.2812Z" fill="#D63E3E"></path>
</svg>
