<svg width="140" height="33" fill="none" xmlns="http://www.w3.org/2000/svg"><g clip-path="url('#clip0_7031_44113')" fill="#0000BA"><path d="m49.268 32.716-.561-2.03c-.172.146-.36.285-.56.415-1.84 1.266-4.4 1.899-7.677 1.899-3.105 0-5.578-.568-7.418-1.702-1.84-1.135-2.76-3.222-2.76-6.262 0-2.85.934-4.873 2.803-6.066 1.883-1.192 4.802-1.788 8.755-1.788h6.361v-.786c0-1.702-.445-2.916-1.337-3.644-.89-.742-2.084-1.112-3.58-1.112-1.35 0-2.5.327-3.45.981-.948.655-1.537 1.695-1.768 3.12l-7.245-2.05c.431-2.371 1.71-4.146 3.838-5.324C36.812 7.189 39.571 6.6 42.95 6.6c4.889 0 8.23 1.025 10.028 3.076 1.797 2.05 2.695 4.967 2.695 8.75v14.29h-6.404Zm-1.057-7.702V21.61h-4.808c-2.128 0-3.587.27-4.378.808-.776.538-1.164 1.374-1.164 2.509 0 1.12.352 1.963 1.057 2.53.704.553 1.832.83 3.385.83 1.71 0 3.12-.327 4.226-.982 1.122-.654 1.682-1.418 1.682-2.29ZM75.298 19.777c0-3.281-.365-5.422-1.096-6.423-.716-1.015-1.719-1.523-3.008-1.523-1.49 0-2.678.537-3.567 1.611-.745.913-1.174 1.928-1.289 3.047v16.51h-7.391V6.82h7.069l.15 2.517a2.63 2.63 0 0 1 .215-.199c1.934-1.692 4.47-2.538 7.606-2.538 3.395 0 5.695 1.074 6.898 3.222 1.203 2.134 1.804 5.453 1.804 9.956H75.3ZM104.94 32.716l-.56-2.03c-.173.146-.36.285-.561.415-1.84 1.266-4.4 1.899-7.677 1.899-3.105 0-5.578-.568-7.417-1.702-1.84-1.135-2.76-3.222-2.76-6.262 0-2.85.934-4.873 2.803-6.066 1.883-1.192 4.801-1.788 8.754-1.788h6.362v-.786c0-1.702-.446-2.916-1.337-3.644-.892-.742-2.085-1.112-3.58-1.112-1.351 0-2.501.327-3.45.981-.949.655-1.538 1.695-1.768 3.12l-7.245-2.05c.43-2.371 1.71-4.146 3.838-5.324 2.142-1.178 4.902-1.767 8.28-1.767 4.888 0 8.23 1.025 10.027 3.076 1.797 2.05 2.695 4.967 2.695 8.75v14.29h-6.404Zm-1.056-7.702V21.61h-4.809c-2.128 0-3.587.27-4.377.808-.777.538-1.165 1.374-1.165 2.509 0 1.12.352 1.963 1.057 2.53.704.553 1.832.83 3.385.83 1.711 0 3.12-.327 4.226-.982 1.122-.654 1.683-1.418 1.683-2.29ZM127.592 33c-3.5 0-6.371-.526-8.612-1.578-2.242-1.066-3.695-2.826-4.36-5.28l6.551-2.41c.289 1.548 1.012 2.651 2.169 3.308 1.171.643 2.545.964 4.122.964 1.648 0 2.921-.226 3.817-.679.897-.453 1.345-1.102 1.345-1.95 0-1.066-.542-1.76-1.627-2.08-1.07-.337-2.827-.687-5.271-1.053-3.948-.525-6.754-1.321-8.417-2.388-1.663-1.066-2.494-2.913-2.494-5.542 0-2.688 1.143-4.645 3.427-5.872 2.3-1.227 5.337-1.84 9.111-1.84 3.659 0 6.465.525 8.417 1.577 1.966 1.037 3.246 2.724 3.839 5.061l-6.312 2.366c-.304-1.402-.977-2.424-2.018-3.067-1.026-.657-2.379-.986-4.056-.986-1.591 0-2.835.248-3.731.745-.882.497-1.323 1.14-1.323 1.928 0 1.022.571 1.672 1.713 1.95 1.157.277 2.9.584 5.228.92 3.789.496 6.551 1.293 8.287 2.388 1.735 1.08 2.603 2.907 2.603 5.477 0 2.907-1.121 4.973-3.363 6.2-2.227 1.227-5.242 1.84-9.045 1.84Z"/><path fill-rule="evenodd" clip-rule="evenodd" d="M4.289 33 0 0l18.119 3.3c.77.208 1.483.375 2.14.53 2.47.578 4.14.97 5.043 2.638 1.144 2.097 1.715 4.679 1.715 7.744 0 3.08-.571 5.669-1.715 7.766-1.143 2.097-3.538 3.146-7.183 3.146h-7.475L11.96 33h-7.67ZM7.767 6.82l8.659 1.763c.415.11.8.2 1.155.282 1.332.31 2.234.519 2.721 1.41.617 1.12.926 2.499.926 4.136 0 1.646-.309 3.028-.926 4.149-.617 1.12-1.91 1.68-3.876 1.68h-4.467l-2.07-.22-2.122-13.2Z"/><path fill-rule="evenodd" clip-rule="evenodd" d="M4.289 33 0 0l18.119 3.3c.77.208 1.483.375 2.14.53 2.47.578 4.14.97 5.043 2.638 1.144 2.097 1.715 4.679 1.715 7.744 0 3.08-.571 5.669-1.715 7.766-1.143 2.097-3.538 3.146-7.183 3.146h-7.475L11.96 33h-7.67ZM7.767 6.82l8.659 1.763c.415.11.8.2 1.155.282 1.332.31 2.234.519 2.721 1.41.617 1.12.926 2.499.926 4.136 0 1.646-.309 3.028-.926 4.149-.617 1.12-1.91 1.68-3.876 1.68h-4.467l-2.07-.22-2.122-13.2Z"/></g><defs><clipPath id="clip0_7031_44113"><path fill="#fff" d="M0 0h140v33H0z"/></clipPath></defs></svg>