<svg width="37" height="37" viewBox="0 0 37 37" fill="none" xmlns="http://www.w3.org/2000/svg">
    <path d="M18.5 0C8.28646 0 0 8.28646 0 18.5C0 28.7135 8.28646 37 18.5 37C28.7135 37 37 28.7135 37 18.5C37 8.28646 28.7135 0 18.5 0ZM28.0198 14.0292L17.151 24.9365C16.8042 25.2833 16.3031 25.5145 15.8019 25.5145C15.3008 25.5145 14.7999 25.3217 14.4529 24.9365L8.98021 19.4635C8.20944 18.6928 8.20944 17.498 8.98021 16.7269C9.75097 15.9562 10.9458 15.9562 11.7168 16.7269L15.8022 20.8123L25.3219 11.2925C26.0927 10.5217 27.2875 10.5217 28.0585 11.2925C28.7906 12.0635 28.7906 13.2583 28.0198 14.0292Z" fill="#71E767"></path>
</svg>
