<svg width="168" height="168" fill="none" xmlns="http://www.w3.org/2000/svg"><path fill-rule="evenodd" clip-rule="evenodd" d="m83.603 70.996 3.038-5.67 3.983 13.357-5.971-2.702-1.05-4.985Zm-21.488 5.938-3.089 5.575 9.445 4.624 13-.898-19.356-9.3Zm-1.722 10.512-3.07 5.544 18.858 9.369 31.426-1.909 3.07-5.544-31.426 1.909-18.858-9.37Z" fill="#2C3034"/><path d="m110.676 94.888-31.453 1.908-19.042-9.385 20.62-1.246-18.745-9.238 9.205-7.788 19.094 9.381-3.744-13.194 18.246 8.938 5.819 20.624Z" fill="#FDBF1C"/><path fill-rule="evenodd" clip-rule="evenodd" d="M10.163 0C4.55 0 0 4.55 0 10.163v20.363C0 36.14 4.55 40.69 10.163 40.69h20.166c5.613 0 10.163-4.55 10.163-10.163V10.163C40.492 4.55 35.942 0 30.329 0H10.163Zm1.27 3.815a7.622 7.622 0 0 0-7.622 7.622v17.816a7.622 7.622 0 0 0 7.622 7.622h17.626a7.622 7.622 0 0 0 7.622-7.622V11.437a7.622 7.622 0 0 0-7.622-7.622H11.433Zm.159 12.87a5.081 5.081 0 0 1 5.081-5.082h7.304a5.081 5.081 0 0 1 5.082 5.081v7.321a5.081 5.081 0 0 1-5.082 5.082h-7.304a5.081 5.081 0 0 1-5.081-5.082v-7.32ZM46.45 5.892c0-5.148.037-5.459.685-5.72.192-.077 7.702-.144 16.758-.15l16.411-.01.464.464c.838.839.638 4.974-.257 5.317-.141.054-3.714.099-7.94.099l-1.77-.002c-4.764-.008-6.323-.01-6.822.715-.243.354-.235.88-.223 1.661.003.185.006.384.006.598 0 2.66.093 2.75 2.864 2.75 2.891 0 3.012.12 3.012 3.013 0 2.827.043 2.866 3.083 2.866h.199c1.156 0 1.755-.001 2.072.297.34.322.356.99.387 2.374l.005.222.005.2c.03 1.326.044 1.983.38 2.309.332.32.973.32 2.246.32h.196c2.85 0 2.863-.012 2.863-2.56 0-3.119.009-3.128 3.15-3.198 2.67-.06 2.727-.118 2.727-2.891v-.11c0-1.306 0-1.968-.33-2.31-.34-.351-1.025-.367-2.414-.4l-.114-.002c-2.9-.067-2.906-.072-2.993-2.434a93.657 93.657 0 0 0-.021-.518c-.05-1.198-.08-1.903.253-2.317.474-.59 1.688-.589 4.634-.584l.892.001c.398 0 .77 0 1.116-.002 2.964-.006 4.127-.01 4.578.556.292.366.287.968.278 1.96-.001.179-.003.371-.003.577 0 .222-.003.425-.006.612-.011.767-.019 1.244.21 1.541.377.492 1.4.489 4.115.48.4-.002.835-.003 1.31-.003h4.995l.445.384.446.383v4.346l-.446.384-.445.383h-4.894c-4.71 0-4.909.012-5.311.33l-.419.329v7.783c0 .762.002 1.46.003 2.097v.005c.011 4.641.015 6.132-.674 6.596-.326.22-.807.208-1.515.192-.206-.005-.432-.01-.678-.01-2.907 0-3.013.109-3.013 3.107 0 2.762-.09 2.84-3.239 2.748a38.014 38.014 0 0 0-.536-.011c-.734-.012-1.202-.02-1.503-.248-.529-.4-.543-1.48-.581-4.456v-.003l-.017-1.233c-.075-4.889-.097-5.186-.388-5.4-.25-.183-1.237-.225-5.26-.225-.469 0-.9.002-1.297.003-2.757.009-3.82.012-4.235-.504-.26-.324-.265-.853-.274-1.712-.002-.197-.004-.412-.01-.645l-.004-.182c-.031-1.397-.047-2.087-.4-2.428-.345-.333-1.012-.333-2.33-.332h-.352c-1.318-.001-1.985-.001-2.33.332-.353.34-.368 1.03-.4 2.428l-.004.182-.004.14c-.031 1.366-.047 2.046-.395 2.384-.344.335-1.015.335-2.35.334h-.138c-1.805 0-2.067-.035-2.44-.33l-.419-.328V17.713c0-1.182.003-2.247.005-3.206v-.003c.016-6.181.02-7.976-.778-8.468-.327-.201-.788-.184-1.438-.16-.247.01-.52.02-.825.02-2.637-.004-2.682.038-2.682 2.527 0 3.088-.227 3.35-2.906 3.35l-.408.001c-.997.005-1.608.008-1.98-.288-.588-.467-.587-1.675-.583-4.786v-.807ZM104.264.942l.47-.47.471-.472 5.023.046 5.023.046.303.376c.474.584.469 10.345-.005 10.82-.467.467-.982.506-5.939.454l-4.58-.048-.383-.446-.383-.446V.942ZM75.747 17.104c-.771-.771-.537-4.994.296-5.33.975-.393 4.24-.183 4.726.305.86.86.652 4.816-.275 5.239-.835.38-4.31.224-4.747-.214Zm40.111-2.588c0-2.117.065-2.363.715-2.718.783-.429 4.192-.225 4.697.28l.464.465V28.166l-.464.465-.464.464h-2.261c-1.296 0-1.944-.001-2.277.323-.333.325-.348.976-.378 2.28v.001l-.004.203-.006.227c-.03 1.36-.046 2.033-.39 2.365-.335.324-.985.323-2.269.322H112.881c-1.428 0-2.112 0-2.44-.34-.301-.315-.301-.92-.301-2.079v-.106c0-3.1-.085-3.196-2.841-3.196-2.908 0-3.035-.124-3.035-2.955 0-2.875.05-2.925 2.961-2.925 2.84 0 2.915-.082 2.915-3.202v-.05c0-1.235 0-1.852.309-2.16.308-.309.925-.309 2.159-.309h.05c3.128 0 3.2-.067 3.2-2.979ZM46.451 18.23l.345-.368c.377-.402 4.224-.569 4.89-.212.563.301.641 1.018.641 5.872 0 .476-.001.911-.003 1.308-.01 2.516-.014 3.491.46 3.873.301.242.794.246 1.598.252.2.002.42.004.66.009 3.003.07 3.003.07 3.003 2.98v.069c0 1.419 0 2.12-.35 2.466-.342.337-1.018.337-2.353.337H55.1c-1.376 0-2.06 0-2.407.341-.344.338-.359 1.01-.39 2.345l-.003.173-.002.058c-.035 1.5-.051 2.213-.417 2.564-.332.32-.954.338-2.14.372l-.051.002c-.336.01-.638.03-.908.048-.715.048-1.214.082-1.56-.131-.8-.491-.795-2.292-.777-8.243.003-.977.006-2.066.006-3.28V18.23Zm11.594 17.245.419-.33c.375-.295.634-.329 2.513-.329h.19c1.252 0 1.892 0 2.225.318.347.332.362 1.01.394 2.396l.005.201.005.22c.029 1.288.044 1.935.375 2.26.334.328.99.328 2.308.327h.445c1.317 0 1.973.001 2.307-.327.332-.325.346-.972.376-2.26l.005-.22.004-.201c.032-1.385.047-2.064.394-2.396.334-.319.973-.318 2.225-.318h.19c1.88 0 2.138.034 2.514.33l.418.33V45.758l-.418.33c-.656.515-15.82.515-16.475 0l-.419-.33V35.475Zm35.088 4.757c-.804-.806-.642-4.967.208-5.31.77-.31 4.437-.093 4.815.285.45.45.599 4.33.186 4.868-.64.834-4.418.948-5.209.157Zm11.158-2.649c.049-2.047.072-2.176.427-2.463.327-.265.645-.304 2.509-.304h.04c1.444 0 2.163 0 2.52.36.353.355.353 1.061.353 2.466v2.125l-.464.465c-.464.464-.465.464-2.474.464h-2.01l-.476-.477-.477-.476.052-2.16Zm11.567.065c0-1.966.016-2.068.39-2.442.629-.629 4.512-.6 5.103.038l.396.427-.046 5.07-.046 5.07-.375.303c-.351.285-.69.303-5.39.303-.479 0-.918.002-1.321.003-2.738.01-3.797.013-4.2-.499-.254-.323-.246-.852-.235-1.715.003-.201.006-.42.006-.66v-.263c-.001-1.339-.002-2.002.33-2.339.325-.33.972-.345 2.255-.373l.258-.006.158-.003c1.363-.031 2.043-.047 2.381-.395.337-.345.336-1.019.336-2.362v-.157Zm-28.907 8.77c0-5.264.005-5.3.715-5.704.203-.115 1.047-.165 2.339-.139l.13.003c1.268.026 1.917.039 2.257.37.356.347.372 1.044.405 2.471l.003.14.003.122c.032 1.382.048 2.067.398 2.405.343.332 1.007.332 2.322.331h.118c1.972 0 1.977 0 2.44-.464l.465-.465v-2.275c-.001-1.294-.002-1.944.323-2.27.327-.328.983-.327 2.301-.326h.434c1.362-.001 2.043-.001 2.391.339.348.34.364 1.021.395 2.385l.005.218.003.15c.031 1.357.047 2.034.393 2.372.346.337 1.021.337 2.369.337h.15c2.828 0 2.83.002 2.83 2.844 0 1.953-.021 2.088-.383 2.51l-.383.446-10.378.047c-5.707.025-10.61.004-10.894-.047l-.016-.003c-.281-.051-.492-.09-.651-.202-.484-.341-.484-1.367-.484-5.515v-.08Zm-69.434 2.914c.046-1.974.085-2.236.384-2.557.315-.337.458-.358 2.502-.358h.221c1.285 0 1.935-.001 2.27.323.344.332.36 1.004.39 2.364l.006.228.005.203c.03 1.305.044 1.956.377 2.28.333.325.981.325 2.277.324h2.262l.463.464.465.465v2.06c0 1.792.04 2.11.303 2.436l.303.375 5.171.08c.542.008 1.034.014 1.479.018 2.663.03 3.679.041 4.057.538.233.306.224.797.21 1.59a38.245 38.245 0 0 0-.008 1.08c.003 1.195.004 1.795-.295 2.106-.302.315-.91.335-2.133.376l-.37.013c-2.989.106-3 .117-3 2.94 0 2.83.014 2.843 2.99 2.912l.322.007h.006c1.235.027 1.856.04 2.168.357.315.32.314.952.312 2.222v.509c0 1.347 0 2.01-.331 2.337-.322.318-.958.318-2.211.317h-.169c-2.974 0-3.087.11-3.087 3.005v.044c0 1.311 0 1.98.334 2.32.347.352 1.053.352 2.491.352h.278c1.343.001 1.997.002 2.315-.325.302-.31.301-.915.3-2.093v-.215c0-3.007.066-3.076 2.96-3.083h.222c1.3-.003 1.952-.004 2.285-.33.333-.326.348-.978.377-2.283l.005-.22.006-.28c.03-1.329.044-1.983.378-2.304.324-.311.947-.31 2.174-.31h.266c2.37 0 2.648.079 2.905.816.235.675.245 15.033.01 15.65l-.024.063a1.366 1.366 0 0 1-.146.315c-.332.47-1.327.47-7.66.474h-.614l-1.874-.001c-4.723-.006-6.275-.008-6.773.715-.244.354-.235.882-.221 1.668.003.196.006.408.006.637 0 .17.002.33.003.481.006.917.01 1.483-.263 1.831-.44.562-1.6.56-4.633.555h-5.772l-.465-.465-.464-.465v-2.088c0-1.437 0-2.153.358-2.51.355-.353 1.062-.353 2.47-.353h.002c1.834 0 2.095-.035 2.47-.33l.418-.329V76l-.419-.33c-.403-.317-.6-.33-5.37-.33-.488 0-.933.003-1.341.004h-.001c-2.651.01-3.684.014-4.079-.486-.252-.32-.244-.843-.232-1.702.003-.208.006-.434.006-.682v-.196c0-1.383 0-2.047.33-2.365.307-.294.895-.294 2.027-.293h.174c.18 0 .349 0 .508.002 1.07.006 1.713.01 2.099-.303.578-.47.577-1.653.575-4.612v-.935l.005-4.973-.39-.39-.39-.39h-4.918c-2.704 0-5.033-.045-5.174-.099-.895-.344-1.096-4.479-.258-5.317l.464-.464h2.261c1.296 0 1.945 0 2.277-.323.333-.325.348-.977.378-2.281l.005-.203Zm17.75 2.5c-.576-.54-.637-4.29-.081-4.996.445-.566 4.425-.656 5.093-.115.57.462.58 4.568.013 5.135-.571.571-4.412.554-5.026-.023Zm17.273-.074c-.585-.68-.522-4.548.083-5.037.64-.517 4.495-.451 5.032.087.595.595.6 4.274.007 4.964l-.384.446h-4.343l-.395-.46Zm22.817-2.407c0-1.88.034-2.14.33-2.515.444-.566 4.424-.656 5.092-.115.605.49.669 4.357.083 5.037l-.395.46h-2.173c-1.485 0-2.219 0-2.582-.367-.355-.359-.355-1.069-.355-2.473v-.027Zm57.813.128c0-1.978.177-2.756.672-2.955.111-.045 3.761-.087 8.11-.094l7.909-.013.39.39.39.39v7.853c0 .889.003 1.688.005 2.406v.005c.015 4.27.02 5.673-.629 6.114-.318.216-.793.202-1.499.18a25.697 25.697 0 0 0-.815-.015c-.241 0-.461.003-.664.005-.891.012-1.435.02-1.768-.243-.522-.413-.519-1.492-.509-4.27l.002-1.314c0-.504.002-.962.004-1.38.01-2.615.014-3.632-.478-4.02-.314-.249-.83-.24-1.674-.227-.212.003-.444.007-.699.007h-.118c-1.374 0-2.062 0-2.407.343-.346.346-.346 1.038-.345 2.427v.119c0 1.966-.017 2.068-.39 2.442l-.39.39h-4.993c-.488 0-.934-.002-1.343-.003-2.728-.01-3.774-.014-4.178.494-.252.315-.256.827-.264 1.657-.001.2-.003.419-.009.658l-.005.238c-.031 1.35-.046 2.02-.389 2.352-.337.327-.99.326-2.288.325h-.232c-.174 0-.337 0-.491.002-.972.007-1.572.01-1.94-.28-.595-.47-.579-1.711-.54-4.96l.012-1.014.048-4.583.446-.383.445-.383h4.988l1.275.002c2.733.009 3.767.012 4.151-.486.233-.303.226-.79.215-1.575-.002-.184-.005-.384-.005-.601Zm23.189-2.281.39-.39.389-.39h5.04c4.956 0 5.046.005 5.407.345l.368.346V57.36l-.419.33c-.374.294-.635.329-2.469.329-2.825 0-2.83.004-2.83 2.832v.145c.001 1.365.001 2.05-.342 2.396-.347.348-1.044.348-2.447.348h-.149c-.301 0-.572.008-.815.015-.707.022-1.182.036-1.499-.18-.649-.44-.645-1.844-.63-6.114v-.005c.003-.718.006-1.517.006-2.406v-7.852ZM.061 64.682l.47-.471.47-.471h15.764l.39.39c.375.376.39.468.384 2.503-.007 2.924-.071 2.987-3.081 2.987h-.098c-1.286 0-1.919 0-2.23.316-.304.307-.304.914-.303 2.108v.095c0 1.995-.168 2.793-.642 3.046-.615.33-10.233.196-10.657-.148l-.375-.303-.046-5.026-.046-5.026Zm40.488.012.477-.477.477-.477h2.134c1.395 0 2.098 0 2.453.351.36.358.36 1.08.36 2.538v.093c0 1.465 0 2.19-.361 2.548-.355.35-1.055.35-2.44.35h-.041c-2.914 0-2.936-.02-3.007-2.846l-.052-2.08Zm75.408 4.203c-.317-.824-.1-4.376.291-4.767.45-.451 4.327-.6 4.865-.186.834.64.948 4.42.157 5.211-.837.838-4.97.638-5.313-.258Zm11.495-4.377.39-.39.39-.39h10.035l.39.39c.375.376.39.468.39 2.55v.069c0 1.441 0 2.16-.359 2.517-.356.354-1.065.354-2.477.354h-.27c-1.265-.001-1.908-.002-2.243.32-.345.332-.361 1.008-.392 2.382l-.005.213-.006.246c-.028 1.263-.042 1.903-.37 2.228-.337.334-1.006.333-2.362.332h-.258c-.227 0-.436.003-.629.005-.86.011-1.389.018-1.715-.237-.523-.408-.52-1.491-.511-4.313l.002-1.284V64.52Zm11.595 7.963c0-1.962.03-2.2.323-2.515.303-.325.467-.348 2.473-.348 2.975 0 3.08.097 3.08 2.86 0 2.757-.11 2.86-3.037 2.86l-.156.001c-1.339 0-2.01 0-2.347-.335-.337-.337-.337-1.012-.336-2.366v-.157Zm23.671 2.702c-.877-.469-.915-4.708-.048-5.367.484-.367 4.577-.27 4.965.12.502.501.48 4.495-.027 5.035-.378.402-4.224.569-4.89.212Zm-46.684 5.296c-.38-.836-.224-4.312.214-4.75.39-.39 3.941-.608 4.765-.291.894.343 1.095 4.478.257 5.316-.859.86-4.813.652-5.236-.275Zm17.6.275c-.79-.79-.676-4.571.157-5.211.538-.413 4.415-.265 4.866.186.39.39.607 3.943.291 4.768-.343.895-4.476 1.096-5.314.257Zm11.595 0c-.805-.805-.643-4.967.207-5.309.771-.31 4.437-.094 4.815.284.438.438.594 3.914.214 4.75-.423.927-4.377 1.135-5.236.275ZM.076 84.05c.002-1.946.147-2.453.795-2.788.3-.156 1.544-.195 5.273-.162.463.004.887.006 1.276.008 2.634.013 3.671.018 4.085.529.269.331.274.876.284 1.776.002.205.004.428.01.67l.003.151c.031 1.356.047 2.033.393 2.372.346.337 1.021.337 2.369.336h.15c1.966 0 2.067.016 2.44.39l.39.39v10.041l-.39.39c-.375.375-.47.39-2.51.39h-.115c-1.396 0-2.07 0-2.397.337-.306.316-.306.928-.305 2.114v.103c0 3.064-.239 3.326-3.018 3.326-2.726 0-2.859-.132-2.859-2.858 0-2.99-.03-3.02-2.991-3.027C.16 98.531.073 98.441.073 95.522c0-1.921.002-1.932.465-2.394l.464-.465H3.3c1.3 0 1.938.001 2.26-.318.31-.307.327-.911.36-2.097l.004-.157c.084-2.999-.059-3.149-2.986-3.149-2.797 0-2.866-.07-2.862-2.892Zm121.502 3.09c.002-5.223.038-5.488.795-5.877.3-.155 1.559-.194 5.274-.162.658.005 1.241.002 1.755-.001 1.936-.01 2.914-.016 3.403.47.499.498.486 1.51.459 3.557-.007.532-.015 1.134-.015 1.815 0 .492.002.942.004 1.354.009 2.73.013 3.792-.503 4.21-.329.265-.869.27-1.752.278-.21.002-.439.004-.689.01-.234.006-.449.008-.647.01-.856.008-1.383.013-1.707.273-.518.415-.515 1.482-.506 4.257.002.4.003.836.003 1.31 0 .6.006 1.14.012 1.623.023 2.073.035 3.134-.49 3.667-.55.558-1.69.535-4.026.487-.52-.01-1.099-.022-1.744-.029l-4.58-.048-.383-.446-.383-.446v-4.83l-.001-.856c-.004-3.105-.006-4.326.589-4.803.386-.31 1.022-.306 2.07-.301h.001l.445.001c.217 0 .416.003.598.006.769.01 1.247.017 1.543-.211.487-.375.484-1.385.477-4.054V88.4l-.002-1.26Zm29.063-3.18c.083-2.323.184-2.656.845-2.79.19-.04 2.514-.062 5.165-.05l4.818.021.383.446c.363.422.383.558.383 2.51v.016c0 1.409 0 2.116.354 2.47.356.36 1.073.36 2.511.36h.016l.132-.001c1.359 0 2.036 0 2.372.338.333.335.333 1.001.333 2.329v.129c0 3.077-.007 3.084-3.089 3.084-.223 0-.427-.003-.615-.006-.762-.012-1.238-.019-1.535.208-.494.378-.491 1.406-.482 4.144a268.556 268.556 0 0 1 0 2.634c-.009 2.774-.012 3.837.501 4.238.319.248.838.241 1.678.23.195-.003.408-.006.639-.006h.067c1.412 0 2.121 0 2.477.355.359.357.359 1.075.359 2.516v.128c0 1.451 0 2.171-.36 2.529-.355.352-1.061.352-2.464.352h-.185c-1.363 0-2.04 0-2.377.338-.332.335-.332 1.001-.332 2.324V113.097c.001 1.384.001 2.076-.345 2.423-.347.346-1.04.346-2.427.345h-.166c-.24 0-.461.003-.664.006-.89.012-1.435.019-1.767-.243-.523-.413-.519-1.492-.51-4.27.001-.402.003-.839.003-1.315l.002-1.263c.008-2.766.011-3.79-.48-4.161-.288-.218-.746-.212-1.474-.201h-.001c-.173.002-.361.005-.565.005-3.09 0-3.2-.095-3.2-2.76 0-3.005-.095-3.108-2.886-3.115-.192 0-.372 0-.541.002h-.001c-.953.005-1.537.008-1.894-.275-.565-.447-.562-1.61-.556-4.612l.001-1.079v-4.862l.39-.39c.374-.374.474-.39 2.453-.39h.004c1.452 0 2.183 0 2.564-.365.385-.37.412-1.114.466-2.613v-.004ZM34.856 95.64c0-2.196.062-2.436.715-2.793.18-.099 1.168-.176 2.276-.18 2.759-.006 2.886.12 2.886 2.855 0 2.935-.073 3.01-2.985 3.016h-.046c-1.42.004-2.132.005-2.488-.35-.358-.355-.358-1.07-.358-2.501v-.046Zm98.347 3.04c-.05-5.338-.025-5.52.81-5.856.606-.244 3.88-.19 4.387.072.609.315.647.467.647 2.633 0 2.897.117 3.014 3.035 3.014 2.711 0 2.841.132 2.841 2.89v.164c.001 1.095.001 1.77-.327 2.183-.528.663-1.906.649-5.497.614l-.336-.004c-.639-.006-1.205-.004-1.706-.002-1.915.007-2.881.011-3.367-.47-.495-.49-.491-1.483-.484-3.486.001-.514.003-1.096-.003-1.752Zm-115.659 2.5c0-1.841.026-2.013.348-2.313.314-.293.553-.324 2.513-.324.239 0 .457-.003.657-.006.845-.012 1.365-.019 1.687.23.515.399.521 1.455.537 4.203.002.406.005.849.01 1.333l.009 1.337c.015 2.715.02 3.771.54 4.188.33.265.87.27 1.754.279.208.002.435.004.683.01l.15.003c1.355.031 2.032.047 2.37.393.337.346.337 1.021.337 2.37v.151c0 1.966.016 2.068.39 2.441l.39.39h4.909c.466 0 .895.002 1.288.003 2.728.009 3.785.013 4.2-.502.262-.325.268-.858.276-1.728.002-.199.005-.415.01-.65.006-.245.008-.469.01-.674.006-.843.01-1.361.265-1.679.407-.507 1.452-.504 4.164-.494.413.002.865.003 1.358.003h.768c3.2-.003 4.42-.004 4.883.587.285.364.282.952.278 1.904v.37c0 2.725-.135 2.86-2.842 2.86-2.934 0-3.035.104-3.035 3.114 0 1.897-.018 2.004-.39 2.376l-.39.39H35.012c-1.09 0-2.08.003-2.98.004-6.334.014-8.134.017-8.62-.78-.193-.316-.179-.759-.16-1.378.008-.221.016-.465.015-.733-.007-2.973-.027-2.993-3.094-2.993h-.097c-1.284.001-1.917.001-2.229-.316-.303-.307-.303-.914-.303-2.109v-.094c0-3.127-.067-3.199-2.967-3.207-2.81-.007-2.91-.107-2.91-2.917 0-2.829.131-2.958 3.013-2.958 2.825 0 2.864-.042 2.864-3.084Zm12.326 3.022c-1.097-.459-1.326-4.678-.297-5.46.508-.386 4.475-.267 4.916.147.402.377.568 4.226.212 4.892-.342.639-3.626.925-4.831.421Zm16.736-.421c-.34-.635-.19-4.465.19-4.87.377-.402 4.224-.569 4.89-.212 1.011.541.881 4.951-.162 5.491-1.03.533-4.572.238-4.918-.409ZM.073 105.193l.477-.476.477-.477 2.158.052.21.005c1.263.029 1.902.044 2.225.371.331.336.331.999.33 2.343v.258c0 1.446 0 2.165-.36 2.522-.354.353-1.06.353-2.464.353H1.002l-.464-.464c-.465-.465-.465-.465-.465-2.476v-2.011Zm34.783 2.011c0-2.081.014-2.174.39-2.55.374-.374.473-.39 2.474-.39h2.084l.465.465c.464.464.464.465.464 2.475 0 2.011 0 2.011-.464 2.476l-.465.464H37.67c-1.394 0-2.098 0-2.453-.351-.36-.358-.36-1.08-.36-2.537v-.052Zm92.596 0c0-2.081.014-2.174.39-2.55.374-.374.473-.39 2.474-.39h2.084l.465.465c.464.464.464.465.464 2.475 0 2.011 0 2.011-.464 2.476l-.465.464h-2.134c-1.395 0-2.098 0-2.453-.351-.361-.358-.361-1.08-.361-2.537v-.052Zm-11.594 17.406c0-13.547.002-13.631.329-14.047.328-.418.335-.419 2.609-.419h.171c1.383 0 2.075-.001 2.421.345.347.347.347 1.042.347 2.433l-.001.172c0 .211-.002.406-.004.586-.01.841-.016 1.36.234 1.681.403.517 1.475.514 4.279.507.372-.001.774-.003 1.209-.003.462 0 .887.002 1.277.003 2.714.009 3.767.013 4.182-.5.263-.326.268-.86.277-1.732v-.001c.002-.197.004-.413.01-.647l.005-.25c.029-1.291.043-1.94.375-2.266.336-.33.996-.329 2.323-.328H136.318c1.377 0 2.059 0 2.397.341.332.335.332.999.332 2.317v.185c0 1.449 0 2.169.359 2.526.355.352 1.059.352 2.458.352h.025c1.952 0 2.088.021 2.509.384l.446.384V144.144l-.362.362c-.335.337-.518.366-2.578.414l-.151.003c-1.355.032-2.032.047-2.37.393-.337.346-.337 1.021-.336 2.371v.152c0 1.41 0 2.117-.354 2.472-.356.358-1.072.358-2.508.358H134.098l-.464-.465-.464-.464v-2.327c.001-1.214.002-1.831-.306-2.144-.318-.323-.966-.323-2.281-.321h-.379c-1.373-.001-2.061-.001-2.406.343-.346.346-.346 1.039-.346 2.427v.119c0 1.967-.016 2.068-.39 2.442l-.389.39h-10.035l-.39-.39c-.375-.375-.39-.475-.395-2.503-.001-.262.003-.499.006-.713.013-.783.021-1.267-.21-1.569-.373-.488-1.37-.499-3.98-.528h-.004c-.441-.005-.928-.01-1.466-.018l-5.169-.08-.383-.446c-.363-.421-.383-.557-.383-2.51 0-2.842-.003-2.844-2.831-2.844h-.112c-1.393 0-2.087 0-2.433-.347-.343-.344-.342-1.03-.342-2.397v-.376c-.002-1.351-.002-2.018.331-2.355.325-.329.969-.343 2.24-.372l.257-.005.267-.006h.001c1.288-.029 1.934-.043 2.266-.373.333-.333.348-.985.377-2.294l.006-.27.006-.227c.029-1.281.043-1.927.373-2.251.335-.33.995-.33 2.324-.329l.233.001c2.053 0 2.148.014 2.523.39l.39.39v4.995c0 .496-.002.95-.003 1.365-.01 2.712-.014 3.76.493 4.158.319.25.84.242 1.69.23h.001c.206-.003.431-.007.678-.007.344 0 .647.022.914.041.514.036.895.063 1.176-.091.803-.44.798-2.354.777-9.73v-.003a1500.44 1500.44 0 0 1-.008-4.595Zm28.906-11.605c0-1.806.036-2.068.33-2.442.328-.418.335-.419 2.609-.419h.137c1.413 0 2.114 0 2.461.35.34.344.34 1.026.34 2.377v.268c0 1.351 0 2.033-.34 2.377-.347.35-1.048.35-2.461.349h-.275c-1.413.001-2.113.001-2.46-.349-.341-.344-.341-1.026-.341-2.377v-.134ZM.538 121.281c-.83-.831-.657-4.801.229-5.23.186-.09 1.253-.169 2.371-.175h.025c1.372-.007 2.069-.011 2.422.336.365.357.365 1.086.365 2.567v.027c0 2.937-.003 2.939-2.894 2.939H1.002l-.464-.464Zm11.594 0c-.805-.805-.642-4.967.207-5.309.771-.31 4.438-.094 4.815.284.451.45.6 4.33.187 4.868-.64.834-4.419.948-5.209.157Zm40.037-2.327c0-1.999.105-2.488.621-2.885.185-.142 1.56-.195 5.194-.198l1.298-.005c2.755-.012 3.83-.016 4.241.504.264.332.257.879.245 1.774v.001a49.94 49.94 0 0 0-.005.66v.172c0 1.383 0 2.076-.345 2.422-.347.347-1.041.347-2.431.347l-.172-.001c-.212 0-.408-.002-.589-.004-.837-.01-1.355-.016-1.674.232-.52.404-.517 1.48-.51 4.305.002.375.003.782.003 1.222v4.918l-.464.464c-.464.465-.465.465-2.474.465-2.01 0-2.01 0-2.474-.465l-.465-.464V130.307c0-1.418 0-2.128-.355-2.483-.356-.357-1.07-.357-2.5-.357h-.166c-1.351 0-2.026 0-2.362-.337-.335-.335-.335-1.006-.334-2.343v-.14c0-3.004.059-3.06 3.2-3.06h.094c1.194 0 1.8 0 2.107-.303.317-.312.317-.946.317-2.232v-.098Zm17.47-.149c0-2.275.002-2.282.419-2.61.49-.386 9.632-.52 10.436-.153.927.422 1.135 4.379.275 5.239l-.464.464h-4.914c-.466 0-.895.002-1.288.003-2.741.009-3.812.013-4.224-.506-.263-.333-.256-.88-.245-1.778.003-.201.005-.42.005-.659Zm23.03.136c0-2.057.135-2.619.693-2.89.22-.106 3.124-.168 8.169-.175l7.829-.011.39.391c.376.375.39.468.385 2.503l.001.476c.004.972.006 1.569-.284 1.936-.46.582-1.66.58-4.768.575l-.957-.001h-4.923l-.329.419c-.294.374-.33.636-.33 2.442v.064c0 1.413 0 2.113-.349 2.458-.342.339-1.019.339-2.358.339h-.237c-1.376-.001-2.06-.001-2.407.34-.344.338-.36 1.01-.39 2.346l-.004.172-.001.058c-.035 1.499-.052 2.214-.417 2.564-.333.32-.954.338-2.141.372l-.05.002c-3.141.092-3.239.01-3.242-2.716-.003-3.114-.027-3.138-3.087-3.138-2.758 0-2.868-.135-2.762-3.398.005-.169.008-.326.011-.473.014-.681.023-1.122.238-1.41.392-.528 1.475-.542 4.54-.583l1.159-.016c.524-.009 1-.014 1.432-.019h.002c2.657-.03 3.646-.042 4.005-.523.212-.285.204-.735.19-1.451-.004-.197-.008-.414-.008-.653Zm-28.906 5.708c0-2.175.125-2.605.85-2.911.188-.079 1.223-.128 2.3-.108 2.687.049 2.726.092 2.726 2.992v.041c0 1.387 0 2.087-.35 2.442-.358.362-1.082.362-2.546.362H66.671c-1.474 0-2.201 0-2.56-.364-.348-.353-.348-1.051-.348-2.426v-.028Zm98.955 2.662c-1.121-.6-.83-5.387.341-5.611 1.726-.33 4.441-.027 4.738.528.341.636.191 4.465-.189 4.871-.378.402-4.224.569-4.89.212Zm-23.751-4.958-.375-.304c-.358-.29-.734-.304-8.271-.304h-7.896l-.345.368c-.51.543-.549 15.874-.042 16.5l.304.375 7.752.044c8.293.048 8.466.033 8.785-.737.123-.299.163-2.752.132-8.185l-.044-7.757Zm-63.406 10.372c-.413-.538-.265-4.417.186-4.868.39-.391 3.94-.608 4.765-.292.895.344 1.095 4.479.257 5.317-.79.791-4.568.677-5.208-.157Zm52.205.141c-.53-.53-.47-4.463.076-5.009.546-.547 4.477-.607 5.006-.077.667.667.696 4.469.04 5.126-.656.656-4.456.627-5.122-.04Zm-69.302 5.872c-.807-.634-.589-5.036.266-5.397.8-.337 4.399-.108 4.73.301.485.601.453 4.531-.043 5.058-.502.535-4.285.565-4.953.038Zm11.149-2.635c.054-2.244.124-2.511.736-2.77.638-.272 4.33-.099 4.646.218.256.256.29.769.362 5.457l.08 5.174.375.303c.326.264.643.304 2.434.304h2.06l.463.464.465.465v2.262c-.001 1.297-.001 1.946.323 2.279.325.333.976.348 2.279.377l.203.005c.254.006.487.008.699.01.87.007 1.4.012 1.724.273.507.411.503 1.452.493 4.129-.002.416-.004.872-.004 1.372v5.065l-.39.39c-.374.375-.47.39-2.513.39h-.202c-1.265-.001-1.908-.001-2.243.32-.345.332-.36 1.008-.392 2.383l-.005.212-.006.246c-.028 1.263-.043 1.903-.37 2.228-.337.334-1.006.333-2.362.332h-.258c-.225 0-.432.003-.623.005h-.002c-.863.011-1.394.018-1.72-.238-.522-.408-.52-1.484-.514-4.282v-.002a421.147 421.147 0 0 0 .001-1.91v-.279c.002-2.944.003-4.124-.574-4.593-.386-.314-1.03-.31-2.103-.304h-.004l-.5.002h-.062c-1.234 0-1.852 0-2.16-.309-.31-.309-.31-.926-.31-2.162v-.061c0-3.101-.071-3.177-2.985-3.184-2.027-.005-2.127-.021-2.501-.395l-.39-.39v-10.041l.39-.39c.374-.374.474-.39 2.453-.39 2.934 0 2.936-.002 3.007-2.965Zm81.197-2.299c.093-.174.325-.38.516-.459.192-.078 3.856-.127 8.184-.11l7.836.032.303.375c.294.363.304.825.304 14.112v13.736l-.39.39c-.595.595-4.272.6-4.962.007l-.445-.384-.044-7.992c-.039-7.12-.072-8.023-.303-8.277-.238-.264-.639-.286-5.054-.286-4.943 0-5.656-.077-5.959-.642-.219-.41-.206-10.09.014-10.502Zm-98.614 8.07c.05-2.089.07-2.215.427-2.503.64-.517 4.495-.451 5.032.087l.39.39v10.041l-.39.39-.39.39h-4.989l-1.293.002c-2.807.009-3.889.013-4.299-.51-.257-.328-.25-.863-.238-1.732.002-.196.005-.408.005-.639v-.096c0-1.469 0-2.195.362-2.554.356-.351 1.058-.351 2.448-.351H49.556c1.265.001 1.909.001 2.243-.32.346-.332.361-1.008.392-2.383l.005-.212Zm29.32 2.633c-.651-.652-.618-4.467.044-5.13.493-.494 4.49-.465 5.024.036.528.497.568 4.465.05 5.021-.641.689-4.448.743-5.118.073Zm11.594-.001c-.567-.567-.556-4.673.014-5.134.639-.518 4.494-.452 5.032.086.616.616.6 4.441-.02 5.025-.614.577-4.455.595-5.025.023Zm52.376 6.064c-.895-.343-1.095-4.479-.257-5.317.79-.79 4.568-.676 5.208.158.413.538.265 4.417-.186 4.868-.39.39-3.941.608-4.765.291Zm-87.44 2.966c0-2.078.021-2.24.347-2.543.315-.294.553-.324 2.541-.324h.299c1.262-.002 1.895-.003 2.213.313.32.319.319.959.317 2.245v.302c0 2.013-.03 2.255-.318 2.543-.287.288-.53.318-2.541.318h-.31c-1.277.002-1.915.003-2.234-.316-.318-.318-.317-.955-.315-2.229v-.309Zm46.218-.007c0-1.806.035-2.068.329-2.441.328-.418.335-.419 2.609-.419h.137c1.413-.001 2.114-.001 2.461.349.341.344.341 1.026.34 2.378v.267c.001 1.352.001 2.034-.34 2.377-.347.351-1.048.35-2.461.35h-.274c-1.414 0-2.114.001-2.461-.35-.341-.343-.341-1.025-.34-2.377v-.134Zm34.783 2.81c0-4.848.006-4.941.345-5.302.377-.402 4.224-.569 4.89-.213.594.319.641.938.641 8.506 0 7.568-.047 8.187-.641 8.506-.172.092-2.332.155-5.287.155-.493 0-.945.002-1.358.003-2.72.01-3.768.014-4.165-.493-.249-.318-.241-.836-.229-1.68v-.002c.003-.204.006-.426.006-.67v-.218c-.001-1.363-.001-2.044.339-2.393.341-.348 1.022-.363 2.384-.394l.218-.005c.232-.006.446-.008.643-.01.86-.008 1.389-.014 1.713-.274.516-.414.512-1.475.503-4.225a498.22 498.22 0 0 1-.002-1.291Zm11.594-2.81c0-2.013.03-2.255.318-2.542.287-.288.529-.318 2.541-.318s2.254.03 2.541.318c.287.287.318.529.318 2.542s-.031 2.255-.318 2.543c-.287.288-.529.318-2.541.318s-2.254-.03-2.541-.318c-.288-.288-.318-.53-.318-2.543Zm-98.44 9.033c-.05-5.221-.038-5.37.476-5.85.311-.29.556-.322 2.467-.322h.05c1.426 0 2.138 0 2.495.356.356.357.356 1.07.356 2.496v.152c0 1.409 0 2.087.339 2.414.315.303.922.303 2.094.303h.09c3.138 0 3.195.055 3.195 3.082 0 .24.003.459.006.66.012.827.02 1.337-.224 1.65-.393.504-1.438.501-4.161.491-.411-.001-.86-.003-1.351-.003-4.72 0-5.059-.019-5.41-.303l-.375-.304-.047-4.822Zm11.765-.914c-.412-.538-.264-4.417.187-4.868.45-.451 4.327-.599 4.865-.186.982.754.89 5.04-.118 5.5-1.048.477-4.462.169-4.934-.446Zm51.892-4.478.39-.39c.375-.376.468-.39 2.501-.385 2.923.007 2.985.072 2.985 3.083v.099c0 1.286 0 1.92.317 2.232.307.302.913.302 2.107.302h.094c3.138 0 3.2.06 3.2 3.039 0 1.943-.026 2.134-.345 2.473l-.346.368H116.516l-.329-.419c-.317-.403-.329-.601-.329-5.41v-4.992Zm-17.312 8.025c0-2.424.035-2.567.699-2.86.388-.172 1.51-.211 5.31-.181l4.819.037.383.445c.593.69.588 4.37-.007 4.965l-.39.39h-5.039c-.469 0-.899.001-1.295.003h-.008c-2.785.009-3.85.012-4.249-.502-.247-.317-.24-.832-.229-1.666.003-.193.006-.402.006-.631Zm52.095 0c0-2.424.035-2.567.699-2.86.388-.172 1.51-.211 5.311-.181l4.818.037.383.445c.593.69.588 4.37-.007 4.965l-.389.39h-5.04c-.472 0-.905.002-1.303.003-2.785.009-3.849.012-4.249-.502-.247-.317-.24-.832-.229-1.666.003-.193.006-.402.006-.631ZM127.509 10.163c0-5.612 4.55-10.162 10.162-10.162h20.167C163.45 0 168 4.55 168 10.163v20.364c0 5.613-4.55 10.163-10.162 10.163h-20.167c-5.612 0-10.162-4.55-10.162-10.163V10.163Zm3.811 1.275a7.622 7.622 0 0 1 7.622-7.622h17.626a7.621 7.621 0 0 1 7.621 7.622v17.815a7.621 7.621 0 0 1-7.621 7.622h-17.626a7.622 7.622 0 0 1-7.622-7.622V11.438Zm12.862.165a5.081 5.081 0 0 0-5.082 5.082v7.32a5.081 5.081 0 0 0 5.082 5.082h7.304a5.081 5.081 0 0 0 5.081-5.081v-7.321a5.081 5.081 0 0 0-5.081-5.082h-7.304ZM10.162 127.311C4.55 127.311 0 131.861 0 137.474v20.364C0 163.45 4.55 168 10.163 168h20.166c5.613 0 10.163-4.55 10.163-10.162v-20.364c0-5.613-4.55-10.163-10.163-10.163H10.163Zm1.27 3.815a7.622 7.622 0 0 0-7.621 7.622v17.816a7.622 7.622 0 0 0 7.622 7.622h17.626a7.622 7.622 0 0 0 7.622-7.622v-17.816a7.622 7.622 0 0 0-7.622-7.622H11.433Zm.16 12.869a5.081 5.081 0 0 1 5.081-5.081h7.304a5.081 5.081 0 0 1 5.082 5.081v7.321a5.081 5.081 0 0 1-5.082 5.081h-7.304a5.081 5.081 0 0 1-5.081-5.081v-7.321Z" fill="url('#paint0_linear_7489_51258')"/><defs><linearGradient id="paint0_linear_7489_51258" x1="0" y1="0" x2="168.159" y2="167.841" gradientUnits="userSpaceOnUse"><stop stop-color="#34302C"/><stop offset=".295" stop-color="#FD84E3"/><stop offset=".858" stop-color="#34302C"/></linearGradient></defs></svg>