<svg width="168" height="168" viewBox="0 0 168 168" fill="none" xmlns="http://www.w3.org/2000/svg">
    <path fill-rule="evenodd" clip-rule="evenodd" d="M83.6028 70.9957L86.6413 65.3262L90.6242 78.6826L84.6526 75.9808L83.6028 70.9957ZM62.115 76.9344L59.026 82.5087L68.471 87.1328L81.4705 86.2349L62.115 76.9344ZM60.3934 87.4458L57.3232 92.9905L76.1808 102.359L107.607 100.45L110.677 94.9056L79.251 96.8148L60.3934 87.4458Z" fill="#2C3034"></path>
    <path d="M110.676 94.888L79.2228 96.7964L60.1812 87.4109L80.8006 86.1645L62.0561 76.9272L71.2608 69.1393L90.3551 78.5202L86.6113 65.3262L104.857 74.2644L110.676 94.888Z" fill="#FDBF1C"></path>
    <path fill-rule="evenodd" clip-rule="evenodd" d="M10.1626 0C4.54994 0 0 4.54994 0 10.1626V30.5262C0 36.1388 4.54995 40.6887 10.1626 40.6887H30.3289C35.9416 40.6887 40.4915 36.1388 40.4915 30.5262V10.1626C40.4915 4.54994 35.9415 0 30.3289 0H10.1626ZM11.4329 3.81506C7.22344 3.81506 3.81099 7.22752 3.81099 11.437V29.2527C3.81099 33.4622 7.22344 36.8747 11.4329 36.8747H29.0586C33.2681 36.8747 36.6806 33.4622 36.6806 29.2527V11.437C36.6806 7.22752 33.2681 3.81506 29.0586 3.81506H11.4329ZM11.5917 16.6844C11.5917 13.8781 13.8667 11.6031 16.673 11.6031H23.9773C26.7837 11.6031 29.0586 13.8781 29.0586 16.6844V24.0053C29.0586 26.8116 26.7837 29.0866 23.9773 29.0866H16.673C13.8667 29.0866 11.5917 26.8116 11.5917 24.0053V16.6844ZM46.4507 5.893C46.4507 0.744794 46.4879 0.434265 47.1361 0.173001C47.3276 0.0957662 54.8384 0.0285432 63.8942 0.022981L80.3052 0.0129685L80.7695 0.47749C81.6071 1.31563 81.4067 5.45072 80.5119 5.79431C80.3705 5.8485 76.7976 5.893 72.5721 5.893C71.9376 5.893 71.3486 5.89198 70.8017 5.89103C66.0385 5.88277 64.4793 5.88007 63.98 6.60617C63.737 6.95951 63.7451 7.48543 63.757 8.26727V8.26731C63.7598 8.45181 63.7628 8.65055 63.7628 8.86464C63.7628 11.5245 63.8562 11.6141 66.6273 11.6141C69.5184 11.6141 69.6394 11.7352 69.6394 14.628C69.6394 17.4546 69.682 17.4941 72.7224 17.4941L72.9207 17.494C74.0767 17.4932 74.6758 17.4927 74.9929 17.7915C75.3339 18.1128 75.3489 18.7801 75.3801 20.1652L75.3851 20.3865L75.3897 20.5869C75.4196 21.9126 75.4345 22.5701 75.7707 22.8959C76.1015 23.2165 76.7433 23.2161 78.0165 23.2153L78.2122 23.2152C81.0624 23.2152 81.0749 23.204 81.0749 20.6558C81.0749 17.537 81.0838 17.528 84.2259 17.4582C86.8957 17.3989 86.9515 17.3398 86.9515 14.5667L86.9515 14.4575V14.4574C86.9517 13.1507 86.9519 12.4893 86.6214 12.1469C86.2827 11.7959 85.5968 11.78 84.2078 11.7478L84.0945 11.7452C81.194 11.6777 81.188 11.6727 81.1006 9.31088C81.0939 9.12865 81.0867 8.95611 81.0798 8.79274C81.0297 7.59485 81.0002 6.89026 81.3326 6.47638C81.8074 5.88522 83.0207 5.88721 85.967 5.89205L85.9676 5.89205C86.2487 5.89251 86.5455 5.893 86.8591 5.893C87.2568 5.893 87.6281 5.89215 87.9748 5.89136H87.9749C90.9385 5.8846 92.1015 5.88195 92.5531 6.44743C92.8448 6.81266 92.8397 7.41491 92.8312 8.40613C92.8297 8.58569 92.8281 8.778 92.8281 8.98399C92.8281 9.20598 92.825 9.40937 92.8222 9.59571V9.59607C92.8106 10.3625 92.8034 10.8402 93.0316 11.1373C93.4092 11.6292 94.4318 11.6258 97.1471 11.6169C97.5462 11.6155 97.9819 11.6141 98.4575 11.6141H103.452L103.897 11.9976L104.343 12.3812V14.5541V16.727L103.897 17.1107L103.452 17.4941H98.5584C93.8484 17.4941 93.6494 17.5065 93.2466 17.8236L92.8281 18.1529V25.9363C92.8281 26.6984 92.8297 27.3955 92.8312 28.0333V28.038V28.0381C92.8421 32.679 92.8457 34.1702 92.1572 34.6337C91.8313 34.8531 91.3503 34.8422 90.6417 34.8262C90.4355 34.8215 90.2101 34.8164 89.9636 34.8164C87.0568 34.8164 86.9515 34.9249 86.9515 37.9228C86.9515 40.6855 86.8603 40.7628 83.7124 40.6707C83.5196 40.665 83.3413 40.6621 83.1764 40.6595C82.4419 40.6476 81.9739 40.64 81.6728 40.412C81.1442 40.0117 81.1303 38.9319 81.0919 35.9562L81.0919 35.9534C81.087 35.5738 81.0817 35.1635 81.0749 34.7198C80.9999 29.8314 80.9785 29.5336 80.6872 29.3206C80.4367 29.1375 79.4504 29.0953 75.4277 29.0953C74.9581 29.0953 74.5266 29.0967 74.1302 29.098C71.3726 29.107 70.3098 29.1105 69.8951 28.5939C69.6351 28.2699 69.6298 27.7415 69.6212 26.8819C69.6192 26.6847 69.6171 26.4701 69.6116 26.2366L69.6074 26.0546C69.5755 24.6579 69.5598 23.9677 69.2068 23.6268C68.8619 23.2937 68.1951 23.294 66.877 23.2947L66.7011 23.2947L66.5252 23.2947C65.2071 23.294 64.5404 23.2937 64.1955 23.6268C63.8424 23.9677 63.8267 24.6579 63.7948 26.0545V26.0546L63.7906 26.2366L63.7874 26.3764C63.7559 27.7426 63.7402 28.4225 63.3923 28.7607C63.0477 29.0959 62.377 29.0957 61.0419 29.0953L60.9039 29.0953C59.0989 29.0953 58.8371 29.06 58.4636 28.7658L58.0451 28.4366V17.7131C58.0451 16.531 58.0478 15.466 58.0502 14.5067L58.0502 14.5038C58.0659 8.32296 58.0704 6.52778 57.2721 6.03613C56.9454 5.83488 56.4841 5.85203 55.834 5.87621C55.5872 5.88539 55.3133 5.89558 55.0091 5.89522C52.3716 5.89205 52.3273 5.93384 52.3273 8.42348C52.3273 11.5111 52.1 11.773 49.4206 11.773C49.2781 11.773 49.1423 11.7736 49.0131 11.7742C48.0156 11.7788 47.4054 11.7815 47.0325 11.4855C46.4451 11.0191 46.4465 9.81112 46.4501 6.70031V6.69965C46.4504 6.44385 46.4507 6.17518 46.4507 5.893ZM104.264 0.942013L104.734 0.471135L105.205 9.5764e-05L110.228 0.0461826L115.251 0.0924283L115.554 0.467638C116.028 1.05246 116.023 10.8135 115.549 11.2874C115.082 11.7549 114.567 11.7943 109.61 11.742L105.03 11.6936L104.647 11.2476L104.264 10.8017V5.87186V0.942013ZM75.7471 17.104C74.976 16.3326 75.2101 12.1098 76.0425 11.7741C77.0182 11.3808 80.2822 11.5911 80.7695 12.0786C81.6289 12.9387 81.421 16.8952 80.4941 17.3177C79.659 17.6983 76.1848 17.5421 75.7471 17.104ZM115.858 14.5155C115.858 12.3993 115.923 12.1533 116.573 11.7977C117.356 11.3691 120.765 11.5729 121.27 12.0786L121.734 12.5432V20.3547V28.1662L121.27 28.6308L120.806 29.0953H118.747L118.545 29.0952C117.249 29.0944 116.601 29.094 116.268 29.4181C115.935 29.7431 115.92 30.3944 115.89 31.6989V31.699L115.886 31.9016L115.88 32.1295C115.85 33.4896 115.834 34.1617 115.49 34.4936C115.155 34.8179 114.505 34.8174 113.221 34.8165L113.001 34.8164L112.881 34.8164C111.453 34.8167 110.769 34.8168 110.441 34.4751C110.14 34.1606 110.14 33.5567 110.14 32.397L110.14 32.2911C110.14 29.1913 110.055 29.0953 107.299 29.0953C104.391 29.0953 104.264 28.9708 104.264 26.1398C104.264 23.2648 104.314 23.2152 107.225 23.2152C110.065 23.2152 110.14 23.1328 110.14 20.0132V19.9633C110.14 18.7284 110.14 18.1111 110.449 17.8025C110.757 17.4941 111.374 17.4941 112.608 17.4941H112.658C115.786 17.4941 115.858 17.4269 115.858 14.5155ZM46.4507 18.2298L46.796 17.8619C47.1734 17.46 51.0197 17.2931 51.6858 17.6497C52.249 17.9513 52.3273 18.6681 52.3273 23.5215C52.3273 23.9984 52.3256 24.4334 52.3241 24.83C52.3142 27.3456 52.3104 28.3212 52.7847 28.7032C53.0852 28.9452 53.5775 28.949 54.3818 28.9552C54.582 28.9568 54.8015 28.9585 55.0421 28.964C58.0446 29.0335 58.0451 29.0339 58.0451 31.9433V32.0128C58.0452 33.4318 58.0452 34.1327 57.6948 34.4788C57.3529 34.8165 56.6773 34.8165 55.3424 34.8164H55.2755L55.0998 34.8163C53.7244 34.8158 53.0407 34.8155 52.693 35.1571C52.3494 35.4948 52.334 36.1666 52.3035 37.5023V37.5023L52.2995 37.675L52.2982 37.733C52.2633 39.2322 52.2467 39.9464 51.8813 40.2972C51.5487 40.6164 50.9272 40.6345 49.7401 40.6692L49.6898 40.6707C49.3539 40.6805 49.0524 40.7008 48.7819 40.7191C48.067 40.7672 47.5684 40.8008 47.2215 40.5877C46.4221 40.0966 46.4273 38.2956 46.4447 32.3451C46.4476 31.368 46.4507 30.2791 46.4507 29.0657V18.2298ZM58.0451 35.4751L58.4636 35.1458C58.8389 34.8504 59.0981 34.8164 60.9772 34.8164L61.1671 34.8163C62.4195 34.8156 63.0585 34.8152 63.3917 35.1342C63.7387 35.4663 63.7543 36.1448 63.786 37.5299L63.7906 37.7311L63.7957 37.9504C63.825 39.2392 63.8397 39.8864 64.1707 40.2113C64.5048 40.539 65.1608 40.5385 66.4787 40.5376L66.7011 40.5375L66.9235 40.5376C68.2414 40.5385 68.8975 40.539 69.2315 40.2113C69.5625 39.8864 69.5773 39.2392 69.6066 37.9503L69.6116 37.7311L69.6162 37.5299C69.6479 36.1448 69.6635 35.4664 70.0105 35.1342C70.3438 34.8152 70.9827 34.8156 72.2352 34.8163L72.4251 34.8164C74.3041 34.8164 74.5633 34.8504 74.9386 35.1458L75.3572 35.4751V40.617V45.7588L74.9386 46.0881C74.2829 46.6044 59.1194 46.6044 58.4636 46.0881L58.0451 45.7588V40.617V35.4751ZM93.1335 40.2319C92.3286 39.4265 92.4912 35.2649 93.3409 34.9227C94.1115 34.6125 97.7782 34.8285 98.1559 35.2065C98.6066 35.6574 98.755 39.5365 98.3422 40.0746C97.7023 40.9086 93.924 41.0227 93.1335 40.2319ZM104.291 37.583C104.34 35.5358 104.363 35.4074 104.718 35.1198C105.045 34.8548 105.363 34.8164 107.227 34.8164H107.267C108.711 34.8164 109.43 34.8163 109.787 35.1755C110.14 35.5307 110.14 36.2372 110.14 37.6424V37.6819V39.7674L109.676 40.2319C109.212 40.6964 109.211 40.6964 107.202 40.6964H105.192L104.716 40.2195L104.239 39.7427L104.291 37.583ZM115.858 37.6483C115.858 35.6817 115.874 35.5803 116.248 35.2065C116.877 34.5772 120.76 34.6055 121.351 35.2436L121.747 35.6707L121.701 40.7406L121.655 45.8103L121.28 46.1138C120.929 46.3985 120.59 46.4175 115.89 46.4175C115.411 46.4175 114.972 46.419 114.569 46.4204C111.831 46.4298 110.772 46.4334 110.369 45.921C110.115 45.5977 110.123 45.0689 110.134 44.2064V44.2059C110.137 44.0049 110.14 43.7857 110.14 43.5468L110.14 43.2828C110.139 41.9443 110.138 41.2808 110.47 40.9445C110.795 40.6138 111.442 40.5995 112.725 40.5711L112.983 40.5653L113.141 40.5617C114.504 40.5306 115.184 40.5151 115.522 40.1675C115.859 39.822 115.858 39.1485 115.858 37.8054L115.858 37.6483ZM86.9515 46.418C86.9515 41.1539 86.9559 41.118 87.6662 40.7142C87.8692 40.5988 88.713 40.5488 90.0049 40.5753L90.1349 40.578C91.4028 40.6037 92.0519 40.6169 92.3916 40.9477C92.7481 41.2948 92.7642 41.9916 92.7971 43.4193L92.8003 43.5589L92.8031 43.681C92.8351 45.0634 92.8509 45.7476 93.201 46.0862C93.5441 46.418 94.2081 46.4178 95.5229 46.4175L95.6412 46.4175C97.6135 46.4175 97.6181 46.4166 98.0816 45.953L98.5458 45.4885V43.4279L98.5457 43.2133C98.5448 41.9188 98.5444 41.2692 98.8689 40.9435C99.1958 40.6155 99.8522 40.616 101.17 40.6169L101.386 40.617L101.604 40.6169C102.966 40.616 103.647 40.6156 103.995 40.9557C104.343 41.2961 104.359 41.9775 104.39 43.3408L104.395 43.5589L104.398 43.7095C104.429 45.0657 104.445 45.7429 104.791 46.081C105.137 46.4182 105.812 46.418 107.16 46.4176L107.31 46.4175C110.138 46.4175 110.14 46.4201 110.14 49.262C110.14 51.215 110.119 51.3504 109.757 51.7722L109.374 52.2181L98.9964 52.2647C93.289 52.2901 88.3866 52.269 88.1023 52.2176L88.0856 52.2146C87.805 52.1638 87.5939 52.1256 87.4349 52.0134C86.9515 51.672 86.9515 50.6459 86.9515 46.4982V46.418ZM17.5165 49.3323C17.5628 47.3579 17.6021 47.0961 17.9015 46.7751C18.2158 46.438 18.3594 46.4175 20.4032 46.4175L20.624 46.4174C21.909 46.4165 22.5588 46.416 22.8948 46.7404C23.2384 47.0723 23.2537 47.7443 23.2846 49.1036L23.2899 49.3323L23.2945 49.5349C23.3244 50.8395 23.3393 51.4908 23.6725 51.8158C24.0047 52.1399 24.6534 52.1395 25.949 52.1387L26.1508 52.1386H28.2102L28.6744 52.6032L29.1387 53.0677V55.1282C29.1387 56.9197 29.1784 57.2379 29.442 57.564L29.7454 57.9392L34.9161 58.0187C35.4583 58.027 35.9496 58.0325 36.3949 58.0374H36.3949C39.058 58.0671 40.0736 58.0784 40.4519 58.5751C40.6852 58.8813 40.6762 59.3719 40.6618 60.1649C40.6579 60.38 40.6536 60.6173 40.6536 60.8792C40.6536 61.007 40.6538 61.1288 40.6541 61.245C40.6567 62.4395 40.658 63.0397 40.3588 63.3512C40.0567 63.6658 39.4483 63.6861 38.2257 63.7271C38.1079 63.731 37.9845 63.7352 37.8551 63.7398C34.8675 63.8461 34.8564 63.8571 34.8564 66.6798C34.8564 69.51 34.8698 69.5229 37.846 69.5918C37.9578 69.5944 38.0651 69.5967 38.1682 69.5989L38.1736 69.5991C39.4091 69.6256 40.0301 69.6389 40.3419 69.9562C40.657 70.2769 40.656 70.9083 40.6539 72.1779C40.6538 72.2409 40.6537 72.3055 40.6537 72.3716C40.6536 72.4173 40.6536 72.4638 40.6536 72.511L40.6536 72.6871C40.6542 74.0338 40.6545 74.6974 40.3229 75.0243C40.0006 75.3419 39.3651 75.3416 38.112 75.341L37.9434 75.3409C34.9689 75.3409 34.8564 75.4504 34.8564 78.3464V78.3897C34.8564 79.7012 34.8564 80.3691 35.1902 80.7092C35.5367 81.0621 36.2426 81.0621 37.681 81.062H37.7269L37.9588 81.0621C39.3017 81.0631 39.9557 81.0636 40.2738 80.737C40.5758 80.427 40.5753 79.8223 40.5743 78.6437L40.5742 78.4294C40.5742 75.4217 40.6401 75.353 43.5345 75.346L43.7557 75.3456C45.0567 75.3434 45.7076 75.3423 46.0406 75.0164C46.3739 74.69 46.3885 74.0381 46.4178 72.7334L46.4228 72.5121L46.429 72.2336C46.4583 70.904 46.4728 70.25 46.807 69.9286C47.1307 69.6175 47.7541 69.6182 48.9811 69.6196L49.2469 69.6198C51.6167 69.6198 51.895 69.6978 52.1518 70.4347C52.3869 71.1097 52.3966 85.4679 52.1623 86.0844L52.1382 86.1484C52.0922 86.2716 52.0534 86.3754 51.9916 86.4629C51.6598 86.9324 50.6646 86.9329 44.3318 86.9366L43.7185 86.937C43.0438 86.9374 42.4202 86.9366 41.8439 86.9359C37.1206 86.9298 35.5687 86.9278 35.071 87.6512C34.8274 88.0051 34.8363 88.5328 34.8495 89.3188C34.8528 89.5147 34.8564 89.7266 34.8564 89.956C34.8564 90.1263 34.8576 90.2866 34.8587 90.4373C34.8653 91.3538 34.8693 91.9195 34.5963 92.2681C34.156 92.8303 32.9953 92.8284 29.963 92.8232L29.9553 92.8232C29.6483 92.8226 29.3221 92.8221 28.9755 92.8221H24.1906L23.7263 92.3576L23.2621 91.893V89.8075V89.8051C23.2621 88.3677 23.2621 87.6519 23.62 87.2955C23.9749 86.9421 24.6819 86.9421 26.09 86.9421H26.0924C27.9263 86.9421 28.1871 86.9073 28.5613 86.6126L28.9798 86.2833V81.1415V75.9996L28.5613 75.6704C28.1582 75.353 27.9602 75.3409 23.1912 75.3409C22.7035 75.3409 22.2575 75.3426 21.8498 75.3441H21.8488C19.1978 75.354 18.165 75.3579 17.77 74.8579C17.5179 74.5389 17.5255 74.0146 17.538 73.1558L17.538 73.1556C17.541 72.9485 17.5443 72.722 17.5443 72.4742L17.5443 72.2777C17.5436 70.8948 17.5433 70.231 17.8747 69.9126C18.1807 69.6187 18.7693 69.619 19.9013 69.6197L20.0752 69.6198C20.2544 69.6198 20.4235 69.6208 20.5831 69.6217C21.6538 69.628 22.2963 69.6317 22.6817 69.3188C23.2601 68.8491 23.2592 67.6661 23.2571 64.7074C23.2569 64.4136 23.2567 64.1023 23.257 63.7724L23.2621 58.7988L22.8722 58.4088L22.4824 58.0187H17.5645C14.8597 58.0187 12.531 57.9742 12.3896 57.92C11.4948 57.5764 11.2944 53.4413 12.132 52.6032L12.5963 52.1386H14.6556L14.8574 52.1387C16.153 52.1395 16.8017 52.1399 17.134 51.8158C17.4672 51.4908 17.482 50.8395 17.5119 49.5349L17.5165 49.3323ZM35.2663 51.8329C34.6909 51.2921 34.6304 47.5425 35.1857 46.8363C35.6309 46.2699 39.6107 46.1801 40.2786 46.7214C40.8485 47.183 40.8591 51.2886 40.2918 51.8561C39.7208 52.4274 35.8799 52.4096 35.2663 51.8329ZM52.54 51.7583C51.9547 51.0777 52.0184 47.2101 52.6229 46.7209C53.2623 46.2035 57.1178 46.2699 57.6552 46.8077C58.25 47.4027 58.2547 51.0823 57.6618 51.7722L57.2784 52.2181H55.1068H52.9352L52.54 51.7583ZM75.3572 49.3513C75.3572 47.4712 75.3911 47.2118 75.6864 46.8363C76.1313 46.2702 80.111 46.1801 80.7793 46.7209C81.3838 47.2101 81.4475 51.0777 80.8622 51.7583L80.4671 52.2181H78.322H78.2945C76.8094 52.2181 76.0751 52.2181 75.7121 51.851C75.3571 51.4921 75.3571 50.7821 75.3572 49.3779V49.3513ZM133.17 49.4786C133.17 47.5007 133.347 46.7231 133.842 46.5238C133.953 46.4792 137.603 46.4369 141.952 46.4301L149.861 46.4175L150.251 46.8077L150.641 47.1977V55.05C150.641 55.9389 150.644 56.7378 150.646 57.4558V57.4606C150.661 61.7307 150.666 63.1341 150.017 63.5754C149.699 63.7915 149.224 63.777 148.518 63.7555C148.274 63.748 148.004 63.7398 147.703 63.7398C147.462 63.7398 147.242 63.7427 147.039 63.7453C146.148 63.757 145.604 63.7641 145.271 63.5019C144.749 63.0894 144.752 62.0101 144.762 59.2325V59.2323C144.763 58.8307 144.764 58.3935 144.764 57.9178C144.764 57.4143 144.766 56.9557 144.768 56.5378C144.778 53.9234 144.782 52.9056 144.29 52.5171C143.976 52.2694 143.46 52.2774 142.616 52.2906H142.616C142.404 52.2939 142.172 52.2976 141.917 52.2976L141.799 52.2975C140.425 52.2973 139.737 52.2971 139.392 52.6411C139.046 52.9867 139.046 53.6794 139.047 55.0678V55.1867C139.047 57.1533 139.03 57.2547 138.657 57.6285L138.267 58.0187H133.274C132.786 58.0187 132.34 58.0171 131.931 58.0157H131.931C129.203 58.0061 128.157 58.0024 127.753 58.5097C127.501 58.8247 127.497 59.3367 127.489 60.1666C127.488 60.367 127.486 60.5859 127.48 60.825L127.475 61.0632V61.0633C127.444 62.4135 127.429 63.0831 127.086 63.415C126.749 63.7415 126.096 63.7409 124.798 63.7399L124.566 63.7398C124.392 63.7398 124.229 63.7409 124.075 63.7419C123.103 63.7485 122.503 63.7525 122.135 63.4619C121.54 62.9918 121.556 61.7509 121.595 58.5029V58.5027C121.599 58.1842 121.603 57.8464 121.607 57.4882L121.655 52.9053L122.101 52.5219L122.546 52.1386H127.534C127.996 52.1386 128.42 52.14 128.809 52.1412C131.542 52.1497 132.576 52.1529 132.96 51.6552C133.193 51.3525 133.186 50.8646 133.175 50.0801C133.173 49.8964 133.17 49.6964 133.17 49.4786ZM156.359 47.1977L156.749 46.8077L157.138 46.4175H162.178C167.134 46.4175 167.224 46.4232 167.585 46.763L167.953 47.1087V52.2343V57.3599L167.534 57.6892C167.16 57.9839 166.899 58.0187 165.065 58.0187C162.24 58.0187 162.235 58.0231 162.235 60.8506L162.235 60.9965V60.9967C162.236 62.3609 162.236 63.0469 161.893 63.3917C161.546 63.7404 160.849 63.7402 159.446 63.7398L159.297 63.7398C158.996 63.7398 158.725 63.748 158.482 63.7555C157.775 63.777 157.3 63.7915 156.983 63.5754C156.334 63.1341 156.338 61.7307 156.353 57.4606V57.4558C156.356 56.7378 156.359 55.9389 156.359 55.05V47.1977ZM0.0605586 64.6817L0.531321 64.2108L1.00192 63.7398H8.88337H16.7647L17.1544 64.1299C17.5299 64.5055 17.5442 64.5981 17.5392 66.6329C17.5323 69.5574 17.4678 69.6198 14.4577 69.6198L14.3596 69.6198C13.0744 69.6196 12.4412 69.6195 12.1293 69.936C11.8263 70.2435 11.8264 70.8496 11.8266 72.0445L11.8266 72.1388C11.8266 74.1342 11.6587 74.9317 11.1851 75.1853C10.5698 75.5148 0.952369 75.3811 0.527826 75.0372L0.152837 74.7337L0.106618 69.7077L0.0605586 64.6817ZM40.5489 64.6941L41.0259 64.2169L41.5027 63.7398H43.5869H43.637C45.0316 63.7397 45.735 63.7397 46.0898 64.0914C46.4508 64.4493 46.4508 65.1714 46.4507 66.6285V66.6798V66.7218C46.4508 68.1871 46.4508 68.9115 46.0886 69.2697C45.7345 69.6199 45.034 69.6198 43.6486 69.6198H43.6485H43.6079C40.6938 69.6198 40.6723 69.5995 40.6013 66.7737L40.5489 64.6941ZM115.957 68.8975C115.64 68.073 115.857 64.5206 116.248 64.1299C116.698 63.6789 120.575 63.5305 121.113 63.9435C121.947 64.5838 122.061 68.3643 121.27 69.1553C120.433 69.9934 116.3 69.7929 115.957 68.8975ZM127.452 64.5199L127.842 64.1299L128.232 63.7398H133.249H138.267L138.657 64.1299C139.032 64.5058 139.047 64.5984 139.047 66.6798V66.7488C139.047 68.1903 139.047 68.9081 138.688 69.2655C138.332 69.6199 137.623 69.6199 136.211 69.6198H136.143L135.941 69.6197C134.676 69.6189 134.033 69.6185 133.698 69.9397C133.353 70.2717 133.337 70.9476 133.306 72.3224L133.301 72.5346L133.295 72.7811V72.7814C133.267 74.0439 133.253 74.6843 132.925 75.0088C132.588 75.3428 131.919 75.3423 130.563 75.3411L130.305 75.3409C130.078 75.3409 129.869 75.3436 129.676 75.3461H129.676C128.816 75.3571 128.287 75.3639 127.961 75.1094C127.438 74.7007 127.441 73.618 127.45 70.7964C127.451 70.4029 127.452 69.9757 127.452 69.5117V64.5199ZM139.047 72.4826C139.047 70.5214 139.077 70.2823 139.37 69.9677C139.673 69.6429 139.837 69.6198 141.843 69.6198C144.818 69.6198 144.923 69.7175 144.923 72.4804C144.923 75.2368 144.813 75.3409 141.886 75.3409L141.73 75.341C140.391 75.3414 139.72 75.3417 139.383 75.0063C139.046 74.6694 139.046 73.994 139.047 72.6402L139.047 72.4826ZM162.718 75.1853C161.841 74.716 161.803 70.4767 162.67 69.8185C163.154 69.4506 167.247 69.5488 167.635 69.9376C168.137 70.4395 168.115 74.4328 167.608 74.9732C167.23 75.3751 163.384 75.542 162.718 75.1853ZM116.034 80.4809C115.654 79.6453 115.81 76.1691 116.248 75.7311C116.638 75.3403 120.189 75.1232 121.013 75.4396C121.907 75.7832 122.108 79.9183 121.27 80.7564C120.411 81.6163 116.457 81.4083 116.034 80.4809ZM133.634 80.7564C132.844 79.9655 132.958 76.1849 133.791 75.5447C134.329 75.1316 138.206 75.2801 138.657 75.7311C139.047 76.1217 139.264 79.6742 138.948 80.4987C138.605 81.394 134.472 81.5946 133.634 80.7564ZM145.229 80.7564C144.424 79.951 144.586 75.7894 145.436 75.4472C146.207 75.137 149.873 75.353 150.251 75.7311C150.689 76.1691 150.845 79.6453 150.465 80.4809C150.042 81.4083 146.088 81.6163 145.229 80.7564ZM0.0758061 84.0497C0.0783473 82.1044 0.222879 81.5971 0.870732 81.2616C1.17187 81.1056 2.41453 81.0674 6.14441 81.0995C6.60654 81.1035 7.03067 81.1057 7.41992 81.1076H7.42006C10.0537 81.1209 11.091 81.1261 11.5048 81.6367C11.7737 81.9684 11.7794 82.5135 11.7887 83.4129C11.7908 83.6175 11.7931 83.8405 11.7988 84.0834L11.8023 84.2341C11.8334 85.5902 11.849 86.2674 12.1955 86.6055C12.5411 86.9427 13.216 86.9425 14.564 86.9421L14.714 86.9421C16.6795 86.9421 16.7809 86.9583 17.1544 87.3322L17.5443 87.7222V92.7426V97.7631L17.1544 98.153C16.7794 98.5283 16.6838 98.5432 14.6432 98.5432L14.5291 98.5432H14.529C13.1335 98.543 12.4585 98.5428 12.132 98.8801C11.8262 99.1961 11.8263 99.8082 11.8266 100.994L11.8266 101.097C11.8266 104.161 11.5885 104.423 8.80888 104.423C6.08262 104.423 5.95 104.291 5.95 101.565C5.95 98.5756 5.9203 98.5456 2.95898 98.5381C0.159984 98.5311 0.0734238 98.4405 0.0734238 95.522C0.0734238 93.601 0.075488 93.5901 0.537673 93.1277L1.00192 92.6632H3.13369L3.3 92.6632H3.3001C4.60003 92.6637 5.23805 92.664 5.55999 92.3451C5.87032 92.0378 5.88695 91.4339 5.9196 90.2479L5.92395 90.0906C6.00781 87.0922 5.86535 86.9421 2.93786 86.9421C0.141402 86.9421 0.0721531 86.872 0.0758061 84.0497ZM121.578 87.1407C121.58 81.917 121.616 81.6524 122.373 81.2626C122.673 81.1081 123.932 81.0695 127.647 81.1006C128.305 81.1062 128.888 81.1029 129.402 81.1C131.338 81.0892 132.316 81.0837 132.805 81.5703C133.304 82.0678 133.291 83.0798 133.264 85.1266V85.1271C133.257 85.6591 133.249 86.2611 133.249 86.9421C133.249 87.4338 133.251 87.8841 133.253 88.2962V88.2964C133.262 91.026 133.266 92.0876 132.75 92.5053C132.421 92.7712 131.881 92.7762 130.998 92.7844C130.788 92.7863 130.559 92.7885 130.309 92.7943C130.075 92.7997 129.86 92.8019 129.662 92.8038C128.806 92.8123 128.279 92.8175 127.955 93.0767C127.437 93.4918 127.44 94.5586 127.449 97.3341C127.451 97.7342 127.452 98.1698 127.452 98.6441C127.452 99.2442 127.458 99.7831 127.464 100.267C127.487 102.34 127.499 103.401 126.974 103.934C126.424 104.492 125.284 104.469 122.948 104.421C122.428 104.411 121.849 104.399 121.204 104.392L116.624 104.344L116.241 103.898L115.858 103.452V98.6212C115.858 98.3213 115.858 98.0364 115.857 97.7658V97.7657C115.853 94.661 115.851 93.4401 116.446 92.9629C116.832 92.6536 117.468 92.6567 118.516 92.6618H118.517C118.658 92.6625 118.806 92.6632 118.962 92.6632C119.179 92.6632 119.378 92.666 119.56 92.6686H119.56H119.56C120.329 92.6797 120.807 92.6865 121.103 92.458C121.59 92.0827 121.587 91.0726 121.58 88.4036V88.4C121.579 88.0156 121.578 87.5969 121.578 87.1407ZM150.641 83.9603C150.724 81.637 150.825 81.3044 151.486 81.1695C151.676 81.1305 154 81.1084 156.651 81.1202L161.469 81.1415L161.852 81.5874C162.215 82.0092 162.235 82.1449 162.235 84.0976V84.113C162.235 85.5215 162.235 86.2288 162.589 86.5839C162.945 86.9421 163.662 86.9421 165.1 86.9421H165.116L165.248 86.942C166.607 86.9417 167.284 86.9415 167.62 87.2797C167.953 87.6146 167.953 88.2814 167.953 89.6087L167.953 89.7379C167.953 92.8146 167.946 92.8221 164.864 92.8221C164.641 92.8221 164.437 92.819 164.249 92.8161C163.487 92.8044 163.011 92.7971 162.714 93.0243C162.22 93.4024 162.223 94.4301 162.232 97.168C162.234 97.5715 162.235 98.0121 162.235 98.4933C162.235 98.9671 162.234 99.4023 162.232 99.8019C162.223 102.576 162.22 103.639 162.733 104.04C163.052 104.288 163.571 104.281 164.411 104.27C164.606 104.267 164.819 104.264 165.05 104.264H165.117C166.529 104.264 167.238 104.264 167.594 104.619C167.953 104.976 167.953 105.694 167.953 107.135V107.204V107.263C167.953 108.714 167.953 109.434 167.593 109.792C167.238 110.144 166.532 110.144 165.129 110.144H165.072L164.944 110.144C163.581 110.144 162.904 110.144 162.567 110.482C162.235 110.817 162.235 111.483 162.235 112.806L162.235 112.932L162.235 113.097C162.236 114.481 162.236 115.173 161.89 115.52C161.543 115.866 160.85 115.866 159.463 115.865H159.462L159.297 115.865C159.057 115.865 158.836 115.868 158.633 115.871C157.743 115.883 157.198 115.89 156.866 115.628C156.343 115.215 156.347 114.136 156.356 111.358V111.358C156.357 110.956 156.359 110.519 156.359 110.043C156.359 109.586 156.36 109.166 156.361 108.78C156.369 106.014 156.372 104.99 155.881 104.619C155.593 104.401 155.135 104.407 154.407 104.418L154.406 104.418C154.233 104.42 154.045 104.423 153.841 104.423C150.751 104.423 150.641 104.328 150.641 101.663C150.641 98.6579 150.546 98.5553 147.755 98.5483C147.563 98.5478 147.383 98.5488 147.214 98.5498H147.213C146.26 98.5552 145.676 98.5585 145.319 98.2755C144.754 97.8281 144.757 96.6651 144.763 93.6635C144.764 93.3274 144.764 92.9682 144.764 92.5844V87.7222L145.154 87.3322C145.528 86.958 145.628 86.9421 147.607 86.9421H147.611C149.063 86.9421 149.794 86.9421 150.175 86.577C150.56 86.2072 150.587 85.4627 150.641 83.964L150.641 83.9603ZM34.8564 95.6408C34.8564 93.4444 34.9179 93.2041 35.5711 92.8467C35.7509 92.7484 36.7385 92.6708 37.8466 92.6679C40.6059 92.6613 40.733 92.7868 40.733 95.522C40.733 98.4574 40.6601 98.5311 37.7478 98.5381L37.7021 98.5382H37.7021C36.2813 98.5417 35.5699 98.5434 35.2136 98.1885C34.8564 97.8326 34.8564 97.118 34.8564 95.6868V95.6408ZM133.203 98.68C133.153 93.3421 133.178 93.1601 134.013 92.8237C134.619 92.5796 137.893 92.6333 138.4 92.8957C139.009 93.211 139.047 93.3626 139.047 95.5293C139.047 98.4262 139.164 98.5432 142.082 98.5432C144.793 98.5432 144.923 98.6751 144.923 101.433L144.923 101.597C144.924 102.692 144.924 103.367 144.596 103.78C144.068 104.443 142.69 104.429 139.099 104.394L138.763 104.39C138.124 104.384 137.558 104.386 137.057 104.388C135.142 104.395 134.176 104.399 133.69 103.918C133.195 103.428 133.199 102.435 133.206 100.432C133.207 99.9178 133.209 99.3365 133.203 98.68ZM17.5443 101.18C17.5443 99.3387 17.5701 99.1673 17.892 98.8672C18.2065 98.574 18.4454 98.5432 20.4054 98.5432C20.6437 98.5432 20.8621 98.5401 21.0623 98.5373C21.9072 98.5253 22.4274 98.518 22.749 98.767C23.2641 99.1657 23.2702 100.222 23.286 102.97C23.2883 103.376 23.2908 103.819 23.2953 104.303C23.2997 104.788 23.3022 105.233 23.3045 105.64V105.64C23.3196 108.355 23.3255 109.411 23.8449 109.828C24.1759 110.093 24.7155 110.098 25.5991 110.107C25.807 110.109 26.0339 110.111 26.2817 110.117L26.4323 110.12C27.7871 110.151 28.4639 110.167 28.8019 110.513C29.1393 110.859 29.1391 111.534 29.1387 112.883L29.1387 113.034C29.1387 115 29.1549 115.102 29.5286 115.475L29.9183 115.865H34.8278C35.2942 115.865 35.7227 115.867 36.1164 115.868H36.1165C38.8439 115.877 39.901 115.881 40.3158 115.366C40.5783 115.041 40.5837 114.508 40.5924 113.638C40.5944 113.439 40.5965 113.223 40.602 112.988C40.6076 112.743 40.6095 112.519 40.6112 112.314C40.6182 111.471 40.6225 110.953 40.8772 110.635C41.2838 110.128 42.3286 110.131 45.0415 110.141C45.4543 110.143 45.9058 110.144 46.3994 110.144C46.6672 110.144 46.9229 110.144 47.1671 110.144C50.3678 110.141 51.5877 110.14 52.0501 110.731C52.3348 111.095 52.3323 111.683 52.3283 112.635C52.3281 112.683 52.3279 112.731 52.3278 112.781C52.3275 112.854 52.3273 112.928 52.3273 113.005C52.3273 115.73 52.193 115.865 49.4864 115.865C46.5518 115.865 46.4507 115.969 46.4507 118.979C46.4507 120.876 46.4333 120.983 46.0608 121.355L45.6711 121.745H35.0121C33.9216 121.745 32.9316 121.748 32.0329 121.749H32.0328C25.6982 121.763 23.8979 121.766 23.4119 120.969C23.2189 120.653 23.2331 120.21 23.2529 119.591C23.26 119.37 23.2678 119.126 23.2672 118.858C23.2597 115.885 23.2395 115.865 20.1729 115.865L20.0758 115.865H20.0757C18.7919 115.866 18.159 115.866 17.8472 115.549C17.544 115.242 17.5441 114.635 17.5443 113.44L17.5443 113.346C17.5443 110.219 17.477 110.147 14.5768 110.139C11.7673 110.132 11.6678 110.032 11.6678 107.222C11.6678 104.393 11.7983 104.264 14.6799 104.264C17.5048 104.264 17.5443 104.222 17.5443 101.18ZM29.8697 104.202C28.773 103.743 28.5439 99.524 29.5732 98.7418C30.0811 98.356 34.0481 98.4745 34.4889 98.8887C34.8906 99.2663 35.0573 103.115 34.7009 103.781C34.3593 104.42 31.0752 104.706 29.8697 104.202ZM46.6062 103.781C46.2662 103.146 46.4155 99.3163 46.796 98.9109C47.1734 98.509 51.0197 98.3422 51.6858 98.6988C52.6972 99.2404 52.5673 103.65 51.5238 104.19C50.4938 104.723 46.9525 104.428 46.6062 103.781ZM0.0734238 105.193L0.550062 104.717L1.02654 104.24L3.18499 104.292L3.39555 104.297C4.65769 104.326 5.29666 104.341 5.61994 104.668C5.95141 105.004 5.95097 105.667 5.9501 107.011L5.95 107.229L5.95 107.269C5.95003 108.715 5.95005 109.434 5.59065 109.791C5.23551 110.144 4.52942 110.144 3.12561 110.144H3.0862H1.00192L0.537673 109.68C0.0734232 109.215 0.0734238 109.215 0.0734238 107.204V105.193ZM34.8564 107.204C34.8564 105.123 34.8705 105.03 35.2463 104.654C35.6205 104.28 35.7192 104.264 37.7202 104.264H39.8045L40.2687 104.729C40.733 105.193 40.733 105.194 40.733 107.204C40.733 109.215 40.733 109.215 40.2687 109.68L39.8045 110.144H37.7202H37.6702C36.2756 110.144 35.5722 110.144 35.2174 109.793C34.8563 109.435 34.8564 108.713 34.8564 107.256V107.204ZM127.452 107.204C127.452 105.123 127.466 105.03 127.842 104.654C128.216 104.28 128.315 104.264 130.316 104.264H132.4L132.865 104.729C133.329 105.193 133.329 105.194 133.329 107.204C133.329 109.215 133.329 109.215 132.865 109.68L132.4 110.144H130.316H130.266C128.871 110.144 128.168 110.144 127.813 109.793C127.452 109.435 127.452 108.713 127.452 107.256V107.256V107.204ZM115.858 124.61C115.858 111.063 115.86 110.979 116.187 110.563C116.515 110.145 116.522 110.144 118.796 110.144L118.967 110.144C120.35 110.144 121.042 110.143 121.388 110.489C121.735 110.836 121.735 111.531 121.735 112.922L121.734 113.094C121.734 113.305 121.732 113.5 121.73 113.68V113.68V113.68C121.72 114.521 121.714 115.04 121.964 115.361C122.367 115.878 123.439 115.875 126.243 115.868C126.615 115.867 127.017 115.865 127.452 115.865C127.914 115.865 128.339 115.867 128.729 115.868C131.443 115.877 132.496 115.881 132.911 115.368C133.174 115.042 133.179 114.508 133.188 113.636V113.635C133.19 113.438 133.192 113.222 133.198 112.988L133.203 112.738C133.232 111.447 133.246 110.798 133.578 110.472C133.914 110.142 134.574 110.143 135.901 110.144L136.155 110.144L136.318 110.144C137.695 110.144 138.377 110.144 138.715 110.485C139.047 110.82 139.047 111.484 139.047 112.802L139.047 112.96V112.987C139.047 114.436 139.047 115.156 139.406 115.513C139.761 115.865 140.465 115.865 141.864 115.865H141.889C143.841 115.865 143.977 115.886 144.398 116.249L144.844 116.633V130.388V144.144L144.482 144.506C144.147 144.843 143.964 144.872 141.904 144.92L141.753 144.923C140.398 144.955 139.721 144.97 139.383 145.316C139.046 145.662 139.046 146.337 139.047 147.687L139.047 147.837V147.839C139.047 149.249 139.047 149.956 138.693 150.311C138.337 150.669 137.621 150.669 136.185 150.669H136.183H134.098L133.634 150.204L133.17 149.74V147.662L133.17 147.413C133.171 146.199 133.172 145.582 132.864 145.269C132.546 144.946 131.898 144.946 130.583 144.948L130.323 144.948H130.204C128.831 144.947 128.143 144.947 127.798 145.291C127.452 145.637 127.452 146.33 127.452 147.718L127.452 147.837C127.452 149.804 127.436 149.905 127.062 150.279L126.673 150.669H121.655H116.638L116.248 150.279C115.873 149.904 115.858 149.804 115.853 147.776C115.852 147.514 115.856 147.277 115.859 147.063C115.872 146.28 115.88 145.796 115.649 145.494C115.276 145.006 114.279 144.995 111.669 144.966L111.665 144.966C111.224 144.961 110.737 144.956 110.199 144.948L105.03 144.868L104.647 144.422C104.284 144.001 104.264 143.865 104.264 141.912C104.264 139.07 104.261 139.068 101.433 139.068H101.321C99.9281 139.068 99.234 139.068 98.8884 138.721C98.5454 138.377 98.5456 137.691 98.5458 136.324L98.5458 136.213L98.5457 135.948C98.5444 134.597 98.5438 133.93 98.877 133.593C99.2023 133.264 99.8457 133.25 101.117 133.221H101.117L101.374 133.216L101.641 133.21H101.642C102.93 133.181 103.576 133.167 103.908 132.837C104.241 132.504 104.256 131.852 104.285 130.543L104.291 130.273L104.297 130.046C104.326 128.765 104.34 128.119 104.67 127.795C105.005 127.465 105.665 127.465 106.994 127.466L107.227 127.467C109.28 127.467 109.375 127.481 109.75 127.857L110.14 128.247V133.242C110.14 133.738 110.138 134.192 110.137 134.607C110.127 137.319 110.123 138.367 110.63 138.765C110.949 139.015 111.47 139.007 112.32 138.995H112.321C112.527 138.992 112.752 138.988 112.999 138.988C113.343 138.988 113.646 139.01 113.913 139.029H113.913C114.427 139.065 114.808 139.092 115.089 138.938C115.892 138.498 115.887 136.584 115.866 129.208V129.208V129.205C115.862 127.862 115.858 126.339 115.858 124.61ZM144.764 113.005C144.764 111.199 144.8 110.937 145.094 110.563C145.422 110.145 145.429 110.144 147.703 110.144L147.84 110.144C149.253 110.144 149.954 110.144 150.301 110.494C150.641 110.838 150.641 111.52 150.641 112.871V112.871L150.641 113.005L150.641 113.139V113.139C150.641 114.49 150.641 115.172 150.301 115.516C149.954 115.866 149.253 115.866 147.84 115.865L147.703 115.865L147.565 115.865C146.152 115.866 145.452 115.866 145.105 115.516C144.764 115.172 144.764 114.49 144.764 113.139V113.139L144.764 113.005ZM0.537673 121.281C-0.292513 120.45 -0.118756 116.48 0.766542 116.051C0.953163 115.961 2.02032 115.882 3.13798 115.876L3.16299 115.876C4.5352 115.869 5.23179 115.865 5.58542 116.212C5.95002 116.569 5.95001 117.298 5.95 118.779V118.806C5.95 121.743 5.9473 121.745 3.05571 121.745H1.00192L0.537673 121.281ZM12.132 121.281C11.3271 120.476 11.4897 116.314 12.3394 115.972C13.1101 115.662 16.7767 115.878 17.1544 116.256C17.6052 116.706 17.7535 120.586 17.3407 121.124C16.7008 121.958 12.9225 122.072 12.132 121.281ZM52.1685 118.954C52.1685 116.955 52.2738 116.466 52.79 116.069C52.9753 115.927 54.3497 115.874 57.9839 115.871C58.4536 115.87 58.8853 115.868 59.2821 115.866H59.2824H59.2825C62.0372 115.854 63.1113 115.85 63.5234 116.37C63.7868 116.702 63.7797 117.249 63.7682 118.144V118.145C63.7656 118.347 63.7628 118.566 63.7628 118.805L63.7629 118.977C63.7634 120.36 63.7637 121.053 63.4176 121.399C63.0709 121.746 62.3765 121.746 60.9866 121.746L60.8147 121.745C60.6029 121.745 60.4072 121.743 60.2263 121.741C59.3895 121.731 58.8715 121.725 58.5516 121.973C58.032 122.377 58.035 123.453 58.0429 126.278C58.0439 126.653 58.0451 127.06 58.0451 127.5V132.418L57.5808 132.882C57.1166 133.347 57.1163 133.347 55.107 133.347H55.1068H55.1066C53.0973 133.347 53.097 133.347 52.6327 132.882L52.1685 132.418V130.332V130.307C52.1685 128.889 52.1685 128.179 51.8135 127.824C51.4572 127.467 50.7432 127.467 49.3126 127.467H49.2874L49.1468 127.467C47.7956 127.467 47.1214 127.467 46.7851 127.13C46.4501 126.795 46.4503 126.124 46.4507 124.787L46.4507 124.647C46.4507 121.643 46.51 121.587 49.6509 121.587L49.7452 121.587H49.7453C50.939 121.587 51.5447 121.587 51.8521 121.284C52.1688 120.972 52.1687 120.338 52.1685 119.052L52.1685 118.954ZM69.6394 118.805C69.6394 116.53 69.6405 116.523 70.0579 116.195C70.5477 115.809 79.6901 115.675 80.4941 116.042C81.421 116.464 81.6289 120.421 80.7695 121.281L80.3052 121.745H75.3908C74.9249 121.745 74.4965 121.747 74.1026 121.748H74.1025C71.3616 121.757 70.291 121.761 69.8795 121.242C69.6157 120.909 69.6227 120.362 69.6341 119.464C69.6366 119.263 69.6394 119.044 69.6394 118.805ZM92.6692 118.941C92.6692 116.884 92.8041 116.322 93.3624 116.051C93.5811 115.945 96.4855 115.883 101.531 115.876L109.36 115.865L109.75 116.256C110.126 116.631 110.14 116.724 110.135 118.759C110.135 118.927 110.135 119.085 110.136 119.235C110.14 120.207 110.142 120.804 109.852 121.171C109.392 121.753 108.192 121.751 105.084 121.746C104.783 121.746 104.464 121.745 104.127 121.745H99.2042L98.8751 122.164C98.5811 122.538 98.5458 122.8 98.5458 124.606V124.67C98.5459 126.083 98.5459 126.783 98.1964 127.128C97.8544 127.467 97.1775 127.467 95.8381 127.467H95.838H95.7762L95.6005 127.467C94.2251 127.466 93.5414 127.466 93.1938 127.807C92.8501 128.145 92.8348 128.817 92.8042 130.153L92.8003 130.325L92.7989 130.383C92.7641 131.882 92.7475 132.597 92.382 132.947C92.0494 133.267 91.4279 133.285 90.2407 133.319L90.1906 133.321C87.05 133.413 86.9523 133.331 86.9493 130.605C86.9459 127.491 86.9216 127.467 83.8623 127.467C81.1035 127.467 80.9937 127.332 81.0997 124.069C81.1052 123.9 81.1084 123.743 81.1114 123.596C81.1253 122.915 81.1343 122.474 81.3487 122.186C81.7415 121.658 82.8239 121.644 85.8895 121.603C86.2479 121.598 86.6334 121.593 87.048 121.587C87.5724 121.578 88.0483 121.573 88.4802 121.568L88.4822 121.568C91.1392 121.538 92.1277 121.526 92.4865 121.045C92.6991 120.76 92.6906 120.31 92.677 119.594C92.6733 119.397 92.6692 119.18 92.6692 118.941ZM63.7628 124.649C63.7628 122.474 63.8883 122.044 64.6137 121.738C64.8009 121.659 65.836 121.61 66.9138 121.63C69.6003 121.679 69.6394 121.722 69.6394 124.622V124.663V124.663C69.6394 126.05 69.6395 126.75 69.289 127.105C68.931 127.467 68.2069 127.467 66.743 127.467H66.7011H66.6715C65.1968 127.467 64.4698 127.467 64.1114 127.103C63.7628 126.75 63.7628 126.052 63.7628 124.677V124.649ZM162.718 127.311C161.597 126.711 161.888 121.924 163.059 121.7C164.785 121.37 167.5 121.673 167.797 122.228C168.138 122.864 167.988 126.693 167.608 127.099C167.23 127.501 163.384 127.668 162.718 127.311ZM138.967 122.353L138.592 122.049C138.234 121.759 137.858 121.745 130.321 121.745H122.425L122.08 122.113C121.57 122.656 121.531 137.987 122.038 138.613L122.342 138.988L130.094 139.032C138.387 139.08 138.56 139.065 138.879 138.295C139.002 137.996 139.042 135.543 139.011 130.11L138.967 122.353ZM75.5608 132.725C75.148 132.187 75.2963 128.308 75.7471 127.857C76.1375 127.466 79.6879 127.249 80.5119 127.565C81.4067 127.909 81.6071 132.044 80.7695 132.882C79.979 133.673 76.2007 133.559 75.5608 132.725ZM127.766 132.866C127.236 132.336 127.296 128.403 127.842 127.857C128.388 127.31 132.319 127.25 132.848 127.78C133.515 128.447 133.544 132.249 132.888 132.906C132.232 133.562 128.432 133.533 127.766 132.866ZM58.4636 138.738C57.6574 138.104 57.8751 133.702 58.7304 133.341C59.5306 133.004 63.1289 133.233 63.4596 133.642C63.9453 134.243 63.9126 138.173 63.4175 138.7C62.9148 139.235 59.1322 139.265 58.4636 138.738ZM69.6127 136.103C69.6666 133.859 69.7374 133.592 70.3486 133.333C70.9872 133.061 74.6786 133.234 74.9946 133.551C75.2512 133.807 75.2852 134.32 75.3572 139.008L75.4366 144.182L75.8116 144.485C76.1375 144.749 76.4554 144.789 78.2459 144.789H80.3052L80.7695 145.253L81.2337 145.718V147.778L81.2337 147.98C81.2329 149.277 81.2325 149.926 81.5567 150.259C81.8817 150.592 82.5326 150.607 83.8359 150.636L84.0385 150.641C84.2931 150.647 84.5256 150.649 84.7379 150.651C85.6077 150.658 86.1387 150.663 86.4621 150.924C86.9691 151.335 86.9651 152.376 86.9548 155.053V155.053C86.9532 155.469 86.9515 155.925 86.9515 156.425V161.49L86.5616 161.88C86.1866 162.255 86.0911 162.27 84.0481 162.27L83.8464 162.27H83.8462C82.5809 162.269 81.9377 162.269 81.6034 162.59C81.2577 162.922 81.2422 163.598 81.2108 164.973L81.2059 165.185L81.2003 165.431C81.1719 166.694 81.1575 167.334 80.83 167.659C80.493 167.993 79.8243 167.992 78.4675 167.991L78.21 167.991C77.9852 167.991 77.7781 167.994 77.5871 167.996L77.5853 167.996C76.7217 168.007 76.1906 168.014 75.8644 167.758C75.3431 167.35 75.3453 166.274 75.3509 163.476V163.476V163.474C75.3517 163.086 75.3525 162.665 75.3521 162.209C75.3519 161.985 75.3519 161.771 75.352 161.564L75.3522 161.285C75.3542 158.341 75.355 157.161 74.7782 156.692C74.3925 156.378 73.7488 156.382 72.6748 156.388H72.6712C72.5136 156.389 72.3469 156.39 72.1703 156.39H72.1094C70.8746 156.39 70.257 156.39 69.9482 156.081C69.6393 155.772 69.6393 155.155 69.6394 153.919V153.858C69.6394 150.757 69.5678 150.681 66.6543 150.674C64.6272 150.669 64.5269 150.653 64.1527 150.279L63.7628 149.889V144.868V139.848L64.1527 139.458C64.5266 139.084 64.627 139.068 66.6057 139.068C69.5397 139.068 69.5417 139.066 69.6127 136.103ZM150.81 133.804C150.903 133.63 151.135 133.424 151.326 133.345C151.518 133.267 155.182 133.218 159.51 133.235L167.346 133.267L167.649 133.642C167.943 134.005 167.953 134.467 167.953 147.754V161.49L167.563 161.88C166.968 162.475 163.291 162.48 162.601 161.887L162.156 161.503L162.112 153.511C162.073 146.391 162.04 145.488 161.809 145.234C161.571 144.97 161.17 144.948 156.755 144.948C151.812 144.948 151.099 144.871 150.796 144.306C150.577 143.896 150.59 134.216 150.81 133.804ZM52.1963 141.874C52.2454 139.785 52.2666 139.659 52.6229 139.371C53.2623 138.854 57.1178 138.92 57.6552 139.458L58.0451 139.848V144.868V149.889L57.6552 150.279L57.2654 150.669H52.2765C51.809 150.669 51.3787 150.67 50.9828 150.671C48.1757 150.68 47.0942 150.684 46.6843 150.161C46.4274 149.833 46.4343 149.298 46.4455 148.429C46.448 148.233 46.4507 148.021 46.4507 147.79L46.4507 147.694C46.4506 146.225 46.4505 145.499 46.8135 145.14C47.1687 144.789 47.8713 144.789 49.2614 144.789H49.3541L49.5558 144.789H49.556C50.8213 144.79 51.4645 144.79 51.7988 144.469C52.1446 144.137 52.16 143.461 52.1914 142.086L52.1963 141.874ZM81.5157 144.507C80.8646 143.855 80.8978 140.04 81.5603 139.377C82.0534 138.883 86.0509 138.912 86.584 139.413C87.1117 139.91 87.1518 143.878 86.6345 144.434C85.9928 145.123 82.1857 145.177 81.5157 144.507ZM93.1105 144.506C92.5431 143.939 92.5538 139.833 93.1236 139.372C93.7628 138.854 97.6183 138.92 98.1559 139.458C98.7721 140.074 98.7569 143.899 98.1359 144.483C97.5223 145.06 93.6814 145.078 93.1105 144.506ZM145.486 150.57C144.591 150.227 144.391 146.091 145.229 145.253C146.019 144.463 149.797 144.577 150.437 145.411C150.85 145.949 150.702 149.828 150.251 150.279C149.861 150.669 146.31 150.887 145.486 150.57ZM58.0451 153.536C58.0451 151.458 58.0672 151.296 58.3927 150.993C58.7077 150.699 58.9458 150.669 60.934 150.669L61.233 150.669H61.2332C62.4951 150.667 63.1284 150.666 63.4458 150.982C63.7656 151.301 63.7648 151.941 63.7631 153.227L63.7628 153.529C63.7628 155.542 63.7326 155.784 63.4452 156.072C63.1577 156.36 62.9158 156.39 60.9039 156.39L60.5946 156.39C59.3172 156.392 58.6788 156.393 58.3603 156.074C58.0421 155.756 58.043 155.119 58.0448 153.845L58.0451 153.536ZM104.264 153.529C104.264 151.723 104.299 151.461 104.593 151.088C104.921 150.67 104.928 150.669 107.202 150.669L107.339 150.669C108.752 150.668 109.453 150.668 109.8 151.018C110.141 151.362 110.141 152.044 110.14 153.396L110.14 153.529L110.14 153.663C110.141 155.015 110.141 155.697 109.8 156.04C109.453 156.391 108.752 156.39 107.339 156.39L107.202 156.39L107.065 156.39C105.651 156.39 104.951 156.391 104.604 156.04C104.263 155.697 104.263 155.015 104.264 153.663L104.264 153.529ZM139.047 156.339C139.047 151.491 139.053 151.398 139.392 151.037C139.769 150.635 143.616 150.468 144.282 150.824C144.876 151.143 144.923 151.762 144.923 159.33C144.923 166.898 144.876 167.517 144.282 167.836C144.11 167.928 141.95 167.991 138.995 167.991C138.502 167.991 138.05 167.993 137.637 167.994C134.917 168.004 133.869 168.008 133.472 167.501C133.223 167.183 133.231 166.665 133.243 165.821V165.821L133.243 165.819C133.246 165.615 133.249 165.393 133.249 165.149L133.249 164.931C133.248 163.568 133.248 162.887 133.588 162.538C133.929 162.19 134.61 162.175 135.972 162.144L136.19 162.139C136.422 162.133 136.636 162.131 136.833 162.129C137.693 162.121 138.222 162.115 138.546 161.855C139.062 161.441 139.058 160.38 139.049 157.63C139.048 157.236 139.047 156.806 139.047 156.339ZM150.641 153.529C150.641 151.516 150.671 151.274 150.959 150.987C151.246 150.699 151.488 150.669 153.5 150.669C155.512 150.669 155.754 150.699 156.041 150.987C156.328 151.274 156.359 151.516 156.359 153.529C156.359 155.542 156.328 155.784 156.041 156.072C155.754 156.36 155.512 156.39 153.5 156.39C151.488 156.39 151.246 156.36 150.959 156.072C150.671 155.784 150.641 155.542 150.641 153.529ZM52.2012 162.562C52.1505 157.341 52.1626 157.192 52.6769 156.712C52.9884 156.422 53.2325 156.39 55.144 156.39H55.1948C56.6197 156.39 57.3323 156.39 57.6887 156.746C58.0452 157.103 58.0451 157.816 58.0451 159.242V159.293L58.0451 159.394C58.0449 160.803 58.0448 161.481 58.3837 161.808C58.6986 162.111 59.3061 162.111 60.4781 162.111H60.5688C63.7061 162.111 63.7628 162.166 63.7628 165.193C63.7628 165.433 63.7661 165.652 63.7691 165.853C63.7813 166.68 63.7889 167.19 63.5445 167.503C63.1516 168.007 62.1072 168.004 59.3837 167.994C58.9728 167.993 58.5236 167.991 58.0327 167.991C53.3132 167.991 52.9744 167.972 52.6229 167.688L52.2479 167.384L52.2012 162.562ZM63.9664 161.648C63.5536 161.11 63.702 157.231 64.1527 156.78C64.6033 156.329 68.4801 156.181 69.0179 156.594C70.0003 157.348 69.9081 161.634 68.8997 162.094C67.8518 162.571 64.4383 162.263 63.9664 161.648ZM115.858 157.17L116.248 156.78C116.623 156.404 116.716 156.39 118.749 156.395C121.672 156.402 121.734 156.467 121.734 159.478L121.734 159.577C121.734 160.863 121.734 161.497 122.051 161.809C122.358 162.111 122.964 162.111 124.158 162.111H124.252C127.39 162.111 127.452 162.171 127.452 165.15C127.452 167.093 127.426 167.284 127.107 167.623L126.761 167.991H121.639H116.516L116.187 167.572C115.87 167.169 115.858 166.971 115.858 162.162V157.17ZM98.5458 165.195C98.5458 162.771 98.5808 162.628 99.2447 162.335C99.633 162.163 100.755 162.124 104.555 162.154L109.374 162.191L109.757 162.636C110.35 163.326 110.345 167.006 109.75 167.601L109.36 167.991H104.321C103.852 167.991 103.422 167.992 103.026 167.994L103.018 167.994C100.233 168.003 99.1685 168.006 98.769 167.492C98.522 167.175 98.529 166.66 98.5403 165.826C98.543 165.633 98.5458 165.424 98.5458 165.195ZM150.641 165.195C150.641 162.771 150.676 162.628 151.34 162.335C151.728 162.163 152.85 162.124 156.651 162.154L161.469 162.191L161.852 162.636C162.445 163.326 162.44 167.006 161.845 167.601L161.456 167.991H156.416C155.944 167.991 155.511 167.993 155.113 167.994C152.328 168.003 151.264 168.006 150.864 167.492C150.617 167.175 150.624 166.66 150.635 165.826V165.826C150.638 165.633 150.641 165.424 150.641 165.195ZM127.509 10.1634C127.509 4.55072 132.059 0.000776999 137.671 0.000776999H157.838C163.45 0.000776999 168 4.55071 168 10.1633V30.5269C168 36.1396 163.45 40.6895 157.838 40.6895H137.671C132.059 40.6895 127.509 36.1396 127.509 30.5269V10.1634ZM131.32 11.4376C131.32 7.2281 134.732 3.81564 138.942 3.81564H156.568C160.777 3.81564 164.189 7.22809 164.189 11.4376V29.2533C164.189 33.4628 160.777 36.8752 156.568 36.8752H138.942C134.732 36.8752 131.32 33.4628 131.32 29.2533V11.4376ZM144.182 11.6034C141.375 11.6034 139.1 13.8784 139.1 16.6847V24.0056C139.1 26.8119 141.375 29.0869 144.182 29.0869H151.486C154.292 29.0869 156.567 26.8119 156.567 24.0056V16.6847C156.567 13.8784 154.292 11.6034 151.486 11.6034H144.182ZM10.1626 127.311C4.54994 127.311 0 131.861 0 137.474V157.838C0 163.45 4.54995 168 10.1626 168H30.3289C35.9416 168 40.4915 163.45 40.4915 157.838V137.474C40.4915 131.861 35.9415 127.311 30.3289 127.311H10.1626ZM11.4329 131.126C7.22342 131.126 3.81097 134.538 3.81097 138.748V156.564C3.81097 160.773 7.22342 164.186 11.4329 164.186H29.0586C33.2681 164.186 36.6805 160.773 36.6805 156.564V138.748C36.6805 134.538 33.2681 131.126 29.0586 131.126H11.4329ZM11.5917 143.995C11.5917 141.189 13.8667 138.914 16.673 138.914H23.9773C26.7836 138.914 29.0586 141.189 29.0586 143.995V151.316C29.0586 154.122 26.7836 156.397 23.9773 156.397H16.673C13.8667 156.397 11.5917 154.122 11.5917 151.316V143.995Z" fill="url('#paint0_linear_7489_51258')"></path>
    <defs>
        <linearGradient id="paint0_linear_7489_51258" x1="0" y1="0" x2="168.159" y2="167.841" gradientUnits="userSpaceOnUse">
            <stop stop-color="#34302C"></stop>
            <stop offset="0.295131" stop-color="#FD84E3"></stop>
            <stop offset="0.857654" stop-color="#34302C"></stop>
        </linearGradient>
    </defs>
</svg>
