<svg width="255" height="50" viewBox="0 0 255 50" fill="none" xmlns="http://www.w3.org/2000/svg">
<g clip-path="url(#clip0_7706_60086)">
<path d="M54.8207 11.2008L65.3831 0L51.4 10.2885L43.4662 16.1253L39.3928 19.1214C38.0245 20.1292 24.2675 30.2477 19.4476 33.7933L18.3199 34.6228C18.1519 34.7472 18.0192 34.8445 17.9301 34.909L17.9011 34.9297C17.8285 34.9834 17.7891 35.0124 17.7891 35.0124L16.9827 35.6055L11.5139 39.6279L0 48.0979L11.7067 43.9366C13.2885 43.3748 15.0485 43.659 16.3711 44.6934C20.5816 47.9945 25.8866 49.9579 31.6519 49.9476C45.2907 49.9248 56.529 38.5021 56.3569 24.8463C56.311 21.3297 55.5359 17.9873 54.1717 14.9683C53.5997 13.7035 53.8669 12.2106 54.8207 11.2008ZM31.7783 40.0924C28.7392 40.1255 25.9073 39.2486 23.5357 37.7162C23.5233 37.7017 22.7646 36.8059 22.7376 36.0328C22.7086 35.251 23.2165 34.6455 23.2165 34.6455L43.0497 20.04C44.2479 19.4449 45.6948 20.0981 46.0328 21.396C46.3603 22.6526 46.5283 23.9713 46.5138 25.3336C46.429 33.4076 39.8448 40.0034 31.7783 40.0924Z" fill="#5C5C5C" fill-opacity="0.2"/>
<path d="M54.8207 11.2008L65.3831 0L51.4 10.2885L43.4662 16.1253L39.3928 19.1214C38.0245 20.1292 24.2675 30.2477 19.4476 33.7933L18.3199 34.6228C18.1519 34.7472 18.0192 34.8445 17.9301 34.909L17.9011 34.9297C17.8285 34.9834 17.7891 35.0124 17.7891 35.0124L16.9827 35.6055L11.5139 39.6279L0 48.0979L11.7067 43.9366C13.2885 43.3748 15.0485 43.659 16.3711 44.6934C20.5816 47.9945 25.8866 49.9579 31.6519 49.9476C45.2907 49.9248 56.529 38.5021 56.3569 24.8463C56.311 21.3297 55.5359 17.9873 54.1717 14.9683C53.5997 13.7035 53.8669 12.2106 54.8207 11.2008ZM31.7783 40.0924C28.7392 40.1255 25.9073 39.2486 23.5357 37.7162C23.5233 37.7017 22.7646 36.8059 22.7376 36.0328C22.7086 35.251 23.2165 34.6455 23.2165 34.6455L43.0497 20.04C44.2479 19.4449 45.6948 20.0981 46.0328 21.396C46.3603 22.6526 46.5283 23.9713 46.5138 25.3336C46.429 33.4076 39.8448 40.0034 31.7783 40.0924Z" fill="url(#paint0_linear_7706_60086)"/>
<path d="M54.8207 11.2008L65.3831 0L51.4 10.2885L43.4662 16.1253L39.3928 19.1214C38.0245 20.1292 24.2675 30.2477 19.4476 33.7933L18.3199 34.6228C18.1519 34.7472 18.0192 34.8445 17.9301 34.909L17.9011 34.9297C17.8285 34.9834 17.7891 35.0124 17.7891 35.0124L16.9827 35.6055L11.5139 39.6279L0 48.0979L11.7067 43.9366C13.2885 43.3748 15.0485 43.659 16.3711 44.6934C20.5816 47.9945 25.8866 49.9579 31.6519 49.9476C45.2907 49.9248 56.529 38.5021 56.3569 24.8463C56.311 21.3297 55.5359 17.9873 54.1717 14.9683C53.5997 13.7035 53.8669 12.2106 54.8207 11.2008ZM31.7783 40.0924C28.7392 40.1255 25.9073 39.2486 23.5357 37.7162C23.5233 37.7017 22.7646 36.8059 22.7376 36.0328C22.7086 35.251 23.2165 34.6455 23.2165 34.6455L43.0497 20.04C44.2479 19.4449 45.6948 20.0981 46.0328 21.396C46.3603 22.6526 46.5283 23.9713 46.5138 25.3336C46.429 33.4076 39.8448 40.0034 31.7783 40.0924Z" fill="url(#paint1_linear_7706_60086)"/>
<path d="M50.5543 9.02478C47.1918 5.09764 43.0353 3.04076 41.1012 2.23626C40.5163 1.99989 39.9194 1.78218 39.3098 1.58727C26.4527 -2.52233 12.5568 4.50878 8.28209 17.3C5.85036 24.5757 6.98433 32.1584 10.718 38.1838L14.1987 35.6356L18.7055 32.3367L18.8362 32.2413C17.9986 30.9205 17.4741 29.6039 17.1922 28.1193C17.1445 27.997 17.1072 27.8705 17.0823 27.7357C16.6698 25.3947 16.8107 22.9211 17.6068 20.4993C17.7312 20.1199 17.8763 19.7487 18.0318 19.3838C20.25 13.9596 25.5757 10.1382 31.7971 10.1382C36.1381 10.1382 39.9525 11.8571 42.6518 14.7932C42.6539 14.7952 42.6518 14.8035 42.6498 14.8097L45.8691 12.4543L50.5543 9.02478Z" fill="url(#paint2_linear_7706_60086)"/>
<path d="M50.5543 9.02478C47.1918 5.09764 43.0353 3.04076 41.1012 2.23626C40.5163 1.99989 39.9194 1.78218 39.3098 1.58727C26.4527 -2.52233 12.5568 4.50878 8.28209 17.3C5.85036 24.5757 6.98433 32.1584 10.718 38.1838L14.1987 35.6356L18.7055 32.3367L18.8362 32.2413C17.9986 30.9205 17.4741 29.6039 17.1922 28.1193C17.1445 27.997 17.1072 27.8705 17.0823 27.7357C16.6698 25.3947 16.8107 22.9211 17.6068 20.4993C17.7312 20.1199 17.8763 19.7487 18.0318 19.3838C20.25 13.9596 25.5757 10.1382 31.7971 10.1382C36.1381 10.1382 39.9525 11.8571 42.6518 14.7932C42.6539 14.7952 42.6518 14.8035 42.6498 14.8097L45.8691 12.4543L50.5543 9.02478Z" fill="url(#paint3_linear_7706_60086)"/>
<path d="M50.5543 9.02478C47.1918 5.09764 43.0353 3.04076 41.1012 2.23626C40.5163 1.99989 39.9194 1.78218 39.3098 1.58727C26.4527 -2.52233 12.5568 4.50878 8.28209 17.3C5.85036 24.5757 6.98433 32.1584 10.718 38.1838L14.1987 35.6356L18.7055 32.3367L18.8362 32.2413C17.9986 30.9205 17.4741 29.6039 17.1922 28.1193C17.1445 27.997 17.1072 27.8705 17.0823 27.7357C16.6698 25.3947 16.8107 22.9211 17.6068 20.4993C17.7312 20.1199 17.8763 19.7487 18.0318 19.3838C20.25 13.9596 25.5757 10.1382 31.7971 10.1382C36.1381 10.1382 39.9525 11.8571 42.6518 14.7932C42.6539 14.7952 42.6518 14.8035 42.6498 14.8097L45.8691 12.4543L50.5543 9.02478Z" fill="url(#paint4_linear_7706_60086)"/>
<path d="M79.5502 32.6784L69.3795 32.6674L67.6629 36.1177L62.166 36.1115L71.7326 17.8789L77.2295 17.8849L86.7557 36.1384L81.2591 36.1325L79.5502 32.6784ZM71.1495 29.1109L77.8146 29.1182L74.5026 22.3963L71.1495 29.1109Z" fill="#2C3034"/>
<path d="M110.257 24.1479C110.256 25.0596 110.122 25.9003 109.856 26.6701C109.59 27.4311 109.16 28.0901 108.566 28.6471C107.981 29.1952 107.22 29.6237 106.281 29.9325C105.342 30.2413 104.2 30.3949 102.855 30.3935L94.6757 30.3845L94.6695 36.1469L89.7437 36.1417L89.7636 17.8984L102.868 17.9127C104.214 17.9142 105.355 18.0703 106.293 18.3812C107.231 18.6832 107.992 19.1133 108.576 19.6716C109.168 20.221 109.597 20.8765 109.862 21.638C110.126 22.3995 110.258 23.2362 110.257 24.1479ZM105.278 24.2221C105.278 23.7972 105.217 23.4343 105.093 23.1332C104.978 22.8232 104.784 22.5707 104.51 22.3757C104.236 22.1807 103.877 22.0387 103.435 21.9497C102.992 21.8518 102.448 21.8025 101.802 21.8019L94.685 21.7941L94.6802 26.4943L101.797 26.502C102.443 26.5027 102.987 26.4679 103.43 26.3976C103.873 26.3184 104.231 26.1904 104.506 26.0137C104.781 25.8281 104.975 25.5894 105.091 25.2974C105.215 25.0054 105.277 24.647 105.278 24.2221Z" fill="#2C3034"/>
<path d="M137.951 27.0857C137.949 28.6524 137.66 30.0374 137.083 31.2406C136.506 32.4349 135.682 33.4343 134.61 34.2386C133.538 35.043 132.236 35.6523 130.704 36.0664C129.182 36.4719 127.468 36.6737 125.565 36.6716C123.662 36.6695 121.941 36.4644 120.401 36.0554C118.87 35.6378 117.565 35.0254 116.486 34.2188C115.407 33.4122 114.576 32.411 113.994 31.2154C113.411 30.0109 113.12 28.6254 113.122 27.0586C113.123 25.4919 113.417 24.1114 114.003 22.9171C114.588 21.7139 115.421 20.7101 116.502 19.9058C117.583 19.1015 118.889 18.4966 120.421 18.0911C121.962 17.6767 123.683 17.4706 125.586 17.4727C127.49 17.4747 129.202 17.6846 130.724 18.1023C132.255 18.5112 133.555 19.1189 134.626 19.9256C135.696 20.7322 136.518 21.7378 137.092 22.9422C137.666 24.1378 137.952 25.519 137.951 27.0857ZM132.971 27.0803C132.972 26.3987 132.862 25.7214 132.642 25.0485C132.43 24.3667 132.046 23.7555 131.488 23.2149C130.94 22.6744 130.188 22.2354 129.233 21.898C128.277 21.5606 127.06 21.3911 125.582 21.3895C124.591 21.3884 123.719 21.4671 122.966 21.6256C122.214 21.7753 121.563 21.987 121.014 22.2608C120.465 22.5346 120.004 22.8572 119.632 23.2286C119.26 23.5911 118.963 23.9846 118.741 24.4093C118.519 24.8251 118.36 25.2631 118.262 25.7232C118.173 26.1746 118.128 26.6215 118.127 27.0641C118.127 27.5155 118.171 27.9714 118.258 28.4318C118.355 28.8922 118.514 29.3349 118.735 29.7601C118.956 30.1763 119.252 30.5661 119.623 30.9294C119.995 31.2928 120.455 31.6119 121.003 31.8869C121.552 32.1531 122.202 32.3662 122.954 32.5264C123.706 32.6777 124.578 32.7538 125.57 32.7549C127.048 32.7565 128.265 32.5897 129.222 32.2544C130.178 31.9191 130.931 31.4817 131.48 30.9424C132.038 30.4031 132.424 29.7971 132.637 29.1246C132.859 28.4433 132.971 27.7618 132.971 27.0803Z" fill="#2C3034"/>
<path d="M142.428 36.2001L142.448 17.957L147.374 17.9624L147.358 32.209L160.675 32.2235L160.671 36.2201L142.428 36.2001Z" fill="#2C3034"/>
<path d="M164.628 36.2235L164.648 17.9805L169.573 17.9858L169.558 32.2324L182.875 32.247L182.871 36.2435L164.628 36.2235Z" fill="#2C3034"/>
<path d="M210.444 27.1658C210.443 28.7325 210.154 30.1175 209.577 31.3207C209 32.515 208.176 33.5143 207.104 34.3186C206.032 35.123 204.73 35.7323 203.198 36.1468C201.676 36.5523 199.963 36.754 198.06 36.752C196.156 36.7499 194.435 36.5444 192.895 36.1354C191.364 35.7178 190.06 35.1054 188.981 34.2989C187.902 33.4922 187.071 32.4911 186.487 31.2955C185.905 30.091 185.614 28.7054 185.616 27.1387C185.617 25.572 185.911 24.1915 186.497 22.9971C187.082 21.794 187.915 20.7902 188.996 19.9859C190.077 19.1816 191.383 18.5767 192.915 18.1712C194.455 17.7568 196.177 17.5507 198.081 17.5527C199.984 17.5549 201.696 17.7647 203.218 18.1824C204.749 18.5912 206.05 19.199 207.12 20.0056C208.19 20.8123 209.012 21.8179 209.586 23.0223C210.16 24.2179 210.446 25.5991 210.444 27.1658ZM205.465 27.1604C205.466 26.4788 205.356 25.8015 205.136 25.1286C204.924 24.4467 204.54 23.8356 203.983 23.295C203.434 22.7545 202.683 22.3155 201.727 21.9781C200.771 21.6407 199.554 21.4712 198.076 21.4696C197.085 21.4685 196.213 21.5472 195.46 21.7057C194.708 21.8554 194.057 22.0671 193.508 22.3409C192.959 22.6147 192.498 22.9373 192.126 23.3086C191.754 23.6712 191.457 24.0647 191.235 24.4894C191.013 24.9052 190.854 25.3431 190.756 25.8033C190.667 26.2546 190.622 26.7016 190.621 27.1442C190.621 27.5956 190.665 28.0515 190.753 28.5119C190.85 28.9723 191.008 29.415 191.229 29.8402C191.45 30.2564 191.746 30.6462 192.117 31.0095C192.489 31.3729 192.949 31.692 193.497 31.967C194.046 32.2332 194.696 32.4463 195.448 32.6064C196.201 32.7577 197.072 32.8339 198.064 32.835C199.542 32.8366 200.759 32.6698 201.716 32.3344C202.672 31.9991 203.425 31.5618 203.974 31.0225C204.533 30.4831 204.918 29.8772 205.131 29.2047C205.353 28.5234 205.465 27.8419 205.465 27.1604Z" fill="#2C3034"/>
<path d="M229.253 32.7097L229.249 36.2947L224.363 36.2892L224.367 32.7044L212.749 32.6917L212.753 28.8015L223.214 18.0449L229.269 18.0515L229.257 28.8195L233.399 28.824L233.395 32.7142L229.253 32.7097ZM224.378 22.3348L218.091 28.8073L224.371 28.8141L224.378 22.3348Z" fill="#2C3034"/>
<path d="M235.303 36.3016L235.307 33.0353C237.68 31.9491 239.739 30.9777 241.484 30.121C243.238 29.2643 244.686 28.4869 245.828 27.7889C246.98 27.0909 247.835 26.4545 248.393 25.8798C248.951 25.2962 249.231 24.7344 249.231 24.1945C249.231 24.044 249.214 23.8758 249.179 23.6898C249.152 23.4951 249.082 23.3003 248.967 23.1054C248.861 22.9017 248.702 22.7024 248.489 22.5074C248.277 22.3125 247.985 22.1439 247.614 22.0019C247.242 21.8511 246.782 21.731 246.233 21.6419C245.685 21.5439 245.021 21.4946 244.242 21.4937C243.525 21.4929 242.777 21.5408 241.998 21.6373C241.219 21.725 240.449 21.8525 239.687 22.0198C238.926 22.1872 238.191 22.39 237.483 22.6282C236.774 22.8664 236.123 23.1357 235.53 23.436L235.535 19.0943C236.757 18.6707 238.111 18.3182 239.599 18.0365C241.095 17.746 242.67 17.6017 244.326 17.6035C245.875 17.6052 247.26 17.7439 248.481 18.0196C249.703 18.2954 250.733 18.6948 251.574 19.218C252.423 19.7323 253.068 20.3615 253.51 21.1055C253.96 21.8407 254.185 22.6729 254.184 23.6024C254.184 24.1158 254.126 24.5981 254.01 25.0494C253.904 25.4919 253.708 25.9254 253.425 26.3499C253.141 26.7745 252.755 27.2034 252.268 27.6366C251.789 28.0609 251.178 28.5117 250.434 28.9889C249.699 29.4661 248.818 29.9829 247.79 30.5395C246.763 31.0872 245.567 31.6966 244.204 32.3678L254.56 32.3791L254.556 36.3226L235.303 36.3016Z" fill="#2C3034"/>
</g>
<defs>
<linearGradient id="paint0_linear_7706_60086" x1="1.75962e-06" y1="-1.04058" x2="51.6083" y2="56.2638" gradientUnits="userSpaceOnUse">
<stop stop-color="#E890E7"/>
<stop offset="0.489583" stop-color="#A070DE"/>
<stop offset="1" stop-color="#87B5F1"/>
</linearGradient>
<linearGradient id="paint1_linear_7706_60086" x1="0" y1="24.9738" x2="65.3831" y2="24.9738" gradientUnits="userSpaceOnUse">
<stop stop-color="#F368E0"/>
<stop offset="0.494792" stop-color="#5F27CD"/>
<stop offset="1" stop-color="#00D2D3"/>
</linearGradient>
<linearGradient id="paint2_linear_7706_60086" x1="-6.11874" y1="-17.2249" x2="39.2577" y2="33.1567" gradientUnits="userSpaceOnUse">
<stop stop-color="#E890E7"/>
<stop offset="0.4896" stop-color="#A070DE"/>
<stop offset="1" stop-color="#87B5F1"/>
</linearGradient>
<linearGradient id="paint3_linear_7706_60086" x1="6.99705" y1="-0.372808" x2="46.227" y2="38.0025" gradientUnits="userSpaceOnUse">
<stop stop-color="#E890E7"/>
<stop offset="0.489583" stop-color="#A070DE"/>
<stop offset="1" stop-color="#87B5F1"/>
</linearGradient>
<linearGradient id="paint4_linear_7706_60086" x1="6.99705" y1="19.299" x2="50.5543" y2="19.299" gradientUnits="userSpaceOnUse">
<stop stop-color="#F368E0"/>
<stop offset="0.494792" stop-color="#5F27CD"/>
<stop offset="1" stop-color="#00D2D3"/>
</linearGradient>
<clipPath id="clip0_7706_60086">
<rect width="254.828" height="50" fill="white"/>
</clipPath>
</defs>
</svg>
