<svg viewBox="0 0 205 24" fill="none" xmlns="http://www.w3.org/2000/svg">
<path d="M5.3129 23.1509H0.898438L8.93588 0.0998535H14.0415L22.0901 23.1509H17.6756L11.5779 4.82713H11.3995L5.3129 23.1509ZM5.45782 14.1128H17.4973V17.467H5.45782V14.1128Z" fill="#2C3034"/>
<path d="M39.1179 10.4323L35.4391 10.8375C35.3351 10.4623 35.153 10.1097 34.8929 9.77951C34.6402 9.44935 34.2984 9.18297 33.8673 8.98037C33.4363 8.77778 32.9086 8.67648 32.2844 8.67648C31.4446 8.67648 30.7386 8.86032 30.1663 9.22799C29.6015 9.59567 29.3228 10.0721 29.3302 10.6574C29.3228 11.1602 29.5049 11.5691 29.8765 11.8843C30.2555 12.1994 30.8798 12.4583 31.7493 12.6609L34.67 13.2912C36.2901 13.6439 37.494 14.2029 38.2818 14.9683C39.077 15.7336 39.4783 16.7354 39.4857 17.9734C39.4783 19.0615 39.1625 20.0219 38.5382 20.8548C37.9214 21.6802 37.063 22.3255 35.9631 22.7908C34.8632 23.256 33.5998 23.4886 32.1729 23.4886C30.0771 23.4886 28.3901 23.0459 27.1119 22.1605C25.8336 21.2675 25.0718 20.0257 24.8266 18.4349L28.7617 18.0522C28.9401 18.8326 29.3191 19.4216 29.8988 19.8193C30.4785 20.217 31.2328 20.4159 32.1617 20.4159C33.1204 20.4159 33.8896 20.217 34.4693 19.8193C35.0564 19.4216 35.35 18.9302 35.35 18.3449C35.35 17.8496 35.1605 17.4407 34.7814 17.118C34.4099 16.7954 33.8302 16.5478 33.0424 16.3752L30.1217 15.7561C28.4793 15.411 27.2642 14.8294 26.4765 14.0115C25.6887 13.1861 25.2985 12.1431 25.306 10.8825C25.2985 9.81703 25.5846 8.89408 26.1643 8.11371C26.7514 7.32583 27.5652 6.71804 28.6056 6.29033C29.6535 5.85512 30.8612 5.63752 32.2286 5.63752C34.2352 5.63752 35.8145 6.06897 36.9664 6.93189C38.1257 7.7948 38.8429 8.96161 39.1179 10.4323Z" fill="#2C3034"/>
<path d="M52.3053 5.86262V9.01414H42.4619V5.86262H52.3053ZM44.8921 1.72063H48.9276V17.9509C48.9276 18.4987 49.0093 18.9189 49.1728 19.2115C49.3437 19.4967 49.5667 19.6918 49.8417 19.7968C50.1166 19.9019 50.4213 19.9544 50.7558 19.9544C51.0084 19.9544 51.2388 19.9356 51.4469 19.8981C51.6624 19.8606 51.8259 19.8268 51.9374 19.7968L52.6174 22.9821C52.4019 23.0571 52.0935 23.1397 51.6922 23.2297C51.2983 23.3198 50.8152 23.3723 50.243 23.3873C49.2323 23.4173 48.3219 23.2635 47.5118 22.9258C46.7017 22.5807 46.0589 22.0479 45.5833 21.3276C45.1151 20.6072 44.8847 19.7068 44.8921 18.6263V1.72063Z" fill="#2C3034"/>
<path d="M56.622 23.1509V5.86262H60.5348V8.74401H60.7132C61.0253 7.74603 61.5604 6.97691 62.3184 6.43665C63.0839 5.88889 63.9571 5.61501 64.9381 5.61501C65.1611 5.61501 65.41 5.62626 65.685 5.64877C65.9674 5.66378 66.2015 5.69004 66.3873 5.72756V9.47561C66.2164 9.41558 65.9451 9.36306 65.5735 9.31804C65.2094 9.26551 64.8564 9.23925 64.5145 9.23925C63.7788 9.23925 63.1173 9.40057 62.5302 9.72323C61.9506 10.0384 61.4935 10.4773 61.1591 11.0401C60.8246 11.6029 60.6574 12.2519 60.6574 12.9873V23.1509H56.622Z" fill="#2C3034"/>
<path d="M76.7739 23.4886C75.1017 23.4886 73.6525 23.1172 72.4263 22.3743C71.2001 21.6315 70.2488 20.5922 69.5725 19.2566C68.9037 17.9209 68.5692 16.3602 68.5692 14.5743C68.5692 12.7885 68.9037 11.224 69.5725 9.88081C70.2488 8.53766 71.2001 7.49466 72.4263 6.7518C73.6525 6.00895 75.1017 5.63752 76.7739 5.63752C78.446 5.63752 79.8952 6.00895 81.1215 6.7518C82.3477 7.49466 83.2953 8.53766 83.9641 9.88081C84.6404 11.224 84.9785 12.7885 84.9785 14.5743C84.9785 16.3602 84.6404 17.9209 83.9641 19.2566C83.2953 20.5922 82.3477 21.6315 81.1215 22.3743C79.8952 23.1172 78.446 23.4886 76.7739 23.4886ZM76.7962 20.2245C77.7029 20.2245 78.4609 19.9732 79.0703 19.4704C79.6797 18.9602 80.133 18.2773 80.4303 17.4219C80.735 16.5665 80.8874 15.6136 80.8874 14.5631C80.8874 13.505 80.735 12.5483 80.4303 11.6929C80.133 10.83 79.6797 10.1434 79.0703 9.63319C78.4609 9.12294 77.7029 8.86782 76.7962 8.86782C75.8672 8.86782 75.0943 9.12294 74.4775 9.63319C73.8681 10.1434 73.411 10.83 73.1063 11.6929C72.809 12.5483 72.6604 13.505 72.6604 14.5631C72.6604 15.6136 72.809 16.5665 73.1063 17.4219C73.411 18.2773 73.8681 18.9602 74.4775 19.4704C75.0943 19.9732 75.8672 20.2245 76.7962 20.2245Z" fill="#2C3034"/>
<path d="M102.879 10.4323L99.1999 10.8375C99.0959 10.4623 98.9138 10.1097 98.6537 9.77951C98.401 9.44935 98.0591 9.18297 97.6281 8.98037C97.1971 8.77778 96.6694 8.67648 96.0451 8.67648C95.2053 8.67648 94.4993 8.86032 93.9271 9.22799C93.3623 9.59567 93.0836 10.0721 93.091 10.6574C93.0836 11.1602 93.2657 11.5691 93.6373 11.8843C94.0163 12.1994 94.6405 12.4583 95.5101 12.6609L98.4307 13.2912C100.051 13.6439 101.255 14.2029 102.043 14.9683C102.838 15.7336 103.239 16.7354 103.247 17.9734C103.239 19.0615 102.923 20.0219 102.299 20.8548C101.682 21.6802 100.824 22.3255 99.7239 22.7908C98.624 23.256 97.3606 23.4886 95.9337 23.4886C93.8379 23.4886 92.1509 23.0459 90.8726 22.1605C89.5944 21.2675 88.8326 20.0257 88.5874 18.4349L92.5225 18.0522C92.7009 18.8326 93.0799 19.4216 93.6595 19.8193C94.2392 20.217 94.9935 20.4159 95.9225 20.4159C96.8812 20.4159 97.6504 20.217 98.2301 19.8193C98.8172 19.4216 99.1107 18.9302 99.1107 18.3449C99.1107 17.8496 98.9212 17.4407 98.5422 17.118C98.1706 16.7954 97.5909 16.5478 96.8032 16.3752L93.8825 15.7561C92.2401 15.411 91.025 14.8294 90.2372 14.0115C89.4495 13.1861 89.0593 12.1431 89.0667 10.8825C89.0593 9.81703 89.3454 8.89408 89.9251 8.11371C90.5122 7.32583 91.326 6.71804 92.3664 6.29033C93.4143 5.85512 94.622 5.63752 95.9894 5.63752C97.996 5.63752 99.5752 6.06897 100.727 6.93189C101.886 7.7948 102.604 8.96161 102.879 10.4323Z" fill="#2C3034"/>
<path d="M116.066 5.86262V9.01414H106.223V5.86262H116.066ZM108.653 1.72063H112.688V17.9509C112.688 18.4987 112.77 18.9189 112.934 19.2115C113.105 19.4967 113.327 19.6918 113.602 19.7968C113.877 19.9019 114.182 19.9544 114.517 19.9544C114.769 19.9544 115 19.9356 115.208 19.8981C115.423 19.8606 115.587 19.8268 115.698 19.7968L116.378 22.9821C116.163 23.0571 115.854 23.1397 115.453 23.2297C115.059 23.3198 114.576 23.3723 114.004 23.3873C112.993 23.4173 112.083 23.2635 111.273 22.9258C110.463 22.5807 109.82 22.0479 109.344 21.3276C108.876 20.6072 108.645 19.7068 108.653 18.6263V1.72063Z" fill="#2C3034"/>
<path d="M125.31 23.4999C124.225 23.4999 123.248 23.3048 122.378 22.9146C121.516 22.5169 120.832 21.9316 120.327 21.1587C119.829 20.3859 119.58 19.4329 119.58 18.2999C119.58 17.3244 119.758 16.5177 120.115 15.8799C120.472 15.2421 120.959 14.7319 121.576 14.3492C122.192 13.9665 122.887 13.6776 123.66 13.4825C124.44 13.2799 125.247 13.1336 126.079 13.0436C127.082 12.9385 127.896 12.8447 128.521 12.7622C129.145 12.6721 129.598 12.5371 129.881 12.357C130.17 12.1694 130.315 11.8805 130.315 11.4903V11.4228C130.315 10.5749 130.066 9.91832 129.568 9.4531C129.07 8.98788 128.353 8.75527 127.417 8.75527C126.428 8.75527 125.644 8.97287 125.065 9.40808C124.493 9.84329 124.106 10.3573 123.905 10.9501L120.138 10.4098C120.435 9.35931 120.925 8.48138 121.609 7.77604C122.293 7.0632 123.129 6.53045 124.117 6.17778C125.106 5.8176 126.198 5.63752 127.395 5.63752C128.22 5.63752 129.041 5.73506 129.858 5.93016C130.676 6.12525 131.423 6.44791 132.099 6.89812C132.775 7.34083 133.318 7.94488 133.726 8.71024C134.143 9.47561 134.351 10.4323 134.351 11.5804V23.1509H130.471V20.776H130.338C130.092 21.2563 129.747 21.7065 129.301 22.1267C128.862 22.5394 128.309 22.8733 127.64 23.1284C126.978 23.376 126.202 23.4999 125.31 23.4999ZM126.358 20.5059C127.168 20.5059 127.87 20.3446 128.465 20.0219C129.059 19.6918 129.516 19.2566 129.836 18.7163C130.163 18.176 130.326 17.587 130.326 16.9492V14.912C130.2 15.017 129.985 15.1146 129.68 15.2046C129.383 15.2947 129.048 15.3734 128.677 15.441C128.305 15.5085 127.937 15.5685 127.573 15.6211C127.209 15.6736 126.893 15.7186 126.625 15.7561C126.023 15.8387 125.485 15.9737 125.009 16.1613C124.533 16.3489 124.158 16.6115 123.883 16.9492C123.608 17.2794 123.471 17.7071 123.471 18.2323C123.471 18.9827 123.742 19.5492 124.284 19.9319C124.827 20.3146 125.518 20.5059 126.358 20.5059Z" fill="#2C3034"/>
<path d="M143.029 17.7258L143.018 12.8072H143.664L149.818 5.86262H154.533L146.964 14.3717H146.128L143.029 17.7258ZM139.35 23.1509V0.0998535H143.386V23.1509H139.35ZM150.097 23.1509L144.523 15.2834L147.243 12.4133L154.923 23.1509H150.097Z" fill="#2C3034"/>
<path d="M165.04 23.4886C163.323 23.4886 161.84 23.1284 160.592 22.4081C159.351 21.6802 158.396 20.6522 157.727 19.3241C157.058 17.9885 156.724 16.4164 156.724 14.6081C156.724 12.8297 157.058 11.269 157.727 9.92583C158.403 8.57518 159.347 7.52467 160.558 6.77431C161.77 6.01645 163.193 5.63752 164.828 5.63752C165.883 5.63752 166.879 5.8101 167.815 6.15526C168.759 6.49293 169.592 7.01818 170.313 7.73102C171.041 8.44387 171.613 9.3518 172.029 10.4548C172.445 11.5504 172.654 12.856 172.654 14.3717V15.6211H158.619V12.8747H168.785C168.778 12.0944 168.611 11.4003 168.284 10.7925C167.957 10.1772 167.5 9.69322 166.913 9.34055C166.333 8.98788 165.657 8.81154 164.884 8.81154C164.059 8.81154 163.334 9.01414 162.71 9.41933C162.086 9.81703 161.599 10.3423 161.25 10.9951C160.908 11.6404 160.733 12.3495 160.726 13.1224V15.5198C160.726 16.5252 160.908 17.3882 161.272 18.1085C161.636 18.8214 162.145 19.3691 162.799 19.7518C163.453 20.127 164.219 20.3146 165.095 20.3146C165.683 20.3146 166.214 20.232 166.69 20.067C167.165 19.8944 167.578 19.643 167.927 19.3128C168.276 18.9827 168.54 18.5737 168.718 18.086L172.486 18.5137C172.249 19.5192 171.795 20.3971 171.126 21.1475C170.465 21.8903 169.618 22.4681 168.585 22.8808C167.552 23.286 166.37 23.4886 165.04 23.4886Z" fill="#2C3034"/>
<path d="M177.009 23.1509V5.86262H180.922V8.74401H181.1C181.413 7.74603 181.948 6.97691 182.706 6.43665C183.471 5.88889 184.344 5.61501 185.325 5.61501C185.548 5.61501 185.797 5.62626 186.072 5.64877C186.355 5.66378 186.589 5.69004 186.775 5.72756V9.47561C186.604 9.41558 186.332 9.36306 185.961 9.31804C185.597 9.26551 185.244 9.23925 184.902 9.23925C184.166 9.23925 183.505 9.40057 182.918 9.72323C182.338 10.0384 181.881 10.4773 181.546 11.0401C181.212 11.6029 181.045 12.2519 181.045 12.9873V23.1509H177.009Z" fill="#2C3034"/>
<path d="M203.931 10.4323L200.252 10.8375C200.148 10.4623 199.966 10.1097 199.706 9.77951C199.453 9.44935 199.111 9.18297 198.68 8.98037C198.249 8.77778 197.721 8.67648 197.097 8.67648C196.257 8.67648 195.551 8.86032 194.979 9.22799C194.414 9.59567 194.135 10.0721 194.143 10.6574C194.135 11.1602 194.318 11.5691 194.689 11.8843C195.068 12.1994 195.692 12.4583 196.562 12.6609L199.483 13.2912C201.103 13.6439 202.307 14.2029 203.094 14.9683C203.89 15.7336 204.291 16.7354 204.298 17.9734C204.291 19.0615 203.975 20.0219 203.351 20.8548C202.734 21.6802 201.876 22.3255 200.776 22.7908C199.676 23.256 198.412 23.4886 196.986 23.4886C194.89 23.4886 193.203 23.0459 191.925 22.1605C190.646 21.2675 189.885 20.0257 189.639 18.4349L193.574 18.0522C193.753 18.8326 194.132 19.4216 194.711 19.8193C195.291 20.217 196.045 20.4159 196.974 20.4159C197.933 20.4159 198.702 20.217 199.282 19.8193C199.869 19.4216 200.163 18.9302 200.163 18.3449C200.163 17.8496 199.973 17.4407 199.594 17.118C199.223 16.7954 198.643 16.5478 197.855 16.3752L194.934 15.7561C193.292 15.411 192.077 14.8294 191.289 14.0115C190.501 13.1861 190.111 12.1431 190.119 10.8825C190.111 9.81703 190.397 8.89408 190.977 8.11371C191.564 7.32583 192.378 6.71804 193.418 6.29033C194.466 5.85512 195.674 5.63752 197.041 5.63752C199.048 5.63752 200.627 6.06897 201.779 6.93189C202.938 7.7948 203.656 8.96161 203.931 10.4323Z" fill="#2C3034"/>
</svg>
