<svg width="238" height="27" viewBox="0 0 238 27" fill="none" xmlns="http://www.w3.org/2000/svg">
<path d="M0 26.64L10.2589 1.44H16.1421L26.3275 26.64H19.0837L14.6713 14.94C14.4262 14.292 14.2056 13.692 14.0094 13.14C13.8133 12.588 13.6295 12.048 13.4579 11.52C13.2863 10.992 13.1147 10.452 12.9431 9.9C12.796 9.348 12.6612 8.748 12.5386 8.1L13.7153 8.064C13.5682 8.76 13.4089 9.384 13.2373 9.936C13.0902 10.488 12.9309 11.016 12.7593 11.52C12.5877 12.024 12.3916 12.552 12.1709 13.104C11.9748 13.656 11.7542 14.268 11.5091 14.94L7.09665 26.64H0ZM5.00075 22.464L7.17019 17.424H19.0837L21.1061 22.464H5.00075Z" fill="#2C3034"/>
<path d="M35.1664 27C33.1318 27 31.3423 26.688 29.7979 26.064C28.2536 25.44 27.0524 24.636 26.1945 23.652L30.2024 20.268C30.9868 20.964 31.8693 21.48 32.8499 21.816C33.8549 22.152 34.7374 22.32 35.4973 22.32C35.767 22.32 36.0121 22.296 36.2327 22.248C36.4533 22.2 36.6249 22.128 36.7475 22.032C36.8946 21.912 37.0049 21.792 37.0784 21.672C37.1765 21.528 37.2255 21.372 37.2255 21.204C37.2255 20.796 37.0172 20.484 36.6004 20.268C36.3798 20.172 36.0121 20.052 35.4973 19.908C35.0071 19.74 34.3452 19.56 33.5117 19.368C32.4822 19.104 31.5629 18.792 30.754 18.432C29.945 18.048 29.2586 17.604 28.6948 17.1C28.1555 16.596 27.7266 16.02 27.4079 15.372C27.1137 14.7 26.9666 13.968 26.9666 13.176C26.9666 12.216 27.1873 11.364 27.6285 10.62C28.0697 9.876 28.6826 9.24 29.467 8.712C30.2514 8.16 31.1339 7.752 32.1145 7.488C33.095 7.2 34.1001 7.056 35.1296 7.056C36.2818 7.056 37.3603 7.176 38.3654 7.416C39.395 7.632 40.351 7.956 41.2335 8.388C42.1405 8.796 42.9494 9.3 43.6603 9.9L40.1304 13.716C39.7136 13.356 39.2234 13.02 38.6596 12.708C38.1203 12.396 37.5564 12.144 36.9681 11.952C36.3798 11.736 35.8283 11.628 35.3135 11.628C34.9948 11.628 34.7251 11.652 34.5045 11.7C34.2839 11.748 34.1001 11.82 33.953 11.916C33.8059 12.012 33.6956 12.132 33.622 12.276C33.5485 12.42 33.5117 12.576 33.5117 12.744C33.5117 12.96 33.573 13.164 33.6956 13.356C33.8181 13.548 34.0143 13.704 34.2839 13.824C34.5045 13.944 34.8722 14.1 35.387 14.292C35.9263 14.46 36.6985 14.676 37.7035 14.94C38.8312 15.252 39.8117 15.612 40.6451 16.02C41.4786 16.428 42.1527 16.896 42.6675 17.424C43.0352 17.832 43.3171 18.288 43.5132 18.792C43.7093 19.272 43.8074 19.812 43.8074 20.412C43.8074 21.684 43.4274 22.824 42.6675 23.832C41.9321 24.816 40.9148 25.596 39.6156 26.172C38.3164 26.724 36.8333 27 35.1664 27Z" fill="#2C3034"/>
<path d="M48.2181 26.64V2.592H55.0573V26.64H48.2181ZM44.9823 13.14V7.452H58.477V13.14H44.9823Z" fill="#2C3034"/>
<path d="M61.8331 26.64V7.452H68.2311L68.5988 13.752L67.1648 12.672C67.4835 11.616 67.9737 10.668 68.6356 9.828C69.322 8.964 70.1432 8.292 71.0992 7.812C72.0552 7.308 73.0603 7.056 74.1144 7.056C74.5556 7.056 74.9723 7.092 75.3645 7.164C75.7568 7.212 76.1245 7.284 76.4677 7.38L74.5924 14.796C74.3227 14.628 73.9428 14.484 73.4525 14.364C72.9622 14.22 72.4352 14.148 71.8714 14.148C71.3811 14.148 70.9399 14.232 70.5477 14.4C70.1554 14.544 69.8245 14.76 69.5549 15.048C69.2852 15.336 69.0768 15.684 68.9298 16.092C68.7827 16.476 68.7091 16.932 68.7091 17.46V26.64H61.8331Z" fill="#2C3034"/>
<path d="M88.0164 27C85.9327 27 84.0697 26.568 82.4273 25.704C80.7849 24.84 79.4979 23.664 78.5664 22.176C77.6349 20.688 77.1692 18.972 77.1692 17.028C77.1692 15.084 77.6349 13.368 78.5664 11.88C79.4979 10.392 80.7849 9.216 82.4273 8.352C84.0697 7.488 85.9327 7.056 88.0164 7.056C90.1 7.056 91.9508 7.488 93.5687 8.352C95.2111 9.216 96.498 10.392 97.4295 11.88C98.3611 13.368 98.8268 15.084 98.8268 17.028C98.8268 18.972 98.3611 20.688 97.4295 22.176C96.498 23.664 95.2111 24.84 93.5687 25.704C91.9508 26.568 90.1 27 88.0164 27ZM88.0164 21.348C88.7518 21.348 89.4136 21.168 90.002 20.808C90.6148 20.424 91.0806 19.908 91.3992 19.26C91.7424 18.588 91.914 17.844 91.914 17.028C91.914 16.164 91.7424 15.408 91.3992 14.76C91.0806 14.112 90.6148 13.608 90.002 13.248C89.4136 12.864 88.7518 12.672 88.0164 12.672C87.2564 12.672 86.5823 12.864 85.994 13.248C85.4057 13.608 84.9399 14.124 84.5967 14.796C84.2536 15.444 84.082 16.188 84.082 17.028C84.082 17.844 84.2536 18.588 84.5967 19.26C84.9399 19.908 85.4057 20.424 85.994 20.808C86.5823 21.168 87.2564 21.348 88.0164 21.348Z" fill="#2C3034"/>
<path d="M109.245 27C107.211 27 105.421 26.688 103.877 26.064C102.333 25.44 101.131 24.636 100.273 23.652L104.281 20.268C105.066 20.964 105.948 21.48 106.929 21.816C107.934 22.152 108.816 22.32 109.576 22.32C109.846 22.32 110.091 22.296 110.312 22.248C110.532 22.2 110.704 22.128 110.827 22.032C110.974 21.912 111.084 21.792 111.157 21.672C111.256 21.528 111.305 21.372 111.305 21.204C111.305 20.796 111.096 20.484 110.679 20.268C110.459 20.172 110.091 20.052 109.576 19.908C109.086 19.74 108.424 19.56 107.591 19.368C106.561 19.104 105.642 18.792 104.833 18.432C104.024 18.048 103.338 17.604 102.774 17.1C102.235 16.596 101.806 16.02 101.487 15.372C101.193 14.7 101.046 13.968 101.046 13.176C101.046 12.216 101.266 11.364 101.708 10.62C102.149 9.876 102.762 9.24 103.546 8.712C104.33 8.16 105.213 7.752 106.193 7.488C107.174 7.2 108.179 7.056 109.209 7.056C110.361 7.056 111.439 7.176 112.444 7.416C113.474 7.632 114.43 7.956 115.312 8.388C116.219 8.796 117.028 9.3 117.739 9.9L114.209 13.716C113.793 13.356 113.302 13.02 112.739 12.708C112.199 12.396 111.635 12.144 111.047 11.952C110.459 11.736 109.907 11.628 109.392 11.628C109.074 11.628 108.804 11.652 108.584 11.7C108.363 11.748 108.179 11.82 108.032 11.916C107.885 12.012 107.775 12.132 107.701 12.276C107.628 12.42 107.591 12.576 107.591 12.744C107.591 12.96 107.652 13.164 107.775 13.356C107.897 13.548 108.093 13.704 108.363 13.824C108.584 13.944 108.951 14.1 109.466 14.292C110.005 14.46 110.778 14.676 111.783 14.94C112.91 15.252 113.891 15.612 114.724 16.02C115.558 16.428 116.232 16.896 116.747 17.424C117.114 17.832 117.396 18.288 117.592 18.792C117.788 19.272 117.886 19.812 117.886 20.412C117.886 21.684 117.506 22.824 116.747 23.832C116.011 24.816 114.994 25.596 113.695 26.172C112.395 26.724 110.912 27 109.245 27Z" fill="#2C3034"/>
<path d="M122.297 26.64V2.592H129.136V26.64H122.297ZM119.061 13.14V7.452H132.556V13.14H119.061Z" fill="#2C3034"/>
<path d="M142.829 26.964C141.211 26.964 139.753 26.544 138.454 25.704C137.179 24.84 136.162 23.664 135.402 22.176C134.666 20.664 134.299 18.948 134.299 17.028C134.299 15.06 134.666 13.332 135.402 11.844C136.137 10.356 137.154 9.192 138.454 8.352C139.753 7.488 141.248 7.056 142.94 7.056C143.847 7.056 144.68 7.176 145.44 7.416C146.2 7.656 146.862 8.004 147.426 8.46C147.989 8.916 148.48 9.432 148.896 10.008C149.313 10.584 149.656 11.208 149.926 11.88L148.529 11.808V7.452H155.258V26.64H148.382V21.96L149.889 22.032C149.669 22.728 149.338 23.376 148.896 23.976C148.48 24.576 147.965 25.104 147.352 25.56C146.739 25.992 146.053 26.34 145.293 26.604C144.557 26.844 143.736 26.964 142.829 26.964ZM144.778 21.456C145.562 21.456 146.237 21.288 146.8 20.952C147.364 20.592 147.793 20.076 148.087 19.404C148.406 18.732 148.565 17.94 148.565 17.028C148.565 16.092 148.406 15.288 148.087 14.616C147.793 13.944 147.364 13.44 146.8 13.104C146.237 12.744 145.562 12.564 144.778 12.564C143.994 12.564 143.32 12.744 142.756 13.104C142.216 13.44 141.8 13.944 141.506 14.616C141.211 15.288 141.064 16.092 141.064 17.028C141.064 17.94 141.211 18.732 141.506 19.404C141.8 20.076 142.216 20.592 142.756 20.952C143.32 21.288 143.994 21.456 144.778 21.456Z" fill="#2C3034"/>
<path d="M167.094 21.168L164.005 16.704L173.087 7.452H182.023L167.094 21.168ZM160.402 26.64V0H167.278V26.64H160.402ZM173.749 26.64L167.057 17.712L171.874 14.256L181.655 26.64H173.749Z" fill="#2C3034"/>
<path d="M193.013 27C190.782 27 188.857 26.58 187.24 25.74C185.622 24.876 184.372 23.7 183.489 22.212C182.607 20.7 182.165 18.984 182.165 17.064C182.165 15.624 182.41 14.292 182.901 13.068C183.391 11.844 184.077 10.788 184.96 9.9C185.842 8.988 186.884 8.292 188.085 7.812C189.311 7.308 190.647 7.056 192.093 7.056C193.515 7.056 194.802 7.296 195.954 7.776C197.131 8.256 198.136 8.94 198.969 9.828C199.827 10.716 200.477 11.76 200.918 12.96C201.384 14.16 201.592 15.48 201.543 16.92L201.506 18.432H186.063L185.217 15.084H196.028L195.366 15.804V15.12C195.366 14.592 195.219 14.136 194.925 13.752C194.655 13.344 194.287 13.032 193.821 12.816C193.356 12.6 192.829 12.492 192.24 12.492C191.407 12.492 190.708 12.66 190.144 12.996C189.605 13.308 189.188 13.764 188.894 14.364C188.6 14.964 188.453 15.684 188.453 16.524C188.453 17.484 188.649 18.312 189.041 19.008C189.458 19.704 190.059 20.244 190.843 20.628C191.652 21.012 192.633 21.204 193.785 21.204C194.545 21.204 195.206 21.108 195.77 20.916C196.359 20.724 196.984 20.388 197.646 19.908L200.808 24.264C199.95 24.936 199.08 25.476 198.197 25.884C197.339 26.268 196.481 26.544 195.623 26.712C194.765 26.904 193.895 27 193.013 27Z" fill="#2C3034"/>
<path d="M205.108 26.64V7.452H211.506L211.873 13.752L210.439 12.672C210.758 11.616 211.248 10.668 211.91 9.828C212.596 8.964 213.418 8.292 214.374 7.812C215.33 7.308 216.335 7.056 217.389 7.056C217.83 7.056 218.247 7.092 218.639 7.164C219.031 7.212 219.399 7.284 219.742 7.38L217.867 14.796C217.597 14.628 217.217 14.484 216.727 14.364C216.237 14.22 215.71 14.148 215.146 14.148C214.656 14.148 214.214 14.232 213.822 14.4C213.43 14.544 213.099 14.76 212.829 15.048C212.56 15.336 212.351 15.684 212.204 16.092C212.057 16.476 211.984 16.932 211.984 17.46V26.64H205.108Z" fill="#2C3034"/>
<path d="M229.359 27C227.324 27 225.535 26.688 223.991 26.064C222.446 25.44 221.245 24.636 220.387 23.652L224.395 20.268C225.179 20.964 226.062 21.48 227.042 21.816C228.048 22.152 228.93 22.32 229.69 22.32C229.96 22.32 230.205 22.296 230.425 22.248C230.646 22.2 230.818 22.128 230.94 22.032C231.087 21.912 231.198 21.792 231.271 21.672C231.369 21.528 231.418 21.372 231.418 21.204C231.418 20.796 231.21 20.484 230.793 20.268C230.572 20.172 230.205 20.052 229.69 19.908C229.2 19.74 228.538 19.56 227.704 19.368C226.675 19.104 225.756 18.792 224.947 18.432C224.138 18.048 223.451 17.604 222.887 17.1C222.348 16.596 221.919 16.02 221.6 15.372C221.306 14.7 221.159 13.968 221.159 13.176C221.159 12.216 221.38 11.364 221.821 10.62C222.262 9.876 222.875 9.24 223.66 8.712C224.444 8.16 225.327 7.752 226.307 7.488C227.288 7.2 228.293 7.056 229.322 7.056C230.474 7.056 231.553 7.176 232.558 7.416C233.588 7.632 234.544 7.956 235.426 8.388C236.333 8.796 237.142 9.3 237.853 9.9L234.323 13.716C233.906 13.356 233.416 13.02 232.852 12.708C232.313 12.396 231.749 12.144 231.161 11.952C230.572 11.736 230.021 11.628 229.506 11.628C229.187 11.628 228.918 11.652 228.697 11.7C228.477 11.748 228.293 11.82 228.146 11.916C227.999 12.012 227.888 12.132 227.815 12.276C227.741 12.42 227.704 12.576 227.704 12.744C227.704 12.96 227.766 13.164 227.888 13.356C228.011 13.548 228.207 13.704 228.477 13.824C228.697 13.944 229.065 14.1 229.58 14.292C230.119 14.46 230.891 14.676 231.896 14.94C233.024 15.252 234.004 15.612 234.838 16.02C235.671 16.428 236.345 16.896 236.86 17.424C237.228 17.832 237.51 18.288 237.706 18.792C237.902 19.272 238 19.812 238 20.412C238 21.684 237.62 22.824 236.86 23.832C236.125 24.816 235.107 25.596 233.808 26.172C232.509 26.724 231.026 27 229.359 27Z" fill="#2C3034"/>
</svg>
