<svg viewBox="0 0 255 26" fill="none" xmlns="http://www.w3.org/2000/svg">
<g clip-path="url(#clip0_743_1783)">
<path d="M2.5469 21.6724V8.80005H0V24.1H9.9V21.6724H2.5469Z" fill="#2C3034"/>
<path d="M14.0988 11.1869H21.6012V8.80005H11.7012V24.1H21.6012V21.6929H14.0988V17.6128H20.4604V15.2668H14.0988V11.1869Z" fill="#2C3034"/>
<path d="M29.7788 8.80005L23.4004 24.1H26.0244L27.8006 19.7957H34.3001L36.0764 24.1H38.7004L32.3422 8.80005H29.7788ZM33.3312 17.4496H28.7695L31.0504 11.9212L33.3312 17.4496Z" fill="#2C3034"/>
<path d="M48.5294 18.1024C50.7735 17.6333 52.3588 15.7769 52.3588 13.5124C52.3588 10.9013 50.2588 8.80005 47.4177 8.80005H40.5V24.1H43.053V18.2248H45.5029L49.9706 24.1H53.1L48.5294 18.1024ZM47.3147 11.1869C48.797 11.1869 49.8059 12.1864 49.8059 13.5124C49.8059 14.8588 48.797 15.8584 47.3147 15.8584H43.053V11.1869H47.3147Z" fill="#2C3034"/>
<path d="M57.3041 12.5537L64.6703 24.1H67.5004V8.80005H65.0967V20.3668L57.6918 8.80005H54.9004V24.1H57.3041V12.5537Z" fill="#2C3034"/>
<path d="M84.2625 10.0575L94.2589 25H98.1V5.19995H94.838V20.1688L84.7884 5.19995H81V25H84.2625V10.0575Z" fill="#2C3034"/>
<path d="M105.872 8.28876H116.102V5.19995H102.602V25H116.102V21.8848H105.872V16.6048H114.546V13.5687H105.872V8.28876Z" fill="#2C3034"/>
<path d="M125.255 5.19995L117 25H120.396L122.694 19.4295H131.105L133.404 25H136.8L128.572 5.19995H125.255ZM129.852 16.3936H123.948L126.9 9.23915L129.852 16.3936Z" fill="#2C3034"/>
<path d="M149.823 17.2383C152.708 16.6312 154.746 14.2288 154.746 11.2983C154.746 7.91915 152.047 5.19995 148.394 5.19995H139.5V25H142.782V17.3968H145.933L151.676 25H155.7L149.823 17.2383ZM148.262 8.28876C150.167 8.28876 151.464 9.58235 151.464 11.2983C151.464 13.0408 150.167 14.3343 148.262 14.3343H142.782V8.28876H148.262Z" fill="#2C3034"/>
<path d="M177.237 25.9C182.669 25.9 187.298 22.342 189.001 17.4456L185.337 15.944C184.244 19.5021 181.094 22.0155 177.237 22.0155C172.512 22.0155 168.719 18.131 168.719 13.2999C168.719 8.50152 172.512 4.58442 177.237 4.58442C181.094 4.58442 184.244 7.09789 185.337 10.6559L188.97 9.15436C187.298 4.22534 182.669 0.699951 177.237 0.699951C170.326 0.699951 164.701 6.37975 164.701 13.2999C164.701 20.2202 170.326 25.9 177.237 25.9Z" fill="#2C3034"/>
<path d="M196.77 22.0445V1.6001H192.602V25.9001H208.802V22.0445H196.77Z" fill="#2C3034"/>
<path d="M220.517 25.9001C226.221 25.9001 230.402 21.7171 230.402 16.0333V1.6001H226.383V16.0651C226.383 19.5457 223.92 22.1003 220.517 22.1003C217.083 22.1003 214.62 19.5457 214.62 16.0651V1.6001H210.602V16.0333C210.602 21.7171 214.815 25.9001 220.517 25.9001Z" fill="#2C3034"/>
<path d="M251.443 13.5557C253.056 12.4217 254.056 10.6073 254.056 8.4689C254.056 4.6457 250.928 1.6001 247.057 1.6001H235.801V25.9001H247.669C251.605 25.9001 254.701 22.8545 254.701 19.0313C254.701 16.6013 253.443 14.6249 251.443 13.5557ZM250.089 8.6633C250.089 10.5425 248.702 12.0005 246.896 12.0005H239.735V5.2937H246.896C248.702 5.2937 250.089 6.78409 250.089 8.6633ZM239.735 22.2065V15.4997H247.541C249.347 15.4997 250.734 16.9577 250.734 18.8369C250.734 20.7161 249.347 22.2065 247.541 22.2065H239.735Z" fill="#2C3034"/>
</g>
<defs>
<clipPath id="clip0_743_1783">
<rect width="254.7" height="25.2" fill="white" transform="translate(0 0.699951)"/>
</clipPath>
</defs>
</svg>
