<svg width="360" height="72" viewBox="0 0 360 72" fill="none" xmlns="http://www.w3.org/2000/svg">
<g clip-path="url(#clip0_7031_44151)">
<path d="M3.49877 42.2063V24.1367H0V45.614H13.6V42.2063H3.49877Z" fill="#2C3034"/>
<path d="M20.2883 27.4872H31.2008V24.1367H16.8008V45.614H31.2008V42.2349H20.2883V36.5076H29.5414V33.2144H20.2883V27.4872Z" fill="#2C3034"/>
<path d="M41.8056 24.1367L32.8008 45.614H36.5053L39.0129 39.5717H48.1887L50.6963 45.614H54.4008L45.4246 24.1367H41.8056ZM46.8208 36.2785H40.3808L43.6008 28.518L46.8208 36.2785Z" fill="#2C3034"/>
<path d="M68.0164 37.1948C71.1511 36.5363 73.3655 33.9304 73.3655 30.7517C73.3655 27.0863 70.4322 24.1367 66.4636 24.1367H56.8008V45.614H60.3668V37.3667H63.789L70.0295 45.614H74.4008L68.0164 37.1948ZM66.3198 27.4872C68.3903 27.4872 69.7995 28.8903 69.7995 30.7517C69.7995 32.6417 68.3903 34.0449 66.3198 34.0449H60.3668V27.4872H66.3198Z" fill="#2C3034"/>
<path d="M81.1117 29.4059L91.8687 45.614H96.0016V24.1367H92.4914V40.3735L81.678 24.1367H77.6016V45.614H81.1117V29.4059Z" fill="#2C3034"/>
<path d="M118.977 26.1936L133.007 47.2042H138.398V19.3633H133.82V40.4111L119.715 19.3633H114.398V47.2042H118.977V26.1936Z" fill="#2C3034"/>
<path d="M149.452 23.7065H164.001V19.3633H144.801V47.2042H164.001V42.8239H149.452V35.3997H161.789V31.1307H149.452V23.7065Z" fill="#2C3034"/>
<path d="M177.275 19.3633L165.602 47.2042H170.404L173.654 39.3716H185.548L188.8 47.2042H193.602L181.966 19.3633H177.275ZM183.776 35.1027H175.428L179.601 25.0428L183.776 35.1027Z" fill="#2C3034"/>
<path d="M211.075 36.2905C215.064 35.4368 217.882 32.0588 217.882 27.9383C217.882 23.1868 214.15 19.3633 209.099 19.3633H196.801V47.2042H201.339V36.5133H205.695L213.637 47.2042H219.201L211.075 36.2905ZM208.916 23.7065C211.551 23.7065 213.344 25.5254 213.344 27.9383C213.344 30.3883 211.551 32.2072 208.916 32.2072H201.339V23.7065H208.916Z" fill="#2C3034"/>
<path d="M250.546 48C258.237 48 264.789 43.0583 267.201 36.2578L262.013 34.1723C260.466 39.1141 256.007 42.605 250.546 42.605C243.857 42.605 238.489 37.2098 238.489 30.5C238.489 23.8355 243.857 18.3951 250.546 18.3951C256.007 18.3951 260.466 21.886 262.013 26.8278L267.156 24.7422C264.79 17.8964 258.237 13 250.546 13C240.763 13 232.801 20.8886 232.801 30.5C232.801 40.1115 240.763 48 250.546 48Z" fill="#2C3034"/>
<path d="M278.564 42.5723V13.7949H272.801V47.9995H295.201V42.5723H278.564Z" fill="#2C3034"/>
<path d="M311.624 47.9995C319.69 47.9995 325.602 42.1115 325.602 34.111V13.7949H319.918V34.1558C319.918 39.0551 316.436 42.6508 311.624 42.6508C306.767 42.6508 303.284 39.0551 303.284 34.1558V13.7949H297.602V34.111C297.602 42.1115 303.559 47.9995 311.624 47.9995Z" fill="#2C3034"/>
<path d="M355.313 30.6236C357.634 29.0274 359.073 26.4734 359.073 23.4634C359.073 18.0819 354.571 13.7949 349 13.7949H332.801V47.9995H349.882C355.545 47.9995 360.001 43.7124 360.001 38.3309C360.001 34.9105 358.191 32.1286 355.313 30.6236ZM353.364 23.737C353.364 26.3822 351.368 28.4345 348.769 28.4345H338.463V18.994H348.769C351.368 18.994 353.364 21.0919 353.364 23.737ZM338.463 42.8003V33.3599H349.697C352.296 33.3599 354.292 35.4122 354.292 38.0574C354.292 40.7025 352.296 42.8003 349.697 42.8003H338.463Z" fill="#2C3034"/>
</g>
<defs>
<clipPath id="clip0_7031_44151">
<rect width="360" height="35" fill="white" transform="translate(0 13)"/>
</clipPath>
</defs>
</svg>
