<svg width="126" height="30" viewBox="0 0 126 30" fill="none" xmlns="http://www.w3.org/2000/svg">
<g clip-path="url(#clip0_745_1809)">
<path d="M29.5515 20.195C30.9809 20.195 32.3517 19.6421 33.3622 18.6579C34.3729 17.6737 34.9407 16.3388 34.9407 14.9469C34.9407 13.555 34.3729 12.2201 33.3622 11.2359C32.3517 10.2517 30.9809 9.69876 29.5515 9.69876C28.608 9.69379 27.68 9.93422 26.8639 10.3953C25.4353 11.1998 23.8143 11.6234 22.1641 11.6234C20.514 11.6234 18.893 11.1998 17.4645 10.3953C16.6478 9.93398 15.7193 9.69353 14.7752 9.69876C14.0675 9.69876 13.3667 9.83451 12.7129 10.0983C12.0591 10.362 11.465 10.7486 10.9646 11.2359C10.4642 11.7232 10.0673 12.3018 9.79643 12.9385C9.52562 13.5752 9.38622 14.2577 9.38622 14.9469C9.38622 15.6361 9.52562 16.3185 9.79643 16.9553C10.0673 17.592 10.4642 18.1705 10.9646 18.6579C11.465 19.1452 12.0591 19.5318 12.7129 19.7955C13.3667 20.0593 14.0675 20.195 14.7752 20.195C15.7188 20.2001 16.6467 19.9596 17.463 19.4985C18.8915 18.694 20.5125 18.2704 22.1627 18.2704C23.8128 18.2704 25.4338 18.694 26.8623 19.4985C27.6789 19.9598 28.6075 20.2003 29.5515 20.195ZM29.5515 29.3385C26.9576 29.3424 24.4087 28.6781 22.1634 27.413C19.917 28.6755 17.3691 29.3398 14.7756 29.3393C12.1821 29.3388 9.63444 28.6736 7.38857 27.4104C5.1427 26.1474 3.27775 24.3308 1.98116 22.1435C0.684551 19.956 0.00195312 17.4748 0.00195312 14.9491C0.00195312 12.4233 0.684551 9.94212 1.98116 7.7547C3.27775 5.5673 5.1427 3.75077 7.38857 2.48764C9.63444 1.22451 12.1821 0.559302 14.7756 0.558831C17.3691 0.55836 19.917 1.22266 22.1634 2.48495C24.1263 1.38168 26.3233 0.732904 28.585 0.588815C30.8464 0.4447 33.1118 0.809149 35.2055 1.65393C37.2992 2.49871 39.1655 3.80121 40.6598 5.46068C42.1538 7.12013 43.2362 9.09208 43.8228 11.224C44.4092 13.3559 44.4843 15.5907 44.0423 17.7554C43.6002 19.9201 42.6527 21.9566 41.2731 23.7078C39.8937 25.459 38.1189 26.8774 36.0864 27.8539C34.054 28.8304 31.8179 29.3382 29.5515 29.3385Z" fill="#2C3034"/>
<path d="M60.0722 19.8413H65.6715V24.237H54.2637V5.7124H60.0722V19.8413ZM74.5115 24.4202C73.0287 24.4202 71.6943 24.1148 70.5083 23.5044C69.3222 22.894 68.389 22.0216 67.7087 20.8879C67.0459 19.7367 66.7144 18.3936 66.7144 16.8586C66.7144 15.3236 67.0459 13.9892 67.7087 12.8554C68.389 11.7041 69.3222 10.8232 70.5083 10.2127C71.6943 9.60223 73.0287 9.29697 74.5115 9.29697C75.9942 9.29697 77.3286 9.60223 78.5147 10.2127C79.7007 10.8232 80.6254 11.7041 81.2882 12.8554C81.9684 13.9892 82.3086 15.3236 82.3086 16.8586C82.3086 18.3936 81.9684 19.7367 81.2882 20.8879C80.6254 22.0216 79.7007 22.894 78.5147 23.5044C77.3286 24.1148 75.9942 24.4202 74.5115 24.4202ZM74.5115 19.3965C75.0523 19.3965 75.5058 19.1872 75.8721 18.7686C76.2384 18.3325 76.4215 17.6958 76.4215 16.8586C76.4215 16.0213 76.2384 15.3933 75.8721 14.9747C75.5058 14.5386 75.0523 14.3206 74.5115 14.3206C73.9707 14.3206 73.5172 14.5386 73.1509 14.9747C72.7846 15.3933 72.6015 16.0213 72.6015 16.8586C72.6015 17.6958 72.776 18.3325 73.1248 18.7686C73.4911 19.1872 73.9534 19.3965 74.5115 19.3965ZM91.1454 24.4202C89.6627 24.4202 88.3283 24.1148 87.1422 23.5044C85.9562 22.894 85.0229 22.0216 84.3426 20.8879C83.6799 19.7367 83.3484 18.3936 83.3484 16.8586C83.3484 15.3236 83.6799 13.9892 84.3426 12.8554C85.0229 11.7041 85.9562 10.8232 87.1422 10.2127C88.3283 9.60223 89.6627 9.29697 91.1454 9.29697C92.6282 9.29697 93.9626 9.60223 95.1486 10.2127C96.3347 10.8232 97.2593 11.7041 97.9221 12.8554C98.6024 13.9892 98.9425 15.3236 98.9425 16.8586C98.9425 18.3936 98.6024 19.7367 97.9221 20.8879C97.2593 22.0216 96.3347 22.894 95.1486 23.5044C93.9626 24.1148 92.6282 24.4202 91.1454 24.4202ZM91.1454 19.3965C91.6863 19.3965 92.1397 19.1872 92.506 18.7686C92.8723 18.3325 93.0555 17.6958 93.0555 16.8586C93.0555 16.0213 92.8723 15.3933 92.506 14.9747C92.1397 14.5386 91.6863 14.3206 91.1454 14.3206C90.6046 14.3206 90.1512 14.5386 89.7849 14.9747C89.4186 15.3933 89.2354 16.0213 89.2354 16.8586C89.2354 17.6958 89.4099 18.3325 89.7587 18.7686C90.125 19.1872 90.5873 19.3965 91.1454 19.3965ZM106.34 19.4227H112.489V24.237H99.9823V19.6844L105.608 14.2944H100.061V9.48012H112.227V14.0328L106.34 19.4227ZM120.118 12.2012C120.711 11.3465 121.435 10.6662 122.29 10.1604C123.145 9.63711 124.034 9.37546 124.959 9.37546V15.5765H123.31C122.211 15.5765 121.4 15.7684 120.877 16.1521C120.371 16.5359 120.118 17.2162 120.118 18.193V24.237H114.31V9.48012H120.118V12.2012Z" fill="#2C3034"/>
</g>
<defs>
<clipPath id="clip0_745_1809">
<rect width="125.1" height="29.0265" fill="white" transform="translate(0 0.361816)"/>
</clipPath>
</defs>
</svg>
