<svg viewBox="0 0 180 31" fill="none" xmlns="http://www.w3.org/2000/svg">
<path d="M168.785 7.0527C162.876 7.0527 159.364 11.1556 159.364 16.1377C159.364 21.1184 162.876 25.2228 168.785 25.2228C174.695 25.2228 178.2 21.146 178.2 16.1377C178.2 11.1281 174.689 7.0527 168.785 7.0527ZM168.785 23.0552C164.556 23.0552 161.914 20.0665 161.914 16.1377C161.914 12.2089 164.556 9.22022 168.785 9.22022C173.014 9.22022 175.652 12.2423 175.652 16.1377C175.652 20.0317 173.01 23.0538 168.785 23.0538V23.0552ZM85.2746 9.22022C88.5713 9.22022 90.9132 11.4501 91.0632 13.7656H93.5253C93.3738 10.3925 90.3741 7.05125 85.3964 7.05125C79.3658 7.05125 75.9474 11.1832 75.9474 16.1638C75.9474 21.0604 79.1847 25.2213 85.5464 25.2213C89.3539 25.2213 92.1457 23.518 93.5253 21.8481L91.9037 20.4249C91.0737 21.2511 90.0852 21.9093 88.9946 22.3619C87.904 22.8145 86.7327 23.0525 85.5479 23.0625C80.7781 23.0625 78.5238 20.0114 78.5238 16.174C78.5238 12.0711 81.1374 9.22893 85.2746 9.22893M112.657 7.64028V14.9945C112.657 20.2406 109.447 23.0596 105.858 23.0596C102.891 23.0596 101.27 20.9762 101.27 17.4884V7.64173H95.4439V9.69174H98.803V18.0746C98.803 22.2341 101.231 25.2242 105.67 25.2242C109.122 25.2242 111.458 23.4919 112.628 21.0299V24.6352H115.09V7.64028H112.657ZM156.284 7.64028L149.972 22.205L143.524 7.64028H138.712V9.69174H141.771L148.637 25.2518C147.616 27.6862 145.971 29.1806 143.902 29.1806C143.198 29.2111 142.496 29.069 141.862 28.7671V30.9636C142.631 31.2361 143.444 31.3664 144.262 31.3481C147.229 31.3481 149.268 29.6448 150.676 26.4806L158.931 7.64028H156.284ZM126.645 10.7146V7.64173H119.265V9.69029H124.183V22.5852H119.263V24.6337H132.643V22.5852H126.644V14.6144C127.131 11.8288 129.641 9.25359 132.734 9.25359C133.83 9.2132 134.923 9.40267 135.938 9.80926V7.64173C135.113 7.23334 134.198 7.0305 133.273 7.05125C131.939 7.05466 130.629 7.39332 129.468 8.03465C128.308 8.67598 127.335 9.59839 126.645 10.7131V10.7146ZM64.9093 10.7146V7.64028H57.523V9.69174H62.4428V22.5866H57.523V24.6352H70.9013V22.5866H64.9093V14.6144C65.3608 11.8288 67.909 9.25359 71.0275 9.25359C72.1162 9.21568 73.2007 9.40511 74.2084 9.80926V7.64028C73.3706 7.23345 72.4441 7.03179 71.5087 7.0527C70.1813 7.06713 68.8794 7.41071 67.7251 8.05121C66.5708 8.69171 65.6019 9.60815 64.9093 10.7146ZM31.2518 22.5852V13.9717C31.2518 10.0762 28.7021 7.05415 24.8663 7.05415C21.0306 7.05415 19.1951 9.42624 18.3264 11.3239C17.9219 10.0701 17.1141 8.97718 16.0231 8.20768C14.9321 7.43818 13.616 7.03312 12.2706 7.0527C8.87139 7.0527 7.08048 8.98954 6.1182 10.7508V7.64173H0V9.69174H3.66201V24.6352H6.1182V14.6434C6.36174 12.6804 8.06058 9.25649 11.8206 9.25649C14.55 9.25649 16.2489 10.7508 16.2489 14.6739V24.6366H18.7065V14.552C19.0362 12.6543 20.6489 9.25359 24.3778 9.25359C27.1354 9.25359 28.7882 10.7479 28.7882 14.6709V24.6337H34.0362V22.5837H31.2533L31.2518 22.5852ZM54.6094 16.1377C54.6094 11.1281 51.2474 7.05125 45.4618 7.05125C39.6733 7.05125 36.1909 11.1832 36.1909 16.1638C36.1909 21.2649 39.5515 25.2213 45.7915 25.2213C49.6762 25.2213 52.4487 23.3759 53.561 21.9381L51.9423 20.5148C50.4425 22.0991 48.3739 23.0393 45.6311 23.0393C41.7463 23.0393 39.1194 20.5148 38.8327 16.9139H54.5737C54.5989 16.6555 54.6102 16.3959 54.6079 16.1363L54.6094 16.1377ZM38.8624 14.8755C39.3466 11.5546 41.8919 9.22022 45.4603 9.22022C47.0884 9.16351 48.677 9.71793 49.8998 10.7696C51.1227 11.8213 51.887 13.2905 52.0359 14.8755H38.8624Z" fill="#2C3034"/>
</svg>
