<svg width="150" height="39" viewBox="0 0 150 39" fill="none" xmlns="http://www.w3.org/2000/svg">
<g clip-path="url(#clip0_745_1827)">
<path d="M60.2996 9V29.7H57.8358V12.4319L52.9868 29.7H46.9124L42.0571 12.4319V29.7H39.5996V9H43.4485L48.7485 27.4517H51.1507L56.4507 9H60.2996Z" fill="#2C3034"/>
<path d="M64.8008 9H67.5008V11.7222H64.8008V9ZM64.8008 14.8842H67.5008V29.7H64.8008V14.8842Z" fill="#2C3034"/>
<path d="M81.8996 18.9307V29.6786H79.5651V19.6776C79.5651 17.871 78.7471 16.539 76.8216 16.539C74.8961 16.539 73.4425 17.8647 73.4425 20.1245V29.6999H71.0996V14.8431H73.4425V16.6794C73.8808 15.971 74.4917 15.3891 75.2162 14.9899C75.9407 14.5907 76.7544 14.3877 77.5788 14.4005C79.886 14.4005 81.8996 15.9389 81.8996 18.9307Z" fill="#2C3034"/>
<path d="M86.6379 25.1754V16.6749H84.5996V14.5316H86.669V10.8H89.1115V14.5273H92.5442V16.6706H89.1159V25.1111C89.1159 27.1087 89.9796 27.5567 91.4007 27.5567H92.6996V29.7H91.3674C88.805 29.7064 86.6379 29.1706 86.6379 25.1754Z" fill="#2C3034"/>
<path d="M106.2 19.3947V24.6337C106.2 27.6444 104.245 29.7 101.53 29.7C99.8647 29.7 98.4067 28.976 97.7354 27.8774V29.2672H95.4004V9H97.7354V16.1511C98.4067 15.0525 99.8647 14.3284 101.53 14.3284C104.245 14.3284 106.2 16.3883 106.2 19.3947ZM103.865 19.5674C103.865 17.4556 102.582 16.4132 100.8 16.4132C99.0193 16.4132 97.7354 17.4535 97.7354 19.5674V24.461C97.7354 26.5728 99.0193 27.6152 100.8 27.6152C102.582 27.6152 103.865 26.5749 103.865 24.461V19.5674Z" fill="#2C3034"/>
<path d="M120.601 14.8307V29.2691H118.266V27.8858C117.595 28.9792 116.135 29.6999 114.472 29.6999C111.758 29.6999 109.801 27.6538 109.801 24.6572V19.4426C109.801 16.446 111.758 14.3999 114.472 14.3999C116.135 14.3999 117.595 15.1206 118.266 16.214V14.8307H120.601ZM118.266 24.4853V19.6145C118.266 17.5125 116.981 16.475 115.202 16.475C113.423 16.475 112.137 17.5104 112.137 19.6145V24.4853C112.137 26.5873 113.421 27.6248 115.202 27.6248C116.983 27.6248 118.266 26.5977 118.266 24.4853Z" fill="#2C3034"/>
<path d="M124.201 24.6606V24.2012H126.536V24.7475C126.536 26.6473 127.675 27.6262 129.775 27.6262C131.118 27.6262 132.607 27.2247 132.607 25.6126C132.607 24.0853 131.441 23.6527 129.104 22.9222C126.274 22.0592 124.405 21.2252 124.405 18.6321C124.405 15.3788 127.354 14.3999 129.601 14.3999C132.083 14.3999 134.768 15.6416 134.768 18.9529V19.6151H132.433V19.017C132.433 17.0303 130.944 16.4839 129.542 16.4839C128.026 16.4839 126.798 17.1172 126.798 18.4417C126.798 19.8531 128.229 20.3043 130.155 20.8879C133.22 21.7819 135.001 22.8187 135.001 25.4967C135.001 28.692 132.257 29.6999 129.689 29.6999C126.389 29.704 124.201 28.0298 124.201 24.6606Z" fill="#2C3034"/>
<path d="M140.934 22.7851V24.3693C140.934 26.3284 142.161 27.6248 143.999 27.6248C145.897 27.6248 147.063 26.6163 147.063 24.6572H149.4C149.4 28.0577 147.357 29.6999 143.999 29.6999C140.76 29.6999 138.6 27.6828 138.6 24.6282V19.4716C138.6 16.417 140.76 14.3999 143.999 14.3999C147.237 14.3999 149.4 16.417 149.4 19.4716V22.7851H140.934ZM140.934 19.7305V21.0062H147.063V19.7305C147.063 17.7714 145.838 16.475 143.999 16.475C142.159 16.475 140.934 17.7714 140.934 19.7305Z" fill="#2C3034"/>
<path d="M27.8378 14.8222H25.1131V4.5193C25.116 3.50411 24.7704 2.51768 24.1324 1.71985C23.4944 0.922022 22.6014 0.359524 21.5979 0.123496C20.5944 -0.112533 19.5394 -0.00826537 18.6037 0.419406C17.668 0.847077 16.9064 1.5731 16.4424 2.47983C15.9784 3.38657 15.8391 4.42091 16.0471 5.41526C16.2552 6.4096 16.7983 7.30571 17.5885 7.9584C18.3788 8.61108 19.3699 8.98209 20.4012 9.01133C21.4325 9.04057 22.4436 8.72632 23.2707 8.1195V14.8222H12.7591C11.5484 14.8222 10.3873 15.2955 9.53122 16.1378C8.67513 16.9802 8.19418 18.1227 8.19418 19.314C8.19418 19.3479 8.19418 19.3796 8.19418 19.4114V29.7122H5.46943C4.56789 29.7118 3.68641 29.974 2.93604 30.4657C2.18566 30.9574 1.59996 31.6566 1.25273 32.4753C0.905504 33.2939 0.812275 34.1954 0.984793 35.0661C1.15731 35.9368 1.58786 36.7377 2.22219 37.3681C2.85652 37.9984 3.66627 38.4299 4.5494 38.6083C5.43253 38.7866 6.34954 38.7037 7.1849 38.3702C8.02027 38.0366 8.73661 37.4672 9.24368 36.7337C9.75075 36.0002 10.0259 35.1355 10.0344 34.2485V31.525H16.8893C16.2774 32.3361 15.9616 33.3265 15.9928 34.3362C16.024 35.3458 16.4004 36.3155 17.0612 37.0885C17.722 37.8615 18.6285 38.3925 19.6341 38.5956C20.6397 38.7987 21.6855 38.6621 22.6024 38.2079C23.5192 37.7536 24.2535 37.0082 24.6865 36.0924C25.1194 35.1765 25.2257 34.1437 24.9881 33.1611C24.7505 32.1784 24.1829 31.3034 23.3771 30.6775C22.5714 30.0516 21.5747 29.7115 20.5481 29.7122H10.0365V22.9142C10.9149 23.5588 11.9999 23.8706 13.0928 23.7926C14.1857 23.7146 15.2136 23.252 15.9883 22.4894C16.763 21.7269 17.2328 20.7153 17.3117 19.6399C17.3906 18.5645 17.0733 17.497 16.4179 16.6329H23.2707V19.3563C23.2792 20.2429 23.5542 21.1071 24.0609 21.8402C24.5676 22.5733 25.2835 23.1424 26.1184 23.4759C26.9532 23.8094 27.8697 23.8923 28.7523 23.7142C29.635 23.5362 30.4443 23.1051 31.0785 22.4752C31.7126 21.8454 32.1431 21.045 32.3158 20.1748C32.4885 19.3047 32.3956 18.4037 32.0488 17.5854C31.7021 16.7671 31.117 16.0681 30.3673 15.5764C29.6175 15.0847 28.7367 14.8223 27.8357 14.8222H27.8378ZM20.5481 7.19827C20.0091 7.19869 19.4821 7.0418 19.0337 6.74746C18.5854 6.45311 18.2358 6.03453 18.0292 5.54466C17.8227 5.05479 17.7684 4.51565 17.8733 3.99543C17.9782 3.47521 18.2375 2.99729 18.6185 2.62212C18.9995 2.24695 19.485 1.99139 20.0136 1.88777C20.5422 1.78415 21.0902 1.83712 21.5882 2.03998C22.0862 2.24284 22.5119 2.58648 22.8114 3.02743C23.1109 3.46838 23.2707 3.98682 23.2707 4.51718C23.2702 5.22791 22.9833 5.90943 22.4729 6.41238C21.9626 6.91534 21.2704 7.19871 20.5481 7.20039V7.19827ZM23.2707 34.204C23.2707 34.7343 23.1109 35.2528 22.8114 35.6937C22.5119 36.1347 22.0862 36.4783 21.5882 36.6812C21.0902 36.8841 20.5422 36.937 20.0136 36.8334C19.485 36.7298 18.9995 36.4742 18.6185 36.0991C18.2375 35.7239 17.9782 35.246 17.8733 34.7257C17.7684 34.2055 17.8227 33.6664 18.0292 33.1765C18.2358 32.6866 18.5854 32.2681 19.0337 31.9737C19.4821 31.6794 20.0091 31.5225 20.5481 31.5229C20.9059 31.5232 21.2602 31.5928 21.5907 31.7278C21.9212 31.8628 22.2214 32.0605 22.4742 32.3097C22.727 32.5588 22.9275 32.8545 23.0641 33.1799C23.2008 33.5053 23.271 33.854 23.2707 34.2061V34.204ZM5.46943 36.8766C4.93043 36.8766 4.40354 36.7193 3.95541 36.4246C3.50728 36.1299 3.15804 35.7111 2.95188 35.221C2.74571 34.731 2.69188 34.1918 2.79719 33.6717C2.9025 33.1515 3.16222 32.6738 3.5435 32.299C3.92478 31.9241 4.41048 31.6689 4.93917 31.5657C5.46787 31.4625 6.01579 31.5159 6.51364 31.7191C7.01148 31.9224 7.43688 32.2663 7.73602 32.7075C8.03516 33.1487 8.19461 33.6673 8.19418 34.1976C8.19361 34.9083 7.90629 35.5897 7.39536 36.0921C6.88443 36.5944 6.1917 36.8766 5.46943 36.8766ZM12.7591 21.9866C12.2198 21.9866 11.6927 21.8291 11.2444 21.5342C10.7962 21.2392 10.4469 20.82 10.241 20.3296C10.035 19.8392 9.98153 19.2997 10.0874 18.7793C10.1932 18.259 10.4536 17.7813 10.8355 17.4067C11.2174 17.0321 11.7037 16.7774 12.2328 16.6749C12.762 16.5724 13.3101 16.6267 13.8078 16.831C14.3055 17.0352 14.7305 17.3801 15.0289 17.8222C15.3272 18.2642 15.4856 18.7834 15.4839 19.314C15.4833 20.0249 15.196 20.7065 14.6852 21.2092C14.1743 21.7119 13.4816 21.9945 12.7591 21.9951V21.9866ZM27.8378 21.9866C27.2988 21.987 26.7718 21.8301 26.3234 21.5358C25.8751 21.2415 25.5255 20.8229 25.3189 20.333C25.1124 19.8431 25.0581 19.304 25.163 18.7838C25.2679 18.2635 25.5272 17.7856 25.9082 17.4105C26.2892 17.0353 26.7747 16.7797 27.3033 16.6761C27.8319 16.5725 28.3799 16.6255 28.8779 16.8283C29.3759 17.0312 29.8016 17.3748 30.1011 17.8158C30.4006 18.2567 30.5604 18.7752 30.5604 19.3055C30.5616 20.0173 30.2754 20.7005 29.7649 21.2048C29.2544 21.7092 28.5612 21.9934 27.8378 21.9951V21.9866Z" fill="#2C3034"/>
</g>
<defs>
<clipPath id="clip0_745_1827">
<rect width="148.5" height="38.7" fill="white" transform="translate(0.900391)"/>
</clipPath>
</defs>
</svg>
