<svg width="187" height="49" viewBox="0 0 187 49" fill="none" xmlns="http://www.w3.org/2000/svg">
<g clip-path="url(#clip0_7704_53238)">
<path d="M75.2628 11.4023V37.5419H72.1454V15.7361L66.0104 37.5419H58.3247L52.1815 15.7361V37.5419H49.0723V11.4023H53.9421L60.6479 34.7028H63.6872L70.3929 11.4023H75.2628Z" fill="#FF2424"/>
<path d="M80.582 11.4023H83.5782V14.8399H80.582V11.4023ZM80.582 18.8328H83.5782V37.5419H80.582V18.8328Z" fill="#FF2424"/>
<path d="M102.382 23.9872V37.5414H99.3859V24.9291C99.3859 22.6509 98.336 20.971 95.8648 20.971C93.3935 20.971 91.528 22.6428 91.528 25.4927V37.5682H88.521V18.8323H91.528V21.1481C92.0905 20.2547 92.8745 19.5209 93.8043 19.0175C94.7342 18.5141 95.7786 18.2581 96.8366 18.2742C99.7978 18.2742 102.382 20.2143 102.382 23.9872Z" fill="#FF2424"/>
<path d="M108.218 32.164V21.5214H105.747V18.8379H108.256V14.166H111.217V18.8326H115.379V21.516H111.223V32.0835C111.223 34.5845 112.27 35.1453 113.993 35.1453H115.567V37.8288H113.952C110.846 37.8368 108.218 37.166 108.218 32.164Z" fill="#FF2424"/>
<path d="M132.947 24.8089V31.5659C132.947 35.4488 130.438 38.1001 126.954 38.1001C124.817 38.1001 122.946 37.1663 122.085 35.7494V37.5419H119.088V11.4023H122.085V20.6254C122.946 19.2085 124.817 18.2747 126.954 18.2747C130.438 18.2747 132.947 20.9313 132.947 24.8089ZM129.951 25.0316C129.951 22.3079 128.303 20.9635 126.018 20.9635C123.732 20.9635 122.085 22.3052 122.085 25.0316V31.3431C122.085 34.0669 123.732 35.4113 126.018 35.4113C128.303 35.4113 129.951 34.0695 129.951 31.3431V25.0316Z" fill="#FF2424"/>
<path d="M151.002 18.8316V37.5407H148.006V35.7481C147.145 37.165 145.271 38.0988 143.136 38.0988C139.653 38.0988 137.141 35.4476 137.141 31.5646V24.8077C137.141 20.9247 139.653 18.2734 143.136 18.2734C145.271 18.2734 147.145 19.2073 148.006 20.6242V18.8316H151.002ZM148.006 31.3419V25.0304C148.006 22.3067 146.356 20.9623 144.073 20.9623C141.79 20.9623 140.14 22.304 140.14 25.0304V31.3419C140.14 34.0656 141.788 35.41 144.073 35.41C146.359 35.41 148.006 34.079 148.006 31.3419Z" fill="#FF2424"/>
<path d="M155.385 31.5644V30.9686H158.381V31.6771C158.381 34.1405 159.843 35.4098 162.537 35.4098C164.26 35.4098 166.172 34.8892 166.172 32.7988C166.172 30.8184 164.675 30.2575 161.676 29.3103C158.044 28.1913 155.646 27.1098 155.646 23.7474C155.646 19.529 159.431 18.2598 162.314 18.2598C165.499 18.2598 168.944 19.8698 168.944 24.1634V25.0221H165.948V24.2466C165.948 21.6704 164.037 20.962 162.239 20.962C160.292 20.962 158.717 21.7831 158.717 23.5006C158.717 25.3307 160.553 25.9157 163.025 26.6724C166.958 27.8317 169.243 29.1761 169.243 32.6485C169.243 36.7917 165.722 38.0986 162.427 38.0986C158.193 38.104 155.385 35.933 155.385 31.5644Z" fill="#FF2424"/>
<path d="M176.135 29.1388V31.1916C176.135 33.7302 177.71 35.41 180.068 35.41C182.504 35.41 184.001 34.1032 184.001 31.5646H187C187 35.9709 184.378 38.0988 180.068 38.0988C175.911 38.0988 173.139 35.4852 173.139 31.5271V24.8452C173.139 20.8871 175.911 18.2734 180.068 18.2734C184.224 18.2734 187 20.8871 187 24.8452V29.1388H176.135ZM176.135 25.1807V26.8337H184.001V25.1807C184.001 22.6421 182.429 20.9623 180.068 20.9623C177.707 20.9623 176.135 22.6421 176.135 25.1807Z" fill="#FF2424"/>
<path d="M33.6875 18.7464H30.2794V5.69134C30.283 4.40497 29.8509 3.15505 29.0529 2.1441C28.2549 1.13316 27.1378 0.420404 25.8827 0.121327C24.6276 -0.177749 23.308 -0.0456295 22.1376 0.496281C20.9672 1.03819 20.0147 1.95815 19.4343 3.10709C18.8539 4.25604 18.6797 5.56666 18.9399 6.82662C19.2001 8.08658 19.8795 9.22206 20.8679 10.0491C21.8563 10.8761 23.0959 11.3462 24.3859 11.3833C25.6758 11.4203 26.9405 11.0221 27.9751 10.2532V18.7464H14.8273C13.313 18.7464 11.8607 19.346 10.7899 20.4134C9.71914 21.4808 9.11758 22.9285 9.11758 24.438C9.11758 24.4809 9.11758 24.5212 9.11758 24.5614V37.6138H5.7095C4.58188 37.6133 3.47933 37.9455 2.54078 38.5686C1.60222 39.1916 0.869644 40.0776 0.435334 41.1149C0.00102477 42.1522 -0.115584 43.2945 0.100199 44.3978C0.315981 45.501 0.854502 46.516 1.64791 47.3147C2.44133 48.1134 3.45414 48.6602 4.55874 48.8862C5.66335 49.1121 6.81033 49.0071 7.85519 48.5845C8.90005 48.1618 9.79603 47.4403 10.4303 46.5109C11.0645 45.5815 11.4086 44.4858 11.4192 43.3618V43.3618V39.9108H19.9933C19.228 40.9385 18.8329 42.1936 18.8719 43.4729C18.9109 44.7522 19.3818 45.981 20.2083 46.9604C21.0348 47.9399 22.1687 48.6127 23.4264 48.8701C24.6842 49.1275 25.9923 48.9544 27.1391 48.3788C28.2859 47.8032 29.2043 46.8587 29.7458 45.6982C30.2873 44.5377 30.4203 43.229 30.1231 41.9839C29.8259 40.7388 29.116 39.63 28.1082 38.8369C27.1004 38.0439 25.8536 37.6129 24.5697 37.6138H11.4219V28.9999C12.5207 29.8166 13.8777 30.2117 15.2447 30.1129C16.6117 30.0141 17.8973 29.4279 18.8663 28.4617C19.8353 27.4954 20.4229 26.2137 20.5216 24.851C20.6203 23.4883 20.2234 22.1357 19.4037 21.0407H27.9751V24.4917C27.9857 25.615 28.3296 26.7101 28.9634 27.639C29.5972 28.5679 30.4926 29.2891 31.5368 29.7116C32.581 30.1342 33.7273 30.2393 34.8313 30.0136C35.9354 29.788 36.9477 29.2417 37.7408 28.4437C38.534 27.6456 39.0725 26.6314 39.2884 25.5288C39.5044 24.4262 39.3883 23.2846 38.9546 22.2477C38.5209 21.2108 37.789 20.3251 36.8513 19.702C35.9135 19.0789 34.8118 18.7464 33.6848 18.7464H33.6875ZM24.5697 9.08592C23.8955 9.08645 23.2363 8.88766 22.6755 8.51468C22.1147 8.14171 21.6775 7.61132 21.4191 6.9906C21.1607 6.36987 21.0929 5.68671 21.2241 5.02753C21.3553 4.36835 21.6796 3.76277 22.1562 3.28738C22.6327 2.812 23.2399 2.48817 23.9011 2.35687C24.5623 2.22557 25.2477 2.29269 25.8706 2.54974C26.4935 2.80679 27.0259 3.24223 27.4005 3.80096C27.7751 4.3597 27.9751 5.01663 27.9751 5.68866C27.9743 6.58923 27.6155 7.4528 26.9772 8.09011C26.3389 8.72741 25.4731 9.08647 24.5697 9.0886V9.08592ZM27.9751 43.3054C27.9751 43.9774 27.7751 44.6344 27.4005 45.1931C27.0259 45.7518 26.4935 46.1873 25.8706 46.4443C25.2477 46.7014 24.5623 46.7685 23.9011 46.6372C23.2399 46.5059 22.6327 46.1821 22.1562 45.7067C21.6796 45.2313 21.3553 44.6257 21.2241 43.9665C21.0929 43.3074 21.1607 42.6242 21.4191 42.0035C21.6775 41.3828 22.1147 40.8524 22.6755 40.4794C23.2363 40.1064 23.8955 39.9076 24.5697 39.9082C25.0172 39.9085 25.4603 39.9967 25.8737 40.1678C26.287 40.3388 26.6625 40.5894 26.9788 40.9051C27.295 41.2208 27.5457 41.5955 27.7167 42.0078C27.8876 42.4201 27.9754 42.862 27.9751 43.3081V43.3054ZM5.7095 46.6919C5.03533 46.6919 4.37631 46.4926 3.8158 46.1192C3.25528 45.7458 2.81846 45.2151 2.56059 44.5941C2.30272 43.9732 2.23539 43.29 2.36711 42.6309C2.49883 41.9718 2.82368 41.3665 3.30058 40.8915C3.77748 40.4165 4.38499 40.0932 5.04627 39.9624C5.70755 39.8316 6.39288 39.8993 7.01558 40.1568C7.63828 40.4143 8.17036 40.8502 8.54452 41.4092C8.91868 41.9682 9.11811 42.6253 9.11758 43.2974C9.11686 44.1979 8.75748 45.0613 8.11842 45.6979C7.47936 46.3344 6.61291 46.6919 5.7095 46.6919ZM14.8273 27.8245C14.1528 27.8245 13.4935 27.625 12.9328 27.2512C12.3721 26.8775 11.9353 26.3462 11.6776 25.7249C11.42 25.1035 11.3532 24.4198 11.4855 23.7605C11.6179 23.1012 11.9436 22.4959 12.4213 22.0212C12.899 21.5466 13.5072 21.2238 14.1691 21.094C14.8309 20.9641 15.5165 21.0329 16.139 21.2917C16.7616 21.5505 17.2931 21.9876 17.6663 22.5477C18.0395 23.1078 18.2375 23.7656 18.2354 24.438C18.2347 25.3388 17.8754 26.2025 17.2364 26.8394C16.5974 27.4764 15.731 27.8346 14.8273 27.8353V27.8245ZM33.6875 27.8245C33.0133 27.8251 32.3541 27.6263 31.7933 27.2533C31.2325 26.8803 30.7953 26.3499 30.5369 25.7292C30.2786 25.1085 30.2107 24.4253 30.3419 23.7661C30.4731 23.107 30.7974 22.5014 31.274 22.026C31.7505 21.5506 32.3577 21.2268 33.0189 21.0955C33.6801 20.9642 34.3655 21.0313 34.9884 21.2884C35.6113 21.5454 36.1437 21.9808 36.5183 22.5396C36.8929 23.0983 37.0929 23.7552 37.0929 24.4273C37.0943 25.3292 36.7364 26.1949 36.0979 26.8339C35.4593 27.473 34.5923 27.8331 33.6875 27.8353V27.8245Z" fill="#FF2424"/>
</g>
<defs>
<clipPath id="clip0_7704_53238">
<rect width="187" height="49" fill="white"/>
</clipPath>
</defs>
</svg>
