<svg width="217" height="90" viewBox="0 0 217 90" fill="none" xmlns="http://www.w3.org/2000/svg">
<g clip-path="url(#clip0_872_5989)">
<path fill-rule="evenodd" clip-rule="evenodd" d="M46.0448 1.26422V54.1788C46.0448 54.5961 45.7092 54.9348 45.2957 54.9348H39.7959C37.255 54.9348 34.8864 53.6346 33.5066 51.4817L8.75316 12.8707L9.60112 32.1535V54.1788C9.60112 54.5961 9.26553 54.9348 8.85204 54.9348H1.64361C1.23012 54.9348 0.894531 54.5961 0.894531 54.1788V1.26422C0.894531 0.846954 1.23012 0.508301 1.64361 0.508301H7.07072C9.60936 0.508301 11.9757 1.80622 13.3563 3.95607L38.1082 42.4945L37.3382 23.2896V1.26422C37.3382 0.846954 37.6738 0.508301 38.0872 0.508301H45.2957C45.7092 0.508301 46.0448 0.846954 46.0448 1.26422Z" fill="#2C3034"/>
<path fill-rule="evenodd" clip-rule="evenodd" d="M118.264 54.9323H110.628C110.102 54.9323 109.74 54.3986 109.93 53.9035L130.138 1.23003C130.305 0.793866 130.721 0.505859 131.186 0.505859H140.74C141.204 0.505859 141.621 0.793866 141.788 1.23003L161.996 53.9035C162.186 54.3986 161.824 54.9323 161.297 54.9323H153.662C153.351 54.9323 153.072 54.738 152.962 54.444L136.664 11.0774C136.419 10.4273 135.508 10.4273 135.263 11.0774L118.964 54.444C118.854 54.738 118.575 54.9323 118.264 54.9323Z" fill="#2C3034"/>
<path fill-rule="evenodd" clip-rule="evenodd" d="M216.47 53.7107L201.314 34.1724C209.867 32.5396 214.875 26.7084 214.875 17.7666C214.875 7.50419 208.248 0.505859 196.537 0.505859H175.393C174.773 0.505859 174.27 1.01384 174.27 1.63974C174.27 5.65143 177.492 8.90341 181.467 8.90341H195.612C202.702 8.90341 206.091 12.5575 206.091 17.8445C206.091 23.1321 202.777 26.8641 195.612 26.8641H175.393C174.773 26.8641 174.27 27.3714 174.27 27.998V54.1764C174.27 54.5937 174.605 54.9323 175.019 54.9323H182.228C182.641 54.9323 182.977 54.5937 182.977 54.1764V34.6396H191.298L204.458 51.9706C205.876 53.8377 208.073 54.9323 210.404 54.9323H215.88C216.504 54.9323 216.855 54.2066 216.47 53.7107Z" fill="#2C3034"/>
<path fill-rule="evenodd" clip-rule="evenodd" d="M96.9506 46.5355H71.9447C71.5305 46.5355 71.1956 46.1969 71.1956 45.7796V32.1299C71.1956 31.7126 71.5305 31.374 71.9447 31.374H95.0247C95.4382 31.374 95.7738 31.0353 95.7738 30.618V23.7316C95.7738 23.3143 95.4382 22.9757 95.0247 22.9757H63.6119C62.9917 22.9757 62.4883 23.4837 62.4883 24.1096V53.7984C62.4883 54.4251 62.9917 54.9323 63.6119 54.9323H96.9506C97.3648 54.9323 97.6997 54.5944 97.6997 54.1764V47.2914C97.6997 46.8742 97.3648 46.5355 96.9506 46.5355ZM96.9506 0.505859H63.4891C62.9362 0.505859 62.4883 0.958657 62.4883 1.51577C62.4883 5.59549 65.7655 8.90341 69.8091 8.90341H96.9506C97.3648 8.90341 97.6997 8.56475 97.6997 8.14748V1.26178C97.6997 0.844513 97.3648 0.505859 96.9506 0.505859Z" fill="#2C3034"/>
<path fill-rule="evenodd" clip-rule="evenodd" d="M4.15379 72.0609V76.8882C4.15379 77.05 4.28338 77.1808 4.44369 77.1808H13.0641C13.2237 77.1808 13.354 77.3123 13.354 77.4741V80.0314C13.354 80.1931 13.2237 80.3247 13.0641 80.3247H4.44369C4.28338 80.3247 4.15379 80.4554 4.15379 80.6172V88.7041C4.15379 88.8651 4.0242 88.9966 3.8639 88.9966H1.18518C1.02487 88.9966 0.894531 88.8651 0.894531 88.7041V68.9178C0.894531 68.756 1.02487 68.6252 1.18518 68.6252H13.784C13.9443 68.6252 14.0746 68.756 14.0746 68.9178V71.4758C14.0746 71.6368 13.9443 71.7684 13.784 71.7684H4.44369C4.28338 71.7684 4.15379 71.8991 4.15379 72.0609Z" fill="#2C3034"/>
<path fill-rule="evenodd" clip-rule="evenodd" d="M23.2487 78.8102C23.2487 83.0592 26.3341 86.2016 30.4294 86.2016C34.4954 86.2016 37.5809 83.0592 37.5809 78.8102C37.5809 74.5612 34.4954 71.418 30.4294 71.418C26.3341 71.418 23.2487 74.5612 23.2487 78.8102ZM40.8978 78.8102C40.8693 84.8047 36.3411 89.3447 30.4294 89.3447C24.5169 89.3447 19.9609 84.8047 19.9609 78.8102C19.9609 72.815 24.5169 68.2749 30.4294 68.2749C36.3411 68.2749 40.8693 72.815 40.8978 78.8102Z" fill="#2C3034"/>
<path fill-rule="evenodd" clip-rule="evenodd" d="M63.8568 68.6255C64.0171 68.6255 64.1467 68.7563 64.1467 68.918V80.8775C64.1467 86.5522 60.6283 89.3461 55.9847 89.3461C51.3419 89.3461 47.8242 86.5522 47.8242 80.8775V68.918C47.8242 68.7563 47.9538 68.6255 48.1141 68.6255H50.8498C51.0101 68.6255 51.1397 68.7563 51.1397 68.918V80.6734C51.1397 84.6314 53.1877 86.203 55.9847 86.203C58.7826 86.203 60.8298 84.6314 60.8298 80.6734V68.918C60.8298 68.7563 60.9601 68.6255 61.1197 68.6255H63.8568Z" fill="#2C3034"/>
<path fill-rule="evenodd" clip-rule="evenodd" d="M88.5751 68.9179V88.7042C88.5751 88.866 88.4455 88.9967 88.2852 88.9967H86.2889C85.3053 88.9967 84.3885 88.4933 83.8544 87.6603L74.6174 73.2531L74.935 80.4699V88.7042C74.935 88.866 74.8047 88.9967 74.6444 88.9967H71.9657C71.8054 88.9967 71.6758 88.866 71.6758 88.7042V68.9179C71.6758 68.7569 71.8054 68.6254 71.9657 68.6254H73.935C74.9178 68.6254 75.8339 69.1281 76.3688 69.9603L85.605 84.3402L85.3166 77.1529V68.9179C85.3166 68.7569 85.4469 68.6254 85.6065 68.6254H88.2852C88.4455 68.6254 88.5751 68.7569 88.5751 68.9179Z" fill="#2C3034"/>
<path fill-rule="evenodd" clip-rule="evenodd" d="M110.963 78.8116C110.963 74.6789 107.992 71.7686 103.926 71.7686H100.381C100.221 71.7686 100.091 71.8994 100.091 72.0612V85.5612C100.091 85.723 100.221 85.8537 100.381 85.8537H103.926C107.992 85.8537 110.963 82.9729 110.963 78.8116ZM114.221 78.8116C114.221 84.6896 109.751 88.9969 103.897 88.9969H97.1219C96.9616 88.9969 96.832 88.8661 96.832 88.7043V68.918C96.832 68.757 96.9616 68.6255 97.1219 68.6255H103.897C109.78 68.6255 114.221 72.904 114.221 78.8116Z" fill="#2C3034"/>
<path fill-rule="evenodd" clip-rule="evenodd" d="M130.881 80.015L128.1 72.6069C128.006 72.3552 127.652 72.3552 127.558 72.6069L124.776 80.015C124.704 80.2062 124.845 80.4111 125.048 80.4111H130.61C130.813 80.4111 130.953 80.2062 130.881 80.015ZM132.012 83.5255H123.646C123.525 83.5255 123.418 83.6003 123.375 83.7145L121.469 88.8071C121.426 88.9213 121.318 88.9961 121.197 88.9961H118.36C118.157 88.9961 118.017 88.7897 118.09 88.5977L125.681 68.8122C125.724 68.6996 125.832 68.6255 125.952 68.6255H129.706C129.826 68.6255 129.933 68.6996 129.977 68.8122L137.568 88.5977C137.641 88.7897 137.501 88.9961 137.297 88.9961H134.461C134.34 88.9961 134.232 88.9213 134.189 88.8071L132.283 83.7145C132.24 83.6003 132.132 83.5255 132.012 83.5255Z" fill="#2C3034"/>
<path fill-rule="evenodd" clip-rule="evenodd" d="M155.11 71.7686H149.518C149.358 71.7686 149.227 71.8994 149.227 72.0612V88.7043C149.227 88.8661 149.098 88.9969 148.938 88.9969H146.26C146.099 88.9969 145.97 88.8661 145.97 88.7043V72.0612C145.97 71.8994 145.84 71.7686 145.68 71.7686H141.902C140.343 71.7686 139.078 70.4926 139.078 68.918C139.078 68.757 139.208 68.6255 139.368 68.6255H155.11C155.27 68.6255 155.4 68.757 155.4 68.918V71.4761C155.4 71.6378 155.27 71.7686 155.11 71.7686Z" fill="#2C3034"/>
<path fill-rule="evenodd" clip-rule="evenodd" d="M162.782 68.6255H165.461C165.621 68.6255 165.751 68.7563 165.751 68.918V88.7043C165.751 88.8653 165.621 88.9969 165.461 88.9969H162.782C162.622 88.9969 162.492 88.8653 162.492 88.7043V68.918C162.492 68.7563 162.622 68.6255 162.782 68.6255Z" fill="#2C3034"/>
<path fill-rule="evenodd" clip-rule="evenodd" d="M175.987 78.8102C175.987 83.0592 179.072 86.2016 183.168 86.2016C187.234 86.2016 190.319 83.0592 190.319 78.8102C190.319 74.5612 187.234 71.418 183.168 71.418C179.072 71.418 175.987 74.5612 175.987 78.8102ZM193.636 78.8102C193.607 84.8047 189.079 89.3447 183.168 89.3447C177.255 89.3447 172.699 84.8047 172.699 78.8102C172.699 72.815 177.255 68.2749 183.168 68.2749C189.079 68.2749 193.607 72.815 193.636 78.8102Z" fill="#2C3034"/>
<path fill-rule="evenodd" clip-rule="evenodd" d="M216.626 68.9179V88.7042C216.626 88.866 216.496 88.9967 216.336 88.9967H214.339C213.355 88.9967 212.438 88.4933 211.904 87.6603L202.668 73.2531L202.985 80.4699V88.7042C202.985 88.866 202.855 88.9967 202.695 88.9967H200.016C199.856 88.9967 199.727 88.866 199.727 88.7042V68.9179C199.727 68.7569 199.856 68.6254 200.016 68.6254H201.986C202.969 68.6254 203.885 69.1281 204.42 69.9603L213.656 84.3402L213.367 77.1529V68.9179C213.367 68.7569 213.497 68.6254 213.657 68.6254H216.336C216.496 68.6254 216.626 68.7569 216.626 68.9179Z" fill="#2C3034"/>
</g>
<defs>
<clipPath id="clip0_872_5989">
<rect width="215.736" height="89.1989" fill="white" transform="translate(0.898438 0.505981)"/>
</clipPath>
</defs>
</svg>
