<svg width="303" height="29" viewBox="0 0 303 29" fill="none" xmlns="http://www.w3.org/2000/svg">
<path d="M0 25.3619V0.148438H7.24727V3.75035H10.8709V7.35227H14.4945V10.9542H18.1181V0.148438H25.3654V25.3619H18.1181V18.1581H14.4945V14.5561H10.8709V10.9542H7.24727V25.3619H0ZM28.9891 25.3619V0.148438H54.3545V3.75035H36.2364V10.9542H50.7309V14.5561H36.2364V21.7599H54.3545V25.3619H28.9891ZM57.9782 25.3619V7.35227H61.6018V3.75035H65.2255V0.148438H76.0963V3.75035H79.72V7.35227H83.3436V25.3619H76.0963V18.1581H65.2255V25.3619H57.9782ZM65.2255 14.5561H76.0963V7.35227H72.4727V3.75035H68.849V7.35227H65.2255V14.5561ZM86.9673 25.3619V0.148438H108.709V3.75035H112.333V14.5561H105.085V18.1581H108.709V21.7599H112.333V25.3619H101.462V21.7599H97.8381V18.1581H94.2145V25.3619H86.9673ZM94.2145 14.5561H101.462V10.9542H105.085V3.75035H94.2145V14.5561Z" fill="#FF85FB"/>
<path d="M119.58 25.3619V21.7599H115.957V18.1581H123.204V21.7599H134.075V14.5561H119.58V10.9542H115.957V3.75035H119.58V0.148438H137.698V3.75035H141.322V7.35227H134.075V3.75035H123.204V10.9542H137.698V14.5561H141.322V21.7599H137.698V25.3619H119.58Z" fill="#2C3034"/>
<path d="M147.474 25.3619V3.75035H140.228V0.148438H161.969V3.75035H154.722V25.3619H147.474Z" fill="#2C3034"/>
<path d="M161.137 25.3619V7.35227H164.761V3.75035H168.383V0.148438H179.255V3.75035H182.878V7.35227H186.502V25.3619H179.255V18.1581H168.383V25.3619H161.137ZM168.383 14.5561H179.255V7.35227H175.631V3.75035H172.007V7.35227H168.383V14.5561ZM190.126 25.3619V0.148438H211.867V3.75035H215.491V14.5561H208.244V18.1581H211.867V21.7599H215.491V25.3619H204.62V21.7599H200.996V18.1581H197.372V25.3619H190.126ZM197.372 14.5561H204.62V10.9542H208.244V3.75035H197.372V14.5561Z" fill="#2C3034"/>
<path d="M222.977 25.3619V3.75035H215.73V0.148438H237.472V3.75035H230.225V25.3619H222.977ZM241.096 25.3619V0.148438H266.461V3.75035H248.344V10.9542H262.838V14.5561H248.344V21.7599H266.461V25.3619H241.096ZM270.085 25.3619V0.148438H291.827V3.75035H295.45V14.5561H288.203V18.1581H291.827V21.7599H295.45V25.3619H284.579V21.7599H280.955V18.1581H277.333V25.3619H270.085ZM277.333 14.5561H284.579V10.9542H288.203V3.75035H277.333V14.5561Z" fill="#2C3034"/>
<path d="M303 21.4941H299.335V25.1364H303V21.4941Z" fill="#FF85FB"/>
</svg>
