<svg width="181" height="22" viewBox="0 0 181 22" fill="none" xmlns="http://www.w3.org/2000/svg">
<g clip-path="url(#clip0_745_1812)">
<path d="M11.2459 20.0481L2.35547 11.2106L11.2459 2.37305" stroke="#2C3034" stroke-width="3.53077" stroke-linecap="round" stroke-linejoin="round"/>
<path d="M22.9922 2.37305L31.7767 11.2106L22.9922 20.0481" stroke="#2C3034" stroke-width="3.53077" stroke-linecap="round" stroke-linejoin="round"/>
<path d="M46.8652 20.0267V3.54982H50.0194L59.1288 15.8604H58.4697C58.407 15.374 58.352 14.9032 58.3049 14.4481C58.2579 13.9774 58.2108 13.5066 58.1637 13.0358C58.1323 12.5494 58.101 12.0551 58.0695 11.5529C58.0539 11.035 58.0381 10.4937 58.0225 9.92874C58.0068 9.34816 57.9989 8.72039 57.9989 8.04566V3.54982H61.4591V20.0267H58.2578L48.9602 7.59843L49.8546 7.62197C49.9331 8.43793 49.9959 9.13632 50.0429 9.71689C50.1057 10.2818 50.1527 10.7761 50.1842 11.1998C50.2156 11.6235 50.2391 11.9922 50.2548 12.3061C50.2862 12.62 50.3019 12.9181 50.3019 13.2006C50.3175 13.483 50.3254 13.7812 50.3254 14.095V20.0267H46.8652ZM71.1748 20.2621C69.8252 20.2621 68.6483 19.9875 67.644 19.4383C66.6397 18.889 65.8551 18.1358 65.2902 17.1786C64.7253 16.2214 64.4428 15.1229 64.4428 13.8832C64.4428 12.926 64.5997 12.0472 64.9136 11.2469C65.2274 10.4466 65.6668 9.75608 66.2317 9.17551C66.7967 8.57916 67.4635 8.12416 68.2325 7.81028C69.017 7.48074 69.8644 7.31597 70.7747 7.31597C71.622 7.31597 72.4066 7.47289 73.1285 7.78674C73.8503 8.08485 74.4702 8.51643 74.988 9.08135C75.5215 9.63062 75.9296 10.2818 76.212 11.035C76.4945 11.7883 76.62 12.6121 76.5887 13.5066L76.5651 14.5423H66.5613L66.0199 12.4944H73.8111L73.4345 12.9181V12.4003C73.4031 11.9766 73.2619 11.5921 73.0108 11.2469C72.7754 10.9017 72.4694 10.6349 72.0928 10.4466C71.7162 10.2583 71.2925 10.1641 70.8217 10.1641C70.1312 10.1641 69.5428 10.2975 69.0564 10.5643C68.5856 10.8311 68.2246 11.2234 67.9736 11.7412C67.7224 12.259 67.597 12.8867 67.597 13.6243C67.597 14.3775 67.7539 15.0287 68.0677 15.578C68.3973 16.1272 68.8523 16.5587 69.433 16.8726C70.0292 17.1707 70.7276 17.3198 71.5279 17.3198C72.077 17.3198 72.5792 17.2335 73.0344 17.0609C73.4894 16.8882 73.9759 16.5901 74.4937 16.1664L76.0944 18.4026C75.6392 18.8106 75.137 19.1558 74.5879 19.4383C74.0386 19.7051 73.4737 19.909 72.8931 20.0503C72.3124 20.1915 71.7397 20.2621 71.1748 20.2621ZM83.7193 20.2621C82.6836 20.2621 81.7499 19.9797 80.9182 19.4147C80.0865 18.8498 79.4274 18.0809 78.941 17.108C78.4546 16.135 78.2113 15.0209 78.2113 13.7655C78.2113 12.5101 78.4546 11.4038 78.941 10.4466C79.4432 9.47362 80.1179 8.71263 80.9653 8.16335C81.8127 7.59843 82.7777 7.31597 83.8605 7.31597C84.4725 7.31597 85.0295 7.41012 85.5317 7.59843C86.0496 7.77109 86.4968 8.01424 86.8734 8.32812C87.2657 8.64201 87.5952 9.00285 87.8621 9.41089C88.1289 9.81893 88.3172 10.2583 88.427 10.729L87.7208 10.6114V7.57489H91.0397V20.0267H87.6737V17.0374L88.427 16.9667C88.3014 17.4061 88.0974 17.822 87.815 18.2143C87.5325 18.6065 87.1794 18.9596 86.7557 19.2735C86.3477 19.5716 85.8848 19.8149 85.367 20.0032C84.8491 20.1759 84.2999 20.2621 83.7193 20.2621ZM84.6373 17.3669C85.2649 17.3669 85.8142 17.2178 86.285 16.9197C86.7558 16.6215 87.1167 16.2056 87.3677 15.6721C87.6346 15.1229 87.7679 14.4873 87.7679 13.7655C87.7679 13.0594 87.6346 12.4395 87.3677 11.906C87.1167 11.3725 86.7558 10.9565 86.285 10.6584C85.8142 10.3445 85.2649 10.1877 84.6373 10.1877C84.0253 10.1877 83.4839 10.3445 83.0131 10.6584C82.558 10.9565 82.1972 11.3725 81.9304 11.906C81.6636 12.4395 81.5302 13.0594 81.5302 13.7655C81.5302 14.4873 81.6636 15.1229 81.9304 15.6721C82.1972 16.2056 82.558 16.6215 83.0131 16.9197C83.4839 17.2178 84.0253 17.3669 84.6373 17.3669ZM94.3909 20.0267V7.57489H97.6157L97.7334 11.5764L97.1685 10.7526C97.3568 10.1092 97.6628 9.52859 98.0865 9.01074C98.5101 8.47724 99.0045 8.06132 99.5694 7.7632C100.15 7.46505 100.754 7.31597 101.382 7.31597C101.649 7.31597 101.907 7.33951 102.159 7.38659C102.41 7.43366 102.621 7.48859 102.794 7.55135L101.9 11.2234C101.711 11.1292 101.484 11.0507 101.217 10.988C100.95 10.9095 100.676 10.8703 100.393 10.8703C100.017 10.8703 99.6635 10.9409 99.334 11.0821C99.0201 11.2077 98.7455 11.396 98.5102 11.647C98.2748 11.8824 98.0865 12.1649 97.9452 12.4944C97.8196 12.824 97.7569 13.1849 97.7569 13.5772V20.0267H94.3909ZM117.744 20.2621C116.724 20.2621 115.79 20.1365 114.943 19.8855C114.111 19.6345 113.366 19.2656 112.707 18.7792C112.063 18.2928 111.483 17.7043 110.965 17.0138L113.177 14.4952C113.946 15.5623 114.707 16.292 115.461 16.6843C116.229 17.0609 117.061 17.2492 117.956 17.2492C118.442 17.2492 118.874 17.1865 119.251 17.0609C119.643 16.9197 119.949 16.7235 120.169 16.4724C120.388 16.2214 120.498 15.9232 120.498 15.578C120.498 15.3269 120.443 15.0993 120.333 14.8954C120.223 14.6756 120.066 14.4873 119.863 14.3304C119.658 14.1578 119.415 14.0088 119.133 13.8832C118.851 13.742 118.536 13.6243 118.191 13.5301C117.845 13.4203 117.469 13.3339 117.061 13.2712C116.182 13.0672 115.413 12.824 114.754 12.5415C114.095 12.2434 113.546 11.8824 113.107 11.4587C112.667 11.0194 112.338 10.5251 112.118 9.97582C111.914 9.42655 111.812 8.80678 111.812 8.11628C111.812 7.41012 111.969 6.7589 112.283 6.16259C112.597 5.55059 113.028 5.02489 113.577 4.58551C114.142 4.14613 114.786 3.80874 115.508 3.57335C116.245 3.33797 117.022 3.22028 117.838 3.22028C118.842 3.22028 119.721 3.33797 120.475 3.57335C121.228 3.79305 121.879 4.11474 122.428 4.53843C122.993 4.96212 123.464 5.47997 123.841 6.09197L121.605 8.25751C121.275 7.81816 120.914 7.44935 120.522 7.1512C120.145 6.85305 119.729 6.63335 119.274 6.49212C118.834 6.33521 118.38 6.25674 117.909 6.25674C117.391 6.25674 116.943 6.32735 116.567 6.46859C116.19 6.59413 115.892 6.78244 115.672 7.03351C115.468 7.28458 115.366 7.59058 115.366 7.95151C115.366 8.23397 115.437 8.48501 115.578 8.70474C115.719 8.92447 115.923 9.12055 116.19 9.2932C116.457 9.45008 116.779 9.59132 117.155 9.71689C117.532 9.84247 117.948 9.95228 118.403 10.0464C119.266 10.2191 120.043 10.4466 120.734 10.729C121.423 11.0115 122.012 11.3567 122.499 11.7647C123 12.157 123.385 12.6278 123.652 13.177C123.918 13.7105 124.053 14.3148 124.053 14.9895C124.053 16.1037 123.785 17.053 123.252 17.8377C122.718 18.6223 121.981 19.2264 121.04 19.6501C120.098 20.0582 118.999 20.2621 117.744 20.2621ZM132.57 20.2621C131.299 20.2621 130.161 19.9875 129.157 19.4383C128.168 18.8734 127.383 18.1045 126.803 17.1315C126.238 16.1585 125.956 15.0445 125.956 13.789C125.956 12.5336 126.238 11.4273 126.803 10.4701C127.383 9.49716 128.168 8.72828 129.157 8.16335C130.161 7.59843 131.299 7.31597 132.57 7.31597C133.825 7.31597 134.947 7.59843 135.936 8.16335C136.94 8.72828 137.725 9.49716 138.29 10.4701C138.855 11.4273 139.137 12.5336 139.137 13.789C139.137 15.0445 138.855 16.1585 138.29 17.1315C137.725 18.1045 136.94 18.8734 135.936 19.4383C134.947 19.9875 133.825 20.2621 132.57 20.2621ZM132.57 17.3434C133.182 17.3434 133.73 17.1942 134.218 16.8961C134.704 16.5822 135.08 16.1585 135.347 15.625C135.63 15.0758 135.771 14.4638 135.771 13.789C135.771 13.0985 135.63 12.4865 135.347 11.953C135.08 11.4038 134.704 10.9801 134.218 10.682C133.73 10.3681 133.182 10.2112 132.57 10.2112C131.941 10.2112 131.385 10.3681 130.899 10.682C130.411 10.9959 130.028 11.4195 129.745 11.953C129.463 12.4865 129.329 13.0985 129.345 13.789C129.329 14.4638 129.463 15.0758 129.745 15.625C130.028 16.1585 130.411 16.5822 130.899 16.8961C131.385 17.1942 131.941 17.3434 132.57 17.3434ZM147.066 20.2621C145.873 20.2621 144.806 19.9797 143.865 19.4147C142.923 18.8498 142.177 18.0809 141.629 17.108C141.094 16.135 140.828 15.0287 140.828 13.789C140.828 12.565 141.094 11.4666 141.629 10.4937C142.177 9.50505 142.923 8.72828 143.865 8.16335C144.806 7.59843 145.873 7.31597 147.066 7.31597C148.179 7.31597 149.2 7.51997 150.126 7.92797C151.051 8.33601 151.774 8.90093 152.292 9.62274L150.456 11.8354C150.236 11.5372 149.961 11.2704 149.632 11.035C149.302 10.784 148.941 10.5878 148.549 10.4466C148.172 10.3054 147.779 10.2347 147.372 10.2347C146.728 10.2347 146.155 10.3916 145.654 10.7055C145.167 11.0036 144.783 11.4195 144.5 11.953C144.218 12.4865 144.077 13.0985 144.077 13.789C144.077 14.4638 144.218 15.068 144.5 15.6015C144.798 16.1194 145.198 16.543 145.701 16.8726C146.202 17.1865 146.767 17.3434 147.396 17.3434C147.803 17.3434 148.188 17.2884 148.549 17.1786C148.909 17.053 149.247 16.8726 149.561 16.6372C149.891 16.4018 150.188 16.1194 150.456 15.7898L152.268 18.0024C151.734 18.6772 150.997 19.2264 150.055 19.6501C149.114 20.0582 148.117 20.2621 147.066 20.2621ZM154.691 20.0267V7.57489H158.034V20.0267H154.691ZM156.339 5.0092C155.696 5.0092 155.194 4.85228 154.833 4.53843C154.472 4.22458 154.291 3.77735 154.291 3.19674C154.291 2.6632 154.472 2.23166 154.833 1.90212C155.209 1.5569 155.712 1.38428 156.339 1.38428C156.983 1.38428 157.485 1.54905 157.846 1.87859C158.207 2.19244 158.387 2.63182 158.387 3.19674C158.387 3.74597 158.199 4.18535 157.822 4.51489C157.462 4.84443 156.968 5.0092 156.339 5.0092ZM166.265 20.2621C165.23 20.2621 164.295 19.9797 163.464 19.4147C162.632 18.8498 161.973 18.0809 161.487 17.108C161 16.135 160.757 15.0209 160.757 13.7655C160.757 12.5101 161 11.4038 161.487 10.4466C161.988 9.47362 162.664 8.71263 163.511 8.16335C164.359 7.59843 165.324 7.31597 166.406 7.31597C167.018 7.31597 167.575 7.41012 168.078 7.59843C168.596 7.77109 169.043 8.01424 169.419 8.32812C169.811 8.64201 170.141 9.00285 170.408 9.41089C170.674 9.81893 170.862 10.2583 170.973 10.729L170.267 10.6114V7.57489H173.586V20.0267H170.22V17.0374L170.973 16.9667C170.847 17.4061 170.643 17.822 170.361 18.2143C170.078 18.6065 169.725 18.9596 169.302 19.2735C168.893 19.5716 168.431 19.8149 167.913 20.0032C167.395 20.1759 166.845 20.2621 166.265 20.2621ZM167.183 17.3669C167.811 17.3669 168.36 17.2178 168.831 16.9197C169.302 16.6215 169.662 16.2056 169.914 15.6721C170.18 15.1229 170.314 14.4873 170.314 13.7655C170.314 13.0594 170.18 12.4395 169.914 11.906C169.662 11.3725 169.302 10.9565 168.831 10.6584C168.36 10.3445 167.811 10.1877 167.183 10.1877C166.571 10.1877 166.03 10.3445 165.559 10.6584C165.104 10.9565 164.742 11.3725 164.476 11.906C164.209 12.4395 164.076 13.0594 164.076 13.7655C164.076 14.4873 164.209 15.1229 164.476 15.6721C164.742 16.2056 165.104 16.6215 165.559 16.9197C166.03 17.2178 166.571 17.3669 167.183 17.3669ZM176.96 20.0267V2.60828H180.302V20.0267H176.96Z" fill="#2C3034"/>
</g>
<defs>
<clipPath id="clip0_745_1812">
<rect width="180.9" height="21.6" fill="white" transform="translate(0 0.399902)"/>
</clipPath>
</defs>
</svg>
