<svg width="162" height="30" viewBox="0 0 162 30" fill="none" xmlns="http://www.w3.org/2000/svg">
<g clip-path="url(#clip0_7704_53260)">
<path d="M47.0931 13.5249C47.2904 10.8203 46.9901 8.47457 46.1922 6.48772C45.3943 4.50086 44.1765 2.96323 42.5389 1.87482C40.9012 0.786412 38.9151 0.242208 36.5806 0.242208C34.3646 0.242208 32.414 0.741256 30.7287 1.73935C29.0435 2.73745 27.7253 4.14309 26.7741 5.95627C25.8228 7.76945 25.3472 9.90567 25.3472 12.3649C25.3472 14.6481 25.8321 16.6644 26.802 18.4139C27.7718 20.1634 29.1197 21.5319 30.8455 22.5196C32.5714 23.5073 34.576 24.0011 36.8596 24.0011C39.0384 24.0011 41.032 23.4396 42.8404 22.3164C44.6487 21.1933 45.9838 19.6151 46.8455 17.5821L41.863 16.0883C41.3752 17.1258 40.683 17.9202 39.7863 18.4714C38.8896 19.0226 37.8211 19.2982 36.5806 19.2982C34.6597 19.2982 33.1957 18.6729 32.1887 17.4223C31.4055 16.4497 30.9269 15.1646 30.7529 13.5673L30.7483 13.5253L44.6295 13.5249H47.0931ZM41.9743 9.72493H30.8704L30.9114 9.51088C31.1374 8.37656 31.5279 7.43352 32.0828 6.68179L32.1887 6.54308C33.1957 5.26938 34.7294 4.63253 36.7897 4.63253C38.6109 4.63253 39.9466 5.19643 40.7968 6.32424C41.3737 7.08954 41.7581 8.15923 41.9499 9.53331L41.9743 9.72493ZM57.6818 24.0011C59.7097 24.0011 61.4037 23.6219 62.7638 22.8635C63.7839 22.2947 64.7076 21.4839 65.5349 20.4312L65.5982 20.3483L65.5984 23.3759H70.0164V9.56504C70.0164 8.58334 69.9746 7.67914 69.891 6.85244C69.8073 6.02574 69.5634 5.21869 69.1593 4.43128C68.4136 2.94005 67.28 1.86907 65.7586 1.21832C64.2371 0.56758 62.4717 0.242208 60.4623 0.242208C57.8003 0.242208 55.6835 0.818813 54.1121 1.97202C52.5407 3.12523 51.4751 4.65131 50.9154 6.55024L55.5216 7.98828C55.9001 6.84202 56.5627 6.03089 57.5093 5.55491C58.456 5.07893 59.4357 4.84094 60.4486 4.84094C62.1396 4.84094 63.3388 5.20973 64.0461 5.94731C64.6248 6.55079 64.9629 7.42752 65.0604 8.5775L65.0654 8.64852L64.9232 8.66932C64.2764 8.76384 63.6422 8.85546 63.0206 8.9442L62.4032 9.03197C60.9723 9.23452 59.65 9.45101 58.4362 9.68146C57.2225 9.91191 56.1581 10.1765 55.243 10.4752C54.0535 10.8827 53.0819 11.4031 52.3282 12.0365C51.5745 12.6699 51.0159 13.4179 50.6523 14.2805C50.2887 15.1431 50.107 16.1186 50.107 17.2069C50.107 18.4435 50.3956 19.5765 50.9728 20.6058C51.55 21.6352 52.4025 22.4584 53.5303 23.0755C54.6582 23.6926 56.042 24.0011 57.6818 24.0011ZM58.6784 19.9928C57.884 19.9928 57.2179 19.87 56.6801 19.6245C56.1423 19.3789 55.7358 19.0414 55.4605 18.6119C55.1853 18.1824 55.0476 17.6932 55.0476 17.1444C55.0476 16.6605 55.1557 16.2367 55.3717 15.8731C55.5877 15.5094 55.8984 15.1904 56.3038 14.916C56.7092 14.6416 57.2011 14.3979 57.7795 14.1849C58.3812 13.9859 59.0699 13.807 59.8458 13.6483C60.6216 13.4896 61.5536 13.3223 62.6419 13.1463C63.3117 13.038 64.0647 12.917 64.9011 12.7833L65.0094 12.7661L65.0046 12.9427C64.9965 13.2111 64.9851 13.5042 64.9705 13.8221L64.9589 14.0651C64.9183 14.8907 64.7668 15.6231 64.5044 16.2622C64.3417 16.7854 64.0188 17.3359 63.5357 17.9137C63.0526 18.4915 62.4079 18.9825 61.6019 19.3866C60.7958 19.7907 59.8213 19.9928 58.6784 19.9928ZM80.5182 23.3759V11.9409C80.5182 11.0704 80.6227 10.2634 80.8318 9.5201C81.0408 8.77677 81.3643 8.11387 81.8021 7.5314C82.2399 6.94894 82.8038 6.46894 83.4937 6.09141C84.2023 5.68631 84.9893 5.44669 85.8545 5.37255C86.7197 5.29841 87.4914 5.3598 88.1698 5.5567V0.867443C87.4914 0.763237 86.7969 0.735449 86.0861 0.784078C85.3753 0.832708 84.6825 0.961228 84.0077 1.16964C83.3329 1.37805 82.718 1.67102 82.1629 2.04855C81.5124 2.45148 80.9537 2.96323 80.4868 3.58379C80.2793 3.8596 80.0899 4.14822 79.9187 4.44965L79.9047 4.47465L79.9051 0.867443H75.4521V23.3759H80.5182ZM97.1732 30L97.1732 22.2302L97.2517 22.2899L97.4522 22.4346C98.9389 23.479 100.783 24.0011 102.985 24.0011C105.071 24.0011 106.886 23.4795 108.429 22.4363C109.973 21.393 111.171 19.9747 112.022 18.1812C112.873 16.3878 113.299 14.3657 113.299 12.1148C113.299 9.8362 112.869 7.80359 112.008 6.017C111.147 4.23041 109.931 2.8213 108.36 1.78966C106.788 0.758027 104.934 0.242208 102.797 0.242208C100.658 0.242208 98.8582 0.7615 97.3983 1.80008C97.1202 1.99791 96.855 2.20939 96.6026 2.43452L96.5595 2.47446L96.5601 0.867443H92.1071V30H97.1732ZM102.219 19.5066C100.867 19.5066 99.7751 19.1951 98.9435 18.5722C98.112 17.9492 97.5068 17.0814 97.1281 15.9687C96.7494 14.8559 96.5601 13.5713 96.5601 12.1148C96.5601 10.6536 96.7499 9.36776 97.1297 8.25742C97.5095 7.14709 98.1036 6.28272 98.912 5.66433C99.7204 5.04593 100.765 4.73673 102.045 4.73673C103.401 4.73673 104.517 5.06791 105.391 5.73027C106.266 6.39263 106.914 7.28191 107.336 8.3981C107.757 9.5143 107.968 10.7532 107.968 12.1148C107.968 13.4903 107.761 14.7373 107.348 15.8558C106.934 16.9743 106.304 17.8624 105.458 18.5201C104.611 19.1778 103.531 19.5066 102.219 19.5066ZM124.219 24.0011C126.247 24.0011 127.941 23.6219 129.301 22.8635C130.321 22.2947 131.244 21.4839 132.072 20.4312L132.135 20.3489L132.135 23.3759H136.553V9.56504C136.553 8.58334 136.512 7.67914 136.428 6.85244C136.344 6.02574 136.1 5.21869 135.696 4.43128C134.951 2.94005 133.817 1.86907 132.296 1.21832C130.774 0.56758 129.009 0.242208 126.999 0.242208C124.337 0.242208 122.22 0.818813 120.649 1.97202C119.078 3.12523 118.012 4.65131 117.452 6.55024L122.059 7.98828C122.437 6.84202 123.1 6.03089 124.046 5.55491C124.993 5.07893 125.973 4.84094 126.986 4.84094C128.677 4.84094 129.876 5.20973 130.583 5.94731C131.162 6.55079 131.5 7.42752 131.597 8.5775L131.602 8.64852L131.46 8.66932C130.813 8.76384 130.179 8.85546 129.558 8.9442L128.94 9.03197C127.509 9.23452 126.187 9.45101 124.973 9.68146C123.759 9.91191 122.695 10.1765 121.78 10.4752C120.59 10.8827 119.619 11.4031 118.865 12.0365C118.111 12.6699 117.553 13.4179 117.189 14.2805C116.826 15.1431 116.644 16.1186 116.644 17.2069C116.644 18.4435 116.933 19.5765 117.51 20.6058C118.087 21.6352 118.939 22.4584 120.067 23.0755C121.195 23.6926 122.579 24.0011 124.219 24.0011ZM125.215 19.9928C124.421 19.9928 123.755 19.87 123.217 19.6245C122.679 19.3789 122.273 19.0414 121.997 18.6119C121.722 18.1824 121.585 17.6932 121.585 17.1444C121.585 16.6605 121.693 16.2367 121.909 15.8731C122.125 15.5094 122.435 15.1904 122.841 14.916C123.246 14.6416 123.738 14.3979 124.316 14.1849C124.918 13.9859 125.607 13.807 126.383 13.6483C127.159 13.4896 128.091 13.3223 129.179 13.1463C129.849 13.038 130.602 12.917 131.438 12.7833L131.546 12.7661L131.542 12.9427C131.533 13.2111 131.522 13.5042 131.507 13.8221L131.496 14.0651C131.455 14.8907 131.304 15.6231 131.041 16.2622C130.879 16.7854 130.556 17.3359 130.073 17.9137C129.59 18.4915 128.945 18.9825 128.139 19.3866C127.333 19.7907 126.358 19.9928 125.215 19.9928ZM143.529 0.867443L149.833 16.9816L155.968 0.867443H161.02L149.812 29.789H145.081L147.419 23.2328L138.295 0.867443H143.529ZM11.0181 0C17.0384 0 21.9311 4.81356 22.0345 10.7906L22.0361 10.9839V23.9392H15.8208V10.9839C15.8208 8.33961 13.6706 6.19602 11.0181 6.19602C8.41381 6.19602 6.29368 8.26237 6.21744 10.8401L6.21532 10.9839V23.9392H0V10.9839C0 4.91764 4.93296 0 11.0181 0Z" fill="#212F53"/>
</g>
<defs>
<clipPath id="clip0_7704_53260">
<rect width="161.02" height="30" fill="white"/>
</clipPath>
</defs>
</svg>
