<svg viewBox="0 -8 244 37" fill="none" xmlns="http://www.w3.org/2000/svg">
<path d="M27.9004 23H32.4739V16.6589C32.4739 12.8484 34.6213 11.7722 36.6291 11.7722C36.9917 11.7722 37.3263 11.8013 37.8004 11.8595V7.84543C37.3542 7.72908 36.9917 7.69995 36.6849 7.69995C34.4818 7.69995 33.1153 9.24162 32.5576 11.6268H32.4739V7.87448H27.9004V23Z" fill="#2C3034"/>
<path d="M46.0749 23.9C48.281 23.9 49.7996 22.7046 50.2007 21.5676V23.6084H54.8996V3.19995H50.2007V10.4887C49.7996 9.35166 48.281 8.15627 46.0749 8.15627C43.0378 8.15627 39.5996 10.4303 39.5996 16.0282C39.5996 21.655 43.0378 23.9 46.0749 23.9ZM44.0119 16.0282C44.0119 13.3458 45.5878 12.1213 47.2496 12.1213C48.8827 12.1213 50.4013 13.3458 50.4013 16.0282C50.4013 18.7104 48.8827 19.9349 47.2496 19.9349C45.5878 19.9349 44.0119 18.7104 44.0119 16.0282Z" fill="#2C3034"/>
<path d="M65.8809 23C69.4457 23 72.0364 21.13 72.705 17.73H68.6943C68.4436 18.6933 67.8307 19.4866 65.9645 19.4866C64.1819 19.4866 63.0679 18.6649 62.8171 16.5116H72.8164C72.8721 16.1716 72.9 15.8883 72.9 15.35C72.9 9.59831 69.6128 7.69995 65.8809 7.69995C62.0094 7.69995 58.5 9.79661 58.5 15.2933C58.5 21.0166 62.2879 23 65.8809 23ZM62.845 13.82C63.1235 12.1199 64.0705 11.2133 65.7695 11.2133C67.8586 11.2133 68.4993 12.545 68.5829 13.82H62.845Z" fill="#2C3034"/>
<path d="M76.5 23H81.0738V16.6589C81.0738 12.8484 83.2209 11.7722 85.2292 11.7722C85.5919 11.7722 85.9266 11.8013 86.4 11.8595V7.84543C85.9545 7.72908 85.5919 7.69995 85.285 7.69995C83.0814 7.69995 81.7154 9.24162 81.1575 11.6268H81.0738V7.87448H76.5V23Z" fill="#2C3034"/>
<path d="M89.0996 23.9H93.5996V3.19995H89.0996V23.9Z" fill="#2C3034"/>
<path d="M97.8034 24.3747V28.3149C102.461 28.8003 104.399 27.2585 106.424 22.376L112.499 7.69995H107.639L104.341 16.5798L101.13 7.69995H96.2988L101.767 21.034C102.143 21.9192 102.172 22.376 101.853 23.0898C101.593 23.6609 100.928 24.7744 97.8034 24.3747Z" fill="#2C3034"/>
<path d="M122.4 23.9H127.136V11.5391H127.25L134.397 23.9H139.5V3.19995H134.736V15.8861H134.623L127.306 3.19995H122.4V23.9Z" fill="#2C3034"/>
<path d="M150.481 23C154.046 23 156.636 21.13 157.305 17.73H153.294C153.043 18.6933 152.43 19.4866 150.565 19.4866C148.782 19.4866 147.667 18.6649 147.417 16.5116H157.416C157.472 16.1716 157.5 15.8883 157.5 15.35C157.5 9.59831 154.213 7.69995 150.481 7.69995C146.609 7.69995 143.1 9.79661 143.1 15.2933C143.1 21.0166 146.887 23 150.481 23ZM147.445 13.82C147.723 12.1199 148.67 11.2133 150.37 11.2133C152.458 11.2133 153.099 12.545 153.182 13.82H147.445Z" fill="#2C3034"/>
<path d="M166.828 23.0001C167.682 23.0001 168.509 22.8861 169.199 22.6866V19.2372C168.564 19.2942 168.316 19.2942 168.013 19.2942C166.552 19.2942 166.276 18.4676 166.276 17.4413V11.5974H169.089V7.97701H166.276V4.1001H161.754V7.97701H159.299V11.5974H161.754V18.0969C161.754 21.5463 163.739 23.0001 166.828 23.0001Z" fill="#2C3034"/>
<path d="M175.82 23H181.19L183.6 14.1142L186.01 23H191.352L195.3 7.69995H190.8L188.449 18.3511H188.333L185.632 7.69995H181.539L178.839 18.3511H178.723L176.371 7.69995H171.9L175.82 23Z" fill="#2C3034"/>
<path d="M204.75 23C208.546 23 212.4 20.7616 212.4 15.35C212.4 9.93831 208.546 7.69995 204.75 7.69995C200.925 7.69995 197.1 9.93831 197.1 15.35C197.1 20.7616 200.925 23 204.75 23ZM201.533 15.35C201.533 12.7433 202.895 11.5533 204.75 11.5533C206.575 11.5533 207.937 12.7433 207.937 15.35C207.937 17.9566 206.575 19.1466 204.75 19.1466C202.895 19.1466 201.533 17.9566 201.533 15.35Z" fill="#2C3034"/>
<path d="M215.1 23H219.673V16.6589C219.673 12.8484 221.82 11.7722 223.828 11.7722C224.191 11.7722 224.525 11.8013 225 11.8595V7.84543C224.553 7.72908 224.191 7.69995 223.884 7.69995C221.681 7.69995 220.315 9.24162 219.757 11.6268H219.673V7.87448H215.1V23Z" fill="#2C3034"/>
<path d="M227.699 23.9H232.346V19.4643L233.508 18.1631L237.899 23.9H242.999L236.341 15.0286L242.234 8.52279H237.162L232.346 14.2597V3.19995H227.699V23.9Z" fill="#2C3034"/>
<path fill-rule="evenodd" clip-rule="evenodd" d="M13.023 1.3999H13.0778C15.9688 1.40741 18.6098 2.61362 20.6302 4.60069C20.7733 4.7415 20.6827 4.9999 20.4927 4.9999H5.60819C5.41815 4.9999 5.32744 4.7415 5.47059 4.60069C7.49094 2.61362 10.132 1.40741 13.023 1.3999Z" fill="#2C3034"/>
<path fill-rule="evenodd" clip-rule="evenodd" d="M8.49005 16.001C8.4062 15.8775 8.2712 15.8 8.12515 15.8H2.06352C1.88788 15.8 1.75988 15.9719 1.80968 16.1456C3.24484 21.1493 7.73361 24.8 13.0488 24.8C18.364 24.8 22.8528 21.1493 24.288 16.1456C24.3378 15.9719 24.2098 15.8 24.0342 15.8H17.9726C17.8265 15.8 17.6915 15.8775 17.6077 16.001C16.6014 17.4815 14.9346 18.4494 13.0489 18.4494C11.1631 18.4494 9.49643 17.4815 8.49005 16.001Z" fill="#2C3034"/>
<path fill-rule="evenodd" clip-rule="evenodd" d="M17.4822 9.27119C17.5898 9.41183 17.7538 9.5 17.9303 9.5H24.0329C24.2109 9.5 24.3398 9.32929 24.2868 9.15851C23.8255 7.67648 23.0819 6.31976 22.1191 5.15206C22.039 5.05489 21.9193 5 21.7936 5H4.30405C4.17843 5 4.05873 5.05489 3.97858 5.15206C3.01569 6.31976 2.27206 7.67648 1.81091 9.15851C1.75777 9.32929 1.88667 9.5 2.0647 9.5H8.16729C8.34389 9.5 8.50778 9.41183 8.61542 9.27119C9.6372 7.93632 11.243 7.07604 13.0488 7.07604C14.8546 7.07604 16.4604 7.93632 17.4822 9.27119Z" fill="#2C3034"/>
<path fill-rule="evenodd" clip-rule="evenodd" d="M17.9679 14.8999C17.8533 14.8999 17.7755 14.7819 17.8151 14.6733C18.0352 14.0687 18.1554 13.4154 18.1554 12.7336C18.1554 11.9905 18.0126 11.2809 17.7531 10.6317C17.7094 10.5222 17.7873 10.3999 17.9041 10.3999H23.8535C23.9809 10.3999 24.0909 10.4907 24.1135 10.6174C24.2363 11.3041 24.3004 12.0114 24.3004 12.7338C24.3004 13.3962 24.2465 14.0459 24.143 14.6786C24.1219 14.8071 24.0111 14.8999 23.8822 14.8999H17.9679ZM7.38572 14.6733C7.42527 14.7819 7.34744 14.8999 7.23292 14.8999H1.31861C1.18971 14.8999 1.07884 14.8071 1.05788 14.6786C0.954316 14.0459 0.900391 13.3962 0.900391 12.7338C0.900391 12.0114 0.964481 11.3041 1.08726 10.6174C1.1099 10.4907 1.21989 10.3999 1.34728 10.3999H7.29669C7.41352 10.3999 7.49143 10.5222 7.44767 10.6317C7.18821 11.2809 7.04533 11.9905 7.04533 12.7336C7.04533 13.4154 7.16557 14.0687 7.38572 14.6733Z" fill="#2C3034"/>
</svg>
