<svg width="140" height="33" viewBox="0 0 140 33" fill="none" xmlns="http://www.w3.org/2000/svg">
<g clip-path="url(#clip0_7031_44113)">
<path d="M49.268 32.716L48.707 30.6869C48.5348 30.8323 48.3477 30.9705 48.1464 31.1014C46.3066 32.3669 43.7476 32.9996 40.4699 32.9996C37.3649 32.9996 34.8922 32.4324 33.0521 31.2978C31.2121 30.1632 30.292 28.076 30.292 25.036C30.292 22.1851 31.2264 20.1633 33.0953 18.9705C34.9784 17.7778 37.8968 17.1815 41.85 17.1815H48.2114V16.396C48.2114 14.6942 47.7657 13.4796 46.8744 12.7523C45.9831 12.0105 44.7897 11.6396 43.2946 11.6396C41.9436 11.6396 40.7933 11.9669 39.8448 12.6214C38.8958 13.276 38.3066 14.316 38.0763 15.7415L30.8311 13.6905C31.2623 11.3196 32.5418 9.54506 34.6694 8.36688C36.8115 7.1887 39.5713 6.59961 42.9498 6.59961C47.8375 6.59961 51.1797 7.62509 52.9768 9.67597C54.7735 11.7269 55.6721 14.6432 55.6721 18.4251V32.716H49.268ZM48.2114 25.0142V21.6105H43.4028C41.2749 21.6105 39.8157 21.8796 39.0253 22.4178C38.2489 22.956 37.8609 23.7924 37.8609 24.9269C37.8609 26.0469 38.213 26.8905 38.9176 27.4578C39.6217 28.0105 40.7502 28.2869 42.3029 28.2869C44.0138 28.2869 45.4225 27.9596 46.5292 27.3051C47.6508 26.6505 48.2114 25.8869 48.2114 25.0142Z" fill="#0000BA"/>
<path d="M75.2984 19.7775C75.2984 16.4959 74.9331 14.3548 74.2025 13.3541C73.4864 12.3387 72.4832 11.8311 71.1941 11.8311C69.7043 11.8311 68.5156 12.3682 67.6275 13.4424C66.8824 14.3548 66.4529 15.3702 66.3383 16.4886V32.9996H58.9468V6.82036H66.016L66.1663 9.33675C66.2378 9.26314 66.3098 9.19691 66.3813 9.13809C68.3151 7.44578 70.8505 6.59961 73.9874 6.59961C77.3824 6.59961 79.6815 7.67384 80.8847 9.82234C82.0879 11.9561 82.6895 15.2745 82.6895 19.7775H75.2984Z" fill="#0000BA"/>
<path d="M104.94 32.716L104.38 30.6869C104.207 30.8323 104.02 30.9705 103.819 31.1014C101.979 32.3669 99.4199 32.9996 96.1422 32.9996C93.0372 32.9996 90.5645 32.4324 88.7246 31.2978C86.8843 30.1632 85.9644 28.076 85.9644 25.036C85.9644 22.1851 86.8988 20.1633 88.7678 18.9705C90.6508 17.7778 93.5691 17.1815 97.5223 17.1815H103.884V16.396C103.884 14.6942 103.438 13.4796 102.547 12.7523C101.655 12.0105 100.462 11.6396 98.967 11.6396C97.6159 11.6396 96.4657 11.9669 95.5171 12.6214C94.5681 13.276 93.9789 14.316 93.7486 15.7415L86.5036 13.6905C86.9347 11.3196 88.214 9.54506 90.3419 8.36688C92.4838 7.1887 95.2441 6.59961 98.6222 6.59961C103.51 6.59961 106.852 7.62509 108.649 9.67597C110.446 11.7269 111.344 14.6432 111.344 18.4251V32.716H104.94ZM103.884 25.0142V21.6105H99.0751C96.9472 21.6105 95.4885 21.8796 94.6976 22.4178C93.9212 22.956 93.5332 23.7924 93.5332 24.9269C93.5332 26.0469 93.8853 26.8905 94.5899 27.4578C95.294 28.0105 96.4225 28.2869 97.9753 28.2869C99.6861 28.2869 101.095 27.9596 102.201 27.3051C103.323 26.6505 103.884 25.8869 103.884 25.0142Z" fill="#0000BA"/>
<path d="M127.592 32.9996C124.092 32.9996 121.221 32.4738 118.98 31.4222C116.738 30.356 115.285 28.596 114.62 26.1422L121.171 23.7322C121.46 25.2804 122.183 26.3832 123.34 27.0404C124.511 27.6831 125.885 28.0044 127.462 28.0044C129.11 28.0044 130.383 27.778 131.279 27.3252C132.176 26.8725 132.624 26.2225 132.624 25.3754C132.624 24.3092 132.082 23.6154 130.997 23.2941C129.927 22.9581 128.17 22.6076 125.726 22.2424C121.778 21.7166 118.972 20.9206 117.309 19.8544C115.646 18.7882 114.815 16.9405 114.815 14.3115C114.815 11.624 115.958 9.66682 118.242 8.43994C120.542 7.21302 123.579 6.59961 127.353 6.59961C131.012 6.59961 133.818 7.12542 135.77 8.17704C137.736 9.21402 139.016 10.901 139.609 13.238L133.297 15.6041C132.993 14.2019 132.32 13.1795 131.279 12.5368C130.253 11.8796 128.9 11.551 127.223 11.551C125.632 11.551 124.388 11.7993 123.492 12.2959C122.61 12.7925 122.169 13.4351 122.169 14.2238C122.169 15.2462 122.74 15.8962 123.882 16.1737C125.039 16.4512 126.782 16.758 129.11 17.0939C132.899 17.5905 135.661 18.3865 137.397 19.4819C139.132 20.5628 140 22.3885 140 24.9591C140 27.8657 138.879 29.9324 136.637 31.1593C134.41 32.3861 131.395 32.9996 127.592 32.9996Z" fill="#0000BA"/>
<path fill-rule="evenodd" clip-rule="evenodd" d="M4.28852 33L0 0L18.1189 3.3C18.8892 3.50796 19.6023 3.67514 20.259 3.82911C22.7283 4.408 24.3988 4.79965 25.3022 6.468C26.4458 8.56535 27.0175 11.1467 27.0175 14.212C27.0175 17.292 26.4458 19.8806 25.3022 21.978C24.1585 24.0754 21.7642 25.124 18.1189 25.124H10.6442L11.9586 33H4.28852ZM7.76699 6.82002L16.4257 8.58269C16.8413 8.69379 17.2262 8.7831 17.5806 8.86532C18.9132 9.17456 19.8148 9.38373 20.3023 10.2749C20.9195 11.3952 21.2281 12.774 21.2281 14.4114C21.2281 16.0565 20.9195 17.4392 20.3023 18.5596C19.6851 19.6799 18.3929 20.24 16.4257 20.24H11.9588L9.88907 20.02L7.76699 6.82002Z" fill="#0000BA"/>
<path fill-rule="evenodd" clip-rule="evenodd" d="M4.28852 33L0 0L18.1189 3.3C18.8892 3.50796 19.6023 3.67514 20.259 3.82911C22.7283 4.408 24.3988 4.79965 25.3022 6.468C26.4458 8.56535 27.0175 11.1467 27.0175 14.212C27.0175 17.292 26.4458 19.8806 25.3022 21.978C24.1585 24.0754 21.7642 25.124 18.1189 25.124H10.6442L11.9586 33H4.28852ZM7.76699 6.82002L16.4257 8.58269C16.8413 8.69379 17.2262 8.7831 17.5806 8.86532C18.9132 9.17456 19.8148 9.38373 20.3023 10.2749C20.9195 11.3952 21.2281 12.774 21.2281 14.4114C21.2281 16.0565 20.9195 17.4392 20.3023 18.5596C19.6851 19.6799 18.3929 20.24 16.4257 20.24H11.9588L9.88907 20.02L7.76699 6.82002Z" fill="#0000BA"/>
</g>
<defs>
<clipPath id="clip0_7031_44113">
<rect width="140" height="33" fill="white"/>
</clipPath>
</defs>
</svg>
