<svg width="113" height="27" viewBox="0 0 113 27" fill="none" xmlns="http://www.w3.org/2000/svg">
<g clip-path="url(#clip0_743_1721)">
<path d="M39.7776 26.6775L39.32 25.0866C39.1796 25.2006 39.027 25.309 38.8628 25.4116C37.3622 26.4038 35.2751 26.9 32.6019 26.9C30.0694 26.9 28.0527 26.4552 26.552 25.5656C25.0512 24.676 24.3008 23.0394 24.3008 20.6558C24.3008 18.4204 25.0629 16.8351 26.5871 15.8999C28.123 14.9647 30.5033 14.4971 33.7275 14.4971H38.9158V13.8812C38.9158 12.5468 38.5523 11.5945 37.8254 11.0242C37.0984 10.4426 36.1251 10.1518 34.9057 10.1518C33.8038 10.1518 32.8657 10.4084 32.092 10.9216C31.318 11.4348 30.8375 12.2503 30.6496 13.368L24.7405 11.7599C25.0922 9.90089 26.1357 8.50945 27.871 7.58565C29.6181 6.66185 31.869 6.19995 34.6245 6.19995C38.6109 6.19995 41.3368 7.00402 42.8025 8.6121C44.2679 10.2202 45.0008 12.5069 45.0008 15.4722V26.6775H39.7776ZM38.9158 20.6386V17.9699H34.9939C33.2584 17.9699 32.0683 18.1809 31.4236 18.6029C30.7904 19.0248 30.474 19.6806 30.474 20.5702C30.474 21.4484 30.7612 22.1099 31.3358 22.5547C31.9101 22.9881 32.8305 23.2047 34.0969 23.2047C35.4923 23.2047 36.6412 22.9481 37.5438 22.4349C38.4586 21.9217 38.9158 21.3229 38.9158 20.6386Z" fill="#2C3034"/>
<path d="M60.7176 16.5327C60.7176 13.9596 60.4268 12.2807 59.8452 11.4961C59.2752 10.6999 58.4767 10.3019 57.4504 10.3019C56.2646 10.3019 55.3183 10.723 54.6113 11.5654C54.0182 12.2807 53.6763 13.0769 53.5851 13.9538V26.9H47.7012V6.37304H53.3285L53.4482 8.34612C53.5051 8.2884 53.5624 8.23647 53.6193 8.19035C55.1587 6.86343 57.1769 6.19995 59.6741 6.19995C62.3766 6.19995 64.2067 7.04224 65.1645 8.72686C66.1223 10.4 66.6012 13.0019 66.6012 16.5327H60.7176Z" fill="#2C3034"/>
<path d="M84.7776 26.6775L84.3204 25.0866C84.1796 25.2006 84.0273 25.309 83.8628 25.4116C82.3622 26.4038 80.2751 26.9 77.6018 26.9C75.0694 26.9 73.0526 26.4552 71.552 25.5656C70.0511 24.676 69.3008 23.0394 69.3008 20.6558C69.3008 18.4204 70.0629 16.8351 71.5872 15.8999C73.123 14.9647 75.5032 14.4971 78.7275 14.4971H83.9158V13.8812C83.9158 12.5468 83.5523 11.5945 82.8254 11.0242C82.0984 10.4426 81.1254 10.1518 79.9057 10.1518C78.8038 10.1518 77.8656 10.4084 77.092 10.9216C76.318 11.4348 75.8374 12.2503 75.6496 13.368L69.7406 11.7599C70.0922 9.90089 71.1356 8.50945 72.8711 7.58565C74.6181 6.66185 76.8693 6.19995 79.6245 6.19995C83.6109 6.19995 86.3368 7.00402 87.8025 8.6121C89.2683 10.2202 90.0008 12.5069 90.0008 15.4722V26.6775H84.7776ZM83.9158 20.6386V17.9699H79.9939C78.2584 17.9699 77.0687 18.1809 76.4236 18.6029C75.7904 19.0248 75.474 19.6806 75.474 20.5702C75.474 21.4484 75.7611 22.1099 76.3358 22.5547C76.9101 22.9881 77.8304 23.2047 79.0969 23.2047C80.4922 23.2047 81.6412 22.9481 82.5438 22.4349C83.4586 21.9217 83.9158 21.3229 83.9158 20.6386Z" fill="#2C3034"/>
<path d="M102.381 26.9C99.5266 26.9 97.1852 26.4877 95.3569 25.6631C93.5287 24.8271 92.3435 23.4471 91.8008 21.5231L97.1438 19.6335C97.3797 20.8474 97.9697 21.7121 98.9131 22.2274C99.8684 22.7313 100.989 22.9833 102.275 22.9833C103.619 22.9833 104.657 22.8058 105.388 22.4507C106.12 22.0957 106.485 21.5861 106.485 20.9219C106.485 20.0859 106.043 19.5418 105.158 19.2899C104.286 19.0265 102.852 18.7517 100.859 18.4654C97.6395 18.0531 95.351 17.4289 93.9946 16.5929C92.6383 15.7569 91.9603 14.3081 91.9603 12.2467C91.9603 10.1395 92.8921 8.60492 94.7554 7.64294C96.6309 6.68092 99.1077 6.19995 102.186 6.19995C105.17 6.19995 107.459 6.61223 109.051 7.4368C110.655 8.24989 111.699 9.57265 112.182 11.405L107.034 13.2603C106.786 12.1609 106.238 11.3592 105.388 10.8553C104.551 10.3399 103.448 10.0823 102.08 10.0823C100.783 10.0823 99.7681 10.277 99.0369 10.6663C98.3175 11.0557 97.9578 11.5596 97.9578 12.178C97.9578 12.9797 98.4237 13.4893 99.3555 13.7069C100.299 13.9245 101.72 14.165 103.619 14.4284C106.709 14.8178 108.962 15.4419 110.378 16.3009C111.793 17.1483 112.501 18.5799 112.501 20.5955C112.501 22.8745 111.586 24.495 109.758 25.457C107.942 26.4189 105.483 26.9 102.381 26.9Z" fill="#2C3034"/>
<path fill-rule="evenodd" clip-rule="evenodd" d="M3.42859 26.9L0 0.800049L14.4857 3.41005C15.1015 3.57453 15.6716 3.70675 16.1967 3.82853C18.1708 4.28638 19.5063 4.59613 20.2286 5.91565C21.1429 7.57447 21.6 9.61606 21.6 12.0405C21.6 14.4764 21.1429 16.5238 20.2286 18.1826C19.3143 19.8415 17.4 20.6708 14.4857 20.6708H8.50986L9.56064 26.9H3.42859ZM6.20956 6.19406L13.132 7.58818C13.4643 7.67604 13.772 7.74668 14.0553 7.81171C15.1207 8.05629 15.8415 8.22172 16.2313 8.92653C16.7247 9.81261 16.9714 10.9031 16.9714 12.1981C16.9714 13.4993 16.7247 14.5929 16.2313 15.479C15.7379 16.365 14.7048 16.808 13.132 16.808H9.56082L7.90612 16.6341L6.20956 6.19406Z" fill="#2C3034"/>
<path fill-rule="evenodd" clip-rule="evenodd" d="M3.42859 26.9L0 0.800049L14.4857 3.41005C15.1015 3.57453 15.6716 3.70675 16.1967 3.82853C18.1708 4.28638 19.5063 4.59613 20.2286 5.91565C21.1429 7.57447 21.6 9.61606 21.6 12.0405C21.6 14.4764 21.1429 16.5238 20.2286 18.1826C19.3143 19.8415 17.4 20.6708 14.4857 20.6708H8.50986L9.56064 26.9H3.42859ZM6.20956 6.19406L13.132 7.58818C13.4643 7.67604 13.772 7.74668 14.0553 7.81171C15.1207 8.05629 15.8415 8.22172 16.2313 8.92653C16.7247 9.81261 16.9714 10.9031 16.9714 12.1981C16.9714 13.4993 16.7247 14.5929 16.2313 15.479C15.7379 16.365 14.7048 16.808 13.132 16.808H9.56082L7.90612 16.6341L6.20956 6.19406Z" fill="#2C3034"/>
</g>
<defs>
<clipPath id="clip0_743_1721">
<rect width="112.5" height="26.1" fill="white" transform="translate(0 0.800049)"/>
</clipPath>
</defs>
</svg>
