<svg width="159" height="43" viewBox="0 0 159 43" fill="none" xmlns="http://www.w3.org/2000/svg">
<g clip-path="url(#clip0_743_1741)">
<path fill-rule="evenodd" clip-rule="evenodd" d="M22.9943 36.202C31.4498 34.9151 37.9281 27.6261 37.9281 18.8268C37.9281 16.5527 37.4953 14.3794 36.7076 12.3846L39.5984 7.36367H33.6681C30.4387 3.62022 25.6557 1.25 20.3181 1.25C14.9805 1.25 10.1976 3.62022 6.96814 7.36367H0.898438L3.88094 12.5065C3.12342 14.4679 2.70815 16.5989 2.70815 18.8268C2.70815 27.6187 9.17544 34.9029 17.6207 36.1986L20.3181 40.85L22.9943 36.202Z" fill="#2C3034"/>
<path fill-rule="evenodd" clip-rule="evenodd" d="M20.7188 2.02505C15.6292 2.02505 11.0692 4.29226 7.98842 7.87638L7.73825 8.1248H2.90017L5.35977 12.4241L5.21588 12.7981C4.49397 14.6741 3.92651 16.6278 3.92651 18.7615C3.92651 27.175 10.0932 34.2326 18.1456 35.4724L18.5415 35.5335L20.7376 39.2969L22.8734 35.5363L23.2717 35.4756C31.334 34.2442 37.5111 27.2675 37.5111 18.8468C37.5111 16.6689 37.034 14.5895 36.2833 12.6815L36.1359 12.3065L38.5104 8.1248H33.6993L33.4491 7.87638C30.3683 4.29226 25.8083 2.02505 20.7188 2.02505ZM6.97672 6.49224C10.3559 2.7228 15.2611 0.349854 20.7188 0.349854C26.1765 0.349854 31.0816 2.7228 34.4609 6.49224H41.4L37.9838 12.4472C38.7183 14.4425 39.1833 16.5986 39.1833 18.8468C39.1833 27.9673 32.5945 35.5449 23.9247 37.0658L20.7428 42.6499L17.4927 37.0622C8.83295 35.5333 2.25425 27.8751 2.25425 18.7615C2.25425 16.5611 2.80947 14.5341 3.51447 12.5745L0 6.49224H6.97672Z" fill="#2C3034"/>
<path fill-rule="evenodd" clip-rule="evenodd" d="M6.29883 10.25L21.1488 35.45L22.8907 32.4964L16.9573 22.4227H22.2079L15.0412 10.25H6.29883ZM16.9246 10.25L26.4616 26.4313L28.1179 23.6186L22.0319 13.2917H23.8391L29.0201 22.0852L30.7403 19.1634L27.2796 13.2917H30.8274L29.8707 14.9162L31.5568 17.7815L35.9988 10.25H16.9246ZM11.5804 13.2917L15.1718 19.3849H17.0444L13.4529 13.2917H11.5804Z" fill="#EBDEDC"/>
<path fill-rule="evenodd" clip-rule="evenodd" d="M8.86776 18.8171C8.85374 19.0587 8.84663 19.3022 8.84663 19.5474C8.84663 24.3007 11.5175 28.4143 15.4041 30.3958L16.733 32.75C11.2148 31.0289 7.19922 25.7691 7.19922 19.5474C7.19922 18.4861 7.31607 17.4528 7.53726 16.4603L8.86776 18.8171ZM25.6324 8.56579C24.1193 7.84304 22.4322 7.43948 20.6531 7.43948C18.8739 7.43948 17.1867 7.84304 15.6737 8.56579H12.5069C14.768 6.79903 17.5911 5.75 20.6531 5.75C23.7152 5.75 26.5382 6.79903 28.7992 8.56579H25.6324Z" fill="#EBDEDC"/>
<path d="M8.90991 18.72C8.90991 18.4762 8.9173 18.234 8.93186 17.9938L7.55025 15.6499C7.32056 16.637 7.19922 17.6646 7.19922 18.72C7.19922 24.9075 11.369 30.1382 17.0992 31.8499L15.7193 29.5087C11.6834 27.5381 8.90991 23.4471 8.90991 18.72Z" fill="#EBDEDC"/>
<path d="M33.3886 18.72C33.3886 18.4762 33.3448 18.234 33.3302 17.9938L34.6964 15.6499C34.9261 16.637 35.0992 17.6646 35.0992 18.72C35.0992 24.9075 30.9295 30.1384 25.1992 31.8499L26.5792 29.5089C30.6151 27.5381 33.3886 23.4471 33.3886 18.72Z" fill="#EBDEDC"/>
<path d="M51.3454 28.8636H48.5996V12.95H55.4758C57.056 12.95 58.2998 13.4271 59.2072 14.3815C60.1303 15.3358 60.5918 16.5208 60.5918 17.9364C60.5918 19.3361 60.1303 20.5211 59.2072 21.4913C58.2998 22.4457 57.056 22.9229 55.4758 22.9229H51.3454V28.8636ZM55.1003 20.4654C55.8826 20.4654 56.5239 20.2348 57.0246 19.7735C57.5254 19.3122 57.7756 18.6999 57.7756 17.9364C57.7756 17.1729 57.5254 16.5606 57.0246 16.0993C56.5239 15.638 55.8826 15.4074 55.1003 15.4074H51.3454V20.4654H55.1003ZM67.6968 29.15C65.9758 29.15 64.5521 28.5932 63.4257 27.4798C62.3148 26.3505 61.7594 24.8873 61.7594 23.0899C61.7594 21.4039 62.2992 19.9803 63.3787 18.8192C64.4738 17.6421 65.8505 17.0536 67.5091 17.0536C69.183 17.0536 70.5286 17.6421 71.5456 18.8192C72.5782 19.9962 73.0945 21.4994 73.0945 23.3284V23.9249H64.3409C64.4348 24.8315 64.8024 25.587 65.4439 26.1915C66.0852 26.796 66.9224 27.0981 67.955 27.0981C68.5338 27.0981 69.1126 26.9868 69.6916 26.7641C70.286 26.5413 70.7788 26.2312 71.1701 25.8336L72.2966 27.4798C71.1543 28.5932 69.6212 29.15 67.6968 29.15ZM70.7008 22.1594C70.6694 21.3641 70.3799 20.6563 69.8324 20.036C69.3004 19.4156 68.5259 19.1055 67.5091 19.1055C66.539 19.1055 65.7801 19.4156 65.2327 20.036C64.685 20.6404 64.38 21.3482 64.3172 22.1594H70.7008ZM91.8839 28.8636H89.4197V21.3482C89.4197 19.9644 88.8017 19.2725 87.5658 19.2725C87.0495 19.2725 86.5487 19.4236 86.0638 19.7258C85.5789 20.028 85.2034 20.3859 84.9373 20.7994V28.8636H82.4732V21.3482C82.4732 19.9644 81.8474 19.2725 80.5957 19.2725C80.095 19.2725 79.6022 19.4236 79.1173 19.7258C78.6479 20.028 78.2724 20.3938 77.9908 20.8233V28.8636H75.5266V17.3399H77.9908V18.9146C78.2724 18.4851 78.7573 18.0716 79.4458 17.674C80.1499 17.2604 80.8929 17.0536 81.6753 17.0536C83.318 17.0536 84.3506 17.7614 84.7731 19.177C85.133 18.6044 85.6648 18.1114 86.3689 17.6978C87.0729 17.2684 87.8239 17.0536 88.6218 17.0536C90.7965 17.0536 91.8839 18.2147 91.8839 20.537V28.8636ZM97.5399 25.4041C97.8057 25.8336 98.2126 26.1995 98.7602 26.5016C99.3235 26.7879 99.8867 26.9311 100.45 26.9311C101.42 26.9311 102.194 26.5812 102.773 25.8813C103.368 25.1656 103.665 24.2431 103.665 23.1137C103.665 21.9843 103.368 21.0619 102.773 20.3461C102.194 19.6304 101.42 19.2725 100.45 19.2725C99.8867 19.2725 99.3311 19.4236 98.7837 19.7258C98.236 20.028 97.8215 20.4018 97.5399 20.8472V25.4041ZM97.5399 28.8636H95.0757V12.95H97.5399V18.9385C98.4628 17.6819 99.6755 17.0536 101.177 17.0536C102.648 17.0536 103.853 17.6103 104.792 18.7237C105.73 19.8212 106.2 21.2846 106.2 23.1137C106.2 24.9747 105.73 26.4459 104.792 27.5276C103.853 28.6092 102.648 29.15 101.177 29.15C99.6911 29.15 98.4786 28.5296 97.5399 27.289V28.8636Z" fill="#2C3034"/>
<path d="M120.964 28.8636H117.807L114.347 22.9229H111.634V28.8636H108.898V12.95H115.75C117.277 12.95 118.509 13.4112 119.444 14.3338C120.379 15.2563 120.847 16.4572 120.847 17.9364C120.847 19.2725 120.488 20.3461 119.771 21.1573C119.054 21.9527 118.181 22.4377 117.152 22.6127L120.964 28.8636ZM115.375 20.4654C116.155 20.4654 116.794 20.2348 117.293 19.7735C117.792 19.3122 118.041 18.6999 118.041 17.9364C118.041 17.1729 117.792 16.5606 117.293 16.0993C116.794 15.638 116.155 15.4074 115.375 15.4074H111.634V20.4654H115.375ZM127.9 29.15C126.155 29.15 124.752 28.5693 123.692 27.4083C122.631 26.2312 122.102 24.7918 122.102 23.0899C122.102 21.3879 122.631 19.9564 123.692 18.7953C124.752 17.6342 126.155 17.0536 127.9 17.0536C129.662 17.0536 131.073 17.6342 132.133 18.7953C133.193 19.9564 133.723 21.3879 133.723 23.0899C133.723 24.8077 133.193 26.2472 132.133 27.4083C131.073 28.5693 129.662 29.15 127.9 29.15ZM127.9 26.9311C128.914 26.9311 129.709 26.5652 130.285 25.8336C130.878 25.086 131.174 24.1715 131.174 23.0899C131.174 22.0242 130.878 21.1255 130.285 20.3938C129.709 19.6463 128.914 19.2725 127.9 19.2725C126.903 19.2725 126.108 19.6463 125.515 20.3938C124.939 21.1255 124.65 22.0242 124.65 23.0899C124.65 24.1715 124.939 25.086 125.515 25.8336C126.108 26.5652 126.903 26.9311 127.9 26.9311ZM141.351 29.15C139.636 29.15 138.233 28.5854 137.142 27.456C136.051 26.3108 135.505 24.8554 135.505 23.0899C135.505 21.3402 136.051 19.9008 137.142 18.7715C138.233 17.6262 139.636 17.0536 141.351 17.0536C143.237 17.0536 144.679 17.7376 145.677 19.1055L144.063 20.6324C143.44 19.7258 142.575 19.2725 141.468 19.2725C140.439 19.2725 139.613 19.6304 138.989 20.3461C138.366 21.046 138.054 21.9605 138.054 23.0899C138.054 24.2192 138.366 25.1417 138.989 25.8575C139.613 26.5732 140.439 26.9311 141.468 26.9311C142.544 26.9311 143.409 26.4778 144.063 25.5712L145.677 27.0981C144.679 28.4661 143.237 29.15 141.351 29.15ZM158.398 28.8636H155.312L151.851 24.1158L150.285 25.762V28.8636H147.83V12.95H150.285V22.899L155.265 17.3399H158.305L153.605 22.565L158.398 28.8636Z" fill="#2C3034"/>
</g>
<defs>
<clipPath id="clip0_743_1741">
<rect width="158.4" height="42.3" fill="white" transform="translate(0 0.350098)"/>
</clipPath>
</defs>
</svg>
