<svg width="743" height="200" viewBox="0 0 743 200" fill="none" xmlns="http://www.w3.org/2000/svg">
    >
    <path fill-rule="evenodd" clip-rule="evenodd" d="M110.192 170.419C150.223 164.302 180.893 129.654 180.893 87.8274C180.893 77.0175 178.844 66.6871 175.115 57.2048L188.801 33.3382H160.725C145.436 15.544 122.792 4.27734 97.5222 4.27734C72.2526 4.27734 49.6088 15.544 34.3197 33.3382H5.58398L19.704 57.7844C16.1177 67.1075 14.1517 77.2374 14.1517 87.8274C14.1517 129.619 44.7697 164.244 84.7521 170.403L97.5222 192.513L110.192 170.419Z" fill="#1e1e1f"></path>
    <path fill-rule="evenodd" clip-rule="evenodd" d="M97.5338 7.92055C73.5747 7.92055 52.1083 18.6402 37.6056 35.5864L36.4279 36.761H13.6526L25.2312 57.0888L24.5538 58.8571C21.1554 67.7269 18.4841 76.9645 18.4841 87.0529C18.4841 126.833 47.5138 160.202 85.4206 166.064L87.2845 166.353L97.6223 184.147L107.677 166.366L109.552 166.079C147.505 160.257 176.584 127.27 176.584 87.4561C176.584 77.1584 174.338 67.3268 170.804 58.3055L170.11 56.5325L181.288 36.761H158.64L157.462 35.5864C142.959 18.6402 121.493 7.92055 97.5338 7.92055ZM32.843 29.042C48.7506 11.2196 71.842 0 97.5338 0C123.226 0 146.317 11.2196 162.225 29.042H194.891L178.809 57.1979C182.267 66.6317 184.456 76.8264 184.456 87.4561C184.456 130.579 153.439 166.407 112.626 173.598L97.6469 200L82.3473 173.581C41.5812 166.352 10.6119 130.143 10.6119 87.0529C10.6119 76.649 13.2256 67.0649 16.5444 57.7998L0 29.042H32.843Z" fill="#F6821F"></path>
    <path fill-rule="evenodd" clip-rule="evenodd" d="M28.8457 45.4141L97.5957 165.827L105.66 151.714L78.1905 103.579H102.499L69.3195 45.4141H28.8457ZM78.0393 45.4141L122.192 122.733L129.86 109.293L101.684 59.9483H110.051L134.037 101.966L142.001 88.0048L125.979 59.9483H142.404L137.975 67.7104L145.781 81.402L166.346 45.4141H78.0393ZM53.2974 59.9483L69.9243 89.0633H78.5937L61.9667 59.9483H53.2974Z" fill="#F6821F"></path>
    <path fill-rule="evenodd" clip-rule="evenodd" d="M41.2077 84.6079C41.1411 85.737 41.1073 86.8751 41.1073 88.0211C41.1073 110.239 53.7954 129.467 72.2589 138.729L78.5719 149.733C52.3573 141.688 33.2812 117.103 33.2812 88.0211C33.2812 83.0605 33.8363 78.2307 34.8871 73.5914L41.2077 84.6079ZM120.849 36.6909C113.661 33.3126 105.646 31.4263 97.1943 31.4263C88.7425 31.4263 80.7273 33.3126 73.5397 36.6909H58.4955C69.2369 28.4327 82.6481 23.5293 97.1943 23.5293C111.741 23.5293 125.152 28.4327 135.893 36.6909H120.849Z" fill="#F6821F"></path>
    <path d="M41.1073 88.0211C41.1073 86.8751 41.1411 85.737 41.2077 84.6079L34.8871 73.5914C33.8363 78.2307 33.2812 83.0605 33.2812 88.0211C33.2812 117.103 52.3573 141.688 78.5719 149.733L72.2589 138.729C53.7954 129.467 41.1073 110.239 41.1073 88.0211Z" fill="#F6821F"></path>
    <path d="M154.215 88.0215C154.215 86.8755 154.015 85.7374 153.948 84.6082L160.198 73.5918C161.249 78.231 162.041 83.0608 162.041 88.0215C162.041 117.103 142.965 141.689 116.75 149.733L123.063 138.73C141.527 129.467 154.215 110.239 154.215 88.0215Z" fill="#F6821F"></path>
    <path d="M239.68 134H226.81V60.63H259.04C266.447 60.63 272.277 62.83 276.53 67.23C280.857 71.63 283.02 77.0933 283.02 83.62C283.02 90.0733 280.857 95.5367 276.53 100.01C272.277 104.41 266.447 106.61 259.04 106.61H239.68V134ZM257.28 95.28C260.947 95.28 263.953 94.2167 266.3 92.09C268.647 89.9633 269.82 87.14 269.82 83.62C269.82 80.1 268.647 77.2767 266.3 75.15C263.953 73.0233 260.947 71.96 257.28 71.96H239.68V95.28H257.28ZM316.323 135.32C308.256 135.32 301.583 132.753 296.303 127.62C291.096 122.413 288.493 115.667 288.493 107.38C288.493 99.6067 291.023 93.0433 296.083 87.69C301.216 82.2633 307.669 79.55 315.443 79.55C323.289 79.55 329.596 82.2633 334.363 87.69C339.203 93.1167 341.623 100.047 341.623 108.48V111.23H300.593C301.033 115.41 302.756 118.893 305.763 121.68C308.769 124.467 312.693 125.86 317.533 125.86C320.246 125.86 322.959 125.347 325.673 124.32C328.459 123.293 330.769 121.863 332.603 120.03L337.883 127.62C332.529 132.753 325.343 135.32 316.323 135.32ZM330.403 103.09C330.256 99.4233 328.899 96.16 326.333 93.3C323.839 90.44 320.209 89.01 315.443 89.01C310.896 89.01 307.339 90.44 304.773 93.3C302.206 96.0867 300.776 99.35 300.482 103.09H330.403ZM429.693 134H418.143V99.35C418.143 92.97 415.246 89.78 409.453 89.78C407.033 89.78 404.686 90.4767 402.413 91.87C400.14 93.2633 398.38 94.9133 397.133 96.82V134H385.583V99.35C385.583 92.97 382.65 89.78 376.783 89.78C374.436 89.78 372.126 90.4767 369.853 91.87C367.653 93.2633 365.893 94.95 364.573 96.93V134H353.023V80.87H364.573V88.13C365.893 86.15 368.166 84.2433 371.393 82.41C374.693 80.5033 378.176 79.55 381.843 79.55C389.543 79.55 394.383 82.8133 396.363 89.34C398.05 86.7 400.543 84.4267 403.843 82.52C407.143 80.54 410.663 79.55 414.403 79.55C424.596 79.55 429.693 84.9033 429.693 95.61V134ZM456.204 118.05C457.45 120.03 459.357 121.717 461.924 123.11C464.564 124.43 467.204 125.09 469.844 125.09C474.39 125.09 478.02 123.477 480.734 120.25C483.52 116.95 484.914 112.697 484.914 107.49C484.914 102.283 483.52 98.03 480.734 94.73C478.02 91.43 474.39 89.78 469.844 89.78C467.204 89.78 464.6 90.4767 462.034 91.87C459.467 93.2633 457.524 94.9867 456.204 97.04V118.05ZM456.204 134H444.654V60.63H456.204V88.24C460.53 82.4467 466.214 79.55 473.254 79.55C480.147 79.55 485.794 82.1167 490.194 87.25C494.594 92.31 496.794 99.0567 496.794 107.49C496.794 116.07 494.594 122.853 490.194 127.84C485.794 132.827 480.147 135.32 473.254 135.32C466.287 135.32 460.604 132.46 456.204 126.74V134Z" fill="#1e1e1f"></path>
    <path d="M565.66 134H550.81L534.53 106.61H521.77V134H508.9V60.63H541.13C548.317 60.63 554.11 62.7567 558.51 67.01C562.91 71.2633 565.11 76.8 565.11 83.62C565.11 89.78 563.423 94.73 560.05 98.47C556.677 102.137 552.57 104.373 547.73 105.18L565.66 134ZM539.37 95.28C543.037 95.28 546.043 94.2167 548.39 92.09C550.737 89.9633 551.91 87.14 551.91 83.62C551.91 80.1 550.737 77.2767 548.39 75.15C546.043 73.0233 543.037 71.96 539.37 71.96H521.77V95.28H539.37ZM598.292 135.32C590.079 135.32 583.479 132.643 578.492 127.29C573.505 121.863 571.012 115.227 571.012 107.38C571.012 99.5333 573.505 92.9333 578.492 87.58C583.479 82.2267 590.079 79.55 598.292 79.55C606.579 79.55 613.215 82.2267 618.202 87.58C623.189 92.9333 625.682 99.5333 625.682 107.38C625.682 115.3 623.189 121.937 618.202 127.29C613.215 132.643 606.579 135.32 598.292 135.32ZM598.292 125.09C603.059 125.09 606.799 123.403 609.512 120.03C612.299 116.583 613.692 112.367 613.692 107.38C613.692 102.467 612.299 98.3233 609.512 94.95C606.799 91.5033 603.059 89.78 598.292 89.78C593.599 89.78 589.859 91.5033 587.072 94.95C584.359 98.3233 583.002 102.467 583.002 107.38C583.002 112.367 584.359 116.583 587.072 120.03C589.859 123.403 593.599 125.09 598.292 125.09ZM661.569 135.32C653.502 135.32 646.902 132.717 641.769 127.51C636.635 122.23 634.069 115.52 634.069 107.38C634.069 99.3133 636.635 92.6767 641.769 87.47C646.902 82.19 653.502 79.55 661.569 79.55C670.442 79.55 677.225 82.7033 681.919 89.01L674.329 96.05C671.395 91.87 667.325 89.78 662.119 89.78C657.279 89.78 653.392 91.43 650.459 94.73C647.525 97.9567 646.059 102.173 646.059 107.38C646.059 112.587 647.525 116.84 650.459 120.14C653.392 123.44 657.279 125.09 662.119 125.09C667.179 125.09 671.249 123 674.329 118.82L681.919 125.86C677.225 132.167 670.442 135.32 661.569 135.32ZM741.766 134H727.246L710.966 112.11L703.596 119.7V134H692.046V60.63H703.596V106.5L727.026 80.87H741.326L719.216 104.96L741.766 134Z" fill="#F6821F"></path>
</svg>
