<svg width="208" height="38" viewBox="0 0 208 38" fill="none" xmlns="http://www.w3.org/2000/svg">
<g clip-path="url(#clip0_743_1757)">
<path d="M24.3008 37.8999H37.8008L24.3008 24.3999V37.8999Z" fill="#2C3034"/>
<path d="M37.7992 0.100098L29.6992 0.100098L37.7992 8.2001V0.100098Z" fill="#2C3034"/>
<path fill-rule="evenodd" clip-rule="evenodd" d="M24.8857 24.4C24.6895 24.4 24.4944 24.3951 24.3008 24.3854V15.8458L33.8574 7.22329C35.205 9.0103 36.0008 11.2149 36.0008 13.6001C36.0008 19.5648 31.0243 24.4 24.8857 24.4ZM31.3613 4.82123L24.3008 11.1916V2.81475C24.4944 2.80499 24.6895 2.80005 24.8857 2.80005C27.3018 2.80005 29.5378 3.54909 31.3613 4.82123Z" fill="#2C3034"/>
<path fill-rule="evenodd" clip-rule="evenodd" d="M23.3996 2.80005H12.5996V12.8531L17.4456 17.4255L23.3996 12.209V2.80005ZM23.3996 16.8444L17.3531 22.142L12.5996 17.6568V37.9H23.3996V16.8444Z" fill="#2C3034"/>
<path fill-rule="evenodd" clip-rule="evenodd" d="M11.7 2.80005H0V17.3826L8.77568 8.88996L11.7 11.72V2.80005ZM11.7 16.5237L8.77568 13.6937L0 22.1863V37.9H11.7V16.5237Z" fill="#2C3034"/>
<path d="M52.1992 27.6814V9.10237H60.3408C62.667 9.10237 64.4613 9.72166 65.7235 10.9603C66.6972 11.9158 67.1841 13.1367 67.1841 14.623V14.6761C67.1841 16.1624 66.7152 17.3657 65.7776 18.2857C64.8399 19.2059 63.5957 19.8075 62.0449 20.0906L67.8603 27.6814H65.2366L59.7458 20.4621H59.6917H54.3361V27.6814H52.1992ZM54.3361 18.5777H60.1515C61.5941 18.5777 62.7661 18.2326 63.6678 17.5426C64.5695 16.8525 65.0202 15.9235 65.0202 14.7557V14.7026C65.0202 13.5526 64.5874 12.6589 63.7219 12.0219C62.8743 11.3672 61.6933 11.0399 60.1785 11.0399H54.3361V18.5777ZM72.3744 21.6565C72.5188 23.0545 73.0507 24.1692 73.9703 25.0007C74.9079 25.8148 76.0169 26.2217 77.2973 26.2217C78.9743 26.2217 80.444 25.5759 81.7062 24.2841L83.0045 25.4254C81.4357 27.1419 79.5153 28 77.2432 28C75.2777 28 73.6187 27.3364 72.2663 26.0093C70.9318 24.6646 70.2647 22.9394 70.2647 20.8337C70.2647 18.8343 70.9048 17.1444 72.1851 15.7643C73.4655 14.3665 75.0613 13.6675 76.9727 13.6675C78.9743 13.6675 80.5611 14.3576 81.7332 15.7377C82.9054 17.1179 83.4914 18.852 83.4914 20.9399C83.4914 21.2053 83.4823 21.4442 83.4643 21.6565H72.3744ZM72.3744 20.0109H81.3816C81.2554 18.6838 80.8045 17.5869 80.0292 16.7198C79.2718 15.8351 78.2349 15.3927 76.9186 15.3927C75.7285 15.3927 74.7097 15.8262 73.8621 16.6932C73.0145 17.5603 72.5188 18.6662 72.3744 20.0109ZM87.9218 27.6814V15.7643H86.0014V13.986H87.9218V12.7916C87.9218 11.2345 88.3275 10.0579 89.139 9.26162C89.8604 8.55383 90.8612 8.19995 92.1414 8.19995C93.0251 8.19995 93.7913 8.31496 94.4405 8.54499V10.3233C93.6111 10.0932 92.9348 9.97823 92.4119 9.97823C90.789 9.97823 89.9775 10.9514 89.9775 12.8978V14.0125H94.4135V15.7643H90.0045V27.6814H87.9218ZM95.6108 27.6814V24.8946H98.0992V27.6814H95.6108Z" fill="#2C3034"/>
<path d="M110.837 27.6814V15.7643H108.9V13.986H110.837V12.7916C110.837 11.2345 111.246 10.0579 112.065 9.26162C112.792 8.55383 113.802 8.19995 115.093 8.19995C115.984 8.19995 116.757 8.31496 117.412 8.54499V10.3233C116.575 10.0932 115.893 9.97823 115.366 9.97823C113.729 9.97823 112.911 10.9514 112.911 12.8978V14.0125H117.384V15.7643H112.938V27.6814H110.837ZM120.118 10.9603V8.70424H122.518V10.9603H120.118ZM120.254 27.6814V13.9594H122.354V27.6814H120.254ZM127.229 27.6814V13.9594H129.33V16.3482C130.439 14.5611 132.049 13.6675 134.158 13.6675C135.832 13.6675 137.151 14.1718 138.114 15.1804C139.078 16.1713 139.56 17.4984 139.56 19.1616V27.6814H137.459V19.6659C137.459 18.3742 137.114 17.3657 136.422 16.6401C135.75 15.897 134.795 15.5254 133.558 15.5254C132.34 15.5254 131.33 15.9235 130.53 16.7198C129.73 17.516 129.33 18.5511 129.33 19.8251V27.6814H127.229ZM148.24 27.9734C146.821 27.9734 145.586 27.5931 144.53 26.8321C143.493 26.0713 142.975 25.0273 142.975 23.7002V23.6471C142.975 22.2139 143.521 21.108 144.612 20.3294C145.703 19.551 147.168 19.1616 149.004 19.1616C150.459 19.1616 151.896 19.3563 153.314 19.7455V19.3208C153.314 18.1177 152.951 17.1975 152.223 16.5605C151.496 15.9235 150.469 15.605 149.14 15.605C147.759 15.605 146.33 15.9324 144.857 16.5871L144.23 14.9149C145.976 14.1365 147.686 13.7471 149.359 13.7471C151.359 13.7471 152.878 14.2514 153.914 15.26C154.896 16.2155 155.387 17.5603 155.387 19.2943V27.6814H153.314V25.6377C152.059 27.1949 150.368 27.9734 148.24 27.9734ZM148.649 26.3278C149.959 26.3278 151.069 25.9828 151.977 25.2927C152.887 24.6026 153.341 23.718 153.341 22.6385V21.3645C151.96 20.9753 150.586 20.7806 149.222 20.7806C147.932 20.7806 146.922 21.0373 146.194 21.5503C145.467 22.0459 145.103 22.7094 145.103 23.541V23.594C145.103 24.4257 145.44 25.0893 146.112 25.5847C146.804 26.0802 147.649 26.3278 148.649 26.3278ZM159.837 27.6814V13.9594H161.937V16.3482C163.048 14.5611 164.657 13.6675 166.766 13.6675C168.439 13.6675 169.758 14.1718 170.721 15.1804C171.686 16.1713 172.167 17.4984 172.167 19.1616V27.6814H170.067V19.6659C170.067 18.3742 169.722 17.3657 169.03 16.6401C168.358 15.897 167.403 15.5254 166.166 15.5254C164.948 15.5254 163.938 15.9235 163.138 16.7198C162.338 17.516 161.937 18.5511 161.937 19.8251V27.6814H159.837ZM183.004 28C180.966 28 179.248 27.3011 177.848 25.9032C176.465 24.5053 175.775 22.8332 175.775 20.8868V20.8337C175.775 18.8696 176.465 17.1888 177.848 15.7908C179.248 14.3753 180.966 13.6675 183.004 13.6675C185.187 13.6675 187.069 14.4815 188.651 16.1093L187.26 17.5426C185.914 16.1624 184.486 15.4723 182.977 15.4723C181.558 15.4723 180.358 15.9855 179.376 17.0117C178.412 18.0381 177.93 19.2943 177.93 20.7806V20.8337C177.93 22.32 178.421 23.5853 179.403 24.6292C180.403 25.6555 181.64 26.1686 183.113 26.1686C184.677 26.1686 186.114 25.4874 187.424 24.1249L188.76 25.3458C187.124 27.1153 185.204 28 183.004 28ZM193.088 21.6565C193.233 23.0545 193.77 24.1692 194.698 25.0007C195.643 25.8148 196.762 26.2217 198.053 26.2217C199.745 26.2217 201.226 25.5759 202.5 24.2841L203.809 25.4254C202.227 27.1419 200.29 28 197.999 28C196.015 28 194.343 27.3364 192.979 26.0093C191.633 24.6646 190.96 22.9394 190.96 20.8337C190.96 18.8343 191.606 17.1444 192.897 15.7643C194.188 14.3665 195.797 13.6675 197.726 13.6675C199.745 13.6675 201.345 14.3576 202.527 15.7377C203.708 17.1179 204.3 18.852 204.3 20.9399C204.3 21.2053 204.291 21.4442 204.273 21.6565H193.088ZM193.088 20.0109H202.173C202.044 18.6838 201.59 17.5869 200.809 16.7198C200.045 15.8351 198.999 15.3927 197.671 15.3927C196.471 15.3927 195.443 15.8262 194.589 16.6932C193.733 17.5603 193.233 18.6662 193.088 20.0109Z" fill="#2C3034"/>
</g>
<defs>
<clipPath id="clip0_743_1757">
<rect width="207.9" height="37.8" fill="white" transform="translate(0 0.100098)"/>
</clipPath>
</defs>
</svg>
