<svg width="118" height="34" viewBox="0 0 118 34" fill="none" xmlns="http://www.w3.org/2000/svg">
<g clip-path="url(#clip0_745_1839)">
<path d="M56.2087 15.9059C53.8448 15.4523 49.1662 16.5733 49.1662 13.0288C49.1662 11.1275 50.4804 10.346 53.2033 10.346H57.0847C58.6192 10.346 59.8556 9.17704 59.8556 7.73071C59.8556 7.50261 59.6677 7.32376 59.4175 7.32376H52.8287C48.3213 7.32376 45.7539 9.30664 45.7539 13.0132C45.7539 16.2312 47.7886 17.8732 50.9819 18.3773C53.3445 18.8167 58.0243 17.7268 58.0243 21.2545C58.0243 23.1557 56.7102 23.9372 53.986 23.9372H48.5416C47.0071 23.9372 45.7708 25.1075 45.7708 26.5538C45.7708 26.7806 45.9587 26.9595 46.2088 26.9595H54.3632C58.8706 26.9595 61.438 24.9766 61.438 21.2869C61.438 18.0521 59.4953 16.4917 56.2087 15.9059ZM92.2398 7.59981C92.2398 7.45336 92.1141 7.32376 91.9741 7.32376H91.8017C90.3308 7.34061 89.1411 8.542 89.11 10.0389V26.7003C89.11 26.8791 89.2344 26.9595 89.3756 26.9763H89.548C90.2681 26.9651 90.9546 26.6702 91.4586 26.1558C91.9626 25.6414 92.2433 24.9489 92.2398 24.2288V7.59981ZM116.503 7.32376H116.315C114.751 7.34061 113.484 8.542 113.468 10.0389V22.0347L104.327 8.5757C103.979 8.05894 103.466 7.67525 102.872 7.48706C102.634 7.40565 102.387 7.35639 102.136 7.34061C102.058 7.34061 101.996 7.32376 101.917 7.32376H99.8511C99.6956 7.32376 99.5699 7.45336 99.5699 7.59981V26.7016C99.5699 26.848 99.6956 26.9776 99.8511 26.9776H100.023C101.573 26.9608 102.825 25.7905 102.872 24.3286V12.2823L111.996 25.7244C112.359 26.2442 112.881 26.6321 113.484 26.8299C113.703 26.8947 113.937 26.9439 114.187 26.9595C114.25 26.9595 114.329 26.9763 114.391 26.9763H116.488C116.645 26.9763 116.77 26.8467 116.77 26.7003V7.61666C116.774 7.5794 116.77 7.54171 116.759 7.50608C116.747 7.47046 116.728 7.43771 116.703 7.41001C116.678 7.38232 116.647 7.3603 116.612 7.34543C116.578 7.33056 116.541 7.32318 116.503 7.32376ZM74.7089 7.33931H68.1201C67.8855 7.33931 67.6821 7.51816 67.6821 7.74626C67.6821 8.1532 67.7909 8.55885 67.9633 8.8997C68.2058 9.34686 68.5657 9.71947 69.0041 9.9775C69.4425 10.2355 69.9429 10.3692 70.4516 10.3642H74.3331C77.0728 10.3642 78.3714 11.6796 78.3714 13.5821C78.3714 15.4834 77.0883 16.8325 74.3331 16.8325H68.1045C67.8842 16.8325 67.6976 16.9958 67.6821 17.1902V26.6834C67.6821 26.8299 67.8065 26.9595 67.9633 26.9595H68.1512C69.7168 26.9439 70.9842 25.7736 71.0309 24.3104V19.6448H74.2398C74.2398 19.6448 75.3815 19.6941 76.5401 19.4828C79.8268 18.897 81.7669 16.7846 81.7669 13.5653C81.7837 9.85874 79.2319 7.33931 74.7089 7.33931Z" fill="#2C3034"/>
<path fill-rule="evenodd" clip-rule="evenodd" d="M8.22921 25.6556L6.38243 27.8679C5.12431 26.6163 4.09528 25.1539 3.34204 23.547L5.43247 21.0094C5.01656 19.7555 4.80563 18.4426 4.8078 17.1214C4.8078 11.2091 8.98737 6.29466 14.5523 5.10752L13.6296 2.40666C14.7948 2.13409 15.9878 1.99796 17.1845 2.00101C17.7547 2.00101 18.325 2.02822 18.8952 2.08266L19.9812 5.16066C25.4633 6.43074 29.5625 11.3167 29.5625 17.1487C29.5625 18.4706 29.3448 19.7407 28.9663 20.9019L31.8149 21.441C31.3047 23.1319 30.5058 24.7218 29.4536 26.1403L26.224 25.5182C25.0709 26.7633 23.6726 27.7564 22.1172 28.435C20.5618 29.1137 18.8828 29.4634 17.1858 29.462C15.5138 29.4603 13.8593 29.1223 12.3206 28.4682C10.7819 27.8141 9.39054 26.8584 8.22921 25.6556ZM17.1858 33.35C26.1709 33.35 33.4725 26.0872 33.4725 17.15C33.4725 8.21274 26.1709 0.949951 17.1858 0.949951C8.202 0.949951 0.900391 8.21274 0.900391 17.15C0.900391 26.0872 8.202 33.35 17.1858 33.35ZM27.3386 15.2319L24.5159 16.2039L24.3798 15.6116C24.0236 13.9634 23.1123 12.4875 21.7983 11.4306C20.4844 10.3738 18.8474 9.80012 17.1612 9.80552C16.346 9.80552 15.5593 9.9403 14.8258 10.184L14.5536 10.2656L12.0031 8.18552L12.7639 7.8356C14.1404 7.1938 15.6411 6.86199 17.1599 6.8636C22.0458 6.8636 26.145 10.2384 27.2297 14.7472L27.3386 15.2319ZM24.4356 18.5276L27.5291 17.4467L27.4474 18.284C26.8772 23.442 22.4812 27.4635 17.1599 27.4635C16.1296 27.4635 15.1511 27.3287 14.2296 27.032L13.767 26.8972L14.3372 23.9812L14.9074 24.1704C15.6368 24.398 16.3959 24.5159 17.1599 24.5203C20.6616 24.5203 23.6204 22.0903 24.3526 18.8244L24.4343 18.5263L24.4356 18.5276ZM12.3284 22.7396L11.7051 25.9524L11.026 25.4392C9.7207 24.4871 8.65908 23.2399 7.92775 21.7993C7.19642 20.3587 6.81612 18.7656 6.81788 17.15C6.81788 14.3143 7.98427 11.7223 9.85827 9.85995L10.2108 9.51003L12.5176 11.3983L12.0835 11.804C11.3627 12.4897 10.7888 13.3147 10.3967 14.2291C10.0046 15.1434 9.80248 16.1279 9.80254 17.1227C9.80254 19.256 10.6994 21.1455 12.1379 22.496L12.3284 22.7396Z" fill="#2C3034"/>
</g>
<defs>
<clipPath id="clip0_745_1839">
<rect width="116.639" height="32.4" fill="white" transform="translate(0.900391 0.949951)"/>
</clipPath>
</defs>
</svg>
