<svg width="187" height="52" viewBox="0 0 187 52" fill="none" xmlns="http://www.w3.org/2000/svg">
<path d="M88.6711 24.0023C84.8812 23.2743 77.3805 25.0735 77.3805 19.3847C77.3805 16.3334 79.4873 15.0791 83.8527 15.0791H90.0757C92.5358 15.0791 94.518 13.203 94.518 10.8817C94.518 10.5156 94.2167 10.2286 93.8157 10.2286H83.2523C76.0257 10.2286 71.9097 13.411 71.9097 19.3598C71.9097 24.5244 75.1718 27.1598 80.2914 27.9689C84.0792 28.674 91.5821 26.9247 91.5821 32.5865C91.5821 35.6378 89.4752 36.8921 85.1077 36.8921H76.379C73.9189 36.8921 71.9367 38.7703 71.9367 41.0916C71.9367 41.4556 72.238 41.7426 72.639 41.7426H85.7123C92.9389 41.7426 97.0549 38.5602 97.0549 32.6385C97.0549 27.4468 93.9424 24.9425 88.6732 24.0023H88.6711ZM146.437 10.6716C146.437 10.4366 146.236 10.2286 146.012 10.2286H145.735C143.377 10.2556 141.47 12.1838 141.42 14.5862V41.3266C141.42 41.6137 141.619 41.7426 141.846 41.7697H142.122C143.276 41.7516 144.377 41.2784 145.185 40.4528C145.993 39.6272 146.443 38.5159 146.437 37.3601V10.6737V10.6716ZM185.338 10.2286H185.036C182.528 10.2556 180.496 12.1838 180.471 14.5862V33.8386L165.817 12.2378C165.258 11.4085 164.436 10.7927 163.484 10.4906C163.102 10.36 162.705 10.2809 162.303 10.2556C162.179 10.2556 162.079 10.2286 161.952 10.2286H158.64C158.391 10.2286 158.189 10.4366 158.189 10.6716V41.3287C158.189 41.5638 158.391 41.7718 158.64 41.7718H158.917C161.402 41.7447 163.409 39.8665 163.484 37.5202V18.1866L178.111 39.7604C178.693 40.5947 179.53 41.2173 180.496 41.5346C180.848 41.6386 181.224 41.7177 181.625 41.7426C181.724 41.7426 181.851 41.7697 181.951 41.7697H185.313C185.564 41.7697 185.766 41.5617 185.766 41.3266V10.6986C185.772 10.6389 185.766 10.5784 185.747 10.5212C185.729 10.464 185.698 10.4114 185.658 10.367C185.617 10.3225 185.568 10.2872 185.512 10.2633C185.457 10.2395 185.398 10.2276 185.338 10.2286V10.2286ZM118.331 10.2535H107.768C107.392 10.2535 107.066 10.5406 107.066 10.9066C107.066 11.5598 107.24 12.2108 107.517 12.7578C107.905 13.4755 108.482 14.0735 109.185 14.4876C109.888 14.9018 110.69 15.1163 111.506 15.1082H117.729C122.121 15.1082 124.203 17.2194 124.203 20.2729C124.203 23.3242 122.146 25.4895 117.729 25.4895H107.743C107.39 25.4895 107.091 25.7516 107.066 26.0636V41.2996C107.066 41.5346 107.265 41.7426 107.517 41.7426H107.818C110.328 41.7177 112.36 39.8394 112.435 37.4911V30.0031H117.579C117.579 30.0031 119.41 30.0822 121.267 29.7431C126.537 28.803 129.647 25.4126 129.647 20.2458C129.674 14.297 125.583 10.2535 118.331 10.2535V10.2535Z" fill="#2C3034"/>
<path fill-rule="evenodd" clip-rule="evenodd" d="M11.7498 39.651L8.789 43.2016C6.77194 41.1929 5.12216 38.8458 3.91453 36.2669L7.26599 32.1942C6.59919 30.1817 6.26101 28.0746 6.2645 25.9542C6.2645 16.4653 12.9653 8.57792 21.8873 6.67264L20.4079 2.33792C22.2761 1.90047 24.1887 1.68199 26.1073 1.68688C27.0215 1.68688 27.9357 1.73056 28.8499 1.81792L30.5911 6.75792C39.3801 8.79632 45.9521 16.6379 45.9521 25.9979C45.9521 28.1195 45.6031 30.1579 44.9964 32.0216L49.5633 32.8869C48.7453 35.6006 47.4645 38.1523 45.7776 40.429L40.5998 39.4306C38.751 41.4288 36.5093 43.0226 34.0156 44.1119C31.5219 45.2011 28.8301 45.7623 26.1094 45.76C23.4288 45.7573 20.7762 45.2149 18.3093 44.1651C15.8425 43.1152 13.6117 41.5794 11.7498 39.649V39.651ZM26.1094 52C40.5146 52 52.2208 40.3437 52.2208 26C52.2208 11.6563 40.5146 0 26.1094 0C11.7062 0 0 11.6563 0 26C0 40.3437 11.7062 52 26.1094 52ZM42.3867 22.9216L37.8613 24.4816L37.6431 23.531C37.072 20.8858 35.6109 18.517 33.5043 16.8209C31.3978 15.1247 28.7733 14.204 26.0699 14.2126C24.763 14.2126 23.5017 14.429 22.3257 14.82L21.8894 14.951L17.8003 11.6126L19.02 11.051C21.2269 10.021 23.6328 9.48845 26.0678 9.49104C33.901 9.49104 40.473 14.9074 42.2121 22.1437L42.3867 22.9237V22.9216ZM37.7324 28.211L42.6921 26.4763L42.5612 27.82C41.647 36.0984 34.5992 42.5526 26.0678 42.5526C24.416 42.5526 22.8472 42.3363 21.3699 41.86L20.6282 41.6437L21.5424 36.9637L22.4566 37.2674C23.6259 37.6326 24.8429 37.8219 26.0678 37.829C31.682 37.829 36.4255 33.929 37.5995 28.6874L37.7304 28.209L37.7324 28.211ZM18.3218 34.971L17.3224 40.1274L16.2337 39.3037C14.141 37.7757 12.439 35.7739 11.2665 33.4619C10.094 31.1498 9.48431 28.5929 9.48713 26C9.48713 21.449 11.3571 17.289 14.3616 14.3L14.9268 13.7384L18.6252 16.769L17.9291 17.42C16.7736 18.5205 15.8535 19.8447 15.2249 21.3122C14.5963 22.7796 14.2721 24.3596 14.2723 25.9563C14.2723 29.38 15.7101 32.4126 18.0164 34.58L18.3198 34.971H18.3218Z" fill="#2C3034"/>
</svg>
