<svg width="181" height="57" viewBox="0 0 181 57" fill="none" xmlns="http://www.w3.org/2000/svg">
<g clip-path="url(#clip0_7031_44140)">
<path fill-rule="evenodd" clip-rule="evenodd" d="M24.0732 1.48287C23.0049 2.55587 21.937 3.62871 20.8687 4.70176C18.9005 6.67944 18.9005 9.91549 20.8687 11.893C21.937 12.9662 23.0049 14.0389 24.0732 15.1121C26.0418 17.0892 29.2632 17.0892 31.2319 15.1121C32.7326 14.2688 33.7498 13.1694 34.4362 11.893C36.4045 9.91549 36.4045 6.67944 34.4362 4.70176C33.3679 3.62871 32.3001 2.55587 31.2319 1.48287C29.2632 -0.494289 26.0418 -0.494289 24.0732 1.48287Z" fill="url(#paint0_linear_7031_44140)"/>
<path fill-rule="evenodd" clip-rule="evenodd" d="M31.2318 55.5162C32.3001 54.4432 33.368 53.3706 34.4363 52.2973C36.4045 50.3199 36.4045 47.0836 34.4363 45.1063C33.368 44.033 32.3001 42.9603 31.2318 41.8873C29.2632 39.91 26.0418 39.91 24.0732 41.8873C22.5726 42.7304 21.5554 43.83 20.8689 45.1063C18.9005 47.0836 18.9005 50.3199 20.8689 52.2973C21.9371 53.3706 23.005 54.4432 24.0732 55.5162C26.0418 57.4936 29.2632 57.4936 31.2318 55.5162Z" fill="url(#paint1_linear_7031_44140)"/>
<path fill-rule="evenodd" clip-rule="evenodd" d="M35.3998 5.77148L53.1649 23.3487C53.188 23.3708 53.2118 23.3939 53.2336 23.4173C55.6068 25.8085 55.9409 29.4684 54.2388 32.2179C53.4149 33.5486 52.3002 34.6469 51.0357 35.5703C44.4689 40.368 36.4857 42.4044 28.7174 41.6746C28.1813 41.6245 27.8153 41.5698 27.2502 41.588C25.4512 41.6455 23.6685 42.343 22.3029 43.6942C19.6325 46.3363 19.4705 50.5577 21.8168 53.3917L19.5222 51.1128C13.1946 44.6491 12.931 35.283 17.4145 28.673L23.9219 35.1115C25.8741 37.0431 29.0704 37.0437 31.0233 35.1115L32.7166 33.436L34.2438 31.9249L34.9178 31.2582C35.8676 30.3187 36.7123 29.3022 37.4123 28.23C37.427 28.2074 37.442 28.1842 37.457 28.1615C37.4875 28.0844 37.5325 28.0129 37.58 27.9311C41.5843 21.0137 40.4963 11.6144 35.4745 5.85355C35.4501 5.82558 35.4258 5.79858 35.3998 5.77148Z" fill="url(#paint2_linear_7031_44140)"/>
<path fill-rule="evenodd" clip-rule="evenodd" d="M19.6299 51.2277L2.11451 33.6704C2.09169 33.6483 2.0683 33.6255 2.04672 33.602C-0.297364 31.2091 -0.627469 27.5467 1.05388 24.7954C1.86752 23.4638 2.96853 22.3648 4.21749 21.441C10.7039 16.6398 18.589 14.6022 26.2619 15.3325C26.7914 15.3827 27.153 15.4372 27.7111 15.4192C29.4879 15.3615 31.2487 14.6635 32.5975 13.3115C35.2353 10.6676 35.3952 6.44325 33.0778 3.60742L35.3127 5.85611L35.3735 5.92131C40.8314 11.8517 41.6818 20.5094 37.9237 27.2887C37.8487 27.4243 37.7716 27.5601 37.6923 27.6943L37.6624 27.7448C37.5616 27.9128 37.4613 28.078 37.3555 28.2439L37.3446 28.2611L30.9986 21.8999C29.0696 19.9668 25.9132 19.9668 23.9844 21.8999L22.3119 23.5762L20.8033 25.0886L20.1222 25.771C13.1571 32.7532 13.0346 43.8798 19.5584 51.1478L19.6299 51.2277Z" fill="url(#paint3_linear_7031_44140)"/>
</g>
<path d="M76.8717 42.8837V21.9025H68.2344V14.4209H94.3862V21.9025H85.509V42.8837H76.8717Z" fill="#2C3034"/>
<path d="M104.833 43.2903C102.514 43.2903 100.448 42.8024 98.6352 41.8265C96.8225 40.8506 95.3962 39.5224 94.3566 37.8417C93.3169 36.1339 92.797 34.1822 92.797 31.9865C92.797 29.7908 93.3169 27.8526 94.3566 26.172C95.3962 24.4642 96.8225 23.1224 98.6352 22.1465C100.448 21.1706 102.514 20.6827 104.833 20.6827C107.153 20.6827 109.205 21.1706 110.991 22.1465C112.804 23.1224 114.217 24.4642 115.23 26.172C116.27 27.8526 116.79 29.7908 116.79 31.9865C116.79 34.1822 116.27 36.1339 115.23 37.8417C114.217 39.5224 112.804 40.8506 110.991 41.8265C109.205 42.8024 107.153 43.2903 104.833 43.2903ZM104.833 36.3779C105.553 36.3779 106.193 36.1882 106.753 35.8086C107.339 35.4291 107.792 34.9141 108.112 34.2635C108.432 33.5858 108.592 32.8268 108.592 31.9865C108.592 31.1191 108.432 30.3601 108.112 29.7095C107.792 29.0318 107.339 28.5032 106.753 28.1237C106.193 27.7442 105.553 27.5544 104.833 27.5544C104.087 27.5544 103.42 27.7442 102.834 28.1237C102.274 28.5032 101.821 29.0318 101.474 29.7095C101.154 30.3601 100.994 31.1191 100.994 31.9865C100.994 32.8268 101.154 33.5858 101.474 34.2635C101.821 34.9141 102.274 35.4291 102.834 35.8086C103.42 36.1882 104.087 36.3779 104.833 36.3779Z" fill="#2C3034"/>
<path d="M120.795 42.8837V21.13H128.312L128.712 25.5214L126.993 26.0093C127.286 24.9792 127.806 24.0711 128.552 23.285C129.325 22.4718 130.245 21.8348 131.311 21.3739C132.378 20.9131 133.511 20.6827 134.71 20.6827C136.31 20.6827 137.669 21.0215 138.789 21.6992C139.909 22.3769 140.748 23.3799 141.308 24.7082C141.895 26.0093 142.188 27.5951 142.188 29.4655V42.8837H134.07V30.1568C134.07 29.5604 133.977 29.0589 133.791 28.6523C133.604 28.2457 133.324 27.9339 132.951 27.7171C132.578 27.5002 132.138 27.3918 131.631 27.3918C131.231 27.3918 130.858 27.4596 130.512 27.5951C130.192 27.7035 129.912 27.8797 129.672 28.1237C129.432 28.3677 129.245 28.6387 129.112 28.9369C128.979 29.2351 128.912 29.5739 128.912 29.9534V42.8837H124.873C123.86 42.8837 123.007 42.8837 122.314 42.8837C121.648 42.8837 121.141 42.8837 120.795 42.8837Z" fill="#2C3034"/>
<path d="M147.508 42.8837V21.13H155.625V42.8837H147.508ZM151.587 17.1858C150.147 17.1858 149.014 16.847 148.188 16.1693C147.388 15.4916 146.988 14.5293 146.988 13.2824C146.988 12.1439 147.401 11.2087 148.228 10.4768C149.054 9.74486 150.174 9.37891 151.587 9.37891C153.026 9.37891 154.146 9.71775 154.945 10.3954C155.772 11.0731 156.185 12.0354 156.185 13.2824C156.185 14.4209 155.772 15.3561 154.945 16.088C154.119 16.8199 152.999 17.1858 151.587 17.1858Z" fill="#2C3034"/>
<path d="M171.005 43.2903C168.846 43.2903 166.913 42.8024 165.207 41.8265C163.527 40.8506 162.194 39.5224 161.208 37.8417C160.248 36.1339 159.768 34.1822 159.768 31.9865C159.768 29.7908 160.248 27.8526 161.208 26.172C162.194 24.4642 163.527 23.1224 165.207 22.1465C166.913 21.1706 168.846 20.6827 171.005 20.6827C172.924 20.6827 174.697 20.9809 176.323 21.5772C177.949 22.1736 179.269 23.0411 180.282 24.1796L175.883 29.4655C175.59 29.1402 175.244 28.842 174.844 28.571C174.444 28.2999 173.991 28.0966 173.484 27.9611C172.978 27.7984 172.391 27.7171 171.725 27.7171C170.925 27.7171 170.218 27.8933 169.605 28.2457C169.019 28.5981 168.566 29.0996 168.246 29.7501C167.926 30.3736 167.766 31.1055 167.766 31.9458C167.766 32.7591 167.913 33.491 168.206 34.1415C168.526 34.765 168.979 35.2665 169.565 35.646C170.178 36.0255 170.898 36.2153 171.725 36.2153C172.391 36.2153 172.978 36.1475 173.484 36.012C173.991 35.8764 174.444 35.6867 174.844 35.4427C175.244 35.1716 175.59 34.8599 175.883 34.5075L180.242 39.8341C179.256 40.9455 177.949 41.7994 176.323 42.3958C174.697 42.9921 172.924 43.2903 171.005 43.2903Z" fill="#2C3034"/>
<path d="M76.8717 42.8837V21.9025H68.2344V14.4209H94.3862V21.9025H85.509V42.8837H76.8717Z" fill="#2C3034"/>
<path d="M104.833 43.2903C102.514 43.2903 100.448 42.8024 98.6352 41.8265C96.8225 40.8506 95.3962 39.5224 94.3566 37.8417C93.3169 36.1339 92.797 34.1822 92.797 31.9865C92.797 29.7908 93.3169 27.8526 94.3566 26.172C95.3962 24.4642 96.8225 23.1224 98.6352 22.1465C100.448 21.1706 102.514 20.6827 104.833 20.6827C107.153 20.6827 109.205 21.1706 110.991 22.1465C112.804 23.1224 114.217 24.4642 115.23 26.172C116.27 27.8526 116.79 29.7908 116.79 31.9865C116.79 34.1822 116.27 36.1339 115.23 37.8417C114.217 39.5224 112.804 40.8506 110.991 41.8265C109.205 42.8024 107.153 43.2903 104.833 43.2903ZM104.833 36.3779C105.553 36.3779 106.193 36.1882 106.753 35.8086C107.339 35.4291 107.792 34.9141 108.112 34.2635C108.432 33.5858 108.592 32.8268 108.592 31.9865C108.592 31.1191 108.432 30.3601 108.112 29.7095C107.792 29.0318 107.339 28.5032 106.753 28.1237C106.193 27.7442 105.553 27.5544 104.833 27.5544C104.087 27.5544 103.42 27.7442 102.834 28.1237C102.274 28.5032 101.821 29.0318 101.474 29.7095C101.154 30.3601 100.994 31.1191 100.994 31.9865C100.994 32.8268 101.154 33.5858 101.474 34.2635C101.821 34.9141 102.274 35.4291 102.834 35.8086C103.42 36.1882 104.087 36.3779 104.833 36.3779Z" fill="#2C3034"/>
<path d="M120.795 42.8837V21.13H128.312L128.712 25.5214L126.993 26.0093C127.286 24.9792 127.806 24.0711 128.552 23.285C129.325 22.4718 130.245 21.8348 131.311 21.3739C132.378 20.9131 133.511 20.6827 134.71 20.6827C136.31 20.6827 137.669 21.0215 138.789 21.6992C139.909 22.3769 140.748 23.3799 141.308 24.7082C141.895 26.0093 142.188 27.5951 142.188 29.4655V42.8837H134.07V30.1568C134.07 29.5604 133.977 29.0589 133.791 28.6523C133.604 28.2457 133.324 27.9339 132.951 27.7171C132.578 27.5002 132.138 27.3918 131.631 27.3918C131.231 27.3918 130.858 27.4596 130.512 27.5951C130.192 27.7035 129.912 27.8797 129.672 28.1237C129.432 28.3677 129.245 28.6387 129.112 28.9369C128.979 29.2351 128.912 29.5739 128.912 29.9534V42.8837H124.873C123.86 42.8837 123.007 42.8837 122.314 42.8837C121.648 42.8837 121.141 42.8837 120.795 42.8837Z" fill="#2C3034"/>
<path d="M147.508 42.8837V21.13H155.625V42.8837H147.508ZM151.587 17.1858C150.147 17.1858 149.014 16.847 148.188 16.1693C147.388 15.4916 146.988 14.5293 146.988 13.2824C146.988 12.1439 147.401 11.2087 148.228 10.4768C149.054 9.74486 150.174 9.37891 151.587 9.37891C153.026 9.37891 154.146 9.71775 154.945 10.3954C155.772 11.0731 156.185 12.0354 156.185 13.2824C156.185 14.4209 155.772 15.3561 154.945 16.088C154.119 16.8199 152.999 17.1858 151.587 17.1858Z" fill="#2C3034"/>
<path d="M171.005 43.2903C168.846 43.2903 166.913 42.8024 165.207 41.8265C163.527 40.8506 162.194 39.5224 161.208 37.8417C160.248 36.1339 159.768 34.1822 159.768 31.9865C159.768 29.7908 160.248 27.8526 161.208 26.172C162.194 24.4642 163.527 23.1224 165.207 22.1465C166.913 21.1706 168.846 20.6827 171.005 20.6827C172.924 20.6827 174.697 20.9809 176.323 21.5772C177.949 22.1736 179.269 23.0411 180.282 24.1796L175.883 29.4655C175.59 29.1402 175.244 28.842 174.844 28.571C174.444 28.2999 173.991 28.0966 173.484 27.9611C172.978 27.7984 172.391 27.7171 171.725 27.7171C170.925 27.7171 170.218 27.8933 169.605 28.2457C169.019 28.5981 168.566 29.0996 168.246 29.7501C167.926 30.3736 167.766 31.1055 167.766 31.9458C167.766 32.7591 167.913 33.491 168.206 34.1415C168.526 34.765 168.979 35.2665 169.565 35.646C170.178 36.0255 170.898 36.2153 171.725 36.2153C172.391 36.2153 172.978 36.1475 173.484 36.012C173.991 35.8764 174.444 35.6867 174.844 35.4427C175.244 35.1716 175.59 34.8599 175.883 34.5075L180.242 39.8341C179.256 40.9455 177.949 41.7994 176.323 42.3958C174.697 42.9921 172.924 43.2903 171.005 43.2903Z" fill="#2C3034"/>
<defs>
<linearGradient id="paint0_linear_7031_44140" x1="30.5927" y1="16.4565" x2="24.9071" y2="0.821358" gradientUnits="userSpaceOnUse">
<stop stop-color="#4519BF"/>
<stop offset="1" stop-color="#E93FFC"/>
</linearGradient>
<linearGradient id="paint1_linear_7031_44140" x1="30.4001" y1="56.3264" x2="24.8607" y2="41.0931" gradientUnits="userSpaceOnUse">
<stop stop-color="#E93FFC"/>
<stop offset="1" stop-color="#4519BF"/>
</linearGradient>
<linearGradient id="paint2_linear_7031_44140" x1="0.834309" y1="34.6746" x2="54.2932" y2="24.6603" gradientUnits="userSpaceOnUse">
<stop stop-color="#4519BF"/>
<stop offset="1" stop-color="#E93FFC"/>
</linearGradient>
<linearGradient id="paint3_linear_7031_44140" x1="0.876139" y1="32.1506" x2="53.6823" y2="22.3865" gradientUnits="userSpaceOnUse">
<stop stop-color="#E93FFC"/>
<stop offset="1" stop-color="#4519BF"/>
</linearGradient>
<clipPath id="clip0_7031_44140">
<rect width="55.3056" height="57" fill="white"/>
</clipPath>
</defs>
</svg>
