<svg width="185" height="40" viewBox="0 0 185 40" fill="none" xmlns="http://www.w3.org/2000/svg">
<g clip-path="url(#clip0_743_1707)">
<path d="M13.8036 5.6001L17.1 9.06998L3.2964 23.6001L0 20.1302L13.8036 5.6001Z" fill="#2C3034"/>
<path d="M30.0047 21.8L33.3012 25.2699L19.4976 39.8L16.2012 36.3301L30.0047 21.8Z" fill="#2C3034"/>
<path d="M27.173 8.30005L30.6016 11.7287L11.5301 30.8L8.10156 27.3714L27.173 8.30005Z" fill="#2C3034"/>
<path d="M38.7 12.9895L35.2894 16.4L22.5 3.61049L25.9105 0.199951L38.7 12.9895Z" fill="#2C3034"/>
<path d="M60.3508 29H65.6247V15.4442H71.1004V11H54.9004V15.4442H60.3508V29Z" fill="#2C3034"/>
<path d="M80.1016 15.525C80.0265 15.5 79.9015 15.5 79.7765 15.5H79.4766C78.0016 15.5 76.5015 16.4963 75.9766 18.1652V15.5997H71.1016V29H76.1016V22.3994C76.1016 20.6061 77.2516 20.108 78.8515 20.108C79.3265 20.108 79.7266 20.1827 80.1016 20.2574V15.525Z" fill="#2C3034"/>
<path d="M90.1379 20.9568C84.2855 21.361 81 22.6495 81 25.8326C81 28.2579 83.2331 29.9 85.9282 29.9C87.879 29.9 89.5989 29.3189 90.6256 27.8031V29.5715H95.4C95.2459 28.46 95.1433 26.8431 95.1433 25.4537V24.1147L95.169 21.5127C95.2459 16.9652 92.3968 15.5 88.4438 15.5C83.9005 15.5 81.539 17.9758 81.3336 20.5273H85.7486C85.9282 19.34 86.7753 18.7841 88.0844 18.7841C89.1881 18.7841 90.1379 19.0873 90.1379 20.5779V20.9568ZM90.3176 23.8873C90.3176 25.9842 89.1881 26.5148 87.8534 26.5148C86.647 26.5148 86.1593 25.8579 86.1593 25.2768C86.1593 24.0894 87.5711 23.6599 90.3176 23.4831V23.8873Z" fill="#2C3034"/>
<path d="M106.475 17.3902C105.86 16.2439 104.374 15.2683 102.323 15.2683C99.2481 15.2683 96.3008 17.5854 96.3008 22.122C96.3008 26.6586 99.2481 29 102.323 29C104.374 29 105.86 28.0244 106.475 26.878V28.6829H111.601V11H106.475V17.3902ZM106.655 22.122C106.655 24.0976 105.604 25.3658 104.169 25.3658C102.708 25.3658 101.785 23.9756 101.785 22.122C101.785 20.2683 102.708 18.9024 104.169 18.9024C105.604 18.9024 106.655 20.1463 106.655 22.122Z" fill="#2C3034"/>
<path d="M120.786 29.9C124.936 29.9 127.159 26.9798 127.751 24.991H123.108C122.811 25.721 121.823 26.1994 120.86 26.1994C119.304 26.1994 118.365 25.3182 118.192 23.9336H127.776C128.097 19.2259 125.207 15.5 120.564 15.5C116.537 15.5 113.4 18.2692 113.4 22.5993C113.4 26.8539 116.093 29.9 120.786 29.9ZM120.885 18.9489C121.947 18.9489 123.281 19.528 123.404 21.1391H118.266C118.588 19.528 119.847 18.9489 120.885 18.9489Z" fill="#2C3034"/>
<path d="M130.5 11V29H135.608V23.1406H137.711C142.33 23.1406 145.8 21.9738 145.8 17.0827C145.8 12.1917 142.33 11 137.711 11H130.5ZM138.174 15.1958C139.642 15.1958 140.496 15.7669 140.496 17.0827C140.496 18.3738 139.642 18.9449 138.174 18.9449H135.608V15.1958H138.174Z" fill="#2C3034"/>
<path d="M153.901 19.2842C155.142 19.2842 156.09 20.173 156.09 22.7127C156.09 25.2524 155.142 26.1158 153.901 26.1158C152.662 26.1158 151.712 25.2524 151.712 22.7127C151.712 20.173 152.662 19.2842 153.901 19.2842ZM153.901 29.9C157.769 29.9 161.101 27.5126 161.101 22.7127C161.101 17.9381 157.769 15.5 153.901 15.5C149.985 15.5 146.701 17.9381 146.701 22.7127C146.701 27.5126 149.985 29.9 153.901 29.9Z" fill="#2C3034"/>
<path d="M171.9 15.525C171.825 15.5 171.7 15.5 171.576 15.5H171.275C169.801 15.5 168.3 16.4963 167.775 18.1652V15.5997H162.9V29H167.9V22.3994C167.9 20.6061 169.05 20.108 170.651 20.108C171.126 20.108 171.524 20.1827 171.9 20.2574V15.525Z" fill="#2C3034"/>
<path d="M175.422 15.5891H172.801V18.73H175.422V24.9618C175.422 28.651 176.659 28.9999 180.251 28.9999H183.601V25.6348H181.222C180.566 25.6348 180.276 25.4852 180.276 24.7124V18.73H183.601V15.5891H180.276V11.8999H175.422V15.5891Z" fill="#2C3034"/>
</g>
<defs>
<clipPath id="clip0_743_1707">
<rect width="184.5" height="39.6" fill="white" transform="translate(0 0.199951)"/>
</clipPath>
</defs>
</svg>
