<svg width="18" height="21" viewBox="0 0 18 21" fill="none" xmlns="http://www.w3.org/2000/svg">
<path d="M7.13832 8.62982C6.85908 8.62984 6.59116 8.74078 6.39372 8.93824C6.19628 9.1357 6.08536 9.4035 6.08537 9.68273C6.08538 9.96197 6.19631 10.2298 6.39376 10.4272C6.59122 10.6247 6.85902 10.7356 7.13825 10.7356C7.41749 10.7356 7.68529 10.6247 7.88274 10.4272C8.08019 10.2298 8.19112 9.96197 8.19113 9.68273C8.19114 9.4035 8.08022 9.1357 7.88278 8.93824C7.68534 8.74078 7.41755 8.62984 7.13832 8.62982ZM10.8926 8.62982C10.6627 8.61034 10.4322 8.66073 10.2314 8.7744C10.0306 8.88807 9.86877 9.05972 9.76714 9.26689C9.66551 9.47405 9.62879 9.70707 9.6618 9.93545C9.69481 10.1638 9.796 10.3769 9.95213 10.5468C10.1083 10.7167 10.3121 10.8356 10.5368 10.8877C10.7616 10.9399 10.9969 10.9229 11.2119 10.8392C11.4269 10.7554 11.6116 10.6086 11.7418 10.4181C11.872 10.2276 11.9417 10.0022 11.9417 9.77148C11.9478 9.62762 11.9255 9.48396 11.8761 9.34871C11.8267 9.21346 11.7511 9.08927 11.6537 8.98325C11.5563 8.87722 11.4389 8.79144 11.3083 8.73079C11.1777 8.67015 11.0365 8.63584 10.8926 8.62982ZM15.8914 0.00012207H2.10865C1.83106 0.000777875 1.55632 0.0561064 1.30012 0.162948C1.04391 0.26979 0.811264 0.426052 0.615455 0.622812C0.419646 0.819571 0.264513 1.05297 0.158914 1.30969C0.0533144 1.56641 -0.000682443 1.84141 6.51056e-06 2.119V16.0253C-0.000670609 16.3029 0.0533348 16.5779 0.158939 16.8346C0.264543 17.0913 0.419678 17.3247 0.615485 17.5214C0.811291 17.7182 1.04394 17.8744 1.30013 17.9813C1.55633 18.0881 1.83106 18.1434 2.10865 18.1441H13.7726L13.2274 16.2412L14.544 17.4652L15.7886 18.6172L18 20.5715V2.119C18.0007 1.84141 17.9467 1.56641 17.8411 1.30969C17.7355 1.05297 17.5804 0.819571 17.3846 0.622812C17.1887 0.426052 16.9561 0.26979 16.6999 0.162948C16.4437 0.0561064 16.169 0.000777875 15.8914 0.00012207ZM11.9211 13.4332C11.9211 13.4332 11.5508 12.991 11.2422 12.6001C11.9878 12.4246 12.6473 11.991 13.104 11.3761C12.7339 11.6224 12.3371 11.826 11.9211 11.9829C11.4426 12.1872 10.9422 12.3356 10.4297 12.4252C9.5488 12.5874 8.64538 12.5839 7.76576 12.415C7.24932 12.3139 6.74319 12.1659 6.25367 11.9727C5.99567 11.8735 5.7448 11.7566 5.50282 11.623C5.47193 11.6024 5.44117 11.5921 5.41029 11.5715C5.39481 11.5639 5.38087 11.5534 5.36915 11.5407C5.18409 11.4379 5.08106 11.3658 5.08106 11.3658C5.5213 11.9678 6.15798 12.3971 6.88111 12.5795C6.57264 12.9705 6.19203 13.4332 6.19203 13.4332C5.58104 13.4497 4.97538 13.3157 4.42834 13.0431C3.8813 12.7705 3.40966 12.3676 3.05494 11.8698C3.08833 9.78461 3.59475 7.73421 4.53601 5.87323C5.36436 5.22266 6.37426 4.84529 7.42627 4.79323L7.52905 4.91671C6.53931 5.16161 5.61572 5.62166 4.82401 6.2641C4.82401 6.2641 5.05033 6.14069 5.43083 5.96582C6.17021 5.6283 6.95824 5.40962 7.76583 5.31787C7.82342 5.30589 7.88195 5.29898 7.94075 5.29724C8.62999 5.20746 9.32751 5.20057 10.0184 5.27673C11.1049 5.40079 12.1567 5.73621 13.1144 6.2641C12.3628 5.65231 11.4899 5.20707 10.5534 4.95782L10.6973 4.79333C11.7493 4.84535 12.7592 5.22272 13.5876 5.87333C14.5289 7.73426 15.0354 9.78465 15.0688 11.8699C14.7111 12.3671 14.2374 12.7695 13.6889 13.042C13.1403 13.3144 12.5335 13.4488 11.9211 13.4332Z" fill="white"/>
</svg>
