<svg width="24" height="24" viewBox="0 0 24 24" fill="none" xmlns="http://www.w3.org/2000/svg">
<circle cx="12" cy="12" r="9.25" stroke="#EDD1AB" stroke-width="1.5"/>
<path d="M10.9264 16.9895C10.9264 17.579 11.4106 18.0631 12 18.0631C12.6105 18.0631 13.0737 17.5788 13.0737 16.9895C13.0737 16.4 12.5895 15.9159 12 15.9159C11.4106 15.9159 10.9264 16.4 10.9264 16.9895Z" fill="#EDD1AB"/>
<path d="M12.8632 12.8631C12.8632 12.7158 12.9474 12.5895 13.0527 12.5474C14.6737 12.0211 15.6211 10.421 15.3265 8.71566C15.0949 7.36829 13.9792 6.23154 12.6108 5.99995C11.6002 5.81051 10.5897 6.08427 9.83179 6.73687C9.07389 7.36848 8.63171 8.31581 8.63171 9.3263C8.63171 9.78946 9.01059 10.1683 9.47374 10.1683C9.9369 10.1683 10.3158 9.78946 10.3158 9.3263C10.3158 8.84213 10.5264 8.35795 10.9474 8.02093C11.3264 7.7052 11.8316 7.5789 12.3369 7.66305C13.0105 7.78937 13.558 8.33666 13.6843 9.01042C13.8527 9.97891 13.2422 10.6947 12.5475 10.9262C11.7265 11.2 11.1792 11.9789 11.1792 12.8631V13.9367C11.1792 14.3999 11.558 14.7788 12.0212 14.7788C12.4843 14.7788 12.8632 14.3999 12.8632 13.9367V12.8631Z" fill="#EDD1AB"/>
<path fill-rule="evenodd" clip-rule="evenodd" d="M12 22C17.5229 22 22 17.5229 22 12C22 9.36578 20.9815 6.96944 19.3167 5.18335C21.2753 7.00887 22.5 9.61142 22.5 12.5C22.5 18.0229 18.0229 22.5 12.5 22.5C9.61142 22.5 7.00887 21.2753 5.18335 19.3167C6.96944 20.9815 9.36578 22 12 22Z" fill="#EDD1AB"/>
</svg>
