<svg class="t-sociallinks__svg" width="30px" height="30px" viewBox="0 0 100 100" fill="none" xmlns="http://www.w3.org/2000/svg">
                          <path fill-rule="evenodd" clip-rule="evenodd" d="M50 100c27.614 0 50-22.386 50-50S77.614 0 50 0 0 22.386 0 50s22.386 50 50 50Zm4.023-50.382C54.023 40.993 47.08 34 38.512 34S23 40.993 23 49.618c0 8.626 6.945 15.618 15.512 15.618 8.566 0 15.511-6.992 15.511-15.618Zm17.016 0c0-8.12-3.472-14.703-7.756-14.703-4.283 0-7.755 6.584-7.755 14.703 0 8.12 3.472 14.704 7.756 14.704 4.283 0 7.756-6.585 7.756-14.704Zm6.961 0c0-7.274-1.222-13.172-2.728-13.172-1.506 0-2.727 5.898-2.727 13.172 0 7.275 1.22 13.172 2.727 13.172S78 56.891 78 49.618Z" fill="#2c3034"></path>
                        </svg>