<svg width="40" height="40" viewBox="0 0 40 40" fill="none" xmlns="http://www.w3.org/2000/svg">
<g clip-path="url(#clip0_7704_53197)">
<path d="M20.0001 0.494141C15.251 0.494338 10.657 2.18437 7.03998 5.26184C3.42299 8.3393 1.01906 12.6034 0.258321 17.2911C-0.502415 21.9788 0.42969 26.7843 2.88785 30.8476C5.34602 34.911 9.16983 37.9671 13.6751 39.4691C14.6751 39.6442 15.0501 39.0442 15.0501 38.5191C15.0501 38.0441 15.0251 36.4691 15.0251 34.7941C10.0001 35.7191 8.70005 33.5692 8.30005 32.4442C7.85621 31.35 7.15261 30.3804 6.25005 29.6191C5.55005 29.2441 4.55005 28.3191 6.22503 28.2942C6.86461 28.3636 7.47803 28.5861 8.01332 28.943C8.5486 29.2998 8.98998 29.7804 9.30005 30.3441C9.5736 30.8355 9.94141 31.2681 10.3824 31.6171C10.8235 31.9661 11.329 32.2247 11.8701 32.3779C12.4112 32.5312 12.9773 32.5762 13.5358 32.5104C14.0943 32.4445 14.6344 32.2691 15.125 31.9941C15.2116 30.9774 15.6647 30.0267 16.4001 29.3192C11.9501 28.8192 7.30005 27.0941 7.30005 19.4442C7.27195 17.4565 8.00543 15.5334 9.35005 14.0692C8.73862 12.3416 8.81016 10.4458 9.55005 8.7692C9.55005 8.7692 11.225 8.24418 15.0501 10.8192C18.3226 9.91915 21.7775 9.91915 25.0501 10.8192C28.875 8.2192 30.5501 8.7692 30.5501 8.7692C31.29 10.4457 31.3616 12.3417 30.7501 14.0692C32.0987 15.5308 32.8328 17.4557 32.8001 19.4442C32.8001 27.1191 28.125 28.8192 23.6751 29.3192C24.1524 29.803 24.52 30.3838 24.7529 31.0222C24.9858 31.6606 25.0787 32.3417 25.0251 33.0192C25.0251 35.6942 25 37.8442 25 38.5192C25 39.0442 25.375 39.6692 26.375 39.4692C30.8724 37.9549 34.6852 34.8917 37.1329 30.8262C39.5806 26.7608 40.5038 21.9578 39.7378 17.2746C38.9718 12.5914 36.5664 8.33288 32.951 5.25916C29.3356 2.18544 24.7455 0.49661 20.0001 0.494141V0.494141Z" fill="#F3EBEA"/>
</g>
<defs>
<clipPath id="clip0_7704_53197">
<rect width="40" height="40" fill="white"/>
</clipPath>
</defs>
</svg>
