<svg width="40" height="40" viewBox="0 0 40 40" fill="none" xmlns="http://www.w3.org/2000/svg">
<g clip-path="url(#clip0_7704_53201)">
<path d="M20 6.89077e-08C16.0444 6.89077e-08 12.1776 1.17298 8.8886 3.37061C5.59962 5.56823 3.03617 8.69181 1.52242 12.3463C0.00866568 16.0008 -0.387401 20.0222 0.384303 23.9018C1.15601 27.7814 3.06082 31.3451 5.85787 34.1421C8.65492 36.9392 12.2186 38.844 16.0982 39.6157C19.9778 40.3874 23.9992 39.9913 27.6537 38.4776C31.3082 36.9638 34.4318 34.4004 36.6294 31.1114C38.827 27.8224 40 23.9556 40 20C40.0002 17.3735 39.4831 14.7727 38.478 12.3461C37.473 9.91946 35.9998 7.71459 34.1426 5.85738C32.2854 4.00016 30.0805 2.52698 27.6539 1.52197C25.2273 0.516949 22.6265 -0.000217958 20 6.89077e-08ZM26.359 30.3049C26.2842 30.4916 26.1703 30.6601 26.025 30.7991C25.8797 30.9382 25.7063 31.0445 25.5165 31.1111C25.3268 31.1777 25.1249 31.2029 24.9246 31.1851C24.7243 31.1673 24.5301 31.1069 24.355 31.0079L18.9257 26.7892L15.441 30.004C15.3602 30.0637 15.2656 30.1022 15.166 30.1158C15.0664 30.1294 14.965 30.1177 14.871 30.0819L15.539 24.105L15.5604 24.1219L15.5741 24.0039C15.5741 24.0039 25.3441 15.1089 25.7421 14.7299C26.145 14.3519 26.0121 14.2699 26.0121 14.2699C26.035 13.8089 25.289 14.2699 25.289 14.2699L12.344 22.598L6.95303 20.762C6.95303 20.762 6.12503 20.465 6.04703 19.812C5.96503 19.164 6.98001 18.812 6.98001 18.812L28.414 10.297C28.414 10.297 30.176 9.51194 30.176 10.812L26.359 30.3049Z" fill="#F3EBEA"/>
<path d="M26.359 30.3049C26.2842 30.4916 26.1703 30.6601 26.025 30.7991C25.8797 30.9382 25.7063 31.0445 25.5165 31.1111C25.3268 31.1777 25.1249 31.2029 24.9246 31.1851C24.7243 31.1673 24.5301 31.1069 24.355 31.0079L18.9257 26.7892L15.441 30.004C15.3602 30.0637 15.2656 30.1022 15.166 30.1158C15.0664 30.1294 14.965 30.1177 14.871 30.0819L15.539 24.105L15.5604 24.1219L15.5741 24.0039C15.5741 24.0039 25.3441 15.1089 25.7421 14.7299C26.145 14.3519 26.0121 14.2699 26.0121 14.2699C26.035 13.8089 25.289 14.2699 25.289 14.2699L12.344 22.598L6.95303 20.762C6.95303 20.762 6.12503 20.465 6.04703 19.812C5.96503 19.164 6.98001 18.812 6.98001 18.812L28.414 10.297C28.414 10.297 30.176 9.51194 30.176 10.812L26.359 30.3049Z" fill="#2C3034"/>
</g>
<defs>
<clipPath id="clip0_7704_53201">
<rect width="40" height="40" fill="white"/>
</clipPath>
</defs>
</svg>
