<svg width="33" height="32" viewBox="0 0 33 32" fill="none" xmlns="http://www.w3.org/2000/svg">
<g id="majesticons:key">
<path id="Vector" fill-rule="evenodd" clip-rule="evenodd" d="M30.2496 11.084C30.2496 15.7187 26.3584 19.476 21.5596 19.476C20.6851 19.476 18.6914 19.2814 17.722 18.5L16.5093 19.6707C15.7956 20.36 15.9881 20.5627 16.3058 20.896C16.4378 21.036 16.5918 21.1974 16.7114 21.428C16.7114 21.428 17.722 22.7934 16.7114 24.16C16.105 24.94 14.4069 26.032 12.4681 24.16L12.0639 24.5494C12.0639 24.5494 13.2753 25.916 12.266 27.2827C11.6596 28.0627 10.0426 28.8427 8.62776 27.4774L7.21426 28.8427C6.24351 29.78 5.05826 29.2334 4.58801 28.8427L3.37389 27.672C2.24226 26.5787 2.90226 25.3947 3.37389 24.9387L13.8816 14.792C13.8816 14.792 12.871 13.232 12.871 11.0854C12.871 6.45069 16.7623 2.69336 21.561 2.69336C26.3598 2.69336 30.2496 6.45069 30.2496 11.084Z" fill="white"/>
<path id="Vector_2" d="M24.5922 11.0843C24.5904 11.862 24.2702 12.6072 23.7019 13.156C23.1336 13.7048 22.3638 14.0123 21.5617 14.0109C20.7597 14.0123 19.9899 13.7048 19.4216 13.156C18.8533 12.6072 18.5331 11.862 18.5312 11.0843C18.532 10.699 18.6109 10.3177 18.7636 9.96212C18.9163 9.6065 19.1397 9.28353 19.4211 9.01164C19.7025 8.73975 20.0364 8.52427 20.4037 8.3775C20.771 8.23073 21.1645 8.15555 21.5617 8.15625C21.959 8.15555 22.3525 8.23073 22.7198 8.3775C23.0871 8.52427 23.421 8.73975 23.7024 9.01164C23.9838 9.28353 24.2072 9.6065 24.3599 9.96212C24.5126 10.3177 24.5915 10.699 24.5922 11.0843Z" fill="#FF5701"/>
</g>
</svg>
