<svg width="25" height="24" viewBox="0 0 25 24" fill="none" xmlns="http://www.w3.org/2000/svg">
<g id="Frame">
<path id="Vector" fill-rule="evenodd" clip-rule="evenodd" d="M6.74788 17.9393C6.5791 17.7705 6.48428 17.5416 6.48428 17.3029C6.48428 17.0642 6.5791 16.8353 6.74788 16.6665L15.7745 7.63986L8.88618 7.80786C8.76587 7.81373 8.64561 7.79538 8.53253 7.75391C8.41944 7.71244 8.31583 7.6487 8.22783 7.56645C8.13984 7.48421 8.06924 7.38514 8.02024 7.27511C7.97123 7.16508 7.94481 7.04634 7.94254 6.92591C7.94027 6.80548 7.96219 6.68582 8.00701 6.57403C8.05183 6.46223 8.11864 6.36056 8.20347 6.27506C8.2883 6.18955 8.38943 6.12194 8.50087 6.07624C8.61231 6.03054 8.73179 6.00767 8.85223 6.00898L17.9739 5.79685C18.0949 5.79463 18.215 5.81681 18.3272 5.86207C18.4394 5.90734 18.5413 5.97476 18.6269 6.0603C18.7124 6.14585 18.7798 6.24776 18.8251 6.35995C18.8704 6.47214 18.8925 6.59231 18.8903 6.71326L18.6782 15.8349C18.6795 15.9554 18.6566 16.0749 18.6109 16.1863C18.5652 16.2977 18.4976 16.3989 18.4121 16.4837C18.3266 16.5685 18.2249 16.6353 18.1131 16.6802C18.0014 16.725 17.8817 16.7469 17.7613 16.7446C17.6408 16.7424 17.5221 16.7159 17.4121 16.6669C17.302 16.6179 17.203 16.5473 17.1207 16.4593C17.0385 16.3713 16.9747 16.2677 16.9333 16.1546C16.8918 16.0416 16.8734 15.9213 16.8793 15.801L17.0473 8.91265L8.02068 17.9393C7.85189 18.1081 7.62297 18.2029 7.38428 18.2029C7.14559 18.2029 6.91667 18.1081 6.74788 17.9393Z" fill="white" fill-opacity="0.85"/>
</g>
</svg>
