<svg width="29" height="28" viewBox="0 0 29 28" fill="none" xmlns="http://www.w3.org/2000/svg">
<g id="ic:round-token">
<path id="Vector" d="M15.8192 2.96352C15.1192 2.56685 14.2559 2.56685 13.5559 2.96352L5.38919 7.50185L11.3042 10.7802C12.1559 9.89352 13.3575 9.33352 14.6875 9.33352C16.0175 9.33352 17.2192 9.89352 18.0709 10.7802L23.9859 7.49018L15.8192 2.96352ZM4.18752 9.49685L10.1725 12.8218C10.0675 13.1952 10.0209 13.5918 10.0209 14.0002C10.0209 16.1702 11.5025 18.0018 13.5209 18.5152V25.0135L5.38919 20.4985C5.02372 20.2978 4.71918 20.0022 4.50769 19.6429C4.2962 19.2835 4.18559 18.8738 4.18752 18.4568V9.49685ZM15.8542 25.0135V18.5152C17.8725 18.0018 19.3542 16.1702 19.3542 14.0002C19.3542 13.5918 19.3075 13.1952 19.2025 12.8218L25.1875 9.49685V18.4568C25.1875 19.3085 24.7325 20.0902 23.9859 20.4985L15.8542 25.0135Z" fill="white"/>
<path id="Vector_2" d="M14.6878 11.666C13.4045 11.666 12.3545 12.716 12.3545 13.9993C12.3545 15.2827 13.4045 16.3327 14.6878 16.3327C15.9712 16.3327 17.0212 15.2827 17.0212 13.9993C17.0212 12.716 15.9712 11.666 14.6878 11.666Z" fill="#FF5701"/>
</g>
</svg>
