<svg width="32" height="32" viewBox="0 0 32 32" fill="none" xmlns="http://www.w3.org/2000/svg">
<g id="pepicons-pop:expand">
<g id="Vector">
<path d="M25.3716 14.4957C24.7849 13.1104 23.932 11.867 22.8663 10.8433L21.9869 9.99672C21.957 9.96876 21.9211 9.94893 21.8822 9.93894C21.8433 9.92896 21.8027 9.92915 21.7639 9.93948C21.7251 9.94981 21.6894 9.96997 21.6597 9.99819C21.6301 10.0264 21.6075 10.0618 21.594 10.1013L21.2011 11.284C20.9564 12.0259 20.5061 12.7836 19.8684 13.5287C19.8261 13.5763 19.7778 13.589 19.7445 13.5921C19.7113 13.5953 19.6599 13.589 19.6146 13.5446C19.5723 13.5065 19.5511 13.4495 19.5541 13.3924C19.666 11.4837 19.122 9.3309 17.9313 6.98786C16.9461 5.04114 15.5771 3.52245 13.8667 2.46349L12.6186 1.69304C12.4554 1.59158 12.2468 1.72475 12.2559 1.92449L12.3224 3.44636C12.3677 4.4863 12.2529 5.40576 11.9809 6.16986C11.6485 7.10517 11.171 7.97391 10.5606 8.75386C10.1357 9.29591 9.65421 9.78619 9.12508 10.2155C7.85071 11.2433 6.81447 12.5602 6.09398 14.0677C5.37526 15.5883 5.00088 17.2625 5 18.9599C5 20.4564 5.28105 21.9053 5.8371 23.2718C6.37402 24.5875 7.14885 25.7815 8.11874 26.788C9.09788 27.8025 10.2342 28.6015 11.5004 29.1564C12.812 29.7334 14.2021 30.0251 15.6376 30.0251C17.073 30.0251 18.4632 29.7334 19.7747 29.1595C21.0379 28.6079 22.1865 27.8035 23.1564 26.7911C24.1355 25.7766 24.9031 24.5908 25.438 23.275C25.9933 21.9122 26.2781 20.4451 26.2751 18.963C26.2751 17.4158 25.9729 15.913 25.3716 14.4957Z" fill="#FDBF1C"/>
<path d="M25.3716 14.4957C24.7849 13.1104 23.932 11.867 22.8663 10.8433L21.9869 9.99672C21.957 9.96876 21.9211 9.94893 21.8822 9.93894C21.8433 9.92896 21.8027 9.92915 21.7639 9.93948C21.7251 9.94981 21.6894 9.96997 21.6597 9.99819C21.6301 10.0264 21.6075 10.0618 21.594 10.1013L21.2011 11.284C20.9564 12.0259 20.5061 12.7836 19.8684 13.5287C19.8261 13.5763 19.7778 13.589 19.7445 13.5921C19.7113 13.5953 19.6599 13.589 19.6146 13.5446C19.5723 13.5065 19.5511 13.4495 19.5541 13.3924C19.666 11.4837 19.122 9.3309 17.9313 6.98786C16.9461 5.04114 15.5771 3.52245 13.8667 2.46349L12.6186 1.69304C12.4554 1.59158 12.2468 1.72475 12.2559 1.92449L12.3224 3.44636C12.3677 4.4863 12.2529 5.40576 11.9809 6.16986C11.6485 7.10517 11.171 7.97391 10.5606 8.75386C10.1357 9.29591 9.65421 9.78619 9.12508 10.2155C7.85071 11.2433 6.81447 12.5602 6.09398 14.0677C5.37526 15.5883 5.00088 17.2625 5 18.9599C5 20.4564 5.28105 21.9053 5.8371 23.2718C6.37402 24.5875 7.14885 25.7815 8.11874 26.788C9.09788 27.8025 10.2342 28.6015 11.5004 29.1564C12.812 29.7334 14.2021 30.0251 15.6376 30.0251C17.073 30.0251 18.4632 29.7334 19.7747 29.1595C21.0379 28.6079 22.1865 27.8035 23.1564 26.7911C24.1355 25.7766 24.9031 24.5908 25.438 23.275C25.9933 21.9122 26.2781 20.4451 26.2751 18.963C26.2751 17.4158 25.9729 15.913 25.3716 14.4957Z" fill="white"/>
</g>
<g id="Vector_2">
<path d="M12.2973 24.5255C12.4903 24.0372 12.771 23.5988 13.1216 23.2379L13.4109 22.9395C13.4208 22.9297 13.4326 22.9227 13.4454 22.9192C13.4582 22.9156 13.4715 22.9157 13.4843 22.9193C13.4971 22.923 13.5088 22.9301 13.5186 22.94C13.5283 22.95 13.5358 22.9625 13.5402 22.9764L13.6695 23.3933C13.75 23.6548 13.8982 23.922 14.108 24.1846C14.1219 24.2014 14.1378 24.2059 14.1487 24.207C14.1597 24.2081 14.1766 24.2059 14.1915 24.1902C14.2054 24.1768 14.2124 24.1567 14.2114 24.1366C14.1746 23.4637 14.3536 22.7048 14.7453 21.8788C15.0695 21.1926 15.5199 20.6572 16.0827 20.2839L16.4933 20.0123C16.547 19.9765 16.6156 20.0235 16.6126 20.0939L16.5908 20.6304C16.5759 20.997 16.6136 21.3211 16.7031 21.5905C16.8125 21.9202 16.9696 22.2264 17.1705 22.5014C17.3102 22.6925 17.4687 22.8653 17.6428 23.0166C18.0621 23.379 18.403 23.8432 18.6401 24.3746C18.8765 24.9107 18.9997 25.5009 19 26.0992C19 26.6268 18.9075 27.1376 18.7246 27.6193C18.5479 28.0831 18.293 28.504 17.9739 28.8588C17.6517 29.2165 17.2778 29.4982 16.8612 29.6938C16.4297 29.8972 15.9723 30 15.5 30C15.0277 30 14.5703 29.8972 14.1388 29.6949C13.7232 29.5004 13.3453 29.2168 13.0261 28.86C12.704 28.5023 12.4514 28.0843 12.2754 27.6204C12.0928 27.14 11.999 26.6228 12 26.1004C12 25.5549 12.0994 25.0251 12.2973 24.5255Z" fill="#FDBF1C"/>
<path d="M12.2973 24.5255C12.4903 24.0372 12.771 23.5988 13.1216 23.2379L13.4109 22.9395C13.4208 22.9297 13.4326 22.9227 13.4454 22.9192C13.4582 22.9156 13.4715 22.9157 13.4843 22.9193C13.4971 22.923 13.5088 22.9301 13.5186 22.94C13.5283 22.95 13.5358 22.9625 13.5402 22.9764L13.6695 23.3933C13.75 23.6548 13.8982 23.922 14.108 24.1846C14.1219 24.2014 14.1378 24.2059 14.1487 24.207C14.1597 24.2081 14.1766 24.2059 14.1915 24.1902C14.2054 24.1768 14.2124 24.1567 14.2114 24.1366C14.1746 23.4637 14.3536 22.7048 14.7453 21.8788C15.0695 21.1926 15.5199 20.6572 16.0827 20.2839L16.4933 20.0123C16.547 19.9765 16.6156 20.0235 16.6126 20.0939L16.5908 20.6304C16.5759 20.997 16.6136 21.3211 16.7031 21.5905C16.8125 21.9202 16.9696 22.2264 17.1705 22.5014C17.3102 22.6925 17.4687 22.8653 17.6428 23.0166C18.0621 23.379 18.403 23.8432 18.6401 24.3746C18.8765 24.9107 18.9997 25.5009 19 26.0992C19 26.6268 18.9075 27.1376 18.7246 27.6193C18.5479 28.0831 18.293 28.504 17.9739 28.8588C17.6517 29.2165 17.2778 29.4982 16.8612 29.6938C16.4297 29.8972 15.9723 30 15.5 30C15.0277 30 14.5703 29.8972 14.1388 29.6949C13.7232 29.5004 13.3453 29.2168 13.0261 28.86C12.704 28.5023 12.4514 28.0843 12.2754 27.6204C12.0928 27.14 11.999 26.6228 12 26.1004C12 25.5549 12.0994 25.0251 12.2973 24.5255Z" fill="#FF5701"/>
</g>
</g>
</svg>
