<svg width="33" height="32" viewBox="0 0 33 32" fill="none" xmlns="http://www.w3.org/2000/svg">
<g id="pepicons-pop:expand">
<g id="Vector">
<path d="M26.0591 14.4957C25.4724 13.1104 24.6195 11.867 23.5538 10.8433L22.6744 9.99672C22.6445 9.96876 22.6086 9.94893 22.5697 9.93894C22.5308 9.92896 22.4902 9.92915 22.4514 9.93948C22.4126 9.94981 22.3769 9.96997 22.3472 9.99819C22.3176 10.0264 22.295 10.0618 22.2815 10.1013L21.8886 11.284C21.6439 12.0259 21.1936 12.7836 20.5559 13.5287C20.5136 13.5763 20.4653 13.589 20.432 13.5921C20.3988 13.5953 20.3474 13.589 20.3021 13.5446C20.2598 13.5065 20.2386 13.4495 20.2416 13.3924C20.3535 11.4837 19.8095 9.3309 18.6188 6.98786C17.6336 5.04114 16.2646 3.52245 14.5542 2.46349L13.3061 1.69304C13.1429 1.59158 12.9343 1.72475 12.9434 1.92449L13.0099 3.44636C13.0552 4.4863 12.9404 5.40576 12.6684 6.16986C12.336 7.10517 11.8585 7.97391 11.2481 8.75386C10.8232 9.29591 10.3417 9.78619 9.81258 10.2155C8.53821 11.2433 7.50197 12.5602 6.78148 14.0677C6.06276 15.5883 5.68838 17.2625 5.6875 18.9599C5.6875 20.4564 5.96855 21.9053 6.5246 23.2718C7.06152 24.5875 7.83635 25.7815 8.80624 26.788C9.78538 27.8025 10.9217 28.6015 12.1879 29.1564C13.4995 29.7334 14.8896 30.0251 16.3251 30.0251C17.7605 30.0251 19.1507 29.7334 20.4622 29.1595C21.7254 28.6079 22.874 27.8035 23.8439 26.7911C24.823 25.7766 25.5906 24.5908 26.1255 23.275C26.6808 21.9122 26.9656 20.4451 26.9626 18.963C26.9626 17.4158 26.6604 15.913 26.0591 14.4957Z" fill="#FDBF1C"/>
<path d="M26.0591 14.4957C25.4724 13.1104 24.6195 11.867 23.5538 10.8433L22.6744 9.99672C22.6445 9.96876 22.6086 9.94893 22.5697 9.93894C22.5308 9.92896 22.4902 9.92915 22.4514 9.93948C22.4126 9.94981 22.3769 9.96997 22.3472 9.99819C22.3176 10.0264 22.295 10.0618 22.2815 10.1013L21.8886 11.284C21.6439 12.0259 21.1936 12.7836 20.5559 13.5287C20.5136 13.5763 20.4653 13.589 20.432 13.5921C20.3988 13.5953 20.3474 13.589 20.3021 13.5446C20.2598 13.5065 20.2386 13.4495 20.2416 13.3924C20.3535 11.4837 19.8095 9.3309 18.6188 6.98786C17.6336 5.04114 16.2646 3.52245 14.5542 2.46349L13.3061 1.69304C13.1429 1.59158 12.9343 1.72475 12.9434 1.92449L13.0099 3.44636C13.0552 4.4863 12.9404 5.40576 12.6684 6.16986C12.336 7.10517 11.8585 7.97391 11.2481 8.75386C10.8232 9.29591 10.3417 9.78619 9.81258 10.2155C8.53821 11.2433 7.50197 12.5602 6.78148 14.0677C6.06276 15.5883 5.68838 17.2625 5.6875 18.9599C5.6875 20.4564 5.96855 21.9053 6.5246 23.2718C7.06152 24.5875 7.83635 25.7815 8.80624 26.788C9.78538 27.8025 10.9217 28.6015 12.1879 29.1564C13.4995 29.7334 14.8896 30.0251 16.3251 30.0251C17.7605 30.0251 19.1507 29.7334 20.4622 29.1595C21.7254 28.6079 22.874 27.8035 23.8439 26.7911C24.823 25.7766 25.5906 24.5908 26.1255 23.275C26.6808 21.9122 26.9656 20.4451 26.9626 18.963C26.9626 17.4158 26.6604 15.913 26.0591 14.4957Z" fill="white"/>
</g>
<g id="Vector_2">
<path d="M12.9848 24.5255C13.1778 24.0372 13.4585 23.5988 13.8091 23.2379L14.0984 22.9395C14.1083 22.9297 14.1201 22.9227 14.1329 22.9192C14.1457 22.9156 14.159 22.9157 14.1718 22.9193C14.1846 22.923 14.1963 22.9301 14.2061 22.94C14.2158 22.95 14.2233 22.9625 14.2277 22.9764L14.357 23.3933C14.4375 23.6548 14.5857 23.922 14.7955 24.1846C14.8094 24.2014 14.8253 24.2059 14.8362 24.207C14.8472 24.2081 14.8641 24.2059 14.879 24.1902C14.8929 24.1768 14.8999 24.1567 14.8989 24.1366C14.8621 23.4637 15.0411 22.7048 15.4328 21.8788C15.757 21.1926 16.2074 20.6572 16.7702 20.2839L17.1808 20.0123C17.2345 19.9765 17.3031 20.0235 17.3001 20.0939L17.2783 20.6304C17.2634 20.997 17.3011 21.3211 17.3906 21.5905C17.5 21.9202 17.6571 22.2264 17.858 22.5014C17.9977 22.6925 18.1562 22.8653 18.3303 23.0166C18.7496 23.379 19.0905 23.8432 19.3276 24.3746C19.564 24.9107 19.6872 25.5009 19.6875 26.0992C19.6875 26.6268 19.595 27.1376 19.4121 27.6193C19.2354 28.0831 18.9805 28.504 18.6614 28.8588C18.3392 29.2165 17.9653 29.4982 17.5487 29.6938C17.1172 29.8972 16.6598 30 16.1875 30C15.7152 30 15.2578 29.8972 14.8263 29.6949C14.4107 29.5004 14.0328 29.2168 13.7136 28.86C13.3915 28.5023 13.1389 28.0843 12.9629 27.6204C12.7803 27.14 12.6865 26.6228 12.6875 26.1004C12.6875 25.5549 12.7869 25.0251 12.9848 24.5255Z" fill="#FDBF1C"/>
<path d="M12.9848 24.5255C13.1778 24.0372 13.4585 23.5988 13.8091 23.2379L14.0984 22.9395C14.1083 22.9297 14.1201 22.9227 14.1329 22.9192C14.1457 22.9156 14.159 22.9157 14.1718 22.9193C14.1846 22.923 14.1963 22.9301 14.2061 22.94C14.2158 22.95 14.2233 22.9625 14.2277 22.9764L14.357 23.3933C14.4375 23.6548 14.5857 23.922 14.7955 24.1846C14.8094 24.2014 14.8253 24.2059 14.8362 24.207C14.8472 24.2081 14.8641 24.2059 14.879 24.1902C14.8929 24.1768 14.8999 24.1567 14.8989 24.1366C14.8621 23.4637 15.0411 22.7048 15.4328 21.8788C15.757 21.1926 16.2074 20.6572 16.7702 20.2839L17.1808 20.0123C17.2345 19.9765 17.3031 20.0235 17.3001 20.0939L17.2783 20.6304C17.2634 20.997 17.3011 21.3211 17.3906 21.5905C17.5 21.9202 17.6571 22.2264 17.858 22.5014C17.9977 22.6925 18.1562 22.8653 18.3303 23.0166C18.7496 23.379 19.0905 23.8432 19.3276 24.3746C19.564 24.9107 19.6872 25.5009 19.6875 26.0992C19.6875 26.6268 19.595 27.1376 19.4121 27.6193C19.2354 28.0831 18.9805 28.504 18.6614 28.8588C18.3392 29.2165 17.9653 29.4982 17.5487 29.6938C17.1172 29.8972 16.6598 30 16.1875 30C15.7152 30 15.2578 29.8972 14.8263 29.6949C14.4107 29.5004 14.0328 29.2168 13.7136 28.86C13.3915 28.5023 13.1389 28.0843 12.9629 27.6204C12.7803 27.14 12.6865 26.6228 12.6875 26.1004C12.6875 25.5549 12.7869 25.0251 12.9848 24.5255Z" fill="#FF5701"/>
</g>
</g>
</svg>
