<svg width="33" height="32" viewBox="0 0 33 32" fill="none" xmlns="http://www.w3.org/2000/svg">
<g id="lets-icons:check-ring-round">
<g id="Group">
<path id="Vector" d="M16.6876 28C19.4639 28 22.1543 27.0373 24.3003 25.2761C26.4464 23.5148 27.9154 21.0639 28.457 18.341C28.9986 15.6181 28.5793 12.7916 27.2705 10.3432C25.9618 7.89473 23.8446 5.97583 21.2796 4.91341C18.7147 3.851 15.8607 3.71082 13.204 4.51674C10.5473 5.32267 8.25223 7.02484 6.70984 9.33323C5.16745 11.6416 4.47317 14.4134 4.74531 17.1763C5.01745 19.9392 6.23916 22.5222 8.20229 24.4853" stroke="#FE9C0F" stroke-width="3" stroke-linecap="round"/>
<path id="Vector_2" d="M22.0212 13.334L17.2238 19.0913C16.3505 20.1393 15.9132 20.6647 15.3252 20.6913C14.7385 20.718 14.2545 20.234 13.2892 19.2687L11.3545 17.334" stroke="white" stroke-width="3" stroke-linecap="round"/>
</g>
</g>
</svg>
