<svg width="32" height="24" viewBox="0 0 32 24" fill="none" xmlns="http://www.w3.org/2000/svg">
<g id="Frame 1948759683">
<g id="Group 2">
<path id="Vector" d="M13.4094 18.9839L13.4472 19.0026L13.4893 19L31.0859 17.9357L29.5213 20.7488L11.7648 21.8227L1.21935 16.6066L2.81243 13.7423L13.4094 18.9839ZM16.6923 6.92559L16.1235 4.23645L17.6438 1.41231L19.701 8.28084L16.6923 6.92559ZM14.1314 12.7304L7.37589 13.1949L2.18894 10.6667L3.79315 7.78463L14.1314 12.7304Z" fill="#2C3034" stroke="#FDBF1E" stroke-width="0.316981"/>
<path id="Vector_2" d="M31.3687 17.7603L13.4885 18.8422L2.66406 13.5211L14.3854 12.8144L3.72993 7.57728L8.96244 3.16189L19.8168 8.48044L17.6886 1L28.0606 6.06758L31.3687 17.7603Z" fill="#FDBF1C"/>
</g>
</g>
</svg>
