<svg width="58" height="25" viewBox="0 0 58 25" fill="none" xmlns="http://www.w3.org/2000/svg">
<g id="Group 1948757620">
<g id="Vector">
<path d="M5.80837 24.4922L4.80957 7.48147L8.99827 7.23553L9.39186 13.9389L16.6945 13.5101L16.3009 6.80675L20.4896 6.56081L21.4884 23.5715L17.2997 23.8175L16.8746 16.5768L9.57193 17.0056L9.99706 24.2462L5.80837 24.4922Z" fill="url(#paint0_linear_185_188)"/>
<path d="M57.5665 4.38379L57.7466 7.45051L52.3301 7.76854L53.1489 21.7125L49.2398 21.9421L48.421 7.99807L42.979 8.3176L42.7989 5.25088L57.5665 4.38379Z" fill="url(#paint1_linear_185_188)"/>
<path d="M33.5564 23.2476C30.1725 23.4463 27.4845 22.5491 25.7094 20.7746C24.2913 19.357 23.4558 17.3796 23.3133 14.9537C22.9898 9.44319 26.4254 5.82759 32.5125 5.47018C35.8969 5.27147 38.5938 6.16839 40.3771 7.9511C41.8013 9.37483 42.6429 11.3635 42.7865 13.8103C43.1073 19.2729 39.6435 22.8902 33.5564 23.2476ZM27.7378 14.6939C27.8431 16.4869 28.4054 17.8917 29.346 18.8327C30.316 19.8029 31.6881 20.28 33.3763 20.1808C36.758 19.9823 38.5759 17.7118 38.3621 14.0701C38.2556 12.2563 37.6944 10.8341 36.7448 9.88418C35.7753 8.91426 34.4011 8.43659 32.6926 8.5369C29.3672 8.73215 27.5226 11.0282 27.7378 14.6939Z" fill="url(#paint2_linear_185_188)"/>
</g>
<path id="1 2" d="M4.99827 3.23535L0.80957 3.48129L4.80957 7.48129L8.99827 7.23535L4.99827 3.23535Z" fill="url(#paint3_linear_185_188)"/>
<path id="2 3" d="M5.39164 9.93773L4.99805 3.23438L8.99805 7.23438L9.39164 13.9377L5.39164 9.93773Z" fill="url(#paint4_linear_185_188)"/>
<path id="0 1" d="M0.80957 3.48145L1.80837 20.4921L5.80837 24.4921L4.80957 7.48145L0.80957 3.48145Z" fill="url(#paint5_linear_185_188)"/>
<path id="5 6" d="M16.4895 2.56055L12.3008 2.80649L16.3008 6.80649L20.4895 6.56055L16.4895 2.56055Z" fill="url(#paint6_linear_185_188)"/>
<path id="4 5" d="M12.3008 2.80664L12.6944 9.50999L16.6944 13.51L16.3008 6.80664L12.3008 2.80664Z" fill="url(#paint7_linear_185_188)"/>
<path id="3 4" d="M12.6943 9.50977L5.3916 9.93855L9.3916 13.9385L16.6943 13.5098L12.6943 9.50977Z" fill="url(#paint8_linear_185_188)"/>
<path id="9 10" d="M5.57227 13.005L12.8749 12.5762L16.8749 16.5762L9.57227 17.005L5.57227 13.005Z" fill="url(#paint9_linear_185_188)"/>
<path id="10 11" d="M5.99741 20.2465L5.57227 13.0059L9.57227 17.0059L9.99741 24.2465L5.99741 20.2465Z" fill="url(#paint10_linear_185_188)"/>
<path id="11 0" d="M1.80859 20.492L5.99729 20.2461L9.99729 24.2461L5.80859 24.492L1.80859 20.492Z" fill="url(#paint11_linear_185_188)"/>
<path id="6 7" d="M17.4881 19.5713L16.4893 2.56055L20.4893 6.56055L21.4881 23.5713L17.4881 19.5713Z" fill="url(#paint12_linear_185_188)"/>
<path id="8 9" d="M12.875 12.5762L13.3001 19.8168L17.3001 23.8168L16.875 16.5762L12.875 12.5762Z" fill="url(#paint13_linear_185_188)"/>
<path id="21 22" d="M28.5131 1.46973C22.426 1.82714 18.9904 5.44273 19.3139 10.9532L23.3139 14.9532C22.9904 9.44273 26.426 5.82714 32.5131 5.46973L28.5131 1.46973Z" fill="url(#paint14_linear_185_188)"/>
<path id="27 24" d="M23.7377 10.6941C23.5224 7.02843 25.3671 4.73236 28.6925 4.53711L32.6925 8.53711C29.3671 8.73236 27.5224 11.0284 27.7377 14.6941L23.7377 10.6941Z" fill="url(#paint15_linear_185_188)"/>
<path id="28 21" d="M19.3135 10.9531C19.4559 13.379 20.2914 15.3564 21.7095 16.774L25.7076 20.7721C24.2907 19.3547 23.4559 17.3779 23.3135 14.9531L19.3135 10.9531Z" fill="url(#paint16_linear_185_188)"/>
<path id="7 8" d="M13.2998 19.8172L17.4885 19.5713L21.4885 23.5713L17.2998 23.8172L13.2998 19.8172Z" fill="url(#paint17_linear_185_188)"/>
<path id="22 29" d="M36.3773 3.95049C34.5939 2.16778 31.897 1.27086 28.5127 1.46957L32.5127 5.46957C35.897 5.27086 38.5939 6.16778 40.3773 7.95049L36.3773 3.95049Z" fill="url(#paint18_linear_185_188)"/>
<path id="31 27" d="M28.6924 4.53655C30.4008 4.43624 31.7751 4.91391 32.7446 5.88383L36.7432 9.88244C35.7738 8.91346 34.4 8.43629 32.6924 8.53655L28.6924 4.53655Z" fill="url(#paint19_linear_185_188)"/>
<path id="24 30" d="M25.3465 14.8321C24.4059 13.8912 23.8436 12.4863 23.7383 10.6934L27.7383 14.6934C27.8436 16.4863 28.4059 17.8912 29.3465 18.8321L25.3465 14.8321Z" fill="url(#paint20_linear_185_188)"/>
<path id="26 31" d="M32.7451 5.88379C33.6947 6.83375 34.2559 8.25591 34.3624 10.0697L38.3624 14.0697C38.2559 12.2559 37.6947 10.8338 36.7451 9.88379L32.7451 5.88379Z" fill="url(#paint21_linear_185_188)"/>
<path id="18 19" d="M38.7988 1.25L38.9789 4.31672L42.9789 8.31672L42.7988 5.25L38.7988 1.25Z" fill="url(#paint22_linear_185_188)"/>
<path id="30 25" d="M29.376 16.1802C27.6884 16.2793 26.3166 15.8026 25.3467 14.8331L29.3457 18.832C30.3156 19.8023 31.6878 20.2793 33.376 20.1802L29.376 16.1802Z" fill="url(#paint23_linear_185_188)"/>
<path id="20 28" d="M21.709 16.7734C23.4841 18.5479 26.1721 19.4451 29.556 19.2464L33.556 23.2464C30.1721 23.4451 27.4841 22.5479 25.709 20.7734L21.709 16.7734Z" fill="url(#paint24_linear_185_188)"/>
<path id="29 23" d="M38.7864 9.81038C38.6428 7.36466 37.8019 5.37663 36.3788 3.95303L40.377 7.95117C41.8012 9.3749 42.6427 11.3636 42.7864 13.8104L38.7864 9.81038Z" fill="url(#paint25_linear_185_188)"/>
<path id="25 26" d="M34.3618 10.0703C34.5756 13.712 32.7577 15.9825 29.376 16.1811L33.376 20.1811C36.7577 19.9825 38.5756 17.712 38.3618 14.0703L34.3618 10.0703Z" fill="url(#paint26_linear_185_188)"/>
<path id="17 18" d="M38.9785 4.31758L44.4206 3.99805L48.4206 7.99805L42.9785 8.31758L38.9785 4.31758Z" fill="url(#paint27_linear_185_188)"/>
<path id="19 12" d="M53.5664 0.383789L38.7988 1.25088L42.7988 5.25088L57.5664 4.38379L53.5664 0.383789Z" fill="url(#paint28_linear_185_188)"/>
<path id="23 20" d="M29.5566 19.2478C35.6438 18.8904 39.1076 15.2731 38.7868 9.81055L42.7868 13.8105C43.1076 19.2731 39.6438 22.8904 33.5566 23.2478L29.5566 19.2478Z" fill="url(#paint29_linear_185_188)"/>
<path id="13 14" d="M48.3301 3.76823L53.7466 3.4502L57.7466 7.4502L52.3301 7.76823L48.3301 3.76823Z" fill="url(#paint30_linear_185_188)"/>
<path id="12 13" d="M53.7465 3.44953L53.5664 0.382812L57.5664 4.38281L57.7465 7.44953L53.7465 3.44953Z" fill="url(#paint31_linear_185_188)"/>
<path id="16 17" d="M44.4209 3.99805L45.2396 17.942L49.2396 21.942L48.4209 7.99805L44.4209 3.99805Z" fill="url(#paint32_linear_185_188)"/>
<path id="14 15" d="M49.1488 17.7125L48.3301 3.76855L52.3301 7.76855L53.1488 21.7125L49.1488 17.7125Z" fill="url(#paint33_linear_185_188)"/>
<path id="15 16" d="M45.2402 17.9414L49.1493 17.7119L53.1493 21.7119L49.2402 21.9414L45.2402 17.9414Z" fill="url(#paint34_linear_185_188)"/>
<g id="Group 1948757618">
<path id="HOT" d="M1.80837 20.4921L0.80957 3.48145L4.99827 3.2355L5.39186 9.93885L12.6945 9.51007L12.3009 2.80672L16.4896 2.56078L17.4884 19.5715L13.2997 19.8174L12.8746 12.5768L5.57193 13.0056L5.99706 20.2462L1.80837 20.4921Z" fill="white"/>
<path id="HOT_2" d="M53.5664 0.382909L53.7465 3.44963L48.33 3.76766L49.1487 17.7116L45.2397 17.9412L44.4209 3.99719L38.9789 4.31672L38.7988 1.25L53.5664 0.382909Z" fill="white"/>
<path id="HOT_3" d="M29.5564 19.2475C23.4692 19.6049 19.6341 16.4163 19.3134 10.9537C18.9898 5.44316 22.4254 1.82756 28.5125 1.47015C34.5997 1.11274 38.463 4.29977 38.7866 9.81028C39.1073 15.2729 35.6435 18.8901 29.5564 19.2475ZM23.7378 10.6939C23.9516 14.3356 26.0509 16.3761 29.3763 16.1808C32.758 15.9823 34.5759 13.7118 34.3621 10.0701C34.1469 6.40438 32.0744 4.33831 28.6926 4.53687C25.3672 4.73212 23.5226 7.02819 23.7378 10.6939Z" fill="white"/>
</g>
</g>
<defs>
<linearGradient id="paint0_linear_185_188" x1="4.80957" y1="14.438" x2="57.7466" y2="14.438" gradientUnits="userSpaceOnUse">
<stop stop-color="#FFC000"/>
<stop offset="1" stop-color="#FF5300"/>
</linearGradient>
<linearGradient id="paint1_linear_185_188" x1="4.80957" y1="14.438" x2="57.7466" y2="14.438" gradientUnits="userSpaceOnUse">
<stop stop-color="#FFC000"/>
<stop offset="1" stop-color="#FF5300"/>
</linearGradient>
<linearGradient id="paint2_linear_185_188" x1="4.80957" y1="14.438" x2="57.7466" y2="14.438" gradientUnits="userSpaceOnUse">
<stop stop-color="#FFC000"/>
<stop offset="1" stop-color="#FF5300"/>
</linearGradient>
<linearGradient id="paint3_linear_185_188" x1="0.80957" y1="5.35832" x2="8.99827" y2="5.35832" gradientUnits="userSpaceOnUse">
<stop stop-color="#FFC000"/>
<stop offset="1" stop-color="#FF5300"/>
</linearGradient>
<linearGradient id="paint4_linear_185_188" x1="4.99805" y1="8.58605" x2="9.39164" y2="8.58605" gradientUnits="userSpaceOnUse">
<stop stop-color="#FFC000"/>
<stop offset="1" stop-color="#FF5300"/>
</linearGradient>
<linearGradient id="paint5_linear_185_188" x1="0.80957" y1="13.9868" x2="5.80837" y2="13.9868" gradientUnits="userSpaceOnUse">
<stop stop-color="#FFC000"/>
<stop offset="1" stop-color="#FF5300"/>
</linearGradient>
<linearGradient id="paint6_linear_185_188" x1="12.3008" y1="4.68352" x2="20.4895" y2="4.68352" gradientUnits="userSpaceOnUse">
<stop stop-color="#FFC000"/>
<stop offset="1" stop-color="#FF5300"/>
</linearGradient>
<linearGradient id="paint7_linear_185_188" x1="12.3008" y1="8.15832" x2="16.6944" y2="8.15832" gradientUnits="userSpaceOnUse">
<stop stop-color="#FFC000"/>
<stop offset="1" stop-color="#FF5300"/>
</linearGradient>
<linearGradient id="paint8_linear_185_188" x1="5.3916" y1="11.7242" x2="16.6943" y2="11.7242" gradientUnits="userSpaceOnUse">
<stop stop-color="#FFC000"/>
<stop offset="1" stop-color="#FF5300"/>
</linearGradient>
<linearGradient id="paint9_linear_185_188" x1="5.57227" y1="14.7906" x2="16.8749" y2="14.7906" gradientUnits="userSpaceOnUse">
<stop stop-color="#FFC000"/>
<stop offset="1" stop-color="#FF5300"/>
</linearGradient>
<linearGradient id="paint10_linear_185_188" x1="5.57227" y1="18.6262" x2="9.99741" y2="18.6262" gradientUnits="userSpaceOnUse">
<stop stop-color="#FFC000"/>
<stop offset="1" stop-color="#FF5300"/>
</linearGradient>
<linearGradient id="paint11_linear_185_188" x1="1.80859" y1="22.3691" x2="9.99729" y2="22.3691" gradientUnits="userSpaceOnUse">
<stop stop-color="#FFC000"/>
<stop offset="1" stop-color="#FF5300"/>
</linearGradient>
<linearGradient id="paint12_linear_185_188" x1="16.4893" y1="13.0659" x2="21.4881" y2="13.0659" gradientUnits="userSpaceOnUse">
<stop stop-color="#FFC000"/>
<stop offset="1" stop-color="#FF5300"/>
</linearGradient>
<linearGradient id="paint13_linear_185_188" x1="12.875" y1="18.1965" x2="17.3001" y2="18.1965" gradientUnits="userSpaceOnUse">
<stop stop-color="#FFC000"/>
<stop offset="1" stop-color="#FF5300"/>
</linearGradient>
<linearGradient id="paint14_linear_185_188" x1="19.293" y1="8.21148" x2="32.5131" y2="8.21148" gradientUnits="userSpaceOnUse">
<stop stop-color="#FFC000"/>
<stop offset="1" stop-color="#FF5300"/>
</linearGradient>
<linearGradient id="paint15_linear_185_188" x1="23.7207" y1="9.61562" x2="32.6925" y2="9.61562" gradientUnits="userSpaceOnUse">
<stop stop-color="#FFC000"/>
<stop offset="1" stop-color="#FF5300"/>
</linearGradient>
<linearGradient id="paint16_linear_185_188" x1="19.3135" y1="15.8636" x2="25.7095" y2="15.8636" gradientUnits="userSpaceOnUse">
<stop stop-color="#FFC000"/>
<stop offset="1" stop-color="#FF5300"/>
</linearGradient>
<linearGradient id="paint17_linear_185_188" x1="13.2998" y1="21.6943" x2="21.4885" y2="21.6943" gradientUnits="userSpaceOnUse">
<stop stop-color="#FFC000"/>
<stop offset="1" stop-color="#FF5300"/>
</linearGradient>
<linearGradient id="paint18_linear_185_188" x1="28.5127" y1="4.69644" x2="40.3773" y2="4.69644" gradientUnits="userSpaceOnUse">
<stop stop-color="#FFC000"/>
<stop offset="1" stop-color="#FF5300"/>
</linearGradient>
<linearGradient id="paint19_linear_185_188" x1="28.6924" y1="7.20363" x2="36.7446" y2="7.20363" gradientUnits="userSpaceOnUse">
<stop stop-color="#FFC000"/>
<stop offset="1" stop-color="#FF5300"/>
</linearGradient>
<linearGradient id="paint20_linear_185_188" x1="23.7383" y1="14.7627" x2="29.3465" y2="14.7627" gradientUnits="userSpaceOnUse">
<stop stop-color="#FFC000"/>
<stop offset="1" stop-color="#FF5300"/>
</linearGradient>
<linearGradient id="paint21_linear_185_188" x1="32.7451" y1="9.97675" x2="38.3624" y2="9.97675" gradientUnits="userSpaceOnUse">
<stop stop-color="#FFC000"/>
<stop offset="1" stop-color="#FF5300"/>
</linearGradient>
<linearGradient id="paint22_linear_185_188" x1="38.7988" y1="4.78336" x2="42.9789" y2="4.78336" gradientUnits="userSpaceOnUse">
<stop stop-color="#FFC000"/>
<stop offset="1" stop-color="#FF5300"/>
</linearGradient>
<linearGradient id="paint23_linear_185_188" x1="25.3457" y1="17.5125" x2="33.376" y2="17.5125" gradientUnits="userSpaceOnUse">
<stop stop-color="#FFC000"/>
<stop offset="1" stop-color="#FF5300"/>
</linearGradient>
<linearGradient id="paint24_linear_185_188" x1="21.709" y1="20.0235" x2="33.556" y2="20.0235" gradientUnits="userSpaceOnUse">
<stop stop-color="#FFC000"/>
<stop offset="1" stop-color="#FF5300"/>
</linearGradient>
<linearGradient id="paint25_linear_185_188" x1="36.377" y1="8.88078" x2="42.7864" y2="8.88078" gradientUnits="userSpaceOnUse">
<stop stop-color="#FFC000"/>
<stop offset="1" stop-color="#FF5300"/>
</linearGradient>
<linearGradient id="paint26_linear_185_188" x1="29.376" y1="15.1257" x2="38.3787" y2="15.1257" gradientUnits="userSpaceOnUse">
<stop stop-color="#FFC000"/>
<stop offset="1" stop-color="#FF5300"/>
</linearGradient>
<linearGradient id="paint27_linear_185_188" x1="38.9785" y1="6.15781" x2="48.4206" y2="6.15781" gradientUnits="userSpaceOnUse">
<stop stop-color="#FFC000"/>
<stop offset="1" stop-color="#FF5300"/>
</linearGradient>
<linearGradient id="paint28_linear_185_188" x1="38.7988" y1="2.81733" x2="57.5664" y2="2.81733" gradientUnits="userSpaceOnUse">
<stop stop-color="#FFC000"/>
<stop offset="1" stop-color="#FF5300"/>
</linearGradient>
<linearGradient id="paint29_linear_185_188" x1="29.5566" y1="16.5292" x2="42.8073" y2="16.5292" gradientUnits="userSpaceOnUse">
<stop stop-color="#FFC000"/>
<stop offset="1" stop-color="#FF5300"/>
</linearGradient>
<linearGradient id="paint30_linear_185_188" x1="48.3301" y1="5.60921" x2="57.7466" y2="5.60921" gradientUnits="userSpaceOnUse">
<stop stop-color="#FFC000"/>
<stop offset="1" stop-color="#FF5300"/>
</linearGradient>
<linearGradient id="paint31_linear_185_188" x1="53.5664" y1="3.91617" x2="57.7465" y2="3.91617" gradientUnits="userSpaceOnUse">
<stop stop-color="#FFC000"/>
<stop offset="1" stop-color="#FF5300"/>
</linearGradient>
<linearGradient id="paint32_linear_185_188" x1="44.4209" y1="12.97" x2="49.2396" y2="12.97" gradientUnits="userSpaceOnUse">
<stop stop-color="#FFC000"/>
<stop offset="1" stop-color="#FF5300"/>
</linearGradient>
<linearGradient id="paint33_linear_185_188" x1="48.3301" y1="12.7405" x2="53.1488" y2="12.7405" gradientUnits="userSpaceOnUse">
<stop stop-color="#FFC000"/>
<stop offset="1" stop-color="#FF5300"/>
</linearGradient>
<linearGradient id="paint34_linear_185_188" x1="45.2402" y1="19.8267" x2="53.1493" y2="19.8267" gradientUnits="userSpaceOnUse">
<stop stop-color="#FFC000"/>
<stop offset="1" stop-color="#FF5300"/>
</linearGradient>
</defs>
</svg>
