<svg width="121" height="53" viewBox="0 0 121 53" fill="none" xmlns="http://www.w3.org/2000/svg">
<g clip-path="url(#clip0_185_494)">
<path fill-rule="evenodd" clip-rule="evenodd" d="M21.5567 51.1379C22.6846 51.8537 23.791 52.0438 24.8391 52.0438C25.4558 52.0438 26.0521 51.978 26.6208 51.9153L26.6513 51.9119C27.7974 51.7856 28.9856 51.658 30.6415 51.92C31.6301 52.0809 32.6441 51.9337 33.5461 51.4985C34.5097 51.0353 35.2826 50.2522 35.7331 49.2826C35.952 48.806 36.106 48.4525 36.2317 48.1368C36.3437 47.8556 36.4058 47.5574 36.4154 47.2553C36.4177 47.1859 36.4497 47.1202 36.505 47.078C37.2275 46.5242 37.8904 45.8008 38.4796 44.9212C39.0795 44.0258 39.629 42.9299 40.122 41.6463C40.1871 41.4767 40.3495 41.3634 40.5312 41.3634H41.8808C42.1208 41.3634 42.3119 41.5591 42.3505 41.7956C42.4393 42.3382 42.6919 42.8578 43.0784 43.2446C43.5672 43.7333 44.23 44.0079 44.921 44.0079H50.6082C51.2992 44.0079 51.962 43.7333 52.4508 43.2446C52.8374 42.8578 53.0899 42.3382 53.1787 41.7956C53.2173 41.5591 53.4084 41.3634 53.6484 41.3634H56.0702C56.31 41.3634 56.5011 41.5591 56.54 41.7956C56.6285 42.3382 56.8811 42.8578 57.2679 43.2446C57.7564 43.7333 58.4192 44.0079 59.1104 44.0079H64.7972C65.3319 44.0079 65.8535 43.8436 66.2914 43.5373C66.6462 43.2892 66.9323 42.9577 67.1256 42.5737C67.1926 42.4408 67.3664 42.3923 67.4855 42.4817C68.0365 42.8958 68.6345 43.2444 69.267 43.52C70.6825 44.1459 72.3382 44.4634 74.1878 44.4634C75.9051 44.4634 77.4699 44.1788 78.8551 43.6169C78.9225 43.5893 78.9988 43.5972 79.0611 43.6348C79.466 43.8795 79.9309 44.009 80.4056 44.0081C81.0853 44.0081 81.7651 44.0081 82.445 44.0083C83.731 44.0086 85.0172 44.009 86.3034 44.0081C86.4235 44.0081 86.5208 44.1054 86.5208 44.2253V49.4372C86.5208 50.1284 86.7953 50.7913 87.2839 51.28C87.7726 51.7688 88.4354 52.0431 89.1266 52.0431H94.8126C95.5038 52.0431 96.1666 51.7688 96.6552 51.28C97.1439 50.7913 97.4185 50.1284 97.4185 49.4372V43.6243C97.4185 43.5172 97.4966 43.4262 97.6024 43.4097L101.313 42.8348L101.578 42.7945L101.588 42.7928C104.528 42.3439 107.461 41.7758 109.654 39.6975C109.798 39.5616 110.039 39.6598 110.033 39.8571C110.031 39.9032 110.03 39.9495 110.028 39.9958C109.99 41.1516 109.949 42.3868 110.807 43.245C111.296 43.7338 111.959 44.0083 112.65 44.0083H118.335C119.026 44.0083 119.689 43.7338 120.178 43.245C120.666 42.7565 120.941 42.0937 120.941 41.4025V20.7018C120.941 20.0107 120.666 19.3479 120.178 18.8592C119.689 18.3705 119.026 18.0959 118.335 18.0959H112.648C111.957 18.0959 111.294 18.3705 110.805 18.8592C110.165 19.4998 110.061 20.2773 110.045 21.0982C110.041 21.2956 109.797 21.3935 109.655 21.2563C107.331 19.0127 104.121 18.0905 100.915 18.0905H89.1249C88.4339 18.0905 87.7711 18.3651 87.2824 18.8538C86.4476 19.6884 86.4717 20.8634 86.5048 21.9802C86.5112 22.1922 86.2383 22.2838 86.1043 22.1192C83.8114 19.3051 80.1673 18.0948 76.5754 18.0948H69.2192C68.528 18.0948 67.8652 18.3694 67.3764 18.8581C66.8877 19.3468 66.6134 20.0096 66.6134 20.7008V22.1242C66.6134 22.6052 65.7856 22.8026 65.5062 22.4111C64.5472 21.0677 63.2448 19.9579 61.7882 19.2157C60.6908 18.6562 59.452 18.3457 57.769 18.208C56.5788 18.111 55.2139 18.0962 53.4298 18.0952C53.3099 18.0951 53.2124 17.9979 53.2124 17.878V12.7009C53.2124 12.0098 52.9378 11.3469 52.4491 10.8583C51.9606 10.3696 51.2977 10.095 50.6065 10.095H44.9195C44.2283 10.095 43.5655 10.3696 43.0767 10.8583C42.588 11.3469 42.3134 12.0098 42.3134 12.7009V17.6613C42.3134 17.9012 42.1191 18.0956 41.8793 18.0956H40.1425C39.961 18.0956 39.7989 17.9822 39.7327 17.813C39.5778 17.4178 39.4178 17.058 39.2508 16.7286C39.0089 16.242 38.7147 15.7832 38.3738 15.36C38.3731 15.3593 38.3725 15.3586 38.3719 15.3579C38.3712 15.3571 38.3708 15.3564 38.3702 15.3557C37.8153 14.6822 37.1603 14.1958 36.4275 13.9102C36.4158 13.9056 36.4041 13.9011 36.3926 13.8965C36.3789 13.8912 36.3655 13.8859 36.3518 13.8807C36.2486 13.8403 36.1914 13.7289 36.2198 13.6216C36.5208 12.4871 36.7996 11.4418 37.069 10.4406C37.1674 10.0761 37.1849 9.69516 37.1213 9.32401C37.11 9.25757 37.1271 9.18912 37.1695 9.13678C37.193 9.10769 37.2164 9.07837 37.2393 9.04885C37.4496 8.7777 37.6043 8.46777 37.6945 8.13679C37.981 7.08629 38.2562 6.09169 38.5122 5.18071C38.9427 3.64866 38.2345 2.03951 36.7919 1.26833C35.3496 0.497147 33.6237 0.797644 32.5963 1.99799C31.6354 3.11906 30.6505 4.33006 29.6538 5.6155C29.5921 5.69501 29.4684 5.68499 29.414 5.60036C29.1145 5.13382 28.6842 4.76567 28.1771 4.54171C27.177 4.10007 26.0369 4.26837 25.1955 4.98201C24.6759 5.42338 24.1129 6.03116 23.5219 6.78931C22.9474 7.52721 22.4414 8.26329 22.0043 8.99759C21.8916 9.18656 21.5923 9.1163 21.5818 8.89664C21.526 7.73363 21.4887 6.89077 21.4766 6.61476V6.61205C21.4573 6.09851 21.2991 5.59982 21.0189 5.16902C20.7387 4.73821 20.347 4.39142 19.8854 4.1655C19.4238 3.93958 18.9096 3.84298 18.3975 3.88599C17.8854 3.92902 17.3945 4.11003 16.9771 4.40979L16.9698 4.41523C16.3636 4.85117 15.701 5.47142 15.0004 6.25862C13.2032 8.28038 11.9874 10.3143 11.3902 12.3043C11.3274 12.5174 11.2761 12.7337 11.2363 12.9522C11.2211 13.0356 11.1604 13.104 11.0788 13.1272C9.03294 13.7089 7.28536 14.398 5.86539 15.1836C3.27578 16.6165 1.65144 18.4333 1.03769 20.5818C0.47471 22.5496 0.324328 24.7266 0.603376 26.8775C0.661823 27.3278 0.83696 27.7545 1.11049 28.1152C1.15501 28.1739 1.17057 28.25 1.14951 28.3207C1.04602 28.6675 0.962643 29.02 0.899797 29.3764C0.895454 29.4003 0.891654 29.4242 0.887853 29.4483C0.694178 30.7684 0.709476 32.1105 0.933186 33.4257C1.16106 34.7793 1.59556 36.0898 2.22148 37.3114C2.47768 37.8125 2.88886 38.2161 3.39241 38.4632C3.44992 38.4913 3.49402 38.5415 3.51307 38.6025C3.69901 39.2 4.01517 39.8407 4.51548 40.5084C5.04915 41.2211 5.82739 41.8718 6.96747 42.5555C8.87928 43.7024 11.0832 44.4484 13.521 44.7742C15.1388 44.989 16.8538 45.0065 18.423 44.828C18.545 44.8141 18.6551 44.9031 18.668 45.0251C18.992 48.1063 19.9413 50.1116 21.5567 51.1379ZM34.5739 3.69292C35.0838 3.09738 36.2238 3.68778 36.0026 4.47498C35.7374 5.41853 35.4582 6.42939 35.1795 7.45085C34.6983 8.07112 33.8449 8.53448 32.7849 8.82058C31.9588 9.03776 31.1074 9.14385 30.2532 9.136C31.5183 7.4305 32.9959 5.53444 34.5739 3.69292ZM29.2066 10.5649C28.5481 11.4783 27.9716 12.3038 27.4989 12.993C28.0563 13.4531 29.174 14.0375 30.3996 14.2365C31.4718 14.4105 32.5867 14.3312 33.5601 13.4822C33.8462 12.3999 34.1888 11.1127 34.5519 9.76332C34.1088 9.97241 33.6476 10.1408 33.1738 10.2663C31.8063 10.6358 30.3326 10.7044 29.2442 10.5712L29.2135 10.5663L29.2066 10.5649ZM22.5886 25.2051C22.5434 25.3146 22.5199 25.4321 22.5201 25.5507C22.5201 25.6694 22.5434 25.7867 22.5886 25.8963C22.634 26.0058 22.7006 26.1054 22.7844 26.1892C22.8683 26.2731 22.9677 26.3396 23.0774 26.3849C23.187 26.4303 23.3043 26.4536 23.423 26.4536H25.4436C25.6802 26.4495 25.9059 26.3524 26.0719 26.1837C26.2379 26.0147 26.3309 25.7873 26.3309 25.5505C26.3309 25.3137 26.2379 25.0865 26.0719 24.9176C25.9059 24.7486 25.6802 24.6518 25.4436 24.6477H23.423C23.3043 24.6475 23.1868 24.6709 23.0774 24.7164C22.9677 24.7616 22.8681 24.8282 22.7842 24.912C22.7004 24.9959 22.634 25.0955 22.5886 25.2051ZM21.0054 22.9886C20.5637 23.1855 20.0282 22.9711 19.8094 22.5069C19.5906 22.0428 19.7714 21.5067 20.213 21.3088C21.1316 20.897 22.4329 20.5653 23.7193 20.5382C24.9709 20.511 26.4337 20.7678 27.4381 21.7969C27.7959 22.1649 27.8106 22.742 27.4718 23.0878C27.133 23.4336 26.5679 23.4163 26.2102 23.0494C25.7619 22.5892 24.9408 22.3405 23.8588 22.3642C22.8111 22.387 21.7304 22.6628 21.0054 22.9886ZM30.0235 15.7167C29.1418 15.5604 28.3755 15.2471 27.8148 14.9607V14.9615C27.4099 14.7516 27.0249 14.5052 26.6646 14.2254V14.2273L26.6605 14.224H26.3537C24.499 14.224 22.4455 14.5313 21.0371 14.7756C18.2602 15.2588 16.3872 15.9743 15.2523 17.1293C14.0647 18.3386 13.8408 19.8601 13.9222 21.4958C14.0213 23.4545 14.3248 26.5811 14.6008 29.1989C14.7395 30.512 14.872 31.7039 14.9697 32.5673C14.9955 32.7943 15.0189 32.9984 15.0395 33.1763L15.0452 33.2258C15.0613 33.3658 15.0753 33.4882 15.087 33.5911C15.0911 33.625 15.0948 33.657 15.0982 33.6866C15.1005 33.706 15.1026 33.7246 15.1046 33.7423C15.108 33.7707 15.111 33.7965 15.1137 33.8198C15.1158 33.8383 15.1178 33.8549 15.1196 33.8701L15.131 33.9678L15.1337 33.9896L15.1372 34.0109C15.7843 37.8816 18.4055 40.5148 21.6357 42.3125C24.8598 44.1045 28.7949 45.1286 32.3175 45.7654L32.3548 45.7722L32.3926 45.7758C34.1116 45.9386 35.4025 44.8237 36.3104 43.4684C37.2303 42.0949 37.9247 40.2462 38.4457 38.3879C38.9363 36.6392 39.2911 34.813 39.5313 33.2461C39.5751 33.0166 39.6109 32.7808 39.6339 32.5429C39.8343 31.101 39.9292 29.9531 39.9384 29.4067C39.9507 28.6656 39.7423 28.0269 39.4893 27.4763C39.3336 27.1379 39.1277 26.7706 38.9449 26.4448C38.8542 26.2859 38.7704 26.1363 38.7006 26.0045C38.2415 25.1384 37.9795 24.3757 38.3748 23.2832L38.458 23.0537L38.4139 22.8132V22.8079V22.8019C38.4137 22.7996 38.4137 22.7972 38.4139 22.7949V22.7908L38.4122 22.7827C38.4103 22.7733 38.4081 22.7614 38.4054 22.7475C38.3981 22.7062 38.3862 22.6471 38.371 22.5718C38.3409 22.4218 38.2963 22.2078 38.2385 21.9502C38.1233 21.4369 37.9537 20.7409 37.7366 20.0229C37.5213 19.3115 37.2508 18.546 36.9265 17.9078C36.7697 17.5897 36.5792 17.2894 36.3582 17.0121C36.1459 16.7544 35.8579 16.4844 35.4806 16.3375C34.7672 16.0596 34.2426 15.8636 33.8948 15.7363C33.7214 15.6725 33.5911 15.626 33.5042 15.5954L33.4283 15.5682L33.405 15.5601L33.3779 15.5514L33.3679 15.5479L33.0471 15.4393L33.0513 15.4225C32.4359 15.6788 31.776 15.8119 31.1091 15.8142C30.7452 15.8134 30.3819 15.7808 30.0235 15.7167ZM34.816 18.0183C34.1169 17.746 33.6058 17.5549 33.2711 17.4325L33.0697 17.3595C32.8288 17.4291 32.5841 17.484 32.3367 17.524C31.466 17.6635 30.5782 17.6543 29.7107 17.4969C28.5662 17.2935 27.5994 16.8864 26.9229 16.5335C26.5831 16.3562 26.3117 16.1904 26.1216 16.0666L26.1033 16.0544L26.076 16.0365C24.4553 16.065 22.6626 16.3304 21.349 16.559C18.6495 17.0286 17.2613 17.6682 16.5428 18.3992C15.8786 19.0756 15.6565 19.9714 15.7284 21.4101C15.7987 22.8224 15.9814 24.8841 16.1839 26.9257C16.5268 26.5592 16.9709 26.3183 17.4722 26.2675C18.7287 26.1408 19.8705 27.2555 20.0222 28.7571C20.1739 30.2588 19.2782 31.5791 18.0216 31.706C17.5289 31.7558 17.0539 31.6145 16.6492 31.3342C16.6915 31.7141 16.7306 32.0619 16.7654 32.3682C16.7928 32.6099 16.8175 32.8258 16.8389 33.0112V33.0136V33.0189C16.8485 33.1094 16.8583 33.1926 16.8672 33.2679C16.8722 33.3099 16.8768 33.3493 16.881 33.3863C16.8948 33.5066 16.9057 33.6 16.9133 33.6632C16.9157 33.6847 16.9179 33.7028 16.9198 33.7176V33.7274V33.7344V33.7365C17.4483 36.8589 19.5629 39.0955 22.5116 40.732C25.3233 42.2946 28.7998 43.2578 32.0954 43.8857C32.0384 43.0447 31.9108 42.1577 31.7784 41.4008C31.69 40.8915 31.6009 40.4519 31.5341 40.14L31.5228 40.0883H30.8551C30.7352 40.0905 30.6161 40.0687 30.5048 40.0241C30.3934 39.9798 30.2921 39.9136 30.2065 39.8296C30.121 39.7455 30.0529 39.6452 30.0066 39.5345C29.9603 39.424 29.9365 39.3054 29.9365 39.1855C29.9365 39.0654 29.9603 38.9468 30.0066 38.8363C30.0529 38.7256 30.121 38.6253 30.2065 38.5412C30.2921 38.4572 30.3934 38.3911 30.5048 38.3467C30.6161 38.3021 30.7352 38.2803 30.8551 38.2825H33.6327C33.8695 38.2865 34.095 38.3834 34.2611 38.5523C34.4271 38.7213 34.5201 38.9487 34.5201 39.1855C34.5201 39.4223 34.4271 39.6495 34.2611 39.8185C34.095 39.9874 33.8695 40.0843 33.6327 40.0883H33.3675C33.4255 40.3721 33.4914 40.7128 33.5574 41.0899C33.6819 41.802 33.8099 42.6639 33.8793 43.5243C34.1839 43.28 34.4945 42.9314 34.8081 42.4627C35.5702 41.3248 36.2027 39.6909 36.7053 37.8995C36.8602 37.3419 37.0033 36.7761 37.1315 36.2146C36.9946 36.2353 36.8563 36.2458 36.7179 36.2458H34.998C34.4269 36.2458 33.8669 36.0888 33.379 35.792C32.8913 35.4951 32.4943 35.0699 32.2319 34.5628L31.8963 33.9143L31.8332 34.1067C31.6282 34.7296 31.2318 35.2719 30.7004 35.6561C30.1692 36.0406 29.53 36.2473 28.8745 36.2471H25.2069C24.7431 36.2473 24.2852 36.1438 23.8665 35.9441C23.4479 35.7447 23.0791 35.4541 22.7872 35.0938L21.3184 33.2811C21.2437 33.1889 21.1879 33.0829 21.1542 32.9692C21.1205 32.8555 21.1095 32.7364 21.1219 32.6185C21.1343 32.5005 21.1698 32.3862 21.2263 32.282C21.2829 32.1777 21.3594 32.0858 21.4515 32.0111C21.5436 31.9364 21.6496 31.8806 21.7632 31.8468C21.8769 31.8131 21.9962 31.8023 22.1142 31.8146C22.2319 31.827 22.3463 31.8624 22.4506 31.9189C22.5547 31.9755 22.6468 32.0521 22.7215 32.1442L24.1903 33.9567C24.313 34.108 24.4681 34.2302 24.6441 34.314C24.8201 34.3977 25.0125 34.4412 25.2075 34.4412H28.876C29.1514 34.4412 29.4198 34.3542 29.6429 34.1929C29.866 34.0314 30.0324 33.8038 30.1186 33.5422L30.2426 33.1661C29.8323 33.1527 29.482 32.847 29.4195 32.4147C29.3472 31.9175 29.6832 31.4411 30.1698 31.3508L33.8972 30.6586C33.9422 30.6494 33.9844 30.63 34.0207 30.6018C34.057 30.5737 34.086 30.5374 34.1058 30.496C34.1257 30.4546 34.1357 30.4092 34.1351 30.3633C34.1342 30.3175 34.1229 30.2724 34.102 30.2315C33.5422 29.1908 32.7021 27.6214 31.622 25.5898C31.6109 25.5691 31.6009 25.548 31.5913 25.5266C31.1318 24.4676 30.9775 23.4825 31.2926 22.6394C31.625 21.7499 32.3687 21.2947 33.0887 21.0922C33.7995 20.8921 34.6012 20.8976 35.3316 20.9972C35.6175 21.0369 35.9012 21.0913 36.1816 21.1601C36.1272 20.9595 36.0683 20.7531 36.0056 20.5455C35.8029 19.8761 35.5682 19.2263 35.3142 18.7254C35.1857 18.4752 35.0667 18.2873 34.9613 18.1597C34.9206 18.1058 34.8723 18.0581 34.8177 18.0183H34.816ZM33.836 33.7351L33.2634 32.6279L34.156 32.4625C35.5704 32.2001 36.3471 30.5799 35.6655 29.3112C35.2809 28.5959 34.7629 27.6282 34.1252 26.4337C34.1886 26.4474 34.2532 26.4544 34.3181 26.4544H35.2924C35.5292 26.4504 35.7549 26.3533 35.9209 26.1843C36.0868 26.0156 36.1799 25.7882 36.1799 25.5514C36.1799 25.3146 36.0868 25.0872 35.9209 24.9184C35.7549 24.7495 35.5292 24.6526 35.2924 24.6483H34.3181C34.137 24.6486 33.9603 24.7027 33.8106 24.8045C33.6608 24.906 33.545 25.0503 33.4782 25.2184L33.4008 25.0724L33.3291 24.9368L33.2066 24.7059C32.8397 23.849 32.8868 23.4193 32.9506 23.248C32.9984 23.1207 33.1207 22.9666 33.5044 22.858C33.8983 22.7475 34.4378 22.732 35.0383 22.8135C35.5439 22.8828 36.0397 23.0108 36.5156 23.1951C36.1329 24.7226 36.5976 25.8955 37.1055 26.8529C37.2139 27.0573 37.3131 27.2339 37.4059 27.3984L37.4172 27.4183C37.1582 27.68 36.959 28.051 36.909 28.5771C36.7876 29.8505 37.1652 30.9489 37.9405 31.5606C37.8887 31.984 37.8257 32.4482 37.7504 32.9406C37.6826 33.2789 37.5958 33.6132 37.4904 33.9418C37.4029 34.217 37.1177 34.4425 36.7183 34.4425H34.998C34.758 34.4425 34.5227 34.3766 34.3177 34.2518C34.1129 34.127 33.946 33.9482 33.836 33.7351ZM16.9478 7.98453C15.7515 9.32955 14.4665 11.1138 13.885 13.0484V13.0492C13.7395 13.5378 13.6785 14.2905 13.6679 15.1467C8.82605 16.2626 4.4419 18.144 3.54287 21.2928C3.00403 23.1755 2.99074 25.0208 3.18727 26.5363C4.28798 24.8431 5.96391 23.7005 7.77474 22.9033C9.24898 22.2539 10.8706 21.8132 12.4222 21.4918C12.3432 19.7135 12.5851 17.7078 14.1844 16.0807C15.3818 14.8622 17.099 14.1198 19.2163 13.619C19.0477 10.6203 18.9177 7.77442 18.8718 6.72608C18.8626 6.52032 18.6598 6.40469 18.4918 6.52467C18.1766 6.75133 17.6592 7.1851 16.9478 7.98453ZM27.4861 12.9794C27.2408 12.8164 26.9526 12.7295 26.6579 12.7294H26.3524C25.2425 12.7294 24.0809 12.831 23.0223 12.9634C23.5879 11.2207 24.6151 9.62161 25.5757 8.38924C26.1645 7.63406 26.6016 7.20328 26.8811 6.96578C27.0443 6.82732 27.2568 6.9389 27.2642 7.15306C27.2962 8.09907 27.3775 10.408 27.4861 12.9794ZM21.1821 43.7718C24.563 45.5883 28.5656 46.6093 32.0512 47.2397L32.0875 47.2467C32.1289 47.254 32.169 47.2598 32.2119 47.2638L32.2496 47.2674C32.771 47.3193 33.2973 47.2866 33.8082 47.171C33.692 47.4628 33.5441 47.798 33.363 48.1916C32.9634 49.0603 31.9928 49.4946 31.0488 49.3444C29.0351 49.0251 27.5507 49.1889 26.3418 49.3223L26.335 49.3231L26.333 49.3233C24.9794 49.4722 23.9719 49.583 22.953 48.9359C21.668 48.1195 21.2831 45.6403 21.1821 43.7718ZM24.144 48.1647C24.3431 48.1892 24.5445 48.1415 24.7113 48.0301C24.8487 47.9384 24.956 47.8078 25.0193 47.6551C25.0961 47.4697 25.1038 47.2632 25.0409 47.0727C24.9782 46.8822 24.8489 46.7207 24.6769 46.6174C24.505 46.5144 24.3017 46.4764 24.1041 46.5105C23.9064 46.5447 23.7278 46.6488 23.6005 46.8039C23.4731 46.9587 23.4059 47.1544 23.4106 47.3549C23.4155 47.5554 23.4923 47.7474 23.6269 47.8961C23.7615 48.0448 23.945 48.14 24.144 48.1647ZM13.4447 32.4054C13.4674 32.6065 13.4903 32.8079 13.5134 33.0095H13.5137V33.0144C13.558 33.4016 13.6022 33.7907 13.6461 34.1818C13.6491 34.208 13.6527 34.2338 13.6573 34.2609C14.2384 37.7363 16.1975 40.2946 18.6631 42.1658C16.1185 42.554 11.8638 42.4529 8.30786 40.3183C7.62925 39.9108 6.96935 39.4362 6.60045 38.9434C5.87243 37.9716 5.78801 37.1825 5.99377 36.5329C6.25383 35.7107 7.04265 34.892 8.31194 34.1664C9.70554 33.3698 11.5367 32.7663 13.4447 32.4054ZM12.5183 23.0417C12.6583 24.9419 12.8932 27.3178 13.1087 29.3589C13.163 29.8686 13.2182 30.3774 13.2743 30.8851C11.1654 31.2687 9.11541 31.933 7.52962 32.8397C6.14524 33.631 4.99701 34.6742 4.57871 35.996C4.56568 36.0378 4.5532 36.0796 4.54153 36.1214C3.51219 34.1075 3.15958 31.884 3.46524 29.8274C3.62185 28.9438 3.92506 28.1871 4.33225 27.5324C5.22151 26.1031 6.65664 25.0744 8.37031 24.3194C9.69063 23.738 11.1209 23.338 12.5183 23.0417ZM50.6074 25.6278H53.7078L53.708 25.6284C55.5992 25.6284 56.5449 25.6284 57.267 25.9964C57.9017 26.32 58.4177 26.8361 58.7416 27.4707C59.1096 28.1931 59.1096 29.1388 59.1096 31.03V41.3995H64.7964V32.9794C64.7964 28.6814 64.7964 26.5321 63.9601 24.8903C63.2243 23.446 62.0502 22.2716 60.6059 21.5355C58.9643 20.6989 56.815 20.6989 52.5167 20.6989H50.6074V12.699H44.9201V41.3988H50.6074V25.6278ZM74.1878 41.8545C72.6963 41.8545 71.4074 41.6141 70.3204 41.1337H70.3196C69.2327 40.6535 68.3987 39.9712 67.8176 39.0867C67.2363 38.1769 66.9455 37.1027 66.9455 35.8641C66.9455 34.0947 67.5518 32.6539 68.7642 31.5422C70.0026 30.4045 71.8477 29.6335 74.2995 29.229L79.9567 28.3149C79.8255 27.6039 79.5074 27.024 79.0027 26.5752C78.3448 25.9437 77.4095 25.6278 76.1969 25.6278H69.2207V20.6989H76.5771C79.4078 20.6989 81.632 21.4318 83.2497 22.8975C84.8928 24.3384 85.7141 26.31 85.7141 28.8122V41.3993H80.4056V39.4575C79.821 40.0546 79.1891 40.5376 78.5097 40.9063C77.2967 41.5384 75.856 41.8545 74.1878 41.8545ZM75.325 33.3242L80.0263 32.4845V33.1347C80.0263 33.9689 79.824 34.7394 79.4195 35.4468C79.0409 36.1293 78.4849 36.6727 77.7515 37.0771C77.0439 37.4818 76.2349 37.6841 75.325 37.6841C74.5924 37.6841 73.9862 37.5072 73.5064 37.1535C73.0515 36.799 72.8239 36.3059 72.8239 35.6747C72.8239 35.018 73.0262 34.4999 73.4304 34.1197C73.8592 33.7408 74.4909 33.4756 75.325 33.3242ZM112.649 20.6989H118.337L118.336 41.3995H112.649V20.6989ZM89.1266 49.4343V20.6945H100.917C103.748 20.6945 105.972 21.4274 107.589 22.8932C109.232 24.3343 110.054 26.3059 110.054 28.8081V32.1427C110.054 34.6451 109.232 36.6168 107.589 38.0576C106.024 39.4765 103.95 39.7933 101.195 40.214H101.193L100.917 40.2562L94.8126 41.2021V49.4343H89.1266ZM94.8109 36.2639V25.6233L100.536 25.6237C101.748 25.6235 102.683 25.9394 103.341 26.5711C103.846 27.0195 104.164 27.5994 104.295 28.3106V32.6415C104.164 33.3528 103.846 33.9328 103.341 34.3812C102.748 34.9515 101.96 35.0859 100.892 35.2676L100.877 35.2702H100.873C100.826 35.2783 100.777 35.2866 100.728 35.2952C100.665 35.3058 100.601 35.3167 100.536 35.328L94.8109 36.2639Z" fill="#B6B7B8"/>
</g>
<defs>
<clipPath id="clip0_185_494">
<rect width="120.533" height="51.2" fill="white" transform="translate(0.466797 0.84375)"/>
</clipPath>
</defs>
</svg>
