<svg width="32" height="33" viewBox="0 0 32 33" fill="none" xmlns="http://www.w3.org/2000/svg">
<g id="heroicons-solid:lightning-bolt">
<g id="Vector">
<path d="M25.2971 11.0781H18.8971L12.4971 20.6781V28.6781C12.4969 29.0187 12.6053 29.3504 12.8067 29.6251C13.008 29.8998 13.2917 30.103 13.6166 30.2053C13.9414 30.3076 14.2904 30.3035 14.6128 30.1937C14.9352 30.084 15.2141 29.8742 15.4091 29.5949L26.6091 13.5949C26.7768 13.3551 26.8755 13.0738 26.8944 12.7818C26.9134 12.4897 26.8519 12.198 26.7166 11.9385C26.5813 11.679 26.3774 11.4615 26.1271 11.3098C25.8768 11.1581 25.5897 11.078 25.2971 11.0781Z" fill="#FDBF1C"/>
<path d="M25.2971 11.0781H18.8971L12.4971 20.6781V28.6781C12.4969 29.0187 12.6053 29.3504 12.8067 29.6251C13.008 29.8998 13.2917 30.103 13.6166 30.2053C13.9414 30.3076 14.2904 30.3035 14.6128 30.1937C14.9352 30.084 15.2141 29.8742 15.4091 29.5949L26.6091 13.5949C26.7768 13.3551 26.8755 13.0738 26.8944 12.7818C26.9134 12.4897 26.8519 12.198 26.7166 11.9385C26.5813 11.679 26.3774 11.4615 26.1271 11.3098C25.8768 11.1581 25.5897 11.078 25.2971 11.0781Z" fill="white"/>
</g>
<path id="Vector_2" d="M6.11504 20.6719H12.515L18.915 11.0719V3.07187C18.9153 2.73131 18.8068 2.39956 18.6055 2.1249C18.4041 1.85023 18.1204 1.64697 17.7955 1.5447C17.4707 1.44243 17.1217 1.44648 16.7993 1.55626C16.4769 1.66603 16.198 1.87581 16.003 2.15507L4.80304 18.1551C4.63534 18.3949 4.53664 18.6762 4.51769 18.9682C4.49873 19.2603 4.56025 19.552 4.69554 19.8115C4.83082 20.071 5.0347 20.2885 5.28499 20.4402C5.53527 20.5919 5.82237 20.672 6.11504 20.6719Z" fill="#FF5701"/>
</g>
</svg>
