<svg width="29" height="28" viewBox="0 0 29 28" fill="none" xmlns="http://www.w3.org/2000/svg">
<g id="pepicons-pop:expand">
<g id="Group">
<path id="Vector" d="M8.67728 21.9894C8.41324 22.2444 8.0596 22.3856 7.69252 22.3824C7.32545 22.3792 6.97431 22.2319 6.71474 21.9724C6.45517 21.7128 6.30793 21.3617 6.30474 20.9946C6.30155 20.6275 6.44266 20.2739 6.69768 20.0098L12.2977 14.4098C12.4268 14.2761 12.5813 14.1695 12.7521 14.0961C12.9229 14.0227 13.1066 13.9841 13.2925 13.9825C13.4784 13.9809 13.6628 14.0163 13.8348 14.0867C14.0069 14.1571 14.1632 14.261 14.2946 14.3925C14.4261 14.5239 14.53 14.6802 14.6004 14.8523C14.6708 15.0243 14.7063 15.2087 14.7046 15.3946C14.703 15.5805 14.6644 15.7642 14.591 15.935C14.5177 16.1058 14.411 16.2603 14.2773 16.3894L8.67728 21.9894Z" fill="#FF5701"/>
<path id="Vector_2" d="M17.0767 13.589C16.8127 13.8441 16.459 13.9852 16.0919 13.982C15.7249 13.9788 15.3737 13.8316 15.1142 13.572C14.8546 13.3124 14.7073 12.9613 14.7042 12.5942C14.701 12.2271 14.8421 11.8735 15.0971 11.6094L20.6971 6.00943C20.8262 5.87572 20.9807 5.76907 21.1515 5.69569C21.3223 5.62232 21.506 5.5837 21.6919 5.58208C21.8778 5.58047 22.0622 5.61589 22.2342 5.68628C22.4063 5.75668 22.5626 5.86063 22.6941 5.99208C22.8255 6.12353 22.9295 6.27984 22.9998 6.4519C23.0702 6.62395 23.1057 6.80831 23.1041 6.9942C23.1024 7.18009 23.0638 7.3638 22.9904 7.5346C22.9171 7.70541 22.8104 7.85989 22.6767 7.98903L17.0767 13.589Z" fill="#FF5701"/>
<path id="Union" fill-rule="evenodd" clip-rule="evenodd" d="M22.6771 13.5896C22.9396 13.327 23.0871 12.9709 23.0871 12.5996V6.99961C23.0871 6.62831 22.9396 6.27221 22.6771 6.00966C22.4145 5.74711 22.0584 5.59961 21.6871 5.59961H21.6868H21.6865H16.0865C15.7152 5.59961 15.3591 5.74711 15.0966 6.00966C14.834 6.27221 14.6865 6.62831 14.6865 6.99961C14.6865 7.37091 14.834 7.72701 15.0966 7.98956C15.3591 8.25211 15.7152 8.39961 16.0865 8.39961H20.2871V12.5996C20.2871 12.9709 20.4346 13.327 20.6972 13.5896C20.9597 13.8521 21.3158 13.9996 21.6871 13.9996C22.0584 13.9996 22.4145 13.8521 22.6771 13.5896ZM6.69716 21.9896C6.95971 22.2521 7.31581 22.3996 7.68711 22.3996H13.2871C13.6584 22.3996 14.0145 22.2521 14.2771 21.9896C14.5396 21.727 14.6871 21.3709 14.6871 20.9996C14.6871 20.6283 14.5396 20.2722 14.2771 20.0097C14.0145 19.7471 13.6584 19.5996 13.2871 19.5996H9.08711V15.3994C9.08711 15.0281 8.93961 14.672 8.67706 14.4095C8.41451 14.1469 8.05841 13.9994 7.68711 13.9994C7.31581 13.9994 6.95971 14.1469 6.69716 14.4095C6.43461 14.672 6.28711 15.0281 6.28711 15.3994V20.9994C6.28711 20.9994 6.28711 20.9995 6.28711 20.9995C6.28711 20.9995 6.28711 20.9996 6.28711 20.9996C6.28711 21.3709 6.43461 21.727 6.69716 21.9896Z" fill="white"/>
</g>
</g>
</svg>
