<svg width="29" height="28" viewBox="0 0 29 28" fill="none" xmlns="http://www.w3.org/2000/svg">
<g id="Frame">
<path id="Vector" d="M14.695 2.92888L14.69 2.91992L5.28027 8.35304L5.30155 8.39V14.8H5.30547C5.38555 20.1511 9.46599 24.5314 14.6908 25.0811C19.9156 24.5317 23.9963 20.1514 24.0761 14.8V8.3872L24.0946 8.35528L14.695 2.92888ZM14.6908 22.276V14.4699H8.08923V9.98264L14.6908 6.17156V14.4699H21.2884V14.8H21.2932C21.2154 18.6061 18.3703 21.7435 14.6908 22.276Z" fill="white"/>
<g id="Vector_2">
<path d="M14.6908 14.4699V22.276C18.3703 21.7435 21.2154 18.6061 21.2932 14.8H21.2884V14.4699H14.6908Z" fill="#FF5701"/>
<path d="M8.08923 14.4699H14.6908V6.17156L8.08923 9.98264V14.4699Z" fill="#FF5701"/>
</g>
</g>
</svg>
