<svg width="25" height="24" viewBox="0 0 25 24" fill="none" xmlns="http://www.w3.org/2000/svg">
<g id="mdi:instagram">
<path id="Vector" d="M8.1125 2H16.5125C19.7125 2 22.3125 4.6 22.3125 7.8V16.2C22.3125 17.7383 21.7014 19.2135 20.6137 20.3012C19.526 21.3889 18.0508 22 16.5125 22H8.1125C4.9125 22 2.3125 19.4 2.3125 16.2V7.8C2.3125 6.26174 2.92357 4.78649 4.01128 3.69878C5.09899 2.61107 6.57424 2 8.1125 2ZM7.9125 4C6.95772 4 6.04205 4.37928 5.36692 5.05442C4.69178 5.72955 4.3125 6.64522 4.3125 7.6V16.4C4.3125 18.39 5.9225 20 7.9125 20H16.7125C17.6673 20 18.583 19.6207 19.2581 18.9456C19.9332 18.2705 20.3125 17.3548 20.3125 16.4V7.6C20.3125 5.61 18.7025 4 16.7125 4H7.9125ZM17.5625 5.5C17.894 5.5 18.212 5.6317 18.4464 5.86612C18.6808 6.10054 18.8125 6.41848 18.8125 6.75C18.8125 7.08152 18.6808 7.39946 18.4464 7.63388C18.212 7.8683 17.894 8 17.5625 8C17.231 8 16.913 7.8683 16.6786 7.63388C16.4442 7.39946 16.3125 7.08152 16.3125 6.75C16.3125 6.41848 16.4442 6.10054 16.6786 5.86612C16.913 5.6317 17.231 5.5 17.5625 5.5ZM12.3125 7C13.6386 7 14.9104 7.52678 15.848 8.46447C16.7857 9.40215 17.3125 10.6739 17.3125 12C17.3125 13.3261 16.7857 14.5978 15.848 15.5355C14.9104 16.4732 13.6386 17 12.3125 17C10.9864 17 9.71465 16.4732 8.77697 15.5355C7.83928 14.5978 7.3125 13.3261 7.3125 12C7.3125 10.6739 7.83928 9.40215 8.77697 8.46447C9.71465 7.52678 10.9864 7 12.3125 7ZM12.3125 9C11.5168 9 10.7538 9.31607 10.1912 9.87868C9.62857 10.4413 9.3125 11.2043 9.3125 12C9.3125 12.7956 9.62857 13.5587 10.1912 14.1213C10.7538 14.6839 11.5168 15 12.3125 15C13.1081 15 13.8712 14.6839 14.4338 14.1213C14.9964 13.5587 15.3125 12.7956 15.3125 12C15.3125 11.2043 14.9964 10.4413 14.4338 9.87868C13.8712 9.31607 13.1081 9 12.3125 9Z" fill="white"/>
</g>
</svg>
