<svg width="25" height="24" viewBox="0 0 25 24" fill="none" xmlns="http://www.w3.org/2000/svg">
<g id="logos:telegram">
<path id="Vector" d="M3.6872 10.3185C9.05692 7.9196 12.6367 6.33796 14.4266 5.57385C19.5431 3.39191 20.605 3.01295 21.2985 3.00011C21.451 2.9976 21.7906 3.03627 22.0122 3.21999C22.1963 3.37494 22.2481 3.58448 22.274 3.73161C22.297 3.87859 22.3287 4.21357 22.3028 4.47506C22.0265 7.46184 20.8266 14.7098 20.2165 18.0552C19.9604 19.4707 19.451 19.9452 18.959 19.9916C17.8885 20.0925 17.077 19.2667 16.041 18.5705C14.4209 17.4805 13.5058 16.8023 11.9317 15.7389C10.113 14.51 11.2929 13.8344 12.3288 12.7306C12.5993 12.4417 17.3129 8.04562 17.4021 7.64689C17.4136 7.59701 17.4252 7.41108 17.3158 7.31309C17.2093 7.21481 17.0511 7.24846 16.936 7.27502C16.7719 7.3128 14.1849 9.06827 9.16627 12.5411C8.43246 13.0588 7.76772 13.3112 7.16917 13.2979C6.51306 13.2834 5.24689 12.9166 4.30589 12.6031C3.15483 12.2186 2.23685 12.0152 2.31743 11.3621C2.35772 11.0221 2.81526 10.6741 3.6872 10.3185Z" fill="#F3F3F3"/>
</g>
</svg>
