<svg width="33" height="32" viewBox="0 0 33 32" fill="none" xmlns="http://www.w3.org/2000/svg">
<g id="ri:question-line">
<path id="Vector" d="M16.6875 28.3164C10.0599 28.3164 4.6875 22.944 4.6875 16.3164C4.6875 9.68881 10.0599 4.31641 16.6875 4.31641C23.3151 4.31641 28.6875 9.68881 28.6875 16.3164C28.6875 22.944 23.3151 28.3164 16.6875 28.3164ZM16.6875 25.9164C19.2336 25.9164 21.6754 24.905 23.4757 23.1046C25.2761 21.3043 26.2875 18.8625 26.2875 16.3164C26.2875 13.7703 25.2761 11.3285 23.4757 9.52818C21.6754 7.72783 19.2336 6.71641 16.6875 6.71641C14.1414 6.71641 11.6996 7.72783 9.89928 9.52818C8.09893 11.3285 7.0875 13.7703 7.0875 16.3164C7.0875 18.8625 8.09893 21.3043 9.89928 23.1046C11.6996 24.905 14.1414 25.9164 16.6875 25.9164ZM15.4875 19.9164H17.8875V22.3164H15.4875V19.9164ZM17.8875 17.9424V18.7164H15.4875V16.9164C15.4875 16.5981 15.6139 16.2929 15.839 16.0679C16.064 15.8428 16.3692 15.7164 16.6875 15.7164C17.0284 15.7164 17.3623 15.6196 17.6503 15.4372C17.9383 15.2548 18.1686 14.9944 18.3144 14.6863C18.4602 14.3782 18.5155 14.035 18.4739 13.6966C18.4323 13.3583 18.2954 13.0387 18.0793 12.7751C17.8632 12.5115 17.5766 12.3147 17.253 12.2076C16.9293 12.1005 16.5819 12.0874 16.2512 12.1701C15.9205 12.2527 15.62 12.4275 15.3847 12.6742C15.1495 12.9209 14.9891 13.2293 14.9223 13.5636L12.5679 13.092C12.7139 12.3625 13.0509 11.6849 13.5446 11.1283C14.0383 10.5718 14.6709 10.1563 15.3778 9.92439C16.0847 9.69248 16.8405 9.65243 17.5679 9.80834C18.2954 9.96426 18.9683 10.3105 19.5181 10.8118C20.0678 11.313 20.4746 11.9513 20.6968 12.6613C20.9191 13.3713 20.9488 14.1275 20.7829 14.8528C20.6171 15.578 20.2616 16.2462 19.7529 16.789C19.2442 17.3319 18.6005 17.7299 17.8875 17.9424Z" fill="#7A7A7A"/>
</g>
</svg>
