<svg width="33" height="32" viewBox="0 0 33 32" fill="none" xmlns="http://www.w3.org/2000/svg">
<g id="pepicons-pop:expand">
<g id="Group">
<g id="Group 1948757624">
<path id="Vector" d="M13.9457 12.4134C13.5263 12.4061 13.1264 12.2343 12.8324 11.9351C12.5383 11.6359 12.3735 11.2331 12.3735 10.8136C12.3735 10.3941 12.5383 9.99134 12.8324 9.69212C13.1264 9.3929 13.5263 9.22115 13.9457 9.21386L27.9967 9.21386C28.2091 9.21017 28.4202 9.24882 28.6175 9.32755C28.8148 9.40629 28.9945 9.52354 29.146 9.67246C29.2975 9.82137 29.4179 9.99898 29.5 10.1949C29.5822 10.3908 29.6245 10.6012 29.6245 10.8136C29.6245 11.0261 29.5822 11.2364 29.5 11.4323C29.4179 11.6283 29.2975 11.8059 29.146 11.9548C28.9945 12.1037 28.8148 12.2209 28.6175 12.2997C28.4202 12.3784 28.2091 12.4171 27.9967 12.4134L13.9457 12.4134Z" fill="#FF5701"/>
<path id="Union" fill-rule="evenodd" clip-rule="evenodd" d="M23.4711 16.9395C23.8955 16.9395 24.3024 16.771 24.6025 16.4709L29.128 11.9454C29.428 11.6454 29.5966 11.2384 29.5966 10.814C29.5966 10.3897 29.428 9.98273 29.128 9.68267C29.1246 9.67928 29.1212 9.6759 29.1178 9.67254L24.602 5.15681C24.302 4.85675 23.895 4.68818 23.4707 4.68818C23.0463 4.68818 22.6393 4.85675 22.3393 5.15681C22.0392 5.45687 21.8707 5.86383 21.8707 6.28818C21.8707 6.71252 22.0392 7.11949 22.3393 7.41955L25.7338 10.8141L22.3398 14.2082C22.0397 14.5082 21.8711 14.9152 21.8711 15.3395C21.8711 15.7639 22.0397 16.1708 22.3398 16.4709C22.6398 16.771 23.0468 16.9395 23.4711 16.9395Z" fill="white"/>
</g>
<g id="Group 1948757625">
<path id="Vector_2" d="M5.37054 23.427C4.95107 23.4198 4.55125 23.248 4.25718 22.9488C3.96312 22.6496 3.79834 22.2468 3.79834 21.8273C3.79834 21.4078 3.96312 21.005 4.25718 20.7058C4.55125 20.4066 4.95107 20.2348 5.37054 20.2275L19.4215 20.2275C19.6339 20.2238 19.845 20.2625 20.0423 20.3412C20.2396 20.42 20.4193 20.5372 20.5708 20.6861C20.7223 20.835 20.8427 21.0127 20.9248 21.2086C21.007 21.4045 21.0493 21.6148 21.0493 21.8273C21.0493 22.0397 21.007 22.2501 20.9248 22.446C20.8427 22.6419 20.7223 22.8195 20.5708 22.9684C20.4193 23.1174 20.2396 23.2346 20.0423 23.3134C19.845 23.3921 19.6339 23.4307 19.4215 23.427L5.37054 23.427Z" fill="#FF5701"/>
<g id="Union_2">
<path fill-rule="evenodd" clip-rule="evenodd" d="M4.24438 20.6902C4.24241 20.6922 4.24045 20.6941 4.23849 20.6961C3.93843 20.9961 3.76986 21.4031 3.76986 21.8275C3.76986 22.2518 3.93843 22.6588 4.23849 22.9588L8.76397 27.4843C9.06403 27.7844 9.47099 27.9529 9.89534 27.9529C10.3197 27.9529 10.7267 27.7844 11.0267 27.4843C11.3268 27.1843 11.4953 26.7773 11.4953 26.3529C11.4953 25.9286 11.3268 25.5216 11.0267 25.2216L7.63261 21.8275L11.0269 18.4332C11.327 18.1331 11.4955 17.7262 11.4955 17.3018C11.4955 16.8775 11.327 16.4705 11.0269 16.1704C10.7268 15.8704 10.3199 15.7018 9.89552 15.7018C9.47118 15.7018 9.06421 15.8704 8.76415 16.1704L4.24438 20.6902Z" fill="black"/>
<path fill-rule="evenodd" clip-rule="evenodd" d="M4.24438 20.6902C4.24241 20.6922 4.24045 20.6941 4.23849 20.6961C3.93843 20.9961 3.76986 21.4031 3.76986 21.8275C3.76986 22.2518 3.93843 22.6588 4.23849 22.9588L8.76397 27.4843C9.06403 27.7844 9.47099 27.9529 9.89534 27.9529C10.3197 27.9529 10.7267 27.7844 11.0267 27.4843C11.3268 27.1843 11.4953 26.7773 11.4953 26.3529C11.4953 25.9286 11.3268 25.5216 11.0267 25.2216L7.63261 21.8275L11.0269 18.4332C11.327 18.1331 11.4955 17.7262 11.4955 17.3018C11.4955 16.8775 11.327 16.4705 11.0269 16.1704C10.7268 15.8704 10.3199 15.7018 9.89552 15.7018C9.47118 15.7018 9.06421 15.8704 8.76415 16.1704L4.24438 20.6902Z" fill="#FDBF1C"/>
<path fill-rule="evenodd" clip-rule="evenodd" d="M4.24438 20.6902C4.24241 20.6922 4.24045 20.6941 4.23849 20.6961C3.93843 20.9961 3.76986 21.4031 3.76986 21.8275C3.76986 22.2518 3.93843 22.6588 4.23849 22.9588L8.76397 27.4843C9.06403 27.7844 9.47099 27.9529 9.89534 27.9529C10.3197 27.9529 10.7267 27.7844 11.0267 27.4843C11.3268 27.1843 11.4953 26.7773 11.4953 26.3529C11.4953 25.9286 11.3268 25.5216 11.0267 25.2216L7.63261 21.8275L11.0269 18.4332C11.327 18.1331 11.4955 17.7262 11.4955 17.3018C11.4955 16.8775 11.327 16.4705 11.0269 16.1704C10.7268 15.8704 10.3199 15.7018 9.89552 15.7018C9.47118 15.7018 9.06421 15.8704 8.76415 16.1704L4.24438 20.6902Z" fill="white"/>
</g>
</g>
</g>
</g>
</svg>
