<svg width="437" height="95" viewBox="0 0 437 95" fill="none" xmlns="http://www.w3.org/2000/svg">
<g clip-path="url(#clip0_1025_1485)">
<path d="M84.1918 75.0866C79.7635 79.6867 74.3569 83.3115 68.3422 85.7125C54.4949 91.1331 41.9464 88.0041 37.4502 86.6136C33.5354 85.4025 26.41 83.1085 20.1874 76.6277C14.7429 70.9562 12.8016 65.0159 11.9251 62.2278C8.64008 51.7887 10.6742 42.7141 11.9545 38.4715C11.9545 38.5665 11.8907 39.2959 11.8348 40.4918C11.6464 44.6219 11.3382 53.3555 15.7309 61.8615C17.1809 64.6704 20.3732 69.8373 26.9597 74.4462C31.7836 78.0636 37.4146 80.5484 43.4071 81.7039C49.3997 82.8594 55.5891 82.6539 61.4851 81.1036C65.8405 80.0537 73.4121 77.5854 80.2083 71.5016C82.9772 69.0048 85.3888 66.1633 87.3791 63.0522C88.7546 60.9063 90.7041 57.8159 91.8937 53.3224C92.6321 50.5316 93.5777 46.7752 92.4247 42.3123C92.061 40.9014 91.3866 38.4177 89.2381 36.1669C88.0693 34.9457 86.9301 34.2774 85.7853 33.6067C83.2678 32.1317 81.1087 31.5325 78.3493 30.7901C75.8208 30.1109 73.2477 29.5975 70.6474 29.2538L68.969 29.0848C70.5245 31.5868 71.7144 34.2836 72.5064 37.0989C73.3815 40.1917 73.7579 43.3956 73.622 46.5986C73.5262 48.6185 73.4227 50.8363 72.4029 53.4889C70.828 57.5855 68.0925 60.0488 66.3769 61.5568C63.1476 64.3548 59.28 66.3793 55.0873 67.4665C52.9972 67.9911 50.8167 68.4011 50.8167 68.4011C51.9704 68.4141 53.1237 68.3536 54.2692 68.2191C55.4644 68.0886 56.3223 67.9964 57.4562 67.7737C58.9074 67.4694 60.3357 67.0714 61.732 66.583C63.5565 65.93 68.4324 64.1377 71.9672 60.3943C74.6922 57.506 75.8103 54.6102 76.6656 52.2982C76.6656 52.2982 79.6931 44.1046 76.3998 34.1186C77.9601 36.2601 79.2335 38.5827 80.1896 41.0319C81.1577 43.8365 81.607 46.7833 81.5176 49.7378C81.3327 53.8692 80.1509 57.9022 78.0651 61.5157C75.8296 65.2865 72.7437 68.5242 69.0352 70.9896C60.8157 76.4996 52.288 76.4331 50.1793 76.3666C47.3878 76.2769 39.5426 75.9187 32.4225 70.3162C22.7476 62.7014 22.1501 51.5966 22.0862 49.8092C22.0118 47.7864 21.7967 34.1007 33.4345 26.509C43.1067 20.1998 54.0488 22.9806 55.6954 23.4363L52.4313 30.4801L53.4434 31.4481L57.8228 23.3929C57.3745 26.0762 56.9248 28.7614 56.4737 31.4481L57.8228 30.8029L59.6261 23.9613C60.5502 24.2608 65.45 25.7536 69.6276 23.3929C71.8901 21.9545 73.7312 19.9795 74.9735 17.6574C74.9735 17.6395 75.2394 17.1605 75.5845 16.5153C75.7546 16.203 75.9853 15.7625 76.2593 15.2352C75.125 14.8792 74.2221 14.6181 73.5871 14.4388C73.2501 14.3441 72.8571 14.2366 72.1187 14.0265L70.5942 13.5914C70.3713 13.4684 70.0234 13.2712 69.6036 13.0177C65.7074 10.6723 65.3676 9.37421 62.5472 7.61766C60.666 6.4784 58.6228 5.60968 56.4814 5.03926C54.7724 4.52066 53.0149 4.16631 51.2337 3.98177C51.2337 3.98177 50.2987 3.8691 49.4912 3.8C48.1263 3.67963 45.3933 3.69501 41.877 3.95105C41.4115 2.63881 40.4765 1.52913 39.2401 0.820413C38.0034 0.111709 36.5458 -0.149791 35.1274 0.0826647C33.7093 0.31512 32.423 1.02638 31.4988 2.08924C30.5746 3.15212 30.0727 4.49734 30.0828 5.88423C24.8834 7.98429 20.0965 10.9289 15.9302 14.5899C1.68182 27.1465 0.245029 43.6743 0.0936508 45.8329C-0.110848 48.7311 -0.888983 63.8945 10.2016 77.4035C25.4378 95.9546 50.9998 96.6892 62.8765 93.6243C66.7632 92.5729 70.4988 91.0582 73.9963 89.1153C79.0215 86.108 83.3748 82.1659 86.8026 77.519C88.2429 75.4472 89.5015 73.2629 90.5657 70.9896C91.4788 69.0724 92.2768 67.1059 92.9561 65.1003C93.5903 63.3091 94.1031 61.4794 94.4911 59.6238C94.7609 58.3884 94.9577 57.1393 95.0806 55.8829C95.0806 55.8829 91.32 67.7121 84.1918 75.0866Z" fill="#2C3034"/>
<path d="M154.665 73.4147C150.861 73.4147 147.462 72.7972 144.467 71.5622C141.472 70.3272 138.929 68.5458 136.837 66.2183C134.745 63.8908 133.129 61.0883 131.988 57.8108C130.895 54.5333 130.348 50.8283 130.348 46.6958C130.348 42.5633 130.895 38.8583 131.988 35.5808C133.129 32.3035 134.745 29.501 136.837 27.1735C138.976 24.846 141.544 23.0647 144.539 21.8297C147.534 20.5947 150.909 19.9772 154.665 19.9772C158.468 19.9772 161.867 20.5947 164.862 21.8297C167.857 23.0647 170.377 24.846 172.421 27.1735C174.513 29.501 176.105 32.3035 177.199 35.5808C178.292 38.8583 178.839 42.5633 178.839 46.6958C178.839 50.8283 178.292 54.5333 177.199 57.8108C176.153 61.0883 174.584 63.8908 172.492 66.2183C170.448 68.5458 167.928 70.3272 164.933 71.5622C161.938 72.7972 158.515 73.4147 154.665 73.4147ZM154.593 64.2947C159.062 64.2947 162.39 62.7747 164.577 59.7347C166.764 56.6947 167.857 52.3483 167.857 46.6958C167.857 41.0908 166.764 36.7683 164.577 33.7285C162.39 30.641 159.062 29.0972 154.593 29.0972C150.124 29.0972 146.797 30.641 144.61 33.7285C142.423 36.7683 141.329 41.0908 141.329 46.6958C141.329 52.3483 142.423 56.6947 144.61 59.7347C146.797 62.7747 150.124 64.2947 154.593 64.2947ZM189.127 42.7058H183.279V34.9397H189.127V25.036H199.11V34.9397H207.668V42.7058H199.11V59.8772C199.11 61.8247 199.515 63.1547 200.323 63.8672C201.131 64.5322 202.177 64.8647 203.46 64.8647C204.126 64.8647 204.792 64.8408 205.457 64.7933C206.17 64.6983 206.859 64.5558 207.525 64.3658L208.951 71.7047C207.573 72.1322 206.218 72.4172 204.887 72.5597C203.603 72.7497 202.367 72.8447 201.179 72.8447C197.09 72.8447 194.047 71.8711 192.051 69.9233C190.102 67.9758 189.127 64.6983 189.127 60.0908V42.7058ZM216.147 42.7058H210.3V34.9397H216.147V25.036H226.13V34.9397H234.688V42.7058H226.13V59.8772C226.13 61.8247 226.534 63.1547 227.343 63.8672C228.151 64.5322 229.197 64.8647 230.48 64.8647C231.146 64.8647 231.811 64.8408 232.477 64.7933C233.19 64.6983 233.88 64.5558 234.545 64.3658L235.971 71.7047C234.593 72.1322 233.238 72.4172 231.906 72.5597C230.623 72.7497 229.387 72.8447 228.198 72.8447C224.11 72.8447 221.067 71.8711 219.071 69.9233C217.121 67.9758 216.147 64.6983 216.147 60.0908V42.7058ZM274.275 60.5183C273.61 64.6983 271.922 67.8808 269.212 70.0658C266.55 72.2036 262.651 73.2722 257.517 73.2722C251.337 73.2722 246.678 71.5622 243.54 68.1422C240.45 64.7222 238.905 59.8772 238.905 53.6072C238.905 50.4722 239.357 47.6933 240.26 45.2708C241.163 42.8008 242.423 40.7108 244.039 39.0008C245.703 37.2908 247.676 36.0083 249.958 35.1535C252.24 34.251 254.76 33.7997 257.517 33.7997C263.222 33.7997 267.5 35.4383 270.353 38.7158C273.253 41.9933 274.703 46.4108 274.703 51.9683V55.9583H248.889C248.984 58.9508 249.744 61.3022 251.171 63.0122C252.597 64.6747 254.736 65.5058 257.588 65.5058C261.534 65.5058 263.864 63.8433 264.577 60.5183H274.275ZM265.076 49.4033C265.076 46.8383 264.434 44.8433 263.151 43.4183C261.915 41.9933 259.965 41.2808 257.303 41.2808C255.972 41.2808 254.807 41.4947 253.809 41.9222C252.81 42.3497 251.955 42.9433 251.242 43.7033C250.576 44.4158 250.053 45.2708 249.673 46.2683C249.292 47.2183 249.079 48.2633 249.031 49.4033H265.076ZM282.181 34.9397H291.879V40.1408C293.115 38.1933 294.613 36.7447 296.372 35.7947C298.131 34.7972 299.985 34.2985 301.934 34.2985C302.885 34.2985 303.669 34.346 304.287 34.441C304.905 34.4885 305.452 34.5597 305.927 34.6547L304.715 43.7033C303.574 43.4183 302.172 43.2758 300.508 43.2758C299.414 43.2758 298.369 43.4183 297.37 43.7033C296.372 43.9408 295.469 44.4158 294.66 45.1283C293.805 45.8883 293.163 46.7433 292.735 47.6933C292.355 48.6433 292.164 49.6172 292.164 50.6147V72.1322H282.181V34.9397ZM320.399 55.5308C320.637 58.6658 321.635 60.9458 323.394 62.3708C325.201 63.7958 327.84 64.5083 331.31 64.5083C332.974 64.5083 334.376 64.3422 335.517 64.0097C336.658 63.6297 337.585 63.1547 338.299 62.5847C339.012 61.9672 339.511 61.2547 339.796 60.4472C340.129 59.6397 340.295 58.7608 340.295 57.8108C340.295 56.4808 339.796 55.2458 338.798 54.1058C337.799 52.9183 335.969 52.0633 333.307 51.5408L326.675 50.3297C324.06 49.8547 321.754 49.2372 319.758 48.4772C317.761 47.7172 316.073 46.7433 314.695 45.5558C313.363 44.3208 312.342 42.8247 311.628 41.0672C310.915 39.3097 310.559 37.2197 310.559 34.7972C310.559 32.3747 311.034 30.2372 311.985 28.3847C312.983 26.5322 314.338 24.9885 316.05 23.7535C317.809 22.5185 319.9 21.5922 322.325 20.9747C324.75 20.3097 327.412 19.9772 330.312 19.9772C334.02 19.9772 337.11 20.4047 339.582 21.2597C342.054 22.1147 344.051 23.2547 345.572 24.6797C347.093 26.0572 348.21 27.6722 348.924 29.5247C349.684 31.3772 350.184 33.301 350.421 35.2958L340.366 36.5783C339.843 33.776 338.821 31.7572 337.3 30.5222C335.826 29.2872 333.568 28.6697 330.526 28.6697C328.719 28.6697 327.222 28.836 326.033 29.1685C324.892 29.4535 323.965 29.8572 323.252 30.3797C322.539 30.8547 322.04 31.4247 321.755 32.0897C321.469 32.7547 321.327 33.4435 321.327 34.156C321.327 36.0558 321.85 37.4808 322.895 38.4308C323.989 39.3808 325.819 40.1172 328.386 40.6397L335.375 41.9933C340.889 43.0858 344.93 44.8672 347.497 47.3372C350.065 49.7597 351.348 53.2747 351.348 57.8822C351.348 60.1147 350.92 62.1808 350.065 64.0808C349.256 65.9333 348.02 67.5722 346.356 68.9972C344.74 70.3747 342.696 71.4433 340.224 72.2036C337.752 73.0111 334.852 73.4147 331.524 73.4147C324.583 73.4147 319.258 71.9422 315.55 68.9972C311.89 66.0047 309.917 61.5158 309.632 55.5308H320.399ZM392.103 60.5183C391.437 64.6983 389.751 67.8808 387.042 70.0658C384.38 72.2036 380.482 73.2722 375.348 73.2722C369.167 73.2722 364.508 71.5622 361.371 68.1422C358.279 64.7222 356.733 59.8772 356.733 53.6072C356.733 50.4722 357.187 47.6933 358.089 45.2708C358.994 42.8008 360.251 40.7108 361.867 39.0008C363.533 37.2908 365.505 36.0083 367.787 35.1535C370.069 34.251 372.59 33.7997 375.348 33.7997C381.052 33.7997 385.331 35.4383 388.183 38.7158C391.082 41.9933 392.533 46.4108 392.533 51.9683V55.9583H366.716C366.811 58.9508 367.572 61.3022 368.998 63.0122C370.425 64.6747 372.566 65.5058 375.418 65.5058C379.362 65.5058 381.693 63.8433 382.405 60.5183H392.103ZM382.905 49.4033C382.905 46.8383 382.264 44.8433 380.978 43.4183C379.742 41.9933 377.795 41.2808 375.133 41.2808C373.802 41.2808 372.636 41.4947 371.639 41.9222C370.639 42.3497 369.784 42.9433 369.072 43.7033C368.407 44.4158 367.882 45.2708 367.502 46.2683C367.121 47.2183 366.907 48.2633 366.861 49.4033H382.905ZM433.456 58.6658C433.076 63.1308 431.53 66.6933 428.822 69.3533C426.159 71.9661 422.141 73.2722 416.768 73.2722C413.63 73.2722 410.922 72.7972 408.64 71.8472C406.358 70.8972 404.481 69.5672 403.005 67.8572C401.579 66.1472 400.509 64.0808 399.797 61.6586C399.083 59.2358 398.727 56.5522 398.727 53.6072C398.727 50.6622 399.132 47.9783 399.938 45.5558C400.794 43.0858 402.009 40.9958 403.576 39.2858C405.147 37.5283 407.069 36.1747 409.351 35.2247C411.633 34.2747 414.25 33.7997 417.197 33.7997C419.715 33.7997 421.902 34.1322 423.758 34.7972C425.659 35.4147 427.251 36.2933 428.536 37.4333C429.818 38.5733 430.818 39.9508 431.53 41.5658C432.245 43.1333 432.72 44.8672 432.956 46.7672L422.902 48.1208C422.662 46.2208 422.117 44.7008 421.261 43.5608C420.405 42.3733 418.933 41.7797 416.841 41.7797C415.32 41.7797 414.059 42.1122 413.059 42.7772C412.063 43.3947 411.253 44.2497 410.637 45.3422C410.066 46.4347 409.661 47.6933 409.425 49.1183C409.186 50.4958 409.066 51.9447 409.066 53.4647C409.066 55.0322 409.186 56.5283 409.425 57.9533C409.661 59.3783 410.066 60.6372 410.637 61.7297C411.207 62.8222 411.992 63.7008 412.989 64.3658C413.989 64.9833 415.246 65.2922 416.768 65.2922C418.764 65.2922 420.31 64.7222 421.405 63.5822C422.497 62.4422 423.138 60.8033 423.328 58.6658H433.456Z" fill="#2C3034"/>
</g>
<defs>
<clipPath id="clip0_1025_1485">
<rect width="436.667" height="95" fill="white"/>
</clipPath>
</defs>
</svg>
