<svg width="560" height="560" viewBox="0 0 560 560" fill="none" xmlns="http://www.w3.org/2000/svg">
<rect width="560" height="560" rx="32" fill="#EBDEDC"/>
<g clip-path="url(#clip0_937_23)">
<path d="M132.192 260.087C127.764 264.687 122.357 268.311 116.342 270.713C102.495 276.133 89.9464 273.004 85.4502 271.614C81.5354 270.403 74.41 268.108 68.1874 261.628C62.7429 255.956 60.8016 250.016 59.9251 247.228C56.6401 236.789 58.6742 227.714 59.9545 223.471C59.9545 223.566 59.8907 224.296 59.8348 225.492C59.6464 229.622 59.3382 238.356 63.7309 246.862C65.1809 249.67 68.3732 254.837 74.9597 259.446C79.7836 263.064 85.4146 265.548 91.4071 266.704C97.3997 267.859 103.589 267.654 109.485 266.104C113.841 265.054 121.412 262.585 128.208 256.502C130.977 254.005 133.389 251.163 135.379 248.052C136.755 245.906 138.704 242.816 139.894 238.322C140.632 235.532 141.578 231.775 140.425 227.312C140.061 225.901 139.387 223.418 137.238 221.167C136.069 219.946 134.93 219.277 133.785 218.607C131.268 217.132 129.109 216.533 126.349 215.79C123.821 215.111 121.248 214.598 118.647 214.254L116.969 214.085C118.524 216.587 119.714 219.284 120.506 222.099C121.381 225.192 121.758 228.396 121.622 231.599C121.526 233.619 121.423 235.836 120.403 238.489C118.828 242.585 116.093 245.049 114.377 246.557C111.148 249.355 107.28 251.379 103.087 252.467C100.997 252.991 98.8167 253.401 98.8167 253.401C99.9704 253.414 101.124 253.354 102.269 253.219C103.464 253.089 104.322 252.996 105.456 252.774C106.907 252.469 108.336 252.071 109.732 251.583C111.556 250.93 116.432 249.138 119.967 245.394C122.692 242.506 123.81 239.61 124.666 237.298C124.666 237.298 127.693 229.105 124.4 219.119C125.96 221.26 127.234 223.583 128.19 226.032C129.158 228.837 129.607 231.783 129.518 234.738C129.333 238.869 128.151 242.902 126.065 246.516C123.83 250.286 120.744 253.524 117.035 255.99C108.816 261.5 100.288 261.433 98.1793 261.367C95.3878 261.277 87.5426 260.919 80.4225 255.316C70.7476 247.701 70.1501 236.597 70.0862 234.809C70.0118 232.786 69.7967 219.101 81.4345 211.509C91.1067 205.2 102.049 207.981 103.695 208.436L100.431 215.48L101.443 216.448L105.823 208.393C105.374 211.076 104.925 213.761 104.474 216.448L105.823 215.803L107.626 208.961C108.55 209.261 113.45 210.754 117.628 208.393C119.89 206.955 121.731 204.98 122.974 202.657C122.974 202.639 123.239 202.161 123.585 201.515C123.755 201.203 123.985 200.763 124.259 200.235C123.125 199.879 122.222 199.618 121.587 199.439C121.25 199.344 120.857 199.237 120.119 199.027L118.594 198.591C118.371 198.468 118.023 198.271 117.604 198.018C113.707 195.672 113.368 194.374 110.547 192.618C108.666 191.478 106.623 190.61 104.481 190.039C102.772 189.521 101.015 189.166 99.2337 188.982C99.2337 188.982 98.2987 188.869 97.4912 188.8C96.1263 188.68 93.3933 188.695 89.877 188.951C89.4115 187.639 88.4765 186.529 87.2401 185.82C86.0034 185.112 84.5458 184.85 83.1274 185.083C81.7093 185.315 80.423 186.026 79.4988 187.089C78.5746 188.152 78.0727 189.497 78.0828 190.884C72.8835 192.984 68.0965 195.929 63.9302 199.59C49.6818 212.147 48.245 228.674 48.0937 230.833C47.8892 233.731 47.111 248.895 58.2016 262.404C73.4378 280.955 98.9998 281.689 110.876 278.624C114.763 277.573 118.499 276.058 121.996 274.115C127.022 271.108 131.375 267.166 134.803 262.519C136.243 260.447 137.502 258.263 138.566 255.99C139.479 254.072 140.277 252.106 140.956 250.1C141.59 248.309 142.103 246.479 142.491 244.624C142.761 243.388 142.958 242.139 143.081 240.883C143.081 240.883 139.32 252.712 132.192 260.087Z" fill="#2C3034"/>
<path d="M202.665 258.415C198.861 258.415 195.462 257.798 192.467 256.563C189.472 255.328 186.929 253.546 184.837 251.219C182.745 248.891 181.129 246.089 179.988 242.811C178.895 239.534 178.348 235.829 178.348 231.696C178.348 227.564 178.895 223.859 179.988 220.581C181.129 217.304 182.745 214.501 184.837 212.174C186.976 209.846 189.544 208.065 192.539 206.83C195.534 205.595 198.909 204.978 202.665 204.978C206.468 204.978 209.867 205.595 212.862 206.83C215.857 208.065 218.377 209.846 220.421 212.174C222.513 214.501 224.105 217.304 225.199 220.581C226.292 223.859 226.839 227.564 226.839 231.696C226.839 235.829 226.292 239.534 225.199 242.811C224.153 246.089 222.584 248.891 220.492 251.219C218.448 253.546 215.928 255.328 212.933 256.563C209.938 257.798 206.515 258.415 202.665 258.415ZM202.593 249.295C207.062 249.295 210.39 247.775 212.577 244.735C214.764 241.695 215.857 237.349 215.857 231.696C215.857 226.091 214.764 221.769 212.577 218.729C210.39 215.641 207.062 214.098 202.593 214.098C198.124 214.098 194.797 215.641 192.61 218.729C190.423 221.769 189.329 226.091 189.329 231.696C189.329 237.349 190.423 241.695 192.61 244.735C194.797 247.775 198.124 249.295 202.593 249.295ZM237.127 227.706H231.279V219.94H237.127V210.036H247.11V219.94H255.668V227.706H247.11V244.878C247.11 246.825 247.515 248.155 248.323 248.868C249.131 249.533 250.177 249.865 251.46 249.865C252.126 249.865 252.792 249.841 253.457 249.794C254.17 249.699 254.859 249.556 255.525 249.366L256.951 256.705C255.572 257.133 254.218 257.418 252.887 257.56C251.603 257.75 250.367 257.845 249.179 257.845C245.09 257.845 242.047 256.871 240.051 254.924C238.102 252.976 237.127 249.699 237.127 245.091V227.706ZM264.147 227.706H258.3V219.94H264.147V210.036H274.13V219.94H282.688V227.706H274.13V244.878C274.13 246.825 274.534 248.155 275.343 248.868C276.151 249.533 277.197 249.865 278.48 249.865C279.146 249.865 279.811 249.841 280.477 249.794C281.19 249.699 281.88 249.556 282.545 249.366L283.971 256.705C282.593 257.133 281.238 257.418 279.906 257.56C278.623 257.75 277.387 257.845 276.198 257.845C272.11 257.845 269.067 256.871 267.071 254.924C265.121 252.976 264.147 249.699 264.147 245.091V227.706ZM322.275 245.519C321.61 249.699 319.922 252.881 317.212 255.066C314.55 257.204 310.651 258.273 305.517 258.273C299.337 258.273 294.678 256.563 291.54 253.143C288.45 249.723 286.905 244.878 286.905 238.608C286.905 235.473 287.357 232.694 288.26 230.271C289.163 227.801 290.423 225.711 292.039 224.001C293.703 222.291 295.676 221.009 297.958 220.154C300.24 219.251 302.76 218.8 305.517 218.8C311.222 218.8 315.5 220.439 318.353 223.716C321.253 226.994 322.703 231.411 322.703 236.969V240.959H296.889C296.984 243.951 297.744 246.303 299.171 248.013C300.597 249.675 302.736 250.506 305.588 250.506C309.534 250.506 311.864 248.844 312.577 245.519H322.275ZM313.076 234.404C313.076 231.839 312.434 229.844 311.151 228.419C309.915 226.994 307.965 226.281 305.303 226.281C303.972 226.281 302.807 226.495 301.809 226.923C300.81 227.35 299.955 227.944 299.242 228.704C298.576 229.416 298.053 230.271 297.673 231.269C297.292 232.219 297.079 233.264 297.031 234.404H313.076ZM330.181 219.94H339.879V225.141C341.115 223.194 342.613 221.745 344.372 220.795C346.131 219.798 347.985 219.299 349.934 219.299C350.885 219.299 351.669 219.346 352.287 219.441C352.905 219.489 353.452 219.56 353.927 219.655L352.715 228.704C351.574 228.419 350.172 228.276 348.508 228.276C347.414 228.276 346.369 228.419 345.37 228.704C344.372 228.941 343.469 229.416 342.66 230.129C341.805 230.889 341.163 231.744 340.735 232.694C340.355 233.644 340.164 234.618 340.164 235.615V257.133H330.181V219.94ZM368.399 240.531C368.637 243.666 369.635 245.946 371.394 247.371C373.201 248.796 375.84 249.509 379.31 249.509C380.974 249.509 382.376 249.343 383.517 249.01C384.658 248.63 385.585 248.155 386.299 247.585C387.012 246.968 387.511 246.255 387.796 245.448C388.129 244.64 388.295 243.761 388.295 242.811C388.295 241.481 387.796 240.246 386.798 239.106C385.799 237.919 383.969 237.064 381.307 236.541L374.675 235.33C372.06 234.855 369.754 234.238 367.758 233.478C365.761 232.718 364.073 231.744 362.695 230.556C361.363 229.321 360.342 227.825 359.628 226.068C358.915 224.31 358.559 222.22 358.559 219.798C358.559 217.375 359.034 215.238 359.985 213.385C360.983 211.533 362.338 209.989 364.05 208.754C365.809 207.519 367.9 206.593 370.325 205.975C372.75 205.31 375.412 204.978 378.312 204.978C382.02 204.978 385.11 205.405 387.582 206.26C390.054 207.115 392.051 208.255 393.572 209.68C395.093 211.058 396.21 212.673 396.924 214.525C397.684 216.378 398.184 218.301 398.421 220.296L388.366 221.579C387.843 218.776 386.821 216.758 385.3 215.523C383.826 214.288 381.568 213.67 378.526 213.67C376.719 213.67 375.222 213.836 374.033 214.169C372.892 214.454 371.965 214.858 371.252 215.38C370.539 215.855 370.04 216.425 369.754 217.09C369.469 217.755 369.327 218.444 369.327 219.156C369.327 221.056 369.85 222.481 370.895 223.431C371.989 224.381 373.819 225.118 376.386 225.64L383.375 226.994C388.889 228.086 392.93 229.868 395.497 232.338C398.065 234.76 399.348 238.275 399.348 242.883C399.348 245.115 398.92 247.181 398.065 249.081C397.256 250.934 396.02 252.573 394.356 253.998C392.74 255.375 390.696 256.444 388.224 257.204C385.752 258.011 382.852 258.415 379.524 258.415C372.583 258.415 367.258 256.943 363.55 253.998C359.89 251.005 357.917 246.516 357.632 240.531H368.399ZM440.103 245.519C439.437 249.699 437.751 252.881 435.042 255.066C432.38 257.204 428.482 258.273 423.348 258.273C417.167 258.273 412.508 256.563 409.371 253.143C406.279 249.723 404.733 244.878 404.733 238.608C404.733 235.473 405.187 232.694 406.089 230.271C406.994 227.801 408.251 225.711 409.867 224.001C411.533 222.291 413.505 221.009 415.787 220.154C418.069 219.251 420.59 218.8 423.348 218.8C429.052 218.8 433.331 220.439 436.183 223.716C439.082 226.994 440.533 231.411 440.533 236.969V240.959H414.716C414.811 243.951 415.572 246.303 416.998 248.013C418.425 249.675 420.566 250.506 423.418 250.506C427.362 250.506 429.693 248.844 430.405 245.519H440.103ZM430.905 234.404C430.905 231.839 430.264 229.844 428.978 228.419C427.742 226.994 425.795 226.281 423.133 226.281C421.802 226.281 420.636 226.495 419.639 226.923C418.639 227.35 417.784 227.944 417.072 228.704C416.407 229.416 415.882 230.271 415.502 231.269C415.121 232.219 414.907 233.264 414.861 234.404H430.905ZM481.456 243.666C481.076 248.131 479.53 251.694 476.822 254.354C474.159 256.966 470.141 258.273 464.768 258.273C461.63 258.273 458.922 257.798 456.64 256.848C454.358 255.898 452.481 254.568 451.005 252.858C449.579 251.148 448.509 249.081 447.797 246.659C447.083 244.236 446.727 241.553 446.727 238.608C446.727 235.663 447.132 232.979 447.938 230.556C448.794 228.086 450.009 225.996 451.576 224.286C453.147 222.529 455.069 221.175 457.351 220.225C459.633 219.275 462.25 218.8 465.197 218.8C467.715 218.8 469.902 219.133 471.758 219.798C473.659 220.415 475.251 221.294 476.536 222.434C477.818 223.574 478.818 224.951 479.53 226.566C480.245 228.134 480.72 229.868 480.956 231.768L470.902 233.121C470.662 231.221 470.117 229.701 469.261 228.561C468.405 227.374 466.933 226.78 464.841 226.78C463.32 226.78 462.059 227.113 461.059 227.778C460.063 228.395 459.253 229.25 458.637 230.343C458.066 231.435 457.661 232.694 457.425 234.119C457.186 235.496 457.066 236.945 457.066 238.465C457.066 240.033 457.186 241.529 457.425 242.954C457.661 244.379 458.066 245.638 458.637 246.73C459.207 247.823 459.992 248.701 460.989 249.366C461.989 249.984 463.246 250.293 464.768 250.293C466.764 250.293 468.31 249.723 469.405 248.583C470.497 247.443 471.138 245.804 471.328 243.666H481.456Z" fill="#2C3034"/>
</g>
<defs>
<clipPath id="clip0_937_23">
<rect width="436.667" height="95" fill="white" transform="translate(48 185)"/>
</clipPath>
</defs>
</svg>
