<svg width="148" height="101" viewBox="0 0 148 101" fill="none" xmlns="http://www.w3.org/2000/svg">
<g filter="url(#filter0_d_120_142)">
<path d="M35.9082 87.4993C28.7078 89.4286 21.6486 89.0049 16.9195 87.3566L18.9597 71.2894C23.7217 73.7006 27.6864 74.096 32.1666 72.8955C38.087 71.3091 40.2754 67.6358 38.196 59.8753L37.2957 56.5151C36.9875 62.0856 33.3862 66.5663 26.5858 68.3885C16.1051 71.1967 9.30698 65.9869 6.7345 56.3863C3.58323 44.6256 10.5559 35.1256 23.5967 31.6313C39.9177 27.2581 49.3135 36.4024 53.5367 52.1633L53.9225 53.6034C58.4029 70.3245 53.1093 82.8903 35.9082 87.4993ZM31.3596 58.3629C35.8399 57.1624 36.7854 53.6506 35.8421 50.1304C34.8131 46.2902 32.3027 43.9616 27.8225 45.1621C23.1822 46.4055 21.8524 49.763 22.8813 53.6032C23.8246 57.1235 26.7193 59.6063 31.3596 58.3629ZM89.7651 76.7556L78.1644 79.864L104.172 6.35409L115.772 3.24569L89.7651 76.7556ZM77.022 52.5589C67.6614 55.0671 59.146 50.4888 56.4663 40.4882C53.7867 30.4876 58.8721 22.265 68.2327 19.7569C77.5133 17.2702 86.0287 21.8484 88.7083 31.849C91.388 41.8496 86.3025 50.0722 77.022 52.5589ZM74.1708 41.9182C76.651 41.2537 77.7266 39.5077 76.5476 35.1075C75.3471 30.6272 73.5426 29.653 71.0624 30.3175C68.6623 30.9606 67.5866 32.7066 68.7871 37.1869C69.9662 41.5871 71.7707 42.5614 74.1708 41.9182ZM126.071 62.4827C116.791 64.9694 108.275 60.3912 105.596 50.3905C102.916 40.3899 108.001 32.1674 117.282 29.6806C126.643 27.1725 135.158 31.7507 137.838 41.7513C140.517 51.7519 135.432 59.9745 126.071 62.4827ZM123.22 51.842C125.78 51.156 126.856 49.4101 125.677 45.0098C124.455 40.4495 122.672 39.5553 120.112 40.2413C117.712 40.8844 116.614 42.5504 117.836 47.1106C119.015 51.5109 120.82 52.4851 123.22 51.842Z" fill="#2C3034"/>
<path d="M35.9082 87.4993C28.7078 89.4286 21.6486 89.0049 16.9195 87.3566L18.9597 71.2894C23.7217 73.7006 27.6864 74.096 32.1666 72.8955C38.087 71.3091 40.2754 67.6358 38.196 59.8753L37.2957 56.5151C36.9875 62.0856 33.3862 66.5663 26.5858 68.3885C16.1051 71.1967 9.30698 65.9869 6.7345 56.3863C3.58323 44.6256 10.5559 35.1256 23.5967 31.6313C39.9177 27.2581 49.3135 36.4024 53.5367 52.1633L53.9225 53.6034C58.4029 70.3245 53.1093 82.8903 35.9082 87.4993ZM31.3596 58.3629C35.8399 57.1624 36.7854 53.6506 35.8421 50.1304C34.8131 46.2902 32.3027 43.9616 27.8225 45.1621C23.1822 46.4055 21.8524 49.763 22.8813 53.6032C23.8246 57.1235 26.7193 59.6063 31.3596 58.3629ZM89.7651 76.7556L78.1644 79.864L104.172 6.35409L115.772 3.24569L89.7651 76.7556ZM77.022 52.5589C67.6614 55.0671 59.146 50.4888 56.4663 40.4882C53.7867 30.4876 58.8721 22.265 68.2327 19.7569C77.5133 17.2702 86.0287 21.8484 88.7083 31.849C91.388 41.8496 86.3025 50.0722 77.022 52.5589ZM74.1708 41.9182C76.651 41.2537 77.7266 39.5077 76.5476 35.1075C75.3471 30.6272 73.5426 29.653 71.0624 30.3175C68.6623 30.9606 67.5866 32.7066 68.7871 37.1869C69.9662 41.5871 71.7707 42.5614 74.1708 41.9182ZM126.071 62.4827C116.791 64.9694 108.275 60.3912 105.596 50.3905C102.916 40.3899 108.001 32.1674 117.282 29.6806C126.643 27.1725 135.158 31.7507 137.838 41.7513C140.517 51.7519 135.432 59.9745 126.071 62.4827ZM123.22 51.842C125.78 51.156 126.856 49.4101 125.677 45.0098C124.455 40.4495 122.672 39.5553 120.112 40.2413C117.712 40.8844 116.614 42.5504 117.836 47.1106C119.015 51.5109 120.82 52.4851 123.22 51.842Z" fill="url(#paint0_linear_120_142)"/>
<path d="M16.9195 87.3566L15.9274 87.2306L15.8254 88.0343L16.5903 88.3009L16.9195 87.3566ZM18.9597 71.2894L19.4114 70.3972L18.1463 69.7566L17.9676 71.1634L18.9597 71.2894ZM37.2957 56.5151L38.2616 56.2563L36.2972 56.4599L37.2957 56.5151ZM35.6494 86.5333C28.6219 88.4164 21.769 87.9879 17.2486 86.4123L16.5903 88.3009C21.5282 90.0219 28.7936 90.4409 36.167 88.4652L35.6494 86.5333ZM17.9115 87.4826L19.9517 71.4153L17.9676 71.1634L15.9274 87.2306L17.9115 87.4826ZM18.5079 72.1815C23.4734 74.6957 27.6903 75.1302 32.4255 73.8614L31.9078 71.9296C27.6825 73.0618 23.97 72.7054 19.4114 70.3972L18.5079 72.1815ZM32.4255 73.8614C35.5295 73.0297 37.8732 71.5907 39.0784 69.1424C40.2645 66.7331 40.2254 63.5851 39.162 59.6165L37.2301 60.1341C38.2461 63.926 38.1525 66.495 37.2841 68.259C36.4349 69.9841 34.7241 71.175 31.9078 71.9296L32.4255 73.8614ZM39.162 59.6165L38.2616 56.2563L36.3297 56.7739L37.2301 60.1341L39.162 59.6165ZM36.2972 56.4599C36.0162 61.54 32.7699 65.6962 26.327 67.4225L26.8446 69.3544C34.0025 67.4364 37.9589 62.6312 38.2941 56.5703L36.2972 56.4599ZM26.327 67.4225C21.2959 68.7706 17.2807 68.1664 14.2371 66.2007C11.1751 64.223 8.94411 60.7689 7.70043 56.1275L5.76858 56.6451C7.09737 61.6042 9.55166 65.5554 13.152 67.8807C16.7708 70.218 21.3951 70.8146 26.8446 69.3544L26.327 67.4225ZM7.70043 56.1275C6.19524 50.51 7.11566 45.5023 9.9144 41.48C12.7272 37.4376 17.503 34.2994 23.8555 32.5973L23.3378 30.6654C16.6495 32.4575 11.4187 35.8164 8.27271 40.3377C5.11275 44.8792 4.1225 50.5018 5.76858 56.6451L7.70043 56.1275ZM23.8555 32.5973C31.7823 30.4733 37.8783 31.6578 42.5011 35.1453C47.1686 38.6667 50.4884 44.6506 52.5707 52.4222L54.5026 51.9045C52.3618 43.9151 48.8721 37.4465 43.7056 33.5487C38.4944 29.6172 31.732 28.4162 23.3378 30.6654L23.8555 32.5973ZM52.5707 52.4222L52.9566 53.8623L54.8885 53.3446L54.5026 51.9045L52.5707 52.4222ZM52.9566 53.8623C55.1591 62.0819 54.9182 69.131 52.1521 74.645C49.3981 80.1348 44.0499 84.2824 35.6494 86.5333L36.167 88.4652C44.9676 86.1071 50.8668 81.6674 53.9397 75.5418C57.0006 69.4403 57.1664 61.846 54.8885 53.3446L52.9566 53.8623ZM31.6184 59.3288C34.0953 58.6652 35.7192 57.3172 36.5424 55.5361C37.3492 53.7906 37.3186 51.7771 36.8081 49.8716L34.8762 50.3892C35.3089 52.004 35.2772 53.5064 34.727 54.697C34.1931 55.852 33.1042 56.8602 31.1008 57.397L31.6184 59.3288ZM36.8081 49.8716C36.259 47.8224 35.2776 46.03 33.6961 44.934C32.0828 43.8161 30.0152 43.5393 27.5636 44.1962L28.0813 46.128C30.11 45.5844 31.5378 45.8717 32.557 46.5779C33.6079 47.3062 34.3963 48.5982 34.8762 50.3892L36.8081 49.8716ZM27.5636 44.1962C25.0445 44.8712 23.2871 46.1631 22.3429 47.9395C21.4068 49.7008 21.3566 51.7764 21.9154 53.8621L23.8473 53.3444C23.3771 51.5899 23.4773 50.0666 24.109 48.8782C24.7325 47.7049 25.9601 46.6964 28.0813 46.128L27.5636 44.1962ZM21.9154 53.8621C22.436 55.8048 23.5179 57.5436 25.1969 58.6129C26.8939 59.6936 29.0755 60.0102 31.6184 59.3288L31.1008 57.397C29.0034 57.959 27.4175 57.6559 26.2712 56.9259C25.1071 56.1846 24.2699 54.9219 23.8473 53.3444L21.9154 53.8621ZM89.7651 76.7556L90.024 77.7215L90.5323 77.5853L90.7079 77.0891L89.7651 76.7556ZM78.1644 79.864L77.2217 79.5304L76.588 81.3216L78.4232 80.8299L78.1644 79.864ZM104.172 6.35409L103.913 5.38817L103.405 5.52439L103.229 6.02056L104.172 6.35409ZM115.772 3.24569L116.715 3.57923L117.349 1.78801L115.514 2.27977L115.772 3.24569ZM89.5063 75.7896L77.9056 78.898L78.4232 80.8299L90.024 77.7215L89.5063 75.7896ZM79.1072 80.1975L105.114 6.68763L103.229 6.02056L77.2217 79.5304L79.1072 80.1975ZM104.431 7.32002L116.031 4.21162L115.514 2.27977L103.913 5.38817L104.431 7.32002ZM114.83 2.91216L88.8224 76.422L90.7079 77.0891L116.715 3.57923L114.83 2.91216ZM76.7632 51.593C72.307 52.787 68.1142 52.2814 64.7358 50.3466C61.36 48.4133 58.7116 45.0039 57.4323 40.2294L55.5004 40.747C56.9008 45.9732 59.8499 49.8532 63.7419 52.0821C67.6312 54.3095 72.3764 54.8389 77.2808 53.5248L76.7632 51.593ZM57.4323 40.2294C56.153 35.4549 56.7418 31.1781 58.6987 27.8159C60.6571 24.4511 64.0353 21.9168 68.4915 20.7228L67.9739 18.791C63.0695 20.1051 59.2247 22.9362 56.9702 26.8099C54.7141 30.6861 54.1001 35.5209 55.5004 40.747L57.4323 40.2294ZM68.4915 20.7228C72.9056 19.5401 77.078 20.0496 80.4474 21.9871C83.8144 23.9232 86.4631 27.3332 87.7424 32.1078L89.6743 31.5902C88.2739 26.3641 85.3251 22.4848 81.4443 20.2533C77.566 18.0232 72.8404 17.487 67.9739 18.791L68.4915 20.7228ZM87.7424 32.1078C89.0217 36.8824 88.4329 41.1599 86.4851 44.5201C84.5358 47.8827 81.1772 50.4102 76.7632 51.593L77.2808 53.5248C82.1473 52.2208 85.9717 49.3937 88.2154 45.5232C90.4605 41.6503 91.0746 36.8162 89.6743 31.5902L87.7424 32.1078ZM74.4296 42.8842C75.8533 42.5027 77.0699 41.7473 77.6588 40.2879C78.2139 38.912 78.1203 37.1132 77.5135 34.8486L75.5817 35.3663C76.1539 37.502 76.112 38.7763 75.804 39.5396C75.5298 40.2194 74.9685 40.6692 73.912 40.9523L74.4296 42.8842ZM77.5135 34.8486C76.8968 32.547 76.0742 30.9232 74.9051 29.9988C73.6621 29.0159 72.2282 28.9699 70.8036 29.3516L71.3212 31.2835C72.3768 31.0006 73.0852 31.1094 73.6646 31.5676C74.3179 32.0842 74.9979 33.1877 75.5817 35.3663L77.5135 34.8486ZM70.8036 29.3516C69.4089 29.7253 68.2136 30.4826 67.6425 31.9508C67.1062 33.3296 67.2042 35.1429 67.8212 37.4457L69.753 36.9281C69.1696 34.7505 69.2051 33.4508 69.5065 32.6758C69.7732 31.9901 70.3158 31.5529 71.3212 31.2835L70.8036 29.3516ZM67.8212 37.4457C68.4282 39.7113 69.2459 41.3116 70.3994 42.2271C71.6247 43.1997 73.036 43.2576 74.4296 42.8842L73.912 40.9523C72.9055 41.222 72.2145 41.1144 71.6428 40.6606C70.9991 40.1497 70.325 39.0627 69.753 36.9281L67.8212 37.4457ZM125.812 61.5167C121.398 62.6995 117.226 62.1899 113.857 60.2525C110.49 58.3164 107.841 54.9063 106.562 50.1317L104.63 50.6494C106.03 55.8754 108.979 59.7547 112.86 61.9863C116.738 64.2164 121.464 64.7526 126.33 63.4486L125.812 61.5167ZM106.562 50.1317C105.282 45.3571 105.871 41.0796 107.819 37.7194C109.768 34.3568 113.127 31.8293 117.541 30.6466L117.023 28.7147C112.157 30.0187 108.332 32.8459 106.089 36.7164C103.843 40.5893 103.229 45.4233 104.63 50.6494L106.562 50.1317ZM117.541 30.6466C121.997 29.4525 126.19 29.9582 129.568 31.893C132.944 33.8263 135.592 37.2357 136.872 42.0101L138.804 41.4925C137.403 36.2664 134.454 32.3863 130.562 30.1574C126.673 27.93 121.928 27.4006 117.023 28.7147L117.541 30.6466ZM136.872 42.0101C138.151 46.7846 137.562 51.0614 135.605 54.4236C133.647 57.7885 130.269 60.3227 125.812 61.5167L126.33 63.4486C131.234 62.1345 135.079 59.3034 137.334 55.4297C139.59 51.5534 140.204 46.7186 138.804 41.4925L136.872 42.0101ZM123.479 52.8079C124.933 52.4183 126.173 51.6629 126.775 50.1995C127.344 48.8174 127.249 47.0145 126.643 44.751L124.711 45.2686C125.283 47.4054 125.24 48.6755 124.926 49.438C124.646 50.1191 124.067 50.5797 122.961 50.8761L123.479 52.8079ZM126.643 44.751C126.017 42.4151 125.194 40.7811 124.007 39.8661C122.744 38.8935 121.292 38.8897 119.853 39.2754L120.371 41.2072C121.491 40.9069 122.211 41.0072 122.786 41.4503C123.435 41.9509 124.115 43.0442 124.711 45.2686L126.643 44.751ZM119.853 39.2754C118.474 39.6448 117.265 40.374 116.686 41.8396C116.143 43.2132 116.244 45.0314 116.87 47.3695L118.802 46.8518C118.207 44.6296 118.245 43.3347 118.546 42.5745C118.81 41.9063 119.349 41.4809 120.371 41.2072L119.853 39.2754ZM116.87 47.3695C117.478 49.635 118.295 51.2353 119.449 52.1509C120.674 53.1234 122.085 53.1814 123.479 52.8079L122.961 50.8761C121.955 51.1458 121.264 51.0381 120.692 50.5843C120.048 50.0735 119.374 48.9865 118.802 46.8518L116.87 47.3695Z" fill="#2C3034"/>
</g>
<defs>
<filter id="filter0_d_120_142" x="0.753906" y="0.308838" width="146.614" height="99.8398" filterUnits="userSpaceOnUse" color-interpolation-filters="sRGB">
<feFlood flood-opacity="0" result="BackgroundImageFix"/>
<feColorMatrix in="SourceAlpha" type="matrix" values="0 0 0 0 0 0 0 0 0 0 0 0 0 0 0 0 0 0 127 0" result="hardAlpha"/>
<feOffset dx="4" dy="4"/>
<feComposite in2="hardAlpha" operator="out"/>
<feColorMatrix type="matrix" values="0 0 0 0 0.933333 0 0 0 0 0.372549 0 0 0 0 0.627451 0 0 0 1 0"/>
<feBlend mode="normal" in2="BackgroundImageFix" result="effect1_dropShadow_120_142"/>
<feBlend mode="normal" in="SourceGraphic" in2="effect1_dropShadow_120_142" result="shape"/>
</filter>
<linearGradient id="paint0_linear_120_142" x1="-95.5" y1="99" x2="138.351" y2="32.5881" gradientUnits="userSpaceOnUse">
<stop stop-color="#FDD65F"/>
<stop offset="0.373259" stop-color="#FCA857"/>
<stop offset="0.706606" stop-color="#FC668B"/>
<stop offset="1" stop-color="#C74AD5"/>
</linearGradient>
</defs>
</svg>
