<svg width="112" height="85" viewBox="0 0 112 85" fill="none" xmlns="http://www.w3.org/2000/svg">
<g filter="url(#filter0_d_120_508)">
<path d="M39.2805 74.0401C26.7997 77.3843 16.2742 73.9449 11.5332 66.8119L19.33 54.9474C22.6393 60.5776 28.5157 62.3472 34.436 60.7608C38.9963 59.5389 41.0849 57.0928 40.2702 54.0526C39.4128 50.8524 36.2439 51.187 31.9237 52.3446L24.0032 54.4669L20.9805 43.1862L29.7811 40.8281C33.3813 39.8635 35.9671 38.3131 35.1525 35.2729C34.4022 32.4727 31.4562 31.7187 28.0159 32.6405C22.2556 34.1839 18.2056 38.2703 18.2133 44.6995L5.52882 38.3229C6.01531 30.2179 12.408 22.0738 24.8888 18.7295C37.2895 15.4068 46.4878 19.9735 48.7173 28.294C51.3327 38.0546 44.0025 43.02 36.162 45.1208C47.2827 42.141 54.8793 45.8507 57.0016 53.7712C59.5312 63.2118 51.1212 70.8674 39.2805 74.0401ZM81.5174 62.7228C72.0768 65.2524 64.35 59.7768 60.7271 46.256C57.1042 32.7352 61.0581 24.1298 69.6986 21.8146C78.1791 19.5423 82.7257 24.6694 85.5236 30.9512L78.6208 5.18958L93.0217 1.33088L107.385 54.9342L92.9838 58.7929L89.8968 47.2722C90.6732 54.0098 89.9979 60.4504 81.5174 62.7228ZM75.368 42.333C76.9329 48.1734 80.042 51.4562 84.6823 50.2129C87.7225 49.3982 89.8754 47.1922 88.1604 40.7918L87.2171 37.2716C85.5022 30.8712 82.3747 30.0799 79.1745 30.9374C74.7742 32.1165 73.8031 36.4926 75.368 42.333Z" fill="#2C3034"/>
<path d="M39.2805 74.0401C26.7997 77.3843 16.2742 73.9449 11.5332 66.8119L19.33 54.9474C22.6393 60.5776 28.5157 62.3472 34.436 60.7608C38.9963 59.5389 41.0849 57.0928 40.2702 54.0526C39.4128 50.8524 36.2439 51.187 31.9237 52.3446L24.0032 54.4669L20.9805 43.1862L29.7811 40.8281C33.3813 39.8635 35.9671 38.3131 35.1525 35.2729C34.4022 32.4727 31.4562 31.7187 28.0159 32.6405C22.2556 34.1839 18.2056 38.2703 18.2133 44.6995L5.52882 38.3229C6.01531 30.2179 12.408 22.0738 24.8888 18.7295C37.2895 15.4068 46.4878 19.9735 48.7173 28.294C51.3327 38.0546 44.0025 43.02 36.162 45.1208C47.2827 42.141 54.8793 45.8507 57.0016 53.7712C59.5312 63.2118 51.1212 70.8674 39.2805 74.0401ZM81.5174 62.7228C72.0768 65.2524 64.35 59.7768 60.7271 46.256C57.1042 32.7352 61.0581 24.1298 69.6986 21.8146C78.1791 19.5423 82.7257 24.6694 85.5236 30.9512L78.6208 5.18958L93.0217 1.33088L107.385 54.9342L92.9838 58.7929L89.8968 47.2722C90.6732 54.0098 89.9979 60.4504 81.5174 62.7228ZM75.368 42.333C76.9329 48.1734 80.042 51.4562 84.6823 50.2129C87.7225 49.3982 89.8754 47.1922 88.1604 40.7918L87.2171 37.2716C85.5022 30.8712 82.3747 30.0799 79.1745 30.9374C74.7742 32.1165 73.8031 36.4926 75.368 42.333Z" fill="url(#paint0_linear_120_508)"/>
<path d="M11.5332 66.8119L10.6975 66.2627L10.3345 66.815L10.7004 67.3654L11.5332 66.8119ZM19.33 54.9474L20.1921 54.4406L19.3773 53.0545L18.4943 54.3982L19.33 54.9474ZM24.0032 54.4669L23.0373 54.7257L23.2961 55.6917L24.262 55.4328L24.0032 54.4669ZM20.9805 43.1862L20.7217 42.2203L19.7558 42.4791L20.0146 43.4451L20.9805 43.1862ZM18.2133 44.6995L17.7641 45.5929L19.2152 46.3224L19.2133 44.6983L18.2133 44.6995ZM5.52882 38.3229L4.53062 38.2629L4.49115 38.9205L5.07967 39.2163L5.52882 38.3229ZM39.0216 73.0742C26.8052 76.3476 16.7933 72.9194 12.366 66.2584L10.7004 67.3654C15.7551 74.9705 26.7942 78.4211 39.5393 75.006L39.0216 73.0742ZM12.3689 67.3611L20.1657 55.4965L18.4943 54.3982L10.6975 66.2627L12.3689 67.3611ZM18.4679 55.4541C22.0398 61.531 28.41 63.4108 34.6949 61.7268L34.1772 59.7949C28.6214 61.2836 23.2389 59.6241 20.1921 54.4406L18.4679 55.4541ZM34.6949 61.7268C37.0776 61.0883 38.9534 60.0966 40.1249 58.743C41.3361 57.3435 41.7278 55.6286 41.2362 53.7938L39.3043 54.3115C39.6273 55.5169 39.382 56.5451 38.6126 57.4342C37.8034 58.3692 36.3547 59.2114 34.1772 59.7949L34.6949 61.7268ZM41.2362 53.7938C40.9794 52.8357 40.5251 52.0604 39.8486 51.5018C39.177 50.9473 38.3675 50.6733 37.5139 50.5715C35.8596 50.3742 33.8134 50.803 31.6649 51.3787L32.1825 53.3106C34.3542 52.7287 36.0526 52.4114 37.2771 52.5574C37.8629 52.6273 38.2765 52.7974 38.5752 53.044C38.869 53.2866 39.1323 53.6695 39.3043 54.3115L41.2362 53.7938ZM31.6649 51.3787L23.7444 53.501L24.262 55.4328L32.1825 53.3106L31.6649 51.3787ZM24.9691 54.2081L21.9465 42.9274L20.0146 43.4451L23.0373 54.7257L24.9691 54.2081ZM21.2394 44.1522L30.0399 41.7941L29.5223 39.8622L20.7217 42.2203L21.2394 44.1522ZM30.0399 41.7941C31.8753 41.3023 33.6122 40.6251 34.7884 39.5747C35.3917 39.036 35.8689 38.3803 36.1175 37.5867C36.3669 36.7903 36.3631 35.9275 36.1184 35.0141L34.1866 35.5317C34.3491 36.1385 34.3277 36.6095 34.2089 36.989C34.0891 37.3713 33.8477 37.7335 33.4563 38.0829C32.6432 38.809 31.2871 39.3893 29.5223 39.8622L30.0399 41.7941ZM36.1184 35.0141C35.6509 33.2692 34.4681 32.1359 32.9113 31.613C31.4032 31.1064 29.5932 31.1826 27.7571 31.6745L28.2748 33.6064C29.8789 33.1765 31.262 33.1688 32.2745 33.5089C33.2384 33.8327 33.9038 34.4764 34.1866 35.5317L36.1184 35.0141ZM27.7571 31.6745C24.724 32.4872 22.081 33.9859 20.1927 36.1867C18.2955 38.3979 17.2092 41.2623 17.2133 44.7006L19.2133 44.6983C19.2097 41.7075 20.1446 39.3141 21.7105 37.489C23.2854 35.6535 25.5475 34.3371 28.2748 33.6064L27.7571 31.6745ZM18.6624 43.806L5.97797 37.4294L5.07967 39.2163L17.7641 45.5929L18.6624 43.806ZM6.52703 38.3828C6.98172 30.8074 12.9768 22.9566 25.1476 19.6955L24.63 17.7636C11.8392 21.1909 5.0489 29.6283 4.53062 38.2629L6.52703 38.3828ZM25.1476 19.6955C31.1844 18.0779 36.3468 18.406 40.2239 20.0649C44.085 21.717 46.7201 24.7042 47.7514 28.5528L49.6832 28.0352C48.485 23.5634 45.4063 20.1069 41.0107 18.2262C36.631 16.3523 30.9939 16.0584 24.63 17.7636L25.1476 19.6955ZM47.7514 28.5528C48.9736 33.1141 47.8706 36.4414 45.6219 38.9058C43.3192 41.4293 39.7359 43.1279 35.9032 44.1549L36.4208 46.0867C40.4285 45.0129 44.4306 43.1784 47.0993 40.2539C49.8219 37.2702 51.0764 33.2346 49.6832 28.0352L47.7514 28.5528ZM36.4208 46.0867C41.838 44.6352 46.272 44.8474 49.5576 46.2755C52.8133 47.6906 55.0479 50.3433 56.0357 54.03L57.9676 53.5124C56.8331 49.2786 54.2082 46.1161 50.3548 44.4413C46.5313 42.7794 41.6067 42.6266 35.9032 44.1549L36.4208 46.0867ZM56.0357 54.03C57.1953 58.3577 55.875 62.2865 52.7997 65.5728C49.6983 68.8872 44.8228 71.5198 39.0216 73.0742L39.5393 75.006C45.5789 73.3877 50.8287 70.6062 54.2601 66.9394C57.7176 63.2445 59.3375 58.6252 57.9676 53.5124L56.0357 54.03ZM85.5236 30.9512L84.6101 31.358L86.4895 30.6923L85.5236 30.9512ZM78.6208 5.18959L78.362 4.22366L77.3961 4.48248L77.6549 5.44841L78.6208 5.18959ZM93.0217 1.33088L93.9876 1.07206L93.7288 0.106135L92.7629 0.364954L93.0217 1.33088ZM107.385 54.9342L107.643 55.9001L108.609 55.6413L108.351 54.6753L107.385 54.9342ZM92.9838 58.7929L92.0178 59.0517L92.2766 60.0176L93.2426 59.7588L92.9838 58.7929ZM89.8968 47.2722L90.8627 47.0133L88.9034 47.3866L89.8968 47.2722ZM81.2586 61.7568C76.804 62.9504 72.8409 62.2476 69.5504 59.7158C66.2224 57.155 63.4721 52.6368 61.693 45.9972L59.7612 46.5148C61.605 53.3961 64.5296 58.376 68.3308 61.3008C72.1696 64.2546 76.7903 65.0247 81.7762 63.6887L81.2586 61.7568ZM61.693 45.9972C59.9144 39.3591 60.034 34.0617 61.5454 30.1975C63.0404 26.3751 65.9311 23.8594 69.9574 22.7805L69.4398 20.8487C64.8256 22.0851 61.4191 25.0297 59.6828 29.469C57.9628 33.8664 57.917 39.6321 59.7612 46.5148L61.693 45.9972ZM69.9574 22.7805C73.9409 21.7132 76.8876 22.3972 79.1685 23.9943C81.4991 25.6261 83.2423 28.2871 84.6101 31.358L86.4371 30.5443C85.007 27.3335 83.0779 24.29 80.3156 22.3559C77.5037 20.3871 73.9368 19.6437 69.4398 20.8487L69.9574 22.7805ZM86.4895 30.6923L79.5867 4.93077L77.6549 5.44841L84.5577 31.21L86.4895 30.6923ZM78.8796 6.15551L93.2805 2.29681L92.7629 0.364954L78.362 4.22366L78.8796 6.15551ZM92.0558 1.5897L106.419 55.193L108.351 54.6753L93.9876 1.07206L92.0558 1.5897ZM107.126 53.9682L92.7249 57.8269L93.2426 59.7588L107.643 55.9001L107.126 53.9682ZM93.9497 58.5341L90.8627 47.0133L88.9309 47.531L92.0178 59.0517L93.9497 58.5341ZM88.9034 47.3866C89.2875 50.7205 89.2842 53.7999 88.2544 56.2897C87.2575 58.6998 85.2415 60.6896 81.2586 61.7568L81.7762 63.6887C86.2738 62.4836 88.8357 60.1169 90.1025 57.0542C91.3363 54.0712 91.2824 50.5615 90.8902 47.1577L88.9034 47.3866ZM74.4021 42.5918C75.2084 45.6009 76.4461 48.094 78.2035 49.6732C80.0166 51.3023 82.3055 51.885 84.9411 51.1788L84.4235 49.2469C82.4188 49.7841 80.833 49.3471 79.5403 48.1855C78.1919 46.9739 77.0926 44.9054 76.3339 42.0742L74.4021 42.5918ZM84.9411 51.1788C86.6178 50.7295 88.2272 49.8445 89.1045 48.0328C89.9608 46.2648 90.0101 43.8312 89.1263 40.5329L87.1944 41.0506C88.0257 44.1527 87.856 46.0224 87.3045 47.1611C86.7741 48.2563 85.787 48.8816 84.4235 49.2469L84.9411 51.1788ZM89.1263 40.5329L88.1831 37.0127L86.2512 37.5304L87.1944 41.0506L89.1263 40.5329ZM88.1831 37.0127C87.2962 33.7029 85.9896 31.6235 84.2906 30.5397C82.565 29.439 80.6583 29.5046 78.9157 29.9715L79.4333 31.9033C80.8909 31.5128 82.148 31.5452 83.215 32.2259C84.3084 32.9234 85.4231 34.4398 86.2512 37.5304L88.1831 37.0127ZM78.9157 29.9715C76.3774 30.6516 74.7734 32.2991 74.0772 34.5973C73.403 36.823 73.597 39.5873 74.4021 42.5918L76.3339 42.0742C75.5741 39.2383 75.4712 36.8944 75.9914 35.1771C76.4896 33.5324 77.5713 32.4023 79.4333 31.9033L78.9157 29.9715Z" fill="#2C3034"/>
</g>
<defs>
<filter id="filter0_d_120_508" x="0.407227" y="0.530884" width="111.191" height="83.9618" filterUnits="userSpaceOnUse" color-interpolation-filters="sRGB">
<feFlood flood-opacity="0" result="BackgroundImageFix"/>
<feColorMatrix in="SourceAlpha" type="matrix" values="0 0 0 0 0 0 0 0 0 0 0 0 0 0 0 0 0 0 127 0" result="hardAlpha"/>
<feOffset dx="4" dy="4"/>
<feComposite in2="hardAlpha" operator="out"/>
<feColorMatrix type="matrix" values="0 0 0 0 0.933333 0 0 0 0 0.372549 0 0 0 0 0.627451 0 0 0 1 0"/>
<feBlend mode="normal" in2="BackgroundImageFix" result="effect1_dropShadow_120_508"/>
<feBlend mode="normal" in="SourceGraphic" in2="effect1_dropShadow_120_508" result="shape"/>
</filter>
<linearGradient id="paint0_linear_120_508" x1="-68.1902" y1="79.1268" x2="104.41" y2="30.8395" gradientUnits="userSpaceOnUse">
<stop stop-color="#FDD65F"/>
<stop offset="0.373259" stop-color="#FCA857"/>
<stop offset="0.706606" stop-color="#FC668B"/>
<stop offset="1" stop-color="#C74AD5"/>
</linearGradient>
</defs>
</svg>
