<svg width="219" height="120" viewBox="0 0 219 120" fill="none" xmlns="http://www.w3.org/2000/svg">
<g filter="url(#filter0_d_605_112)">
<path d="M36.1121 107.092C29.125 108.964 22.7955 108.916 17.1234 106.949L19.1636 90.8817C23.5946 93.1244 27.997 93.6598 32.3706 92.4879C35.4108 91.6733 37.4294 90.2463 38.4264 88.207C39.4235 86.1677 39.4147 83.2546 38.4 79.4677L37.4996 76.1075C37.3465 78.9496 36.35 81.4175 34.51 83.5112C32.67 85.6049 30.0966 87.0948 26.7897 87.9808C21.7227 89.3385 17.47 88.9346 14.0314 86.769C10.6319 84.5357 8.26755 80.939 6.93844 75.9787C5.38066 70.165 6.15172 65.0421 9.2516 60.61C12.3372 56.1246 17.1869 52.9958 23.8006 51.2237C31.6411 49.1228 38.0374 49.9528 42.9896 53.7137C47.9274 57.4212 51.5111 63.4352 53.7406 71.7557L54.1265 73.1958C56.4274 81.783 56.107 89.0146 53.1654 94.8906C50.2237 100.767 44.5393 104.834 36.1121 107.092ZM31.5635 77.9553C33.697 77.3836 35.1061 76.3487 35.7908 74.8504C36.4755 73.3521 36.5606 71.6429 36.0461 69.7228C34.8599 65.2958 32.1866 63.6397 28.0264 64.7545C25.7863 65.3547 24.2705 66.4183 23.4791 67.9451C22.6735 69.4187 22.5422 71.1688 23.0853 73.1956C23.5855 75.0624 24.5671 76.4858 26.0302 77.4657C27.5323 78.378 29.3767 78.5412 31.5635 77.9553ZM81.2512 94.1392L66.8503 97.9979L63.1845 84.317L77.5854 80.4583L81.2512 94.1392ZM110.245 87.2277C104.325 88.814 98.9899 88.9574 94.2398 87.6577C89.5288 86.2903 85.9655 83.8723 83.5497 80.4037L92.4608 67.8976C93.9364 70.4177 95.8734 72.0995 98.2718 72.9432C100.656 73.7336 103.181 73.7714 105.848 73.0569C108.142 72.4423 109.771 71.3769 110.737 69.8605C111.756 68.3298 111.965 66.4444 111.365 64.2042C110.808 62.1241 109.758 60.6617 108.217 59.817C106.676 58.9723 104.679 58.8786 102.225 59.536C98.4917 60.5364 96.5503 62.5715 96.401 65.6413L96.3853 65.9028L82.42 68.187L76.5469 37.9478L114.789 27.7008L118.219 40.5016L93.0977 47.2329L95.8735 61.7525C96.1475 58.9351 97.2703 56.4048 99.2417 54.1616C101.213 51.9183 103.959 50.3251 107.479 49.3819C112.119 48.1385 116.278 48.5106 119.955 50.498C123.631 52.4855 126.198 56.1994 127.656 61.6397C129.228 67.5068 128.36 72.7987 125.05 77.5156C121.794 82.2182 116.859 85.4555 110.245 87.2277ZM160.595 77.4237L148.995 80.5321L175.002 7.02223L186.603 3.91383L160.595 77.4237ZM147.852 53.227C143.105 54.499 138.811 54.0488 134.971 51.8766C131.184 49.6901 128.626 46.1167 127.296 41.1563C125.967 36.196 126.396 31.8223 128.583 28.0351C130.822 24.2337 134.316 21.697 139.063 20.425C143.756 19.1674 147.997 19.6318 151.784 21.8183C155.625 23.9906 158.209 27.5568 159.538 32.5171C160.868 37.4774 160.412 41.8583 158.172 45.6598C155.986 49.447 152.546 51.9694 147.852 53.227ZM145.001 42.5864C146.334 42.2291 147.207 41.538 147.618 40.5131C148.03 39.4882 147.949 37.9091 147.378 35.7756C146.806 33.6421 146.086 32.2345 145.217 31.5526C144.334 30.8173 143.226 30.6284 141.893 30.9857C139.332 31.6717 138.574 33.9614 139.617 37.855C140.646 41.6952 142.441 43.2724 145.001 42.5864ZM196.901 63.1508C192.208 64.4085 187.941 63.9512 184.1 61.7789C180.313 59.5924 177.755 56.019 176.426 51.0587C175.097 46.0984 175.525 41.7246 177.712 37.9375C179.952 34.136 183.418 31.6064 188.112 30.3488C192.859 29.0768 197.126 29.5341 200.913 31.7207C204.754 33.8929 207.339 37.4592 208.668 42.4195C209.997 47.3798 209.541 51.7607 207.302 55.5621C205.115 59.3493 201.648 61.8789 196.901 63.1508ZM194.05 52.5101C195.384 52.1529 196.256 51.4618 196.667 50.4369C197.132 49.3977 197.079 47.8114 196.507 45.6779C195.921 43.4911 195.167 42.0639 194.245 41.3963C193.376 40.7144 192.275 40.5521 190.942 40.9094C189.662 41.2524 188.816 41.9364 188.405 42.9613C187.993 43.9861 188.081 45.592 188.667 47.7788C189.696 51.619 191.49 53.1961 194.05 52.5101Z" fill="#2C3034"/>
<path d="M36.1121 107.092C29.125 108.964 22.7955 108.916 17.1234 106.949L19.1636 90.8817C23.5946 93.1244 27.997 93.6598 32.3706 92.4879C35.4108 91.6733 37.4294 90.2463 38.4264 88.207C39.4235 86.1677 39.4147 83.2546 38.4 79.4677L37.4996 76.1075C37.3465 78.9496 36.35 81.4175 34.51 83.5112C32.67 85.6049 30.0966 87.0948 26.7897 87.9808C21.7227 89.3385 17.47 88.9346 14.0314 86.769C10.6319 84.5357 8.26755 80.939 6.93844 75.9787C5.38066 70.165 6.15172 65.0421 9.2516 60.61C12.3372 56.1246 17.1869 52.9958 23.8006 51.2237C31.6411 49.1228 38.0374 49.9528 42.9896 53.7137C47.9274 57.4212 51.5111 63.4352 53.7406 71.7557L54.1265 73.1958C56.4274 81.783 56.107 89.0146 53.1654 94.8906C50.2237 100.767 44.5393 104.834 36.1121 107.092ZM31.5635 77.9553C33.697 77.3836 35.1061 76.3487 35.7908 74.8504C36.4755 73.3521 36.5606 71.6429 36.0461 69.7228C34.8599 65.2958 32.1866 63.6397 28.0264 64.7545C25.7863 65.3547 24.2705 66.4183 23.4791 67.9451C22.6735 69.4187 22.5422 71.1688 23.0853 73.1956C23.5855 75.0624 24.5671 76.4858 26.0302 77.4657C27.5323 78.378 29.3767 78.5412 31.5635 77.9553ZM81.2512 94.1392L66.8503 97.9979L63.1845 84.317L77.5854 80.4583L81.2512 94.1392ZM110.245 87.2277C104.325 88.814 98.9899 88.9574 94.2398 87.6577C89.5288 86.2903 85.9655 83.8723 83.5497 80.4037L92.4608 67.8976C93.9364 70.4177 95.8734 72.0995 98.2718 72.9432C100.656 73.7336 103.181 73.7714 105.848 73.0569C108.142 72.4423 109.771 71.3769 110.737 69.8605C111.756 68.3298 111.965 66.4444 111.365 64.2042C110.808 62.1241 109.758 60.6617 108.217 59.817C106.676 58.9723 104.679 58.8786 102.225 59.536C98.4917 60.5364 96.5503 62.5715 96.401 65.6413L96.3853 65.9028L82.42 68.187L76.5469 37.9478L114.789 27.7008L118.219 40.5016L93.0977 47.2329L95.8735 61.7525C96.1475 58.9351 97.2703 56.4048 99.2417 54.1616C101.213 51.9183 103.959 50.3251 107.479 49.3819C112.119 48.1385 116.278 48.5106 119.955 50.498C123.631 52.4855 126.198 56.1994 127.656 61.6397C129.228 67.5068 128.36 72.7987 125.05 77.5156C121.794 82.2182 116.859 85.4555 110.245 87.2277ZM160.595 77.4237L148.995 80.5321L175.002 7.02223L186.603 3.91383L160.595 77.4237ZM147.852 53.227C143.105 54.499 138.811 54.0488 134.971 51.8766C131.184 49.6901 128.626 46.1167 127.296 41.1563C125.967 36.196 126.396 31.8223 128.583 28.0351C130.822 24.2337 134.316 21.697 139.063 20.425C143.756 19.1674 147.997 19.6318 151.784 21.8183C155.625 23.9906 158.209 27.5568 159.538 32.5171C160.868 37.4774 160.412 41.8583 158.172 45.6598C155.986 49.447 152.546 51.9694 147.852 53.227ZM145.001 42.5864C146.334 42.2291 147.207 41.538 147.618 40.5131C148.03 39.4882 147.949 37.9091 147.378 35.7756C146.806 33.6421 146.086 32.2345 145.217 31.5526C144.334 30.8173 143.226 30.6284 141.893 30.9857C139.332 31.6717 138.574 33.9614 139.617 37.855C140.646 41.6952 142.441 43.2724 145.001 42.5864ZM196.901 63.1508C192.208 64.4085 187.941 63.9512 184.1 61.7789C180.313 59.5924 177.755 56.019 176.426 51.0587C175.097 46.0984 175.525 41.7246 177.712 37.9375C179.952 34.136 183.418 31.6064 188.112 30.3488C192.859 29.0768 197.126 29.5341 200.913 31.7207C204.754 33.8929 207.339 37.4592 208.668 42.4195C209.997 47.3798 209.541 51.7607 207.302 55.5621C205.115 59.3493 201.648 61.8789 196.901 63.1508ZM194.05 52.5101C195.384 52.1529 196.256 51.4618 196.667 50.4369C197.132 49.3977 197.079 47.8114 196.507 45.6779C195.921 43.4911 195.167 42.0639 194.245 41.3963C193.376 40.7144 192.275 40.5521 190.942 40.9094C189.662 41.2524 188.816 41.9364 188.405 42.9613C187.993 43.9861 188.081 45.592 188.667 47.7788C189.696 51.619 191.49 53.1961 194.05 52.5101Z" fill="url(#paint0_linear_605_112)"/>
<path d="M17.1234 106.949L16.1313 106.823L16.0291 107.628L16.7957 107.894L17.1234 106.949ZM19.1636 90.8817L19.6152 89.9895L18.3502 89.3492L18.1716 90.7558L19.1636 90.8817ZM37.4996 76.1075L38.4655 75.8487L36.501 76.0537L37.4996 76.1075ZM34.51 83.5112L35.2611 84.1713L35.2611 84.1713L34.51 83.5112ZM14.0314 86.769L13.4823 87.6048L13.4904 87.61L13.4985 87.6151L14.0314 86.769ZM9.2516 60.61L10.0711 61.1832L10.0755 61.1768L9.2516 60.61ZM42.9896 53.7137L42.3848 54.5101L42.3891 54.5134L42.9896 53.7137ZM53.1654 94.8906L54.0596 95.3382L54.0596 95.3382L53.1654 94.8906ZM23.4791 67.9451L24.3566 68.4249L24.3619 68.4151L24.367 68.4053L23.4791 67.9451ZM26.0302 77.4657L25.4737 78.2966L25.4921 78.3089L25.5111 78.3204L26.0302 77.4657ZM35.8533 106.126C29.0192 107.957 22.8983 107.894 17.4511 106.004L16.7957 107.894C22.6926 109.939 29.2308 109.971 36.371 108.058L35.8533 106.126ZM18.1154 107.075L20.1556 91.0077L18.1716 90.7558L16.1313 106.823L18.1154 107.075ZM18.712 91.774C23.3397 94.1162 27.9942 94.6958 32.6294 93.4538L32.1118 91.5219C27.9997 92.6238 23.8496 92.1326 19.6152 89.9895L18.712 91.774ZM32.6294 93.4538C35.8364 92.5945 38.1573 91.0342 39.3248 88.6462L37.5281 87.7678C36.7015 89.4584 34.9851 90.752 32.1118 91.5219L32.6294 93.4538ZM39.3248 88.6462C40.4818 86.2799 40.4016 83.0742 39.3659 79.2089L37.434 79.7265C38.4277 83.435 38.3652 86.0555 37.5281 87.7678L39.3248 88.6462ZM39.3659 79.2089L38.4655 75.8487L36.5337 76.3663L37.434 79.7265L39.3659 79.2089ZM36.501 76.0537C36.3597 78.6768 35.4473 80.9299 33.7588 82.8511L35.2611 84.1713C37.2527 81.9052 38.3332 79.2224 38.4981 76.1613L36.501 76.0537ZM33.7588 82.8511C32.0762 84.7657 29.6909 86.1682 26.5309 87.0149L27.0485 88.9468C30.5022 88.0213 33.2638 86.4441 35.2611 84.1713L33.7588 82.8511ZM26.5309 87.0149C21.6502 88.3227 17.7033 87.8997 14.5643 85.9228L13.4985 87.6151C17.2366 89.9694 21.7953 90.3544 27.0485 88.9468L26.5309 87.0149ZM14.5804 85.9332C11.4355 83.8672 9.18723 80.5076 7.90436 75.7198L5.97251 76.2375C7.34786 81.3704 9.8282 85.2043 13.4823 87.6048L14.5804 85.9332ZM7.90436 75.7198C6.41332 70.1552 7.1609 65.344 10.0711 61.1832L8.43214 60.0369C5.14254 64.7402 4.348 70.1747 5.97251 76.2375L7.90436 75.7198ZM10.0755 61.1768C12.9943 56.9338 17.6145 53.9165 24.0594 52.1896L23.5418 50.2578C16.7592 52.0752 11.6801 55.3154 8.42772 60.0433L10.0755 61.1768ZM24.0594 52.1896C31.7003 50.1422 37.7503 50.9905 42.3848 54.5101L43.5944 52.9173C38.3245 48.9152 31.5818 48.1034 23.5418 50.2578L24.0594 52.1896ZM42.3891 54.5134C47.0893 58.0424 50.5806 63.8263 52.7747 72.0145L54.7065 71.4969C52.4416 63.0441 48.7656 56.8 43.59 52.914L42.3891 54.5134ZM52.7747 72.0145L53.1605 73.4546L55.0924 72.937L54.7065 71.4969L52.7747 72.0145ZM53.1605 73.4546C55.4207 81.8897 55.0697 88.8528 52.2712 94.4429L54.0596 95.3382C57.1444 89.1764 57.4341 81.6763 55.0924 72.937L53.1605 73.4546ZM52.2712 94.4429C49.4959 99.9865 44.0998 103.916 35.8533 106.126L36.371 108.058C44.9788 105.751 50.9515 101.547 54.0596 95.3382L52.2712 94.4429ZM31.8224 78.9212C34.1395 78.3003 35.8528 77.1206 36.7003 75.266L34.8812 74.4347C34.3594 75.5767 33.2545 76.4669 31.3047 76.9894L31.8224 78.9212ZM36.7003 75.266C37.5005 73.5149 37.5737 71.5604 37.012 69.464L35.0801 69.9816C35.5474 71.7254 35.4504 73.1892 34.8812 74.4347L36.7003 75.266ZM37.012 69.464C36.3829 67.116 35.3124 65.3229 33.6781 64.3104C32.0303 63.2895 30.0125 63.187 27.7676 63.7886L28.2852 65.7204C30.2006 65.2072 31.5995 65.3754 32.6249 66.0106C33.6638 66.6542 34.5231 67.9026 35.0801 69.9816L37.012 69.464ZM27.7676 63.7886C25.3548 64.4351 23.5525 65.6304 22.5913 67.485L24.367 68.4053C24.9885 67.2062 26.2177 66.2744 28.2852 65.7204L27.7676 63.7886ZM22.6017 67.4654C21.6438 69.2174 21.5271 71.2442 22.1193 73.4544L24.0512 72.9368C23.5573 71.0934 23.7032 69.6199 24.3566 68.4249L22.6017 67.4654ZM22.1193 73.4544C22.6757 75.5306 23.7892 77.1683 25.4737 78.2966L26.5867 76.6349C25.345 75.8032 24.4953 74.5942 24.0512 72.9368L22.1193 73.4544ZM25.5111 78.3204C27.3088 79.4123 29.4519 79.5564 31.8224 78.9212L31.3047 76.9894C29.3015 77.5261 27.7557 77.3438 26.5493 76.611L25.5111 78.3204ZM81.2512 94.1392L81.51 95.1051L82.4759 94.8463L82.2171 93.8804L81.2512 94.1392ZM66.8503 97.9979L65.8844 98.2567L66.1432 99.2226L67.1091 98.9638L66.8503 97.9979ZM63.1845 84.317L62.9257 83.3511L61.9598 83.6099L62.2186 84.5759L63.1845 84.317ZM77.5854 80.4583L78.5513 80.1995L78.2925 79.2336L77.3266 79.4924L77.5854 80.4583ZM80.9924 93.1733L66.5915 97.032L67.1091 98.9638L81.51 95.1051L80.9924 93.1733ZM67.8162 97.7391L64.1504 84.0582L62.2186 84.5759L65.8844 98.2567L67.8162 97.7391ZM63.4433 85.283L77.8442 81.4243L77.3266 79.4924L62.9257 83.3511L63.4433 85.283ZM76.6195 80.7172L80.2852 94.398L82.2171 93.8804L78.5513 80.1995L76.6195 80.7172ZM94.2398 87.6577L93.9611 88.618L93.9685 88.6202L93.9759 88.6222L94.2398 87.6577ZM83.5497 80.4037L82.7353 79.8234L82.3265 80.3971L82.7291 80.9752L83.5497 80.4037ZM92.4608 67.8976L93.3238 67.3923L92.5431 66.0589L91.6464 67.3173L92.4608 67.8976ZM98.2718 72.9432L97.9399 73.8866L97.9485 73.8896L97.9571 73.8924L98.2718 72.9432ZM110.737 69.8605L109.904 69.3063L109.899 69.3148L109.893 69.3233L110.737 69.8605ZM96.401 65.6413L97.3993 65.7013L97.3998 65.6899L96.401 65.6413ZM96.3853 65.9028L96.5467 66.8897L97.3356 66.7606L97.3835 65.9627L96.3853 65.9028ZM82.42 68.187L81.4384 68.3777L81.6234 69.3306L82.5814 69.1739L82.42 68.187ZM76.5469 37.9478L76.2881 36.9819L75.3875 37.2232L75.5653 38.1385L76.5469 37.9478ZM114.789 27.7008L115.755 27.442L115.496 26.4761L114.53 26.7349L114.789 27.7008ZM118.219 40.5016L118.478 41.4676L119.444 41.2087L119.185 40.2428L118.219 40.5016ZM93.0977 47.2329L92.8389 46.267L91.9409 46.5076L92.1155 47.4207L93.0977 47.2329ZM95.8735 61.7525L94.8913 61.9403L96.8688 61.8493L95.8735 61.7525ZM99.2417 54.1616L99.9928 54.8217L99.9928 54.8217L99.2417 54.1616ZM119.955 50.498L119.479 51.3777L119.479 51.3777L119.955 50.498ZM125.05 77.5156L124.232 76.9412L124.228 76.9463L125.05 77.5156ZM109.987 86.2618C104.196 87.8133 99.0456 87.9359 94.5038 86.6931L93.9759 88.6222C98.9342 89.9789 104.454 89.8147 110.504 88.1936L109.987 86.2618ZM94.5186 86.6973C89.9904 85.383 86.6348 83.0837 84.3703 79.8322L82.7291 80.9752C85.2961 84.661 89.0673 87.1976 93.9611 88.618L94.5186 86.6973ZM84.3641 80.984L93.2753 68.4779L91.6464 67.3173L82.7353 79.8234L84.3641 80.984ZM91.5979 68.4029C93.1743 71.0951 95.2855 72.9528 97.9399 73.8866L98.6036 71.9999C96.4613 71.2463 94.6986 69.7402 93.3238 67.3923L91.5979 68.4029ZM97.9571 73.8924C100.545 74.7503 103.271 74.7827 106.107 74.0228L105.589 72.0909C103.092 72.7602 100.767 72.7168 98.5864 71.994L97.9571 73.8924ZM106.107 74.0228C108.563 73.3647 110.442 72.1853 111.58 70.3976L109.893 69.3233C109.1 70.5684 107.72 71.5199 105.589 72.0909L106.107 74.0228ZM111.569 70.4146C112.787 68.5848 112.985 66.3852 112.331 63.9454L110.399 64.463C110.946 66.5035 110.724 68.0747 109.904 69.3063L111.569 70.4146ZM112.331 63.9454C111.72 61.6653 110.531 59.9445 108.698 58.9401L107.737 60.6939C108.986 61.3788 109.895 62.5829 110.399 64.463L112.331 63.9454ZM108.698 58.9401C106.847 57.9258 104.558 57.8756 101.966 58.5701L102.484 60.502C104.799 59.8816 106.505 60.0187 107.737 60.6939L108.698 58.9401ZM101.966 58.5701C99.9861 59.1007 98.3817 59.9313 97.2454 61.1224C96.093 62.3304 95.4873 63.8418 95.4022 65.5928L97.3998 65.6899C97.4639 64.371 97.9036 63.33 98.6926 62.5029C99.4977 61.659 100.731 60.9717 102.484 60.502L101.966 58.5701ZM95.4028 65.5814L95.3871 65.8429L97.3835 65.9627L97.3992 65.7012L95.4028 65.5814ZM96.2239 64.9159L82.2586 67.2001L82.5814 69.1739L96.5467 66.8897L96.2239 64.9159ZM83.4017 67.9964L77.5286 37.7572L75.5653 38.1385L81.4384 68.3777L83.4017 67.9964ZM76.8058 38.9138L115.048 28.6668L114.53 26.7349L76.2881 36.9819L76.8058 38.9138ZM113.823 27.9597L117.253 40.7604L119.185 40.2428L115.755 27.442L113.823 27.9597ZM117.96 39.5357L92.8389 46.267L93.3565 48.1988L118.478 41.4676L117.96 39.5357ZM92.1155 47.4207L94.8913 61.9403L96.8557 61.5647L94.0799 47.0451L92.1155 47.4207ZM96.8688 61.8493C97.1214 59.2525 98.1518 56.9166 99.9928 54.8217L98.4905 53.5014C96.3888 55.893 95.1737 58.6177 94.8782 61.6557L96.8688 61.8493ZM99.9928 54.8217C101.808 52.7566 104.366 51.2513 107.738 50.3478L107.22 48.4159C103.552 49.3989 100.618 51.08 98.4905 53.5014L99.9928 54.8217ZM107.738 50.3478C112.171 49.1599 116.061 49.53 119.479 51.3777L120.43 49.6183C116.495 47.4911 112.068 47.1171 107.22 48.4159L107.738 50.3478ZM119.479 51.3777C122.839 53.1938 125.278 56.6279 126.69 61.8986L128.622 61.3809C127.119 55.7709 124.424 51.7772 120.43 49.6183L119.479 51.3777ZM126.69 61.8986C128.19 67.4975 127.361 72.4812 124.232 76.9412L125.869 78.0899C129.358 73.1162 130.266 67.5161 128.622 61.3809L126.69 61.8986ZM124.228 76.9463C121.132 81.4174 116.419 84.5383 109.987 86.2618L110.504 88.1936C117.3 86.3728 122.456 83.0189 125.872 78.0849L124.228 76.9463ZM160.595 77.4237L160.854 78.3896L161.362 78.2534L161.538 77.7572L160.595 77.4237ZM148.995 80.5321L148.052 80.1986L147.418 81.9898L149.253 81.498L148.995 80.5321ZM175.002 7.02223L174.743 6.0563L174.235 6.19252L174.059 6.6887L175.002 7.02223ZM186.603 3.91383L187.545 4.24736L188.179 2.45614L186.344 2.9479L186.603 3.91383ZM134.971 51.8766L134.471 52.7427L134.479 52.747L134.971 51.8766ZM128.583 28.0351L127.721 27.5275L127.717 27.5351L128.583 28.0351ZM151.784 21.8183L151.284 22.6844L151.292 22.6887L151.784 21.8183ZM158.172 45.6598L157.311 45.1521L157.306 45.1598L158.172 45.6598ZM147.618 40.5131L146.69 40.1406L147.618 40.5131ZM145.217 31.5526L144.577 32.3211L144.588 32.3303L144.6 32.3392L145.217 31.5526ZM184.1 61.7789L183.6 62.645L183.608 62.6493L184.1 61.7789ZM177.712 37.9375L176.85 37.4298L176.846 37.4375L177.712 37.9375ZM200.913 31.7207L200.413 32.5867L200.421 32.5911L200.913 31.7207ZM207.302 55.5621L206.44 55.0545L206.436 55.0621L207.302 55.5621ZM196.667 50.4369L195.755 50.0287L195.747 50.0464L195.739 50.0644L196.667 50.4369ZM194.245 41.3963L193.628 42.1829L193.643 42.1949L193.659 42.2063L194.245 41.3963ZM188.405 42.9613L187.477 42.5888L187.477 42.5888L188.405 42.9613ZM160.336 76.4578L148.736 79.5662L149.253 81.498L160.854 78.3896L160.336 76.4578ZM149.937 80.8656L175.945 7.35576L174.059 6.6887L148.052 80.1986L149.937 80.8656ZM175.261 7.98816L186.861 4.87975L186.344 2.9479L174.743 6.0563L175.261 7.98816ZM185.66 3.58029L159.653 77.0902L161.538 77.7572L187.545 4.24736L185.66 3.58029ZM147.593 52.2611C143.068 53.4736 139.049 53.0342 135.463 51.0062L134.479 52.747C138.574 55.0635 143.142 55.5243 148.111 54.193L147.593 52.2611ZM135.471 51.0106C131.953 48.9796 129.536 45.6498 128.262 40.8975L126.331 41.4152C127.715 46.5835 130.414 50.4005 134.471 52.7426L135.471 51.0106ZM128.262 40.8975C126.989 36.1453 127.418 32.0528 129.449 28.5351L127.717 27.5351C125.374 31.5918 124.946 36.2468 126.331 41.4152L128.262 40.8975ZM129.444 28.5428C131.535 24.9938 134.796 22.6035 139.322 21.3909L138.804 19.4591C133.835 20.7905 130.11 23.4736 127.721 27.5275L129.444 28.5428ZM139.322 21.3909C143.79 20.1936 147.753 20.6458 151.284 22.6844L152.284 20.9523C148.241 18.6179 143.723 18.1412 138.804 19.4591L139.322 21.3909ZM151.292 22.6887C154.86 24.7072 157.301 28.0288 158.573 32.776L160.504 32.2583C159.118 27.0849 156.389 23.274 152.276 20.9479L151.292 22.6887ZM158.573 32.776C159.845 37.5231 159.392 41.6199 157.311 45.1521L159.034 46.1674C161.432 42.0968 161.891 37.4318 160.504 32.2583L158.573 32.776ZM157.306 45.1598C155.268 48.6907 152.062 51.0637 147.593 52.2611L148.111 54.193C153.03 52.875 156.704 50.2032 159.038 46.1598L157.306 45.1598ZM145.26 43.5523C146.813 43.1361 147.988 42.2751 148.546 40.8856L146.69 40.1406C146.425 40.8009 145.856 41.322 144.742 41.6205L145.26 43.5523ZM148.546 40.8856C149.086 39.5398 148.924 37.6844 148.344 35.5168L146.412 36.0344C146.974 38.1337 146.973 39.4366 146.69 40.1406L148.546 40.8856ZM148.344 35.5168C147.763 33.3491 146.975 31.6614 145.835 30.766L144.6 32.3392C145.196 32.8076 145.849 33.9351 146.412 36.0344L148.344 35.5168ZM145.857 30.7841C144.672 29.7975 143.209 29.5976 141.634 30.0197L142.151 31.9516C143.243 31.6592 143.996 31.8372 144.577 32.3211L145.857 30.7841ZM141.634 30.0197C140.067 30.4397 138.951 31.403 138.454 32.9031C137.985 34.32 138.11 36.0919 138.651 38.1138L140.583 37.5962C140.082 35.7246 140.064 34.4048 140.353 33.5319C140.614 32.7422 141.158 32.2177 142.151 31.9516L141.634 30.0197ZM138.651 38.1138C139.186 40.1108 139.96 41.6897 141.075 42.6692C142.254 43.7054 143.698 43.9707 145.26 43.5523L144.742 41.6205C143.743 41.8881 143.01 41.7077 142.395 41.1669C141.715 40.5692 141.077 39.4395 140.583 37.5962L138.651 38.1138ZM196.643 62.1849C192.174 63.3822 188.181 62.938 184.593 60.9085L183.608 62.6493C187.701 64.9643 192.241 65.4347 197.16 64.1167L196.643 62.1849ZM184.6 60.9129C181.083 58.882 178.665 55.5521 177.392 50.7999L175.46 51.3175C176.845 56.4859 179.544 60.3028 183.6 62.645L184.6 60.9129ZM177.392 50.7999C176.118 46.0476 176.547 41.9551 178.578 38.4375L176.846 37.4375C174.504 41.4941 174.075 46.1491 175.46 51.3175L177.392 50.7999ZM178.573 38.4451C180.666 34.8934 183.902 32.512 188.371 31.3147L187.853 29.3829C182.935 30.7008 179.237 33.3786 176.85 37.4298L178.573 38.4451ZM188.371 31.3147C192.896 30.1021 196.885 30.5497 200.413 32.5867L201.413 30.8546C197.367 28.5186 192.822 28.0516 187.853 29.3829L188.371 31.3147ZM200.421 32.5911C203.99 34.6095 206.43 37.9311 207.702 42.6783L209.634 42.1606C208.247 36.9872 205.518 33.1763 201.406 30.8502L200.421 32.5911ZM207.702 42.6783C208.974 47.4255 208.521 51.5222 206.44 55.0545L208.163 56.0698C210.562 51.9991 211.02 47.3341 209.634 42.1606L207.702 42.6783ZM206.436 55.0621C204.399 58.5903 201.168 60.9723 196.643 62.1849L197.16 64.1167C202.129 62.7854 205.832 60.1083 208.168 56.0621L206.436 55.0621ZM194.309 53.4761C195.862 53.0599 197.038 52.1989 197.595 50.8094L195.739 50.0644C195.474 50.7247 194.905 51.2458 193.791 51.5442L194.309 53.4761ZM197.58 50.8451C198.194 49.4738 198.056 47.5957 197.473 45.4191L195.541 45.9367C196.101 48.0271 196.071 49.3216 195.755 50.0287L197.58 50.8451ZM197.473 45.4191C196.877 43.1962 196.051 41.4695 194.831 40.5864L193.659 42.2063C194.283 42.6584 194.965 43.7861 195.541 45.9367L197.473 45.4191ZM194.862 40.6097C193.685 39.6853 192.236 39.5273 190.683 39.9435L191.201 41.8754C192.314 41.5769 193.068 41.7436 193.628 42.1829L194.862 40.6097ZM190.683 39.9435C189.167 40.3497 188.029 41.2118 187.477 42.5888L189.333 43.3338C189.603 42.6609 190.156 42.1552 191.201 41.8754L190.683 39.9435ZM187.477 42.5888C186.935 43.9376 187.107 45.8231 187.701 48.0376L189.632 47.52C189.054 45.3608 189.051 44.0347 189.333 43.3338L187.477 42.5888ZM187.701 48.0376C188.236 50.0345 189.01 51.6135 190.124 52.5929C191.303 53.6292 192.748 53.8945 194.309 53.4761L193.791 51.5442C192.793 51.8118 192.06 51.6315 191.444 51.0906C190.764 50.493 190.126 49.3633 189.632 47.52L187.701 48.0376Z" fill="#2C3034"/>
</g>
<defs>
<filter id="filter0_d_605_112" x="0.957031" y="0.976562" width="217.241" height="118.764" filterUnits="userSpaceOnUse" color-interpolation-filters="sRGB">
<feFlood flood-opacity="0" result="BackgroundImageFix"/>
<feColorMatrix in="SourceAlpha" type="matrix" values="0 0 0 0 0 0 0 0 0 0 0 0 0 0 0 0 0 0 127 0" result="hardAlpha"/>
<feOffset dx="4" dy="4"/>
<feComposite in2="hardAlpha" operator="out"/>
<feColorMatrix type="matrix" values="0 0 0 0 0.933333 0 0 0 0 0.372549 0 0 0 0 0.627451 0 0 0 1 0"/>
<feBlend mode="normal" in2="BackgroundImageFix" result="effect1_dropShadow_605_112"/>
<feBlend mode="normal" in="SourceGraphic" in2="effect1_dropShadow_605_112" result="shape"/>
</filter>
<linearGradient id="paint0_linear_605_112" x1="-149.833" y1="133.206" x2="207.751" y2="28.5787" gradientUnits="userSpaceOnUse">
<stop stop-color="#FDD65F"/>
<stop offset="0.373259" stop-color="#FCA857"/>
<stop offset="0.706606" stop-color="#FC668B"/>
<stop offset="1" stop-color="#C74AD5"/>
</linearGradient>
</defs>
</svg>
