<svg width="148" height="101" viewBox="0 0 148 101" fill="none" xmlns="http://www.w3.org/2000/svg">
<g filter="url(#filter0_d_120_180)">
<path d="M39.2829 86.595C23.7619 90.7539 14.5851 86.2671 12.227 77.4666C10.7264 71.8662 12.7303 65.5841 22.0993 61.1872C14.0758 61.9651 9.0879 58.0709 7.45867 51.9906C5.25063 43.75 10.8104 35.0574 24.4912 31.3916C38.092 27.7473 47.3546 32.5541 49.5412 40.7146C51.1919 46.8749 48.4779 52.7471 41.0604 56.1066C51.3512 55.1499 56.6492 59.5613 58.1498 65.1616C60.5079 73.9621 54.8038 82.4362 39.2829 86.595ZM30.5794 54.113C33.8596 53.2341 35.4409 50.4952 34.712 47.775C34.026 45.2148 31.7886 43.5849 28.0283 44.5924C24.2681 45.6 23.1454 48.1303 23.8314 50.6905C24.5602 53.4106 26.8191 55.1206 30.5794 54.113ZM35.7457 73.3942C40.466 72.1294 41.6416 69.1562 40.8484 66.196C40.0338 63.1558 37.1662 61.0945 32.766 62.2735C28.3657 63.4526 26.913 66.6716 27.7276 69.7117C28.5208 72.6719 31.0255 74.659 35.7457 73.3942ZM89.5102 76.8239L77.9095 79.9323L103.917 6.4224L115.518 3.314L89.5102 76.8239ZM76.7671 52.6272C67.4065 55.1354 58.8911 50.5571 56.2114 40.5565C53.5318 30.5559 58.6172 22.3333 67.9778 19.8252C77.2584 17.3385 85.7738 21.9167 88.4534 31.9173C91.1331 41.9179 86.0476 50.1405 76.7671 52.6272ZM73.9159 41.9865C76.3961 41.322 77.4717 39.576 76.2927 35.1758C75.0922 30.6955 73.2877 29.7213 70.8075 30.3858C68.4074 31.029 67.3317 32.7749 68.5322 37.2552C69.7112 41.6555 71.5158 42.6297 73.9159 41.9865ZM125.816 62.551C116.536 65.0377 108.02 60.4595 105.341 50.4588C102.661 40.4582 107.746 32.2357 117.027 29.749C126.388 27.2408 134.903 31.819 137.583 41.8196C140.262 51.8203 135.177 60.0428 125.816 62.551ZM122.965 51.9103C125.525 51.2243 126.601 49.4784 125.422 45.0781C124.2 40.5178 122.417 39.6236 119.857 40.3096C117.457 40.9527 116.36 42.6187 117.581 47.1789C118.761 51.5792 120.565 52.5534 122.965 51.9103Z" fill="#2C3034"/>
<path d="M39.2829 86.595C23.7619 90.7539 14.5851 86.2671 12.227 77.4666C10.7264 71.8662 12.7303 65.5841 22.0993 61.1872C14.0758 61.9651 9.0879 58.0709 7.45867 51.9906C5.25063 43.75 10.8104 35.0574 24.4912 31.3916C38.092 27.7473 47.3546 32.5541 49.5412 40.7146C51.1919 46.8749 48.4779 52.7471 41.0604 56.1066C51.3512 55.1499 56.6492 59.5613 58.1498 65.1616C60.5079 73.9621 54.8038 82.4362 39.2829 86.595ZM30.5794 54.113C33.8596 53.2341 35.4409 50.4952 34.712 47.775C34.026 45.2148 31.7886 43.5849 28.0283 44.5924C24.2681 45.6 23.1454 48.1303 23.8314 50.6905C24.5602 53.4106 26.8191 55.1206 30.5794 54.113ZM35.7457 73.3942C40.466 72.1294 41.6416 69.1562 40.8484 66.196C40.0338 63.1558 37.1662 61.0945 32.766 62.2735C28.3657 63.4526 26.913 66.6716 27.7276 69.7117C28.5208 72.6719 31.0255 74.659 35.7457 73.3942ZM89.5102 76.8239L77.9095 79.9323L103.917 6.4224L115.518 3.314L89.5102 76.8239ZM76.7671 52.6272C67.4065 55.1354 58.8911 50.5571 56.2114 40.5565C53.5318 30.5559 58.6172 22.3333 67.9778 19.8252C77.2584 17.3385 85.7738 21.9167 88.4534 31.9173C91.1331 41.9179 86.0476 50.1405 76.7671 52.6272ZM73.9159 41.9865C76.3961 41.322 77.4717 39.576 76.2927 35.1758C75.0922 30.6955 73.2877 29.7213 70.8075 30.3858C68.4074 31.029 67.3317 32.7749 68.5322 37.2552C69.7112 41.6555 71.5158 42.6297 73.9159 41.9865ZM125.816 62.551C116.536 65.0377 108.02 60.4595 105.341 50.4588C102.661 40.4582 107.746 32.2357 117.027 29.749C126.388 27.2408 134.903 31.819 137.583 41.8196C140.262 51.8203 135.177 60.0428 125.816 62.551ZM122.965 51.9103C125.525 51.2243 126.601 49.4784 125.422 45.0781C124.2 40.5178 122.417 39.6236 119.857 40.3096C117.457 40.9527 116.36 42.6187 117.581 47.1789C118.761 51.5792 120.565 52.5534 122.965 51.9103Z" fill="url(#paint0_linear_120_180)"/>
<path d="M22.0993 61.1872L22.5241 62.0925L22.0028 60.1919L22.0993 61.1872ZM41.0604 56.1066L40.6479 55.1957L41.153 57.1023L41.0604 56.1066ZM39.0241 85.6291C31.3806 87.6772 25.4357 87.5572 21.1706 85.9545C16.9485 84.3679 14.2898 81.3016 13.1929 77.2078L11.261 77.7254C12.5222 82.4321 15.631 86.0094 20.4671 87.8267C25.2602 89.6278 31.6643 89.6717 39.5417 87.5609L39.0241 85.6291ZM13.1929 77.2078C12.4977 74.6131 12.6216 71.9067 13.9719 69.3414C15.3279 66.7655 17.9764 64.2267 22.5241 62.0925L21.6744 60.2819C16.8531 62.5446 13.8152 65.3453 12.2021 68.4098C10.5834 71.4849 10.4557 74.7197 11.261 77.7254L13.1929 77.2078ZM22.0028 60.1919C18.1722 60.5633 15.161 59.8127 12.936 58.3288C10.7128 56.8461 9.18573 54.5723 8.42459 51.7317L6.49274 52.2494C7.36084 55.4892 9.14237 58.2027 11.8263 59.9927C14.5084 61.7815 18.0028 62.5891 22.1958 62.1826L22.0028 60.1919ZM8.42459 51.7317C7.40449 47.9246 8.16708 44.0109 10.8084 40.5863C13.4636 37.1438 18.0585 34.1505 24.75 32.3576L24.2324 30.4257C17.243 32.2985 12.2177 35.4844 9.22477 39.3648C6.21806 43.2631 5.30481 47.816 6.49274 52.2494L8.42459 51.7317ZM24.75 32.3576C31.3977 30.5763 36.8798 30.889 40.9158 32.551C44.9338 34.2056 47.5673 37.2115 48.5753 40.9734L50.5072 40.4557C49.3286 36.0571 46.2375 32.5794 41.6773 30.7016C37.1351 28.8312 31.1855 28.5626 24.2324 30.4257L24.75 32.3576ZM48.5753 40.9734C49.3422 43.8353 49.0871 46.5816 47.8165 48.9951C46.542 51.416 44.1999 53.5869 40.6479 55.1957L41.473 57.0175C45.3384 55.2668 48.0621 52.8219 49.5863 49.9268C51.1144 47.0242 51.391 43.7542 50.5072 40.4557L48.5753 40.9734ZM41.153 57.1023C46.1457 56.6381 49.8156 57.486 52.386 59.0321C54.9461 60.5721 56.4955 62.8513 57.1839 65.4204L59.1157 64.9028C58.3035 61.8715 56.4536 59.1449 53.4169 57.3183C50.3904 55.4978 46.2659 54.6184 40.9679 55.1109L41.153 57.1023ZM57.1839 65.4204C58.2808 69.5143 57.5115 73.4991 54.6483 76.9842C51.756 80.5047 46.6676 83.581 39.0241 85.6291L39.5417 87.5609C47.4192 85.4502 52.9433 82.2101 56.1937 78.2538C59.4732 74.2619 60.3769 69.6095 59.1157 64.9028L57.1839 65.4204ZM30.8382 55.079C34.5809 54.0761 36.5681 50.8381 35.678 47.5162L33.7461 48.0338C34.3137 50.1522 33.1382 52.3921 30.3206 53.1471L30.8382 55.079ZM35.678 47.5162C35.2777 46.0222 34.3988 44.7215 32.9978 43.9657C31.6007 43.2121 29.8251 43.0757 27.7695 43.6265L28.2872 45.5584C29.9918 45.1016 31.215 45.2765 32.0483 45.7259C32.8775 46.1733 33.4604 46.9676 33.7461 48.0338L35.678 47.5162ZM27.7695 43.6265C25.7139 44.1773 24.2444 45.1832 23.4113 46.5344C22.5759 47.8894 22.4651 49.4553 22.8654 50.9493L24.7973 50.4316C24.5116 49.3654 24.6192 48.3861 25.1137 47.584C25.6106 46.7782 26.5825 46.0151 28.2872 45.5584L27.7695 43.6265ZM22.8654 50.9493C23.2828 52.5067 24.1661 53.8665 25.5735 54.6685C26.9835 55.472 28.7729 55.6324 30.8382 55.079L30.3206 53.1471C28.6256 53.6013 27.4054 53.4104 26.5637 52.9308C25.7194 52.4497 25.1088 51.5944 24.7973 50.4316L22.8654 50.9493ZM36.0046 74.3601C38.5276 73.6841 40.2575 72.5084 41.2156 70.9561C42.1773 69.3981 42.2646 67.6175 41.8143 65.9372L39.8825 66.4548C40.2254 67.7347 40.1215 68.9209 39.5137 69.9056C38.9022 70.8963 37.6841 71.8395 35.4869 72.4283L36.0046 74.3601ZM41.8143 65.9372C41.3449 64.1852 40.2677 62.6692 38.6314 61.775C36.9935 60.88 34.9033 60.6656 32.5072 61.3076L33.0248 63.2395C35.0289 62.7025 36.5726 62.9291 37.6723 63.5301C38.7735 64.1319 39.5373 65.1667 39.8825 66.4548L41.8143 65.9372ZM32.5072 61.3076C30.111 61.9496 28.408 63.1805 27.4372 64.7745C26.4672 66.3671 26.2922 68.2185 26.7617 69.9706L28.6935 69.4529C28.3484 68.1648 28.4925 66.8866 29.1453 65.8149C29.7972 64.7446 31.0206 63.7765 33.0248 63.2395L32.5072 61.3076ZM26.7617 69.9706C27.2119 71.6509 28.1778 73.1492 29.7897 74.0177C31.3955 74.8829 33.4815 75.0362 36.0046 74.3601L35.4869 72.4283C33.2897 73.017 31.7632 72.8092 30.7383 72.257C29.7195 71.7081 29.0365 70.7328 28.6935 69.4529L26.7617 69.9706ZM89.5102 76.8239L89.769 77.7898L90.2774 77.6536L90.453 77.1574L89.5102 76.8239ZM77.9095 79.9323L76.9668 79.5987L76.333 81.3899L78.1683 80.8982L77.9095 79.9323ZM103.917 6.4224L103.658 5.45647L103.15 5.59269L102.974 6.08887L103.917 6.4224ZM115.518 3.314L116.46 3.64753L117.094 1.85631L115.259 2.34807L115.518 3.314ZM89.2514 75.8579L77.6507 78.9663L78.1683 80.8982L89.769 77.7898L89.2514 75.8579ZM78.8522 80.2658L104.86 6.75593L102.974 6.08887L76.9668 79.5987L78.8522 80.2658ZM104.176 7.38833L115.776 4.27993L115.259 2.34807L103.658 5.45647L104.176 7.38833ZM114.575 2.98046L88.5675 76.4903L90.453 77.1574L116.46 3.64753L114.575 2.98046ZM76.5083 51.6613C72.052 52.8553 67.8593 52.3497 64.4809 50.4149C61.1051 48.4816 58.4567 45.0722 57.1774 40.2977L55.2455 40.8153C56.6458 46.0415 59.595 49.9215 63.4869 52.1504C67.3763 54.3778 72.1215 54.9072 77.0259 53.5931L76.5083 51.6613ZM57.1774 40.2977C55.898 35.5232 56.4869 31.2464 58.4438 27.8842C60.4022 24.5194 63.7804 21.9852 68.2366 20.7911L67.719 18.8593C62.8146 20.1734 58.9698 23.0045 56.7153 26.8782C54.4592 30.7544 53.8452 35.5892 55.2455 40.8153L57.1774 40.2977ZM68.2366 20.7911C72.6507 19.6084 76.8231 20.1179 80.1925 22.0554C83.5595 23.9915 86.2081 27.4015 87.4875 32.1761L89.4193 31.6585C88.019 26.4325 85.0702 22.5531 81.1894 20.3216C77.3111 18.0915 72.5855 17.5553 67.719 18.8593L68.2366 20.7911ZM87.4875 32.1761C88.7668 36.9507 88.178 41.2282 86.2302 44.5884C84.2809 47.9511 80.9223 50.4785 76.5083 51.6613L77.0259 53.5931C81.8924 52.2891 85.7168 49.462 87.9605 45.5915C90.2056 41.7186 90.8197 36.8845 89.4193 31.6585L87.4875 32.1761ZM74.1747 42.9525C75.5984 42.571 76.815 41.8156 77.4039 40.3562C77.959 38.9803 77.8654 37.1815 77.2586 34.917L75.3267 35.4346C75.899 37.5703 75.8571 38.8446 75.5491 39.6079C75.2749 40.2877 74.7136 40.7375 73.6571 41.0206L74.1747 42.9525ZM77.2586 34.917C76.6419 32.6153 75.8193 30.9915 74.6502 30.0671C73.4072 29.0842 71.9733 29.0382 70.5487 29.4199L71.0663 31.3518C72.1219 31.0689 72.8303 31.1777 73.4097 31.6359C74.063 32.1525 74.743 33.256 75.3267 35.4346L77.2586 34.917ZM70.5487 29.4199C69.154 29.7936 67.9587 30.5509 67.3876 32.0191C66.8513 33.3979 66.9492 35.2112 67.5663 37.514L69.4981 36.9964C68.9147 34.8189 68.9502 33.5191 69.2516 32.7441C69.5183 32.0584 70.0609 31.6212 71.0663 31.3518L70.5487 29.4199ZM67.5663 37.514C68.1733 39.7796 68.991 41.3799 70.1444 42.2954C71.3698 43.268 72.7811 43.3259 74.1747 42.9525L73.6571 41.0206C72.6506 41.2903 71.9596 41.1827 71.3878 40.7289C70.7442 40.218 70.0701 39.1311 69.4981 36.9964L67.5663 37.514ZM125.558 61.585C121.143 62.7678 116.971 62.2582 113.602 60.3208C110.235 58.3847 107.586 54.9746 106.307 50.2L104.375 50.7177C105.775 55.9437 108.724 59.8231 112.605 62.0546C116.483 64.2847 121.209 64.8209 126.075 63.5169L125.558 61.585ZM106.307 50.2C105.027 45.4255 105.616 41.1479 107.564 37.7877C109.513 34.4251 112.872 31.8976 117.286 30.7149L116.768 28.783C111.902 30.087 108.077 32.9142 105.834 36.7847C103.589 40.6576 102.974 45.4916 104.375 50.7177L106.307 50.2ZM117.286 30.7149C121.742 29.5208 125.935 30.0265 129.313 31.9613C132.689 33.8946 135.337 37.304 136.617 42.0785L138.549 41.5608C137.148 36.3347 134.199 32.4546 130.307 30.2257C126.418 27.9983 121.673 27.4689 116.768 28.783L117.286 30.7149ZM136.617 42.0785C137.896 46.8529 137.307 51.1297 135.35 54.492C133.392 57.8568 130.014 60.391 125.558 61.585L126.075 63.5169C130.98 62.2028 134.824 59.3717 137.079 55.498C139.335 51.6217 139.949 46.7869 138.549 41.5608L136.617 42.0785ZM123.224 52.8762C124.678 52.4866 125.918 51.7312 126.52 50.2678C127.09 48.8857 126.994 47.0828 126.388 44.8193L124.456 45.3369C125.029 47.4737 124.985 48.7438 124.671 49.5063C124.391 50.1874 123.812 50.648 122.706 50.9444L123.224 52.8762ZM126.388 44.8193C125.762 42.4834 124.939 40.8494 123.752 39.9344C122.49 38.9618 121.037 38.958 119.598 39.3437L120.116 41.2755C121.236 40.9752 121.956 41.0755 122.531 41.5186C123.18 42.0193 123.86 43.1125 124.456 45.3369L126.388 44.8193ZM119.598 39.3437C118.219 39.7131 117.01 40.4423 116.431 41.9079C115.888 43.2815 115.989 45.0997 116.616 47.4378L118.547 46.9201C117.952 44.6979 117.991 43.403 118.291 42.6428C118.555 41.9746 119.094 41.5492 120.116 41.2755L119.598 39.3437ZM116.616 47.4378C117.223 49.7034 118.04 51.3036 119.194 52.2192C120.419 53.1918 121.83 53.2497 123.224 52.8762L122.706 50.9444C121.7 51.2141 121.009 51.1064 120.437 50.6526C119.793 50.1418 119.119 49.0548 118.547 46.9201L116.616 47.4378Z" fill="#2C3034"/>
</g>
<defs>
<filter id="filter0_d_120_180" x="0.608398" y="0.377075" width="146.505" height="99.8107" filterUnits="userSpaceOnUse" color-interpolation-filters="sRGB">
<feFlood flood-opacity="0" result="BackgroundImageFix"/>
<feColorMatrix in="SourceAlpha" type="matrix" values="0 0 0 0 0 0 0 0 0 0 0 0 0 0 0 0 0 0 127 0" result="hardAlpha"/>
<feOffset dx="4" dy="4"/>
<feComposite in2="hardAlpha" operator="out"/>
<feColorMatrix type="matrix" values="0 0 0 0 0.933333 0 0 0 0 0.372549 0 0 0 0 0.627451 0 0 0 1 0"/>
<feBlend mode="normal" in2="BackgroundImageFix" result="effect1_dropShadow_120_180"/>
<feBlend mode="normal" in="SourceGraphic" in2="effect1_dropShadow_120_180" result="shape"/>
</filter>
<linearGradient id="paint0_linear_120_180" x1="-90.5769" y1="97.6809" x2="136.476" y2="33.3064" gradientUnits="userSpaceOnUse">
<stop stop-color="#FDD65F"/>
<stop offset="0.373259" stop-color="#FCA857"/>
<stop offset="0.706606" stop-color="#FC668B"/>
<stop offset="1" stop-color="#C74AD5"/>
</linearGradient>
</defs>
</svg>
