<svg width="21" height="22" viewBox="0 0 21 22" fill="none" xmlns="http://www.w3.org/2000/svg">
<path fill-rule="evenodd" clip-rule="evenodd" d="M10 19.5001C14.6944 19.5001 18.5 15.6945 18.5 11.0001C18.5 6.30567 14.6944 2.50009 10 2.50009C5.30558 2.50009 1.5 6.30567 1.5 11.0001C1.5 15.6945 5.30558 19.5001 10 19.5001ZM0 11.0001C0 13.8888 1.22486 16.4914 3.18354 18.317C5.00905 20.2754 7.61152 21.5001 10.5 21.5001C16.0229 21.5001 20.3654 17.0213 20.5 11.5001C20.6414 5.70281 15.7973 0.858686 10 1.00009C4.47879 1.13476 0 5.47724 0 11.0001ZM13.7086 14.7087C13.32 15.0972 12.6898 15.0972 12.3009 14.7087L11.1504 13.5582L10 12.4078L7.69911 14.7087C7.31057 15.0972 6.68034 15.0972 6.29141 14.7087C5.90286 14.3201 5.90286 13.6899 6.29141 13.301L8.5923 11.0001L6.29141 8.6992C5.90286 8.31066 5.90286 7.68043 6.29141 7.2915C6.67996 6.90295 7.31018 6.90295 7.69911 7.2915L10 9.59239L12.3009 7.2915C12.6894 6.90295 13.3197 6.90295 13.7086 7.2915C14.0971 7.68005 14.0971 8.31027 13.7086 8.6992L11.4077 11.0001L13.7086 13.301C14.0971 13.6895 14.0971 14.3198 13.7086 14.7087Z" fill="#2C3034"/>
</svg>
