<svg width="24" height="24" viewBox="0 0 24 24" fill="none" xmlns="http://www.w3.org/2000/svg">
<path fill-rule="evenodd" clip-rule="evenodd" d="M3.5 2H2.5C2.22386 2 2 2.22386 2 2.5V3.5V9.5C2 9.77614 2.22386 10 2.5 10H3C3.27614 10 3.5 9.77614 3.5 9.5V4C3.5 3.72386 3.72386 3.5 4 3.5H9.5C9.77614 3.5 10 3.27614 10 3V2.5C10 2.22386 9.77614 2 9.5 2H3.5Z" fill="#2C3034"/>
<path fill-rule="evenodd" clip-rule="evenodd" d="M3.5 22H2.5C2.22386 22 2 21.7761 2 21.5V20.5V14.5C2 14.2239 2.22386 14 2.5 14H3C3.27614 14 3.5 14.2239 3.5 14.5V20C3.5 20.2761 3.72386 20.5 4 20.5H9.5C9.77614 20.5 10 20.7239 10 21V21.5C10 21.7761 9.77614 22 9.5 22H3.5Z" fill="#2C3034"/>
<path fill-rule="evenodd" clip-rule="evenodd" d="M20.5 2H21.5C21.7761 2 22 2.22386 22 2.5V3.5V9.5C22 9.77614 21.7761 10 21.5 10H21C20.7239 10 20.5 9.77614 20.5 9.5V4C20.5 3.72386 20.2761 3.5 20 3.5H14.5C14.2239 3.5 14 3.27614 14 3V2.5C14 2.22386 14.2239 2 14.5 2H20.5Z" fill="#2C3034"/>
<path fill-rule="evenodd" clip-rule="evenodd" d="M20.5 22H21.5C21.7761 22 22 21.7761 22 21.5V20.5V14.5C22 14.2239 21.7761 14 21.5 14H21C20.7239 14 20.5 14.2239 20.5 14.5V20C20.5 20.2761 20.2761 20.5 20 20.5H14.5C14.2239 20.5 14 20.7239 14 21V21.5C14 21.7761 14.2239 22 14.5 22H20.5Z" fill="#2C3034"/>
</svg>
