<svg width="54" height="54" viewBox="0 0 54 54" fill="none" xmlns="http://www.w3.org/2000/svg">
<g clip-path="url(#clip0_408_4239)">
<path d="M16.8825 21.9959L26.9963 11.8322L37.1137 22.0029L42.9986 16.0888L26.9973 0.00209076L10.9986 16.0807L16.8825 21.9959Z" fill="white"/>
<path d="M12.6482 25.6646L6.99805 20.001L1.34696 25.6636L6.99709 31.3272L12.6482 25.6646Z" fill="white"/>
<path d="M16.887 30.0064L26.9954 40.172L37.1105 30.0032L42.9956 35.9151L42.9927 35.9185L26.9944 52.0023L11.0038 35.9211L10.9956 35.9128L16.887 30.0064Z" fill="white"/>
<path d="M47.347 31.6675L52.998 26.0049L47.3479 20.3413L41.6968 26.0039L47.347 31.6675Z" fill="white"/>
<path d="M32.9922 25.9999L32.9946 25.9999L26.998 20.0025L22.5657 24.4339L22.5653 24.4339L22.0564 24.9431L21.0058 25.9935L20.9975 26.0017L21.0058 26.0104L26.997 32.0025L32.9946 26.0061L32.9975 26.0028L32.9922 25.9999Z" fill="white"/>
</g>
<defs>
<clipPath id="clip0_408_4239">
<rect width="53" height="53" fill="white" transform="translate(1)"/>
</clipPath>
</defs>
</svg>
