<svg width="17" height="23" viewBox="0 0 17 23" fill="none" xmlns="http://www.w3.org/2000/svg">
<path fill-rule="evenodd" clip-rule="evenodd" d="M5.23391 4.0061C5.02527 4.03423 4.83467 4.14066 4.69655 4.3062C4.59196 4.43156 4.52414 4.59019 4.50403 4.75655C4.50125 4.77948 4.49995 5.83162 4.5 8.00184C4.50007 10.7425 4.50091 11.2194 4.50572 11.2552C4.55773 11.643 4.8566 11.9421 5.24391 11.9942C5.29332 12.0008 5.39988 12.0017 5.44801 11.9959C5.63679 11.973 5.80734 11.8924 5.9434 11.7616C6.00152 11.7058 6.03171 11.6666 6.13308 11.5155C6.18256 11.4417 6.56702 10.8706 6.98743 10.2462C7.40784 9.62189 7.75723 9.10026 7.76387 9.08705C7.7705 9.07383 7.77797 9.05143 7.78045 9.03726C7.79319 8.96461 7.74944 8.88592 7.67608 8.84956C7.64712 8.8352 7.64506 8.83479 7.60161 8.83479C7.55724 8.83479 7.55669 8.83491 7.52628 8.85081C7.50035 8.86436 7.36803 8.97736 6.66649 9.58506C6.21046 9.98009 5.83207 10.3061 5.82562 10.3095C5.79985 10.323 5.76479 10.314 5.74721 10.2893L5.7379 10.2763V8.01926V5.76227L5.74627 5.75096C5.76694 5.72306 5.80689 5.71369 5.8323 5.73077C5.83978 5.7358 6.48369 6.50383 7.26321 7.4375C9.33203 9.91542 9.79193 10.4664 10.3399 11.1231C10.6109 11.4479 10.8491 11.7305 10.8692 11.7511C10.9792 11.8635 11.111 11.9384 11.2658 11.9763C11.349 11.9967 11.3888 12 11.5541 12C11.7138 12 11.7548 11.9972 11.8278 11.9816C12.0819 11.9271 12.2983 11.7572 12.4136 11.5215C12.4563 11.4343 12.4853 11.3356 12.4955 11.2424C12.5015 11.1876 12.5015 4.81232 12.4955 4.7575C12.4597 4.43118 12.231 4.14752 11.92 4.04372C11.827 4.0127 11.7476 4.00005 11.6458 4.00005C11.4531 4.00005 11.2758 4.05846 11.1251 4.17156C11.0791 4.20615 11.0109 4.27221 10.9742 4.3179C10.9335 4.3687 9.23138 6.89994 9.22022 6.92641C9.18466 7.01076 9.22935 7.11069 9.32195 7.15385C9.34087 7.16267 9.35301 7.16528 9.38047 7.16642C9.42146 7.16814 9.44811 7.16156 9.47855 7.14223C9.48995 7.13499 9.87031 6.80563 10.3238 6.41033C10.7773 6.01503 11.1563 5.68734 11.1659 5.68212C11.1977 5.66498 11.2328 5.67743 11.2482 5.71131C11.2554 5.72715 11.2556 5.79601 11.2557 7.97607L11.2558 10.2245L11.2468 10.2424C11.2312 10.2732 11.1898 10.2872 11.161 10.2712C11.154 10.2674 11.1332 10.2462 11.1149 10.2242L10.4514 9.42939L7.98816 6.4784C6.9799 5.27048 6.13851 4.26538 6.11842 4.24484C5.98897 4.11253 5.8218 4.02997 5.63469 4.00595C5.57228 3.99794 5.29371 3.99804 5.23391 4.0061Z" fill="#2C3034"/>
<path d="M16 8C16 12.1421 12.6421 15.5 8.5 15.5C4.35786 15.5 1 12.1421 1 8C1 3.85786 4.35786 0.5 8.5 0.5C12.6421 0.5 16 3.85786 16 8Z" stroke="#2C3034"/>
<path fill-rule="evenodd" clip-rule="evenodd" d="M4.75 21C4.33579 21 4 20.6642 4 20.25L4 17.75C4 17.3358 4.33579 17 4.75 17C5.16421 17 5.5 17.3358 5.5 17.75L5.5 20.25C5.5 20.6642 5.16421 21 4.75 21Z" fill="#2C3034"/>
<path fill-rule="evenodd" clip-rule="evenodd" d="M8.75 23C8.33579 23 8 22.6642 8 22.25L8 18.75C8 18.3358 8.33579 18 8.75 18C9.16421 18 9.5 18.3358 9.5 18.75L9.5 22.25C9.5 22.6642 9.16421 23 8.75 23Z" fill="#2C3034"/>
<path fill-rule="evenodd" clip-rule="evenodd" d="M12.75 21C12.3358 21 12 20.6642 12 20.25L12 17.75C12 17.3358 12.3358 17 12.75 17C13.1642 17 13.5 17.3358 13.5 17.75L13.5 20.25C13.5 20.6642 13.1642 21 12.75 21Z" fill="#2C3034"/>
</svg>
