<svg width="168" height="168" viewBox="0 0 168 168" fill="none" xmlns="http://www.w3.org/2000/svg">
<g id="Frame 367">
<g id="Group 2">
<path id="Vector" fill-rule="evenodd" clip-rule="evenodd" d="M83.6038 70.9957L86.6423 65.3262L90.6252 78.6826L84.6536 75.9808L83.6038 70.9957ZM62.116 76.9344L59.0269 82.5087L68.472 87.1328L81.4715 86.2349L62.116 76.9344ZM60.3944 87.4458L57.3242 92.9905L76.1818 102.359L107.608 100.45L110.678 94.9056L79.252 96.8148L60.3944 87.4458Z" fill="#2C3034"/>
<path id="Vector_2" d="M110.675 94.888L79.2213 96.7964L60.1797 87.4109L80.7992 86.1645L62.0547 76.9272L71.2594 69.1393L90.3536 78.5202L86.6098 65.3262L104.855 74.2644L110.675 94.888Z" fill="#FDBF1C"/>
</g>
<path id="Union" fill-rule="evenodd" clip-rule="evenodd" d="M10.1626 0.000183105C4.54994 0.000183105 0 4.55013 0 10.1628V30.5264C0 36.139 4.54995 40.6889 10.1626 40.6889H30.3289C35.9416 40.6889 40.4915 36.139 40.4915 30.5263V10.1628C40.4915 4.55012 35.9415 0.000183105 30.3289 0.000183105H10.1626ZM11.4344 3.81464C7.22495 3.81464 3.8125 7.22709 3.8125 11.4366V29.2523C3.8125 33.4618 7.22495 36.8742 11.4344 36.8742H29.0601C33.2696 36.8742 36.6821 33.4618 36.6821 29.2523V11.4366C36.6821 7.22709 33.2696 3.81464 29.0601 3.81464H11.4344ZM11.5938 16.685C11.5938 13.8787 13.8687 11.6037 16.675 11.6037H23.9794C26.7857 11.6037 29.0607 13.8787 29.0607 16.685V24.0059C29.0607 26.8122 26.7857 29.0871 23.9794 29.0871H16.675C13.8687 29.0871 11.5938 26.8122 11.5938 24.0059V16.685ZM46.4507 5.89318C46.4507 0.744977 46.4879 0.434448 47.1361 0.173184C47.3276 0.0959493 54.8384 0.0287263 63.8942 0.0231641L80.3052 0.0131516L80.7695 0.477673C81.6071 1.31582 81.4067 5.45091 80.5119 5.79449C80.3705 5.84868 76.7976 5.89318 72.5721 5.89318C71.9376 5.89318 71.3486 5.89216 70.8017 5.89121C66.0385 5.88296 64.4793 5.88025 63.98 6.60636C63.737 6.95969 63.7451 7.48561 63.757 8.26746V8.2675C63.7598 8.45199 63.7628 8.65073 63.7628 8.86482C63.7628 11.5247 63.8562 11.6143 66.6273 11.6143C69.5184 11.6143 69.6394 11.7354 69.6394 14.6282C69.6394 17.4547 69.682 17.4943 72.7224 17.4943L72.9207 17.4942C74.0767 17.4933 74.6758 17.4929 74.9929 17.7916C75.3339 18.1129 75.3489 18.7803 75.3801 20.1654L75.3851 20.3867L75.3897 20.5871C75.4196 21.9128 75.4345 22.5703 75.7707 22.8961C76.1015 23.2167 76.7433 23.2163 78.0165 23.2155L78.2122 23.2154C81.0624 23.2154 81.0749 23.2041 81.0749 20.656C81.0749 17.5372 81.0838 17.5282 84.2259 17.4584C86.8957 17.3991 86.9515 17.34 86.9515 14.5669L86.9515 14.4577V14.4575C86.9517 13.1509 86.9519 12.4895 86.6214 12.147C86.2827 11.7961 85.5968 11.7802 84.2078 11.748L84.0945 11.7454C81.194 11.6779 81.188 11.6729 81.1006 9.31107C81.0939 9.12883 81.0867 8.95629 81.0798 8.79292C81.0297 7.59504 81.0002 6.89044 81.3326 6.47657C81.8074 5.8854 83.0207 5.8874 85.967 5.89223L85.9676 5.89223C86.2487 5.89269 86.5455 5.89318 86.8591 5.89318C87.2568 5.89318 87.6281 5.89233 87.9748 5.89154H87.9749C90.9385 5.88478 92.1015 5.88213 92.5531 6.44761C92.8448 6.81285 92.8397 7.41509 92.8312 8.40632C92.8297 8.58587 92.8281 8.77819 92.8281 8.98417C92.8281 9.20617 92.825 9.40956 92.8222 9.59589V9.59626C92.8106 10.3626 92.8034 10.8404 93.0316 11.1375C93.4092 11.6293 94.4318 11.626 97.1471 11.617C97.5462 11.6157 97.9819 11.6143 98.4575 11.6143H103.452L103.897 11.9978L104.343 12.3814V14.5543V16.7272L103.897 17.1108L103.452 17.4943H98.5584C93.8484 17.4943 93.6494 17.5067 93.2466 17.8238L92.8281 18.153V25.9365C92.8281 26.6985 92.8297 27.3957 92.8312 28.0334V28.0382V28.0383C92.8421 32.6792 92.8457 34.1703 92.1572 34.6339C91.8313 34.8533 91.3503 34.8424 90.6417 34.8263C90.4355 34.8217 90.2101 34.8166 89.9636 34.8166C87.0568 34.8166 86.9515 34.9251 86.9515 37.923C86.9515 40.6856 86.8603 40.763 83.7124 40.6709C83.5196 40.6652 83.3413 40.6623 83.1764 40.6597C82.4419 40.6478 81.9739 40.6402 81.6728 40.4122C81.1442 40.0119 81.1303 38.932 81.0919 35.9564L81.0919 35.9535C81.087 35.574 81.0817 35.1636 81.0749 34.7199C80.9999 29.8316 80.9785 29.5338 80.6872 29.3208C80.4367 29.1377 79.4504 29.0955 75.4277 29.0955C74.9581 29.0955 74.5266 29.0969 74.1302 29.0982C71.3726 29.1072 70.3098 29.1107 69.8951 28.594C69.6351 28.2701 69.6298 27.7417 69.6212 26.882C69.6192 26.6849 69.6171 26.4703 69.6116 26.2368L69.6074 26.0548C69.5755 24.6581 69.5598 23.9679 69.2068 23.627C68.8619 23.2939 68.1951 23.2942 66.877 23.2948L66.7011 23.2949L66.5252 23.2948C65.2071 23.2942 64.5404 23.2939 64.1955 23.627C63.8424 23.9679 63.8267 24.658 63.7948 26.0547V26.0548L63.7906 26.2368L63.7874 26.3765C63.7559 27.7427 63.7402 28.4227 63.3923 28.7609C63.0477 29.096 62.377 29.0959 61.0419 29.0955L60.9039 29.0955C59.0989 29.0955 58.8371 29.0602 58.4636 28.766L58.0451 28.4367V17.7133C58.0451 16.5312 58.0478 15.4662 58.0502 14.5069L58.0502 14.504C58.0659 8.32314 58.0704 6.52796 57.2721 6.03631C56.9454 5.83506 56.4841 5.85222 55.834 5.8764C55.5872 5.88558 55.3133 5.89577 55.0091 5.89541C52.3716 5.89223 52.3273 5.93402 52.3273 8.42366C52.3273 11.5113 52.1 11.7732 49.4206 11.7732C49.2781 11.7732 49.1423 11.7738 49.0131 11.7744C48.0156 11.7789 47.4054 11.7817 47.0325 11.4856C46.4451 11.0193 46.4465 9.8113 46.4501 6.70049V6.69983C46.4504 6.44403 46.4507 6.17536 46.4507 5.89318ZM104.264 0.942196L104.734 0.471318L105.205 0.00027887L110.228 0.0463657L115.251 0.0926114L115.554 0.467821C116.028 1.05265 116.023 10.8137 115.549 11.2876C115.082 11.7551 114.567 11.7945 109.61 11.7422L105.03 11.6938L104.647 11.2478L104.264 10.8019V5.87205V0.942196ZM75.7471 17.1042C74.976 16.3328 75.2101 12.11 76.0425 11.7743C77.0182 11.381 80.2822 11.5912 80.7695 12.0788C81.6289 12.9389 81.421 16.8954 80.4941 17.3179C79.659 17.6985 76.1848 17.5423 75.7471 17.1042ZM115.858 14.5157C115.858 12.3995 115.923 12.1535 116.573 11.7978C117.356 11.3692 120.765 11.5731 121.27 12.0788L121.734 12.5433V20.3549V28.1664L121.27 28.6309L120.806 29.0955H118.747L118.545 29.0954C117.249 29.0946 116.601 29.0942 116.268 29.4183C115.935 29.7433 115.92 30.3946 115.89 31.6991V31.6992L115.886 31.9018L115.88 32.1297C115.85 33.4898 115.834 34.1619 115.49 34.4938C115.155 34.8181 114.505 34.8176 113.221 34.8167L113.001 34.8166L112.881 34.8166C111.453 34.8168 110.769 34.817 110.441 34.4752C110.14 34.1608 110.14 33.5569 110.14 32.3972L110.14 32.2913C110.14 29.1914 110.055 29.0955 107.299 29.0955C104.391 29.0955 104.264 28.971 104.264 26.14C104.264 23.265 104.314 23.2154 107.225 23.2154C110.065 23.2154 110.14 23.1329 110.14 20.0134V19.9635C110.14 18.7286 110.14 18.1113 110.449 17.8027C110.757 17.4942 111.374 17.4943 112.608 17.4943H112.658C115.786 17.4943 115.858 17.4271 115.858 14.5157ZM46.4507 18.23L46.796 17.8621C47.1734 17.4602 51.0197 17.2933 51.6858 17.6499C52.249 17.9515 52.3273 18.6683 52.3273 23.5217C52.3273 23.9986 52.3256 24.4335 52.3241 24.8302C52.3142 27.3457 52.3104 28.3213 52.7847 28.7034C53.0852 28.9454 53.5775 28.9492 54.3818 28.9554C54.582 28.9569 54.8015 28.9586 55.0421 28.9642C58.0446 29.0336 58.0451 29.0341 58.0451 31.9435V32.013C58.0452 33.432 58.0452 34.1328 57.6948 34.479C57.3529 34.8167 56.6773 34.8167 55.3424 34.8166H55.2755L55.0998 34.8165C53.7244 34.816 53.0407 34.8157 52.693 35.1573C52.3494 35.495 52.334 36.1668 52.3035 37.5025V37.5025L52.2995 37.6752L52.2982 37.7331C52.2633 39.2324 52.2467 39.9466 51.8813 40.2974C51.5487 40.6166 50.9272 40.6347 49.7401 40.6694L49.6898 40.6709C49.3539 40.6807 49.0524 40.701 48.7819 40.7192C48.067 40.7674 47.5684 40.801 47.2215 40.5879C46.4221 40.0968 46.4273 38.2958 46.4447 32.3453C46.4476 31.3682 46.4507 30.2793 46.4507 29.0659V18.23ZM58.0451 35.4753L58.4636 35.146C58.8389 34.8506 59.0981 34.8166 60.9772 34.8166L61.1671 34.8165C62.4195 34.8158 63.0585 34.8154 63.3917 35.1344C63.7387 35.4665 63.7543 36.145 63.786 37.53L63.7906 37.7313L63.7957 37.9506C63.825 39.2394 63.8397 39.8866 64.1707 40.2114C64.5048 40.5392 65.1608 40.5387 66.4787 40.5378L66.7011 40.5377L66.9235 40.5378C68.2414 40.5387 68.8975 40.5392 69.2315 40.2114C69.5625 39.8866 69.5773 39.2393 69.6066 37.9505L69.6116 37.7313L69.6162 37.5301C69.6479 36.145 69.6635 35.4665 70.0105 35.1344C70.3438 34.8154 70.9827 34.8158 72.2352 34.8165L72.4251 34.8166C74.3041 34.8166 74.5633 34.8506 74.9386 35.146L75.3572 35.4753V40.6171V45.759L74.9386 46.0883C74.2829 46.6046 59.1194 46.6046 58.4636 46.0883L58.0451 45.759V40.6171V35.4753ZM93.1335 40.2321C92.3286 39.4267 92.4912 35.265 93.3409 34.9229C94.1115 34.6127 97.7782 34.8286 98.1559 35.2067C98.6066 35.6576 98.755 39.5366 98.3422 40.0747C97.7023 40.9088 93.924 41.0229 93.1335 40.2321ZM104.291 37.5832C104.34 35.536 104.363 35.4076 104.718 35.1199C105.045 34.855 105.363 34.8166 107.227 34.8166H107.267C108.711 34.8165 109.43 34.8165 109.787 35.1757C110.14 35.5309 110.14 36.2374 110.14 37.6425V37.6821V39.7676L109.676 40.2321C109.212 40.6966 109.211 40.6966 107.202 40.6966H105.192L104.716 40.2197L104.239 39.7429L104.291 37.5832ZM115.858 37.6485C115.858 35.6819 115.874 35.5805 116.248 35.2067C116.877 34.5774 120.76 34.6057 121.351 35.2437L121.747 35.6709L121.701 40.7408L121.655 45.8105L121.28 46.114C120.929 46.3986 120.59 46.4177 115.89 46.4177C115.411 46.4177 114.972 46.4192 114.569 46.4206C111.831 46.43 110.772 46.4336 110.369 45.9212C110.115 45.5979 110.123 45.0691 110.134 44.2066V44.2061C110.137 44.0051 110.14 43.7859 110.14 43.547L110.14 43.283C110.139 41.9445 110.138 41.281 110.47 40.9447C110.795 40.614 111.442 40.5997 112.725 40.5713L112.983 40.5655L113.141 40.5619C114.504 40.5308 115.184 40.5153 115.522 40.1677C115.859 39.8222 115.858 39.1487 115.858 37.8056L115.858 37.6485ZM86.9515 46.4182C86.9515 41.1541 86.9559 41.1182 87.6662 40.7144C87.8692 40.599 88.713 40.549 90.0049 40.5755L90.1349 40.5782C91.4028 40.6039 92.0519 40.6171 92.3916 40.9479C92.7481 41.295 92.7642 41.9918 92.7971 43.4195L92.8003 43.5591L92.8031 43.6812C92.8351 45.0636 92.8509 45.7478 93.201 46.0864C93.5441 46.4181 94.2081 46.418 95.5229 46.4177L95.6412 46.4177C97.6135 46.4177 97.6181 46.4168 98.0816 45.9532L98.5458 45.4887V43.4281L98.5457 43.2135C98.5448 41.919 98.5444 41.2694 98.8689 40.9437C99.1958 40.6157 99.8522 40.6162 101.17 40.617L101.386 40.6171L101.604 40.617C102.966 40.6162 103.647 40.6157 103.995 40.9559C104.343 41.2963 104.359 41.9777 104.39 43.3409L104.395 43.5591L104.398 43.7097C104.429 45.0658 104.445 45.7431 104.791 46.0812C105.137 46.4184 105.812 46.4182 107.16 46.4177L107.31 46.4177C110.138 46.4177 110.14 46.4202 110.14 49.2622C110.14 51.2152 110.119 51.3506 109.757 51.7724L109.374 52.2183L98.9964 52.2648C93.289 52.2903 88.3866 52.2691 88.1023 52.2178L88.0856 52.2148C87.805 52.164 87.5939 52.1258 87.4349 52.0135C86.9515 51.6722 86.9515 50.646 86.9515 46.4984V46.4182ZM17.5165 49.3325C17.5628 47.358 17.6021 47.0963 17.9015 46.7753C18.2158 46.4382 18.3594 46.4177 20.4032 46.4177L20.624 46.4176C21.909 46.4166 22.5588 46.4162 22.8948 46.7406C23.2384 47.0725 23.2537 47.7445 23.2846 49.1038L23.2899 49.3325L23.2945 49.5351C23.3244 50.8396 23.3393 51.491 23.6725 51.816C24.0047 52.1401 24.6534 52.1397 25.949 52.1389L26.1508 52.1388H28.2102L28.6744 52.6033L29.1387 53.0679V55.1284C29.1387 56.9199 29.1784 57.2381 29.442 57.5642L29.7454 57.9394L34.9161 58.0188C35.4583 58.0272 35.9496 58.0327 36.3949 58.0376H36.3949C39.058 58.0673 40.0736 58.0786 40.4519 58.5753C40.6852 58.8814 40.6762 59.3721 40.6618 60.1651C40.6579 60.3802 40.6536 60.6175 40.6536 60.8794C40.6536 61.0071 40.6538 61.129 40.6541 61.2452C40.6567 62.4397 40.658 63.0399 40.3588 63.3514C40.0567 63.666 39.4483 63.6863 38.2257 63.7273C38.1079 63.7312 37.9845 63.7354 37.8551 63.74C34.8675 63.8463 34.8564 63.8572 34.8564 66.68C34.8564 69.5102 34.8698 69.523 37.846 69.592C37.9578 69.5946 38.0651 69.5969 38.1682 69.5991L38.1736 69.5992C39.4091 69.6258 40.0301 69.6391 40.3419 69.9564C40.657 70.2771 40.656 70.9085 40.6539 72.1781C40.6538 72.2411 40.6537 72.3056 40.6537 72.3718C40.6536 72.4175 40.6536 72.464 40.6536 72.5112L40.6536 72.6873C40.6542 74.0339 40.6545 74.6976 40.3229 75.0244C40.0006 75.342 39.3651 75.3417 38.112 75.3411L37.9434 75.3411C34.9689 75.3411 34.8564 75.4506 34.8564 78.3466V78.3898C34.8564 79.7014 34.8564 80.3693 35.1902 80.7094C35.5367 81.0623 36.2426 81.0622 37.681 81.0622H37.7269L37.9588 81.0623C39.3017 81.0633 39.9557 81.0638 40.2738 80.7371C40.5758 80.4271 40.5753 79.8225 40.5743 78.6439L40.5742 78.4296C40.5742 75.4218 40.6401 75.3532 43.5345 75.3462L43.7557 75.3458C45.0567 75.3436 45.7076 75.3425 46.0406 75.0165C46.3739 74.6902 46.3885 74.0383 46.4178 72.7336L46.4228 72.5123L46.429 72.2338C46.4583 70.9042 46.4728 70.2501 46.807 69.9288C47.1307 69.6177 47.7541 69.6184 48.9811 69.6198L49.2469 69.62C51.6167 69.62 51.895 69.698 52.1518 70.4349C52.3869 71.1099 52.3966 85.4681 52.1623 86.0846L52.1382 86.1486C52.0922 86.2718 52.0534 86.3756 51.9916 86.4631C51.6598 86.9325 50.6646 86.9331 44.3318 86.9368L43.7185 86.9372C43.0438 86.9376 42.4202 86.9368 41.8439 86.9361C37.1206 86.93 35.5687 86.928 35.071 87.6513C34.8274 88.0053 34.8363 88.533 34.8495 89.3189C34.8528 89.5149 34.8564 89.7268 34.8564 89.9562C34.8564 90.1265 34.8576 90.2868 34.8587 90.4375C34.8653 91.354 34.8693 91.9197 34.5963 92.2683C34.156 92.8305 32.9953 92.8285 29.963 92.8234L29.9553 92.8233C29.6483 92.8228 29.3221 92.8223 28.9755 92.8223H24.1906L23.7263 92.3577L23.2621 91.8932V89.8077V89.8053C23.2621 88.3679 23.2621 87.6521 23.62 87.2957C23.9749 86.9422 24.6819 86.9422 26.09 86.9422H26.0924C27.9263 86.9422 28.1871 86.9074 28.5613 86.6128L28.9798 86.2835V81.1417V75.9998L28.5613 75.6705C28.1582 75.3532 27.9602 75.3411 23.1912 75.3411C22.7035 75.3411 22.2575 75.3428 21.8498 75.3443H21.8488C19.1978 75.3542 18.165 75.3581 17.77 74.8581C17.5179 74.539 17.5255 74.0148 17.538 73.156L17.538 73.1557C17.541 72.9487 17.5443 72.7221 17.5443 72.4743L17.5443 72.2778C17.5436 70.8949 17.5433 70.2312 17.8747 69.9128C18.1807 69.6189 18.7693 69.6192 19.9013 69.6199L20.0752 69.62C20.2544 69.62 20.4235 69.621 20.5831 69.6219C21.6538 69.6282 22.2963 69.6319 22.6817 69.319C23.2601 68.8493 23.2592 67.6663 23.2571 64.7076C23.2569 64.4138 23.2567 64.1024 23.257 63.7725L23.2621 58.799L22.8722 58.409L22.4824 58.0188H17.5645C14.8597 58.0188 12.531 57.9743 12.3896 57.9202C11.4948 57.5766 11.2944 53.4415 12.132 52.6033L12.5963 52.1388H14.6556L14.8574 52.1389C16.153 52.1397 16.8017 52.1401 17.134 51.816C17.4672 51.491 17.482 50.8396 17.5119 49.535L17.5165 49.3325ZM35.2663 51.8331C34.6909 51.2923 34.6304 47.5427 35.1857 46.8365C35.6309 46.2701 39.6107 46.1803 40.2786 46.7216C40.8485 47.1832 40.8591 51.2888 40.2918 51.8563C39.7208 52.4276 35.8799 52.4098 35.2663 51.8331ZM52.54 51.7585C51.9547 51.0779 52.0184 47.2102 52.6229 46.7211C53.2623 46.2036 57.1178 46.2701 57.6552 46.8079C58.25 47.4029 58.2547 51.0825 57.6618 51.7724L57.2784 52.2183H55.1068H52.9352L52.54 51.7585ZM75.3572 49.3515C75.3572 47.4713 75.3911 47.212 75.6864 46.8365C76.1313 46.2704 80.111 46.1803 80.7793 46.7211C81.3838 47.2102 81.4475 51.0779 80.8622 51.7585L80.4671 52.2183H78.322H78.2945C76.8094 52.2183 76.0751 52.2183 75.7121 51.8512C75.3571 51.4922 75.3571 50.7823 75.3572 49.3781V49.3515ZM133.17 49.4788C133.17 47.5009 133.347 46.7233 133.842 46.524C133.953 46.4794 137.603 46.4371 141.952 46.4303L149.861 46.4177L150.251 46.8079L150.641 47.1978V55.0502C150.641 55.9391 150.644 56.738 150.646 57.4559V57.4608C150.661 61.7309 150.666 63.1343 150.017 63.5756C149.699 63.7917 149.224 63.7772 148.518 63.7556C148.274 63.7482 148.004 63.74 147.703 63.74C147.462 63.74 147.242 63.7428 147.039 63.7455C146.148 63.7571 145.604 63.7643 145.271 63.5021C144.749 63.0896 144.752 62.0103 144.762 59.2327V59.2325C144.763 58.8309 144.764 58.3937 144.764 57.9179C144.764 57.4145 144.766 56.9558 144.768 56.5379C144.778 53.9235 144.782 52.9058 144.29 52.5172C143.976 52.2696 143.46 52.2776 142.616 52.2908H142.616C142.404 52.2941 142.172 52.2977 141.917 52.2977L141.799 52.2977C140.425 52.2975 139.737 52.2973 139.392 52.6413C139.046 52.9868 139.046 53.6795 139.047 55.068V55.1869C139.047 57.1535 139.03 57.2549 138.657 57.6287L138.267 58.0188H133.274C132.786 58.0188 132.34 58.0173 131.931 58.0158H131.931C129.203 58.0063 128.157 58.0026 127.753 58.5099C127.501 58.8249 127.497 59.3369 127.489 60.1668C127.488 60.3672 127.486 60.5861 127.48 60.8252L127.475 61.0634V61.0634C127.444 62.4137 127.429 63.0833 127.086 63.4151C126.749 63.7416 126.096 63.7411 124.798 63.7401L124.566 63.74C124.392 63.74 124.229 63.7411 124.075 63.7421C123.103 63.7486 122.503 63.7527 122.135 63.4621C121.54 62.992 121.556 61.7511 121.595 58.5031V58.5029C121.599 58.1844 121.603 57.8466 121.607 57.4884L121.655 52.9054L122.101 52.5221L122.546 52.1388H127.534C127.996 52.1388 128.42 52.1401 128.809 52.1414C131.542 52.1499 132.576 52.1531 132.96 51.6553C133.193 51.3527 133.186 50.8648 133.175 50.0803C133.173 49.8966 133.17 49.6965 133.17 49.4788ZM156.359 47.1978L156.749 46.8079L157.138 46.4177H162.178C167.134 46.4177 167.224 46.4234 167.585 46.7632L167.953 47.1088V52.2345V57.3601L167.534 57.6894C167.16 57.984 166.899 58.0188 165.065 58.0188C162.24 58.0188 162.235 58.0233 162.235 60.8508L162.235 60.9967V60.9968C162.236 62.3611 162.236 63.0471 161.893 63.3919C161.546 63.7406 160.849 63.7404 159.446 63.74L159.297 63.74C158.996 63.74 158.725 63.7482 158.482 63.7556C157.775 63.7772 157.3 63.7917 156.983 63.5756C156.334 63.1343 156.338 61.7309 156.353 57.4608V57.4559C156.356 56.738 156.359 55.9391 156.359 55.0502V47.1978ZM0.0605586 64.6819L0.531321 64.211L1.00192 63.74H8.88337H16.7647L17.1544 64.1301C17.5299 64.5056 17.5442 64.5983 17.5392 66.6331C17.5323 69.5575 17.4678 69.62 14.4577 69.62L14.3596 69.62C13.0744 69.6198 12.4412 69.6197 12.1293 69.9362C11.8263 70.2437 11.8264 70.8498 11.8266 72.0447L11.8266 72.139C11.8266 74.1344 11.6587 74.9319 11.1851 75.1855C10.5698 75.515 0.952369 75.3813 0.527826 75.0374L0.152837 74.7339L0.106618 69.7079L0.0605586 64.6819ZM40.5489 64.6943L41.0259 64.217L41.5027 63.74H43.5869H43.637C45.0316 63.7399 45.735 63.7399 46.0898 64.0916C46.4508 64.4495 46.4508 65.1716 46.4507 66.6287V66.68V66.7219C46.4508 68.1872 46.4508 68.9117 46.0886 69.2698C45.7345 69.62 45.034 69.62 43.6486 69.62H43.6485H43.6079C40.6938 69.62 40.6723 69.5996 40.6013 66.7739L40.5489 64.6943ZM115.957 68.8977C115.64 68.0732 115.857 64.5207 116.248 64.1301C116.698 63.6791 120.575 63.5307 121.113 63.9437C121.947 64.584 122.061 68.3645 121.27 69.1555C120.433 69.9936 116.3 69.7931 115.957 68.8977ZM127.452 64.5201L127.842 64.1301L128.232 63.74H133.249H138.267L138.657 64.1301C139.032 64.506 139.047 64.5986 139.047 66.68V66.7489C139.047 68.1905 139.047 68.9083 138.688 69.2657C138.332 69.6201 137.623 69.6201 136.211 69.62H136.143L135.941 69.6199C134.676 69.6191 134.033 69.6187 133.698 69.9398C133.353 70.2719 133.337 70.9478 133.306 72.3226L133.301 72.5347L133.295 72.7813V72.7815C133.267 74.0441 133.253 74.6845 132.925 75.009C132.588 75.343 131.919 75.3424 130.563 75.3413L130.305 75.3411C130.078 75.3411 129.869 75.3438 129.676 75.3462H129.676C128.816 75.3573 128.287 75.364 127.961 75.1096C127.438 74.7009 127.441 73.6182 127.45 70.7966C127.451 70.4031 127.452 69.9759 127.452 69.5119V64.5201ZM139.047 72.4828C139.047 70.5215 139.077 70.2825 139.37 69.9679C139.673 69.643 139.837 69.62 141.843 69.62C144.818 69.62 144.923 69.7177 144.923 72.4805C144.923 75.237 144.813 75.3411 141.886 75.3411L141.73 75.3411C140.391 75.3416 139.72 75.3419 139.383 75.0064C139.046 74.6696 139.046 73.9941 139.047 72.6404L139.047 72.4828ZM162.718 75.1855C161.841 74.7162 161.803 70.4769 162.67 69.8186C163.154 69.4507 167.247 69.549 167.635 69.9378C168.137 70.4397 168.115 74.433 167.608 74.9734C167.23 75.3753 163.384 75.5421 162.718 75.1855ZM116.034 80.481C115.654 79.6454 115.81 76.1692 116.248 75.7313C116.638 75.3405 120.189 75.1234 121.013 75.4398C121.907 75.7834 122.108 79.9185 121.27 80.7566C120.411 81.6165 116.457 81.4085 116.034 80.481ZM133.634 80.7566C132.844 79.9657 132.958 76.1851 133.791 75.5448C134.329 75.1318 138.206 75.2802 138.657 75.7313C139.047 76.1219 139.264 79.6744 138.948 80.4988C138.605 81.3942 134.472 81.5948 133.634 80.7566ZM145.229 80.7566C144.424 79.9512 144.586 75.7896 145.436 75.4474C146.207 75.1372 149.873 75.3532 150.251 75.7313C150.689 76.1692 150.845 79.6454 150.465 80.481C150.042 81.4085 146.088 81.6165 145.229 80.7566ZM0.0758061 84.0499C0.0783473 82.1046 0.222879 81.5973 0.870732 81.2618C1.17187 81.1058 2.41453 81.0676 6.14441 81.0997C6.60654 81.1037 7.03067 81.1058 7.41992 81.1078H7.42006C10.0537 81.1211 11.091 81.1263 11.5048 81.6369C11.7737 81.9686 11.7794 82.5137 11.7887 83.4131C11.7908 83.6177 11.7931 83.8406 11.7988 84.0836L11.8023 84.2342C11.8334 85.5904 11.849 86.2676 12.1955 86.6057C12.5411 86.9429 13.216 86.9427 14.564 86.9423L14.714 86.9422C16.6795 86.9422 16.7809 86.9585 17.1544 87.3324L17.5443 87.7224V92.7428V97.7632L17.1544 98.1532C16.7794 98.5284 16.6838 98.5434 14.6432 98.5434L14.5291 98.5434H14.529C13.1335 98.5431 12.4585 98.543 12.132 98.8803C11.8262 99.1963 11.8263 99.8084 11.8266 100.994L11.8266 101.097C11.8266 104.161 11.5885 104.423 8.80888 104.423C6.08262 104.423 5.95 104.291 5.95 101.565C5.95 98.5758 5.9203 98.5458 2.95898 98.5383C0.159984 98.5313 0.0734238 98.4407 0.0734238 95.5222C0.0734238 93.6011 0.075488 93.5903 0.537673 93.1279L1.00192 92.6634H3.13369L3.3 92.6634H3.3001C4.60003 92.6639 5.23805 92.6642 5.55999 92.3453C5.87032 92.0379 5.88695 91.434 5.9196 90.248L5.92395 90.0908C6.00781 87.0924 5.86535 86.9422 2.93786 86.9422C0.141402 86.9422 0.0721531 86.8722 0.0758061 84.0499ZM121.578 87.1409C121.58 81.9172 121.616 81.6526 122.373 81.2628C122.673 81.1083 123.932 81.0697 127.647 81.1008C128.305 81.1063 128.888 81.1031 129.402 81.1002C131.338 81.0894 132.316 81.0839 132.805 81.5705C133.304 82.068 133.291 83.08 133.264 85.1268V85.1273C133.257 85.6593 133.249 86.2613 133.249 86.9422C133.249 87.434 133.251 87.8842 133.253 88.2964V88.2966C133.262 91.0262 133.266 92.0878 132.75 92.5055C132.421 92.7714 131.881 92.7764 130.998 92.7846C130.788 92.7865 130.559 92.7886 130.309 92.7945C130.075 92.7999 129.86 92.802 129.662 92.804C128.806 92.8124 128.279 92.8176 127.955 93.0768C127.437 93.492 127.44 94.5588 127.449 97.3342C127.451 97.7344 127.452 98.17 127.452 98.6443C127.452 99.2444 127.458 99.7832 127.464 100.267C127.487 102.34 127.499 103.401 126.974 103.934C126.424 104.492 125.284 104.469 122.948 104.422C122.428 104.411 121.849 104.399 121.204 104.392L116.624 104.344L116.241 103.898L115.858 103.452V98.6214C115.858 98.3215 115.858 98.0366 115.857 97.766V97.7659C115.853 94.6612 115.851 93.4403 116.446 92.9631C116.832 92.6538 117.468 92.6569 118.516 92.6619H118.517C118.658 92.6626 118.806 92.6634 118.962 92.6634C119.179 92.6634 119.378 92.6662 119.56 92.6688H119.56H119.56C120.329 92.6798 120.807 92.6867 121.103 92.4582C121.59 92.0829 121.587 91.0728 121.58 88.4038V88.4001C121.579 88.0158 121.578 87.597 121.578 87.1409ZM150.641 83.9604C150.724 81.6372 150.825 81.3046 151.486 81.1696C151.676 81.1307 154 81.1086 156.651 81.1204L161.469 81.1417L161.852 81.5876C162.215 82.0094 162.235 82.1451 162.235 84.0977V84.1132C162.235 85.5217 162.235 86.229 162.589 86.5841C162.945 86.9422 163.662 86.9422 165.1 86.9422H165.116L165.248 86.9422C166.607 86.9419 167.284 86.9417 167.62 87.2799C167.953 87.6148 167.953 88.2816 167.953 89.6088L167.953 89.7381C167.953 92.8148 167.946 92.8223 164.864 92.8223C164.641 92.8223 164.437 92.8191 164.249 92.8163C163.487 92.8046 163.011 92.7973 162.714 93.0245C162.22 93.4026 162.223 94.4303 162.232 97.1682C162.234 97.5717 162.235 98.0123 162.235 98.4935C162.235 98.9673 162.234 99.4024 162.232 99.8021C162.223 102.576 162.22 103.64 162.733 104.04C163.052 104.289 163.571 104.282 164.411 104.27C164.606 104.267 164.819 104.264 165.05 104.264H165.117C166.529 104.264 167.238 104.264 167.594 104.619C167.953 104.976 167.953 105.694 167.953 107.136V107.205V107.263C167.953 108.714 167.953 109.434 167.593 109.792C167.238 110.145 166.532 110.145 165.129 110.145H165.072L164.944 110.145C163.581 110.144 162.904 110.144 162.567 110.483C162.235 110.817 162.235 111.483 162.235 112.806L162.235 112.932L162.235 113.097C162.236 114.481 162.236 115.174 161.89 115.52C161.543 115.866 160.85 115.866 159.463 115.866H159.462L159.297 115.866C159.057 115.866 158.836 115.869 158.633 115.871C157.743 115.883 157.198 115.89 156.866 115.628C156.343 115.215 156.347 114.136 156.356 111.358V111.358C156.357 110.957 156.359 110.519 156.359 110.044C156.359 109.587 156.36 109.167 156.361 108.78C156.369 106.014 156.372 104.991 155.881 104.619C155.593 104.401 155.135 104.408 154.407 104.418L154.406 104.418C154.233 104.421 154.045 104.423 153.841 104.423C150.751 104.423 150.641 104.328 150.641 101.663C150.641 98.6581 150.546 98.5555 147.755 98.5485C147.563 98.548 147.383 98.549 147.214 98.5499H147.213C146.26 98.5554 145.676 98.5587 145.319 98.2757C144.754 97.8283 144.757 96.6653 144.763 93.6637C144.764 93.3276 144.764 92.9684 144.764 92.5845V87.7224L145.154 87.3324C145.528 86.9581 145.628 86.9422 147.607 86.9422H147.611C149.063 86.9422 149.794 86.9422 150.175 86.5772C150.56 86.2074 150.587 85.4629 150.641 83.9642L150.641 83.9604ZM34.8564 95.641C34.8564 93.4446 34.9179 93.2043 35.5711 92.8469C35.7509 92.7485 36.7385 92.671 37.8466 92.6681C40.6059 92.6614 40.733 92.787 40.733 95.5222C40.733 98.4576 40.6601 98.5313 37.7478 98.5383L37.7021 98.5384H37.7021C36.2813 98.5419 35.5699 98.5436 35.2136 98.1887C34.8564 97.8328 34.8564 97.1182 34.8564 95.6869V95.641ZM133.203 98.6802C133.153 93.3423 133.178 93.1603 134.013 92.8239C134.619 92.5798 137.893 92.6335 138.4 92.8959C139.009 93.2112 139.047 93.3628 139.047 95.5295C139.047 98.4264 139.164 98.5434 142.082 98.5434C144.793 98.5434 144.923 98.6753 144.923 101.433L144.923 101.598C144.924 102.692 144.924 103.367 144.596 103.78C144.068 104.443 142.69 104.429 139.099 104.394L138.763 104.391C138.124 104.384 137.558 104.386 137.057 104.388C135.142 104.396 134.176 104.399 133.69 103.918C133.195 103.428 133.199 102.435 133.206 100.432C133.207 99.9179 133.209 99.3367 133.203 98.6802ZM17.5443 101.18C17.5443 99.3389 17.5701 99.1675 17.892 98.8674C18.2065 98.5742 18.4454 98.5434 20.4054 98.5434C20.6437 98.5434 20.8621 98.5403 21.0623 98.5375C21.9072 98.5255 22.4274 98.5181 22.749 98.7672C23.2641 99.1659 23.2702 100.222 23.286 102.97C23.2883 103.376 23.2908 103.82 23.2953 104.303C23.2997 104.788 23.3022 105.233 23.3045 105.64V105.64C23.3196 108.355 23.3255 109.412 23.8449 109.828C24.1759 110.093 24.7155 110.098 25.5991 110.107C25.807 110.109 26.0339 110.111 26.2817 110.117L26.4323 110.12C27.7871 110.151 28.4639 110.167 28.8019 110.513C29.1393 110.859 29.1391 111.534 29.1387 112.884L29.1387 113.034C29.1387 115 29.1549 115.102 29.5286 115.475L29.9183 115.866H34.8278C35.2942 115.866 35.7227 115.867 36.1164 115.868H36.1165C38.8439 115.877 39.901 115.881 40.3158 115.367C40.5783 115.041 40.5837 114.508 40.5924 113.638C40.5944 113.44 40.5965 113.224 40.602 112.989C40.6076 112.744 40.6095 112.519 40.6112 112.315C40.6182 111.472 40.6225 110.953 40.8772 110.635C41.2838 110.128 42.3286 110.132 45.0415 110.141C45.4543 110.143 45.9058 110.145 46.3994 110.145C46.6672 110.145 46.9229 110.144 47.1671 110.144C50.3678 110.141 51.5877 110.14 52.0501 110.731C52.3348 111.095 52.3323 111.684 52.3283 112.635C52.3281 112.683 52.3279 112.731 52.3278 112.781C52.3275 112.854 52.3273 112.928 52.3273 113.005C52.3273 115.73 52.193 115.866 49.4864 115.866C46.5518 115.866 46.4507 115.969 46.4507 118.979C46.4507 120.876 46.4333 120.983 46.0608 121.356L45.6711 121.746H35.0121C33.9216 121.746 32.9316 121.748 32.0329 121.75H32.0328C25.6982 121.763 23.8979 121.767 23.4119 120.969C23.2189 120.653 23.2331 120.21 23.2529 119.591C23.26 119.37 23.2678 119.127 23.2672 118.858C23.2597 115.885 23.2395 115.866 20.1729 115.866L20.0758 115.866H20.0757C18.7919 115.866 18.159 115.866 17.8472 115.55C17.544 115.242 17.5441 114.636 17.5443 113.44L17.5443 113.347C17.5443 110.219 17.477 110.147 14.5768 110.139C11.7673 110.132 11.6678 110.033 11.6678 107.222C11.6678 104.393 11.7983 104.264 14.6799 104.264C17.5048 104.264 17.5443 104.222 17.5443 101.18ZM29.8697 104.202C28.773 103.744 28.5439 99.5242 29.5732 98.742C30.0811 98.3562 34.0481 98.4747 34.4889 98.8889C34.8906 99.2665 35.0573 103.115 34.7009 103.782C34.3593 104.42 31.0752 104.706 29.8697 104.202ZM46.6062 103.782C46.2662 103.146 46.4155 99.3165 46.796 98.9111C47.1734 98.5092 51.0197 98.3423 51.6858 98.699C52.6972 99.2406 52.5673 103.65 51.5238 104.19C50.4938 104.723 46.9525 104.429 46.6062 103.782ZM0.0734238 105.194L0.550062 104.717L1.02654 104.24L3.18499 104.292L3.39555 104.297C4.65769 104.326 5.29666 104.341 5.61994 104.668C5.95141 105.004 5.95097 105.667 5.9501 107.011L5.95 107.229L5.95 107.269C5.95003 108.715 5.95005 109.434 5.59065 109.792C5.23551 110.145 4.52942 110.145 3.12561 110.145H3.0862H1.00192L0.537673 109.68C0.0734232 109.215 0.0734238 109.215 0.0734238 107.205V105.194ZM34.8564 107.205C34.8564 105.123 34.8705 105.03 35.2463 104.655C35.6205 104.28 35.7192 104.264 37.7202 104.264H39.8045L40.2687 104.729C40.733 105.194 40.733 105.194 40.733 107.205C40.733 109.215 40.733 109.215 40.2687 109.68L39.8045 110.145H37.7202H37.6702C36.2756 110.145 35.5722 110.145 35.2174 109.793C34.8563 109.435 34.8564 108.713 34.8564 107.256V107.205ZM127.452 107.205C127.452 105.123 127.466 105.03 127.842 104.655C128.216 104.28 128.315 104.264 130.316 104.264H132.4L132.865 104.729C133.329 105.194 133.329 105.194 133.329 107.205C133.329 109.215 133.329 109.215 132.865 109.68L132.4 110.145H130.316H130.266C128.871 110.145 128.168 110.145 127.813 109.793C127.452 109.435 127.452 108.713 127.452 107.256V107.256V107.205ZM115.858 124.61C115.858 111.064 115.86 110.979 116.187 110.563C116.515 110.146 116.522 110.145 118.796 110.145L118.967 110.144C120.35 110.144 121.042 110.144 121.388 110.49C121.735 110.836 121.735 111.531 121.735 112.922L121.734 113.094C121.734 113.305 121.732 113.5 121.73 113.68V113.68V113.68C121.72 114.521 121.714 115.04 121.964 115.361C122.367 115.879 123.439 115.876 126.243 115.868C126.615 115.867 127.017 115.866 127.452 115.866C127.914 115.866 128.339 115.867 128.729 115.868C131.443 115.877 132.496 115.881 132.911 115.368C133.174 115.042 133.179 114.508 133.188 113.636V113.636C133.19 113.438 133.192 113.223 133.198 112.989L133.203 112.738C133.232 111.447 133.246 110.798 133.578 110.472C133.914 110.143 134.574 110.143 135.901 110.144L136.155 110.145L136.318 110.144C137.695 110.144 138.377 110.144 138.715 110.485C139.047 110.82 139.047 111.485 139.047 112.802L139.047 112.961V112.987C139.047 114.437 139.047 115.156 139.406 115.514C139.761 115.866 140.465 115.866 141.864 115.866H141.889C143.841 115.866 143.977 115.886 144.398 116.249L144.844 116.633V130.389V144.144L144.482 144.506C144.147 144.843 143.964 144.872 141.904 144.92L141.753 144.924C140.398 144.955 139.721 144.97 139.383 145.317C139.046 145.662 139.046 146.338 139.047 147.687L139.047 147.837V147.839C139.047 149.249 139.047 149.956 138.693 150.311C138.337 150.669 137.621 150.669 136.185 150.669H136.183H134.098L133.634 150.205L133.17 149.74V147.662L133.17 147.414C133.171 146.199 133.172 145.582 132.864 145.269C132.546 144.946 131.898 144.947 130.583 144.948L130.323 144.948H130.204C128.831 144.948 128.143 144.948 127.798 145.292C127.452 145.637 127.452 146.33 127.452 147.718L127.452 147.837C127.452 149.804 127.436 149.905 127.062 150.279L126.673 150.669H121.655H116.638L116.248 150.279C115.873 149.904 115.858 149.804 115.853 147.776C115.852 147.514 115.856 147.277 115.859 147.063C115.872 146.28 115.88 145.796 115.649 145.494C115.276 145.006 114.279 144.995 111.669 144.966L111.665 144.966C111.224 144.962 110.737 144.956 110.199 144.948L105.03 144.868L104.647 144.423C104.284 144.001 104.264 143.865 104.264 141.912C104.264 139.07 104.261 139.068 101.433 139.068H101.321C99.9281 139.068 99.234 139.068 98.8884 138.721C98.5454 138.377 98.5456 137.691 98.5458 136.324L98.5458 136.213L98.5457 135.948C98.5444 134.597 98.5438 133.93 98.877 133.593C99.2023 133.264 99.8457 133.25 101.117 133.222H101.117L101.374 133.216L101.641 133.21H101.642C102.93 133.181 103.576 133.167 103.908 132.837C104.241 132.504 104.256 131.852 104.285 130.543L104.291 130.273L104.297 130.046C104.326 128.765 104.34 128.119 104.67 127.795C105.005 127.465 105.665 127.466 106.994 127.467L107.227 127.467C109.28 127.467 109.375 127.481 109.75 127.857L110.14 128.247V133.243C110.14 133.739 110.138 134.192 110.137 134.607C110.127 137.319 110.123 138.367 110.63 138.765C110.949 139.015 111.47 139.007 112.32 138.995H112.321C112.527 138.992 112.752 138.988 112.999 138.988C113.343 138.988 113.646 139.01 113.913 139.029H113.913C114.427 139.065 114.808 139.092 115.089 138.938C115.892 138.499 115.887 136.584 115.866 129.208V129.208V129.205C115.862 127.862 115.858 126.339 115.858 124.61ZM144.764 113.005C144.764 111.199 144.8 110.937 145.094 110.563C145.422 110.146 145.429 110.145 147.703 110.145L147.84 110.145C149.253 110.144 149.954 110.144 150.301 110.494C150.641 110.838 150.641 111.52 150.641 112.871V112.871L150.641 113.005L150.641 113.139V113.139C150.641 114.49 150.641 115.172 150.301 115.516C149.954 115.866 149.253 115.866 147.84 115.866L147.703 115.866L147.565 115.866C146.152 115.866 145.452 115.866 145.105 115.516C144.764 115.172 144.764 114.49 144.764 113.139V113.139L144.764 113.005ZM0.537673 121.281C-0.292513 120.45 -0.118756 116.48 0.766542 116.052C0.953163 115.961 2.02032 115.882 3.13798 115.876L3.16299 115.876C4.5352 115.869 5.23179 115.865 5.58542 116.212C5.95002 116.569 5.95001 117.298 5.95 118.78V118.806C5.95 121.743 5.9473 121.746 3.05571 121.746H1.00192L0.537673 121.281ZM12.132 121.281C11.3271 120.476 11.4897 116.314 12.3394 115.972C13.1101 115.662 16.7767 115.878 17.1544 116.256C17.6052 116.707 17.7535 120.586 17.3407 121.124C16.7008 121.958 12.9225 122.072 12.132 121.281ZM52.1685 118.954C52.1685 116.955 52.2738 116.466 52.79 116.069C52.9753 115.927 54.3497 115.874 57.9839 115.871C58.4536 115.87 58.8853 115.868 59.2821 115.867H59.2824H59.2825C62.0372 115.855 63.1113 115.85 63.5234 116.37C63.7868 116.702 63.7797 117.249 63.7682 118.145V118.145C63.7656 118.347 63.7628 118.567 63.7628 118.806L63.7629 118.977C63.7634 120.361 63.7637 121.053 63.4176 121.399C63.0709 121.747 62.3765 121.746 60.9866 121.746L60.8147 121.746C60.6029 121.746 60.4072 121.743 60.2263 121.741C59.3895 121.731 58.8715 121.725 58.5516 121.973C58.032 122.377 58.035 123.454 58.0429 126.278C58.0439 126.654 58.0451 127.06 58.0451 127.5V132.418L57.5808 132.882C57.1166 133.347 57.1163 133.347 55.107 133.347H55.1068H55.1066C53.0973 133.347 53.097 133.347 52.6327 132.882L52.1685 132.418V130.332V130.307C52.1685 128.889 52.1685 128.179 51.8135 127.824C51.4572 127.467 50.7432 127.467 49.3126 127.467H49.2874L49.1468 127.467C47.7956 127.467 47.1214 127.467 46.7851 127.13C46.4501 126.795 46.4503 126.125 46.4507 124.787L46.4507 124.648C46.4507 121.643 46.51 121.587 49.6509 121.587L49.7452 121.587H49.7453C50.939 121.587 51.5447 121.587 51.8521 121.284C52.1688 120.972 52.1687 120.339 52.1685 119.052L52.1685 118.954ZM69.6394 118.806C69.6394 116.53 69.6405 116.524 70.0579 116.195C70.5477 115.81 79.6901 115.676 80.4941 116.042C81.421 116.465 81.6289 120.421 80.7695 121.281L80.3052 121.746H75.3908C74.9249 121.746 74.4965 121.747 74.1026 121.748H74.1025C71.3616 121.757 70.291 121.761 69.8795 121.242C69.6157 120.909 69.6227 120.362 69.6341 119.464C69.6366 119.263 69.6394 119.044 69.6394 118.806ZM92.6692 118.942C92.6692 116.884 92.8041 116.322 93.3624 116.052C93.5811 115.946 96.4855 115.883 101.531 115.876L109.36 115.866L109.75 116.256C110.126 116.631 110.14 116.724 110.135 118.759C110.135 118.927 110.135 119.085 110.136 119.235C110.14 120.207 110.142 120.805 109.852 121.171C109.392 121.753 108.192 121.751 105.084 121.747C104.783 121.746 104.464 121.746 104.127 121.746H99.2042L98.8751 122.164C98.5811 122.538 98.5458 122.8 98.5458 124.606V124.67C98.5459 126.084 98.5459 126.783 98.1964 127.128C97.8544 127.467 97.1775 127.467 95.8381 127.467H95.838H95.7762L95.6005 127.467C94.2251 127.466 93.5414 127.466 93.1938 127.808C92.8501 128.145 92.8348 128.817 92.8042 130.153L92.8003 130.325L92.7989 130.383C92.7641 131.883 92.7475 132.597 92.382 132.948C92.0494 133.267 91.4279 133.285 90.2407 133.32L90.1906 133.321C87.05 133.413 86.9523 133.331 86.9493 130.605C86.9459 127.491 86.9216 127.467 83.8623 127.467C81.1035 127.467 80.9937 127.332 81.0997 124.069C81.1052 123.9 81.1084 123.743 81.1114 123.597C81.1253 122.915 81.1343 122.474 81.3487 122.186C81.7415 121.658 82.8239 121.644 85.8895 121.603C86.2479 121.598 86.6334 121.593 87.048 121.587C87.5724 121.579 88.0483 121.573 88.4802 121.568L88.4822 121.568C91.1392 121.538 92.1277 121.526 92.4865 121.045C92.6991 120.76 92.6906 120.311 92.677 119.594C92.6733 119.397 92.6692 119.181 92.6692 118.942ZM63.7628 124.649C63.7628 122.474 63.8883 122.044 64.6137 121.738C64.8009 121.659 65.836 121.61 66.9138 121.63C69.6003 121.68 69.6394 121.722 69.6394 124.622V124.663V124.663C69.6394 126.05 69.6395 126.751 69.289 127.105C68.931 127.467 68.2069 127.467 66.743 127.467H66.7011H66.6715C65.1968 127.467 64.4698 127.467 64.1114 127.103C63.7628 126.75 63.7628 126.053 63.7628 124.677V124.649ZM162.718 127.311C161.597 126.711 161.888 121.924 163.059 121.7C164.785 121.37 167.5 121.673 167.797 122.229C168.138 122.864 167.988 126.694 167.608 127.099C167.23 127.501 163.384 127.668 162.718 127.311ZM138.967 122.353L138.592 122.049C138.234 121.759 137.858 121.746 130.321 121.746H122.425L122.08 122.113C121.57 122.656 121.531 137.987 122.038 138.613L122.342 138.988L130.094 139.033C138.387 139.08 138.56 139.065 138.879 138.295C139.002 137.996 139.042 135.543 139.011 130.111L138.967 122.353ZM75.5608 132.725C75.148 132.187 75.2963 128.308 75.7471 127.857C76.1375 127.466 79.6879 127.249 80.5119 127.565C81.4067 127.909 81.6071 132.044 80.7695 132.882C79.979 133.673 76.2007 133.559 75.5608 132.725ZM127.766 132.866C127.236 132.336 127.296 128.403 127.842 127.857C128.388 127.31 132.319 127.25 132.848 127.781C133.515 128.447 133.544 132.249 132.888 132.906C132.232 133.562 128.432 133.533 127.766 132.866ZM58.4636 138.738C57.6574 138.104 57.8751 133.702 58.7304 133.342C59.5306 133.004 63.1289 133.233 63.4596 133.643C63.9453 134.244 63.9126 138.173 63.4175 138.7C62.9148 139.236 59.1322 139.265 58.4636 138.738ZM69.6127 136.103C69.6666 133.859 69.7374 133.593 70.3486 133.333C70.9872 133.061 74.6786 133.235 74.9946 133.551C75.2512 133.808 75.2852 134.32 75.3572 139.008L75.4366 144.182L75.8116 144.485C76.1375 144.749 76.4554 144.789 78.2459 144.789H80.3052L80.7695 145.254L81.2337 145.718V147.779L81.2337 147.981C81.2329 149.277 81.2325 149.926 81.5567 150.259C81.8817 150.592 82.5326 150.607 83.8359 150.637L84.0385 150.641C84.2931 150.647 84.5256 150.649 84.7379 150.651C85.6077 150.659 86.1387 150.663 86.4621 150.925C86.9691 151.335 86.9651 152.377 86.9548 155.053V155.053C86.9532 155.47 86.9515 155.926 86.9515 156.425V161.49L86.5616 161.88C86.1866 162.255 86.0911 162.27 84.0481 162.27L83.8464 162.27H83.8462C82.5809 162.269 81.9377 162.269 81.6034 162.59C81.2577 162.922 81.2422 163.598 81.2108 164.973L81.2059 165.185L81.2003 165.431C81.1719 166.694 81.1575 167.335 80.83 167.659C80.493 167.993 79.8243 167.993 78.4675 167.991L78.21 167.991C77.9852 167.991 77.7781 167.994 77.5871 167.996L77.5853 167.996C76.7217 168.007 76.1906 168.014 75.8644 167.759C75.3431 167.351 75.3453 166.274 75.3509 163.476V163.476V163.474C75.3517 163.087 75.3525 162.666 75.3521 162.209C75.3519 161.986 75.3519 161.771 75.352 161.564L75.3522 161.285C75.3542 158.341 75.355 157.161 74.7782 156.692C74.3925 156.378 73.7488 156.382 72.6748 156.388H72.6712C72.5136 156.389 72.3469 156.39 72.1703 156.39H72.1094C70.8746 156.39 70.257 156.39 69.9482 156.082C69.6393 155.773 69.6393 155.155 69.6394 153.919V153.858C69.6394 150.757 69.5678 150.681 66.6543 150.674C64.6272 150.669 64.5269 150.653 64.1527 150.279L63.7628 149.889V144.868V139.848L64.1527 139.458C64.5266 139.084 64.627 139.068 66.6057 139.068C69.5397 139.068 69.5417 139.066 69.6127 136.103ZM150.81 133.804C150.903 133.63 151.135 133.424 151.326 133.346C151.518 133.267 155.182 133.218 159.51 133.235L167.346 133.267L167.649 133.643C167.943 134.005 167.953 134.467 167.953 147.754V161.49L167.563 161.88C166.968 162.475 163.291 162.48 162.601 161.887L162.156 161.503L162.112 153.511C162.073 146.392 162.04 145.488 161.809 145.234C161.571 144.971 161.17 144.948 156.755 144.948C151.812 144.948 151.099 144.871 150.796 144.306C150.577 143.896 150.59 134.216 150.81 133.804ZM52.1963 141.874C52.2454 139.785 52.2666 139.66 52.6229 139.371C53.2623 138.854 57.1178 138.92 57.6552 139.458L58.0451 139.848V144.868V149.889L57.6552 150.279L57.2654 150.669H52.2765C51.809 150.669 51.3787 150.67 50.9828 150.672C48.1757 150.68 47.0942 150.684 46.6843 150.161C46.4274 149.833 46.4343 149.299 46.4455 148.429C46.448 148.234 46.4507 148.021 46.4507 147.79L46.4507 147.694C46.4506 146.225 46.4505 145.499 46.8135 145.14C47.1687 144.789 47.8713 144.789 49.2614 144.789H49.3541L49.5558 144.789H49.556C50.8213 144.79 51.4645 144.79 51.7988 144.469C52.1446 144.137 52.16 143.461 52.1914 142.086L52.1963 141.874ZM81.5157 144.507C80.8646 143.855 80.8978 140.04 81.5603 139.377C82.0534 138.883 86.0509 138.912 86.584 139.413C87.1117 139.91 87.1518 143.878 86.6345 144.434C85.9928 145.123 82.1857 145.177 81.5157 144.507ZM93.1105 144.506C92.5431 143.939 92.5538 139.833 93.1236 139.372C93.7628 138.854 97.6183 138.92 98.1559 139.458C98.7721 140.075 98.7569 143.899 98.1359 144.483C97.5223 145.06 93.6814 145.078 93.1105 144.506ZM145.486 150.57C144.591 150.227 144.391 146.092 145.229 145.254C146.019 144.463 149.797 144.577 150.437 145.411C150.85 145.949 150.702 149.828 150.251 150.279C149.861 150.67 146.31 150.887 145.486 150.57ZM58.0451 153.536C58.0451 151.458 58.0672 151.296 58.3927 150.993C58.7077 150.699 58.9458 150.669 60.934 150.669L61.233 150.669H61.2332C62.4951 150.667 63.1284 150.666 63.4458 150.982C63.7656 151.301 63.7648 151.942 63.7631 153.227L63.7628 153.53C63.7628 155.543 63.7326 155.785 63.4452 156.072C63.1577 156.36 62.9158 156.39 60.9039 156.39L60.5946 156.39C59.3172 156.392 58.6788 156.393 58.3603 156.074C58.0421 155.756 58.043 155.119 58.0448 153.845L58.0451 153.536ZM104.264 153.53C104.264 151.723 104.299 151.462 104.593 151.088C104.921 150.67 104.928 150.669 107.202 150.669L107.339 150.669C108.752 150.669 109.453 150.669 109.8 151.019C110.141 151.363 110.141 152.044 110.14 153.396L110.14 153.53L110.14 153.663C110.141 155.015 110.141 155.697 109.8 156.041C109.453 156.391 108.752 156.391 107.339 156.39L107.202 156.39L107.065 156.39C105.651 156.391 104.951 156.391 104.604 156.041C104.263 155.697 104.263 155.015 104.264 153.663L104.264 153.53ZM139.047 156.339C139.047 151.491 139.053 151.398 139.392 151.037C139.769 150.635 143.616 150.468 144.282 150.825C144.876 151.143 144.923 151.763 144.923 159.33C144.923 166.898 144.876 167.517 144.282 167.836C144.11 167.928 141.95 167.991 138.995 167.991C138.502 167.991 138.05 167.993 137.637 167.994C134.917 168.004 133.869 168.008 133.472 167.501C133.223 167.184 133.231 166.665 133.243 165.821V165.821L133.243 165.819C133.246 165.616 133.249 165.393 133.249 165.149L133.249 164.931C133.248 163.568 133.248 162.887 133.588 162.539C133.929 162.19 134.61 162.175 135.972 162.144L136.19 162.139C136.422 162.134 136.636 162.131 136.833 162.129C137.693 162.121 138.222 162.115 138.546 161.855C139.062 161.441 139.058 160.38 139.049 157.63C139.048 157.236 139.047 156.806 139.047 156.339ZM150.641 153.53C150.641 151.517 150.671 151.275 150.959 150.987C151.246 150.699 151.488 150.669 153.5 150.669C155.512 150.669 155.754 150.699 156.041 150.987C156.328 151.275 156.359 151.517 156.359 153.53C156.359 155.543 156.328 155.785 156.041 156.072C155.754 156.36 155.512 156.39 153.5 156.39C151.488 156.39 151.246 156.36 150.959 156.072C150.671 155.785 150.641 155.543 150.641 153.53ZM52.2012 162.563C52.1505 157.341 52.1626 157.192 52.6769 156.712C52.9884 156.422 53.2325 156.39 55.144 156.39H55.1948C56.6197 156.39 57.3323 156.39 57.6887 156.746C58.0452 157.103 58.0451 157.816 58.0451 159.242V159.293L58.0451 159.394C58.0449 160.803 58.0448 161.481 58.3837 161.808C58.6986 162.112 59.3061 162.111 60.4781 162.111H60.5688C63.7061 162.111 63.7628 162.166 63.7628 165.194C63.7628 165.433 63.7661 165.653 63.7691 165.853C63.7813 166.68 63.7889 167.19 63.5445 167.504C63.1516 168.008 62.1072 168.004 59.3837 167.994C58.9728 167.993 58.5236 167.991 58.0327 167.991C53.3132 167.991 52.9744 167.972 52.6229 167.688L52.2479 167.384L52.2012 162.563ZM63.9664 161.648C63.5536 161.11 63.702 157.231 64.1527 156.78C64.6033 156.329 68.4801 156.181 69.0179 156.594C70.0003 157.349 69.9081 161.634 68.8997 162.094C67.8518 162.572 64.4383 162.263 63.9664 161.648ZM115.858 157.17L116.248 156.78C116.623 156.405 116.716 156.39 118.749 156.395C121.672 156.402 121.734 156.467 121.734 159.479L121.734 159.577C121.734 160.863 121.734 161.497 122.051 161.809C122.358 162.112 122.964 162.111 124.158 162.111H124.252C127.39 162.111 127.452 162.171 127.452 165.15C127.452 167.093 127.426 167.284 127.107 167.624L126.761 167.991H121.639H116.516L116.187 167.573C115.87 167.169 115.858 166.971 115.858 162.162V157.17ZM98.5458 165.195C98.5458 162.772 98.5808 162.629 99.2447 162.335C99.633 162.163 100.755 162.125 104.555 162.154L109.374 162.191L109.757 162.637C110.35 163.327 110.345 167.006 109.75 167.601L109.36 167.991H104.321C103.852 167.991 103.422 167.993 103.026 167.994L103.018 167.994C100.233 168.003 99.1685 168.006 98.769 167.493C98.522 167.175 98.529 166.66 98.5403 165.826C98.543 165.633 98.5458 165.424 98.5458 165.195ZM150.641 165.195C150.641 162.772 150.676 162.629 151.34 162.335C151.728 162.163 152.85 162.125 156.651 162.154L161.469 162.191L161.852 162.637C162.445 163.327 162.44 167.006 161.845 167.601L161.456 167.991H156.416C155.944 167.991 155.511 167.993 155.113 167.994C152.328 168.003 151.264 168.006 150.864 167.493C150.617 167.175 150.624 166.66 150.635 165.826V165.826C150.638 165.634 150.641 165.424 150.641 165.195ZM127.508 10.1629C127.508 4.55022 132.058 0.00027887 137.67 0.00027887H157.837C163.449 0.00027887 167.999 4.55022 167.999 10.1628V30.5264C167.999 36.1391 163.449 40.689 157.837 40.689H137.67C132.058 40.689 127.508 36.1391 127.508 30.5264V10.1629ZM131.32 11.4367C131.32 7.22719 134.733 3.81473 138.942 3.81473H156.568C160.777 3.81473 164.19 7.22719 164.19 11.4367V29.2524C164.19 33.4619 160.777 36.8743 156.568 36.8743H138.942C134.733 36.8743 131.32 33.4619 131.32 29.2524V11.4367ZM144.183 11.6038C141.377 11.6038 139.102 13.8788 139.102 16.6851V24.006C139.102 26.8123 141.377 29.0872 144.183 29.0872H151.487C154.294 29.0872 156.568 26.8123 156.568 24.0059V16.6851C156.568 13.8788 154.294 11.6038 151.487 11.6038H144.183ZM10.1626 127.311C4.54994 127.311 0 131.861 0 137.473V157.837C0 163.45 4.54995 168 10.1626 168H30.3289C35.9416 168 40.4915 163.45 40.4915 157.837V137.473C40.4915 131.861 35.9415 127.311 30.3289 127.311H10.1626ZM11.4344 131.125C7.22495 131.125 3.8125 134.538 3.8125 138.747V156.563C3.8125 160.772 7.22495 164.185 11.4344 164.185H29.0601C33.2696 164.185 36.6821 160.772 36.6821 156.563V138.747C36.6821 134.538 33.2696 131.125 29.0601 131.125H11.4344ZM11.5938 143.996C11.5938 141.189 13.8687 138.914 16.675 138.914H23.9794C26.7857 138.914 29.0607 141.189 29.0607 143.996V151.316C29.0607 154.123 26.7857 156.398 23.9794 156.398H16.675C13.8687 156.398 11.5938 154.123 11.5938 151.316V143.996Z" fill="url(#paint0_linear_1025_1545)"/>
</g>
<defs>
<linearGradient id="paint0_linear_1025_1545" x1="0" y1="0.000183105" x2="168.159" y2="167.841" gradientUnits="userSpaceOnUse">
<stop stop-color="#34302C"/>
<stop offset="0.295131" stop-color="#525252"/>
<stop offset="0.857654" stop-color="#34302C"/>
</linearGradient>
</defs>
</svg>
