<svg width="121" height="121" viewBox="0 0 121 121" fill="none" xmlns="http://www.w3.org/2000/svg">
<path d="M56.9531 69.9851L57.0215 70.0191L57.0976 70.0145L79.212 68.671L77.329 72.0716L54.9279 73.4324L41.6821 66.8517L43.616 63.3589L56.9531 69.9851ZM61.2207 54.5229L60.5159 51.1764L62.3274 47.7964L64.8186 56.1508L61.2207 54.5229ZM57.5802 61.8984L49.373 62.4653L42.9094 59.3008L44.8577 55.785L57.5802 61.8984Z" fill="#2C3034" stroke="#FDBF1C" stroke-width="0.571834"/>
<path d="M79.7143 68.3414L57.0602 69.7158L43.3457 62.9561L58.1966 62.0584L44.6961 55.4053L51.3257 49.7962L65.0781 56.5526L62.3817 47.0498L75.5229 53.4874L79.7143 68.3414Z" fill="#FDBF1C"/>
<path fill-rule="evenodd" clip-rule="evenodd" d="M9.14934 0C4.0963 0 0 4.09629 0 9.14933V20.1562C0 25.2093 4.0963 29.3056 9.14934 29.3056H20.0142C25.0672 29.3056 29.1635 25.2093 29.1635 20.1563V9.14934C29.1635 4.0963 25.0672 0 20.0142 0H9.14934ZM9.60615 2.74707C5.81637 2.74707 2.74414 5.81929 2.74414 9.60907V19.6959C2.74414 23.4856 5.81637 26.5579 9.60615 26.5579H19.556C23.3458 26.5579 26.4181 23.4856 26.4181 19.6959V9.60907C26.4181 5.81929 23.3458 2.74707 19.556 2.74707H9.60615ZM8.34766 12.9311C8.34766 10.4046 10.3958 8.35645 12.9223 8.35645H16.3533C18.8799 8.35645 20.928 10.4046 20.928 12.9311V16.374C20.928 18.9005 18.8798 20.9487 16.3533 20.9487H12.9223C10.3958 20.9487 8.34766 18.9005 8.34766 16.374V12.9311ZM33.4557 4.24429C33.4557 0.53636 33.4825 0.312705 33.9493 0.124533C34.0873 0.0689055 39.4968 0.0204889 46.0191 0.0164828L57.839 0.00927141L58.1734 0.343838C58.7767 0.9475 58.6323 3.92575 57.9878 4.17321C57.886 4.21224 55.3126 4.24429 52.2693 4.24429C51.8123 4.24429 51.3881 4.24356 50.9942 4.24288C47.5635 4.23693 46.4405 4.23498 46.0809 4.75795C45.9059 5.01244 45.9117 5.39122 45.9203 5.95433C45.9223 6.08722 45.9245 6.23037 45.9245 6.38458C45.9245 8.3003 45.9918 8.36485 47.9876 8.36485C50.0699 8.36485 50.157 8.45207 50.157 10.5356C50.157 12.5714 50.1877 12.5999 52.3775 12.5999L52.5204 12.5998C53.353 12.5992 53.7844 12.5988 54.0128 12.814C54.2585 13.0454 54.2693 13.5261 54.2917 14.5237L54.2953 14.683L54.2986 14.8275C54.3202 15.7823 54.3309 16.2558 54.5731 16.4904C54.8113 16.7213 55.2735 16.721 56.1906 16.7205L56.3315 16.7204C58.3843 16.7204 58.3933 16.7123 58.3933 14.8771C58.3933 12.6308 58.3997 12.6243 60.6628 12.574C62.5857 12.5313 62.6259 12.4887 62.6259 10.4914L62.6259 10.4128C62.6261 9.47158 62.6261 8.9952 62.3881 8.74856C62.1442 8.49578 61.6502 8.48434 60.6498 8.46118L60.5682 8.45928C58.4791 8.41064 58.4748 8.40709 58.4119 6.70599C58.407 6.57474 58.4018 6.45048 58.3969 6.33282C58.3607 5.47004 58.3395 4.96256 58.5789 4.66447C58.9209 4.23869 59.7948 4.24013 61.9168 4.24361C62.1194 4.24394 62.3334 4.24429 62.5593 4.24429C62.8457 4.24429 63.1132 4.24368 63.3629 4.24311H63.363C65.4975 4.23825 66.3351 4.23634 66.6604 4.64362C66.8704 4.90667 66.8668 5.34043 66.8607 6.05434C66.8596 6.18366 66.8584 6.32218 66.8584 6.47054C66.8584 6.63017 66.8562 6.77645 66.8542 6.91048L66.8542 6.91139C66.8459 7.46338 66.8407 7.80749 67.005 8.02147C67.277 8.3757 68.0134 8.37327 69.9691 8.36683C70.2566 8.36589 70.5704 8.36485 70.9129 8.36485H74.5099L74.8309 8.64105L75.1519 8.91735V10.4824V12.0474L74.8309 12.3237L74.5099 12.5999H70.9856C67.5933 12.5999 67.4499 12.6088 67.1598 12.8372L66.8584 13.0743V18.6802C66.8584 19.2305 66.8596 19.7338 66.8607 20.194C66.8686 23.5366 66.8711 24.6106 66.3753 24.9444C66.1405 25.1025 65.7941 25.0946 65.2837 25.0831H65.2836C65.1351 25.0797 64.9728 25.076 64.7953 25.076C62.7017 25.076 62.6259 25.1542 62.6259 27.3134C62.6259 29.3031 62.5602 29.3589 60.2929 29.2925C60.1542 29.2884 60.026 29.2864 59.9073 29.2844L59.9069 29.2844C59.3779 29.2759 59.0408 29.2704 58.824 29.1062C58.4433 28.8179 58.4332 28.0402 58.4056 25.897V25.8969L58.4056 25.8953C58.4021 25.6219 58.3982 25.3262 58.3933 25.0064C58.3393 21.4856 58.3239 21.2711 58.1141 21.1178C57.9337 20.9859 57.2233 20.9555 54.326 20.9555C53.9878 20.9555 53.677 20.9565 53.3915 20.9574C51.4053 20.9639 50.6399 20.9664 50.3412 20.5943C50.1539 20.361 50.1501 19.9804 50.1439 19.3613C50.1425 19.2193 50.1409 19.0647 50.137 18.8966L50.134 18.7654C50.1111 17.7595 50.0997 17.2624 49.8454 17.0168C49.597 16.777 49.1168 16.7772 48.1674 16.7776L48.0408 16.7777L47.9141 16.7776C46.9648 16.7772 46.4845 16.777 46.2361 17.0168C45.9818 17.2624 45.9705 17.7595 45.9475 18.7654L45.9445 18.8966L45.9422 18.9972C45.9195 19.9812 45.9082 20.4709 45.6577 20.7145C45.4094 20.9559 44.9264 20.9557 43.9648 20.9555L43.8654 20.9555C42.5654 20.9555 42.3769 20.93 42.1078 20.7182L41.8064 20.481V12.7576C41.8064 11.9059 41.8083 11.1387 41.8101 10.4475V10.446V10.446C41.8213 5.99442 41.8246 4.70148 41.2497 4.34738C41.0143 4.20243 40.6821 4.21479 40.2139 4.2322C40.0361 4.23882 39.8388 4.24615 39.6198 4.2459C37.7201 4.24361 37.6882 4.27371 37.6882 6.06684C37.6882 8.29068 37.5245 8.47931 35.5947 8.47931C35.492 8.47931 35.3943 8.47976 35.3012 8.48018C34.5827 8.48345 34.1433 8.48544 33.8747 8.2722C33.4516 7.93629 33.4527 7.06626 33.4553 4.82571V4.8241C33.4555 4.64021 33.4557 4.4471 33.4557 4.24429ZM75.0947 0.678405L75.4337 0.33926L75.7727 0L79.3905 0.0331935L83.0083 0.0665014L83.2268 0.336742C83.5675 0.757955 83.5641 7.78821 83.223 8.12953C82.8864 8.46627 82.5158 8.49465 78.9454 8.45699L75.6465 8.42208L75.3706 8.10091L75.0947 7.77974V4.22907V0.678405ZM54.556 12.3189C54.0006 11.7633 54.1693 8.72186 54.7688 8.48012C55.4715 8.19683 57.8224 8.34826 58.1734 8.69942C58.7923 9.31888 58.6426 12.1685 57.975 12.4728C57.3735 12.747 54.8713 12.6344 54.556 12.3189ZM83.4454 10.4546C83.4454 8.9304 83.4919 8.75322 83.9601 8.49706C84.5241 8.18836 86.9795 8.33521 87.3435 8.69942L87.6779 9.03399V14.6602V20.2863L87.3435 20.6209L87.0092 20.9555H85.5259L85.3806 20.9554C84.4475 20.9548 83.9802 20.9545 83.7409 21.188C83.5009 21.422 83.4902 21.8912 83.4688 22.8308L83.4654 22.9767L83.4616 23.1408C83.4393 24.1204 83.4283 24.6045 83.1807 24.8436C82.9388 25.0771 82.471 25.0768 81.5462 25.0761L81.3879 25.076L81.3013 25.076C80.273 25.0762 79.7803 25.0763 79.5442 24.8302C79.3269 24.6037 79.327 24.1687 79.3272 23.3335L79.3272 23.2572C79.3272 21.0246 79.2658 20.9555 77.2811 20.9555C75.1868 20.9555 75.0947 20.8658 75.0947 18.8268C75.0947 16.7561 75.1308 16.7204 77.2279 16.7204C79.2731 16.7204 79.3272 16.661 79.3272 14.4142V14.3782C79.3272 13.4888 79.3272 13.0442 79.5495 12.822C79.7717 12.5998 80.216 12.5998 81.1046 12.5999L81.1405 12.5999C83.3934 12.5999 83.4454 12.5515 83.4454 10.4546ZM33.4557 13.1297L33.7044 12.8647C33.9762 12.5753 36.7464 12.4551 37.2262 12.7119C37.6318 12.9292 37.6882 13.4454 37.6882 16.941C37.6882 17.2845 37.687 17.5978 37.6859 17.8835C37.6788 19.6952 37.6761 20.3979 38.0177 20.6731C38.2341 20.8474 38.5887 20.8501 39.1679 20.8546H39.168C39.3122 20.8557 39.4702 20.8569 39.6435 20.8609C41.806 20.9109 41.8064 20.9113 41.8064 23.0067V23.0568C41.8064 24.0788 41.8065 24.5836 41.5541 24.8329C41.3079 25.0761 40.8213 25.0761 39.8598 25.076H39.8598L39.8116 25.076L39.6851 25.076C38.6945 25.0756 38.202 25.0754 37.9516 25.3214C37.7041 25.5647 37.6931 26.0485 37.6711 27.0105L37.6682 27.1349L37.6672 27.1766C37.6422 28.2564 37.6302 28.7709 37.367 29.0235C37.1274 29.2534 36.6798 29.2665 35.8249 29.2914L35.7886 29.2925C35.5467 29.2996 35.3295 29.3142 35.1347 29.3273C34.6198 29.3621 34.2607 29.3863 34.0108 29.2327C33.435 28.879 33.4388 27.5819 33.4513 23.2962V23.2961V23.2952C33.4534 22.5917 33.4557 21.8077 33.4557 20.9342V13.1297ZM41.8064 25.5505L42.1078 25.3133C42.3781 25.1005 42.5648 25.076 43.9182 25.076L44.0549 25.076C44.957 25.0754 45.4172 25.0752 45.6572 25.3049C45.9072 25.5441 45.9184 26.0328 45.9412 27.0303V27.0304L45.9445 27.1753L45.9482 27.3333C45.9693 28.2615 45.9799 28.7277 46.2183 28.9616C46.4589 29.1977 46.9314 29.1973 47.8806 29.1967L48.0408 29.1966L48.2009 29.1967C49.1502 29.1973 49.6227 29.1977 49.8632 28.9616C50.1017 28.7277 50.1123 28.2615 50.1334 27.3333L50.137 27.1753L50.1404 27.0304V27.0303C50.1632 26.0328 50.1744 25.5441 50.4243 25.3049C50.6643 25.0752 51.1245 25.0754 52.0266 25.076L52.1634 25.076C53.5168 25.076 53.7035 25.1005 53.9738 25.3133L54.2752 25.5505V29.2538V32.9572L53.9738 33.1943C53.5014 33.5662 42.5801 33.5662 42.1078 33.1943L41.8064 32.9572V29.2538V25.5505ZM67.0784 28.9765C66.4986 28.3964 66.6158 25.399 67.2278 25.1526C67.7828 24.9292 70.4237 25.0847 70.6957 25.357C71.0204 25.6817 71.1272 28.4756 70.8299 28.8632C70.369 29.4638 67.6477 29.546 67.0784 28.9765ZM75.1145 27.0687C75.1499 25.5942 75.166 25.5017 75.422 25.2945C75.6577 25.1037 75.8869 25.076 77.2288 25.076H77.2575C78.2982 25.076 78.8156 25.076 79.0728 25.3347C79.3273 25.5905 79.3272 26.0994 79.3272 27.1114V27.1399V28.6419L78.9929 28.9765C78.6585 29.311 78.6583 29.311 77.211 29.311H75.7634L75.4202 28.9675L75.077 28.6242L75.1145 27.0687ZM83.4454 27.1157C83.4454 25.6993 83.457 25.6262 83.7262 25.357C84.1791 24.9038 86.9762 24.9241 87.4019 25.3837L87.6868 25.6914L87.6538 29.3429L87.6207 32.9943L87.3506 33.2129C87.0976 33.4179 86.8537 33.4316 83.4687 33.4316C83.1237 33.4316 82.8073 33.4327 82.5171 33.4337C80.5453 33.4404 79.7824 33.443 79.4924 33.074C79.3093 32.8411 79.3145 32.4603 79.3231 31.8391C79.3251 31.6942 79.3272 31.5362 79.3272 31.364L79.3271 31.1739C79.3262 30.2098 79.3257 29.7319 79.5645 29.4897C79.7992 29.2515 80.265 29.2412 81.189 29.2208L81.3744 29.2166L81.4886 29.214C82.4703 29.1916 82.9596 29.1804 83.2035 28.9301C83.4459 28.6813 83.4457 28.1962 83.4454 27.2289V27.2288L83.4454 27.1157ZM62.6259 33.4319C62.6259 29.6406 62.6291 29.6147 63.1406 29.3239C63.2868 29.2408 63.8946 29.2047 64.8251 29.2238L64.9187 29.2257C65.8318 29.2443 66.2993 29.2538 66.5441 29.4921C66.8008 29.742 66.8124 30.2439 66.8361 31.2721V31.2722L66.8384 31.3727L66.8404 31.4606C66.8634 32.4563 66.8748 32.9491 67.127 33.193C67.3741 33.4319 67.8524 33.4318 68.7994 33.4316L68.8845 33.4316C70.3051 33.4316 70.3084 33.4309 70.6422 33.097L70.9765 32.7625V31.2784L70.9765 31.1238V31.1237C70.9758 30.1914 70.9755 29.7236 71.2093 29.489C71.4447 29.2528 71.9175 29.2531 72.8664 29.2537L73.0223 29.2538L73.1794 29.2537C74.1599 29.2531 74.6503 29.2528 74.9012 29.4978C75.1522 29.7429 75.1633 30.2337 75.1855 31.2154V31.2156L75.1891 31.3727L75.1916 31.4812C75.214 32.458 75.2252 32.9457 75.4748 33.1892C75.7237 33.4321 76.2098 33.4319 77.1807 33.4316L77.2887 33.4316C79.3254 33.4316 79.3272 33.4334 79.3272 35.4803C79.3272 36.8869 79.3123 36.9844 79.0512 37.2882L78.7752 37.6094L71.3011 37.6429C67.1904 37.6612 63.6595 37.646 63.4548 37.6091L63.4428 37.6069C63.2406 37.5703 63.0885 37.5428 62.9741 37.4619C62.6259 37.2161 62.6259 36.477 62.6259 33.4898V33.4319ZM12.6162 35.5309C12.6495 34.1089 12.6778 33.9203 12.8935 33.6891C13.1198 33.4464 13.2233 33.4316 14.6953 33.4316L14.8543 33.4315C15.7798 33.4308 16.2478 33.4305 16.4898 33.6642C16.7373 33.9032 16.7483 34.3872 16.7706 35.3662L16.7744 35.5309L16.7777 35.6768C16.7992 36.6165 16.8099 37.0856 17.0499 37.3197C17.2892 37.5531 17.7565 37.5528 18.6896 37.5522L18.8349 37.5522H20.3181L20.6525 37.8867L20.9869 38.2213V39.7054C20.9869 40.9957 21.0155 41.2248 21.2054 41.4597L21.4239 41.73L25.148 41.7872C25.5385 41.7932 25.8924 41.7971 26.2131 41.8007C28.1312 41.822 28.8626 41.8302 29.1351 42.1879C29.3031 42.4085 29.2967 42.7618 29.2863 43.333C29.2835 43.4879 29.2804 43.6588 29.2804 43.8475C29.2804 43.9395 29.2805 44.0272 29.2807 44.1109C29.2826 44.9713 29.2835 45.4035 29.068 45.6279C28.8505 45.8544 28.4123 45.8691 27.5317 45.8986L27.5314 45.8986C27.4467 45.9015 27.3579 45.9044 27.2648 45.9077C25.113 45.9843 25.105 45.9922 25.105 48.0253C25.105 50.0637 25.1146 50.0729 27.2582 50.1226L27.4942 50.1278C28.384 50.1469 28.8313 50.1565 29.0558 50.3851C29.2828 50.6161 29.2821 51.0708 29.2806 51.9852L29.2804 52.2251L29.2804 52.3519C29.2808 53.3218 29.281 53.7998 29.0422 54.0353C28.8101 54.264 28.3523 54.2638 27.4499 54.2634H27.4498L27.3284 54.2633C25.186 54.2633 25.105 54.3422 25.105 56.428V56.4592C25.105 57.4038 25.105 57.8848 25.3454 58.1298C25.595 58.3839 26.1034 58.3839 27.1394 58.3839H27.1724L27.3394 58.384C28.3067 58.3847 28.7777 58.385 29.0068 58.1498C29.2243 57.9265 29.224 57.491 29.2232 56.6422L29.2232 56.4878C29.2232 54.3215 29.2706 54.272 31.3553 54.267L31.5147 54.2667C32.4517 54.2651 32.9205 54.2643 33.1603 54.0296C33.4004 53.7945 33.4109 53.325 33.4319 52.3853V52.3853L33.4356 52.2259L33.4401 52.0253V52.0253C33.4612 51.0677 33.4716 50.5966 33.7123 50.3652C33.9454 50.1411 34.3944 50.1416 35.2782 50.1426L35.4696 50.1428C37.1764 50.1428 37.3769 50.199 37.5618 50.7297C37.7311 51.2158 37.7381 61.5572 37.5694 62.0012L37.5521 62.0473C37.5189 62.136 37.491 62.2108 37.4464 62.2738C37.2075 62.6119 36.4907 62.6124 31.9293 62.615L31.4878 62.6153C31.0029 62.6156 30.5546 62.615 30.1402 62.6145H30.1376H30.1375C26.7357 62.6101 25.618 62.6087 25.2595 63.1296C25.0841 63.3846 25.0905 63.7646 25.1001 64.3307C25.1024 64.4718 25.105 64.6245 25.105 64.7896C25.105 64.9123 25.1058 65.0278 25.1066 65.1364C25.1114 65.7964 25.1143 66.2038 24.9177 66.455C24.6006 66.8599 23.7646 66.8585 21.5805 66.8547C21.3578 66.8543 21.121 66.8539 20.8694 66.8539H17.4231L17.0887 66.5194L16.7543 66.1848V64.6827V64.681C16.7543 63.6457 16.7543 63.1302 17.0121 62.8735C17.2677 62.6189 17.7769 62.6189 18.7911 62.6189H18.7928C20.1137 62.6189 20.3015 62.5938 20.5711 62.3816L20.8725 62.1445V58.4411V54.7378L20.5711 54.5006C20.2807 54.272 20.1381 54.2633 16.7033 54.2633C16.3517 54.2633 16.0303 54.2645 15.7365 54.2656C13.8271 54.2728 13.0833 54.2756 12.7987 53.9155C12.6172 53.6857 12.6227 53.3081 12.6317 52.6895V52.6895C12.6338 52.5403 12.6362 52.3771 12.6362 52.1986L12.6362 52.0571C12.6357 51.061 12.6354 50.583 12.8742 50.3536C13.0945 50.1419 13.5185 50.1422 14.3337 50.1427L14.459 50.1428C14.5881 50.1428 14.7099 50.1435 14.8249 50.1441C15.596 50.1486 16.0587 50.1513 16.3363 49.926C16.7529 49.5877 16.7523 48.7356 16.7508 46.6047C16.7506 46.3931 16.7504 46.1688 16.7507 45.9312L16.7543 42.3491L16.4735 42.0682L16.1928 41.7872H12.6507C10.7026 41.7872 9.02538 41.7551 8.92358 41.7161C8.27909 41.4686 8.13472 38.4904 8.73803 37.8867L9.0724 37.5522H10.5556L10.7009 37.5522C11.6341 37.5528 12.1013 37.5531 12.3406 37.3197C12.5806 37.0856 12.5913 36.6165 12.6128 35.6768L12.6162 35.5309ZM25.4003 37.3319C24.9858 36.9424 24.9422 34.2419 25.3422 33.7332C25.6628 33.3253 28.5293 33.2606 29.0103 33.6504C29.4207 33.983 29.4284 36.9399 29.0198 37.3487C28.6085 37.7601 25.8422 37.7473 25.4003 37.3319ZM37.8414 37.2783C37.4199 36.788 37.4657 34.0024 37.9011 33.6501C38.3617 33.2774 41.1385 33.3253 41.5255 33.7126C41.9539 34.1411 41.9574 36.7913 41.5303 37.2882L41.2542 37.6094H39.6901H38.126L37.8414 37.2783ZM54.2752 35.5447C54.2752 34.1905 54.2997 34.0037 54.5123 33.7332C54.8327 33.3255 57.6991 33.2606 58.1804 33.6501C58.6158 34.0024 58.6617 36.788 58.2402 37.2783L57.9555 37.6094H56.4106H56.3908C55.3211 37.6094 54.7923 37.6094 54.5308 37.345C54.2752 37.0865 54.2752 36.5751 54.2752 35.5638V35.5447ZM95.9142 35.6363C95.9142 34.2118 96.0415 33.6517 96.398 33.5082C96.4779 33.476 99.1067 33.4456 102.24 33.4406L107.936 33.4316L108.217 33.7126L108.497 33.9935V39.6491C108.497 40.2903 108.499 40.8665 108.501 41.3842V41.3853C108.512 44.4607 108.515 45.4715 108.048 45.7894C107.819 45.945 107.477 45.9346 106.968 45.919C106.793 45.9137 106.598 45.9077 106.381 45.9077C106.208 45.9077 106.049 45.9098 105.903 45.9117C105.262 45.9201 104.869 45.9253 104.63 45.7364C104.254 45.4393 104.256 44.6619 104.263 42.6613C104.264 42.372 104.265 42.0572 104.265 41.7145C104.265 41.353 104.266 41.0235 104.267 40.7232V40.7205C104.275 38.8376 104.278 38.1045 103.923 37.8247C103.697 37.6463 103.326 37.6521 102.718 37.6616C102.565 37.664 102.398 37.6666 102.214 37.6666L102.129 37.6666C101.14 37.6664 100.644 37.6663 100.396 37.9141C100.146 38.1629 100.147 38.6618 100.147 39.6617V39.6618L100.147 39.7475C100.147 41.164 100.135 41.237 99.8659 41.5062L99.5852 41.7872H95.9892C95.6378 41.7872 95.3161 41.7861 95.0216 41.785C93.0567 41.7781 92.304 41.7755 92.0124 42.1409C91.8313 42.3677 91.8281 42.7365 91.8228 43.3342C91.8215 43.4785 91.8201 43.6362 91.8161 43.8084L91.8121 43.98V43.98C91.7901 44.9525 91.7792 45.4348 91.5325 45.6738C91.2898 45.909 90.8189 45.9086 89.8846 45.9078L89.7171 45.9077C89.5923 45.9077 89.4747 45.9085 89.3638 45.9093H89.3636C88.6637 45.914 88.2311 45.9169 87.9664 45.7076C87.5382 45.369 87.549 44.4753 87.5774 42.1359V42.1358C87.5801 41.9064 87.5831 41.6631 87.5858 41.4051L87.6207 38.1043L87.9417 37.8282L88.2627 37.5522H91.8552C92.1875 37.5522 92.4927 37.5531 92.7731 37.554C94.742 37.5602 95.4864 37.5625 95.7628 37.204C95.9309 36.986 95.926 36.6346 95.9181 36.0697V36.0696V36.0689C95.9162 35.9368 95.9142 35.7929 95.9142 35.6363ZM112.616 33.9935L112.896 33.7126L113.177 33.4316H116.807C120.376 33.4316 120.441 33.4357 120.702 33.6804L120.966 33.9294V37.6211V41.3128L120.665 41.5499C120.395 41.7621 120.207 41.7872 118.887 41.7872C116.851 41.7872 116.848 41.7904 116.848 43.8269L116.848 43.9319C116.848 44.9146 116.849 45.4087 116.602 45.6571C116.352 45.9082 115.849 45.9081 114.839 45.9078L114.732 45.9077C114.515 45.9077 114.32 45.9137 114.145 45.919C113.636 45.9346 113.294 45.945 113.065 45.7894C112.597 45.4715 112.601 44.4607 112.612 41.3853V41.3842C112.614 40.8665 112.616 40.2903 112.616 39.6491V33.9935ZM0.0437168 46.5862L0.382778 46.247L0.721723 45.9077H6.39824H12.0746L12.3554 46.1888C12.6258 46.4592 12.6361 46.5259 12.6325 47.9915C12.6275 50.0978 12.5811 50.1428 10.4131 50.1428L10.3424 50.1428H10.3424C9.41679 50.1426 8.96073 50.1426 8.73606 50.3705C8.51783 50.592 8.5179 51.0285 8.51805 51.8892L8.51805 51.9571C8.51805 53.3942 8.39714 53.9686 8.05602 54.1513C7.61286 54.3885 0.686033 54.2923 0.380261 54.0446L0.110179 53.826L0.0768909 50.2061L0.0437168 46.5862ZM29.205 46.5951L29.5485 46.2514L29.8919 45.9077H31.3931H31.4291C32.4335 45.9077 32.9402 45.9077 33.1957 46.161C33.4557 46.4188 33.4557 46.9389 33.4557 47.9884V48.0253V48.0555C33.4557 49.1109 33.4557 49.6326 33.1949 49.8906C32.9398 50.1428 32.4353 50.1428 31.4375 50.1428H31.4082C29.3093 50.1428 29.2939 50.1281 29.2427 48.0929L29.205 46.5951ZM83.5164 49.6226C83.2886 49.0287 83.4449 46.4701 83.7262 46.1888C84.0507 45.8639 86.8429 45.757 87.2303 46.0545C87.8306 46.5156 87.9128 49.2385 87.3435 49.8082C86.7402 50.4119 83.7637 50.2674 83.5164 49.6226ZM91.796 46.4696L92.0769 46.1888L92.3576 45.9077H95.9714H99.5852L99.8659 46.1888C100.137 46.4594 100.147 46.5262 100.147 48.0253V48.0749C100.147 49.1132 100.147 49.6302 99.8883 49.8876C99.632 50.1429 99.1214 50.1428 98.1044 50.1428H98.0556L97.9103 50.1427C96.9989 50.1421 96.5356 50.1418 96.2948 50.3731C96.0458 50.6123 96.0347 51.0991 96.0121 52.0893L96.0086 52.2421L96.0045 52.4196C95.9841 53.3291 95.9737 53.7904 95.7378 54.0241C95.4951 54.2647 95.0135 54.2643 94.0363 54.2634L93.8508 54.2633C93.6872 54.2633 93.5365 54.2653 93.3978 54.267C92.7786 54.275 92.397 54.2799 92.1624 54.0966C91.7856 53.8022 91.788 53.0224 91.7942 50.9902V50.9889C91.7951 50.7059 91.796 50.3986 91.796 50.0649V46.4696ZM100.147 52.2047C100.147 50.7921 100.169 50.62 100.38 50.3933C100.598 50.1594 100.716 50.1428 102.161 50.1428C104.304 50.1428 104.379 50.2132 104.379 52.203C104.379 54.1884 104.3 54.2633 102.192 54.2633L102.079 54.2634C101.115 54.2637 100.631 54.2639 100.389 54.0223C100.146 53.7797 100.146 53.2932 100.147 52.3182L100.147 52.2047ZM117.196 54.1513C116.564 53.8133 116.537 50.7599 117.161 50.2858C117.51 50.0209 120.458 50.0916 120.737 50.3717C121.099 50.7332 121.083 53.6093 120.718 53.9985C120.446 54.2879 117.675 54.4081 117.196 54.1513ZM83.5723 57.9653C83.2984 57.3635 83.4108 54.8598 83.7262 54.5443C84.0074 54.2629 86.5645 54.1065 87.158 54.3344C87.8025 54.5819 87.9468 57.5601 87.3435 58.1638C86.7244 58.7831 83.8765 58.6333 83.5723 57.9653ZM96.2486 58.1638C95.6793 57.5941 95.7615 54.8712 96.3618 54.4101C96.7491 54.1126 99.5414 54.2195 99.8659 54.5443C100.147 54.8257 100.303 57.3843 100.076 57.9781C99.8284 58.623 96.8519 58.7675 96.2486 58.1638ZM104.599 58.1638C104.019 57.5837 104.137 54.5863 104.749 54.3399C105.304 54.1165 107.945 54.272 108.217 54.5443C108.532 54.8598 108.644 57.3635 108.37 57.9653C108.066 58.6333 105.218 58.7831 104.599 58.1638ZM0.0546986 60.5357C0.0565289 59.1346 0.160626 58.7693 0.627235 58.5277C0.844123 58.4153 1.73913 58.3878 4.42553 58.4109C4.75842 58.4138 5.06392 58.4153 5.3443 58.4167C7.24115 58.4263 7.98824 58.4301 8.2863 58.7978C8.47997 59.0367 8.48405 59.4293 8.49077 60.0771C8.4923 60.2244 8.49397 60.385 8.49803 60.56L8.50054 60.6685C8.52299 61.6453 8.5342 62.133 8.78375 62.3765C9.03267 62.6194 9.51875 62.6192 10.4897 62.6189L10.5977 62.6189C12.0133 62.6189 12.0863 62.6306 12.3554 62.8999L12.6362 63.1808V66.7967V70.4126L12.3554 70.6935C12.0853 70.9637 12.0164 70.9745 10.5467 70.9745L10.4645 70.9745H10.4645C9.45934 70.9743 8.97316 70.9742 8.73804 71.2172C8.51778 71.4447 8.51787 71.8856 8.51804 72.7395L8.51805 72.814C8.51805 75.0205 8.34658 75.2095 6.34459 75.2095C4.38104 75.2095 4.28552 75.1141 4.28552 73.1511C4.28552 70.9978 4.26413 70.9762 2.13127 70.9708C0.115327 70.9658 0.0529828 70.9006 0.0529828 68.7985C0.0529828 67.4149 0.0544695 67.4071 0.387353 67.074L0.721723 66.7395H2.2571L2.37688 66.7395C3.31319 66.7399 3.77274 66.7401 4.00462 66.5104C4.22813 66.289 4.2401 65.8541 4.26362 64.9999L4.26676 64.8866C4.32716 62.7271 4.22455 62.6189 2.11606 62.6189C0.101943 62.6189 0.0520676 62.5684 0.0546986 60.5357ZM87.5652 62.762C87.5669 58.9997 87.5928 58.8091 88.1378 58.5283C88.3537 58.4171 89.2609 58.3893 91.9361 58.4117C92.4105 58.4157 92.8298 58.4133 93.2004 58.4113C94.5946 58.4035 95.2994 58.3995 95.6511 58.75C96.0108 59.1083 96.0013 59.8372 95.982 61.3114C95.977 61.6947 95.9714 62.1283 95.9714 62.6189C95.9714 62.9731 95.9726 63.2974 95.9736 63.5943C95.9808 65.5603 95.9835 66.3249 95.6114 66.6258C95.3745 66.8173 94.9858 66.8209 94.3496 66.8268C94.1987 66.8282 94.0338 66.8297 93.8537 66.8339C93.685 66.8378 93.53 66.8394 93.3876 66.8408C92.771 66.8469 92.3914 66.8506 92.1583 67.0373C91.785 67.3363 91.7875 68.1046 91.7941 70.1036C91.795 70.3918 91.796 70.7056 91.796 71.0472C91.796 71.479 91.8004 71.8668 91.8043 72.215V72.2159C91.8211 73.7091 91.8297 74.4734 91.4518 74.8568C91.0555 75.259 90.2343 75.2423 88.5519 75.2082H88.5518C88.1775 75.2006 87.7605 75.1921 87.2961 75.1872L83.9972 75.1523L83.7213 74.8311L83.4454 74.5099V71.0307C83.4454 70.8146 83.4451 70.6094 83.4448 70.4145V70.4145C83.4419 68.1784 83.4408 67.2991 83.8692 66.9554C84.1469 66.7326 84.6051 66.7348 85.3602 66.7385C85.4618 66.739 85.5688 66.7395 85.6814 66.7395C85.8374 66.7395 85.9806 66.7415 86.1119 66.7434C86.6657 66.7514 87.0099 66.7563 87.2233 66.5917C87.5739 66.3214 87.5719 65.5938 87.5667 63.6715C87.5659 63.394 87.5651 63.0915 87.5652 62.762ZM108.497 60.4713C108.557 58.798 108.63 58.5584 109.106 58.4613C109.243 58.4332 110.917 58.4173 112.826 58.4258L116.296 58.4411L116.572 58.7623C116.833 59.0661 116.848 59.1638 116.848 60.5702V60.5813V60.5814C116.848 61.5958 116.848 62.1052 117.103 62.361C117.36 62.6189 117.876 62.6189 118.912 62.6189H118.923L119.018 62.6189C119.997 62.6187 120.484 62.6185 120.727 62.8621C120.967 63.1033 120.966 63.5836 120.966 64.5395L120.966 64.6326C120.966 66.8486 120.961 66.8539 118.741 66.8539C118.581 66.8539 118.434 66.8517 118.299 66.8496C117.75 66.8412 117.407 66.8359 117.193 66.9996C116.837 67.2719 116.84 68.0121 116.846 69.984V69.9869C116.847 70.2767 116.848 70.5931 116.848 70.9386C116.848 71.2798 116.847 71.5932 116.846 71.8811C116.84 73.8792 116.837 74.6449 117.207 74.9333C117.437 75.1124 117.81 75.1073 118.415 75.0991L118.416 75.099C118.557 75.0971 118.709 75.0951 118.875 75.0951H118.924H118.924C119.941 75.095 120.451 75.095 120.708 75.3503C120.966 75.6077 120.966 76.1247 120.966 77.163V77.2126V77.2551C120.966 78.2996 120.966 78.8184 120.707 79.076C120.451 79.3301 119.943 79.3301 118.933 79.3301H118.891L118.799 79.3301C117.818 79.3298 117.33 79.3297 117.087 79.5736C116.848 79.8146 116.848 80.2939 116.848 81.2469L116.848 81.3376L116.848 81.4564C116.848 82.4534 116.849 82.9522 116.599 83.2016C116.35 83.4512 115.85 83.451 114.851 83.4507L114.732 83.4506C114.559 83.4506 114.4 83.4527 114.254 83.4546C113.612 83.463 113.22 83.4682 112.981 83.2793C112.604 82.9822 112.607 82.2048 112.614 80.2042C112.614 79.9149 112.616 79.6001 112.616 79.2574C112.616 79.049 112.616 78.8512 112.616 78.6636C112.617 78.5549 112.617 78.4496 112.617 78.3476C112.623 76.3552 112.625 75.618 112.272 75.3504C112.064 75.1933 111.734 75.1981 111.21 75.2057C111.085 75.2075 110.95 75.2095 110.802 75.2095C108.577 75.2095 108.497 75.1411 108.497 73.2215C108.497 71.0571 108.429 70.9832 106.419 70.9782C106.28 70.9778 106.15 70.9785 106.029 70.9792C105.342 70.9831 104.922 70.9855 104.664 70.7817C104.258 70.4595 104.259 69.6218 104.264 67.46V67.4598C104.264 67.295 104.265 67.1225 104.265 66.942C104.265 66.8573 104.265 66.7709 104.265 66.6827V63.1808L104.546 62.8999C104.815 62.6304 104.887 62.6189 106.312 62.6189H106.315C107.361 62.6189 107.887 62.6189 108.162 62.356C108.439 62.0896 108.459 61.5534 108.497 60.474L108.497 60.4713ZM25.105 68.8841C25.105 67.3022 25.1493 67.1291 25.6198 66.8717C25.7493 66.8008 26.4606 66.745 27.2587 66.7429C29.246 66.7381 29.3376 66.8285 29.3376 68.7985C29.3376 70.9127 29.285 70.9658 27.1875 70.9708L27.1547 70.9709C26.1313 70.9734 25.6189 70.9747 25.3623 70.7191C25.105 70.4627 25.105 69.9481 25.105 68.9172V68.8841ZM95.9381 71.0731C95.9021 67.2285 95.9201 67.0974 96.5214 66.8551C96.9576 66.6793 99.3159 66.718 99.6809 66.9069C100.12 67.134 100.147 67.2432 100.147 68.8038C100.147 70.8903 100.232 70.9745 102.333 70.9745C104.286 70.9745 104.379 71.0695 104.379 73.0555L104.379 73.1743C104.38 73.9628 104.38 74.4489 104.143 74.7461C103.763 75.2236 102.771 75.2138 100.185 75.1882H100.185L99.9426 75.1858C99.4823 75.1814 99.0748 75.1829 98.714 75.1843C97.3344 75.1895 96.6384 75.1921 96.2885 74.8455C95.9323 74.4926 95.9348 73.7777 95.9398 72.335C95.9411 71.9645 95.9425 71.5459 95.9381 71.0731ZM12.6362 72.8733C12.6362 71.5475 12.6547 71.424 12.8866 71.2079C13.1131 70.9967 13.2851 70.9745 14.6969 70.9745C14.8681 70.9745 15.0252 70.9723 15.1691 70.9703L15.17 70.9702C15.7785 70.9616 16.1531 70.9563 16.3848 71.1357C16.7558 71.4229 16.7602 72.1836 16.7715 74.1626C16.7732 74.4553 16.7751 74.7746 16.7782 75.123C16.7815 75.4721 16.7832 75.7919 16.7849 76.085L16.7849 76.0858C16.7958 78.0411 16.8 78.8022 17.1741 79.1021C17.4125 79.2932 17.8012 79.2969 18.4375 79.3029C18.5873 79.3043 18.7507 79.3059 18.9292 79.3101L19.0377 79.3126C20.0134 79.335 20.5009 79.3462 20.7443 79.5956C20.9874 79.8446 20.9872 80.331 20.9869 81.3029L20.9869 81.411C20.9869 82.8274 20.9985 82.9004 21.2677 83.1696L21.5484 83.4506H25.0844C25.4203 83.4506 25.7288 83.4517 26.0123 83.4526H26.0125C27.977 83.4592 28.7383 83.4617 29.0371 83.0912C29.2262 82.8567 29.23 82.4729 29.2363 81.8462C29.2377 81.7033 29.2393 81.5477 29.2432 81.3785C29.2473 81.202 29.2486 81.0406 29.2498 80.8931C29.2549 80.2858 29.258 79.9124 29.4414 79.6835C29.7343 79.318 30.4868 79.3207 32.4407 79.3278C32.738 79.3289 33.0632 79.3301 33.4187 79.3301C33.6116 79.3301 33.7957 79.3299 33.9716 79.3297C36.2769 79.3275 37.1555 79.3266 37.4885 79.7524C37.6936 80.0146 37.6918 80.4386 37.689 81.1237C37.6886 81.2086 37.6882 81.2974 37.6882 81.3904C37.6882 83.3532 37.5915 83.4506 35.6421 83.4506C33.5284 83.4506 33.4557 83.5252 33.4557 85.6933C33.4557 87.0595 33.4431 87.1364 33.1749 87.4047L32.8941 87.6857H25.2171C24.4318 87.6857 23.7189 87.6871 23.0717 87.6885H23.0714C18.5089 87.698 17.2123 87.7008 16.8622 87.1265C16.7233 86.8985 16.7335 86.5795 16.7478 86.134C16.7529 85.9747 16.7585 85.7993 16.758 85.6061C16.7526 83.4646 16.7381 83.4506 14.5294 83.4506H14.4595C13.5348 83.4508 13.0789 83.4509 12.8543 83.223C12.636 83.0015 12.636 82.5648 12.6362 81.7034L12.6362 81.6363C12.6362 79.384 12.5877 79.3317 10.4989 79.3264C8.47538 79.3214 8.40366 79.2495 8.40366 77.2255C8.40366 75.1874 8.49769 75.0951 10.5731 75.0951C12.6077 75.0951 12.6362 75.0644 12.6362 72.8733ZM21.5134 75.0502C20.7235 74.7199 20.5585 71.6809 21.2999 71.1176C21.6657 70.8397 24.5229 70.925 24.8403 71.2233C25.1296 71.4953 25.2497 74.2672 24.993 74.7472C24.747 75.2072 22.3817 75.4131 21.5134 75.0502ZM33.5677 74.7472C33.3228 74.2893 33.4303 71.5313 33.7044 71.2394C33.9762 70.9499 36.7464 70.8297 37.2262 71.0866C37.9547 71.4766 37.8611 74.6524 37.1095 75.0413C36.3677 75.4252 33.8171 75.2133 33.5677 74.7472ZM0.0529828 75.7642L0.396276 75.4208L0.739454 75.0773L2.29405 75.1149L2.44579 75.1184C3.35478 75.1397 3.81497 75.1504 4.04779 75.386C4.28653 75.6275 4.28622 76.1053 4.28559 77.073L4.28552 77.2304V77.2591C4.28554 78.3008 4.28555 78.8185 4.0267 79.0759C3.77092 79.3301 3.26237 79.3301 2.2513 79.3301H2.2229H0.721723L0.387353 78.9955C0.0529824 78.6609 0.0529828 78.6607 0.0529828 77.2126V75.7642ZM25.105 77.2126C25.105 75.7135 25.1152 75.6468 25.3858 75.3761C25.6554 75.1063 25.7264 75.0951 27.1676 75.0951H28.6688L29.0032 75.4296C29.3376 75.7642 29.3376 75.7644 29.3376 77.2126C29.3376 78.6607 29.3376 78.6609 29.0032 78.9955L28.6688 79.3301H27.1676H27.1316C26.1272 79.3301 25.6205 79.3301 25.365 79.0768C25.105 78.8191 25.105 78.2989 25.105 77.2495V77.2126ZM91.796 77.2126C91.796 75.7135 91.8062 75.6468 92.0769 75.3761C92.3464 75.1063 92.4174 75.0951 93.8587 75.0951H95.3598L95.6942 75.4296C96.0286 75.7642 96.0286 75.7644 96.0286 77.2126C96.0286 78.6607 96.0286 78.6609 95.6942 78.9955L95.3598 79.3301H93.8587H93.8226C92.8182 79.3301 92.3116 79.3301 92.056 79.0768C91.796 78.8191 91.796 78.2989 91.796 77.2495V77.2126ZM83.4454 89.7487C83.4454 79.992 83.4467 79.9315 83.6825 79.6317C83.919 79.3309 83.9239 79.3301 85.5616 79.3301L85.685 79.33C86.6806 79.3297 87.179 79.3295 87.4284 79.5786C87.6785 79.8283 87.6783 80.3287 87.6779 81.3307L87.6779 81.4547C87.6779 81.6065 87.6762 81.7469 87.6747 81.8766C87.6676 82.4822 87.6631 82.8563 87.8429 83.087C88.1335 83.4599 88.9054 83.4578 90.9253 83.4522H90.9255C91.1931 83.4514 91.4827 83.4506 91.796 83.4506C92.1283 83.4506 92.4337 83.4517 92.7144 83.4526H92.716C94.6701 83.4591 95.429 83.4616 95.7275 83.0921C95.917 82.8576 95.9209 82.4731 95.9273 81.8445C95.9287 81.702 95.9303 81.5471 95.9342 81.3785L95.9382 81.1981C95.9588 80.2683 95.9692 79.8009 96.2081 79.5661C96.4498 79.3287 96.9251 79.3291 97.881 79.33L98.0643 79.3301L98.1814 79.33C99.1731 79.3297 99.6645 79.3295 99.908 79.5752C100.147 79.8165 100.147 80.2952 100.147 81.2443V81.2443L100.147 81.3583V81.3771C100.147 82.4214 100.147 82.9397 100.406 83.197C100.661 83.4507 101.169 83.4507 102.176 83.4506H102.194C103.6 83.4506 103.697 83.4655 104.001 83.7268L104.322 84.0031V93.9107V103.818L104.062 104.079C103.82 104.321 103.688 104.342 102.204 104.377L102.096 104.379C101.12 104.402 100.633 104.413 100.389 104.662C100.146 104.911 100.146 105.398 100.147 106.37L100.147 106.478V106.479C100.147 107.495 100.147 108.004 99.892 108.26C99.6353 108.517 99.1201 108.517 98.0858 108.517H98.0841H96.5829L96.2486 108.183L95.9142 107.848V106.351L95.9143 106.173C95.9152 105.298 95.9157 104.854 95.6938 104.628C95.4646 104.395 94.9984 104.396 94.0508 104.397L93.8635 104.397L93.7783 104.397H93.7782C92.7891 104.397 92.2934 104.397 92.0451 104.644C91.7958 104.893 91.7958 105.392 91.796 106.392V106.392L91.796 106.478C91.796 107.894 91.7844 107.967 91.5152 108.236L91.2345 108.517H87.6207H84.0069L83.7262 108.236C83.4566 107.967 83.4453 107.895 83.4417 106.434C83.4413 106.245 83.444 106.075 83.4465 105.921L83.4465 105.92C83.4556 105.356 83.4612 105.008 83.2951 104.79C83.0264 104.439 82.3082 104.431 80.4281 104.41H80.4275C80.1093 104.407 79.7578 104.403 79.3696 104.397L75.6465 104.34L75.3706 104.018C75.1096 103.715 75.0947 103.617 75.0947 102.211C75.0947 100.164 75.0929 100.162 73.0562 100.162L72.9757 100.162C71.9721 100.162 71.4722 100.162 71.2233 99.9122C70.9763 99.6642 70.9764 99.1701 70.9765 98.1857V98.1856L70.9765 98.1059L70.9764 97.9147C70.9755 96.9418 70.9751 96.4613 71.2151 96.2186C71.4494 95.9817 71.9128 95.9714 72.8285 95.9511H72.8285L73.0132 95.9469L73.2061 95.9426C74.1343 95.9221 74.5998 95.9118 74.8385 95.6739C75.0787 95.4346 75.0892 94.9647 75.1103 94.0221L75.1147 93.8275L75.1185 93.6638C75.1394 92.7411 75.1499 92.2763 75.3876 92.0424C75.6288 91.8051 76.1039 91.8054 77.0612 91.8061L77.2288 91.8062C78.708 91.8062 78.7762 91.8168 79.0464 92.0872L79.3272 92.3681V95.9662C79.3272 96.3234 79.326 96.6501 79.3249 96.9487V96.9489C79.3178 98.9024 79.315 99.6572 79.6799 99.9435C79.9097 100.124 80.2853 100.118 80.8974 100.109C81.046 100.107 81.2085 100.105 81.3863 100.105C81.634 100.105 81.8524 100.12 82.0447 100.134C82.415 100.16 82.6892 100.18 82.8918 100.068C83.4699 99.7517 83.4661 98.3728 83.4512 93.0601C83.4484 92.0926 83.4454 90.9945 83.4454 89.7487ZM104.265 81.3904C104.265 80.0895 104.29 79.9009 104.502 79.6317C104.738 79.3309 104.743 79.3301 106.381 79.3301L106.48 79.3301C107.498 79.3298 108.002 79.3297 108.252 79.5819C108.498 79.8295 108.498 80.3207 108.497 81.2942L108.497 81.3904L108.497 81.4865C108.498 82.4601 108.498 82.9512 108.252 83.1989C108.002 83.451 107.498 83.4509 106.48 83.4507L106.381 83.4506L106.282 83.4507C105.264 83.4509 104.76 83.451 104.51 83.1989C104.264 82.9512 104.265 82.4601 104.265 81.4865L104.265 81.3904ZM0.387353 87.3511C-0.210579 86.7528 -0.0854327 83.8935 0.552193 83.5846C0.686605 83.5194 1.45521 83.4627 2.26019 83.4584L2.27814 83.4583H2.27821C3.26652 83.4531 3.76824 83.4504 4.02293 83.6999C4.28553 83.9572 4.28553 84.4825 4.28552 85.5494V85.5684C4.28552 87.6837 4.28357 87.6857 2.20094 87.6857H0.721723L0.387353 87.3511ZM8.73803 87.3511C8.15829 86.771 8.27543 83.7737 8.88743 83.5272C9.44246 83.3038 12.0833 83.4593 12.3554 83.7316C12.68 84.0564 12.7869 86.8502 12.4895 87.2378C12.0287 87.8385 9.30736 87.9207 8.73803 87.3511ZM37.5738 85.6751C37.5738 84.2352 37.6497 83.883 38.0215 83.5974C38.1549 83.4948 39.1448 83.4569 41.7623 83.4543C42.0991 83.4539 42.4088 83.4526 42.6936 83.4514L42.6975 83.4513C44.6817 83.4427 45.4553 83.4393 45.7521 83.8138C45.9418 84.0532 45.9367 84.4468 45.9284 85.0921C45.9265 85.2376 45.9245 85.3959 45.9245 85.5682L45.9245 85.6916C45.9249 86.6881 45.9251 87.1868 45.6759 87.4363C45.4262 87.6863 44.9261 87.6861 43.925 87.6857L43.8012 87.6857C43.6487 87.6857 43.5078 87.684 43.3776 87.6824H43.3774C42.7747 87.6752 42.4016 87.6707 42.1712 87.8497C41.797 88.1406 41.7991 88.9157 41.8048 90.95C41.8056 91.2206 41.8064 91.5135 41.8064 91.8305V95.3721L41.472 95.7067C41.1376 96.0412 41.1374 96.0412 39.6902 96.0412H39.6901H39.69C38.2428 96.0412 38.2426 96.0412 37.9082 95.7067L37.5738 95.3721V93.8701V93.8518C37.5738 92.8309 37.5739 92.3195 37.3182 92.0633C37.0615 91.8062 36.5473 91.8062 35.5169 91.8062H35.4987L35.3975 91.8062C34.4243 91.8065 33.9387 91.8067 33.6965 91.5639C33.4553 91.3222 33.4554 90.8396 33.4557 89.8763L33.4557 89.7757C33.4557 87.612 33.4984 87.5712 35.7606 87.5712L35.8285 87.5712C36.6882 87.5714 37.1246 87.5714 37.3459 87.3533C37.5741 87.1286 37.574 86.6723 37.5738 85.7458V85.7457L37.5738 85.6751ZM50.157 85.5682C50.157 83.9294 50.1579 83.9245 50.4585 83.6879C50.8113 83.4102 57.3959 83.3137 57.975 83.5777C58.6426 83.882 58.7923 86.7316 58.1734 87.3511L57.839 87.6857H54.2994C53.9644 87.6857 53.6562 87.6867 53.3729 87.6876H53.3716C51.3974 87.6942 50.6264 87.6967 50.33 87.3229C50.14 87.0834 50.145 86.6892 50.1532 86.0424C50.155 85.8974 50.157 85.7397 50.157 85.5682ZM66.744 85.6661C66.744 84.1842 66.8411 83.7794 67.2432 83.5846C67.4007 83.5082 69.4926 83.4633 73.1266 83.4584L78.7657 83.4506L79.0464 83.7316C79.3168 84.0021 79.3271 84.0688 79.3236 85.5344C79.3233 85.6554 79.3237 85.7696 79.3242 85.8774V85.8775C79.3269 86.5778 79.3286 87.0079 79.12 87.2716C78.7882 87.6912 77.9241 87.6899 75.6854 87.6864H75.6804C75.4652 87.686 75.2374 87.6857 74.9961 87.6857H71.4507L71.2137 87.9873C71.0019 88.2565 70.9765 88.4451 70.9765 89.7459V89.792C70.9766 90.81 70.9766 91.3135 70.7249 91.5626C70.4785 91.8063 69.991 91.8063 69.0263 91.8062H68.9818L68.8552 91.8062C67.8646 91.8058 67.3722 91.8056 67.1218 92.0517C66.8743 92.2949 66.8632 92.7787 66.8412 93.7407L66.8384 93.8651L66.8374 93.9068C66.8123 94.9866 66.8004 95.5011 66.5371 95.7537C66.2976 95.9836 65.85 95.9967 64.995 96.0216L64.9588 96.0227C62.6968 96.0889 62.6264 96.03 62.6243 94.0668C62.6219 91.824 62.6044 91.8062 60.4009 91.8062C58.4139 91.8062 58.3349 91.7091 58.4112 89.359C58.4151 89.2374 58.4174 89.1244 58.4196 89.0193L58.4196 89.0188C58.4296 88.5279 58.4361 88.2104 58.5905 88.0029C58.8734 87.6228 59.653 87.6124 61.861 87.5829C62.1191 87.5795 62.3968 87.5758 62.6954 87.5712C63.0737 87.5654 63.4169 87.5615 63.7284 87.5579C65.642 87.5359 66.354 87.5278 66.6124 87.1813C66.7655 86.9761 66.7594 86.652 66.7496 86.136C66.747 85.9944 66.744 85.8382 66.744 85.6661ZM45.9245 89.7766C45.9245 88.2101 46.0149 87.9008 46.5373 87.6801C46.6722 87.6231 47.4177 87.5881 48.194 87.6025C50.1289 87.638 50.157 87.669 50.157 89.7575V89.7868C50.1571 90.7856 50.1571 91.2904 49.9047 91.5455C49.6468 91.8063 49.1253 91.8063 48.0709 91.8062H48.0408H48.0195C46.9574 91.8062 46.4337 91.8062 46.1755 91.5445C45.9245 91.2899 45.9245 90.7877 45.9245 89.7972V89.7766ZM117.196 91.6942C116.388 91.2619 116.598 87.8141 117.442 87.6529C118.684 87.4154 120.64 87.6336 120.854 88.0335C121.099 88.4915 120.992 91.2494 120.718 91.5414C120.446 91.8308 117.675 91.951 117.196 91.6942ZM100.09 88.1231L99.8194 87.9044C99.5617 87.6956 99.2907 87.6857 93.8624 87.6857H88.1754L87.9266 87.9505C87.5595 88.3415 87.5316 99.3832 87.8965 99.8343L88.1151 100.105L93.6991 100.136C99.6718 100.171 99.7961 100.16 100.026 99.6054C100.115 99.3899 100.144 97.6233 100.121 93.7104L100.09 88.1231ZM54.4218 95.5934C54.1245 95.2058 54.2314 92.4119 54.556 92.0872C54.8372 91.8058 57.3943 91.6494 57.9878 91.8773C58.6323 92.1248 58.7767 95.103 58.1734 95.7067C57.604 96.2762 54.8827 96.194 54.4218 95.5934ZM92.022 95.695C91.6404 95.3132 91.6835 92.4807 92.0769 92.0872C92.4702 91.6936 95.3009 91.6504 95.6825 92.0323C96.1625 92.5126 96.1838 95.2507 95.7111 95.7236C95.2385 96.1966 92.502 96.1753 92.022 95.695ZM42.1078 99.9245C41.5271 99.4676 41.684 96.2971 42.3 96.0375C42.8763 95.7947 45.468 95.9596 45.7061 96.2543C46.056 96.6871 46.0324 99.5171 45.6758 99.8969C45.3138 100.283 42.5894 100.304 42.1078 99.9245ZM50.1378 98.0263C50.1766 96.4103 50.2276 96.2183 50.6678 96.0312C51.1278 95.8357 53.7865 95.9604 54.014 96.1882C54.1989 96.3732 54.2234 96.7422 54.2752 100.119L54.3324 103.845L54.6025 104.064C54.8372 104.254 55.0662 104.282 56.3558 104.282H57.839L58.1734 104.617L58.5077 104.951V106.436L58.5077 106.581C58.5071 107.515 58.5068 107.983 58.7404 108.222C58.9744 108.462 59.4433 108.473 60.382 108.494L60.5278 108.497C60.7112 108.502 60.8787 108.503 61.0316 108.504C61.658 108.51 62.0405 108.513 62.2734 108.701C62.6386 108.997 62.6357 109.747 62.6283 111.675C62.6271 111.975 62.6259 112.303 62.6259 112.663V116.311L62.345 116.592C62.075 116.862 62.0062 116.873 60.5348 116.873L60.3894 116.873C59.478 116.872 59.0148 116.872 58.774 117.103C58.525 117.343 58.5138 117.829 58.4912 118.819L58.4877 118.972L58.4837 119.15C58.4632 120.059 58.4528 120.521 58.217 120.754C57.9742 120.995 57.4927 120.994 56.5155 120.994H56.5154L56.3299 120.994C56.1679 120.994 56.0186 120.995 55.8811 120.997L55.8799 120.997C55.258 121.005 54.8755 121.01 54.6405 120.826C54.2651 120.532 54.2666 119.757 54.2707 117.742C54.2713 117.462 54.2719 117.158 54.2715 116.829C54.2713 116.594 54.2715 116.373 54.2716 116.163C54.2731 114.043 54.2737 113.193 53.8582 112.855C53.5804 112.63 53.1168 112.632 52.3433 112.637C52.229 112.637 52.108 112.638 51.9799 112.638H51.936C51.0466 112.638 50.6019 112.638 50.3795 112.416C50.157 112.193 50.157 111.748 50.157 110.858V110.814C50.157 108.581 50.1055 108.526 48.007 108.521C46.547 108.518 46.4749 108.506 46.2053 108.236L45.9245 107.955V104.34V100.724L46.2053 100.443C46.4746 100.173 46.5469 100.162 47.972 100.162C50.0852 100.162 50.0867 100.16 50.1378 98.0263ZM108.619 96.3707C108.686 96.2453 108.854 96.0968 108.991 96.0404C109.129 95.9839 111.768 95.9483 114.885 95.961L120.529 95.984L120.748 96.2543C120.959 96.5156 120.966 96.8484 120.966 106.418V116.311L120.685 116.592C120.257 117.021 117.608 117.024 117.112 116.597L116.791 116.321L116.759 110.565C116.731 105.437 116.707 104.786 116.541 104.603C116.37 104.413 116.081 104.397 112.901 104.397C109.341 104.397 108.827 104.342 108.609 103.935C108.452 103.639 108.461 96.6671 108.619 96.3707ZM37.5939 102.183C37.6292 100.678 37.6445 100.588 37.9011 100.38C38.3617 100.008 41.1385 100.055 41.5255 100.443L41.8064 100.724V104.34V107.955L41.5255 108.236L41.2448 108.517H37.6516C37.3149 108.517 37.005 108.518 36.7199 108.519C34.698 108.526 33.9191 108.528 33.6239 108.151C33.4389 107.915 33.4438 107.53 33.4519 106.904C33.4537 106.763 33.4557 106.61 33.4557 106.444L33.4557 106.375C33.4556 105.317 33.4555 104.794 33.717 104.535C33.9728 104.282 34.4789 104.282 35.4802 104.282H35.5468L35.6921 104.282C36.6035 104.283 37.0668 104.283 37.3076 104.052C37.5566 103.813 37.5677 103.326 37.5903 102.336L37.5939 102.183ZM58.7108 104.079C58.2419 103.61 58.2658 100.862 58.7429 100.384C59.0981 100.029 61.9773 100.05 62.3612 100.411C62.7413 100.768 62.7701 103.626 62.3975 104.027C61.9354 104.523 59.1934 104.562 58.7108 104.079ZM67.0618 104.079C66.6532 103.67 66.6609 100.713 67.0713 100.381C67.5316 100.008 70.3085 100.055 70.6957 100.443C71.1396 100.887 71.1286 103.642 70.6813 104.062C70.2394 104.478 67.473 104.49 67.0618 104.079ZM104.785 108.446C104.14 108.199 103.996 105.221 104.599 104.617C105.169 104.047 107.89 104.13 108.351 104.73C108.648 105.118 108.541 107.912 108.217 108.236C107.935 108.518 105.378 108.674 104.785 108.446ZM41.8064 110.582C41.8064 109.086 41.8223 108.969 42.0568 108.751C42.2836 108.539 42.4551 108.517 43.8871 108.517L44.1024 108.517H44.1025C45.0114 108.516 45.4676 108.515 45.6962 108.743C45.9265 108.973 45.9259 109.434 45.9247 110.36L45.9245 110.578C45.9245 112.028 45.9028 112.202 45.6957 112.409C45.4887 112.616 45.3145 112.638 43.8654 112.638L43.6426 112.638C42.7226 112.639 42.2628 112.64 42.0334 112.411C41.8042 112.181 41.8049 111.722 41.8062 110.805L41.8064 110.582ZM75.0947 110.578C75.0947 109.277 75.1201 109.088 75.3318 108.819C75.5683 108.518 75.5732 108.517 77.211 108.517L77.3098 108.517C78.3278 108.517 78.8322 108.517 79.0821 108.769C79.3276 109.017 79.3275 109.508 79.3272 110.482L79.3272 110.578L79.3272 110.674C79.3275 111.647 79.3276 112.138 79.0821 112.386C78.8322 112.638 78.3278 112.638 77.3098 112.638L77.211 112.638L77.1121 112.638C76.0941 112.638 75.5897 112.638 75.3398 112.386C75.0943 112.138 75.0944 111.647 75.0947 110.674L75.0947 110.578ZM100.147 112.601C100.147 109.11 100.151 109.043 100.395 108.782C100.667 108.493 103.437 108.373 103.917 108.629C104.346 108.859 104.379 109.305 104.379 114.755C104.379 120.206 104.346 120.652 103.917 120.881C103.793 120.948 102.238 120.994 100.11 120.994C99.7544 120.994 99.4292 120.995 99.1319 120.996C97.1726 121.003 96.4174 121.006 96.1316 120.641C95.9524 120.412 95.9579 120.038 95.9669 119.43C95.969 119.283 95.9714 119.122 95.9714 118.947L95.9713 118.789C95.9707 117.808 95.9704 117.317 96.2155 117.066C96.4606 116.815 96.9511 116.804 97.932 116.782H97.9321L98.089 116.779C98.2563 116.775 98.41 116.773 98.5514 116.772H98.5523C99.1721 116.765 99.5529 116.761 99.7861 116.574C100.158 116.276 100.155 115.512 100.149 113.531C100.148 113.247 100.147 112.938 100.147 112.601ZM108.497 110.578C108.497 109.128 108.519 108.953 108.726 108.746C108.933 108.539 109.107 108.517 110.556 108.517C112.005 108.517 112.18 108.539 112.387 108.746C112.594 108.953 112.616 109.128 112.616 110.578C112.616 112.028 112.594 112.202 112.387 112.409C112.18 112.616 112.005 112.638 110.556 112.638C109.107 112.638 108.933 112.616 108.726 112.409C108.519 112.202 108.497 112.028 108.497 110.578ZM37.5974 117.084C37.5609 113.323 37.5696 113.215 37.94 112.87C38.1643 112.661 38.3402 112.638 39.7169 112.638H39.7535C40.7798 112.638 41.293 112.638 41.5497 112.895C41.8064 113.151 41.8064 113.665 41.8064 114.692V114.729L41.8064 114.802C41.8062 115.816 41.8062 116.305 42.0503 116.54C42.2771 116.759 42.7146 116.759 43.5586 116.759H43.6241C45.8837 116.759 45.9245 116.798 45.9245 118.978C45.9245 119.151 45.9269 119.309 45.929 119.454C45.9378 120.049 45.9433 120.416 45.7673 120.642C45.4843 121.005 44.7321 121.003 42.7706 120.996H42.7692C42.4736 120.995 42.1505 120.994 41.7974 120.994C38.3983 120.994 38.1543 120.98 37.9011 120.775L37.631 120.556L37.5974 117.084ZM46.0712 116.425C45.7739 116.038 45.8807 113.244 46.2053 112.919C46.5299 112.594 49.3221 112.487 49.7094 112.785C50.4169 113.328 50.3506 116.415 49.6243 116.746C48.8696 117.09 46.411 116.868 46.0712 116.425ZM83.4454 113.2L83.7262 112.919C83.9965 112.648 84.0632 112.638 85.5279 112.642C87.6329 112.647 87.6779 112.693 87.6779 114.862V114.933C87.6778 115.86 87.6777 116.316 87.9058 116.541C88.1272 116.759 88.5635 116.759 89.4233 116.759L89.4911 116.759C91.751 116.759 91.796 116.801 91.796 118.947C91.796 120.347 91.7768 120.484 91.5474 120.729L91.2986 120.994H87.609H83.9195L83.6825 120.692C83.4541 120.401 83.4454 120.259 83.4454 116.795V113.2ZM70.9765 118.98C70.9765 117.234 71.0017 117.131 71.4799 116.919C71.7596 116.796 72.5675 116.768 75.3049 116.789L78.7754 116.816L79.0513 117.137C79.4782 117.634 79.4747 120.284 79.0464 120.713L78.7657 120.994H75.1359C74.7962 120.994 74.4842 120.995 74.1974 120.995C72.1915 121.002 71.4251 121.004 71.1373 120.634C70.9594 120.406 70.9644 120.035 70.9726 119.434C70.9745 119.295 70.9765 119.144 70.9765 118.98ZM108.497 118.98C108.497 117.234 108.523 117.131 109.001 116.919C109.28 116.796 110.088 116.768 112.826 116.789L116.296 116.816L116.572 117.137C116.999 117.634 116.996 120.284 116.567 120.713L116.287 120.994H112.657C112.317 120.994 112.005 120.995 111.718 120.995C109.712 121.002 108.946 121.004 108.658 120.634C108.48 120.406 108.485 120.035 108.493 119.434C108.495 119.295 108.497 119.144 108.497 118.98ZM91.8359 9.14933C91.8359 4.09629 95.9322 0 100.985 0H111.85C116.903 0 120.999 4.0963 120.999 9.14934V20.1563C120.999 25.2093 116.903 29.3056 111.85 29.3056H100.985C95.9322 29.3056 91.8359 25.2093 91.8359 20.1562V9.14933ZM94.582 9.60907C94.582 5.81929 97.6543 2.74707 101.444 2.74707H111.394C115.184 2.74707 118.256 5.81929 118.256 9.60907V19.6959C118.256 23.4856 115.184 26.5579 111.394 26.5579H101.444C97.6543 26.5579 94.582 23.4856 94.582 19.6959V9.60907ZM104.76 8.35645C102.234 8.35645 100.186 10.4046 100.186 12.9311V16.374C100.186 18.9005 102.234 20.9487 104.76 20.9487H108.191C110.718 20.9487 112.766 18.9005 112.766 16.374V12.9311C112.766 10.4046 110.718 8.35645 108.191 8.35645H104.76ZM9.14934 91.6926C4.0963 91.6926 0 95.7889 0 100.842V111.849C0 116.902 4.0963 120.998 9.14934 120.998H20.0142C25.0672 120.998 29.1635 116.902 29.1635 111.849V100.842C29.1635 95.7889 25.0672 91.6926 20.0142 91.6926H9.14934ZM9.6081 94.4396C5.81832 94.4396 2.74609 97.5119 2.74609 101.302V111.388C2.74609 115.178 5.81832 118.25 9.6081 118.25H19.558C23.3478 118.25 26.42 115.178 26.42 111.388V101.302C26.42 97.5119 23.3478 94.4396 19.558 94.4396H9.6081ZM8.34766 104.624C8.34766 102.097 10.3958 100.049 12.9223 100.049H16.3533C18.8799 100.049 20.928 102.097 20.928 104.624V108.067C20.928 110.593 18.8798 112.641 16.3533 112.641H12.9223C10.3958 112.641 8.34766 110.593 8.34766 108.067V104.624Z" fill="url(#paint0_linear_408_4061)"/>
<defs>
<linearGradient id="paint0_linear_408_4061" x1="0" y1="0" x2="121.114" y2="120.886" gradientUnits="userSpaceOnUse">
<stop offset="0.466216" stop-color="#FDBF1C"/>
<stop offset="1" stop-color="#FDA31C"/>
</linearGradient>
</defs>
</svg>
