<svg width="200" height="200" viewBox="0 0 200 200" fill="none" xmlns="http://www.w3.org/2000/svg">
<path d="M94.1784 115.593L94.2688 115.637L94.3696 115.631L131.094 113.4L127.873 119.217L90.7695 121.471L68.7644 110.539L72.0528 104.6L94.1784 115.593ZM101.108 90.1862L99.9258 84.5741L103.044 78.7548L107.287 92.9821L101.108 90.1862ZM95.5361 102.38L81.5885 103.344L70.7927 98.0583L74.1045 92.0821L95.5361 102.38Z" fill="#2C3034" stroke="#FDBF1C" stroke-width="0.756144"/>
<path d="M131.758 112.96L94.3137 115.232L71.645 104.059L96.192 102.575L73.8772 91.5783L84.8351 82.307L107.566 93.4747L103.109 77.7676L124.831 88.4083L131.758 112.96Z" fill="#FDBF1C"/>
<path fill-rule="evenodd" clip-rule="evenodd" d="M151.796 12.0983C151.796 5.41659 157.213 0 163.894 0H187.902C194.583 0 200 5.41659 200 12.0983V36.3407C200 43.0224 194.584 48.439 187.902 48.439H163.894C157.213 48.439 151.796 43.0224 151.796 36.3407V12.0983ZM156.333 13.6149C156.333 8.60359 160.395 4.54115 165.407 4.54115H186.39C191.401 4.54115 195.463 8.6036 195.463 13.6149V34.8241C195.463 39.8354 191.401 43.8978 186.39 43.8978H165.407C160.395 43.8978 156.333 39.8354 156.333 34.8241V13.6149ZM171.645 13.8127C168.304 13.8127 165.596 16.521 165.596 19.8618V28.5771C165.596 31.918 168.304 34.6263 171.645 34.6263H180.34C183.681 34.6263 186.389 31.918 186.389 28.5771V19.8618C186.389 16.521 183.681 13.8127 180.34 13.8127H171.645ZM12.0984 3.682e-06C5.41669 3.682e-06 0.000100254 5.4166 0.000100254 12.0983V36.3407C0.000100254 43.0224 5.41671 48.439 12.0984 48.439H36.106C42.7877 48.439 48.2043 43.0224 48.2043 36.3407V12.0983C48.2043 5.4166 42.7877 3.682e-06 36.1059 3.682e-06H12.0984ZM13.6107 4.54116C8.59941 4.54116 4.53696 8.60359 4.53696 13.6149V34.8241C4.53696 39.8354 8.59941 43.8978 13.6107 43.8978H34.5937C39.6049 43.8978 43.6674 39.8354 43.6674 34.8241V13.6149C43.6674 8.6036 39.6049 4.54116 34.5937 4.54116H13.6107ZM13.7996 19.8618C13.7996 16.521 16.5079 13.8127 19.8488 13.8127H28.5444C31.8853 13.8127 34.5936 16.521 34.5936 19.8618V28.5771C34.5936 31.918 31.8853 34.6263 28.5444 34.6263H19.8488C16.5079 34.6263 13.7996 31.918 13.7996 28.5772V19.8618ZM55.2987 7.01536C55.2987 0.886549 55.3429 0.516872 56.1146 0.205844C56.3426 0.113897 65.284 0.0338696 76.0647 0.027248L95.6017 0.0153283L96.1544 0.568331C97.1516 1.56612 96.9129 6.48885 95.8477 6.89788C95.6794 6.96239 91.4259 7.01536 86.3956 7.01536C85.6402 7.01536 84.939 7.01415 84.288 7.01302C78.6174 7.00319 76.7613 6.99997 76.1669 7.86438C75.8776 8.28502 75.8872 8.91112 75.9014 9.84188V9.84199C75.9047 10.0616 75.9083 10.2982 75.9083 10.553C75.9083 13.7195 76.0195 13.8262 79.3184 13.8262C82.7602 13.8262 82.9043 13.9704 82.9043 17.4142C82.9043 20.7791 82.9549 20.8262 86.5745 20.8262L86.8106 20.8261C88.1868 20.8251 88.8999 20.8245 89.2774 21.1802C89.6834 21.5627 89.7013 22.3572 89.7384 24.0061L89.7444 24.2695L89.7498 24.5081C89.7855 26.0864 89.8032 26.869 90.2034 27.2569C90.5972 27.6385 91.3613 27.6381 92.877 27.6372L93.11 27.6371C96.503 27.6371 96.5179 27.6237 96.5179 24.5902C96.5179 20.8773 96.5285 20.8665 100.269 20.7835C103.448 20.7129 103.514 20.6425 103.514 17.3412L103.514 17.2112C103.514 15.6555 103.514 14.8681 103.121 14.4604C102.718 14.0426 101.901 14.0237 100.248 13.9854L100.113 13.9823C96.6598 13.9019 96.6526 13.896 96.5486 11.0843C96.5406 10.8675 96.532 10.6622 96.5238 10.4678L96.5238 10.4675C96.4641 9.0414 96.429 8.20258 96.8247 7.70987C97.39 7.00611 98.8344 7.00848 102.342 7.01423C102.677 7.01478 103.03 7.01536 103.404 7.01536C103.877 7.01536 104.319 7.01436 104.732 7.01342C108.26 7.00537 109.645 7.00221 110.182 7.6754C110.53 8.1102 110.524 8.82715 110.514 10.0072V10.0074C110.512 10.2211 110.51 10.45 110.51 10.6951C110.51 10.9591 110.506 11.201 110.503 11.4227L110.503 11.4238C110.489 12.3362 110.48 12.9049 110.752 13.2586C111.202 13.8441 112.419 13.8401 115.652 13.8295L115.652 13.8295C116.127 13.8279 116.646 13.8262 117.212 13.8262H123.157L123.687 14.2827L124.218 14.7394V17.3262V19.913L123.687 20.3697L123.157 20.8262H117.332C111.724 20.8262 111.488 20.841 111.008 21.2184L110.51 21.6104V30.8764C110.51 31.7858 110.512 32.6175 110.514 33.3782V33.3785C110.527 38.9035 110.531 40.6787 109.711 41.2304C109.323 41.4917 108.751 41.4787 107.907 41.4596C107.662 41.454 107.393 41.448 107.1 41.448C103.639 41.448 103.514 41.5772 103.514 45.1461C103.514 48.435 103.405 48.5271 99.6578 48.4174C99.4285 48.4107 99.2165 48.4072 99.0204 48.404L99.0197 48.404C98.1453 48.3899 97.5881 48.3809 97.2297 48.1094C96.6005 47.6329 96.5839 46.3474 96.5382 42.8049C96.5324 42.3521 96.5261 41.8625 96.5179 41.3329C96.4287 35.5135 96.4032 35.1589 96.0564 34.9054C95.7582 34.6875 94.584 34.6371 89.795 34.6371C89.2363 34.6371 88.7228 34.6388 88.2511 34.6404H88.2504C84.9675 34.6511 83.7024 34.6553 83.2087 34.0402C82.8991 33.6546 82.8928 33.0255 82.8826 32.0021C82.8802 31.7674 82.8776 31.512 82.8712 31.234L82.8662 31.0173C82.8282 29.3545 82.8095 28.5328 82.3892 28.127C81.9786 27.7305 81.1848 27.7309 79.6156 27.7316L79.4063 27.7317L79.1969 27.7316C77.6277 27.7309 76.834 27.7305 76.4234 28.127C76.0031 28.5328 75.9843 29.3545 75.9464 31.0173L75.9414 31.234L75.9376 31.4004C75.9 33.0268 75.8814 33.8362 75.4672 34.2389C75.057 34.6378 74.2585 34.6376 72.6691 34.6372L72.5049 34.6371C70.356 34.6371 70.0444 34.5951 69.5997 34.2449L69.1015 33.8529V21.087C69.1015 19.6789 69.1047 18.4105 69.1076 17.2679V17.2663V17.2662C69.1262 9.90815 69.1316 7.77106 68.1813 7.18575C67.7923 6.94617 67.2431 6.9666 66.4692 6.99538C66.1755 7.00631 65.8493 7.01844 65.4872 7.01801C62.3474 7.01423 62.2946 7.06399 62.2946 10.0278C62.2946 13.7036 62.0241 14.0154 58.8343 14.0154C58.6646 14.0154 58.503 14.0161 58.3492 14.0168H58.3491C57.1616 14.0222 56.4352 14.0255 55.9913 13.6731C55.292 13.1178 55.2937 11.6798 55.298 7.97648V7.97643C55.2983 7.67167 55.2987 7.35157 55.2987 7.01536ZM124.123 1.12133L124.684 0.560764L125.244 3.682e-06L131.224 0.054869L137.204 0.109923L137.565 0.556601C138.128 1.25282 138.123 12.8731 137.559 13.4372C137.002 13.9938 136.39 14.0408 130.488 13.9785L125.036 13.9208L124.58 13.3899L124.123 12.8591V6.9902V1.12133ZM90.1753 20.3618C89.2573 19.4435 89.536 14.4163 90.527 14.0167C91.6885 13.5485 95.5743 13.7988 96.1544 14.3792C97.1775 15.4031 96.9299 20.1132 95.8265 20.6162C94.8323 21.0694 90.6964 20.8834 90.1753 20.3618ZM137.926 17.2803C137.926 14.761 138.003 14.4681 138.777 14.0447C139.709 13.5345 143.768 13.7772 144.37 14.3792L144.922 14.9322V24.2317V33.5311L144.37 34.0841L143.817 34.6371H141.365L141.125 34.637C139.583 34.6361 138.81 34.6356 138.415 35.0214C138.018 35.4083 138 36.1837 137.965 37.7367V37.7368L137.959 37.978L137.953 38.2494C137.916 39.8685 137.898 40.6686 137.489 41.0637C137.089 41.4498 136.316 41.4492 134.787 41.4481L134.525 41.448L134.382 41.448C132.683 41.4483 131.868 41.4484 131.478 41.0416C131.119 40.6673 131.119 39.9483 131.119 38.5679L131.119 38.4417C131.119 34.7514 131.018 34.6371 127.737 34.6371C124.276 34.6371 124.123 34.489 124.123 31.1188C124.123 27.6961 124.183 27.6371 127.649 27.6371C131.03 27.6371 131.119 27.5389 131.119 23.8251V23.7656V23.7655C131.119 22.2955 131.119 21.5607 131.487 21.1934C131.854 20.8261 132.589 20.8262 134.057 20.8262H134.117C137.84 20.8262 137.926 20.7462 137.926 17.2803ZM55.2987 21.702L55.7098 21.264C56.159 20.7856 60.7379 20.5869 61.5309 21.0115C62.2014 21.3705 62.2946 22.2238 62.2946 28.0017C62.2946 28.5692 62.2926 29.0867 62.2908 29.5587V29.5594C62.279 32.5541 62.2745 33.7155 62.8391 34.1703C63.1968 34.4585 63.783 34.463 64.7404 34.4704C64.9787 34.4722 65.24 34.4742 65.5266 34.4809C69.1009 34.5635 69.1015 34.5641 69.1015 38.0276V38.1104V38.1105C69.1016 39.7997 69.1016 40.634 68.6845 41.046C68.2775 41.4481 67.4732 41.4481 65.884 41.448H65.8043L65.5952 41.4479C63.9578 41.4472 63.1439 41.4469 62.73 41.8536C62.3209 42.2556 62.3026 43.0554 62.2663 44.6455L62.2615 44.8511L62.2599 44.9201C62.2185 46.7049 62.1987 47.5552 61.7636 47.9728C61.3677 48.3527 60.6278 48.3743 59.2146 48.4156L59.1548 48.4174C58.7548 48.4291 58.3959 48.4533 58.0739 48.475C57.2228 48.5323 56.6293 48.5723 56.2162 48.3186C55.2646 47.7339 55.2708 45.5899 55.2915 38.506C55.2949 37.3428 55.2987 36.0465 55.2987 34.6019V21.702ZM69.1015 42.2322L69.5997 41.8402C70.0465 41.4885 70.3551 41.448 72.5921 41.448L72.8181 41.4479C74.3092 41.447 75.0698 41.4466 75.4665 41.8263C75.8797 42.2217 75.8981 43.0295 75.9359 44.6784L75.9414 44.9179L75.9474 45.179C75.9823 46.7132 75.9998 47.4837 76.3939 47.8704C76.7916 48.2606 77.5726 48.2601 79.1415 48.2589L79.4063 48.2588L79.6711 48.2589C81.24 48.2601 82.021 48.2606 82.4186 47.8704C82.8127 47.4837 82.8303 46.7132 82.8652 45.179L82.8712 44.9179L82.8767 44.6784C82.9144 43.0295 82.9329 42.2217 83.346 41.8263C83.7428 41.4466 84.5034 41.447 85.9945 41.4479L86.2205 41.448C88.4575 41.448 88.7661 41.4885 89.2129 41.8402L89.7111 42.2322V48.3534V54.4747L89.2129 54.8667C88.4322 55.4813 70.3804 55.4813 69.5997 54.8667L69.1015 54.4747V48.3534V42.2322ZM110.873 47.895C109.915 46.9362 110.109 41.9819 111.12 41.5745C112.038 41.2052 116.403 41.4623 116.852 41.9124C117.389 42.4492 117.566 47.0671 117.074 47.7077C116.312 48.7006 111.814 48.8364 110.873 47.895ZM124.156 44.7416C124.215 42.3044 124.241 42.1516 124.664 41.8091C125.054 41.4938 125.433 41.448 127.651 41.448H127.698C129.418 41.4479 130.274 41.4479 130.699 41.8755C131.119 42.2984 131.119 43.1394 131.119 44.812V44.8122V44.8593V47.342L130.567 47.895C130.014 48.448 130.014 48.448 127.621 48.448H125.229L124.662 47.8802L124.094 47.3127L124.156 44.7416ZM137.926 44.8193C137.926 42.4781 137.946 42.3574 138.39 41.9124C139.139 41.1632 143.762 41.1969 144.466 41.9565L144.937 42.4651L144.882 48.5006L144.828 54.536L144.381 54.8973C143.963 55.2361 143.56 55.2589 137.965 55.2589C137.395 55.2589 136.872 55.2606 136.393 55.2623H136.392C133.133 55.2734 131.872 55.2777 131.392 54.6678C131.09 54.2829 131.098 53.6534 131.113 52.6266L131.113 52.6249C131.116 52.3859 131.119 52.1253 131.119 51.8413L131.119 51.527C131.118 49.9336 131.117 49.1437 131.512 48.7433C131.899 48.3497 132.67 48.3326 134.197 48.2988L134.503 48.2919L134.692 48.2876C136.315 48.2506 137.123 48.2321 137.527 47.8184C137.927 47.4071 137.927 46.6052 137.926 45.0062L137.926 44.8193ZM103.514 55.2594C103.514 48.9927 103.519 48.9499 104.365 48.4692C104.606 48.3318 105.611 48.2723 107.149 48.3038L107.304 48.307C108.813 48.3376 109.586 48.3533 109.99 48.7472C110.415 49.1604 110.434 49.9898 110.473 51.6894L110.477 51.8557L110.48 52.001V52.0011C110.518 53.6468 110.537 54.4613 110.954 54.8644C111.362 55.2594 112.153 55.2592 113.718 55.2589L113.859 55.2589C116.207 55.2589 116.212 55.2577 116.764 54.7059L117.317 54.1528V51.6998L117.317 51.4444C117.315 49.9032 117.315 49.1299 117.701 48.7422C118.09 48.3517 118.872 48.3522 120.44 48.3533L120.698 48.3534L120.958 48.3533C122.578 48.3523 123.389 48.3517 123.804 48.7567C124.218 49.1619 124.237 49.9731 124.274 51.5959V51.596L124.279 51.8557L124.284 52.0351C124.321 53.6495 124.339 54.4557 124.752 54.8582C125.163 55.2597 125.967 55.2594 127.571 55.2589L127.75 55.2589C131.116 55.2589 131.119 55.2619 131.119 58.6452C131.119 60.9701 131.095 61.1313 130.663 61.6334L130.207 62.1643L117.853 62.2197C111.059 62.25 105.222 62.2248 104.884 62.1637L104.864 62.1601C104.53 62.0997 104.279 62.0542 104.089 61.9206C103.514 61.5142 103.514 60.2926 103.514 55.3549V55.2594ZM20.8532 58.7288C20.9082 56.3783 20.9551 56.0667 21.3115 55.6845C21.6857 55.2833 21.8567 55.2589 24.2897 55.2589L24.5527 55.2587C26.0824 55.2576 26.8559 55.257 27.2559 55.6433C27.665 56.0384 27.6832 56.8383 27.72 58.4566L27.7262 58.7288L27.7318 58.97C27.7673 60.5231 27.785 61.2985 28.1817 61.6854C28.5772 62.0712 29.3496 62.0707 30.892 62.0698L31.1321 62.0697H33.5837L34.1364 62.6227L34.6891 63.1757V65.6287C34.6891 67.7615 34.7364 68.1402 35.0502 68.5285L35.4114 68.9751L41.567 69.0697C42.2124 69.0797 42.7973 69.0862 43.3274 69.0921H43.3275C46.4978 69.1274 47.7069 69.1408 48.1573 69.7321C48.4349 70.0966 48.4243 70.6807 48.4071 71.6248L48.4071 71.6252C48.4024 71.8811 48.3973 72.1635 48.3973 72.4752C48.3973 72.6272 48.3976 72.7723 48.3979 72.9106C48.401 74.3327 48.4025 75.0471 48.0464 75.418C47.6867 75.7925 46.9625 75.8167 45.5069 75.8655C45.3668 75.8702 45.2198 75.8751 45.0657 75.8806C41.5092 76.0071 41.4959 76.0202 41.4959 79.3806C41.4959 82.7499 41.5118 82.7652 45.055 82.8473C45.122 82.8489 45.1876 82.8503 45.252 82.8517C45.3177 82.8532 45.382 82.8546 45.4449 82.8559C46.9157 82.8875 47.6551 82.9034 48.0262 83.2811C48.4014 83.6629 48.4002 84.4146 48.3977 85.926C48.3975 86.0528 48.3973 86.1849 48.3973 86.3225L48.3974 86.5322C48.3981 88.1353 48.3984 88.9253 48.0036 89.3145C47.62 89.6926 46.8634 89.6922 45.3716 89.6915L45.1709 89.6915C41.6298 89.6915 41.4959 89.8218 41.4959 93.2694V93.3209C41.4959 94.8823 41.4959 95.6774 41.8933 96.0823C42.3058 96.5024 43.1462 96.5023 44.8586 96.5023H44.9132L45.1892 96.5024C46.7879 96.5036 47.5664 96.5041 47.9452 96.1153C48.3047 95.7463 48.3041 95.0264 48.3029 93.6234L48.3028 93.3682C48.3028 89.7876 48.3812 89.7058 51.827 89.6975L52.0904 89.697C53.6392 89.6944 54.414 89.6931 54.8104 89.3051C55.2073 88.9166 55.2246 88.1405 55.2595 86.5872L55.2654 86.3239L55.2729 85.9923C55.3078 84.4094 55.3249 83.6308 55.7229 83.2482C56.1081 82.8778 56.8503 82.8787 58.3111 82.8804L58.6274 82.8806C61.4487 82.8806 61.78 82.9735 62.0857 83.8508C62.3655 84.6543 62.3771 101.747 62.0982 102.481C62.0883 102.507 62.0788 102.533 62.0695 102.558C62.0147 102.704 61.9686 102.828 61.8949 102.932C61.5 103.491 60.3153 103.491 52.7762 103.496H52.7759L52.046 103.496C51.2428 103.497 50.5004 103.496 49.8142 103.495C44.1914 103.488 42.3439 103.485 41.7513 104.347C41.4614 104.768 41.472 105.396 41.4877 106.332C41.4917 106.565 41.4959 106.817 41.4959 107.09C41.4959 107.293 41.4973 107.484 41.4986 107.663C41.5065 108.754 41.5113 109.428 41.1863 109.843C40.6622 110.512 39.2803 110.51 35.6704 110.504C35.3022 110.503 34.9109 110.502 34.4949 110.502H28.7985L28.2458 109.949L27.6932 109.396V106.914V106.911C27.6932 105.2 27.6932 104.347 28.1192 103.923C28.5417 103.502 29.3834 103.502 31.0597 103.502H31.0625C33.2458 103.502 33.5563 103.461 34.0018 103.11L34.5 102.718V96.5969V90.4757L34.0018 90.0836C33.5219 89.7058 33.2861 89.6915 27.6088 89.6915C27.0289 89.6915 26.4987 89.6934 26.0139 89.6952L26.0106 89.6953C22.8547 89.7071 21.6252 89.7117 21.155 89.1165C20.8549 88.7366 20.8639 88.1125 20.8788 87.0901C20.8824 86.8435 20.8863 86.5738 20.8863 86.2787L20.8862 86.0447C20.8854 84.3984 20.885 83.6082 21.2796 83.2291C21.6438 82.8793 22.3446 82.8797 23.6921 82.8805L23.8993 82.8806C24.1122 82.8806 24.3131 82.8818 24.5027 82.8829H24.504H24.504C25.7785 82.8903 26.5434 82.8948 27.0022 82.5222C27.6908 81.9631 27.6898 80.5547 27.6872 77.0326C27.687 76.6828 27.6867 76.3121 27.6871 75.9194L27.6932 69.9985L27.229 69.5342L26.765 69.0697H20.9103C17.6903 69.0697 14.918 69.0168 14.7497 68.9522C13.6845 68.5432 13.4459 63.6205 14.4431 62.6227L14.9957 62.0697H17.4473L17.6875 62.0698C19.2299 62.0707 20.0022 62.0712 20.3978 61.6854C20.7944 61.2985 20.8122 60.5231 20.8477 58.97L20.8532 58.7288ZM41.9839 61.7057C41.2989 61.0619 41.2269 56.5981 41.8879 55.7574C42.4179 55.0831 47.1558 54.9762 47.9509 55.6206C48.6293 56.1702 48.642 61.0577 47.9666 61.7333C47.2869 62.4135 42.7144 62.3923 41.9839 61.7057ZM62.5478 61.617C61.851 60.8067 61.9269 56.2023 62.6465 55.62C63.4077 55.004 67.9976 55.0831 68.6373 55.7233C69.3454 56.4316 69.3511 60.8122 68.6452 61.6334L68.1888 62.1643H65.6035H63.0182L62.5478 61.617ZM89.7111 58.7515C89.7111 56.5132 89.7516 56.2044 90.1031 55.7574C90.6327 55.0835 95.3704 54.9762 96.1661 55.62C96.8857 56.2023 96.9615 60.8067 96.2648 61.617L95.7943 62.1643H93.2406H93.208C91.4399 62.1643 90.5658 62.1643 90.1336 61.7273C89.7111 61.3 89.7111 60.4548 89.7111 58.7832V58.7515ZM158.536 58.903C158.536 56.5484 158.746 55.6227 159.336 55.3854C159.468 55.3323 163.813 55.2819 168.991 55.2738L178.406 55.2589L178.87 55.7233L179.335 56.1876V65.5357C179.335 66.5962 179.338 67.5492 179.341 68.4053C179.359 73.4888 179.364 75.1595 178.592 75.6849C178.213 75.9422 177.648 75.9249 176.807 75.8992C176.517 75.8904 176.195 75.8806 175.837 75.8806C175.551 75.8806 175.288 75.884 175.047 75.8872C173.986 75.901 173.338 75.9095 172.942 75.5974C172.32 75.1063 172.324 73.8214 172.335 70.5147L172.335 70.5054C172.337 70.0298 172.339 69.5124 172.339 68.9496C172.339 68.3502 172.341 67.8041 172.343 67.3066C172.355 64.1943 172.36 62.9827 171.774 62.5202C171.4 62.2254 170.786 62.235 169.781 62.2506H169.781C169.529 62.2546 169.253 62.2589 168.949 62.2589L168.808 62.2589C167.173 62.2586 166.354 62.2584 165.944 62.6679C165.531 63.0793 165.531 63.9039 165.532 65.5568L165.532 65.6984C165.532 68.0396 165.513 68.1603 165.068 68.6053L164.604 69.0697H158.66C158.08 69.0697 157.548 69.0679 157.062 69.0662H157.061C153.813 69.0548 152.569 69.0504 152.087 69.6543C151.787 70.0293 151.782 70.6388 151.773 71.6268C151.771 71.8653 151.769 72.1259 151.762 72.4106L151.756 72.6942C151.719 74.3016 151.701 75.0988 151.293 75.4939C150.892 75.8826 150.114 75.882 148.57 75.8807L148.293 75.8806C148.087 75.8806 147.892 75.8819 147.709 75.8831H147.709C146.552 75.8909 145.837 75.8957 145.399 75.5497C144.691 74.9901 144.709 73.5128 144.756 69.646C144.761 69.2668 144.765 68.8647 144.77 68.4382L144.828 62.9824L145.358 62.526L145.889 62.0697H151.827C152.376 62.0697 152.881 62.0713 153.344 62.0727C156.598 62.0829 157.829 62.0867 158.286 61.4941C158.564 61.1338 158.555 60.5531 158.542 59.6191C158.539 59.4004 158.536 59.1622 158.536 58.903ZM186.141 56.1876L186.606 55.7233L187.07 55.2589H193.069C198.969 55.2589 199.076 55.2657 199.507 55.6702L199.944 56.0816V62.1836V68.2855L199.446 68.6775C199.001 69.0283 198.69 69.0697 196.507 69.0697C193.143 69.0697 193.137 69.075 193.137 72.4411L193.137 72.6148C193.138 74.239 193.138 75.0557 192.73 75.4662C192.317 75.8813 191.487 75.8811 189.816 75.8806L189.639 75.8806C189.281 75.8806 188.959 75.8904 188.669 75.8992C187.828 75.9249 187.263 75.9422 186.884 75.6849C186.112 75.1595 186.117 73.4888 186.135 68.4053C186.138 67.5492 186.141 66.5962 186.141 65.5357V56.1876ZM0.0722941 77.0019L0.632725 76.4413L1.19297 75.8806H10.5756H19.9581L20.4221 76.345C20.8691 76.7921 20.8861 76.9024 20.8803 79.3248C20.8719 82.8063 20.7952 82.8806 17.2117 82.8806L17.0949 82.8806C15.565 82.8804 14.8112 82.8803 14.4398 83.2571C14.0791 83.6231 14.0792 84.3447 14.0794 85.7672L14.0795 85.8795C14.0795 88.2549 13.8796 89.2043 13.3158 89.5062C12.5833 89.8984 1.13397 89.7393 0.628565 89.3299L0.182149 88.9686L0.127127 82.9852L0.0722941 77.0019ZM48.2727 77.0167L48.8405 76.4485L49.4081 75.8806H51.8894H51.949C53.6092 75.8805 54.4466 75.8805 54.869 76.2992C55.2988 76.7252 55.2988 77.5849 55.2987 79.3196V79.3806V79.4305C55.2987 81.175 55.2988 82.0374 54.8676 82.4638C54.446 82.8807 53.6121 82.8807 51.9627 82.8806H51.9144C48.4452 82.8806 48.4196 82.8564 48.3351 79.4924L48.2727 77.0167ZM138.044 82.0208C137.667 81.0392 137.926 76.8101 138.39 76.345C138.927 75.8081 143.542 75.6314 144.182 76.1231C145.175 76.8854 145.31 81.386 144.37 82.3276C143.372 83.3254 138.452 83.0866 138.044 82.0208ZM151.729 76.8093L152.193 76.345L152.657 75.8806H158.63H164.604L165.068 76.345C165.515 76.7925 165.532 76.9028 165.532 79.3806V79.4626C165.532 81.1788 165.532 82.0333 165.105 82.4588C164.681 82.8808 163.837 82.8807 162.156 82.8806H162.075L161.835 82.8805H161.835C160.329 82.8795 159.563 82.879 159.165 83.2614C158.753 83.6567 158.735 84.4613 158.698 86.098L158.692 86.3506L158.685 86.6441V86.6443C158.651 88.1474 158.634 88.9098 158.244 89.2961C157.843 89.6937 157.047 89.693 155.432 89.6916L155.125 89.6915C154.855 89.6915 154.606 89.6946 154.377 89.6976C153.353 89.7107 152.722 89.7188 152.335 89.4158C151.712 88.9293 151.716 87.6404 151.726 84.2812C151.727 83.8129 151.729 83.3043 151.729 82.752V76.8093ZM165.532 86.2887C165.532 83.9539 165.568 83.6694 165.917 83.2948C166.277 82.9081 166.473 82.8806 168.861 82.8806C172.403 82.8806 172.528 82.997 172.528 86.286C172.528 89.5675 172.396 89.6915 168.913 89.6915L168.726 89.6915C167.132 89.6921 166.333 89.6923 165.933 89.2931C165.531 88.892 165.531 88.088 165.532 86.4763L165.532 86.2887ZM193.712 89.5062C192.669 88.9476 192.623 83.9007 193.655 83.1171C194.231 82.6791 199.103 82.796 199.566 83.259C200.163 83.8565 200.137 88.6104 199.533 89.2537C199.084 89.7321 194.505 89.9308 193.712 89.5062ZM138.136 95.8104C137.683 94.8157 137.869 90.6773 138.39 90.1559C138.855 89.6907 143.082 89.4323 144.063 89.8089C145.128 90.218 145.367 95.1407 144.37 96.1385C143.346 97.1622 138.639 96.9146 138.136 95.8104ZM159.089 96.1385C158.148 95.1969 158.283 90.6962 159.276 89.934C159.916 89.4423 164.531 89.619 165.068 90.1559C165.533 90.621 165.791 94.8501 165.414 95.8316C165.006 96.8975 160.086 97.1363 159.089 96.1385ZM172.891 96.1385C171.933 95.1797 172.127 90.2254 173.138 89.818C174.056 89.4487 178.421 89.7058 178.87 90.1559C179.392 90.6773 179.578 94.8157 179.125 95.8104C178.622 96.9146 173.915 97.1622 172.891 96.1385ZM0.0904458 100.059C0.0934711 97.7432 0.265532 97.1393 1.03679 96.7399C1.39528 96.5541 2.87463 96.5087 7.31497 96.547C7.86522 96.5517 8.3702 96.5542 8.83366 96.5566H8.83384C11.9689 96.5724 13.2038 96.5786 13.6964 97.1864C14.0165 97.5814 14.0232 98.2303 14.0344 99.3009V99.3011C14.0369 99.5446 14.0396 99.81 14.0464 100.099L14.0505 100.279C14.0876 101.893 14.1061 102.699 14.5186 103.102C14.9301 103.503 15.7335 103.503 17.3383 103.502L17.5169 103.502C19.8568 103.502 19.9774 103.522 20.4221 103.967L20.8863 104.431V110.408V116.384L20.4221 116.849C19.9757 117.295 19.8619 117.313 17.4326 117.313L17.2967 117.313C15.6353 117.313 14.8317 117.313 14.4431 117.714C14.079 118.09 14.0792 118.819 14.0794 120.231L14.0795 120.354C14.0795 124.001 13.796 124.313 10.487 124.313C7.24142 124.313 7.08354 124.155 7.08354 120.911C7.08354 117.352 7.04818 117.316 3.5228 117.307C0.190658 117.299 0.0876097 117.191 0.0876097 113.717C0.0876097 111.43 0.0900671 111.417 0.640287 110.866L1.19297 110.313H3.73079L3.92882 110.313C5.4764 110.314 6.23597 110.314 6.61924 109.935C6.98868 109.569 7.00847 108.85 7.04734 107.438L7.05253 107.251C7.15236 103.681 6.98276 103.502 3.49765 103.502C0.168536 103.502 0.086097 103.419 0.0904458 100.059ZM144.736 103.739C144.739 97.5201 144.782 97.2052 145.682 96.7411C146.039 96.5572 147.539 96.5112 151.96 96.5483C152.745 96.5548 153.438 96.551 154.05 96.5475C156.355 96.5346 157.52 96.5281 158.101 97.1074C158.696 97.6997 158.68 98.9044 158.648 101.341V101.341C158.64 101.975 158.63 102.691 158.63 103.502C158.63 104.087 158.632 104.622 158.634 105.112V105.115C158.646 108.364 158.651 109.628 158.035 110.125C157.644 110.442 157.001 110.448 155.95 110.457C155.7 110.46 155.428 110.462 155.13 110.469C154.851 110.476 154.595 110.478 154.36 110.481C153.341 110.491 152.713 110.497 152.328 110.805C151.711 111.3 151.715 112.57 151.726 115.874V115.874C151.727 116.35 151.729 116.869 151.729 117.433C151.729 118.148 151.736 118.789 151.743 119.365V119.365C151.77 121.833 151.785 123.096 151.16 123.73C150.505 124.395 149.148 124.367 146.367 124.311H146.367C145.748 124.298 145.059 124.284 144.291 124.276L138.838 124.219L138.382 123.688L137.926 123.157V117.406C137.926 117.049 137.926 116.71 137.925 116.388V116.387C137.921 112.692 137.919 111.238 138.627 110.67C139.086 110.302 139.843 110.305 141.091 110.312C141.206 110.312 141.325 110.313 141.448 110.313C141.505 110.313 141.563 110.313 141.622 110.313C141.88 110.313 142.117 110.317 142.334 110.32C143.249 110.333 143.818 110.341 144.171 110.069C144.75 109.622 144.747 108.42 144.738 105.242V105.242V105.235C144.737 104.778 144.736 104.281 144.736 103.739ZM179.335 99.9526C179.434 97.1868 179.554 96.7908 180.341 96.6302C180.567 96.5839 183.334 96.5576 186.489 96.5716L192.225 96.5969L192.681 97.1278C193.113 97.6299 193.137 97.7915 193.137 100.116V100.134V100.135C193.137 101.811 193.137 102.653 193.558 103.076C193.983 103.502 194.836 103.502 196.548 103.502H196.567L196.724 103.502C198.342 103.502 199.147 103.502 199.548 103.904C199.945 104.303 199.945 105.097 199.944 106.677L199.944 106.831C199.944 110.493 199.935 110.502 196.267 110.502C196.002 110.502 195.759 110.499 195.536 110.495L195.535 110.495C194.628 110.481 194.061 110.473 193.707 110.743C193.119 111.193 193.123 112.417 193.134 115.676C193.136 116.156 193.137 116.681 193.137 117.254C193.137 117.818 193.136 118.336 193.134 118.812V118.812C193.123 122.114 193.119 123.38 193.73 123.857C194.11 124.153 194.727 124.144 195.728 124.131C195.96 124.128 196.213 124.124 196.488 124.124H196.568C198.249 124.124 199.093 124.124 199.517 124.546C199.944 124.971 199.944 125.826 199.944 127.542V127.624V127.694C199.944 129.421 199.944 130.278 199.516 130.704C199.093 131.124 198.252 131.124 196.583 131.124H196.514L196.362 131.124C194.74 131.124 193.934 131.124 193.533 131.527C193.137 131.925 193.137 132.717 193.137 134.293L193.137 134.442L193.137 134.639C193.138 136.287 193.138 137.111 192.726 137.523C192.314 137.936 191.488 137.936 189.836 137.935L189.639 137.935C189.354 137.935 189.091 137.938 188.85 137.942H188.849C187.789 137.955 187.14 137.964 186.745 137.652C186.123 137.161 186.127 135.876 186.138 132.569L186.138 132.56C186.14 132.084 186.141 131.567 186.141 131.004C186.141 130.461 186.143 129.962 186.144 129.503V129.5C186.154 126.207 186.157 124.988 185.573 124.546C185.23 124.286 184.684 124.294 183.818 124.307C183.612 124.31 183.388 124.313 183.144 124.313C179.466 124.313 179.335 124.2 179.335 121.027C179.335 117.45 179.221 117.328 175.899 117.319C175.67 117.319 175.455 117.32 175.254 117.321C174.119 117.327 173.424 117.331 172.999 116.995C172.327 116.462 172.33 115.077 172.337 111.504V111.498C172.338 111.1 172.339 110.674 172.339 110.219V104.431L172.803 103.967C173.248 103.521 173.367 103.502 175.723 103.502H175.727C177.456 103.502 178.326 103.502 178.779 103.068C179.239 102.628 179.27 101.741 179.334 99.9572V99.957L179.335 99.9526ZM41.4959 113.858C41.4959 111.243 41.5691 110.957 42.3468 110.532C42.5608 110.415 43.7365 110.322 45.0557 110.319C48.3406 110.311 48.4919 110.46 48.4919 113.717C48.4919 117.211 48.4051 117.299 44.9381 117.307L44.8838 117.307C43.1923 117.311 42.3453 117.313 41.9212 116.891C41.4959 116.467 41.4959 115.617 41.4959 113.913V113.858ZM158.575 117.476C158.516 111.121 158.546 110.905 159.54 110.504C160.26 110.214 164.159 110.278 164.762 110.59C165.488 110.965 165.532 111.146 165.532 113.725C165.532 117.174 165.672 117.313 169.146 117.313C172.373 117.313 172.528 117.47 172.528 120.753L172.528 120.949C172.529 122.253 172.529 123.056 172.138 123.547C171.509 124.337 169.869 124.32 165.594 124.278L165.195 124.274C164.434 124.267 163.76 124.269 163.164 124.272C160.883 124.28 159.733 124.285 159.155 123.712C158.566 123.128 158.57 121.947 158.578 119.562C158.58 118.95 158.583 118.258 158.575 117.476ZM20.8863 120.452C20.8863 118.26 20.9169 118.056 21.3002 117.699C21.6746 117.35 21.959 117.313 24.2924 117.313C24.5761 117.313 24.8361 117.31 25.0744 117.306H25.0745C26.0803 117.292 26.6994 117.283 27.0823 117.58C27.6955 118.054 27.7028 119.312 27.7216 122.583L27.7216 122.584C27.7244 123.067 27.7274 123.595 27.7327 124.17C27.738 124.748 27.7409 125.277 27.7436 125.762C27.7617 128.993 27.7687 130.252 28.3869 130.747C28.781 131.063 29.4234 131.069 30.4753 131.079C30.7228 131.082 30.993 131.084 31.2879 131.091L31.467 131.095C33.08 131.132 33.8858 131.151 34.2882 131.563C34.6899 131.975 34.6896 132.778 34.6891 134.385L34.6891 134.564C34.6891 136.905 34.7084 137.026 35.1533 137.47L35.6173 137.935H41.4619C42.0171 137.935 42.5272 137.937 42.9959 137.938C46.243 137.949 47.5014 137.953 47.9952 137.341C48.3077 136.953 48.3141 136.319 48.3245 135.283C48.3268 135.047 48.3294 134.79 48.3359 134.51C48.3426 134.218 48.3448 133.951 48.3469 133.708C48.3552 132.704 48.3604 132.087 48.6635 131.708C49.1476 131.104 50.3914 131.109 53.6211 131.12H53.6217C54.113 131.122 54.6502 131.124 55.2376 131.124C55.5564 131.124 55.8608 131.124 56.1514 131.124H56.1517C59.962 131.12 61.4141 131.118 61.9646 131.822C62.3035 132.256 62.3006 132.956 62.2958 134.089C62.2952 134.229 62.2946 134.376 62.2946 134.53C62.2946 137.774 62.1347 137.935 58.9126 137.935C55.419 137.935 55.2987 138.058 55.2987 141.642C55.2987 143.9 55.2779 144.027 54.8345 144.471L54.3705 144.935H41.6812C40.3836 144.935 39.2054 144.937 38.1358 144.94H38.1345C30.5933 144.955 28.4501 144.96 27.8715 144.011C27.6418 143.634 27.6587 143.107 27.6823 142.37C27.6907 142.107 27.7 141.817 27.6992 141.498C27.6903 137.958 27.6663 137.935 24.0156 137.935H23.9C22.3715 137.935 21.6181 137.935 21.2468 137.559C20.886 137.193 20.8861 136.471 20.8863 135.047L20.8863 134.936C20.8863 131.213 20.8061 131.127 17.3536 131.118C14.0089 131.11 13.8904 130.991 13.8904 127.645C13.8904 124.277 14.0458 124.124 17.4763 124.124C20.8392 124.124 20.8863 124.073 20.8863 120.452ZM35.5594 124.05C34.2538 123.504 33.981 118.481 35.2064 117.55C35.8111 117.09 40.5337 117.231 41.0584 117.725C41.5366 118.174 41.7351 122.756 41.3108 123.549C40.9041 124.309 36.9945 124.65 35.5594 124.05ZM55.4838 123.549C55.079 122.792 55.2567 118.234 55.7098 117.751C56.159 117.273 60.7379 117.074 61.5309 117.498C62.735 118.143 62.5803 123.392 61.3381 124.035C60.1119 124.67 55.896 124.32 55.4838 123.549ZM0.0876097 125.23L0.655036 124.663L1.22227 124.095L3.79186 124.157L4.04262 124.163C5.54511 124.198 6.30576 124.216 6.6906 124.605C7.08521 125.004 7.08469 125.794 7.08365 127.393L7.08354 127.654L7.08354 127.701C7.08357 129.423 7.08359 130.279 6.65574 130.704C6.23296 131.124 5.39242 131.124 3.72132 131.124H3.72114H3.67425H1.19297L0.640287 130.571C0.087609 130.018 0.0876097 130.018 0.0876097 127.624V125.23ZM41.4959 127.624C41.4959 125.146 41.5128 125.036 41.9601 124.589C42.4056 124.143 42.523 124.124 44.9052 124.124H47.3865L47.9392 124.677C48.4919 125.23 48.4919 125.23 48.4919 127.624C48.4919 130.018 48.4919 130.018 47.9392 130.571L47.3865 131.124H44.9052H44.8457C43.1854 131.124 42.348 131.124 41.9257 130.706C41.4958 130.279 41.4959 129.42 41.4959 127.685V127.624ZM151.729 127.624C151.729 125.146 151.746 125.036 152.193 124.589C152.639 124.143 152.756 124.124 155.138 124.124H157.62L158.172 124.677C158.725 125.23 158.725 125.23 158.725 127.624C158.725 130.018 158.725 130.018 158.172 130.571L157.62 131.124H155.138H155.079C153.419 131.124 152.581 131.124 152.159 130.706C151.729 130.279 151.729 129.42 151.729 127.685V127.624ZM137.926 148.345C137.926 132.218 137.929 132.118 138.318 131.623C138.709 131.125 138.717 131.124 141.424 131.124L141.628 131.124C143.274 131.123 144.098 131.123 144.51 131.535C144.923 131.948 144.923 132.775 144.922 134.431L144.922 134.636C144.922 134.887 144.919 135.119 144.917 135.333C144.905 136.334 144.898 136.953 145.195 137.334C145.675 137.95 146.951 137.947 150.29 137.938C150.732 137.936 151.211 137.935 151.729 137.935C152.279 137.935 152.784 137.937 153.248 137.938H153.25H153.25C156.48 137.949 157.734 137.953 158.227 137.342C158.54 136.955 158.547 136.319 158.558 135.28C158.56 135.045 158.563 134.789 158.569 134.51L158.576 134.212C158.61 132.675 158.627 131.902 159.022 131.514C159.421 131.122 160.207 131.122 161.787 131.124L162.09 131.124L162.283 131.124C163.923 131.123 164.735 131.123 165.137 131.529C165.533 131.928 165.532 132.719 165.532 134.288L165.532 134.477V134.508C165.532 136.234 165.532 137.09 165.96 137.516C166.382 137.935 167.221 137.935 168.886 137.935H168.916C171.24 137.935 171.401 137.96 171.903 138.391L172.433 138.848V155.224V171.6L172.003 172.031C171.604 172.432 171.386 172.467 168.933 172.524L168.754 172.528C167.141 172.565 166.335 172.583 165.933 172.996C165.531 173.407 165.531 174.211 165.532 175.818L165.532 175.996V175.999C165.532 177.677 165.532 178.519 165.111 178.942C164.687 179.368 163.835 179.368 162.125 179.368H162.123H159.641L159.089 178.815L158.536 178.262V175.788L158.536 175.492C158.538 174.046 158.538 173.312 158.172 172.939C157.793 172.554 157.022 172.555 155.456 172.557L155.146 172.557L155.005 172.557H155.005C153.37 172.556 152.551 172.556 152.141 172.966C151.729 173.377 151.729 174.202 151.729 175.855L151.729 175.996C151.729 178.337 151.71 178.458 151.265 178.903L150.801 179.368H144.828H138.854L138.39 178.903C137.945 178.457 137.926 178.338 137.92 175.923C137.919 175.612 137.924 175.33 137.928 175.074V175.074C137.943 174.142 137.952 173.566 137.678 173.207C137.234 172.626 136.047 172.613 132.939 172.579C132.413 172.573 131.831 172.567 131.189 172.557L125.036 172.462L124.58 171.931C124.148 171.429 124.123 171.268 124.123 168.943C124.123 165.56 124.12 165.557 120.754 165.557H120.621C118.962 165.557 118.136 165.557 117.725 165.144C117.316 164.734 117.316 163.917 117.317 162.29L117.317 162.158L117.316 161.842C117.315 160.234 117.314 159.44 117.711 159.039C118.098 158.647 118.864 158.63 120.378 158.597L120.683 158.59L121.002 158.583C122.536 158.549 123.306 158.532 123.7 158.139C124.097 157.743 124.114 156.967 124.149 155.409L124.157 155.087L124.163 154.816C124.197 153.291 124.215 152.523 124.608 152.136C125.006 151.744 125.792 151.745 127.374 151.746L127.651 151.746C130.096 151.746 130.209 151.763 130.655 152.21L131.119 152.675V158.622C131.119 159.212 131.117 159.752 131.116 160.246C131.104 163.475 131.099 164.723 131.702 165.196C132.082 165.494 132.703 165.485 133.715 165.47C133.96 165.466 134.229 165.462 134.523 165.462C134.932 165.462 135.293 165.488 135.611 165.51H135.611C136.223 165.554 136.676 165.586 137.011 165.402C137.967 164.879 137.96 162.6 137.936 153.819V153.818C137.931 152.219 137.926 150.404 137.926 148.345ZM172.339 134.53C172.339 132.379 172.381 132.068 172.731 131.623C173.121 131.125 173.13 131.124 175.837 131.124L176 131.124H176C177.683 131.124 178.516 131.123 178.929 131.54C179.335 131.95 179.335 132.761 179.335 134.37V134.371L179.335 134.53L179.335 134.688V134.689C179.335 136.298 179.335 137.109 178.929 137.519C178.516 137.936 177.683 137.935 176 137.935H176L175.837 137.935L175.673 137.935H175.673C173.991 137.935 173.157 137.936 172.744 137.519C172.338 137.109 172.338 136.298 172.339 134.689V134.688L172.339 134.53ZM0.640287 144.382C-0.348029 143.393 -0.141176 138.667 0.912751 138.156C1.13492 138.049 2.40534 137.955 3.73589 137.948L3.76555 137.948C5.39921 137.939 6.22852 137.935 6.64951 138.347C7.08356 138.772 7.08355 139.64 7.08354 141.404V141.435C7.08354 144.932 7.08032 144.935 3.63795 144.935H1.19297L0.640287 144.382ZM14.4431 144.382C13.4848 143.423 13.6784 138.469 14.69 138.062C15.6074 137.692 19.9725 137.949 20.4221 138.399C20.9587 138.936 21.1353 143.554 20.6439 144.195C19.8821 145.188 15.3841 145.323 14.4431 144.382ZM62.1055 141.612C62.1055 139.232 62.2309 138.65 62.8454 138.177C63.0661 138.008 64.7022 137.945 69.0287 137.941C69.5873 137.94 70.1009 137.938 70.573 137.936H70.5746C73.854 137.922 75.1327 137.916 75.6233 138.535C75.9368 138.931 75.9285 139.582 75.9148 140.648C75.9117 140.889 75.9083 141.15 75.9083 141.435L75.9084 141.639C75.909 143.286 75.9093 144.11 75.4973 144.523C75.0846 144.936 74.258 144.936 72.6034 144.935L72.3986 144.935C72.1465 144.935 71.9135 144.932 71.6982 144.93C70.7019 144.918 70.0853 144.91 69.7045 145.206C69.0859 145.687 69.0895 146.968 69.0989 150.33V150.334C69.1001 150.781 69.1015 151.264 69.1015 151.786V157.64L68.5488 158.193C67.9961 158.746 67.9957 158.746 65.6037 158.746H65.6035H65.6033C63.2113 158.746 63.2109 158.746 62.6582 158.193L62.1055 157.64V155.157V155.127C62.1056 153.439 62.1056 152.594 61.6829 152.171C61.2588 151.746 60.4088 151.746 58.7057 151.746H58.6757L58.5083 151.746C56.8997 151.746 56.0971 151.747 55.6967 151.345C55.298 150.946 55.2982 150.148 55.2987 148.556L55.2987 148.39C55.2987 144.813 55.3692 144.746 59.1085 144.746H59.2206C60.6418 144.746 61.3629 144.746 61.7289 144.386C62.1059 144.014 62.1058 143.26 62.1056 141.729L62.1055 141.612ZM82.9043 141.435C82.9043 138.726 82.9056 138.718 83.4025 138.327C83.9856 137.868 94.8694 137.709 95.8265 138.145C96.9299 138.648 97.1775 143.358 96.1544 144.382L95.6017 144.935H89.7512C89.1968 144.935 88.687 144.937 88.2182 144.938H88.2175C84.9544 144.949 83.68 144.953 83.1901 144.335C82.8761 143.939 82.8843 143.288 82.8979 142.219C82.9009 141.979 82.9043 141.718 82.9043 141.435ZM110.321 141.597C110.321 139.147 110.481 138.478 111.146 138.156C111.406 138.03 114.864 137.956 120.87 137.948L130.191 137.935L130.655 138.399C131.102 138.846 131.119 138.957 131.113 141.379C131.113 141.579 131.114 141.768 131.114 141.946V141.946C131.119 143.104 131.122 143.815 130.777 144.251C130.228 144.944 128.8 144.942 125.1 144.936H125.1C124.742 144.936 124.362 144.935 123.961 144.935H118.1L117.709 145.434C117.359 145.878 117.317 146.19 117.317 148.34V148.417C117.317 150.099 117.317 150.931 116.901 151.343C116.493 151.746 115.688 151.746 114.093 151.746H114.019L113.81 151.746C112.173 151.745 111.359 151.745 110.945 152.151C110.536 152.553 110.518 153.353 110.481 154.943L110.477 155.149L110.475 155.218C110.434 157.003 110.414 157.853 109.979 158.271C109.583 158.651 108.843 158.672 107.43 158.713L107.37 158.715C103.631 158.825 103.515 158.727 103.511 155.482C103.507 151.775 103.478 151.746 99.8363 151.746C96.552 151.746 96.4213 151.585 96.5474 147.701C96.554 147.5 96.5578 147.313 96.5613 147.139V147.139C96.5779 146.327 96.5886 145.802 96.8439 145.459C97.3115 144.831 98.6001 144.814 102.249 144.765L102.254 144.765C102.679 144.759 103.137 144.753 103.629 144.746C104.254 144.736 104.821 144.73 105.336 144.724C108.499 144.688 109.676 144.674 110.103 144.101C110.356 143.762 110.346 143.227 110.33 142.374C110.326 142.139 110.321 141.881 110.321 141.597ZM75.9083 148.391C75.9083 145.802 76.0577 145.291 76.9212 144.926C77.1441 144.831 78.3764 144.774 79.6595 144.797C82.8577 144.856 82.9043 144.907 82.9043 148.36V148.408C82.9043 150.059 82.9043 150.893 82.4871 151.315C82.0609 151.746 81.1989 151.746 79.4562 151.746H79.4063H79.371C77.6155 151.746 76.75 151.746 76.3233 151.313C75.9083 150.892 75.9083 150.062 75.9083 148.425V148.391ZM193.712 151.561C192.378 150.846 192.724 145.147 194.118 144.881C196.173 144.488 199.406 144.849 199.759 145.51C200.164 146.267 199.986 150.825 199.533 151.308C199.084 151.786 194.505 151.985 193.712 151.561ZM165.437 145.658L164.991 145.297C164.565 144.951 164.117 144.935 155.145 144.935H145.745L145.333 145.373C144.727 146.019 144.68 164.27 145.284 165.015L145.645 165.462L154.875 165.515C164.747 165.571 164.952 165.554 165.332 164.637C165.479 164.281 165.527 161.361 165.49 154.893L165.437 145.658ZM89.9535 158.006C89.4621 157.365 89.6387 152.747 90.1753 152.21C90.64 151.745 94.8667 151.487 95.8477 151.863C96.9129 152.272 97.1516 157.195 96.1544 158.193C95.2133 159.134 90.7153 158.998 89.9535 158.006ZM152.102 158.174C151.472 157.542 151.543 152.861 152.193 152.21C152.843 151.56 157.522 151.488 158.153 152.119C158.946 152.913 158.982 157.439 158.2 158.221C157.419 159.003 152.896 158.967 152.102 158.174ZM69.5997 165.165C68.6399 164.409 68.8992 159.169 69.9174 158.74C70.8699 158.338 75.1537 158.611 75.5474 159.098C76.1256 159.813 76.0866 164.491 75.4973 165.119C74.8988 165.756 70.3957 165.791 69.5997 165.165ZM82.8725 162.027C82.9366 159.356 83.0209 159.039 83.7485 158.729C84.5088 158.406 88.9033 158.612 89.2794 158.989C89.585 159.295 89.6254 159.904 89.7111 165.486L89.8056 171.645L90.2521 172.006C90.64 172.32 91.0186 172.368 93.1501 172.368H95.6017L96.1544 172.921L96.707 173.474V175.927L96.7069 176.167C96.706 177.711 96.7055 178.484 97.0916 178.879C97.4784 179.276 98.2533 179.293 99.8048 179.329L100.046 179.334C100.349 179.342 100.626 179.344 100.879 179.346C101.914 179.355 102.546 179.361 102.931 179.672C103.535 180.16 103.53 181.401 103.518 184.586C103.516 185.082 103.514 185.625 103.514 186.22V192.25L103.05 192.714C102.603 193.161 102.49 193.178 100.057 193.178L99.8173 193.178C98.3109 193.177 97.5451 193.177 97.1471 193.559C96.7355 193.955 96.7171 194.759 96.6798 196.396L96.6739 196.648L96.6672 196.942C96.6334 198.445 96.6163 199.208 96.2264 199.594C95.8252 199.992 95.0292 199.991 93.4139 199.99L93.1073 199.989C92.8389 199.989 92.5916 199.992 92.3638 199.995H92.3636H92.3635C91.3355 200.008 90.7033 200.016 90.3149 199.712C89.6944 199.227 89.697 197.945 89.7037 194.614C89.7046 194.152 89.7056 193.65 89.705 193.106C89.7047 192.718 89.7049 192.351 89.7052 192.006C89.7076 188.501 89.7086 187.097 89.0218 186.538C88.5628 186.165 87.7965 186.169 86.518 186.176H86.5178C86.329 186.177 86.129 186.178 85.9172 186.178H85.8448H85.8446C84.3746 186.179 83.6395 186.179 83.2719 185.811C82.9041 185.443 82.9042 184.708 82.9043 183.236V183.164C82.9043 179.473 82.819 179.382 79.3505 179.374C76.9373 179.368 76.818 179.349 76.3725 178.903L75.9083 178.439V172.462V166.485L76.3725 166.021C76.8176 165.576 76.9371 165.557 79.2926 165.557C82.7855 165.557 82.788 165.554 82.8725 162.027ZM179.536 159.29C179.647 159.083 179.923 158.838 180.15 158.745C180.379 158.651 184.74 158.592 189.893 158.613L199.222 158.651L199.583 159.098C199.932 159.53 199.944 160.08 199.944 175.897V192.25L199.48 192.714C198.772 193.422 194.394 193.428 193.573 192.722L193.043 192.265L192.99 182.751C192.944 174.275 192.904 173.2 192.63 172.897C192.347 172.584 191.869 172.557 186.613 172.557C180.728 172.557 179.88 172.465 179.52 171.793C179.259 171.305 179.274 159.78 179.536 159.29ZM62.1386 168.898C62.1971 166.41 62.2224 166.261 62.6465 165.918C63.4077 165.302 67.9976 165.381 68.6373 166.021L69.1015 166.485V172.462V178.439L68.6373 178.903L68.1733 179.368H62.2341C61.6776 179.368 61.1654 179.369 60.6941 179.371H60.6939C57.3521 179.381 56.0647 179.385 55.5767 178.763C55.2709 178.372 55.2791 177.736 55.2924 176.701C55.2954 176.468 55.2987 176.215 55.2987 175.94L55.2987 175.826C55.2985 174.077 55.2984 173.213 55.7306 172.785C56.1534 172.367 56.9899 172.367 58.6448 172.368H58.7551L58.9953 172.368C60.5017 172.369 61.2675 172.369 61.6655 171.987C62.077 171.591 62.0954 170.787 62.1328 169.15L62.1386 168.898ZM97.0426 172.032C96.2676 171.256 96.3071 166.714 97.0958 165.924C97.6829 165.337 102.442 165.372 103.076 165.968C103.705 166.559 103.752 171.283 103.136 171.945C102.373 172.765 97.8404 172.83 97.0426 172.032ZM110.846 172.031C110.171 171.356 110.183 166.468 110.862 165.918C111.623 165.302 116.212 165.381 116.852 166.021C117.586 166.755 117.568 171.308 116.829 172.004C116.098 172.69 111.526 172.711 110.846 172.031ZM173.198 179.25C172.133 178.841 171.894 173.918 172.891 172.921C173.832 171.979 178.33 172.115 179.092 173.108C179.584 173.748 179.407 178.366 178.87 178.903C178.406 179.368 174.179 179.627 173.198 179.25ZM69.1015 182.78C69.1015 180.307 69.1278 180.115 69.5154 179.753C69.8903 179.404 70.1737 179.368 72.5406 179.368C72.6637 179.368 72.7823 179.367 72.8965 179.367C74.399 179.365 75.153 179.364 75.5309 179.741C75.9117 180.12 75.9107 180.882 75.9086 182.413C75.9085 182.529 75.9083 182.649 75.9083 182.773C75.9083 185.169 75.8724 185.458 75.5302 185.8C75.1879 186.143 74.9 186.178 72.5049 186.178C72.3774 186.178 72.2546 186.179 72.1365 186.179C70.6159 186.181 69.856 186.182 69.4767 185.803C69.0979 185.424 69.099 184.665 69.1011 183.148C69.1013 183.03 69.1015 182.908 69.1015 182.78ZM124.123 182.773C124.123 180.623 124.165 180.311 124.515 179.866C124.906 179.369 124.914 179.368 127.621 179.368L127.785 179.368H127.785C129.467 179.367 130.301 179.367 130.714 179.784C131.12 180.193 131.12 181.005 131.119 182.614V182.614L131.119 182.773L131.119 182.932V182.932C131.12 184.541 131.12 185.353 130.714 185.762C130.301 186.179 129.467 186.179 127.785 186.178H127.785L127.621 186.178L127.458 186.178H127.458C125.775 186.179 124.942 186.179 124.529 185.762C124.123 185.353 124.123 184.541 124.123 182.932L124.123 182.773ZM165.532 186.118C165.532 180.347 165.539 180.236 165.943 179.805C166.392 179.327 170.971 179.128 171.764 179.553C172.472 179.932 172.528 180.669 172.528 189.678C172.528 198.688 172.472 199.425 171.764 199.804C171.559 199.914 168.989 199.989 165.471 199.989C164.884 199.989 164.347 199.991 163.856 199.993H163.854C160.616 200.005 159.368 200.009 158.895 199.406C158.599 199.028 158.608 198.41 158.623 197.406V197.405C158.627 197.162 158.63 196.896 158.63 196.606L158.63 196.346C158.629 194.724 158.629 193.913 159.034 193.498C159.439 193.083 160.25 193.065 161.871 193.028L162.131 193.022C162.408 193.016 162.662 193.013 162.896 193.011C163.921 193.001 164.55 192.994 164.936 192.684C165.55 192.191 165.546 190.928 165.535 187.655V187.654C165.533 187.184 165.532 186.674 165.532 186.118ZM179.335 182.773C179.335 180.377 179.371 180.088 179.713 179.746C180.055 179.404 180.343 179.368 182.738 179.368C185.133 179.368 185.421 179.404 185.763 179.746C186.106 180.088 186.141 180.377 186.141 182.773C186.141 185.169 186.106 185.458 185.763 185.8C185.421 186.143 185.133 186.178 182.738 186.178C180.343 186.178 180.055 186.143 179.713 185.8C179.371 185.458 179.335 185.169 179.335 182.773ZM62.1445 193.527C62.0842 187.311 62.0985 187.133 62.7108 186.562C63.0816 186.216 63.3722 186.178 65.6478 186.178H65.7084C67.4046 186.178 68.2529 186.178 68.6772 186.603C69.1016 187.027 69.1015 187.876 69.1015 189.574V189.634L69.1015 189.755C69.1012 191.432 69.1011 192.239 69.5046 192.628C69.8795 192.99 70.6027 192.99 71.9978 192.989H72.1059C75.8408 192.989 75.9083 193.054 75.9083 196.659C75.9083 196.944 75.9122 197.204 75.9157 197.443L75.9157 197.444C75.9304 198.429 75.9394 199.036 75.6484 199.409C75.1806 200.009 73.9374 200.004 70.6953 199.993C70.206 199.991 69.6712 199.989 69.0867 199.989C63.4682 199.989 63.0649 199.967 62.6465 199.628L62.2001 199.266L62.1445 193.527ZM76.1507 192.438C75.6593 191.798 75.8359 187.18 76.3725 186.643C76.9089 186.106 81.5242 185.929 82.1644 186.421C83.3338 187.319 83.2242 192.421 82.0237 192.968C80.7762 193.537 76.7125 193.17 76.1507 192.438ZM137.926 187.107L138.39 186.643C138.837 186.196 138.947 186.179 141.368 186.184C144.848 186.193 144.922 186.27 144.922 189.855V189.972C144.922 191.503 144.922 192.258 145.299 192.629C145.665 192.99 146.386 192.99 147.807 192.989H147.919C151.655 192.989 151.729 193.06 151.729 196.607C151.729 198.92 151.697 199.147 151.318 199.552L150.907 199.989H144.808H138.71L138.318 199.491C137.941 199.011 137.926 198.775 137.926 193.05V187.107ZM117.317 196.661C117.317 193.775 117.358 193.605 118.149 193.255C118.611 193.051 119.946 193.005 124.471 193.04L130.207 193.084L130.663 193.615C131.369 194.436 131.363 198.817 130.655 199.525L130.191 199.989H124.192C123.63 199.989 123.114 199.991 122.64 199.992C119.325 200.003 118.058 200.007 117.582 199.396C117.288 199.018 117.297 198.404 117.31 197.412C117.313 197.182 117.317 196.933 117.317 196.661ZM179.335 196.661C179.335 193.775 179.376 193.605 180.167 193.255C180.629 193.051 181.964 193.005 186.489 193.04L192.225 193.084L192.681 193.615C193.387 194.436 193.381 198.817 192.673 199.525L192.209 199.989H186.21C185.648 199.989 185.132 199.991 184.658 199.992C181.343 200.003 180.076 200.007 179.6 199.396C179.306 199.018 179.315 198.404 179.328 197.412C179.331 197.182 179.335 196.933 179.335 196.661ZM12.0983 151.56C5.41659 151.56 0 156.977 0 163.659V187.901C0 194.583 5.41661 199.999 12.0983 199.999H36.1059C42.7876 199.999 48.2042 194.583 48.2042 187.901V163.659C48.2042 156.977 42.7876 151.56 36.1058 151.56H12.0983ZM13.6107 156.101C8.59937 156.101 4.53693 160.164 4.53693 165.175V186.384C4.53693 191.396 8.59938 195.458 13.6107 195.458H34.5936C39.6049 195.458 43.6674 191.396 43.6674 186.384V165.175C43.6674 160.164 39.6049 156.101 34.5936 156.101H13.6107ZM13.7997 171.422C13.7997 168.082 16.508 165.373 19.8488 165.373H28.5445C31.8853 165.373 34.5936 168.082 34.5936 171.422V180.138C34.5936 183.479 31.8853 186.187 28.5445 186.187H19.8488C16.508 186.187 13.7997 183.479 13.7997 180.138V171.422Z" fill="url(#paint0_linear_7489_51216)"/>
<defs>
<linearGradient id="paint0_linear_7489_51216" x1="0" y1="0" x2="200.189" y2="199.811" gradientUnits="userSpaceOnUse">
<stop offset="0.466216" stop-color="#FDBF1C"/>
<stop offset="1" stop-color="#FDA31C"/>
</linearGradient>
</defs>
</svg>
